G75*
%MOIN*%
%OFA0B0*%
%FSLAX25Y25*%
%IPPOS*%
%LPD*%
%AMOC8*
5,1,8,0,0,1.08239X$1,22.5*
%
%ADD10C,0.13398*%
%ADD11OC8,0.07800*%
%ADD12C,0.07800*%
%ADD13R,0.06706X0.05918*%
%ADD14C,0.07296*%
%ADD15OC8,0.10800*%
%ADD16R,0.05918X0.06706*%
%ADD17R,0.07800X0.07800*%
%ADD18R,0.09461X0.07887*%
%ADD19C,0.07400*%
%ADD20C,0.10800*%
%ADD21C,0.04000*%
%ADD22R,0.10643X0.08674*%
%ADD23R,0.13792X0.08674*%
%ADD24R,0.13005X0.02769*%
%ADD25R,0.04400X0.05600*%
%ADD26R,0.06706X0.02375*%
%ADD27R,0.10249X0.10249*%
%ADD28C,0.03900*%
%ADD29C,0.04800*%
%ADD30C,0.04762*%
%ADD31C,0.18800*%
D10*
X0036595Y0039256D03*
X0036595Y0196217D03*
X0405595Y0196217D03*
X0405595Y0039256D03*
D11*
X0247595Y0179256D03*
X0299595Y0189256D03*
X0309595Y0189256D03*
D12*
X0319595Y0189256D03*
X0329595Y0189256D03*
X0339595Y0189256D03*
X0267595Y0189256D03*
X0257595Y0189256D03*
X0247595Y0189256D03*
X0257595Y0179256D03*
X0267595Y0179256D03*
D13*
X0166595Y0112996D03*
X0166595Y0105516D03*
X0113595Y0106516D03*
X0113595Y0113996D03*
X0095595Y0138516D03*
X0095595Y0145996D03*
D14*
X0371741Y0157335D02*
X0378237Y0157335D01*
X0378237Y0167177D02*
X0371741Y0167177D01*
X0371741Y0118177D02*
X0378237Y0118177D01*
X0378237Y0108335D02*
X0371741Y0108335D01*
X0371741Y0078277D02*
X0378237Y0078277D01*
X0378237Y0068435D02*
X0371741Y0068435D01*
D15*
X0327595Y0117256D03*
X0327595Y0147256D03*
D16*
X0329562Y0174013D03*
X0337042Y0174013D03*
X0346855Y0174256D03*
X0354335Y0174256D03*
X0319335Y0174256D03*
X0311855Y0174256D03*
X0301335Y0174256D03*
X0293855Y0174256D03*
D17*
X0349595Y0189256D03*
D18*
X0343595Y0142295D03*
X0343595Y0122217D03*
D19*
X0360595Y0101130D03*
X0360595Y0093256D03*
X0360595Y0085382D03*
D20*
X0077406Y0076256D02*
X0077406Y0066256D01*
X0070595Y0052358D02*
X0060595Y0052358D01*
X0053784Y0066256D02*
X0053784Y0076256D01*
D21*
X0053784Y0075980D03*
X0053784Y0075193D03*
X0053784Y0074406D03*
X0053784Y0073618D03*
X0053784Y0072831D03*
X0053784Y0072043D03*
X0053784Y0070469D03*
X0053784Y0069681D03*
X0053784Y0068894D03*
X0053784Y0068106D03*
X0053784Y0067319D03*
X0053784Y0066531D03*
X0053784Y0065744D03*
X0053784Y0076768D03*
X0077406Y0076768D03*
X0077406Y0075980D03*
X0077406Y0075193D03*
X0077406Y0074406D03*
X0077406Y0073618D03*
X0077406Y0072831D03*
X0077406Y0072043D03*
X0077406Y0070469D03*
X0077406Y0069681D03*
X0077406Y0068894D03*
X0077406Y0068106D03*
X0077406Y0067319D03*
X0077406Y0066531D03*
X0077406Y0065744D03*
X0071107Y0052358D03*
X0070320Y0052358D03*
X0069532Y0052358D03*
X0068745Y0052358D03*
X0067957Y0052358D03*
X0067170Y0052358D03*
X0066383Y0052358D03*
X0064808Y0052358D03*
X0064020Y0052358D03*
X0063233Y0052358D03*
X0062446Y0052358D03*
X0061658Y0052358D03*
X0060871Y0052358D03*
X0060083Y0052358D03*
D22*
X0034784Y0100236D03*
X0034784Y0135276D03*
D23*
X0058012Y0135276D03*
X0058012Y0100236D03*
D24*
X0058406Y0111457D03*
X0058406Y0114606D03*
X0058406Y0117756D03*
X0058406Y0120906D03*
X0058406Y0124055D03*
D25*
X0085595Y0122806D03*
X0085595Y0135706D03*
D26*
X0112323Y0135740D03*
X0112323Y0133181D03*
X0112323Y0130622D03*
X0112323Y0138299D03*
X0112323Y0140858D03*
X0112323Y0143417D03*
X0112323Y0145976D03*
X0112323Y0148535D03*
X0112323Y0151094D03*
X0112323Y0153654D03*
X0112323Y0156213D03*
X0112323Y0158772D03*
X0112323Y0161331D03*
X0112323Y0163890D03*
X0140867Y0163890D03*
X0140867Y0161331D03*
X0140867Y0158772D03*
X0140867Y0156213D03*
X0140867Y0153654D03*
X0140867Y0151094D03*
X0140867Y0148535D03*
X0140867Y0145976D03*
X0140867Y0143417D03*
X0140867Y0140858D03*
X0140867Y0138299D03*
X0140867Y0135740D03*
X0140867Y0133181D03*
X0140867Y0130622D03*
D27*
X0097595Y0120098D03*
X0097595Y0100413D03*
D28*
X0138595Y0107256D03*
X0158595Y0078256D03*
X0214595Y0092256D03*
X0205595Y0117256D03*
X0204595Y0166256D03*
X0161595Y0166256D03*
X0359595Y0056256D03*
D29*
X0212595Y0074256D03*
X0205595Y0079256D03*
X0197595Y0084256D03*
X0204595Y0089256D03*
X0191595Y0094256D03*
X0172595Y0065256D03*
X0162595Y0065256D03*
X0119595Y0173256D03*
X0124595Y0178256D03*
X0084595Y0173706D03*
D30*
X0128595Y0095256D03*
X0128595Y0084256D03*
X0303595Y0098256D03*
X0327595Y0096256D03*
D31*
X0036595Y0039256D03*
X0036595Y0196256D03*
X0405595Y0196256D03*
X0405595Y0039256D03*
M02*
