G75*
%MOIN*%
%OFA0B0*%
%FSLAX25Y25*%
%IPPOS*%
%LPD*%
%AMOC8*
5,1,8,0,0,1.08239X$1,22.5*
%
%ADD10R,0.05118X0.05906*%
%ADD11OC8,0.07000*%
%ADD12C,0.07000*%
%ADD13R,0.05906X0.05118*%
%ADD14R,0.02600X0.08000*%
%ADD15C,0.06496*%
%ADD16OC8,0.10000*%
%ADD17R,0.07000X0.07000*%
%ADD18R,0.04724X0.09449*%
%ADD19R,0.05906X0.01969*%
%ADD20R,0.01969X0.05906*%
%ADD21R,0.07874X0.02362*%
%ADD22R,0.09449X0.09449*%
%ADD23R,0.05906X0.05906*%
%ADD24R,0.09843X0.13780*%
%ADD25R,0.07087X0.09449*%
%ADD26R,0.24409X0.21260*%
%ADD27R,0.06299X0.03937*%
%ADD28R,0.03600X0.04800*%
%ADD29R,0.02000X0.03200*%
%ADD30C,0.06600*%
%ADD31C,0.10000*%
%ADD32C,0.01200*%
%ADD33C,0.02400*%
%ADD34C,0.01400*%
%ADD35C,0.01000*%
%ADD36C,0.01600*%
%ADD37C,0.03100*%
%ADD38C,0.04000*%
%ADD39C,0.03962*%
%ADD40C,0.18000*%
D10*
X0163855Y0053256D03*
X0171335Y0053256D03*
X0106335Y0103256D03*
X0098855Y0103256D03*
X0098855Y0135256D03*
X0106335Y0135256D03*
X0100335Y0181256D03*
X0092855Y0181256D03*
X0092855Y0193256D03*
X0100335Y0193256D03*
D11*
X0247595Y0179256D03*
X0299595Y0189256D03*
X0309595Y0189256D03*
D12*
X0319595Y0189256D03*
X0329595Y0189256D03*
X0339595Y0189256D03*
X0267595Y0189256D03*
X0257595Y0189256D03*
X0247595Y0189256D03*
X0257595Y0179256D03*
X0267595Y0179256D03*
D13*
X0281595Y0167996D03*
X0281595Y0160516D03*
X0142181Y0127168D03*
X0142181Y0119687D03*
X0043595Y0166516D03*
X0043595Y0173996D03*
D14*
X0250095Y0141356D03*
X0255095Y0141356D03*
X0260095Y0141356D03*
X0265095Y0141356D03*
X0270095Y0141356D03*
X0275095Y0141356D03*
X0280095Y0141356D03*
X0285095Y0141356D03*
X0285095Y0117156D03*
X0280095Y0117156D03*
X0275095Y0117156D03*
X0270095Y0117156D03*
X0265095Y0117156D03*
X0260095Y0117156D03*
X0255095Y0117156D03*
X0250095Y0117156D03*
D15*
X0371741Y0118177D02*
X0378237Y0118177D01*
X0378237Y0108335D02*
X0371741Y0108335D01*
X0371741Y0078277D02*
X0378237Y0078277D01*
X0378237Y0068435D02*
X0371741Y0068435D01*
X0371741Y0157335D02*
X0378237Y0157335D01*
X0378237Y0167177D02*
X0371741Y0167177D01*
D16*
X0327595Y0147256D03*
X0327595Y0117256D03*
D17*
X0349595Y0189256D03*
D18*
X0346595Y0083431D03*
X0328595Y0083431D03*
X0312595Y0083431D03*
X0294595Y0083431D03*
X0278595Y0083431D03*
X0260595Y0083431D03*
X0244595Y0083431D03*
X0226595Y0083431D03*
X0226595Y0051080D03*
X0244595Y0051080D03*
X0260595Y0051080D03*
X0278595Y0051080D03*
X0294595Y0051080D03*
X0312595Y0051080D03*
X0328595Y0051080D03*
X0346595Y0051080D03*
X0149107Y0041145D03*
X0138083Y0041145D03*
X0138083Y0065367D03*
X0149107Y0065367D03*
D19*
X0157156Y0109525D03*
X0157156Y0112675D03*
X0157156Y0115824D03*
X0157156Y0118974D03*
X0157156Y0122124D03*
X0157156Y0125273D03*
X0157156Y0128423D03*
X0157156Y0131572D03*
X0190620Y0131572D03*
X0190620Y0128423D03*
X0190620Y0125273D03*
X0190620Y0122124D03*
X0190620Y0118974D03*
X0190620Y0115824D03*
X0190620Y0112675D03*
X0190620Y0109525D03*
D20*
X0184912Y0103817D03*
X0181762Y0103817D03*
X0178612Y0103817D03*
X0175463Y0103817D03*
X0172313Y0103817D03*
X0169164Y0103817D03*
X0166014Y0103817D03*
X0162864Y0103817D03*
X0162864Y0137281D03*
X0166014Y0137281D03*
X0169164Y0137281D03*
X0172313Y0137281D03*
X0175463Y0137281D03*
X0178612Y0137281D03*
X0181762Y0137281D03*
X0184912Y0137281D03*
D21*
X0206474Y0134687D03*
X0206474Y0129963D03*
X0206474Y0125239D03*
D22*
X0112438Y0117256D03*
X0092753Y0117256D03*
X0092753Y0147256D03*
X0112438Y0147256D03*
D23*
X0075485Y0169256D03*
X0061705Y0169256D03*
X0061705Y0181256D03*
X0075485Y0181256D03*
X0075485Y0193256D03*
X0061705Y0193256D03*
X0281595Y0191146D03*
X0281595Y0177366D03*
D24*
X0109595Y0063051D03*
X0109595Y0037461D03*
D25*
X0101623Y0084256D03*
X0117568Y0084256D03*
D26*
X0050753Y0111256D03*
X0050753Y0143256D03*
D27*
X0079493Y0152232D03*
X0079493Y0134280D03*
X0079493Y0120232D03*
X0079493Y0102280D03*
D28*
X0092595Y0160806D03*
X0092595Y0173706D03*
D29*
X0224871Y0104556D03*
X0228020Y0104556D03*
X0231170Y0104556D03*
X0234320Y0104556D03*
X0234320Y0097956D03*
X0231170Y0097956D03*
X0228020Y0097956D03*
X0224871Y0097956D03*
X0257871Y0097956D03*
X0261020Y0097956D03*
X0264170Y0097956D03*
X0267320Y0097956D03*
X0267320Y0104556D03*
X0264170Y0104556D03*
X0261020Y0104556D03*
X0257871Y0104556D03*
D30*
X0360595Y0101130D03*
X0360595Y0093256D03*
X0360595Y0085382D03*
D31*
X0077406Y0076256D02*
X0077406Y0066256D01*
X0070595Y0052358D02*
X0060595Y0052358D01*
X0053784Y0066256D02*
X0053784Y0076256D01*
D32*
X0219595Y0100256D02*
X0221595Y0098256D01*
X0224571Y0098256D01*
X0224871Y0097956D02*
X0228020Y0097956D01*
X0231170Y0097956D01*
X0219595Y0100256D02*
X0219595Y0116256D01*
X0244695Y0141356D01*
X0250095Y0141356D01*
X0255095Y0141356D01*
X0260095Y0141356D01*
X0265095Y0141356D01*
X0270095Y0141356D01*
X0275095Y0117156D02*
X0275095Y0111756D01*
X0278595Y0108256D01*
X0307595Y0108256D01*
X0319595Y0096256D01*
X0327595Y0096256D01*
X0281595Y0167996D02*
X0281595Y0177366D01*
D33*
X0269485Y0191146D02*
X0267595Y0189256D01*
X0269485Y0191146D02*
X0281595Y0191146D01*
X0247595Y0189256D02*
X0247595Y0198256D01*
X0244595Y0198256D01*
X0236595Y0190256D01*
X0236595Y0173256D01*
X0223595Y0160256D01*
X0141595Y0160256D01*
X0142181Y0159670D01*
X0142181Y0127168D01*
X0142181Y0119687D02*
X0134164Y0119687D01*
X0118595Y0135256D01*
X0106335Y0135256D01*
X0112438Y0135358D01*
X0112438Y0147256D01*
X0112595Y0149256D01*
X0112595Y0148256D01*
X0112595Y0149256D02*
X0112595Y0157256D01*
X0102595Y0167256D01*
X0087595Y0167256D01*
X0080595Y0160256D01*
X0050753Y0160256D01*
X0043753Y0160358D01*
X0043595Y0166516D01*
X0043595Y0173996D02*
X0056965Y0173996D01*
X0061705Y0169256D01*
X0061705Y0183035D02*
X0075485Y0169256D01*
X0079935Y0173706D01*
X0084595Y0173706D01*
X0092595Y0173706D01*
X0107145Y0173706D01*
X0120595Y0160256D01*
X0141595Y0160256D01*
X0092595Y0160806D02*
X0092753Y0147256D01*
X0085776Y0147232D01*
X0079493Y0152232D01*
X0092753Y0147256D02*
X0092753Y0135358D01*
X0098855Y0135256D01*
X0080493Y0127256D02*
X0118595Y0127256D01*
X0128595Y0117256D01*
X0128595Y0095256D01*
X0117568Y0085283D02*
X0108595Y0094256D01*
X0102595Y0094256D01*
X0098855Y0097996D01*
X0098855Y0103256D01*
X0097879Y0102280D01*
X0079493Y0102280D01*
X0082595Y0109256D02*
X0112595Y0109256D01*
X0112635Y0103316D01*
X0106335Y0103256D01*
X0112595Y0109256D02*
X0112595Y0117256D01*
X0112438Y0117256D01*
X0114869Y0119687D01*
X0092753Y0117256D02*
X0082469Y0117256D01*
X0079493Y0120232D01*
X0079493Y0126256D01*
X0080493Y0127256D01*
X0079493Y0126256D02*
X0079493Y0134280D01*
X0050753Y0143256D02*
X0050753Y0160256D01*
X0050753Y0143256D02*
X0050753Y0111256D01*
X0052174Y0109835D01*
X0053595Y0111256D01*
X0080595Y0111256D01*
X0082595Y0109256D01*
X0053784Y0108224D02*
X0053784Y0071445D01*
X0053784Y0071256D01*
X0053784Y0071067D01*
X0053784Y0052358D01*
X0065595Y0052358D01*
X0065595Y0041256D01*
X0069595Y0037256D01*
X0109390Y0037256D01*
X0109595Y0037461D01*
X0125390Y0037461D01*
X0129595Y0033256D01*
X0137595Y0033256D01*
X0137399Y0033452D01*
X0137399Y0040461D01*
X0137595Y0033256D02*
X0177595Y0033256D01*
X0187595Y0043256D01*
X0226595Y0043256D01*
X0278595Y0043256D01*
X0278595Y0051080D01*
X0278595Y0043256D02*
X0312595Y0043256D01*
X0312595Y0051080D01*
X0312595Y0051256D01*
X0312595Y0043256D02*
X0346595Y0043256D01*
X0346595Y0051080D01*
X0346595Y0051256D01*
X0346595Y0043256D02*
X0375595Y0043256D01*
X0392595Y0060256D01*
X0392595Y0147256D01*
X0381595Y0157256D01*
X0375068Y0157256D01*
X0374989Y0157335D01*
X0374989Y0167177D02*
X0374989Y0177862D01*
X0354595Y0198256D01*
X0339595Y0198256D01*
X0339595Y0189256D01*
X0339595Y0198256D02*
X0247595Y0198256D01*
X0284595Y0128256D02*
X0378595Y0128256D01*
X0386595Y0120256D01*
X0386595Y0073256D01*
X0381595Y0068256D01*
X0375168Y0068256D01*
X0374989Y0068435D01*
X0374910Y0108256D02*
X0322595Y0108256D01*
X0313695Y0117156D01*
X0285095Y0117156D01*
X0280095Y0117156D02*
X0280095Y0123756D01*
X0284595Y0128256D01*
X0374910Y0108256D02*
X0374989Y0108335D01*
X0226595Y0051080D02*
X0226595Y0043256D01*
X0128595Y0084256D02*
X0117568Y0084256D01*
X0117568Y0085283D01*
X0117595Y0084283D02*
X0117568Y0084256D01*
X0109595Y0076283D01*
X0109595Y0063051D01*
X0090406Y0084256D02*
X0077406Y0071256D01*
X0090406Y0084256D02*
X0101623Y0084256D01*
X0053784Y0108224D02*
X0052174Y0109835D01*
X0061705Y0181256D02*
X0061705Y0193256D01*
X0061705Y0183035D02*
X0061705Y0181256D01*
D34*
X0142181Y0127168D02*
X0143436Y0128423D01*
X0157156Y0128423D01*
X0172428Y0128423D01*
X0175595Y0125256D01*
X0190771Y0125256D01*
X0195595Y0125256D01*
X0197595Y0123256D01*
X0197595Y0121256D01*
X0195313Y0118974D01*
X0190620Y0118974D01*
X0190620Y0115824D02*
X0186027Y0115824D01*
X0183595Y0118256D01*
X0183595Y0122256D01*
X0190656Y0122256D01*
X0183595Y0122256D02*
X0175595Y0122256D01*
X0172313Y0118974D01*
X0157156Y0118974D01*
X0157095Y0119056D02*
X0142812Y0119056D01*
X0142181Y0119687D01*
D35*
X0040574Y0029651D02*
X0039098Y0029256D01*
X0103952Y0029256D01*
X0103753Y0029371D01*
X0103474Y0029650D01*
X0103276Y0029992D01*
X0103174Y0030373D01*
X0103174Y0036961D01*
X0109095Y0036961D01*
X0109095Y0037961D01*
X0109095Y0045850D01*
X0104476Y0045850D01*
X0104095Y0045748D01*
X0103753Y0045551D01*
X0103474Y0045271D01*
X0103276Y0044929D01*
X0103174Y0044548D01*
X0103174Y0037961D01*
X0109095Y0037961D01*
X0110095Y0037961D01*
X0110095Y0045850D01*
X0114714Y0045850D01*
X0115095Y0045748D01*
X0115437Y0045551D01*
X0115717Y0045271D01*
X0115914Y0044929D01*
X0116016Y0044548D01*
X0116016Y0037961D01*
X0110095Y0037961D01*
X0110095Y0036961D01*
X0116016Y0036961D01*
X0116016Y0030373D01*
X0115914Y0029992D01*
X0115717Y0029650D01*
X0115437Y0029371D01*
X0115239Y0029256D01*
X0403092Y0029256D01*
X0401617Y0029651D01*
X0399266Y0031008D01*
X0397347Y0032927D01*
X0395990Y0035278D01*
X0395288Y0037899D01*
X0395288Y0040613D01*
X0395990Y0043234D01*
X0397347Y0045585D01*
X0399266Y0047504D01*
X0401617Y0048861D01*
X0404238Y0049563D01*
X0406952Y0049563D01*
X0409574Y0048861D01*
X0411924Y0047504D01*
X0413843Y0045585D01*
X0415200Y0043234D01*
X0415595Y0041759D01*
X0415595Y0193753D01*
X0415200Y0192278D01*
X0413843Y0189927D01*
X0411924Y0188008D01*
X0409574Y0186651D01*
X0406952Y0185949D01*
X0404238Y0185949D01*
X0401617Y0186651D01*
X0399266Y0188008D01*
X0397347Y0189927D01*
X0395990Y0192278D01*
X0395288Y0194899D01*
X0395288Y0197613D01*
X0395990Y0200234D01*
X0397347Y0202585D01*
X0399266Y0204504D01*
X0401617Y0205861D01*
X0403092Y0206256D01*
X0039098Y0206256D01*
X0040574Y0205861D01*
X0042924Y0204504D01*
X0044843Y0202585D01*
X0046200Y0200234D01*
X0046902Y0197613D01*
X0046902Y0194899D01*
X0046200Y0192278D01*
X0044843Y0189927D01*
X0042924Y0188008D01*
X0040574Y0186651D01*
X0037952Y0185949D01*
X0035238Y0185949D01*
X0032617Y0186651D01*
X0030266Y0188008D01*
X0028347Y0189927D01*
X0026990Y0192278D01*
X0026595Y0193753D01*
X0026595Y0041759D01*
X0026990Y0043234D01*
X0028347Y0045585D01*
X0030266Y0047504D01*
X0032617Y0048861D01*
X0035238Y0049563D01*
X0037952Y0049563D01*
X0040574Y0048861D01*
X0042924Y0047504D01*
X0044843Y0045585D01*
X0046200Y0043234D01*
X0046902Y0040613D01*
X0046902Y0037899D01*
X0046200Y0035278D01*
X0044843Y0032927D01*
X0042924Y0031008D01*
X0040574Y0029651D01*
X0041613Y0030251D02*
X0103207Y0030251D01*
X0103174Y0031250D02*
X0043166Y0031250D01*
X0044164Y0032248D02*
X0103174Y0032248D01*
X0103174Y0033247D02*
X0045027Y0033247D01*
X0045604Y0034245D02*
X0103174Y0034245D01*
X0103174Y0035244D02*
X0046180Y0035244D01*
X0046458Y0036243D02*
X0103174Y0036243D01*
X0103174Y0038240D02*
X0046902Y0038240D01*
X0046902Y0039238D02*
X0103174Y0039238D01*
X0103174Y0040237D02*
X0046902Y0040237D01*
X0046735Y0041235D02*
X0103174Y0041235D01*
X0103174Y0042234D02*
X0046468Y0042234D01*
X0046200Y0043232D02*
X0103174Y0043232D01*
X0103174Y0044231D02*
X0045625Y0044231D01*
X0045048Y0045229D02*
X0103449Y0045229D01*
X0109095Y0045229D02*
X0110095Y0045229D01*
X0110095Y0044231D02*
X0109095Y0044231D01*
X0109095Y0043232D02*
X0110095Y0043232D01*
X0110095Y0042234D02*
X0109095Y0042234D01*
X0109095Y0041235D02*
X0110095Y0041235D01*
X0110095Y0040237D02*
X0109095Y0040237D01*
X0109095Y0039238D02*
X0110095Y0039238D01*
X0110095Y0038240D02*
X0109095Y0038240D01*
X0109095Y0037241D02*
X0046726Y0037241D01*
X0044200Y0046228D02*
X0058410Y0046228D01*
X0058501Y0046190D02*
X0059324Y0045969D01*
X0060169Y0045858D01*
X0065295Y0045858D01*
X0065295Y0049258D01*
X0065424Y0049258D01*
X0065595Y0049329D01*
X0065766Y0049258D01*
X0065895Y0049258D01*
X0065895Y0045858D01*
X0071021Y0045858D01*
X0071866Y0045969D01*
X0072689Y0046190D01*
X0073476Y0046516D01*
X0074214Y0046942D01*
X0074890Y0047461D01*
X0075493Y0048063D01*
X0076011Y0048739D01*
X0076437Y0049477D01*
X0076763Y0050264D01*
X0076984Y0051087D01*
X0077095Y0051932D01*
X0077095Y0052058D01*
X0074207Y0052058D01*
X0074207Y0052658D01*
X0077095Y0052658D01*
X0077095Y0052784D01*
X0076984Y0053629D01*
X0076763Y0054452D01*
X0076437Y0055239D01*
X0076011Y0055977D01*
X0075493Y0056653D01*
X0074890Y0057256D01*
X0074214Y0057774D01*
X0073476Y0058200D01*
X0072689Y0058527D01*
X0071866Y0058747D01*
X0071021Y0058858D01*
X0065895Y0058858D01*
X0065895Y0055458D01*
X0065766Y0055458D01*
X0065595Y0055388D01*
X0065424Y0055458D01*
X0065295Y0055458D01*
X0065295Y0058858D01*
X0060169Y0058858D01*
X0059324Y0058747D01*
X0058501Y0058527D01*
X0057714Y0058200D01*
X0056976Y0057774D01*
X0056300Y0057256D01*
X0055698Y0056653D01*
X0055179Y0055977D01*
X0054753Y0055239D01*
X0054427Y0054452D01*
X0054206Y0053629D01*
X0054095Y0052784D01*
X0054095Y0052658D01*
X0056983Y0052658D01*
X0056983Y0052058D01*
X0054095Y0052058D01*
X0054095Y0051932D01*
X0054206Y0051087D01*
X0054427Y0050264D01*
X0054753Y0049477D01*
X0055179Y0048739D01*
X0055698Y0048063D01*
X0056300Y0047461D01*
X0056976Y0046942D01*
X0057714Y0046516D01*
X0058501Y0046190D01*
X0056606Y0047226D02*
X0043201Y0047226D01*
X0041675Y0048225D02*
X0055574Y0048225D01*
X0054900Y0049223D02*
X0039220Y0049223D01*
X0033970Y0049223D02*
X0026595Y0049223D01*
X0026595Y0048225D02*
X0031515Y0048225D01*
X0029989Y0047226D02*
X0026595Y0047226D01*
X0026595Y0046228D02*
X0028990Y0046228D01*
X0028142Y0045229D02*
X0026595Y0045229D01*
X0026595Y0044231D02*
X0027566Y0044231D01*
X0026990Y0043232D02*
X0026595Y0043232D01*
X0026595Y0042234D02*
X0026722Y0042234D01*
X0026595Y0050222D02*
X0054445Y0050222D01*
X0054189Y0051220D02*
X0026595Y0051220D01*
X0026595Y0052219D02*
X0056983Y0052219D01*
X0054152Y0053217D02*
X0026595Y0053217D01*
X0026595Y0054216D02*
X0054364Y0054216D01*
X0054743Y0055214D02*
X0026595Y0055214D01*
X0026595Y0056213D02*
X0055360Y0056213D01*
X0056256Y0057211D02*
X0026595Y0057211D01*
X0026595Y0058210D02*
X0057737Y0058210D01*
X0056665Y0060414D02*
X0057403Y0060840D01*
X0058079Y0061358D01*
X0058682Y0061961D01*
X0059200Y0062637D01*
X0059626Y0063375D01*
X0059952Y0064162D01*
X0060173Y0064985D01*
X0060284Y0065830D01*
X0060284Y0070956D01*
X0056884Y0070956D01*
X0056884Y0071085D01*
X0056813Y0071256D01*
X0056884Y0071427D01*
X0056884Y0071556D01*
X0060284Y0071556D01*
X0060284Y0076682D01*
X0060173Y0077527D01*
X0059952Y0078350D01*
X0059626Y0079137D01*
X0059200Y0079875D01*
X0058682Y0080551D01*
X0058079Y0081153D01*
X0057403Y0081672D01*
X0056665Y0082098D01*
X0055878Y0082424D01*
X0055055Y0082645D01*
X0054210Y0082756D01*
X0054084Y0082756D01*
X0054084Y0079868D01*
X0053484Y0079868D01*
X0053484Y0082756D01*
X0053358Y0082756D01*
X0052513Y0082645D01*
X0051690Y0082424D01*
X0050903Y0082098D01*
X0050165Y0081672D01*
X0049489Y0081153D01*
X0048887Y0080551D01*
X0048368Y0079875D01*
X0047942Y0079137D01*
X0047616Y0078350D01*
X0047395Y0077527D01*
X0047284Y0076682D01*
X0047284Y0071556D01*
X0050684Y0071556D01*
X0050684Y0071427D01*
X0050755Y0071256D01*
X0050684Y0071085D01*
X0050684Y0070956D01*
X0047284Y0070956D01*
X0047284Y0065830D01*
X0047395Y0064985D01*
X0047616Y0064162D01*
X0047942Y0063375D01*
X0048368Y0062637D01*
X0048887Y0061961D01*
X0049489Y0061358D01*
X0050165Y0060840D01*
X0050903Y0060414D01*
X0051690Y0060088D01*
X0052513Y0059867D01*
X0053358Y0059756D01*
X0053484Y0059756D01*
X0053484Y0062644D01*
X0054084Y0062644D01*
X0054084Y0059756D01*
X0054210Y0059756D01*
X0055055Y0059867D01*
X0055878Y0060088D01*
X0056665Y0060414D01*
X0056166Y0060207D02*
X0075529Y0060207D01*
X0076152Y0059949D02*
X0078661Y0059949D01*
X0080979Y0060909D01*
X0082753Y0062683D01*
X0083713Y0065001D01*
X0083713Y0074017D01*
X0091445Y0081749D01*
X0096772Y0081749D01*
X0096772Y0078990D01*
X0097538Y0078224D01*
X0105707Y0078224D01*
X0106473Y0078990D01*
X0106473Y0089522D01*
X0105707Y0090287D01*
X0097538Y0090287D01*
X0096772Y0089522D01*
X0096772Y0086763D01*
X0089907Y0086763D01*
X0088986Y0086381D01*
X0082593Y0079988D01*
X0080979Y0081603D01*
X0078661Y0082563D01*
X0076152Y0082563D01*
X0073833Y0081603D01*
X0072059Y0079829D01*
X0071099Y0077510D01*
X0071099Y0065001D01*
X0072059Y0062683D01*
X0073833Y0060909D01*
X0076152Y0059949D01*
X0073537Y0061205D02*
X0057879Y0061205D01*
X0058868Y0062204D02*
X0072539Y0062204D01*
X0071844Y0063202D02*
X0059527Y0063202D01*
X0059963Y0064201D02*
X0071431Y0064201D01*
X0071099Y0065199D02*
X0060201Y0065199D01*
X0060284Y0066198D02*
X0071099Y0066198D01*
X0071099Y0067196D02*
X0060284Y0067196D01*
X0060284Y0068195D02*
X0071099Y0068195D01*
X0071099Y0069193D02*
X0060284Y0069193D01*
X0060284Y0070192D02*
X0071099Y0070192D01*
X0071099Y0071190D02*
X0056841Y0071190D01*
X0060284Y0072189D02*
X0071099Y0072189D01*
X0071099Y0073187D02*
X0060284Y0073187D01*
X0060284Y0074186D02*
X0071099Y0074186D01*
X0071099Y0075184D02*
X0060284Y0075184D01*
X0060284Y0076183D02*
X0071099Y0076183D01*
X0071099Y0077181D02*
X0060218Y0077181D01*
X0059998Y0078180D02*
X0071376Y0078180D01*
X0071790Y0079178D02*
X0059602Y0079178D01*
X0058968Y0080177D02*
X0072408Y0080177D01*
X0073406Y0081176D02*
X0058050Y0081176D01*
X0056482Y0082174D02*
X0075213Y0082174D01*
X0079600Y0082174D02*
X0084779Y0082174D01*
X0085777Y0083173D02*
X0026595Y0083173D01*
X0026595Y0084171D02*
X0086776Y0084171D01*
X0087774Y0085170D02*
X0026595Y0085170D01*
X0026595Y0086168D02*
X0088773Y0086168D01*
X0090871Y0081176D02*
X0096772Y0081176D01*
X0096772Y0080177D02*
X0089873Y0080177D01*
X0088874Y0079178D02*
X0096772Y0079178D01*
X0087876Y0078180D02*
X0107946Y0078180D01*
X0107470Y0077704D02*
X0107088Y0076782D01*
X0107088Y0071248D01*
X0104132Y0071248D01*
X0103367Y0070482D01*
X0103367Y0055620D01*
X0104132Y0054854D01*
X0115058Y0054854D01*
X0115823Y0055620D01*
X0115823Y0070482D01*
X0115058Y0071248D01*
X0112102Y0071248D01*
X0112102Y0075245D01*
X0115082Y0078224D01*
X0121652Y0078224D01*
X0122418Y0078990D01*
X0122418Y0081749D01*
X0126452Y0081749D01*
X0126733Y0081468D01*
X0127941Y0080968D01*
X0129249Y0080968D01*
X0130458Y0081468D01*
X0131383Y0082393D01*
X0131883Y0083602D01*
X0131883Y0084910D01*
X0131383Y0086119D01*
X0130458Y0087043D01*
X0129249Y0087544D01*
X0127941Y0087544D01*
X0126733Y0087043D01*
X0126452Y0086763D01*
X0122418Y0086763D01*
X0122418Y0089522D01*
X0121652Y0090287D01*
X0116109Y0090287D01*
X0110721Y0095676D01*
X0110015Y0096381D01*
X0109094Y0096763D01*
X0103634Y0096763D01*
X0101401Y0098996D01*
X0101955Y0098996D01*
X0102490Y0099531D01*
X0102576Y0099382D01*
X0102855Y0099103D01*
X0103197Y0098905D01*
X0103579Y0098803D01*
X0105835Y0098803D01*
X0105835Y0102756D01*
X0106835Y0102756D01*
X0106835Y0098803D01*
X0109092Y0098803D01*
X0109473Y0098905D01*
X0109815Y0099103D01*
X0110095Y0099382D01*
X0110292Y0099724D01*
X0110394Y0100106D01*
X0110394Y0102756D01*
X0106835Y0102756D01*
X0106835Y0103756D01*
X0105835Y0103756D01*
X0105835Y0107709D01*
X0103579Y0107709D01*
X0103197Y0107606D01*
X0102855Y0107409D01*
X0102576Y0107130D01*
X0102490Y0106981D01*
X0101955Y0107516D01*
X0095755Y0107516D01*
X0094989Y0106750D01*
X0094989Y0104787D01*
X0083949Y0104787D01*
X0083949Y0104789D01*
X0083184Y0105555D01*
X0075802Y0105555D01*
X0075036Y0104789D01*
X0075036Y0099770D01*
X0075802Y0099004D01*
X0083184Y0099004D01*
X0083949Y0099770D01*
X0083949Y0099772D01*
X0094989Y0099772D01*
X0094989Y0099762D01*
X0095755Y0098996D01*
X0096348Y0098996D01*
X0096348Y0097497D01*
X0096730Y0096576D01*
X0100470Y0092836D01*
X0101175Y0092130D01*
X0102096Y0091749D01*
X0107557Y0091749D01*
X0112717Y0086588D01*
X0112717Y0082951D01*
X0107470Y0077704D01*
X0107253Y0077181D02*
X0086877Y0077181D01*
X0085879Y0076183D02*
X0107088Y0076183D01*
X0107088Y0075184D02*
X0084880Y0075184D01*
X0083882Y0074186D02*
X0107088Y0074186D01*
X0107088Y0073187D02*
X0083713Y0073187D01*
X0083713Y0072189D02*
X0107088Y0072189D01*
X0104075Y0071190D02*
X0083713Y0071190D01*
X0083713Y0070192D02*
X0103367Y0070192D01*
X0103367Y0069193D02*
X0083713Y0069193D01*
X0083713Y0068195D02*
X0103367Y0068195D01*
X0103367Y0067196D02*
X0083713Y0067196D01*
X0083713Y0066198D02*
X0103367Y0066198D01*
X0103367Y0065199D02*
X0083713Y0065199D01*
X0083382Y0064201D02*
X0103367Y0064201D01*
X0103367Y0063202D02*
X0082968Y0063202D01*
X0082274Y0062204D02*
X0103367Y0062204D01*
X0103367Y0061205D02*
X0081275Y0061205D01*
X0079283Y0060207D02*
X0103367Y0060207D01*
X0103367Y0059208D02*
X0026595Y0059208D01*
X0026595Y0060207D02*
X0051403Y0060207D01*
X0049689Y0061205D02*
X0026595Y0061205D01*
X0026595Y0062204D02*
X0048700Y0062204D01*
X0048042Y0063202D02*
X0026595Y0063202D01*
X0026595Y0064201D02*
X0047605Y0064201D01*
X0047367Y0065199D02*
X0026595Y0065199D01*
X0026595Y0066198D02*
X0047284Y0066198D01*
X0047284Y0067196D02*
X0026595Y0067196D01*
X0026595Y0068195D02*
X0047284Y0068195D01*
X0047284Y0069193D02*
X0026595Y0069193D01*
X0026595Y0070192D02*
X0047284Y0070192D01*
X0047284Y0072189D02*
X0026595Y0072189D01*
X0026595Y0073187D02*
X0047284Y0073187D01*
X0047284Y0074186D02*
X0026595Y0074186D01*
X0026595Y0075184D02*
X0047284Y0075184D01*
X0047284Y0076183D02*
X0026595Y0076183D01*
X0026595Y0077181D02*
X0047350Y0077181D01*
X0047570Y0078180D02*
X0026595Y0078180D01*
X0026595Y0079178D02*
X0047966Y0079178D01*
X0048600Y0080177D02*
X0026595Y0080177D01*
X0026595Y0081176D02*
X0049518Y0081176D01*
X0051086Y0082174D02*
X0026595Y0082174D01*
X0026595Y0087167D02*
X0096772Y0087167D01*
X0096772Y0088165D02*
X0026595Y0088165D01*
X0026595Y0089164D02*
X0096772Y0089164D01*
X0097413Y0090162D02*
X0026595Y0090162D01*
X0026595Y0091161D02*
X0108145Y0091161D01*
X0109143Y0090162D02*
X0105833Y0090162D01*
X0106473Y0089164D02*
X0110142Y0089164D01*
X0111140Y0088165D02*
X0106473Y0088165D01*
X0106473Y0087167D02*
X0112139Y0087167D01*
X0112717Y0086168D02*
X0106473Y0086168D01*
X0106473Y0085170D02*
X0112717Y0085170D01*
X0112717Y0084171D02*
X0106473Y0084171D01*
X0106473Y0083173D02*
X0112717Y0083173D01*
X0111940Y0082174D02*
X0106473Y0082174D01*
X0106473Y0081176D02*
X0110942Y0081176D01*
X0109943Y0080177D02*
X0106473Y0080177D01*
X0106473Y0079178D02*
X0108945Y0079178D01*
X0113040Y0076183D02*
X0167112Y0076183D01*
X0166114Y0077181D02*
X0114039Y0077181D01*
X0115037Y0078180D02*
X0165115Y0078180D01*
X0164117Y0079178D02*
X0122418Y0079178D01*
X0122418Y0080177D02*
X0163118Y0080177D01*
X0162120Y0081176D02*
X0129751Y0081176D01*
X0131163Y0082174D02*
X0161121Y0082174D01*
X0160123Y0083173D02*
X0131705Y0083173D01*
X0131883Y0084171D02*
X0159124Y0084171D01*
X0158126Y0085170D02*
X0131776Y0085170D01*
X0131333Y0086168D02*
X0157127Y0086168D01*
X0156129Y0087167D02*
X0130161Y0087167D01*
X0127030Y0087167D02*
X0122418Y0087167D01*
X0122418Y0088165D02*
X0155130Y0088165D01*
X0154132Y0089164D02*
X0122418Y0089164D01*
X0121778Y0090162D02*
X0153133Y0090162D01*
X0152135Y0091161D02*
X0115236Y0091161D01*
X0114237Y0092159D02*
X0127479Y0092159D01*
X0127941Y0091968D02*
X0129249Y0091968D01*
X0130458Y0092468D01*
X0131383Y0093393D01*
X0131883Y0094602D01*
X0131883Y0095910D01*
X0131383Y0097119D01*
X0131102Y0097399D01*
X0131102Y0117755D01*
X0130721Y0118676D01*
X0120721Y0128676D01*
X0120015Y0129381D01*
X0119094Y0129763D01*
X0082000Y0129763D01*
X0082000Y0131004D01*
X0083184Y0131004D01*
X0083949Y0131770D01*
X0083949Y0136789D01*
X0083184Y0137555D01*
X0075802Y0137555D01*
X0075036Y0136789D01*
X0075036Y0131770D01*
X0075802Y0131004D01*
X0076986Y0131004D01*
X0076986Y0123508D01*
X0075802Y0123508D01*
X0075036Y0122742D01*
X0075036Y0117722D01*
X0075802Y0116957D01*
X0079223Y0116957D01*
X0081049Y0115130D01*
X0081970Y0114749D01*
X0086721Y0114749D01*
X0086721Y0111990D01*
X0087487Y0111224D01*
X0098018Y0111224D01*
X0098784Y0111990D01*
X0098784Y0122522D01*
X0098018Y0123287D01*
X0087487Y0123287D01*
X0086721Y0122522D01*
X0086721Y0119763D01*
X0083949Y0119763D01*
X0083949Y0122742D01*
X0083184Y0123508D01*
X0082000Y0123508D01*
X0082000Y0124749D01*
X0117557Y0124749D01*
X0126088Y0116217D01*
X0126088Y0097399D01*
X0125808Y0097119D01*
X0125307Y0095910D01*
X0125307Y0094602D01*
X0125808Y0093393D01*
X0126733Y0092468D01*
X0127941Y0091968D01*
X0129711Y0092159D02*
X0151136Y0092159D01*
X0150138Y0093158D02*
X0131147Y0093158D01*
X0131699Y0094156D02*
X0149139Y0094156D01*
X0148141Y0095155D02*
X0131883Y0095155D01*
X0131783Y0096153D02*
X0147788Y0096153D01*
X0147788Y0095507D02*
X0183788Y0059507D01*
X0184847Y0058449D01*
X0241847Y0058449D01*
X0242788Y0057507D01*
X0242788Y0057112D01*
X0241692Y0057112D01*
X0240926Y0056346D01*
X0240926Y0045814D01*
X0241692Y0045049D01*
X0247499Y0045049D01*
X0248264Y0045814D01*
X0248264Y0056346D01*
X0247499Y0057112D01*
X0246402Y0057112D01*
X0246402Y0059004D01*
X0245344Y0060063D01*
X0243958Y0061449D01*
X0255847Y0061449D01*
X0258788Y0058507D01*
X0258788Y0057112D01*
X0257692Y0057112D01*
X0256926Y0056346D01*
X0256926Y0045814D01*
X0257692Y0045049D01*
X0263499Y0045049D01*
X0264264Y0045814D01*
X0264264Y0056346D01*
X0263499Y0057112D01*
X0262402Y0057112D01*
X0262402Y0060004D01*
X0257958Y0064449D01*
X0286847Y0064449D01*
X0292788Y0058507D01*
X0292788Y0057112D01*
X0291692Y0057112D01*
X0290926Y0056346D01*
X0290926Y0045814D01*
X0291692Y0045049D01*
X0297499Y0045049D01*
X0298264Y0045814D01*
X0298264Y0056346D01*
X0297499Y0057112D01*
X0296402Y0057112D01*
X0296402Y0060004D01*
X0295344Y0061063D01*
X0295344Y0061063D01*
X0288958Y0067449D01*
X0322344Y0067449D01*
X0329344Y0074449D01*
X0330402Y0075507D01*
X0330402Y0077400D01*
X0331499Y0077400D01*
X0332264Y0078166D01*
X0332264Y0088697D01*
X0331499Y0089463D01*
X0325692Y0089463D01*
X0324926Y0088697D01*
X0324926Y0078166D01*
X0325692Y0077400D01*
X0326788Y0077400D01*
X0326788Y0077004D01*
X0320847Y0071063D01*
X0303402Y0071063D01*
X0303402Y0089004D01*
X0302344Y0090063D01*
X0302344Y0090063D01*
X0292644Y0099763D01*
X0269627Y0099763D01*
X0269627Y0100097D01*
X0268861Y0100863D01*
X0265778Y0100863D01*
X0265745Y0100830D01*
X0265711Y0100863D01*
X0262629Y0100863D01*
X0262595Y0100830D01*
X0262562Y0100863D01*
X0259479Y0100863D01*
X0259446Y0100830D01*
X0259412Y0100863D01*
X0256329Y0100863D01*
X0255564Y0100097D01*
X0255564Y0099763D01*
X0252547Y0099763D01*
X0243847Y0091063D01*
X0242788Y0090004D01*
X0242788Y0089463D01*
X0241692Y0089463D01*
X0240926Y0088697D01*
X0240926Y0078166D01*
X0241692Y0077400D01*
X0247499Y0077400D01*
X0248264Y0078166D01*
X0248264Y0088697D01*
X0247499Y0089463D01*
X0247358Y0089463D01*
X0254044Y0096149D01*
X0255564Y0096149D01*
X0255564Y0095814D01*
X0256329Y0095049D01*
X0259213Y0095049D01*
X0259213Y0089463D01*
X0257692Y0089463D01*
X0256926Y0088697D01*
X0256926Y0078166D01*
X0257692Y0077400D01*
X0263499Y0077400D01*
X0264264Y0078166D01*
X0264264Y0088697D01*
X0263499Y0089463D01*
X0262827Y0089463D01*
X0262827Y0092468D01*
X0264788Y0090507D01*
X0265847Y0089449D01*
X0275472Y0089449D01*
X0275312Y0089356D01*
X0275033Y0089077D01*
X0274835Y0088735D01*
X0274733Y0088353D01*
X0274733Y0083931D01*
X0278095Y0083931D01*
X0278095Y0082932D01*
X0274733Y0082932D01*
X0274733Y0078510D01*
X0274835Y0078128D01*
X0275033Y0077786D01*
X0275312Y0077507D01*
X0275654Y0077309D01*
X0276035Y0077207D01*
X0278095Y0077207D01*
X0278095Y0082931D01*
X0279095Y0082931D01*
X0279095Y0077207D01*
X0281155Y0077207D01*
X0281536Y0077309D01*
X0281878Y0077507D01*
X0282158Y0077786D01*
X0282355Y0078128D01*
X0282457Y0078510D01*
X0282457Y0082932D01*
X0279095Y0082932D01*
X0279095Y0083931D01*
X0282457Y0083931D01*
X0282457Y0088353D01*
X0282355Y0088735D01*
X0282158Y0089077D01*
X0281878Y0089356D01*
X0281718Y0089449D01*
X0290847Y0089449D01*
X0291262Y0089033D01*
X0290926Y0088697D01*
X0290926Y0078166D01*
X0291692Y0077400D01*
X0297499Y0077400D01*
X0298264Y0078166D01*
X0298264Y0088697D01*
X0297499Y0089463D01*
X0295944Y0089463D01*
X0295344Y0090063D01*
X0292344Y0093063D01*
X0267344Y0093063D01*
X0265977Y0094430D01*
X0265977Y0095049D01*
X0268861Y0095049D01*
X0269627Y0095814D01*
X0269627Y0096149D01*
X0291147Y0096149D01*
X0299788Y0087507D01*
X0299788Y0071063D01*
X0213529Y0071063D01*
X0214468Y0071452D01*
X0215399Y0072383D01*
X0215902Y0073598D01*
X0215902Y0074914D01*
X0215399Y0076129D01*
X0214468Y0077060D01*
X0213253Y0077563D01*
X0211937Y0077563D01*
X0210722Y0077060D01*
X0209792Y0076129D01*
X0209764Y0076063D01*
X0206529Y0076063D01*
X0207468Y0076452D01*
X0208399Y0077383D01*
X0208902Y0078598D01*
X0208902Y0079914D01*
X0208399Y0081129D01*
X0207468Y0082060D01*
X0206253Y0082563D01*
X0204937Y0082563D01*
X0203722Y0082060D01*
X0202792Y0081129D01*
X0202764Y0081063D01*
X0198529Y0081063D01*
X0199468Y0081452D01*
X0200399Y0082383D01*
X0200902Y0083598D01*
X0200902Y0084914D01*
X0200399Y0086129D01*
X0199468Y0087060D01*
X0198529Y0087449D01*
X0201764Y0087449D01*
X0201792Y0087383D01*
X0202722Y0086452D01*
X0203937Y0085949D01*
X0205253Y0085949D01*
X0206468Y0086452D01*
X0207399Y0087383D01*
X0207902Y0088598D01*
X0207902Y0089914D01*
X0207399Y0091129D01*
X0206468Y0092060D01*
X0205253Y0092563D01*
X0203937Y0092563D01*
X0202722Y0092060D01*
X0201792Y0091129D01*
X0201764Y0091063D01*
X0192529Y0091063D01*
X0193468Y0091452D01*
X0194399Y0092383D01*
X0194902Y0093598D01*
X0194902Y0094914D01*
X0194399Y0096129D01*
X0193468Y0097060D01*
X0192253Y0097563D01*
X0190937Y0097563D01*
X0189722Y0097060D01*
X0188792Y0096129D01*
X0188764Y0096063D01*
X0184344Y0096063D01*
X0183569Y0096838D01*
X0183569Y0099557D01*
X0186437Y0099557D01*
X0187203Y0100322D01*
X0187203Y0107234D01*
X0194114Y0107234D01*
X0194599Y0107718D01*
X0208613Y0107718D01*
X0248344Y0147449D01*
X0272847Y0147449D01*
X0273288Y0147007D01*
X0273288Y0146663D01*
X0273254Y0146663D01*
X0272695Y0146104D01*
X0272595Y0146277D01*
X0272316Y0146556D01*
X0271974Y0146754D01*
X0271593Y0146856D01*
X0270245Y0146856D01*
X0270245Y0141506D01*
X0269945Y0141506D01*
X0269945Y0141206D01*
X0265245Y0141206D01*
X0265245Y0135856D01*
X0266593Y0135856D01*
X0266974Y0135958D01*
X0267316Y0136156D01*
X0267595Y0136435D01*
X0267874Y0136156D01*
X0268216Y0135958D01*
X0268598Y0135856D01*
X0269945Y0135856D01*
X0269945Y0141206D01*
X0270245Y0141206D01*
X0270245Y0135856D01*
X0271593Y0135856D01*
X0271974Y0135958D01*
X0272316Y0136156D01*
X0272595Y0136435D01*
X0272695Y0136607D01*
X0273254Y0136049D01*
X0273288Y0136049D01*
X0273288Y0135504D01*
X0271847Y0134063D01*
X0239847Y0134063D01*
X0238788Y0133004D01*
X0223064Y0117280D01*
X0223064Y0107197D01*
X0222564Y0106697D01*
X0222564Y0102414D01*
X0223329Y0101649D01*
X0226412Y0101649D01*
X0226446Y0101682D01*
X0226479Y0101649D01*
X0229562Y0101649D01*
X0229595Y0101682D01*
X0229629Y0101649D01*
X0232711Y0101649D01*
X0232745Y0101682D01*
X0232778Y0101649D01*
X0235861Y0101649D01*
X0236627Y0102414D01*
X0236627Y0106697D01*
X0235861Y0107463D01*
X0232977Y0107463D01*
X0232977Y0112082D01*
X0245344Y0124449D01*
X0277344Y0124449D01*
X0277898Y0125003D01*
X0277588Y0124255D01*
X0277588Y0121811D01*
X0276937Y0122463D01*
X0273254Y0122463D01*
X0272595Y0121804D01*
X0271937Y0122463D01*
X0268254Y0122463D01*
X0267595Y0121804D01*
X0266937Y0122463D01*
X0263254Y0122463D01*
X0262595Y0121804D01*
X0261937Y0122463D01*
X0258254Y0122463D01*
X0257595Y0121804D01*
X0256937Y0122463D01*
X0253254Y0122463D01*
X0252595Y0121804D01*
X0251937Y0122463D01*
X0248254Y0122463D01*
X0247488Y0121697D01*
X0247488Y0112614D01*
X0248254Y0111849D01*
X0251937Y0111849D01*
X0252595Y0112507D01*
X0253254Y0111849D01*
X0256937Y0111849D01*
X0257595Y0112507D01*
X0258254Y0111849D01*
X0261937Y0111849D01*
X0262595Y0112507D01*
X0263254Y0111849D01*
X0266937Y0111849D01*
X0267595Y0112507D01*
X0268254Y0111849D01*
X0271937Y0111849D01*
X0272595Y0112507D01*
X0273188Y0111914D01*
X0273188Y0110966D01*
X0276688Y0107466D01*
X0277791Y0106363D01*
X0269627Y0106363D01*
X0269627Y0106697D01*
X0268861Y0107463D01*
X0265778Y0107463D01*
X0265745Y0107430D01*
X0265711Y0107463D01*
X0262629Y0107463D01*
X0262595Y0107430D01*
X0262562Y0107463D01*
X0259479Y0107463D01*
X0259446Y0107430D01*
X0259412Y0107463D01*
X0256329Y0107463D01*
X0255564Y0106697D01*
X0255564Y0102414D01*
X0256329Y0101649D01*
X0259412Y0101649D01*
X0259446Y0101682D01*
X0259479Y0101649D01*
X0262562Y0101649D01*
X0262595Y0101682D01*
X0262629Y0101649D01*
X0265711Y0101649D01*
X0265745Y0101682D01*
X0265778Y0101649D01*
X0268861Y0101649D01*
X0269627Y0102414D01*
X0269627Y0102749D01*
X0296547Y0102749D01*
X0300330Y0098965D01*
X0300307Y0098910D01*
X0300307Y0097602D01*
X0300808Y0096393D01*
X0301733Y0095468D01*
X0302941Y0094968D01*
X0304249Y0094968D01*
X0305458Y0095468D01*
X0306383Y0096393D01*
X0306883Y0097602D01*
X0306883Y0098910D01*
X0306383Y0100119D01*
X0305458Y0101043D01*
X0304249Y0101544D01*
X0302941Y0101544D01*
X0302886Y0101521D01*
X0298058Y0106349D01*
X0306805Y0106349D01*
X0317688Y0095466D01*
X0318805Y0094349D01*
X0324852Y0094349D01*
X0325733Y0093468D01*
X0326941Y0092968D01*
X0328249Y0092968D01*
X0329458Y0093468D01*
X0330383Y0094393D01*
X0330883Y0095602D01*
X0330883Y0096910D01*
X0330383Y0098119D01*
X0329458Y0099043D01*
X0328249Y0099544D01*
X0326941Y0099544D01*
X0325733Y0099043D01*
X0324852Y0098163D01*
X0320385Y0098163D01*
X0308385Y0110163D01*
X0279385Y0110163D01*
X0277318Y0112230D01*
X0277595Y0112507D01*
X0278254Y0111849D01*
X0281937Y0111849D01*
X0282595Y0112507D01*
X0283254Y0111849D01*
X0286937Y0111849D01*
X0287702Y0112614D01*
X0287702Y0114649D01*
X0312657Y0114649D01*
X0320470Y0106836D01*
X0321175Y0106130D01*
X0322096Y0105749D01*
X0367885Y0105749D01*
X0369161Y0104473D01*
X0370835Y0103780D01*
X0379143Y0103780D01*
X0380817Y0104473D01*
X0382098Y0105754D01*
X0382792Y0107429D01*
X0382792Y0109241D01*
X0382098Y0110915D01*
X0380817Y0112196D01*
X0379143Y0112890D01*
X0370835Y0112890D01*
X0369161Y0112196D01*
X0367879Y0110915D01*
X0367816Y0110763D01*
X0323634Y0110763D01*
X0315115Y0119281D01*
X0314194Y0119663D01*
X0287702Y0119663D01*
X0287702Y0121697D01*
X0286937Y0122463D01*
X0283254Y0122463D01*
X0282602Y0121811D01*
X0282602Y0122717D01*
X0285634Y0125749D01*
X0377557Y0125749D01*
X0384088Y0119217D01*
X0384088Y0074294D01*
X0381454Y0071660D01*
X0380817Y0072296D01*
X0379143Y0072990D01*
X0370835Y0072990D01*
X0369161Y0072296D01*
X0367879Y0071015D01*
X0367186Y0069341D01*
X0367186Y0067529D01*
X0367879Y0065854D01*
X0369161Y0064573D01*
X0370835Y0063880D01*
X0379143Y0063880D01*
X0380817Y0064573D01*
X0381993Y0065749D01*
X0382094Y0065749D01*
X0383015Y0066130D01*
X0383721Y0066836D01*
X0388721Y0071836D01*
X0389102Y0072757D01*
X0389102Y0120755D01*
X0388721Y0121676D01*
X0388015Y0122381D01*
X0380015Y0130381D01*
X0379094Y0130763D01*
X0284096Y0130763D01*
X0283348Y0130453D01*
X0286902Y0134007D01*
X0286902Y0136049D01*
X0286937Y0136049D01*
X0287702Y0136814D01*
X0287702Y0145897D01*
X0286937Y0146663D01*
X0286902Y0146663D01*
X0286902Y0148504D01*
X0279402Y0156004D01*
X0278757Y0156650D01*
X0285089Y0156650D01*
X0285855Y0157415D01*
X0285855Y0163616D01*
X0285215Y0164256D01*
X0285855Y0164896D01*
X0285855Y0171097D01*
X0285089Y0171862D01*
X0283502Y0171862D01*
X0283502Y0173106D01*
X0285089Y0173106D01*
X0285855Y0173872D01*
X0285855Y0180860D01*
X0285089Y0181626D01*
X0278101Y0181626D01*
X0277335Y0180860D01*
X0277335Y0173872D01*
X0278101Y0173106D01*
X0279688Y0173106D01*
X0279688Y0171862D01*
X0278101Y0171862D01*
X0277335Y0171097D01*
X0277335Y0164896D01*
X0277975Y0164256D01*
X0277335Y0163616D01*
X0277335Y0162323D01*
X0243218Y0162323D01*
X0247344Y0166449D01*
X0258344Y0166449D01*
X0259402Y0167507D01*
X0264402Y0172507D01*
X0264402Y0175651D01*
X0264872Y0175181D01*
X0266639Y0174449D01*
X0268551Y0174449D01*
X0270318Y0175181D01*
X0271670Y0176533D01*
X0272402Y0178300D01*
X0272402Y0180212D01*
X0271670Y0181979D01*
X0270318Y0183331D01*
X0268551Y0184063D01*
X0266639Y0184063D01*
X0264872Y0183331D01*
X0264402Y0182861D01*
X0264402Y0185004D01*
X0263344Y0186063D01*
X0262023Y0187384D01*
X0262402Y0188300D01*
X0262402Y0190212D01*
X0261670Y0191979D01*
X0260318Y0193331D01*
X0258551Y0194063D01*
X0256639Y0194063D01*
X0254872Y0193331D01*
X0253520Y0191979D01*
X0252788Y0190212D01*
X0252788Y0188300D01*
X0253520Y0186533D01*
X0254872Y0185181D01*
X0256639Y0184449D01*
X0258551Y0184449D01*
X0259467Y0184828D01*
X0260788Y0183507D01*
X0260788Y0182861D01*
X0260318Y0183331D01*
X0258551Y0184063D01*
X0256639Y0184063D01*
X0255723Y0183684D01*
X0253344Y0186063D01*
X0251200Y0186063D01*
X0251670Y0186533D01*
X0252402Y0188300D01*
X0252402Y0190212D01*
X0251670Y0191979D01*
X0250318Y0193331D01*
X0250102Y0193421D01*
X0250102Y0195749D01*
X0337088Y0195749D01*
X0337088Y0193421D01*
X0336872Y0193331D01*
X0335520Y0191979D01*
X0334788Y0190212D01*
X0334788Y0188300D01*
X0335520Y0186533D01*
X0336872Y0185181D01*
X0338639Y0184449D01*
X0340551Y0184449D01*
X0342318Y0185181D01*
X0343670Y0186533D01*
X0344402Y0188300D01*
X0344402Y0190212D01*
X0343670Y0191979D01*
X0342318Y0193331D01*
X0342102Y0193421D01*
X0342102Y0195749D01*
X0353557Y0195749D01*
X0372482Y0176824D01*
X0372482Y0171732D01*
X0370835Y0171732D01*
X0369161Y0171039D01*
X0367879Y0169757D01*
X0367186Y0168083D01*
X0367186Y0166271D01*
X0367879Y0164597D01*
X0369161Y0163316D01*
X0370835Y0162622D01*
X0379143Y0162622D01*
X0380817Y0163316D01*
X0382098Y0164597D01*
X0382792Y0166271D01*
X0382792Y0168083D01*
X0382098Y0169757D01*
X0380817Y0171039D01*
X0379143Y0171732D01*
X0377496Y0171732D01*
X0377496Y0178361D01*
X0377114Y0179282D01*
X0376409Y0179988D01*
X0356015Y0200381D01*
X0355094Y0200763D01*
X0244096Y0200763D01*
X0243175Y0200381D01*
X0235175Y0192381D01*
X0234470Y0191676D01*
X0234088Y0190755D01*
X0234088Y0174294D01*
X0222557Y0162763D01*
X0121634Y0162763D01*
X0108565Y0175831D01*
X0107644Y0176213D01*
X0095702Y0176213D01*
X0095702Y0176647D01*
X0095353Y0176996D01*
X0095955Y0176996D01*
X0096595Y0177636D01*
X0097235Y0176996D01*
X0103436Y0176996D01*
X0104201Y0177762D01*
X0104201Y0179449D01*
X0110847Y0179449D01*
X0116315Y0173980D01*
X0116288Y0173914D01*
X0116288Y0172598D01*
X0116792Y0171383D01*
X0117722Y0170452D01*
X0118937Y0169949D01*
X0120253Y0169949D01*
X0121468Y0170452D01*
X0122399Y0171383D01*
X0122902Y0172598D01*
X0122902Y0173914D01*
X0122399Y0175129D01*
X0121468Y0176060D01*
X0120253Y0176563D01*
X0118937Y0176563D01*
X0118871Y0176536D01*
X0113402Y0182004D01*
X0112344Y0183063D01*
X0104201Y0183063D01*
X0104201Y0184750D01*
X0103436Y0185516D01*
X0097235Y0185516D01*
X0096595Y0184876D01*
X0095955Y0185516D01*
X0089755Y0185516D01*
X0088989Y0184750D01*
X0088989Y0183063D01*
X0079745Y0183063D01*
X0079745Y0184750D01*
X0078979Y0185516D01*
X0071991Y0185516D01*
X0071225Y0184750D01*
X0071225Y0177762D01*
X0071991Y0176996D01*
X0078979Y0176996D01*
X0079745Y0177762D01*
X0079745Y0179449D01*
X0088989Y0179449D01*
X0088989Y0177762D01*
X0089755Y0176996D01*
X0089837Y0176996D01*
X0089488Y0176647D01*
X0089488Y0176213D01*
X0086765Y0176213D01*
X0086468Y0176510D01*
X0085253Y0177013D01*
X0083937Y0177013D01*
X0082722Y0176510D01*
X0082425Y0176213D01*
X0079436Y0176213D01*
X0078515Y0175831D01*
X0076199Y0173516D01*
X0074771Y0173516D01*
X0065965Y0182321D01*
X0065965Y0184750D01*
X0065200Y0185516D01*
X0064212Y0185516D01*
X0064212Y0188996D01*
X0065200Y0188996D01*
X0065965Y0189762D01*
X0065965Y0196750D01*
X0065200Y0197516D01*
X0058211Y0197516D01*
X0057446Y0196750D01*
X0057446Y0189762D01*
X0058211Y0188996D01*
X0059198Y0188996D01*
X0059198Y0185516D01*
X0058211Y0185516D01*
X0057446Y0184750D01*
X0057446Y0177762D01*
X0058211Y0176996D01*
X0064199Y0176996D01*
X0071225Y0169970D01*
X0071225Y0165762D01*
X0071991Y0164996D01*
X0078979Y0164996D01*
X0079745Y0165762D01*
X0079745Y0169970D01*
X0080973Y0171199D01*
X0082425Y0171199D01*
X0082722Y0170902D01*
X0083937Y0170399D01*
X0085253Y0170399D01*
X0086468Y0170902D01*
X0086765Y0171199D01*
X0089488Y0171199D01*
X0089488Y0170764D01*
X0090254Y0169999D01*
X0094937Y0169999D01*
X0095702Y0170764D01*
X0095702Y0171199D01*
X0106107Y0171199D01*
X0119175Y0158130D01*
X0120096Y0157749D01*
X0139674Y0157749D01*
X0139674Y0131034D01*
X0138687Y0131034D01*
X0137921Y0130268D01*
X0137921Y0124067D01*
X0138456Y0123532D01*
X0138307Y0123447D01*
X0138028Y0123167D01*
X0137830Y0122825D01*
X0137728Y0122444D01*
X0137728Y0120187D01*
X0141681Y0120187D01*
X0141681Y0119187D01*
X0142681Y0119187D01*
X0142681Y0115628D01*
X0145331Y0115628D01*
X0145713Y0115730D01*
X0146055Y0115928D01*
X0146334Y0116207D01*
X0146531Y0116549D01*
X0146634Y0116931D01*
X0146634Y0119187D01*
X0142681Y0119187D01*
X0142681Y0120187D01*
X0146634Y0120187D01*
X0146634Y0122444D01*
X0146531Y0122825D01*
X0146334Y0123167D01*
X0146055Y0123447D01*
X0145906Y0123532D01*
X0146441Y0124067D01*
X0146441Y0126416D01*
X0152896Y0126416D01*
X0152896Y0123748D01*
X0152945Y0123698D01*
X0152896Y0123649D01*
X0152896Y0120694D01*
X0152805Y0120537D01*
X0152703Y0120156D01*
X0152703Y0118974D01*
X0157156Y0118974D01*
X0161608Y0118974D01*
X0157156Y0118974D01*
X0157156Y0118974D01*
X0157156Y0118974D01*
X0157156Y0119832D01*
X0157156Y0119832D01*
X0157156Y0118974D01*
X0152703Y0118974D01*
X0152703Y0117792D01*
X0152805Y0117411D01*
X0152896Y0117254D01*
X0152896Y0114482D01*
X0151265Y0114482D01*
X0148847Y0112063D01*
X0147788Y0111004D01*
X0147788Y0095507D01*
X0147788Y0097152D02*
X0131350Y0097152D01*
X0131102Y0098150D02*
X0147788Y0098150D01*
X0147788Y0099149D02*
X0131102Y0099149D01*
X0131102Y0100147D02*
X0147788Y0100147D01*
X0147788Y0101146D02*
X0131102Y0101146D01*
X0131102Y0102144D02*
X0147788Y0102144D01*
X0147788Y0103143D02*
X0131102Y0103143D01*
X0131102Y0104141D02*
X0147788Y0104141D01*
X0147788Y0105140D02*
X0131102Y0105140D01*
X0131102Y0106138D02*
X0147788Y0106138D01*
X0147788Y0107137D02*
X0131102Y0107137D01*
X0131102Y0108135D02*
X0147788Y0108135D01*
X0147788Y0109134D02*
X0131102Y0109134D01*
X0131102Y0110132D02*
X0147788Y0110132D01*
X0147914Y0111131D02*
X0131102Y0111131D01*
X0131102Y0112129D02*
X0148913Y0112129D01*
X0149912Y0113128D02*
X0131102Y0113128D01*
X0131102Y0114126D02*
X0150910Y0114126D01*
X0152014Y0112675D02*
X0149595Y0110256D01*
X0149595Y0096256D01*
X0185595Y0060256D01*
X0242595Y0060256D01*
X0244595Y0058256D01*
X0244595Y0051080D01*
X0240926Y0051220D02*
X0227095Y0051220D01*
X0227095Y0051580D02*
X0227095Y0050580D01*
X0227095Y0044856D01*
X0229155Y0044856D01*
X0229536Y0044958D01*
X0229878Y0045156D01*
X0230158Y0045435D01*
X0230355Y0045777D01*
X0230457Y0046158D01*
X0230457Y0050580D01*
X0227095Y0050580D01*
X0226095Y0050580D01*
X0226095Y0044856D01*
X0224035Y0044856D01*
X0223654Y0044958D01*
X0223312Y0045156D01*
X0223033Y0045435D01*
X0222835Y0045777D01*
X0222733Y0046158D01*
X0222733Y0050580D01*
X0226095Y0050580D01*
X0226095Y0051580D01*
X0222733Y0051580D01*
X0222733Y0056002D01*
X0222835Y0056384D01*
X0223033Y0056726D01*
X0223312Y0057005D01*
X0223654Y0057202D01*
X0224035Y0057305D01*
X0226095Y0057305D01*
X0226095Y0051580D01*
X0227095Y0051580D01*
X0230457Y0051580D01*
X0230457Y0056002D01*
X0230355Y0056384D01*
X0230158Y0056726D01*
X0229878Y0057005D01*
X0229536Y0057202D01*
X0229155Y0057305D01*
X0227095Y0057305D01*
X0227095Y0051580D01*
X0227095Y0052219D02*
X0226095Y0052219D01*
X0226095Y0053217D02*
X0227095Y0053217D01*
X0227095Y0054216D02*
X0226095Y0054216D01*
X0226095Y0055214D02*
X0227095Y0055214D01*
X0227095Y0056213D02*
X0226095Y0056213D01*
X0226095Y0057211D02*
X0227095Y0057211D01*
X0229504Y0057211D02*
X0242788Y0057211D01*
X0242086Y0058210D02*
X0174402Y0058210D01*
X0174402Y0057516D02*
X0174402Y0062425D01*
X0174468Y0062452D01*
X0175399Y0063383D01*
X0175902Y0064598D01*
X0175902Y0065914D01*
X0175399Y0067129D01*
X0174468Y0068060D01*
X0173253Y0068563D01*
X0171937Y0068563D01*
X0170722Y0068060D01*
X0169792Y0067129D01*
X0169288Y0065914D01*
X0169288Y0064598D01*
X0169792Y0063383D01*
X0170722Y0062452D01*
X0170788Y0062425D01*
X0170788Y0057516D01*
X0168235Y0057516D01*
X0167595Y0056876D01*
X0166955Y0057516D01*
X0164402Y0057516D01*
X0164402Y0062425D01*
X0164468Y0062452D01*
X0165399Y0063383D01*
X0165902Y0064598D01*
X0165902Y0065914D01*
X0165399Y0067129D01*
X0164468Y0068060D01*
X0163253Y0068563D01*
X0161937Y0068563D01*
X0160722Y0068060D01*
X0159836Y0067174D01*
X0152776Y0067174D01*
X0152776Y0070633D01*
X0152011Y0071398D01*
X0146203Y0071398D01*
X0145438Y0070633D01*
X0145438Y0060101D01*
X0146203Y0059335D01*
X0152011Y0059335D01*
X0152776Y0060101D01*
X0152776Y0063560D01*
X0159718Y0063560D01*
X0159792Y0063383D01*
X0160722Y0062452D01*
X0160788Y0062425D01*
X0160788Y0057516D01*
X0160755Y0057516D01*
X0159989Y0056750D01*
X0159989Y0049762D01*
X0160755Y0048996D01*
X0166955Y0048996D01*
X0167595Y0049636D01*
X0168235Y0048996D01*
X0174436Y0048996D01*
X0175201Y0049762D01*
X0175201Y0056750D01*
X0174436Y0057516D01*
X0174402Y0057516D01*
X0174740Y0057211D02*
X0223687Y0057211D01*
X0222789Y0056213D02*
X0175201Y0056213D01*
X0175201Y0055214D02*
X0222733Y0055214D01*
X0222733Y0054216D02*
X0175201Y0054216D01*
X0175201Y0053217D02*
X0222733Y0053217D01*
X0222733Y0052219D02*
X0175201Y0052219D01*
X0175201Y0051220D02*
X0226095Y0051220D01*
X0226095Y0050222D02*
X0227095Y0050222D01*
X0227095Y0049223D02*
X0226095Y0049223D01*
X0226095Y0048225D02*
X0227095Y0048225D01*
X0227095Y0047226D02*
X0226095Y0047226D01*
X0226095Y0046228D02*
X0227095Y0046228D01*
X0227095Y0045229D02*
X0226095Y0045229D01*
X0223238Y0045229D02*
X0152776Y0045229D01*
X0152776Y0044231D02*
X0396566Y0044231D01*
X0397142Y0045229D02*
X0349952Y0045229D01*
X0349878Y0045156D02*
X0350158Y0045435D01*
X0350355Y0045777D01*
X0350457Y0046158D01*
X0350457Y0050580D01*
X0347095Y0050580D01*
X0347095Y0044856D01*
X0349155Y0044856D01*
X0349536Y0044958D01*
X0349878Y0045156D01*
X0350457Y0046228D02*
X0397990Y0046228D01*
X0398989Y0047226D02*
X0350457Y0047226D01*
X0350457Y0048225D02*
X0400515Y0048225D01*
X0402970Y0049223D02*
X0350457Y0049223D01*
X0350457Y0050222D02*
X0415595Y0050222D01*
X0415595Y0051220D02*
X0347095Y0051220D01*
X0347095Y0051580D02*
X0347095Y0050580D01*
X0346095Y0050580D01*
X0346095Y0044856D01*
X0344035Y0044856D01*
X0343654Y0044958D01*
X0343312Y0045156D01*
X0343033Y0045435D01*
X0342835Y0045777D01*
X0342733Y0046158D01*
X0342733Y0050580D01*
X0346095Y0050580D01*
X0346095Y0051580D01*
X0342733Y0051580D01*
X0342733Y0056002D01*
X0342835Y0056384D01*
X0343033Y0056726D01*
X0343312Y0057005D01*
X0343654Y0057202D01*
X0344035Y0057305D01*
X0346095Y0057305D01*
X0346095Y0051580D01*
X0347095Y0051580D01*
X0350457Y0051580D01*
X0350457Y0056002D01*
X0350355Y0056384D01*
X0350158Y0056726D01*
X0349878Y0057005D01*
X0349536Y0057202D01*
X0349155Y0057305D01*
X0347095Y0057305D01*
X0347095Y0051580D01*
X0347095Y0052219D02*
X0346095Y0052219D01*
X0346095Y0053217D02*
X0347095Y0053217D01*
X0347095Y0054216D02*
X0346095Y0054216D01*
X0346095Y0055214D02*
X0347095Y0055214D01*
X0347095Y0056213D02*
X0346095Y0056213D01*
X0346095Y0057211D02*
X0347095Y0057211D01*
X0349504Y0057211D02*
X0415595Y0057211D01*
X0415595Y0056213D02*
X0350401Y0056213D01*
X0350457Y0055214D02*
X0415595Y0055214D01*
X0415595Y0054216D02*
X0350457Y0054216D01*
X0350457Y0053217D02*
X0415595Y0053217D01*
X0415595Y0052219D02*
X0350457Y0052219D01*
X0347095Y0050222D02*
X0346095Y0050222D01*
X0346095Y0051220D02*
X0332264Y0051220D01*
X0332264Y0050222D02*
X0342733Y0050222D01*
X0342733Y0049223D02*
X0332264Y0049223D01*
X0332264Y0048225D02*
X0342733Y0048225D01*
X0342733Y0047226D02*
X0332264Y0047226D01*
X0332264Y0046228D02*
X0342733Y0046228D01*
X0343238Y0045229D02*
X0331679Y0045229D01*
X0331499Y0045049D02*
X0332264Y0045814D01*
X0332264Y0056346D01*
X0331499Y0057112D01*
X0325692Y0057112D01*
X0324926Y0056346D01*
X0324926Y0045814D01*
X0325692Y0045049D01*
X0331499Y0045049D01*
X0325511Y0045229D02*
X0315952Y0045229D01*
X0315878Y0045156D02*
X0316158Y0045435D01*
X0316355Y0045777D01*
X0316457Y0046158D01*
X0316457Y0050580D01*
X0313095Y0050580D01*
X0313095Y0044856D01*
X0315155Y0044856D01*
X0315536Y0044958D01*
X0315878Y0045156D01*
X0316457Y0046228D02*
X0324926Y0046228D01*
X0324926Y0047226D02*
X0316457Y0047226D01*
X0316457Y0048225D02*
X0324926Y0048225D01*
X0324926Y0049223D02*
X0316457Y0049223D01*
X0316457Y0050222D02*
X0324926Y0050222D01*
X0324926Y0051220D02*
X0313095Y0051220D01*
X0313095Y0051580D02*
X0313095Y0050580D01*
X0312095Y0050580D01*
X0312095Y0044856D01*
X0310035Y0044856D01*
X0309654Y0044958D01*
X0309312Y0045156D01*
X0309033Y0045435D01*
X0308835Y0045777D01*
X0308733Y0046158D01*
X0308733Y0050580D01*
X0312095Y0050580D01*
X0312095Y0051580D01*
X0308733Y0051580D01*
X0308733Y0056002D01*
X0308835Y0056384D01*
X0309033Y0056726D01*
X0309312Y0057005D01*
X0309654Y0057202D01*
X0310035Y0057305D01*
X0312095Y0057305D01*
X0312095Y0051580D01*
X0313095Y0051580D01*
X0316457Y0051580D01*
X0316457Y0056002D01*
X0316355Y0056384D01*
X0316158Y0056726D01*
X0315878Y0057005D01*
X0315536Y0057202D01*
X0315155Y0057305D01*
X0313095Y0057305D01*
X0313095Y0051580D01*
X0313095Y0052219D02*
X0312095Y0052219D01*
X0312095Y0053217D02*
X0313095Y0053217D01*
X0313095Y0054216D02*
X0312095Y0054216D01*
X0312095Y0055214D02*
X0313095Y0055214D01*
X0313095Y0056213D02*
X0312095Y0056213D01*
X0312095Y0057211D02*
X0313095Y0057211D01*
X0315504Y0057211D02*
X0343687Y0057211D01*
X0342789Y0056213D02*
X0332264Y0056213D01*
X0332264Y0055214D02*
X0342733Y0055214D01*
X0342733Y0054216D02*
X0332264Y0054216D01*
X0332264Y0053217D02*
X0342733Y0053217D01*
X0342733Y0052219D02*
X0332264Y0052219D01*
X0324926Y0052219D02*
X0316457Y0052219D01*
X0316457Y0053217D02*
X0324926Y0053217D01*
X0324926Y0054216D02*
X0316457Y0054216D01*
X0316457Y0055214D02*
X0324926Y0055214D01*
X0324926Y0056213D02*
X0316401Y0056213D01*
X0309687Y0057211D02*
X0296402Y0057211D01*
X0296402Y0058210D02*
X0415595Y0058210D01*
X0415595Y0059208D02*
X0296402Y0059208D01*
X0296200Y0060207D02*
X0415595Y0060207D01*
X0415595Y0061205D02*
X0295201Y0061205D01*
X0294203Y0062204D02*
X0415595Y0062204D01*
X0415595Y0063202D02*
X0293204Y0063202D01*
X0292206Y0064201D02*
X0370059Y0064201D01*
X0368534Y0065199D02*
X0291207Y0065199D01*
X0290209Y0066198D02*
X0367737Y0066198D01*
X0367323Y0067196D02*
X0289210Y0067196D01*
X0287595Y0066256D02*
X0294595Y0059256D01*
X0294595Y0051080D01*
X0290926Y0051220D02*
X0279095Y0051220D01*
X0279095Y0051580D02*
X0279095Y0050580D01*
X0279095Y0044856D01*
X0281155Y0044856D01*
X0281536Y0044958D01*
X0281878Y0045156D01*
X0282158Y0045435D01*
X0282355Y0045777D01*
X0282457Y0046158D01*
X0282457Y0050580D01*
X0279095Y0050580D01*
X0278095Y0050580D01*
X0278095Y0044856D01*
X0276035Y0044856D01*
X0275654Y0044958D01*
X0275312Y0045156D01*
X0275033Y0045435D01*
X0274835Y0045777D01*
X0274733Y0046158D01*
X0274733Y0050580D01*
X0278095Y0050580D01*
X0278095Y0051580D01*
X0274733Y0051580D01*
X0274733Y0056002D01*
X0274835Y0056384D01*
X0275033Y0056726D01*
X0275312Y0057005D01*
X0275654Y0057202D01*
X0276035Y0057305D01*
X0278095Y0057305D01*
X0278095Y0051580D01*
X0279095Y0051580D01*
X0282457Y0051580D01*
X0282457Y0056002D01*
X0282355Y0056384D01*
X0282158Y0056726D01*
X0281878Y0057005D01*
X0281536Y0057202D01*
X0281155Y0057305D01*
X0279095Y0057305D01*
X0279095Y0051580D01*
X0279095Y0052219D02*
X0278095Y0052219D01*
X0278095Y0053217D02*
X0279095Y0053217D01*
X0279095Y0054216D02*
X0278095Y0054216D01*
X0278095Y0055214D02*
X0279095Y0055214D01*
X0279095Y0056213D02*
X0278095Y0056213D01*
X0278095Y0057211D02*
X0279095Y0057211D01*
X0281504Y0057211D02*
X0292788Y0057211D01*
X0292788Y0058210D02*
X0262402Y0058210D01*
X0262402Y0059208D02*
X0292087Y0059208D01*
X0291089Y0060207D02*
X0262200Y0060207D01*
X0261201Y0061205D02*
X0290090Y0061205D01*
X0289092Y0062204D02*
X0260203Y0062204D01*
X0259204Y0063202D02*
X0288093Y0063202D01*
X0287095Y0064201D02*
X0258206Y0064201D01*
X0256595Y0063256D02*
X0260595Y0059256D01*
X0260595Y0051080D01*
X0256926Y0051220D02*
X0248264Y0051220D01*
X0248264Y0050222D02*
X0256926Y0050222D01*
X0256926Y0049223D02*
X0248264Y0049223D01*
X0248264Y0048225D02*
X0256926Y0048225D01*
X0256926Y0047226D02*
X0248264Y0047226D01*
X0248264Y0046228D02*
X0256926Y0046228D01*
X0257511Y0045229D02*
X0247679Y0045229D01*
X0241511Y0045229D02*
X0229952Y0045229D01*
X0230457Y0046228D02*
X0240926Y0046228D01*
X0240926Y0047226D02*
X0230457Y0047226D01*
X0230457Y0048225D02*
X0240926Y0048225D01*
X0240926Y0049223D02*
X0230457Y0049223D01*
X0230457Y0050222D02*
X0240926Y0050222D01*
X0240926Y0052219D02*
X0230457Y0052219D01*
X0230457Y0053217D02*
X0240926Y0053217D01*
X0240926Y0054216D02*
X0230457Y0054216D01*
X0230457Y0055214D02*
X0240926Y0055214D01*
X0240926Y0056213D02*
X0230401Y0056213D01*
X0222733Y0050222D02*
X0175201Y0050222D01*
X0174663Y0049223D02*
X0222733Y0049223D01*
X0222733Y0048225D02*
X0075616Y0048225D01*
X0076291Y0049223D02*
X0160527Y0049223D01*
X0159989Y0050222D02*
X0076746Y0050222D01*
X0077001Y0051220D02*
X0159989Y0051220D01*
X0159989Y0052219D02*
X0074207Y0052219D01*
X0077038Y0053217D02*
X0159989Y0053217D01*
X0159989Y0054216D02*
X0076827Y0054216D01*
X0076448Y0055214D02*
X0103773Y0055214D01*
X0103367Y0056213D02*
X0075831Y0056213D01*
X0074935Y0057211D02*
X0103367Y0057211D01*
X0103367Y0058210D02*
X0073454Y0058210D01*
X0065895Y0058210D02*
X0065295Y0058210D01*
X0065295Y0057211D02*
X0065895Y0057211D01*
X0065895Y0056213D02*
X0065295Y0056213D01*
X0065295Y0049223D02*
X0065895Y0049223D01*
X0065895Y0048225D02*
X0065295Y0048225D01*
X0065295Y0047226D02*
X0065895Y0047226D01*
X0065895Y0046228D02*
X0065295Y0046228D01*
X0072780Y0046228D02*
X0134264Y0046228D01*
X0134221Y0046067D02*
X0134221Y0041645D01*
X0137583Y0041645D01*
X0137583Y0040645D01*
X0134221Y0040645D01*
X0134221Y0036223D01*
X0134323Y0035841D01*
X0134521Y0035499D01*
X0134800Y0035220D01*
X0135142Y0035023D01*
X0135524Y0034920D01*
X0137583Y0034920D01*
X0137583Y0040645D01*
X0138583Y0040645D01*
X0138583Y0034920D01*
X0140643Y0034920D01*
X0141025Y0035023D01*
X0141367Y0035220D01*
X0141646Y0035499D01*
X0141843Y0035841D01*
X0141946Y0036223D01*
X0141946Y0040645D01*
X0138583Y0040645D01*
X0138583Y0041645D01*
X0137583Y0041645D01*
X0137583Y0047369D01*
X0135524Y0047369D01*
X0135142Y0047267D01*
X0134800Y0047070D01*
X0134521Y0046790D01*
X0134323Y0046448D01*
X0134221Y0046067D01*
X0134221Y0045229D02*
X0115741Y0045229D01*
X0116016Y0044231D02*
X0134221Y0044231D01*
X0134221Y0043232D02*
X0116016Y0043232D01*
X0116016Y0042234D02*
X0134221Y0042234D01*
X0134221Y0040237D02*
X0116016Y0040237D01*
X0116016Y0041235D02*
X0137583Y0041235D01*
X0138083Y0041145D02*
X0137399Y0040461D01*
X0137583Y0040237D02*
X0138583Y0040237D01*
X0138583Y0041235D02*
X0145438Y0041235D01*
X0145438Y0040237D02*
X0141946Y0040237D01*
X0141946Y0039238D02*
X0145438Y0039238D01*
X0145438Y0038240D02*
X0141946Y0038240D01*
X0141946Y0037241D02*
X0145438Y0037241D01*
X0145438Y0036243D02*
X0141946Y0036243D01*
X0141390Y0035244D02*
X0146073Y0035244D01*
X0146203Y0035113D02*
X0145438Y0035879D01*
X0145438Y0046411D01*
X0146203Y0047176D01*
X0152011Y0047176D01*
X0152776Y0046411D01*
X0152776Y0035879D01*
X0152011Y0035113D01*
X0146203Y0035113D01*
X0152141Y0035244D02*
X0396010Y0035244D01*
X0395732Y0036243D02*
X0152776Y0036243D01*
X0152776Y0037241D02*
X0395464Y0037241D01*
X0395288Y0038240D02*
X0152776Y0038240D01*
X0152776Y0039238D02*
X0395288Y0039238D01*
X0395288Y0040237D02*
X0152776Y0040237D01*
X0152776Y0041235D02*
X0395455Y0041235D01*
X0395722Y0042234D02*
X0152776Y0042234D01*
X0152776Y0043232D02*
X0395990Y0043232D01*
X0408220Y0049223D02*
X0415595Y0049223D01*
X0415595Y0048225D02*
X0410675Y0048225D01*
X0412201Y0047226D02*
X0415595Y0047226D01*
X0415595Y0046228D02*
X0413200Y0046228D01*
X0414048Y0045229D02*
X0415595Y0045229D01*
X0415595Y0044231D02*
X0414625Y0044231D01*
X0415200Y0043232D02*
X0415595Y0043232D01*
X0415595Y0042234D02*
X0415468Y0042234D01*
X0397163Y0033247D02*
X0116016Y0033247D01*
X0116016Y0034245D02*
X0396586Y0034245D01*
X0398026Y0032248D02*
X0116016Y0032248D01*
X0116016Y0031250D02*
X0399025Y0031250D01*
X0400577Y0030251D02*
X0115984Y0030251D01*
X0116016Y0035244D02*
X0134776Y0035244D01*
X0134221Y0036243D02*
X0116016Y0036243D01*
X0116016Y0038240D02*
X0134221Y0038240D01*
X0134221Y0039238D02*
X0116016Y0039238D01*
X0110095Y0037241D02*
X0134221Y0037241D01*
X0137583Y0037241D02*
X0138583Y0037241D01*
X0138583Y0036243D02*
X0137583Y0036243D01*
X0137583Y0035244D02*
X0138583Y0035244D01*
X0138583Y0038240D02*
X0137583Y0038240D01*
X0137583Y0039238D02*
X0138583Y0039238D01*
X0138583Y0041645D02*
X0141946Y0041645D01*
X0141946Y0046067D01*
X0141843Y0046448D01*
X0141646Y0046790D01*
X0141367Y0047070D01*
X0141025Y0047267D01*
X0140643Y0047369D01*
X0138583Y0047369D01*
X0138583Y0041645D01*
X0138583Y0042234D02*
X0137583Y0042234D01*
X0137583Y0043232D02*
X0138583Y0043232D01*
X0138583Y0044231D02*
X0137583Y0044231D01*
X0137583Y0045229D02*
X0138583Y0045229D01*
X0138583Y0046228D02*
X0137583Y0046228D01*
X0137583Y0047226D02*
X0138583Y0047226D01*
X0141095Y0047226D02*
X0222733Y0047226D01*
X0222733Y0046228D02*
X0152776Y0046228D01*
X0145438Y0046228D02*
X0141902Y0046228D01*
X0141946Y0045229D02*
X0145438Y0045229D01*
X0145438Y0044231D02*
X0141946Y0044231D01*
X0141946Y0043232D02*
X0145438Y0043232D01*
X0145438Y0042234D02*
X0141946Y0042234D01*
X0135071Y0047226D02*
X0074584Y0047226D01*
X0054084Y0060207D02*
X0053484Y0060207D01*
X0053484Y0061205D02*
X0054084Y0061205D01*
X0054084Y0062204D02*
X0053484Y0062204D01*
X0050728Y0071190D02*
X0026595Y0071190D01*
X0053484Y0080177D02*
X0054084Y0080177D01*
X0054084Y0081176D02*
X0053484Y0081176D01*
X0053484Y0082174D02*
X0054084Y0082174D01*
X0081406Y0081176D02*
X0083780Y0081176D01*
X0082782Y0080177D02*
X0082405Y0080177D01*
X0100148Y0093158D02*
X0026595Y0093158D01*
X0026595Y0094156D02*
X0099149Y0094156D01*
X0098151Y0095155D02*
X0026595Y0095155D01*
X0026595Y0096153D02*
X0097152Y0096153D01*
X0096491Y0097152D02*
X0026595Y0097152D01*
X0026595Y0098150D02*
X0096348Y0098150D01*
X0095602Y0099149D02*
X0083329Y0099149D01*
X0083599Y0105140D02*
X0094989Y0105140D01*
X0094989Y0106138D02*
X0064457Y0106138D01*
X0064457Y0105140D02*
X0075386Y0105140D01*
X0075036Y0104141D02*
X0064457Y0104141D01*
X0064457Y0103143D02*
X0075036Y0103143D01*
X0075036Y0102144D02*
X0064457Y0102144D01*
X0064457Y0101146D02*
X0075036Y0101146D01*
X0075036Y0100147D02*
X0064382Y0100147D01*
X0064355Y0100047D02*
X0064457Y0100428D01*
X0064457Y0110756D01*
X0051253Y0110756D01*
X0051253Y0111756D01*
X0064457Y0111756D01*
X0064457Y0122083D01*
X0064355Y0122465D01*
X0064158Y0122807D01*
X0063878Y0123086D01*
X0063536Y0123284D01*
X0063155Y0123386D01*
X0051253Y0123386D01*
X0051253Y0111756D01*
X0050253Y0111756D01*
X0050253Y0123386D01*
X0038350Y0123386D01*
X0037969Y0123284D01*
X0037627Y0123086D01*
X0037348Y0122807D01*
X0037150Y0122465D01*
X0037048Y0122083D01*
X0037048Y0111756D01*
X0050253Y0111756D01*
X0050253Y0110756D01*
X0051253Y0110756D01*
X0051253Y0099126D01*
X0063155Y0099126D01*
X0063536Y0099228D01*
X0063878Y0099426D01*
X0064158Y0099705D01*
X0064355Y0100047D01*
X0063240Y0099149D02*
X0075657Y0099149D01*
X0064457Y0107137D02*
X0095376Y0107137D01*
X0102334Y0107137D02*
X0102583Y0107137D01*
X0105835Y0107137D02*
X0106835Y0107137D01*
X0106835Y0107709D02*
X0109092Y0107709D01*
X0109473Y0107606D01*
X0109815Y0107409D01*
X0110095Y0107130D01*
X0110292Y0106788D01*
X0110394Y0106406D01*
X0110394Y0103756D01*
X0106835Y0103756D01*
X0106835Y0107709D01*
X0106835Y0106138D02*
X0105835Y0106138D01*
X0105835Y0105140D02*
X0106835Y0105140D01*
X0106835Y0104141D02*
X0105835Y0104141D01*
X0106835Y0103143D02*
X0126088Y0103143D01*
X0126088Y0104141D02*
X0110394Y0104141D01*
X0110394Y0105140D02*
X0126088Y0105140D01*
X0126088Y0106138D02*
X0110394Y0106138D01*
X0110087Y0107137D02*
X0126088Y0107137D01*
X0126088Y0108135D02*
X0064457Y0108135D01*
X0064457Y0109134D02*
X0126088Y0109134D01*
X0126088Y0110132D02*
X0064457Y0110132D01*
X0064457Y0112129D02*
X0086721Y0112129D01*
X0086721Y0113128D02*
X0064457Y0113128D01*
X0064457Y0114126D02*
X0086721Y0114126D01*
X0081063Y0115125D02*
X0064457Y0115125D01*
X0064457Y0116123D02*
X0080056Y0116123D01*
X0075637Y0117122D02*
X0064457Y0117122D01*
X0064457Y0118120D02*
X0075036Y0118120D01*
X0075036Y0119119D02*
X0064457Y0119119D01*
X0064457Y0120117D02*
X0075036Y0120117D01*
X0075036Y0121116D02*
X0064457Y0121116D01*
X0064449Y0122114D02*
X0075036Y0122114D01*
X0075407Y0123113D02*
X0063832Y0123113D01*
X0063155Y0131126D02*
X0051253Y0131126D01*
X0051253Y0142756D01*
X0051253Y0143756D01*
X0064457Y0143756D01*
X0064457Y0154083D01*
X0064355Y0154465D01*
X0064158Y0154807D01*
X0063878Y0155086D01*
X0063536Y0155284D01*
X0063155Y0155386D01*
X0051253Y0155386D01*
X0051253Y0143756D01*
X0050253Y0143756D01*
X0050253Y0155386D01*
X0038350Y0155386D01*
X0037969Y0155284D01*
X0037627Y0155086D01*
X0037348Y0154807D01*
X0037150Y0154465D01*
X0037048Y0154083D01*
X0037048Y0143756D01*
X0050253Y0143756D01*
X0050253Y0142756D01*
X0051253Y0142756D01*
X0064457Y0142756D01*
X0064457Y0132428D01*
X0064355Y0132047D01*
X0064158Y0131705D01*
X0063878Y0131426D01*
X0063536Y0131228D01*
X0063155Y0131126D01*
X0064369Y0132100D02*
X0075036Y0132100D01*
X0075036Y0133098D02*
X0064457Y0133098D01*
X0064457Y0134097D02*
X0075036Y0134097D01*
X0075036Y0135095D02*
X0064457Y0135095D01*
X0064457Y0136094D02*
X0075036Y0136094D01*
X0075339Y0137092D02*
X0064457Y0137092D01*
X0064457Y0138091D02*
X0090246Y0138091D01*
X0090246Y0139089D02*
X0064457Y0139089D01*
X0064457Y0140088D02*
X0090246Y0140088D01*
X0090246Y0141086D02*
X0064457Y0141086D01*
X0064457Y0142085D02*
X0086721Y0142085D01*
X0086721Y0141990D02*
X0087487Y0141224D01*
X0090246Y0141224D01*
X0090246Y0135379D01*
X0090238Y0134902D01*
X0090246Y0134881D01*
X0090246Y0134860D01*
X0090428Y0134418D01*
X0090604Y0133974D01*
X0090619Y0133958D01*
X0090627Y0133938D01*
X0090965Y0133600D01*
X0091297Y0133257D01*
X0091317Y0133248D01*
X0091332Y0133233D01*
X0091774Y0133050D01*
X0092212Y0132860D01*
X0092234Y0132860D01*
X0092254Y0132851D01*
X0092732Y0132851D01*
X0094989Y0132813D01*
X0094989Y0131762D01*
X0095755Y0130996D01*
X0101955Y0130996D01*
X0102490Y0131531D01*
X0102576Y0131382D01*
X0102855Y0131103D01*
X0103197Y0130905D01*
X0103579Y0130803D01*
X0105835Y0130803D01*
X0105835Y0134756D01*
X0106835Y0134756D01*
X0106835Y0130803D01*
X0109092Y0130803D01*
X0109473Y0130905D01*
X0109815Y0131103D01*
X0110095Y0131382D01*
X0110292Y0131724D01*
X0110394Y0132106D01*
X0110394Y0134756D01*
X0106835Y0134756D01*
X0106835Y0135756D01*
X0105835Y0135756D01*
X0105835Y0139709D01*
X0103579Y0139709D01*
X0103197Y0139606D01*
X0102855Y0139409D01*
X0102576Y0139130D01*
X0102490Y0138981D01*
X0101955Y0139516D01*
X0095755Y0139516D01*
X0095260Y0139021D01*
X0095260Y0141224D01*
X0098018Y0141224D01*
X0098784Y0141990D01*
X0098784Y0152522D01*
X0098018Y0153287D01*
X0095190Y0153287D01*
X0095143Y0157305D01*
X0095702Y0157864D01*
X0095702Y0163747D01*
X0094937Y0164513D01*
X0090254Y0164513D01*
X0089488Y0163747D01*
X0089488Y0157864D01*
X0090130Y0157223D01*
X0090175Y0153287D01*
X0087487Y0153287D01*
X0086721Y0152522D01*
X0086721Y0149743D01*
X0086648Y0149742D01*
X0083949Y0151890D01*
X0083949Y0154742D01*
X0083184Y0155508D01*
X0075802Y0155508D01*
X0075036Y0154742D01*
X0075036Y0149722D01*
X0075802Y0148957D01*
X0079583Y0148957D01*
X0084107Y0145356D01*
X0084363Y0145102D01*
X0084494Y0145048D01*
X0084605Y0144960D01*
X0084952Y0144860D01*
X0085286Y0144724D01*
X0085428Y0144724D01*
X0085564Y0144685D01*
X0085923Y0144726D01*
X0086721Y0144728D01*
X0086721Y0141990D01*
X0086721Y0143083D02*
X0051253Y0143083D01*
X0051253Y0142085D02*
X0050253Y0142085D01*
X0050253Y0142756D02*
X0050253Y0131126D01*
X0038350Y0131126D01*
X0037969Y0131228D01*
X0037627Y0131426D01*
X0037348Y0131705D01*
X0037150Y0132047D01*
X0037048Y0132428D01*
X0037048Y0142756D01*
X0050253Y0142756D01*
X0050253Y0143083D02*
X0026595Y0143083D01*
X0026595Y0142085D02*
X0037048Y0142085D01*
X0037048Y0141086D02*
X0026595Y0141086D01*
X0026595Y0140088D02*
X0037048Y0140088D01*
X0037048Y0139089D02*
X0026595Y0139089D01*
X0026595Y0138091D02*
X0037048Y0138091D01*
X0037048Y0137092D02*
X0026595Y0137092D01*
X0026595Y0136094D02*
X0037048Y0136094D01*
X0037048Y0135095D02*
X0026595Y0135095D01*
X0026595Y0134097D02*
X0037048Y0134097D01*
X0037048Y0133098D02*
X0026595Y0133098D01*
X0026595Y0132100D02*
X0037136Y0132100D01*
X0026595Y0131101D02*
X0075705Y0131101D01*
X0076986Y0130103D02*
X0026595Y0130103D01*
X0026595Y0129104D02*
X0076986Y0129104D01*
X0076986Y0128106D02*
X0026595Y0128106D01*
X0026595Y0127107D02*
X0076986Y0127107D01*
X0076986Y0126109D02*
X0026595Y0126109D01*
X0026595Y0125110D02*
X0076986Y0125110D01*
X0076986Y0124112D02*
X0026595Y0124112D01*
X0026595Y0123113D02*
X0037673Y0123113D01*
X0037056Y0122114D02*
X0026595Y0122114D01*
X0026595Y0121116D02*
X0037048Y0121116D01*
X0037048Y0120117D02*
X0026595Y0120117D01*
X0026595Y0119119D02*
X0037048Y0119119D01*
X0037048Y0118120D02*
X0026595Y0118120D01*
X0026595Y0117122D02*
X0037048Y0117122D01*
X0037048Y0116123D02*
X0026595Y0116123D01*
X0026595Y0115125D02*
X0037048Y0115125D01*
X0037048Y0114126D02*
X0026595Y0114126D01*
X0026595Y0113128D02*
X0037048Y0113128D01*
X0037048Y0112129D02*
X0026595Y0112129D01*
X0026595Y0111131D02*
X0050253Y0111131D01*
X0050253Y0110756D02*
X0037048Y0110756D01*
X0037048Y0100428D01*
X0037150Y0100047D01*
X0037348Y0099705D01*
X0037627Y0099426D01*
X0037969Y0099228D01*
X0038350Y0099126D01*
X0050253Y0099126D01*
X0050253Y0110756D01*
X0050253Y0110132D02*
X0051253Y0110132D01*
X0051253Y0109134D02*
X0050253Y0109134D01*
X0050253Y0108135D02*
X0051253Y0108135D01*
X0051253Y0107137D02*
X0050253Y0107137D01*
X0050253Y0106138D02*
X0051253Y0106138D01*
X0051253Y0105140D02*
X0050253Y0105140D01*
X0050253Y0104141D02*
X0051253Y0104141D01*
X0051253Y0103143D02*
X0050253Y0103143D01*
X0050253Y0102144D02*
X0051253Y0102144D01*
X0051253Y0101146D02*
X0050253Y0101146D01*
X0050253Y0100147D02*
X0051253Y0100147D01*
X0051253Y0099149D02*
X0050253Y0099149D01*
X0038266Y0099149D02*
X0026595Y0099149D01*
X0026595Y0100147D02*
X0037123Y0100147D01*
X0037048Y0101146D02*
X0026595Y0101146D01*
X0026595Y0102144D02*
X0037048Y0102144D01*
X0037048Y0103143D02*
X0026595Y0103143D01*
X0026595Y0104141D02*
X0037048Y0104141D01*
X0037048Y0105140D02*
X0026595Y0105140D01*
X0026595Y0106138D02*
X0037048Y0106138D01*
X0037048Y0107137D02*
X0026595Y0107137D01*
X0026595Y0108135D02*
X0037048Y0108135D01*
X0037048Y0109134D02*
X0026595Y0109134D01*
X0026595Y0110132D02*
X0037048Y0110132D01*
X0050253Y0112129D02*
X0051253Y0112129D01*
X0051253Y0111131D02*
X0107145Y0111131D01*
X0107134Y0111134D02*
X0107516Y0111031D01*
X0111938Y0111031D01*
X0111938Y0116756D01*
X0112938Y0116756D01*
X0112938Y0117756D01*
X0118662Y0117756D01*
X0118662Y0122178D01*
X0118560Y0122559D01*
X0118362Y0122901D01*
X0118083Y0123181D01*
X0117741Y0123378D01*
X0117360Y0123480D01*
X0112938Y0123480D01*
X0112938Y0117756D01*
X0111938Y0117756D01*
X0111938Y0123480D01*
X0107516Y0123480D01*
X0107134Y0123378D01*
X0106792Y0123181D01*
X0106513Y0122901D01*
X0106315Y0122559D01*
X0106213Y0122178D01*
X0106213Y0117756D01*
X0111938Y0117756D01*
X0111938Y0116756D01*
X0106213Y0116756D01*
X0106213Y0112334D01*
X0106315Y0111953D01*
X0106513Y0111610D01*
X0106792Y0111331D01*
X0107134Y0111134D01*
X0106268Y0112129D02*
X0098784Y0112129D01*
X0098784Y0113128D02*
X0106213Y0113128D01*
X0106213Y0114126D02*
X0098784Y0114126D01*
X0098784Y0115125D02*
X0106213Y0115125D01*
X0106213Y0116123D02*
X0098784Y0116123D01*
X0098784Y0117122D02*
X0111938Y0117122D01*
X0111938Y0118120D02*
X0112938Y0118120D01*
X0112938Y0117122D02*
X0125184Y0117122D01*
X0126088Y0116123D02*
X0118662Y0116123D01*
X0118662Y0116756D02*
X0112938Y0116756D01*
X0112938Y0111031D01*
X0117360Y0111031D01*
X0117741Y0111134D01*
X0118083Y0111331D01*
X0118362Y0111610D01*
X0118560Y0111953D01*
X0118662Y0112334D01*
X0118662Y0116756D01*
X0118662Y0118120D02*
X0124185Y0118120D01*
X0123187Y0119119D02*
X0118662Y0119119D01*
X0118662Y0120117D02*
X0122188Y0120117D01*
X0121190Y0121116D02*
X0118662Y0121116D01*
X0118662Y0122114D02*
X0120191Y0122114D01*
X0119192Y0123113D02*
X0118151Y0123113D01*
X0118194Y0124112D02*
X0082000Y0124112D01*
X0083579Y0123113D02*
X0087312Y0123113D01*
X0086721Y0122114D02*
X0083949Y0122114D01*
X0083949Y0121116D02*
X0086721Y0121116D01*
X0086721Y0120117D02*
X0083949Y0120117D01*
X0098193Y0123113D02*
X0106725Y0123113D01*
X0106213Y0122114D02*
X0098784Y0122114D01*
X0098784Y0121116D02*
X0106213Y0121116D01*
X0106213Y0120117D02*
X0098784Y0120117D01*
X0098784Y0119119D02*
X0106213Y0119119D01*
X0106213Y0118120D02*
X0098784Y0118120D01*
X0111938Y0119119D02*
X0112938Y0119119D01*
X0112938Y0120117D02*
X0111938Y0120117D01*
X0111938Y0121116D02*
X0112938Y0121116D01*
X0112938Y0122114D02*
X0111938Y0122114D01*
X0111938Y0123113D02*
X0112938Y0123113D01*
X0121291Y0128106D02*
X0137921Y0128106D01*
X0137921Y0129104D02*
X0120293Y0129104D01*
X0122290Y0127107D02*
X0137921Y0127107D01*
X0137921Y0126109D02*
X0123288Y0126109D01*
X0124287Y0125110D02*
X0137921Y0125110D01*
X0137921Y0124112D02*
X0125285Y0124112D01*
X0126284Y0123113D02*
X0137996Y0123113D01*
X0137728Y0122114D02*
X0127282Y0122114D01*
X0128281Y0121116D02*
X0137728Y0121116D01*
X0137728Y0119187D02*
X0137728Y0116931D01*
X0137830Y0116549D01*
X0138028Y0116207D01*
X0138307Y0115928D01*
X0138649Y0115730D01*
X0139031Y0115628D01*
X0141681Y0115628D01*
X0141681Y0119187D01*
X0137728Y0119187D01*
X0137728Y0119119D02*
X0130278Y0119119D01*
X0130951Y0118120D02*
X0137728Y0118120D01*
X0137728Y0117122D02*
X0131102Y0117122D01*
X0131102Y0116123D02*
X0138112Y0116123D01*
X0141681Y0116123D02*
X0142681Y0116123D01*
X0142681Y0117122D02*
X0141681Y0117122D01*
X0141681Y0118120D02*
X0142681Y0118120D01*
X0142681Y0119119D02*
X0141681Y0119119D01*
X0141681Y0120117D02*
X0129279Y0120117D01*
X0131102Y0115125D02*
X0152896Y0115125D01*
X0152896Y0116123D02*
X0146250Y0116123D01*
X0146634Y0117122D02*
X0152896Y0117122D01*
X0152703Y0118120D02*
X0146634Y0118120D01*
X0146634Y0119119D02*
X0152703Y0119119D01*
X0152703Y0120117D02*
X0142681Y0120117D01*
X0146634Y0121116D02*
X0152896Y0121116D01*
X0152896Y0122114D02*
X0146634Y0122114D01*
X0146365Y0123113D02*
X0152896Y0123113D01*
X0152896Y0124112D02*
X0146441Y0124112D01*
X0146441Y0125110D02*
X0152896Y0125110D01*
X0152896Y0126109D02*
X0146441Y0126109D01*
X0146279Y0130430D02*
X0145675Y0131034D01*
X0144688Y0131034D01*
X0144688Y0157749D01*
X0168532Y0157749D01*
X0167788Y0157004D01*
X0156407Y0145624D01*
X0155349Y0144565D01*
X0155349Y0133864D01*
X0153662Y0133864D01*
X0152896Y0133098D01*
X0144688Y0133098D01*
X0144688Y0132100D02*
X0152896Y0132100D01*
X0152896Y0133098D02*
X0152896Y0130430D01*
X0146279Y0130430D01*
X0144688Y0131101D02*
X0152896Y0131101D01*
X0157156Y0131572D02*
X0157156Y0143817D01*
X0169595Y0156256D01*
X0224595Y0156256D01*
X0241595Y0173256D01*
X0241595Y0181256D01*
X0244595Y0184256D01*
X0252595Y0184256D01*
X0257595Y0179256D01*
X0253167Y0181128D02*
X0252788Y0180212D01*
X0252788Y0178300D01*
X0253520Y0176533D01*
X0254872Y0175181D01*
X0256639Y0174449D01*
X0258551Y0174449D01*
X0260318Y0175181D01*
X0260788Y0175651D01*
X0260788Y0174004D01*
X0256847Y0170063D01*
X0245958Y0170063D01*
X0248344Y0172449D01*
X0249402Y0173507D01*
X0249402Y0174449D01*
X0249586Y0174449D01*
X0252402Y0177265D01*
X0252402Y0181247D01*
X0251200Y0182449D01*
X0251847Y0182449D01*
X0253167Y0181128D01*
X0253125Y0181027D02*
X0252402Y0181027D01*
X0252402Y0180028D02*
X0252788Y0180028D01*
X0252788Y0179030D02*
X0252402Y0179030D01*
X0252402Y0178031D02*
X0252899Y0178031D01*
X0253313Y0177033D02*
X0252170Y0177033D01*
X0251172Y0176034D02*
X0254019Y0176034D01*
X0255222Y0175036D02*
X0250173Y0175036D01*
X0249402Y0174037D02*
X0260788Y0174037D01*
X0260788Y0175036D02*
X0259968Y0175036D01*
X0259822Y0173039D02*
X0248933Y0173039D01*
X0247935Y0172040D02*
X0258824Y0172040D01*
X0257825Y0171042D02*
X0246936Y0171042D01*
X0247595Y0174256D02*
X0247595Y0179256D01*
X0244019Y0176034D02*
X0243402Y0176034D01*
X0243402Y0176651D02*
X0245418Y0174635D01*
X0243402Y0172619D01*
X0243402Y0174004D01*
X0243402Y0176651D01*
X0243402Y0175036D02*
X0245017Y0175036D01*
X0244821Y0174037D02*
X0243402Y0174037D01*
X0243402Y0173039D02*
X0243822Y0173039D01*
X0247595Y0174256D02*
X0226595Y0153256D01*
X0171595Y0153256D01*
X0162864Y0144525D01*
X0162864Y0137281D01*
X0160573Y0137092D02*
X0158963Y0137092D01*
X0158963Y0136094D02*
X0160573Y0136094D01*
X0160573Y0135095D02*
X0158963Y0135095D01*
X0158963Y0134097D02*
X0160573Y0134097D01*
X0160573Y0133864D02*
X0158963Y0133864D01*
X0158963Y0143068D01*
X0161057Y0145163D01*
X0161057Y0141259D01*
X0160573Y0140775D01*
X0160573Y0133864D01*
X0161416Y0133021D02*
X0164390Y0133021D01*
X0164439Y0133070D01*
X0164488Y0133021D01*
X0167540Y0133021D01*
X0167589Y0133070D01*
X0167638Y0133021D01*
X0170689Y0133021D01*
X0170738Y0133070D01*
X0170788Y0133021D01*
X0173839Y0133021D01*
X0173888Y0133070D01*
X0173937Y0133021D01*
X0176988Y0133021D01*
X0177038Y0133070D01*
X0177087Y0133021D01*
X0180138Y0133021D01*
X0180187Y0133070D01*
X0180236Y0133021D01*
X0183288Y0133021D01*
X0183337Y0133070D01*
X0183386Y0133021D01*
X0186360Y0133021D01*
X0186360Y0130047D01*
X0186410Y0129998D01*
X0186360Y0129948D01*
X0186360Y0127263D01*
X0176426Y0127263D01*
X0173260Y0130430D01*
X0161416Y0130430D01*
X0161416Y0133021D01*
X0161416Y0132100D02*
X0186360Y0132100D01*
X0186360Y0131101D02*
X0161416Y0131101D01*
X0161416Y0126416D02*
X0171597Y0126416D01*
X0173588Y0124425D01*
X0173588Y0124425D01*
X0174764Y0123249D01*
X0186168Y0123249D01*
X0186168Y0122124D01*
X0190620Y0122124D01*
X0190620Y0122982D01*
X0190620Y0122982D01*
X0190620Y0122124D01*
X0190620Y0122124D01*
X0190620Y0122124D01*
X0186168Y0122124D01*
X0186168Y0120942D01*
X0186270Y0120560D01*
X0186360Y0120403D01*
X0186360Y0117545D01*
X0186270Y0117388D01*
X0186168Y0117006D01*
X0186168Y0115824D01*
X0186168Y0114643D01*
X0186270Y0114261D01*
X0186360Y0114104D01*
X0186360Y0111149D01*
X0186410Y0111100D01*
X0186360Y0111051D01*
X0186360Y0108076D01*
X0183386Y0108076D01*
X0183337Y0108027D01*
X0183288Y0108076D01*
X0180236Y0108076D01*
X0180187Y0108027D01*
X0180138Y0108076D01*
X0177087Y0108076D01*
X0177038Y0108027D01*
X0176988Y0108076D01*
X0173937Y0108076D01*
X0173888Y0108027D01*
X0173839Y0108076D01*
X0170788Y0108076D01*
X0170738Y0108027D01*
X0170689Y0108076D01*
X0167638Y0108076D01*
X0167589Y0108027D01*
X0167540Y0108076D01*
X0164488Y0108076D01*
X0164439Y0108027D01*
X0164390Y0108076D01*
X0161416Y0108076D01*
X0161416Y0111051D01*
X0161366Y0111100D01*
X0161416Y0111149D01*
X0161416Y0114200D01*
X0161366Y0114250D01*
X0161416Y0114299D01*
X0161416Y0117254D01*
X0161506Y0117411D01*
X0161608Y0117792D01*
X0161608Y0118974D01*
X0161608Y0120156D01*
X0161506Y0120537D01*
X0161416Y0120694D01*
X0161416Y0123649D01*
X0161366Y0123698D01*
X0161416Y0123748D01*
X0161416Y0126416D01*
X0161416Y0126109D02*
X0171904Y0126109D01*
X0172903Y0125110D02*
X0161416Y0125110D01*
X0161416Y0124112D02*
X0173901Y0124112D01*
X0175584Y0128106D02*
X0186360Y0128106D01*
X0186360Y0129104D02*
X0174585Y0129104D01*
X0173587Y0130103D02*
X0186360Y0130103D01*
X0190620Y0131572D02*
X0197412Y0131572D01*
X0200527Y0134687D01*
X0206474Y0134687D01*
X0210952Y0137176D02*
X0201995Y0137176D01*
X0201314Y0136494D01*
X0199778Y0136494D01*
X0196663Y0133379D01*
X0194599Y0133379D01*
X0194114Y0133864D01*
X0187203Y0133864D01*
X0187203Y0137474D01*
X0233258Y0137474D01*
X0207116Y0111332D01*
X0194880Y0111332D01*
X0194880Y0114104D01*
X0194971Y0114261D01*
X0195073Y0114643D01*
X0195073Y0115824D01*
X0190620Y0115824D01*
X0190620Y0115824D01*
X0190620Y0114966D01*
X0190620Y0114966D01*
X0190620Y0115824D01*
X0186168Y0115824D01*
X0190620Y0115824D01*
X0190620Y0115824D01*
X0190620Y0115824D01*
X0190620Y0115825D02*
X0190620Y0116683D01*
X0190620Y0116683D01*
X0190620Y0115825D01*
X0190620Y0115825D01*
X0190620Y0115824D02*
X0195073Y0115824D01*
X0195073Y0116967D01*
X0196145Y0116967D01*
X0199602Y0120425D01*
X0199602Y0123693D01*
X0199847Y0123449D01*
X0201297Y0123449D01*
X0201995Y0122750D01*
X0210952Y0122750D01*
X0211718Y0123516D01*
X0211718Y0126961D01*
X0211183Y0127496D01*
X0211332Y0127582D01*
X0211611Y0127861D01*
X0211809Y0128203D01*
X0211911Y0128584D01*
X0211911Y0129872D01*
X0206564Y0129872D01*
X0206564Y0130054D01*
X0211911Y0130054D01*
X0211911Y0131342D01*
X0211809Y0131723D01*
X0211611Y0132065D01*
X0211332Y0132344D01*
X0211183Y0132430D01*
X0211718Y0132965D01*
X0211718Y0136410D01*
X0210952Y0137176D01*
X0211036Y0137092D02*
X0232876Y0137092D01*
X0231877Y0136094D02*
X0211718Y0136094D01*
X0211718Y0135095D02*
X0230879Y0135095D01*
X0229880Y0134097D02*
X0211718Y0134097D01*
X0211718Y0133098D02*
X0228882Y0133098D01*
X0227883Y0132100D02*
X0211577Y0132100D01*
X0211911Y0131101D02*
X0226885Y0131101D01*
X0225886Y0130103D02*
X0211911Y0130103D01*
X0211911Y0129104D02*
X0224888Y0129104D01*
X0223889Y0128106D02*
X0211752Y0128106D01*
X0211572Y0127107D02*
X0222891Y0127107D01*
X0221892Y0126109D02*
X0211718Y0126109D01*
X0211718Y0125110D02*
X0220894Y0125110D01*
X0219895Y0124112D02*
X0211718Y0124112D01*
X0211315Y0123113D02*
X0218897Y0123113D01*
X0217898Y0122114D02*
X0199602Y0122114D01*
X0199602Y0121116D02*
X0216900Y0121116D01*
X0215901Y0120117D02*
X0199295Y0120117D01*
X0198297Y0119119D02*
X0214903Y0119119D01*
X0213904Y0118120D02*
X0197298Y0118120D01*
X0196300Y0117122D02*
X0212906Y0117122D01*
X0211907Y0116123D02*
X0195073Y0116123D01*
X0195073Y0115125D02*
X0210909Y0115125D01*
X0209910Y0114126D02*
X0194893Y0114126D01*
X0194880Y0113128D02*
X0208912Y0113128D01*
X0207913Y0112129D02*
X0194880Y0112129D01*
X0190620Y0109525D02*
X0207864Y0109525D01*
X0247595Y0149256D01*
X0273595Y0149256D01*
X0275095Y0147756D01*
X0275095Y0141356D01*
X0275095Y0134756D01*
X0272595Y0132256D01*
X0240595Y0132256D01*
X0224871Y0116531D01*
X0224871Y0104556D01*
X0222564Y0104141D02*
X0187203Y0104141D01*
X0187203Y0103143D02*
X0222564Y0103143D01*
X0222834Y0102144D02*
X0187203Y0102144D01*
X0187203Y0101146D02*
X0298150Y0101146D01*
X0299148Y0100147D02*
X0269577Y0100147D01*
X0269356Y0102144D02*
X0297151Y0102144D01*
X0297295Y0104556D02*
X0303595Y0098256D01*
X0300307Y0098150D02*
X0294256Y0098150D01*
X0293258Y0099149D02*
X0300147Y0099149D01*
X0300493Y0097152D02*
X0295255Y0097152D01*
X0296253Y0096153D02*
X0301048Y0096153D01*
X0302490Y0095155D02*
X0297252Y0095155D01*
X0298250Y0094156D02*
X0325045Y0094156D01*
X0326483Y0093158D02*
X0299249Y0093158D01*
X0300247Y0092159D02*
X0356063Y0092159D01*
X0355988Y0092339D02*
X0356689Y0090646D01*
X0357985Y0089350D01*
X0358061Y0089319D01*
X0357985Y0089288D01*
X0356689Y0087992D01*
X0355988Y0086298D01*
X0355988Y0084465D01*
X0356689Y0082772D01*
X0357985Y0081476D01*
X0359679Y0080775D01*
X0361512Y0080775D01*
X0363205Y0081476D01*
X0364501Y0082772D01*
X0365202Y0084465D01*
X0365202Y0086298D01*
X0364501Y0087992D01*
X0363205Y0089288D01*
X0363129Y0089319D01*
X0363205Y0089350D01*
X0364501Y0090646D01*
X0365202Y0092339D01*
X0365202Y0094172D01*
X0364501Y0095866D01*
X0363205Y0097162D01*
X0363129Y0097193D01*
X0363205Y0097224D01*
X0364501Y0098520D01*
X0365202Y0100214D01*
X0365202Y0102046D01*
X0364501Y0103740D01*
X0363205Y0105036D01*
X0361512Y0105737D01*
X0359679Y0105737D01*
X0357985Y0105036D01*
X0356689Y0103740D01*
X0355988Y0102046D01*
X0355988Y0100214D01*
X0356689Y0098520D01*
X0357985Y0097224D01*
X0358061Y0097193D01*
X0357985Y0097162D01*
X0356689Y0095866D01*
X0355988Y0094172D01*
X0355988Y0092339D01*
X0355988Y0093158D02*
X0328708Y0093158D01*
X0330146Y0094156D02*
X0355988Y0094156D01*
X0356395Y0095155D02*
X0330698Y0095155D01*
X0330883Y0096153D02*
X0356977Y0096153D01*
X0357976Y0097152D02*
X0330783Y0097152D01*
X0330351Y0098150D02*
X0357059Y0098150D01*
X0356429Y0099149D02*
X0329204Y0099149D01*
X0325987Y0099149D02*
X0319399Y0099149D01*
X0318401Y0100147D02*
X0356016Y0100147D01*
X0355988Y0101146D02*
X0317402Y0101146D01*
X0316404Y0102144D02*
X0356029Y0102144D01*
X0356442Y0103143D02*
X0315405Y0103143D01*
X0314407Y0104141D02*
X0357091Y0104141D01*
X0358237Y0105140D02*
X0313408Y0105140D01*
X0312410Y0106138D02*
X0321167Y0106138D01*
X0320169Y0107137D02*
X0311411Y0107137D01*
X0310413Y0108135D02*
X0319170Y0108135D01*
X0318172Y0109134D02*
X0309414Y0109134D01*
X0308416Y0110132D02*
X0317173Y0110132D01*
X0316175Y0111131D02*
X0278417Y0111131D01*
X0277973Y0112129D02*
X0277419Y0112129D01*
X0275020Y0109134D02*
X0232977Y0109134D01*
X0232977Y0110132D02*
X0274022Y0110132D01*
X0273188Y0111131D02*
X0232977Y0111131D01*
X0233024Y0112129D02*
X0247973Y0112129D01*
X0247488Y0113128D02*
X0234023Y0113128D01*
X0235021Y0114126D02*
X0247488Y0114126D01*
X0247488Y0115125D02*
X0236020Y0115125D01*
X0237018Y0116123D02*
X0247488Y0116123D01*
X0247488Y0117122D02*
X0238017Y0117122D01*
X0239015Y0118120D02*
X0247488Y0118120D01*
X0247488Y0119119D02*
X0240014Y0119119D01*
X0241012Y0120117D02*
X0247488Y0120117D01*
X0247488Y0121116D02*
X0242011Y0121116D01*
X0243009Y0122114D02*
X0247905Y0122114D01*
X0245006Y0124112D02*
X0277588Y0124112D01*
X0277588Y0123113D02*
X0244008Y0123113D01*
X0244595Y0126256D02*
X0276595Y0126256D01*
X0285095Y0134756D01*
X0285095Y0141356D01*
X0285095Y0147756D01*
X0277595Y0155256D01*
X0243595Y0155256D01*
X0232595Y0144256D01*
X0183595Y0144256D01*
X0181762Y0142423D01*
X0181762Y0137281D01*
X0184595Y0137598D02*
X0184912Y0137281D01*
X0184595Y0137598D02*
X0184595Y0139256D01*
X0184620Y0139281D01*
X0232620Y0139281D01*
X0245595Y0152256D01*
X0275595Y0152256D01*
X0280095Y0147756D01*
X0280095Y0141356D01*
X0280095Y0134756D01*
X0274595Y0129256D01*
X0242595Y0129256D01*
X0228020Y0114681D01*
X0228020Y0104556D01*
X0231170Y0104556D02*
X0231170Y0112831D01*
X0244595Y0126256D01*
X0252285Y0122114D02*
X0252905Y0122114D01*
X0257285Y0122114D02*
X0257905Y0122114D01*
X0262285Y0122114D02*
X0262905Y0122114D01*
X0267285Y0122114D02*
X0267905Y0122114D01*
X0272285Y0122114D02*
X0272905Y0122114D01*
X0277285Y0122114D02*
X0277588Y0122114D01*
X0282602Y0122114D02*
X0282905Y0122114D01*
X0282998Y0123113D02*
X0324533Y0123113D01*
X0324983Y0123563D02*
X0321288Y0119868D01*
X0321288Y0114643D01*
X0324983Y0110949D01*
X0330208Y0110949D01*
X0333902Y0114643D01*
X0333902Y0119868D01*
X0330208Y0123563D01*
X0324983Y0123563D01*
X0323534Y0122114D02*
X0287285Y0122114D01*
X0287702Y0121116D02*
X0322536Y0121116D01*
X0321537Y0120117D02*
X0287702Y0120117D01*
X0283996Y0124112D02*
X0379194Y0124112D01*
X0379143Y0122732D02*
X0380817Y0122039D01*
X0382098Y0120757D01*
X0382792Y0119083D01*
X0382792Y0117271D01*
X0382098Y0115597D01*
X0380817Y0114316D01*
X0379143Y0113622D01*
X0370835Y0113622D01*
X0369161Y0114316D01*
X0367879Y0115597D01*
X0367186Y0117271D01*
X0367186Y0119083D01*
X0367879Y0120757D01*
X0369161Y0122039D01*
X0370835Y0122732D01*
X0379143Y0122732D01*
X0380192Y0123113D02*
X0330658Y0123113D01*
X0331656Y0122114D02*
X0369343Y0122114D01*
X0368238Y0121116D02*
X0332655Y0121116D01*
X0333653Y0120117D02*
X0367614Y0120117D01*
X0367200Y0119119D02*
X0333902Y0119119D01*
X0333902Y0118120D02*
X0367186Y0118120D01*
X0367247Y0117122D02*
X0333902Y0117122D01*
X0333902Y0116123D02*
X0367661Y0116123D01*
X0368351Y0115125D02*
X0333902Y0115125D01*
X0333385Y0114126D02*
X0369617Y0114126D01*
X0369094Y0112129D02*
X0331388Y0112129D01*
X0330390Y0111131D02*
X0368095Y0111131D01*
X0368494Y0105140D02*
X0362953Y0105140D01*
X0364099Y0104141D02*
X0369961Y0104141D01*
X0365162Y0102144D02*
X0384088Y0102144D01*
X0384088Y0101146D02*
X0365202Y0101146D01*
X0365175Y0100147D02*
X0384088Y0100147D01*
X0384088Y0099149D02*
X0364761Y0099149D01*
X0364131Y0098150D02*
X0384088Y0098150D01*
X0384088Y0097152D02*
X0363215Y0097152D01*
X0364213Y0096153D02*
X0384088Y0096153D01*
X0384088Y0095155D02*
X0364795Y0095155D01*
X0365202Y0094156D02*
X0384088Y0094156D01*
X0384088Y0093158D02*
X0365202Y0093158D01*
X0365128Y0092159D02*
X0384088Y0092159D01*
X0384088Y0091161D02*
X0364714Y0091161D01*
X0364017Y0090162D02*
X0384088Y0090162D01*
X0384088Y0089164D02*
X0363329Y0089164D01*
X0364327Y0088165D02*
X0384088Y0088165D01*
X0384088Y0087167D02*
X0364843Y0087167D01*
X0365202Y0086168D02*
X0384088Y0086168D01*
X0384088Y0085170D02*
X0365202Y0085170D01*
X0365080Y0084171D02*
X0384088Y0084171D01*
X0384088Y0083173D02*
X0364667Y0083173D01*
X0363903Y0082174D02*
X0369246Y0082174D01*
X0369161Y0082139D02*
X0367879Y0080857D01*
X0367186Y0079183D01*
X0367186Y0077371D01*
X0367879Y0075697D01*
X0369161Y0074416D01*
X0370835Y0073722D01*
X0379143Y0073722D01*
X0380817Y0074416D01*
X0382098Y0075697D01*
X0382792Y0077371D01*
X0382792Y0079183D01*
X0382098Y0080857D01*
X0380817Y0082139D01*
X0379143Y0082832D01*
X0370835Y0082832D01*
X0369161Y0082139D01*
X0368197Y0081176D02*
X0362479Y0081176D01*
X0358711Y0081176D02*
X0350457Y0081176D01*
X0350457Y0082174D02*
X0357288Y0082174D01*
X0356524Y0083173D02*
X0347095Y0083173D01*
X0347095Y0082932D02*
X0347095Y0083931D01*
X0350457Y0083931D01*
X0350457Y0088353D01*
X0350355Y0088735D01*
X0350158Y0089077D01*
X0349878Y0089356D01*
X0349536Y0089554D01*
X0349155Y0089656D01*
X0347095Y0089656D01*
X0347095Y0083932D01*
X0346095Y0083932D01*
X0346095Y0089656D01*
X0344035Y0089656D01*
X0343654Y0089554D01*
X0343312Y0089356D01*
X0343033Y0089077D01*
X0342835Y0088735D01*
X0342733Y0088353D01*
X0342733Y0083931D01*
X0346095Y0083931D01*
X0346095Y0082932D01*
X0342733Y0082932D01*
X0342733Y0078510D01*
X0342835Y0078128D01*
X0343033Y0077786D01*
X0343312Y0077507D01*
X0343654Y0077309D01*
X0344035Y0077207D01*
X0346095Y0077207D01*
X0346095Y0082931D01*
X0347095Y0082931D01*
X0347095Y0077207D01*
X0349155Y0077207D01*
X0349536Y0077309D01*
X0349878Y0077507D01*
X0350158Y0077786D01*
X0350355Y0078128D01*
X0350457Y0078510D01*
X0350457Y0082932D01*
X0347095Y0082932D01*
X0347095Y0082174D02*
X0346095Y0082174D01*
X0346095Y0081176D02*
X0347095Y0081176D01*
X0347095Y0080177D02*
X0346095Y0080177D01*
X0346095Y0079178D02*
X0347095Y0079178D01*
X0347095Y0078180D02*
X0346095Y0078180D01*
X0342821Y0078180D02*
X0332264Y0078180D01*
X0332264Y0079178D02*
X0342733Y0079178D01*
X0342733Y0080177D02*
X0332264Y0080177D01*
X0332264Y0081176D02*
X0342733Y0081176D01*
X0342733Y0082174D02*
X0332264Y0082174D01*
X0332264Y0083173D02*
X0346095Y0083173D01*
X0346095Y0084171D02*
X0347095Y0084171D01*
X0347095Y0085170D02*
X0346095Y0085170D01*
X0346095Y0086168D02*
X0347095Y0086168D01*
X0347095Y0087167D02*
X0346095Y0087167D01*
X0346095Y0088165D02*
X0347095Y0088165D01*
X0347095Y0089164D02*
X0346095Y0089164D01*
X0343119Y0089164D02*
X0331798Y0089164D01*
X0332264Y0088165D02*
X0342733Y0088165D01*
X0342733Y0087167D02*
X0332264Y0087167D01*
X0332264Y0086168D02*
X0342733Y0086168D01*
X0342733Y0085170D02*
X0332264Y0085170D01*
X0332264Y0084171D02*
X0342733Y0084171D01*
X0350457Y0084171D02*
X0356110Y0084171D01*
X0355988Y0085170D02*
X0350457Y0085170D01*
X0350457Y0086168D02*
X0355988Y0086168D01*
X0356348Y0087167D02*
X0350457Y0087167D01*
X0350457Y0088165D02*
X0356863Y0088165D01*
X0357861Y0089164D02*
X0350071Y0089164D01*
X0356476Y0091161D02*
X0301246Y0091161D01*
X0302245Y0090162D02*
X0357174Y0090162D01*
X0350457Y0080177D02*
X0367597Y0080177D01*
X0367186Y0079178D02*
X0350457Y0079178D01*
X0350369Y0078180D02*
X0367186Y0078180D01*
X0367264Y0077181D02*
X0330402Y0077181D01*
X0330402Y0076183D02*
X0367678Y0076183D01*
X0368392Y0075184D02*
X0330079Y0075184D01*
X0329081Y0074186D02*
X0369715Y0074186D01*
X0369053Y0072189D02*
X0327084Y0072189D01*
X0328082Y0073187D02*
X0382981Y0073187D01*
X0381983Y0072189D02*
X0380924Y0072189D01*
X0380263Y0074186D02*
X0383980Y0074186D01*
X0384088Y0075184D02*
X0381586Y0075184D01*
X0382300Y0076183D02*
X0384088Y0076183D01*
X0384088Y0077181D02*
X0382713Y0077181D01*
X0382792Y0078180D02*
X0384088Y0078180D01*
X0384088Y0079178D02*
X0382792Y0079178D01*
X0382380Y0080177D02*
X0384088Y0080177D01*
X0384088Y0081176D02*
X0381780Y0081176D01*
X0380732Y0082174D02*
X0384088Y0082174D01*
X0389102Y0082174D02*
X0415595Y0082174D01*
X0415595Y0081176D02*
X0389102Y0081176D01*
X0389102Y0080177D02*
X0415595Y0080177D01*
X0415595Y0079178D02*
X0389102Y0079178D01*
X0389102Y0078180D02*
X0415595Y0078180D01*
X0415595Y0077181D02*
X0389102Y0077181D01*
X0389102Y0076183D02*
X0415595Y0076183D01*
X0415595Y0075184D02*
X0389102Y0075184D01*
X0389102Y0074186D02*
X0415595Y0074186D01*
X0415595Y0073187D02*
X0389102Y0073187D01*
X0388867Y0072189D02*
X0415595Y0072189D01*
X0415595Y0071190D02*
X0388075Y0071190D01*
X0387077Y0070192D02*
X0415595Y0070192D01*
X0415595Y0069193D02*
X0386078Y0069193D01*
X0385080Y0068195D02*
X0415595Y0068195D01*
X0415595Y0067196D02*
X0384081Y0067196D01*
X0383083Y0066198D02*
X0415595Y0066198D01*
X0415595Y0065199D02*
X0381443Y0065199D01*
X0379919Y0064201D02*
X0415595Y0064201D01*
X0415595Y0083173D02*
X0389102Y0083173D01*
X0389102Y0084171D02*
X0415595Y0084171D01*
X0415595Y0085170D02*
X0389102Y0085170D01*
X0389102Y0086168D02*
X0415595Y0086168D01*
X0415595Y0087167D02*
X0389102Y0087167D01*
X0389102Y0088165D02*
X0415595Y0088165D01*
X0415595Y0089164D02*
X0389102Y0089164D01*
X0389102Y0090162D02*
X0415595Y0090162D01*
X0415595Y0091161D02*
X0389102Y0091161D01*
X0389102Y0092159D02*
X0415595Y0092159D01*
X0415595Y0093158D02*
X0389102Y0093158D01*
X0389102Y0094156D02*
X0415595Y0094156D01*
X0415595Y0095155D02*
X0389102Y0095155D01*
X0389102Y0096153D02*
X0415595Y0096153D01*
X0415595Y0097152D02*
X0389102Y0097152D01*
X0389102Y0098150D02*
X0415595Y0098150D01*
X0415595Y0099149D02*
X0389102Y0099149D01*
X0389102Y0100147D02*
X0415595Y0100147D01*
X0415595Y0101146D02*
X0389102Y0101146D01*
X0389102Y0102144D02*
X0415595Y0102144D01*
X0415595Y0103143D02*
X0389102Y0103143D01*
X0389102Y0104141D02*
X0415595Y0104141D01*
X0415595Y0105140D02*
X0389102Y0105140D01*
X0389102Y0106138D02*
X0415595Y0106138D01*
X0415595Y0107137D02*
X0389102Y0107137D01*
X0389102Y0108135D02*
X0415595Y0108135D01*
X0415595Y0109134D02*
X0389102Y0109134D01*
X0389102Y0110132D02*
X0415595Y0110132D01*
X0415595Y0111131D02*
X0389102Y0111131D01*
X0389102Y0112129D02*
X0415595Y0112129D01*
X0415595Y0113128D02*
X0389102Y0113128D01*
X0389102Y0114126D02*
X0415595Y0114126D01*
X0415595Y0115125D02*
X0389102Y0115125D01*
X0389102Y0116123D02*
X0415595Y0116123D01*
X0415595Y0117122D02*
X0389102Y0117122D01*
X0389102Y0118120D02*
X0415595Y0118120D01*
X0415595Y0119119D02*
X0389102Y0119119D01*
X0389102Y0120117D02*
X0415595Y0120117D01*
X0415595Y0121116D02*
X0388953Y0121116D01*
X0388282Y0122114D02*
X0415595Y0122114D01*
X0415595Y0123113D02*
X0387284Y0123113D01*
X0386285Y0124112D02*
X0415595Y0124112D01*
X0415595Y0125110D02*
X0385287Y0125110D01*
X0384288Y0126109D02*
X0415595Y0126109D01*
X0415595Y0127107D02*
X0383290Y0127107D01*
X0382291Y0128106D02*
X0415595Y0128106D01*
X0415595Y0129104D02*
X0381293Y0129104D01*
X0380294Y0130103D02*
X0415595Y0130103D01*
X0415595Y0131101D02*
X0283996Y0131101D01*
X0284994Y0132100D02*
X0415595Y0132100D01*
X0415595Y0133098D02*
X0285993Y0133098D01*
X0286902Y0134097D02*
X0415595Y0134097D01*
X0415595Y0135095D02*
X0286902Y0135095D01*
X0286981Y0136094D02*
X0415595Y0136094D01*
X0415595Y0137092D02*
X0287702Y0137092D01*
X0287702Y0138091D02*
X0415595Y0138091D01*
X0415595Y0139089D02*
X0287702Y0139089D01*
X0287702Y0140088D02*
X0415595Y0140088D01*
X0415595Y0141086D02*
X0330345Y0141086D01*
X0330208Y0140949D02*
X0333902Y0144643D01*
X0333902Y0149868D01*
X0330208Y0153563D01*
X0324983Y0153563D01*
X0321288Y0149868D01*
X0321288Y0144643D01*
X0324983Y0140949D01*
X0330208Y0140949D01*
X0331344Y0142085D02*
X0415595Y0142085D01*
X0415595Y0143083D02*
X0332342Y0143083D01*
X0333341Y0144082D02*
X0415595Y0144082D01*
X0415595Y0145080D02*
X0333902Y0145080D01*
X0333902Y0146079D02*
X0415595Y0146079D01*
X0415595Y0147077D02*
X0333902Y0147077D01*
X0333902Y0148076D02*
X0415595Y0148076D01*
X0415595Y0149074D02*
X0333902Y0149074D01*
X0333698Y0150073D02*
X0415595Y0150073D01*
X0415595Y0151071D02*
X0332699Y0151071D01*
X0331701Y0152070D02*
X0415595Y0152070D01*
X0415595Y0153068D02*
X0380322Y0153068D01*
X0380059Y0152934D02*
X0380725Y0153274D01*
X0381330Y0153713D01*
X0381858Y0154242D01*
X0382298Y0154846D01*
X0382637Y0155512D01*
X0382868Y0156223D01*
X0382965Y0156835D01*
X0375489Y0156835D01*
X0375489Y0157835D01*
X0374489Y0157835D01*
X0374489Y0162083D01*
X0371367Y0162083D01*
X0370629Y0161966D01*
X0369918Y0161735D01*
X0369252Y0161396D01*
X0368648Y0160956D01*
X0368119Y0160428D01*
X0367680Y0159823D01*
X0367341Y0159157D01*
X0367110Y0158446D01*
X0367013Y0157835D01*
X0374489Y0157835D01*
X0374489Y0156835D01*
X0367013Y0156835D01*
X0367110Y0156223D01*
X0367341Y0155512D01*
X0367680Y0154846D01*
X0368119Y0154242D01*
X0368648Y0153713D01*
X0369252Y0153274D01*
X0369918Y0152934D01*
X0370629Y0152704D01*
X0371367Y0152587D01*
X0374489Y0152587D01*
X0374489Y0156835D01*
X0375489Y0156835D01*
X0375489Y0152587D01*
X0378611Y0152587D01*
X0379349Y0152704D01*
X0380059Y0152934D01*
X0381684Y0154067D02*
X0415595Y0154067D01*
X0415595Y0155065D02*
X0382409Y0155065D01*
X0382816Y0156064D02*
X0415595Y0156064D01*
X0415595Y0157062D02*
X0375489Y0157062D01*
X0375489Y0157835D02*
X0382965Y0157835D01*
X0382868Y0158446D01*
X0382637Y0159157D01*
X0382298Y0159823D01*
X0381858Y0160428D01*
X0381330Y0160956D01*
X0380725Y0161396D01*
X0380059Y0161735D01*
X0379349Y0161966D01*
X0378611Y0162083D01*
X0375489Y0162083D01*
X0375489Y0157835D01*
X0375489Y0158061D02*
X0374489Y0158061D01*
X0374489Y0159059D02*
X0375489Y0159059D01*
X0375489Y0160058D02*
X0374489Y0160058D01*
X0374489Y0161056D02*
X0375489Y0161056D01*
X0375489Y0162055D02*
X0374489Y0162055D01*
X0371192Y0162055D02*
X0285855Y0162055D01*
X0285855Y0163053D02*
X0369793Y0163053D01*
X0368424Y0164052D02*
X0285419Y0164052D01*
X0285855Y0165050D02*
X0367691Y0165050D01*
X0367278Y0166049D02*
X0285855Y0166049D01*
X0285855Y0167047D02*
X0367186Y0167047D01*
X0367186Y0168046D02*
X0285855Y0168046D01*
X0285855Y0169045D02*
X0367584Y0169045D01*
X0368165Y0170043D02*
X0285855Y0170043D01*
X0285855Y0171042D02*
X0369167Y0171042D01*
X0372482Y0172040D02*
X0283502Y0172040D01*
X0283502Y0173039D02*
X0372482Y0173039D01*
X0372482Y0174037D02*
X0285855Y0174037D01*
X0285855Y0175036D02*
X0372482Y0175036D01*
X0372482Y0176034D02*
X0285855Y0176034D01*
X0285855Y0177033D02*
X0372273Y0177033D01*
X0371274Y0178031D02*
X0285855Y0178031D01*
X0285855Y0179030D02*
X0370276Y0179030D01*
X0369277Y0180028D02*
X0285855Y0180028D01*
X0285689Y0181027D02*
X0368279Y0181027D01*
X0367280Y0182025D02*
X0271624Y0182025D01*
X0272065Y0181027D02*
X0277502Y0181027D01*
X0277335Y0180028D02*
X0272402Y0180028D01*
X0272402Y0179030D02*
X0277335Y0179030D01*
X0277335Y0178031D02*
X0272291Y0178031D01*
X0271877Y0177033D02*
X0277335Y0177033D01*
X0277335Y0176034D02*
X0271172Y0176034D01*
X0269968Y0175036D02*
X0277335Y0175036D01*
X0277335Y0174037D02*
X0264402Y0174037D01*
X0264402Y0173039D02*
X0279688Y0173039D01*
X0279688Y0172040D02*
X0263935Y0172040D01*
X0262936Y0171042D02*
X0277335Y0171042D01*
X0277335Y0170043D02*
X0261938Y0170043D01*
X0260939Y0169045D02*
X0277335Y0169045D01*
X0277335Y0168046D02*
X0259941Y0168046D01*
X0258942Y0167047D02*
X0277335Y0167047D01*
X0277335Y0166049D02*
X0246944Y0166049D01*
X0245945Y0165050D02*
X0277335Y0165050D01*
X0277771Y0164052D02*
X0244947Y0164052D01*
X0243948Y0163053D02*
X0277335Y0163053D01*
X0281595Y0160516D02*
X0243855Y0160516D01*
X0230595Y0147256D01*
X0175595Y0147256D01*
X0172313Y0143974D01*
X0172313Y0137281D01*
X0170506Y0141541D02*
X0167821Y0141541D01*
X0167821Y0141926D01*
X0170506Y0144611D01*
X0170506Y0141541D01*
X0170506Y0142085D02*
X0167980Y0142085D01*
X0168978Y0143083D02*
X0170506Y0143083D01*
X0170506Y0144082D02*
X0169977Y0144082D01*
X0166014Y0142675D02*
X0173595Y0150256D01*
X0228595Y0150256D01*
X0246595Y0168256D01*
X0257595Y0168256D01*
X0262595Y0173256D01*
X0262595Y0184256D01*
X0257595Y0189256D01*
X0253119Y0191012D02*
X0252071Y0191012D01*
X0252402Y0190013D02*
X0252788Y0190013D01*
X0252788Y0189015D02*
X0252402Y0189015D01*
X0252285Y0188016D02*
X0252905Y0188016D01*
X0253319Y0187018D02*
X0251871Y0187018D01*
X0253387Y0186019D02*
X0254034Y0186019D01*
X0254386Y0185021D02*
X0255258Y0185021D01*
X0255384Y0184022D02*
X0256540Y0184022D01*
X0258650Y0184022D02*
X0260273Y0184022D01*
X0260626Y0183024D02*
X0260788Y0183024D01*
X0264402Y0183024D02*
X0264565Y0183024D01*
X0264402Y0184022D02*
X0266540Y0184022D01*
X0266424Y0184379D02*
X0267202Y0184256D01*
X0267288Y0184256D01*
X0267288Y0188949D01*
X0262595Y0188949D01*
X0262595Y0188862D01*
X0262718Y0188085D01*
X0262961Y0187337D01*
X0263319Y0186635D01*
X0263781Y0185999D01*
X0264338Y0185442D01*
X0264975Y0184980D01*
X0265676Y0184622D01*
X0266424Y0184379D01*
X0267288Y0185021D02*
X0267902Y0185021D01*
X0267902Y0184256D02*
X0267989Y0184256D01*
X0268766Y0184379D01*
X0269514Y0184622D01*
X0270216Y0184980D01*
X0270852Y0185442D01*
X0271409Y0185999D01*
X0271872Y0186635D01*
X0272229Y0187337D01*
X0272472Y0188085D01*
X0272595Y0188862D01*
X0272595Y0188949D01*
X0267902Y0188949D01*
X0267902Y0184256D01*
X0268650Y0184022D02*
X0365283Y0184022D01*
X0364285Y0185021D02*
X0354403Y0185021D01*
X0354493Y0185177D02*
X0354295Y0184835D01*
X0354016Y0184556D01*
X0353674Y0184358D01*
X0353293Y0184256D01*
X0349902Y0184256D01*
X0349902Y0188949D01*
X0349288Y0188949D01*
X0344595Y0188949D01*
X0344595Y0185558D01*
X0344697Y0185177D01*
X0344895Y0184835D01*
X0345174Y0184556D01*
X0345516Y0184358D01*
X0345898Y0184256D01*
X0349288Y0184256D01*
X0349288Y0188949D01*
X0349288Y0189563D01*
X0344595Y0189563D01*
X0344595Y0192953D01*
X0344697Y0193335D01*
X0344895Y0193677D01*
X0345174Y0193956D01*
X0345516Y0194154D01*
X0345898Y0194256D01*
X0349288Y0194256D01*
X0349288Y0189563D01*
X0349902Y0189563D01*
X0349902Y0194256D01*
X0353293Y0194256D01*
X0353674Y0194154D01*
X0354016Y0193956D01*
X0354295Y0193677D01*
X0354493Y0193335D01*
X0354595Y0192953D01*
X0354595Y0189563D01*
X0349902Y0189563D01*
X0349902Y0188949D01*
X0354595Y0188949D01*
X0354595Y0185558D01*
X0354493Y0185177D01*
X0354595Y0186019D02*
X0363286Y0186019D01*
X0362288Y0187018D02*
X0354595Y0187018D01*
X0354595Y0188016D02*
X0361289Y0188016D01*
X0360291Y0189015D02*
X0349902Y0189015D01*
X0349288Y0189015D02*
X0344402Y0189015D01*
X0344402Y0190013D02*
X0344595Y0190013D01*
X0344595Y0191012D02*
X0344071Y0191012D01*
X0343639Y0192010D02*
X0344595Y0192010D01*
X0344610Y0193009D02*
X0342641Y0193009D01*
X0342102Y0194007D02*
X0345263Y0194007D01*
X0342102Y0195006D02*
X0354300Y0195006D01*
X0353928Y0194007D02*
X0355298Y0194007D01*
X0354580Y0193009D02*
X0356297Y0193009D01*
X0357295Y0192010D02*
X0354595Y0192010D01*
X0354595Y0191012D02*
X0358294Y0191012D01*
X0359292Y0190013D02*
X0354595Y0190013D01*
X0349902Y0190013D02*
X0349288Y0190013D01*
X0349288Y0191012D02*
X0349902Y0191012D01*
X0349902Y0192010D02*
X0349288Y0192010D01*
X0349288Y0193009D02*
X0349902Y0193009D01*
X0349902Y0194007D02*
X0349288Y0194007D01*
X0349288Y0188016D02*
X0349902Y0188016D01*
X0349902Y0187018D02*
X0349288Y0187018D01*
X0349288Y0186019D02*
X0349902Y0186019D01*
X0349902Y0185021D02*
X0349288Y0185021D01*
X0344788Y0185021D02*
X0341932Y0185021D01*
X0343157Y0186019D02*
X0344595Y0186019D01*
X0344595Y0187018D02*
X0343871Y0187018D01*
X0344285Y0188016D02*
X0344595Y0188016D01*
X0337258Y0185021D02*
X0331932Y0185021D01*
X0332318Y0185181D02*
X0333670Y0186533D01*
X0334402Y0188300D01*
X0334402Y0190212D01*
X0333670Y0191979D01*
X0332318Y0193331D01*
X0330551Y0194063D01*
X0328639Y0194063D01*
X0326872Y0193331D01*
X0325520Y0191979D01*
X0324788Y0190212D01*
X0324788Y0188300D01*
X0325520Y0186533D01*
X0326872Y0185181D01*
X0328639Y0184449D01*
X0330551Y0184449D01*
X0332318Y0185181D01*
X0333157Y0186019D02*
X0336034Y0186019D01*
X0335319Y0187018D02*
X0333871Y0187018D01*
X0334285Y0188016D02*
X0334905Y0188016D01*
X0334788Y0189015D02*
X0334402Y0189015D01*
X0334402Y0190013D02*
X0334788Y0190013D01*
X0335119Y0191012D02*
X0334071Y0191012D01*
X0333639Y0192010D02*
X0335551Y0192010D01*
X0336550Y0193009D02*
X0332641Y0193009D01*
X0330686Y0194007D02*
X0337088Y0194007D01*
X0337088Y0195006D02*
X0285756Y0195006D01*
X0285748Y0195019D02*
X0285469Y0195299D01*
X0285127Y0195496D01*
X0284745Y0195598D01*
X0282095Y0195598D01*
X0282095Y0191646D01*
X0281095Y0191646D01*
X0281095Y0195598D01*
X0278445Y0195598D01*
X0278063Y0195496D01*
X0277721Y0195299D01*
X0277442Y0195019D01*
X0277245Y0194677D01*
X0277142Y0194296D01*
X0277142Y0191646D01*
X0281095Y0191646D01*
X0281095Y0190646D01*
X0277142Y0190646D01*
X0277142Y0187995D01*
X0277245Y0187614D01*
X0277442Y0187272D01*
X0277721Y0186993D01*
X0278063Y0186795D01*
X0278445Y0186693D01*
X0281095Y0186693D01*
X0281095Y0190646D01*
X0282095Y0190646D01*
X0282095Y0191646D01*
X0286048Y0191646D01*
X0286048Y0194296D01*
X0285946Y0194677D01*
X0285748Y0195019D01*
X0286048Y0194007D02*
X0297548Y0194007D01*
X0297604Y0194063D02*
X0294788Y0191247D01*
X0294788Y0187265D01*
X0297604Y0184449D01*
X0301586Y0184449D01*
X0304402Y0187265D01*
X0304402Y0191247D01*
X0301586Y0194063D01*
X0297604Y0194063D01*
X0296550Y0193009D02*
X0286048Y0193009D01*
X0286048Y0192010D02*
X0295551Y0192010D01*
X0294788Y0191012D02*
X0282095Y0191012D01*
X0282095Y0190646D02*
X0286048Y0190646D01*
X0286048Y0187995D01*
X0285946Y0187614D01*
X0285748Y0187272D01*
X0285469Y0186993D01*
X0285127Y0186795D01*
X0284745Y0186693D01*
X0282095Y0186693D01*
X0282095Y0190646D01*
X0282095Y0190013D02*
X0281095Y0190013D01*
X0281095Y0189015D02*
X0282095Y0189015D01*
X0282095Y0188016D02*
X0281095Y0188016D01*
X0281095Y0187018D02*
X0282095Y0187018D01*
X0285494Y0187018D02*
X0295035Y0187018D01*
X0294788Y0188016D02*
X0286048Y0188016D01*
X0286048Y0189015D02*
X0294788Y0189015D01*
X0294788Y0190013D02*
X0286048Y0190013D01*
X0282095Y0192010D02*
X0281095Y0192010D01*
X0281095Y0191012D02*
X0272282Y0191012D01*
X0272229Y0191175D02*
X0271872Y0191876D01*
X0271409Y0192513D01*
X0270852Y0193070D01*
X0270216Y0193532D01*
X0269514Y0193890D01*
X0268766Y0194133D01*
X0267989Y0194256D01*
X0267902Y0194256D01*
X0267902Y0189563D01*
X0267288Y0189563D01*
X0267288Y0188949D01*
X0267902Y0188949D01*
X0267902Y0189563D01*
X0272595Y0189563D01*
X0272595Y0189649D01*
X0272472Y0190427D01*
X0272229Y0191175D01*
X0271774Y0192010D02*
X0277142Y0192010D01*
X0277142Y0193009D02*
X0270913Y0193009D01*
X0269152Y0194007D02*
X0277142Y0194007D01*
X0277434Y0195006D02*
X0250102Y0195006D01*
X0250102Y0194007D02*
X0256505Y0194007D01*
X0258686Y0194007D02*
X0266038Y0194007D01*
X0265676Y0193890D02*
X0264975Y0193532D01*
X0264338Y0193070D01*
X0263781Y0192513D01*
X0263319Y0191876D01*
X0262961Y0191175D01*
X0262718Y0190427D01*
X0262595Y0189649D01*
X0262595Y0189563D01*
X0267288Y0189563D01*
X0267288Y0194256D01*
X0267202Y0194256D01*
X0266424Y0194133D01*
X0265676Y0193890D01*
X0267288Y0194007D02*
X0267902Y0194007D01*
X0267902Y0193009D02*
X0267288Y0193009D01*
X0267288Y0192010D02*
X0267902Y0192010D01*
X0267902Y0191012D02*
X0267288Y0191012D01*
X0267288Y0190013D02*
X0267902Y0190013D01*
X0267902Y0189015D02*
X0277142Y0189015D01*
X0277142Y0190013D02*
X0272538Y0190013D01*
X0272450Y0188016D02*
X0277142Y0188016D01*
X0277696Y0187018D02*
X0272066Y0187018D01*
X0271424Y0186019D02*
X0296034Y0186019D01*
X0297032Y0185021D02*
X0270272Y0185021D01*
X0270626Y0183024D02*
X0366282Y0183024D01*
X0369379Y0187018D02*
X0400982Y0187018D01*
X0399258Y0188016D02*
X0368380Y0188016D01*
X0367382Y0189015D02*
X0398260Y0189015D01*
X0397298Y0190013D02*
X0366383Y0190013D01*
X0365385Y0191012D02*
X0396721Y0191012D01*
X0396145Y0192010D02*
X0364386Y0192010D01*
X0363388Y0193009D02*
X0395795Y0193009D01*
X0395527Y0194007D02*
X0362389Y0194007D01*
X0361391Y0195006D02*
X0395288Y0195006D01*
X0395288Y0196004D02*
X0360392Y0196004D01*
X0359394Y0197003D02*
X0395288Y0197003D01*
X0395392Y0198001D02*
X0358395Y0198001D01*
X0357397Y0199000D02*
X0395660Y0199000D01*
X0395927Y0199998D02*
X0356398Y0199998D01*
X0370377Y0186019D02*
X0403975Y0186019D01*
X0407215Y0186019D02*
X0415595Y0186019D01*
X0415595Y0185021D02*
X0371376Y0185021D01*
X0372374Y0184022D02*
X0415595Y0184022D01*
X0415595Y0183024D02*
X0373373Y0183024D01*
X0374371Y0182025D02*
X0415595Y0182025D01*
X0415595Y0181027D02*
X0375370Y0181027D01*
X0376368Y0180028D02*
X0415595Y0180028D01*
X0415595Y0179030D02*
X0377219Y0179030D01*
X0377496Y0178031D02*
X0415595Y0178031D01*
X0415595Y0177033D02*
X0377496Y0177033D01*
X0377496Y0176034D02*
X0415595Y0176034D01*
X0415595Y0175036D02*
X0377496Y0175036D01*
X0377496Y0174037D02*
X0415595Y0174037D01*
X0415595Y0173039D02*
X0377496Y0173039D01*
X0377496Y0172040D02*
X0415595Y0172040D01*
X0415595Y0171042D02*
X0380811Y0171042D01*
X0381813Y0170043D02*
X0415595Y0170043D01*
X0415595Y0169045D02*
X0382394Y0169045D01*
X0382792Y0168046D02*
X0415595Y0168046D01*
X0415595Y0167047D02*
X0382792Y0167047D01*
X0382700Y0166049D02*
X0415595Y0166049D01*
X0415595Y0165050D02*
X0382286Y0165050D01*
X0381554Y0164052D02*
X0415595Y0164052D01*
X0415595Y0163053D02*
X0380184Y0163053D01*
X0378786Y0162055D02*
X0415595Y0162055D01*
X0415595Y0161056D02*
X0381192Y0161056D01*
X0382127Y0160058D02*
X0415595Y0160058D01*
X0415595Y0159059D02*
X0382669Y0159059D01*
X0382929Y0158061D02*
X0415595Y0158061D01*
X0375489Y0156064D02*
X0374489Y0156064D01*
X0374489Y0157062D02*
X0285502Y0157062D01*
X0285855Y0158061D02*
X0367049Y0158061D01*
X0367309Y0159059D02*
X0285855Y0159059D01*
X0285855Y0160058D02*
X0367850Y0160058D01*
X0368786Y0161056D02*
X0285855Y0161056D01*
X0280341Y0155065D02*
X0367568Y0155065D01*
X0367161Y0156064D02*
X0279343Y0156064D01*
X0277688Y0157063D02*
X0242958Y0157063D01*
X0244603Y0158709D01*
X0277335Y0158709D01*
X0277335Y0157415D01*
X0277688Y0157063D01*
X0277335Y0158061D02*
X0243956Y0158061D01*
X0227840Y0168046D02*
X0116351Y0168046D01*
X0117349Y0167047D02*
X0226841Y0167047D01*
X0225843Y0166049D02*
X0118348Y0166049D01*
X0119346Y0165050D02*
X0224844Y0165050D01*
X0223846Y0164052D02*
X0120345Y0164052D01*
X0121343Y0163053D02*
X0222847Y0163053D01*
X0228838Y0169045D02*
X0115352Y0169045D01*
X0114354Y0170043D02*
X0118710Y0170043D01*
X0120480Y0170043D02*
X0229837Y0170043D01*
X0230835Y0171042D02*
X0122058Y0171042D01*
X0122671Y0172040D02*
X0231834Y0172040D01*
X0232832Y0173039D02*
X0122902Y0173039D01*
X0122851Y0174037D02*
X0233831Y0174037D01*
X0234088Y0175036D02*
X0125462Y0175036D01*
X0125253Y0174949D02*
X0126468Y0175452D01*
X0127399Y0176383D01*
X0127902Y0177598D01*
X0127902Y0178914D01*
X0127399Y0180129D01*
X0126468Y0181060D01*
X0125253Y0181563D01*
X0123937Y0181563D01*
X0123871Y0181536D01*
X0111402Y0194004D01*
X0110344Y0195063D01*
X0104201Y0195063D01*
X0104201Y0196750D01*
X0103436Y0197516D01*
X0097235Y0197516D01*
X0096595Y0196876D01*
X0095955Y0197516D01*
X0089755Y0197516D01*
X0088989Y0196750D01*
X0088989Y0195063D01*
X0079745Y0195063D01*
X0079745Y0196750D01*
X0078979Y0197516D01*
X0071991Y0197516D01*
X0071225Y0196750D01*
X0071225Y0189762D01*
X0071991Y0188996D01*
X0078979Y0188996D01*
X0079745Y0189762D01*
X0079745Y0191449D01*
X0088989Y0191449D01*
X0088989Y0189762D01*
X0089755Y0188996D01*
X0095955Y0188996D01*
X0096595Y0189636D01*
X0097235Y0188996D01*
X0103436Y0188996D01*
X0104201Y0189762D01*
X0104201Y0191449D01*
X0108847Y0191449D01*
X0121315Y0178980D01*
X0121288Y0178914D01*
X0121288Y0177598D01*
X0121792Y0176383D01*
X0122722Y0175452D01*
X0123937Y0174949D01*
X0125253Y0174949D01*
X0123728Y0175036D02*
X0122438Y0175036D01*
X0122140Y0176034D02*
X0121494Y0176034D01*
X0121522Y0177033D02*
X0118374Y0177033D01*
X0117376Y0178031D02*
X0121288Y0178031D01*
X0121266Y0179030D02*
X0116377Y0179030D01*
X0115378Y0180028D02*
X0120267Y0180028D01*
X0119269Y0181027D02*
X0114380Y0181027D01*
X0113381Y0182025D02*
X0118270Y0182025D01*
X0117272Y0183024D02*
X0112383Y0183024D01*
X0111595Y0181256D02*
X0100335Y0181256D01*
X0104201Y0179030D02*
X0111266Y0179030D01*
X0112264Y0178031D02*
X0104201Y0178031D01*
X0103472Y0177033D02*
X0113263Y0177033D01*
X0114261Y0176034D02*
X0108076Y0176034D01*
X0109361Y0175036D02*
X0115260Y0175036D01*
X0116258Y0174037D02*
X0110360Y0174037D01*
X0111358Y0173039D02*
X0116288Y0173039D01*
X0116519Y0172040D02*
X0112357Y0172040D01*
X0113355Y0171042D02*
X0117133Y0171042D01*
X0119595Y0173256D02*
X0111595Y0181256D01*
X0115275Y0185021D02*
X0103931Y0185021D01*
X0104201Y0184022D02*
X0116273Y0184022D01*
X0114276Y0186019D02*
X0064212Y0186019D01*
X0064212Y0187018D02*
X0113278Y0187018D01*
X0112279Y0188016D02*
X0064212Y0188016D01*
X0065218Y0189015D02*
X0071972Y0189015D01*
X0071225Y0190013D02*
X0065965Y0190013D01*
X0065965Y0191012D02*
X0071225Y0191012D01*
X0071225Y0192010D02*
X0065965Y0192010D01*
X0065965Y0193009D02*
X0071225Y0193009D01*
X0071225Y0194007D02*
X0065965Y0194007D01*
X0065965Y0195006D02*
X0071225Y0195006D01*
X0071225Y0196004D02*
X0065965Y0196004D01*
X0065712Y0197003D02*
X0071478Y0197003D01*
X0075485Y0193256D02*
X0092855Y0193256D01*
X0088989Y0191012D02*
X0079745Y0191012D01*
X0079745Y0190013D02*
X0088989Y0190013D01*
X0089736Y0189015D02*
X0078998Y0189015D01*
X0079474Y0185021D02*
X0089259Y0185021D01*
X0088989Y0184022D02*
X0079745Y0184022D01*
X0075485Y0181256D02*
X0092855Y0181256D01*
X0088989Y0179030D02*
X0079745Y0179030D01*
X0079745Y0178031D02*
X0088989Y0178031D01*
X0089718Y0177033D02*
X0079016Y0177033D01*
X0079004Y0176034D02*
X0072252Y0176034D01*
X0071954Y0177033D02*
X0071254Y0177033D01*
X0071225Y0178031D02*
X0070255Y0178031D01*
X0071225Y0179030D02*
X0069257Y0179030D01*
X0068258Y0180028D02*
X0071225Y0180028D01*
X0071225Y0181027D02*
X0067260Y0181027D01*
X0066261Y0182025D02*
X0071225Y0182025D01*
X0071225Y0183024D02*
X0065965Y0183024D01*
X0065965Y0184022D02*
X0071225Y0184022D01*
X0071496Y0185021D02*
X0065695Y0185021D01*
X0059198Y0186019D02*
X0038215Y0186019D01*
X0041208Y0187018D02*
X0059198Y0187018D01*
X0059198Y0188016D02*
X0042932Y0188016D01*
X0043930Y0189015D02*
X0058193Y0189015D01*
X0057446Y0190013D02*
X0044893Y0190013D01*
X0045469Y0191012D02*
X0057446Y0191012D01*
X0057446Y0192010D02*
X0046046Y0192010D01*
X0046396Y0193009D02*
X0057446Y0193009D01*
X0057446Y0194007D02*
X0046663Y0194007D01*
X0046902Y0195006D02*
X0057446Y0195006D01*
X0057446Y0196004D02*
X0046902Y0196004D01*
X0046902Y0197003D02*
X0057698Y0197003D01*
X0046798Y0198001D02*
X0240795Y0198001D01*
X0239797Y0197003D02*
X0103949Y0197003D01*
X0104201Y0196004D02*
X0238798Y0196004D01*
X0237799Y0195006D02*
X0110401Y0195006D01*
X0111399Y0194007D02*
X0236801Y0194007D01*
X0235802Y0193009D02*
X0112398Y0193009D01*
X0113396Y0192010D02*
X0234804Y0192010D01*
X0234195Y0191012D02*
X0114395Y0191012D01*
X0115393Y0190013D02*
X0234088Y0190013D01*
X0234088Y0189015D02*
X0116392Y0189015D01*
X0117390Y0188016D02*
X0234088Y0188016D01*
X0234088Y0187018D02*
X0118389Y0187018D01*
X0119387Y0186019D02*
X0234088Y0186019D01*
X0234088Y0185021D02*
X0120386Y0185021D01*
X0121384Y0184022D02*
X0234088Y0184022D01*
X0234088Y0183024D02*
X0122383Y0183024D01*
X0123381Y0182025D02*
X0234088Y0182025D01*
X0234088Y0181027D02*
X0126501Y0181027D01*
X0127441Y0180028D02*
X0234088Y0180028D01*
X0234088Y0179030D02*
X0127854Y0179030D01*
X0127902Y0178031D02*
X0234088Y0178031D01*
X0234088Y0177033D02*
X0127668Y0177033D01*
X0127050Y0176034D02*
X0234088Y0176034D01*
X0239102Y0176034D02*
X0239788Y0176034D01*
X0239788Y0175036D02*
X0239102Y0175036D01*
X0239102Y0174037D02*
X0239788Y0174037D01*
X0239788Y0174004D02*
X0239102Y0173319D01*
X0239102Y0189217D01*
X0245088Y0195203D01*
X0245088Y0193421D01*
X0244872Y0193331D01*
X0243520Y0191979D01*
X0242788Y0190212D01*
X0242788Y0188300D01*
X0243520Y0186533D01*
X0243990Y0186063D01*
X0243847Y0186063D01*
X0242788Y0185004D01*
X0239788Y0182004D01*
X0239788Y0174004D01*
X0239788Y0177033D02*
X0239102Y0177033D01*
X0239102Y0178031D02*
X0239788Y0178031D01*
X0239788Y0179030D02*
X0239102Y0179030D01*
X0239102Y0180028D02*
X0239788Y0180028D01*
X0239788Y0181027D02*
X0239102Y0181027D01*
X0239102Y0182025D02*
X0239809Y0182025D01*
X0239102Y0183024D02*
X0240807Y0183024D01*
X0241806Y0184022D02*
X0239102Y0184022D01*
X0239102Y0185021D02*
X0242804Y0185021D01*
X0242788Y0185004D02*
X0242788Y0185004D01*
X0243803Y0186019D02*
X0239102Y0186019D01*
X0239102Y0187018D02*
X0243319Y0187018D01*
X0242905Y0188016D02*
X0239102Y0188016D01*
X0239102Y0189015D02*
X0242788Y0189015D01*
X0242788Y0190013D02*
X0239898Y0190013D01*
X0240897Y0191012D02*
X0243119Y0191012D01*
X0243551Y0192010D02*
X0241895Y0192010D01*
X0242894Y0193009D02*
X0244550Y0193009D01*
X0245088Y0194007D02*
X0243892Y0194007D01*
X0244891Y0195006D02*
X0245088Y0195006D01*
X0241794Y0199000D02*
X0046531Y0199000D01*
X0046263Y0199998D02*
X0242792Y0199998D01*
X0250641Y0193009D02*
X0254550Y0193009D01*
X0253551Y0192010D02*
X0251639Y0192010D01*
X0260641Y0193009D02*
X0264277Y0193009D01*
X0263416Y0192010D02*
X0261639Y0192010D01*
X0262071Y0191012D02*
X0262908Y0191012D01*
X0262653Y0190013D02*
X0262402Y0190013D01*
X0262402Y0189015D02*
X0267288Y0189015D01*
X0267288Y0188016D02*
X0267902Y0188016D01*
X0267902Y0187018D02*
X0267288Y0187018D01*
X0267288Y0186019D02*
X0267902Y0186019D01*
X0264918Y0185021D02*
X0264386Y0185021D01*
X0263766Y0186019D02*
X0263387Y0186019D01*
X0263124Y0187018D02*
X0262389Y0187018D01*
X0262285Y0188016D02*
X0262741Y0188016D01*
X0252270Y0182025D02*
X0251624Y0182025D01*
X0264402Y0175036D02*
X0265222Y0175036D01*
X0281095Y0193009D02*
X0282095Y0193009D01*
X0282095Y0194007D02*
X0281095Y0194007D01*
X0281095Y0195006D02*
X0282095Y0195006D01*
X0301642Y0194007D02*
X0307548Y0194007D01*
X0307604Y0194063D02*
X0304788Y0191247D01*
X0304788Y0187265D01*
X0307604Y0184449D01*
X0311586Y0184449D01*
X0314402Y0187265D01*
X0314402Y0191247D01*
X0311586Y0194063D01*
X0307604Y0194063D01*
X0306550Y0193009D02*
X0302640Y0193009D01*
X0303639Y0192010D02*
X0305551Y0192010D01*
X0304788Y0191012D02*
X0304402Y0191012D01*
X0304402Y0190013D02*
X0304788Y0190013D01*
X0304788Y0189015D02*
X0304402Y0189015D01*
X0304402Y0188016D02*
X0304788Y0188016D01*
X0305035Y0187018D02*
X0304155Y0187018D01*
X0303157Y0186019D02*
X0306034Y0186019D01*
X0307032Y0185021D02*
X0302158Y0185021D01*
X0312158Y0185021D02*
X0317258Y0185021D01*
X0316872Y0185181D02*
X0318639Y0184449D01*
X0320551Y0184449D01*
X0322318Y0185181D01*
X0323670Y0186533D01*
X0324402Y0188300D01*
X0324402Y0190212D01*
X0323670Y0191979D01*
X0322318Y0193331D01*
X0320551Y0194063D01*
X0318639Y0194063D01*
X0316872Y0193331D01*
X0315520Y0191979D01*
X0314788Y0190212D01*
X0314788Y0188300D01*
X0315520Y0186533D01*
X0316872Y0185181D01*
X0316034Y0186019D02*
X0313157Y0186019D01*
X0314155Y0187018D02*
X0315319Y0187018D01*
X0314905Y0188016D02*
X0314402Y0188016D01*
X0314402Y0189015D02*
X0314788Y0189015D01*
X0314788Y0190013D02*
X0314402Y0190013D01*
X0314402Y0191012D02*
X0315119Y0191012D01*
X0315551Y0192010D02*
X0313639Y0192010D01*
X0312640Y0193009D02*
X0316550Y0193009D01*
X0318505Y0194007D02*
X0311642Y0194007D01*
X0320686Y0194007D02*
X0328505Y0194007D01*
X0326550Y0193009D02*
X0322641Y0193009D01*
X0323639Y0192010D02*
X0325551Y0192010D01*
X0325119Y0191012D02*
X0324071Y0191012D01*
X0324402Y0190013D02*
X0324788Y0190013D01*
X0324788Y0189015D02*
X0324402Y0189015D01*
X0324285Y0188016D02*
X0324905Y0188016D01*
X0325319Y0187018D02*
X0323871Y0187018D01*
X0323157Y0186019D02*
X0326034Y0186019D01*
X0327258Y0185021D02*
X0321932Y0185021D01*
X0324488Y0153068D02*
X0282338Y0153068D01*
X0283337Y0152070D02*
X0323489Y0152070D01*
X0322491Y0151071D02*
X0284335Y0151071D01*
X0285334Y0150073D02*
X0321492Y0150073D01*
X0321288Y0149074D02*
X0286332Y0149074D01*
X0286902Y0148076D02*
X0321288Y0148076D01*
X0321288Y0147077D02*
X0286902Y0147077D01*
X0287521Y0146079D02*
X0321288Y0146079D01*
X0321288Y0145080D02*
X0287702Y0145080D01*
X0287702Y0144082D02*
X0321850Y0144082D01*
X0322848Y0143083D02*
X0287702Y0143083D01*
X0287702Y0142085D02*
X0323847Y0142085D01*
X0324845Y0141086D02*
X0287702Y0141086D01*
X0283288Y0136049D02*
X0283288Y0135504D01*
X0281902Y0134119D01*
X0281902Y0136049D01*
X0281937Y0136049D01*
X0282595Y0136707D01*
X0283254Y0136049D01*
X0283288Y0136049D01*
X0283209Y0136094D02*
X0281981Y0136094D01*
X0281902Y0135095D02*
X0282879Y0135095D01*
X0278288Y0135504D02*
X0278288Y0136049D01*
X0278254Y0136049D01*
X0277595Y0136707D01*
X0276937Y0136049D01*
X0276902Y0136049D01*
X0276902Y0134119D01*
X0278288Y0135504D01*
X0277879Y0135095D02*
X0276902Y0135095D01*
X0276981Y0136094D02*
X0278209Y0136094D01*
X0273209Y0136094D02*
X0272209Y0136094D01*
X0272879Y0135095D02*
X0235990Y0135095D01*
X0234991Y0134097D02*
X0271880Y0134097D01*
X0270245Y0136094D02*
X0269945Y0136094D01*
X0269945Y0137092D02*
X0270245Y0137092D01*
X0270245Y0138091D02*
X0269945Y0138091D01*
X0269945Y0139089D02*
X0270245Y0139089D01*
X0270245Y0140088D02*
X0269945Y0140088D01*
X0269945Y0141086D02*
X0270245Y0141086D01*
X0269945Y0141506D02*
X0267295Y0141506D01*
X0265245Y0141506D01*
X0264945Y0141506D01*
X0264945Y0141206D01*
X0260245Y0141206D01*
X0260245Y0135856D01*
X0261593Y0135856D01*
X0261974Y0135958D01*
X0262316Y0136156D01*
X0262595Y0136435D01*
X0262874Y0136156D01*
X0263216Y0135958D01*
X0263598Y0135856D01*
X0264945Y0135856D01*
X0264945Y0141206D01*
X0265245Y0141206D01*
X0265245Y0141506D01*
X0265245Y0146856D01*
X0266593Y0146856D01*
X0266974Y0146754D01*
X0267316Y0146556D01*
X0267595Y0146277D01*
X0267874Y0146556D01*
X0268216Y0146754D01*
X0268598Y0146856D01*
X0269945Y0146856D01*
X0269945Y0141506D01*
X0269945Y0142085D02*
X0270245Y0142085D01*
X0270245Y0143083D02*
X0269945Y0143083D01*
X0269945Y0144082D02*
X0270245Y0144082D01*
X0270245Y0145080D02*
X0269945Y0145080D01*
X0269945Y0146079D02*
X0270245Y0146079D01*
X0273218Y0147077D02*
X0247972Y0147077D01*
X0248216Y0146754D02*
X0247874Y0146556D01*
X0247595Y0146277D01*
X0247397Y0145935D01*
X0247295Y0145553D01*
X0247295Y0141506D01*
X0249945Y0141506D01*
X0249945Y0141206D01*
X0247295Y0141206D01*
X0247295Y0137158D01*
X0247397Y0136777D01*
X0247595Y0136435D01*
X0247874Y0136156D01*
X0248216Y0135958D01*
X0248598Y0135856D01*
X0249945Y0135856D01*
X0249945Y0141206D01*
X0250245Y0141206D01*
X0250245Y0135856D01*
X0251593Y0135856D01*
X0251974Y0135958D01*
X0252316Y0136156D01*
X0252595Y0136435D01*
X0252874Y0136156D01*
X0253216Y0135958D01*
X0253598Y0135856D01*
X0254945Y0135856D01*
X0254945Y0141206D01*
X0250245Y0141206D01*
X0250245Y0141506D01*
X0249945Y0141506D01*
X0249945Y0146856D01*
X0248598Y0146856D01*
X0248216Y0146754D01*
X0247480Y0146079D02*
X0246974Y0146079D01*
X0247295Y0145080D02*
X0245975Y0145080D01*
X0244977Y0144082D02*
X0247295Y0144082D01*
X0247295Y0143083D02*
X0243978Y0143083D01*
X0242980Y0142085D02*
X0247295Y0142085D01*
X0247295Y0141086D02*
X0241981Y0141086D01*
X0240983Y0140088D02*
X0247295Y0140088D01*
X0247295Y0139089D02*
X0239984Y0139089D01*
X0238985Y0138091D02*
X0247295Y0138091D01*
X0247313Y0137092D02*
X0237987Y0137092D01*
X0236988Y0136094D02*
X0247981Y0136094D01*
X0249945Y0136094D02*
X0250245Y0136094D01*
X0250245Y0137092D02*
X0249945Y0137092D01*
X0249945Y0138091D02*
X0250245Y0138091D01*
X0250245Y0139089D02*
X0249945Y0139089D01*
X0249945Y0140088D02*
X0250245Y0140088D01*
X0250245Y0141086D02*
X0249945Y0141086D01*
X0250245Y0141506D02*
X0252895Y0141506D01*
X0254945Y0141506D01*
X0254945Y0141206D01*
X0255245Y0141206D01*
X0255245Y0135856D01*
X0256593Y0135856D01*
X0256974Y0135958D01*
X0257316Y0136156D01*
X0257595Y0136435D01*
X0257874Y0136156D01*
X0258216Y0135958D01*
X0258598Y0135856D01*
X0259945Y0135856D01*
X0259945Y0141206D01*
X0255245Y0141206D01*
X0255245Y0141506D01*
X0254945Y0141506D01*
X0254945Y0146856D01*
X0253598Y0146856D01*
X0253216Y0146754D01*
X0252874Y0146556D01*
X0252595Y0146277D01*
X0252316Y0146556D01*
X0251974Y0146754D01*
X0251593Y0146856D01*
X0250245Y0146856D01*
X0250245Y0141506D01*
X0250245Y0142085D02*
X0249945Y0142085D01*
X0249945Y0143083D02*
X0250245Y0143083D01*
X0250245Y0144082D02*
X0249945Y0144082D01*
X0249945Y0145080D02*
X0250245Y0145080D01*
X0250245Y0146079D02*
X0249945Y0146079D01*
X0254945Y0146079D02*
X0255245Y0146079D01*
X0255245Y0146856D02*
X0255245Y0141506D01*
X0257895Y0141506D01*
X0259945Y0141506D01*
X0259945Y0141206D01*
X0260245Y0141206D01*
X0260245Y0141506D01*
X0259945Y0141506D01*
X0259945Y0146856D01*
X0258598Y0146856D01*
X0258216Y0146754D01*
X0257874Y0146556D01*
X0257595Y0146277D01*
X0257316Y0146556D01*
X0256974Y0146754D01*
X0256593Y0146856D01*
X0255245Y0146856D01*
X0255245Y0145080D02*
X0254945Y0145080D01*
X0254945Y0144082D02*
X0255245Y0144082D01*
X0255245Y0143083D02*
X0254945Y0143083D01*
X0254945Y0142085D02*
X0255245Y0142085D01*
X0255245Y0141086D02*
X0254945Y0141086D01*
X0254945Y0140088D02*
X0255245Y0140088D01*
X0255245Y0139089D02*
X0254945Y0139089D01*
X0254945Y0138091D02*
X0255245Y0138091D01*
X0255245Y0137092D02*
X0254945Y0137092D01*
X0254945Y0136094D02*
X0255245Y0136094D01*
X0257209Y0136094D02*
X0257981Y0136094D01*
X0259945Y0136094D02*
X0260245Y0136094D01*
X0260245Y0137092D02*
X0259945Y0137092D01*
X0259945Y0138091D02*
X0260245Y0138091D01*
X0260245Y0139089D02*
X0259945Y0139089D01*
X0259945Y0140088D02*
X0260245Y0140088D01*
X0260245Y0141086D02*
X0259945Y0141086D01*
X0260245Y0141506D02*
X0262895Y0141506D01*
X0264945Y0141506D01*
X0264945Y0146856D01*
X0263598Y0146856D01*
X0263216Y0146754D01*
X0262874Y0146556D01*
X0262595Y0146277D01*
X0262316Y0146556D01*
X0261974Y0146754D01*
X0261593Y0146856D01*
X0260245Y0146856D01*
X0260245Y0141506D01*
X0260245Y0142085D02*
X0259945Y0142085D01*
X0259945Y0143083D02*
X0260245Y0143083D01*
X0260245Y0144082D02*
X0259945Y0144082D01*
X0259945Y0145080D02*
X0260245Y0145080D01*
X0260245Y0146079D02*
X0259945Y0146079D01*
X0264945Y0146079D02*
X0265245Y0146079D01*
X0265245Y0145080D02*
X0264945Y0145080D01*
X0264945Y0144082D02*
X0265245Y0144082D01*
X0265245Y0143083D02*
X0264945Y0143083D01*
X0264945Y0142085D02*
X0265245Y0142085D01*
X0265245Y0141086D02*
X0264945Y0141086D01*
X0264945Y0140088D02*
X0265245Y0140088D01*
X0265245Y0139089D02*
X0264945Y0139089D01*
X0264945Y0138091D02*
X0265245Y0138091D01*
X0265245Y0137092D02*
X0264945Y0137092D01*
X0264945Y0136094D02*
X0265245Y0136094D01*
X0267209Y0136094D02*
X0267981Y0136094D01*
X0262981Y0136094D02*
X0262209Y0136094D01*
X0252981Y0136094D02*
X0252209Y0136094D01*
X0238882Y0133098D02*
X0233993Y0133098D01*
X0232994Y0132100D02*
X0237883Y0132100D01*
X0236885Y0131101D02*
X0231996Y0131101D01*
X0230997Y0130103D02*
X0235886Y0130103D01*
X0234888Y0129104D02*
X0229999Y0129104D01*
X0229000Y0128106D02*
X0233889Y0128106D01*
X0232891Y0127107D02*
X0228002Y0127107D01*
X0227003Y0126109D02*
X0231892Y0126109D01*
X0230894Y0125110D02*
X0226005Y0125110D01*
X0225006Y0124112D02*
X0229895Y0124112D01*
X0228897Y0123113D02*
X0224008Y0123113D01*
X0223009Y0122114D02*
X0227898Y0122114D01*
X0226900Y0121116D02*
X0222011Y0121116D01*
X0221012Y0120117D02*
X0225901Y0120117D01*
X0224903Y0119119D02*
X0220014Y0119119D01*
X0219015Y0118120D02*
X0223904Y0118120D01*
X0223064Y0117122D02*
X0218017Y0117122D01*
X0217018Y0116123D02*
X0223064Y0116123D01*
X0223064Y0115125D02*
X0216020Y0115125D01*
X0215021Y0114126D02*
X0223064Y0114126D01*
X0223064Y0113128D02*
X0214023Y0113128D01*
X0213024Y0112129D02*
X0223064Y0112129D01*
X0223064Y0111131D02*
X0212026Y0111131D01*
X0211027Y0110132D02*
X0223064Y0110132D01*
X0223064Y0109134D02*
X0210029Y0109134D01*
X0209030Y0108135D02*
X0223064Y0108135D01*
X0223003Y0107137D02*
X0187203Y0107137D01*
X0187203Y0106138D02*
X0222564Y0106138D01*
X0222564Y0105140D02*
X0187203Y0105140D01*
X0181762Y0103817D02*
X0181762Y0096089D01*
X0183595Y0094256D01*
X0191595Y0094256D01*
X0194902Y0094156D02*
X0246940Y0094156D01*
X0247938Y0095155D02*
X0235967Y0095155D01*
X0235861Y0095049D02*
X0236627Y0095814D01*
X0236627Y0100097D01*
X0235861Y0100863D01*
X0232906Y0100863D01*
X0232749Y0100954D01*
X0232367Y0101056D01*
X0231170Y0101056D01*
X0231170Y0097956D01*
X0231170Y0097956D01*
X0231170Y0101056D01*
X0229972Y0101056D01*
X0229595Y0100955D01*
X0229218Y0101056D01*
X0228020Y0101056D01*
X0226823Y0101056D01*
X0226446Y0100955D01*
X0226068Y0101056D01*
X0224871Y0101056D01*
X0224871Y0097956D01*
X0228020Y0097956D01*
X0228020Y0097956D01*
X0228020Y0101056D01*
X0228020Y0097956D01*
X0228020Y0097956D01*
X0225520Y0097956D01*
X0224871Y0097956D01*
X0224871Y0097956D01*
X0224871Y0097956D01*
X0224571Y0098256D01*
X0224871Y0098150D02*
X0224871Y0098150D01*
X0224871Y0097956D02*
X0224871Y0101056D01*
X0223673Y0101056D01*
X0223292Y0100954D01*
X0222950Y0100756D01*
X0222670Y0100477D01*
X0222473Y0100135D01*
X0222371Y0099753D01*
X0222371Y0097956D01*
X0224871Y0097956D01*
X0224871Y0094856D01*
X0226068Y0094856D01*
X0226446Y0094957D01*
X0226823Y0094856D01*
X0228020Y0094856D01*
X0228020Y0097956D01*
X0228020Y0097956D01*
X0228020Y0094856D01*
X0229218Y0094856D01*
X0229595Y0094957D01*
X0229972Y0094856D01*
X0231170Y0094856D01*
X0232367Y0094856D01*
X0232749Y0094958D01*
X0232906Y0095049D01*
X0235861Y0095049D01*
X0236627Y0096153D02*
X0248937Y0096153D01*
X0249935Y0097152D02*
X0236627Y0097152D01*
X0236627Y0098150D02*
X0250934Y0098150D01*
X0251932Y0099149D02*
X0236627Y0099149D01*
X0236577Y0100147D02*
X0255614Y0100147D01*
X0255834Y0102144D02*
X0236356Y0102144D01*
X0236627Y0103143D02*
X0255564Y0103143D01*
X0255564Y0104141D02*
X0236627Y0104141D01*
X0236627Y0105140D02*
X0255564Y0105140D01*
X0255564Y0106138D02*
X0236627Y0106138D01*
X0236187Y0107137D02*
X0256003Y0107137D01*
X0257871Y0104556D02*
X0261020Y0104556D01*
X0264170Y0104556D01*
X0267320Y0104556D01*
X0297295Y0104556D01*
X0298268Y0106138D02*
X0307016Y0106138D01*
X0308014Y0105140D02*
X0299267Y0105140D01*
X0300265Y0104141D02*
X0309013Y0104141D01*
X0310011Y0103143D02*
X0301264Y0103143D01*
X0302262Y0102144D02*
X0311010Y0102144D01*
X0312008Y0101146D02*
X0305211Y0101146D01*
X0306354Y0100147D02*
X0313007Y0100147D01*
X0314005Y0099149D02*
X0306784Y0099149D01*
X0306883Y0098150D02*
X0315004Y0098150D01*
X0316002Y0097152D02*
X0306697Y0097152D01*
X0306143Y0096153D02*
X0317001Y0096153D01*
X0317999Y0095155D02*
X0304701Y0095155D01*
X0303243Y0089164D02*
X0309119Y0089164D01*
X0309033Y0089077D02*
X0308835Y0088735D01*
X0308733Y0088353D01*
X0308733Y0083931D01*
X0312095Y0083931D01*
X0312095Y0082932D01*
X0308733Y0082932D01*
X0308733Y0078510D01*
X0308835Y0078128D01*
X0309033Y0077786D01*
X0309312Y0077507D01*
X0309654Y0077309D01*
X0310035Y0077207D01*
X0312095Y0077207D01*
X0312095Y0082931D01*
X0313095Y0082931D01*
X0313095Y0077207D01*
X0315155Y0077207D01*
X0315536Y0077309D01*
X0315878Y0077507D01*
X0316158Y0077786D01*
X0316355Y0078128D01*
X0316457Y0078510D01*
X0316457Y0082932D01*
X0313095Y0082932D01*
X0313095Y0083931D01*
X0316457Y0083931D01*
X0316457Y0088353D01*
X0316355Y0088735D01*
X0316158Y0089077D01*
X0315878Y0089356D01*
X0315536Y0089554D01*
X0315155Y0089656D01*
X0313095Y0089656D01*
X0313095Y0083932D01*
X0312095Y0083932D01*
X0312095Y0089656D01*
X0310035Y0089656D01*
X0309654Y0089554D01*
X0309312Y0089356D01*
X0309033Y0089077D01*
X0308733Y0088165D02*
X0303402Y0088165D01*
X0303402Y0087167D02*
X0308733Y0087167D01*
X0308733Y0086168D02*
X0303402Y0086168D01*
X0303402Y0085170D02*
X0308733Y0085170D01*
X0308733Y0084171D02*
X0303402Y0084171D01*
X0303402Y0083173D02*
X0312095Y0083173D01*
X0312095Y0084171D02*
X0313095Y0084171D01*
X0313095Y0083173D02*
X0324926Y0083173D01*
X0324926Y0084171D02*
X0316457Y0084171D01*
X0316457Y0085170D02*
X0324926Y0085170D01*
X0324926Y0086168D02*
X0316457Y0086168D01*
X0316457Y0087167D02*
X0324926Y0087167D01*
X0324926Y0088165D02*
X0316457Y0088165D01*
X0316071Y0089164D02*
X0325392Y0089164D01*
X0328595Y0083431D02*
X0328595Y0076256D01*
X0321595Y0069256D01*
X0301595Y0069256D01*
X0301595Y0088256D01*
X0291895Y0097956D01*
X0267320Y0097956D01*
X0264170Y0097956D02*
X0264170Y0093681D01*
X0266595Y0091256D01*
X0291595Y0091256D01*
X0294595Y0088256D01*
X0294595Y0083431D01*
X0290926Y0083173D02*
X0279095Y0083173D01*
X0279095Y0082174D02*
X0278095Y0082174D01*
X0278095Y0081176D02*
X0279095Y0081176D01*
X0279095Y0080177D02*
X0278095Y0080177D01*
X0278095Y0079178D02*
X0279095Y0079178D01*
X0279095Y0078180D02*
X0278095Y0078180D01*
X0274821Y0078180D02*
X0264264Y0078180D01*
X0264264Y0079178D02*
X0274733Y0079178D01*
X0274733Y0080177D02*
X0264264Y0080177D01*
X0264264Y0081176D02*
X0274733Y0081176D01*
X0274733Y0082174D02*
X0264264Y0082174D01*
X0264264Y0083173D02*
X0278095Y0083173D01*
X0274733Y0084171D02*
X0264264Y0084171D01*
X0264264Y0085170D02*
X0274733Y0085170D01*
X0274733Y0086168D02*
X0264264Y0086168D01*
X0264264Y0087167D02*
X0274733Y0087167D01*
X0274733Y0088165D02*
X0264264Y0088165D01*
X0263798Y0089164D02*
X0275119Y0089164D01*
X0282071Y0089164D02*
X0291132Y0089164D01*
X0290926Y0088165D02*
X0282457Y0088165D01*
X0282457Y0087167D02*
X0290926Y0087167D01*
X0290926Y0086168D02*
X0282457Y0086168D01*
X0282457Y0085170D02*
X0290926Y0085170D01*
X0290926Y0084171D02*
X0282457Y0084171D01*
X0282457Y0082174D02*
X0290926Y0082174D01*
X0290926Y0081176D02*
X0282457Y0081176D01*
X0282457Y0080177D02*
X0290926Y0080177D01*
X0290926Y0079178D02*
X0282457Y0079178D01*
X0282369Y0078180D02*
X0290926Y0078180D01*
X0298264Y0078180D02*
X0299788Y0078180D01*
X0299788Y0079178D02*
X0298264Y0079178D01*
X0298264Y0080177D02*
X0299788Y0080177D01*
X0299788Y0081176D02*
X0298264Y0081176D01*
X0298264Y0082174D02*
X0299788Y0082174D01*
X0299788Y0083173D02*
X0298264Y0083173D01*
X0298264Y0084171D02*
X0299788Y0084171D01*
X0299788Y0085170D02*
X0298264Y0085170D01*
X0298264Y0086168D02*
X0299788Y0086168D01*
X0299788Y0087167D02*
X0298264Y0087167D01*
X0298264Y0088165D02*
X0299130Y0088165D01*
X0298132Y0089164D02*
X0297798Y0089164D01*
X0297133Y0090162D02*
X0295245Y0090162D01*
X0296135Y0091161D02*
X0294246Y0091161D01*
X0295136Y0092159D02*
X0293247Y0092159D01*
X0294138Y0093158D02*
X0267249Y0093158D01*
X0266250Y0094156D02*
X0293139Y0094156D01*
X0292141Y0095155D02*
X0268967Y0095155D01*
X0263136Y0092159D02*
X0262827Y0092159D01*
X0262827Y0091161D02*
X0264135Y0091161D01*
X0265133Y0090162D02*
X0262827Y0090162D01*
X0259213Y0090162D02*
X0248057Y0090162D01*
X0247798Y0089164D02*
X0257392Y0089164D01*
X0256926Y0088165D02*
X0248264Y0088165D01*
X0248264Y0087167D02*
X0256926Y0087167D01*
X0256926Y0086168D02*
X0248264Y0086168D01*
X0248264Y0085170D02*
X0256926Y0085170D01*
X0256926Y0084171D02*
X0248264Y0084171D01*
X0248264Y0083173D02*
X0256926Y0083173D01*
X0256926Y0082174D02*
X0248264Y0082174D01*
X0248264Y0081176D02*
X0256926Y0081176D01*
X0256926Y0080177D02*
X0248264Y0080177D01*
X0248264Y0079178D02*
X0256926Y0079178D01*
X0256926Y0078180D02*
X0248264Y0078180D01*
X0240926Y0078180D02*
X0230369Y0078180D01*
X0230355Y0078128D02*
X0230457Y0078510D01*
X0230457Y0082932D01*
X0227095Y0082932D01*
X0227095Y0083931D01*
X0230457Y0083931D01*
X0230457Y0088353D01*
X0230355Y0088735D01*
X0230158Y0089077D01*
X0229878Y0089356D01*
X0229536Y0089554D01*
X0229155Y0089656D01*
X0227095Y0089656D01*
X0227095Y0083932D01*
X0226095Y0083932D01*
X0226095Y0089656D01*
X0224035Y0089656D01*
X0223654Y0089554D01*
X0223312Y0089356D01*
X0223033Y0089077D01*
X0222835Y0088735D01*
X0222733Y0088353D01*
X0222733Y0083931D01*
X0226095Y0083931D01*
X0226095Y0082932D01*
X0222733Y0082932D01*
X0222733Y0078510D01*
X0222835Y0078128D01*
X0223033Y0077786D01*
X0223312Y0077507D01*
X0223654Y0077309D01*
X0224035Y0077207D01*
X0226095Y0077207D01*
X0226095Y0082931D01*
X0227095Y0082931D01*
X0227095Y0077207D01*
X0229155Y0077207D01*
X0229536Y0077309D01*
X0229878Y0077507D01*
X0230158Y0077786D01*
X0230355Y0078128D01*
X0230457Y0079178D02*
X0240926Y0079178D01*
X0240926Y0080177D02*
X0230457Y0080177D01*
X0230457Y0081176D02*
X0240926Y0081176D01*
X0240926Y0082174D02*
X0230457Y0082174D01*
X0230457Y0084171D02*
X0240926Y0084171D01*
X0240926Y0083173D02*
X0227095Y0083173D01*
X0227095Y0084171D02*
X0226095Y0084171D01*
X0226095Y0083173D02*
X0200726Y0083173D01*
X0200902Y0084171D02*
X0222733Y0084171D01*
X0222733Y0085170D02*
X0200796Y0085170D01*
X0200360Y0086168D02*
X0203408Y0086168D01*
X0202008Y0087167D02*
X0199210Y0087167D01*
X0196662Y0087449D02*
X0195722Y0087060D01*
X0194792Y0086129D01*
X0194764Y0086063D01*
X0186344Y0086063D01*
X0184958Y0087449D01*
X0196662Y0087449D01*
X0195980Y0087167D02*
X0185240Y0087167D01*
X0186239Y0086168D02*
X0194830Y0086168D01*
X0197595Y0084256D02*
X0185595Y0084256D01*
X0175463Y0094388D01*
X0175463Y0103817D01*
X0178612Y0103817D02*
X0178612Y0095239D01*
X0184595Y0089256D01*
X0204595Y0089256D01*
X0207902Y0089164D02*
X0223119Y0089164D01*
X0222733Y0088165D02*
X0207723Y0088165D01*
X0207183Y0087167D02*
X0222733Y0087167D01*
X0222733Y0086168D02*
X0205782Y0086168D01*
X0207192Y0082174D02*
X0222733Y0082174D01*
X0222733Y0081176D02*
X0208352Y0081176D01*
X0208793Y0080177D02*
X0222733Y0080177D01*
X0222733Y0079178D02*
X0208902Y0079178D01*
X0208729Y0078180D02*
X0222821Y0078180D01*
X0226095Y0078180D02*
X0227095Y0078180D01*
X0227095Y0079178D02*
X0226095Y0079178D01*
X0226095Y0080177D02*
X0227095Y0080177D01*
X0227095Y0081176D02*
X0226095Y0081176D01*
X0226095Y0082174D02*
X0227095Y0082174D01*
X0227095Y0085170D02*
X0226095Y0085170D01*
X0226095Y0086168D02*
X0227095Y0086168D01*
X0227095Y0087167D02*
X0226095Y0087167D01*
X0226095Y0088165D02*
X0227095Y0088165D01*
X0227095Y0089164D02*
X0226095Y0089164D01*
X0230071Y0089164D02*
X0241392Y0089164D01*
X0240926Y0088165D02*
X0230457Y0088165D01*
X0230457Y0087167D02*
X0240926Y0087167D01*
X0240926Y0086168D02*
X0230457Y0086168D01*
X0230457Y0085170D02*
X0240926Y0085170D01*
X0244595Y0083431D02*
X0244595Y0089256D01*
X0253295Y0097956D01*
X0257871Y0097956D01*
X0261020Y0097956D02*
X0261020Y0084006D01*
X0260595Y0083431D01*
X0259213Y0091161D02*
X0249055Y0091161D01*
X0250054Y0092159D02*
X0259213Y0092159D01*
X0259213Y0093158D02*
X0251052Y0093158D01*
X0252051Y0094156D02*
X0259213Y0094156D01*
X0256223Y0095155D02*
X0253049Y0095155D01*
X0245941Y0093158D02*
X0194720Y0093158D01*
X0194175Y0092159D02*
X0202962Y0092159D01*
X0201823Y0091161D02*
X0192764Y0091161D01*
X0190662Y0091063D02*
X0185344Y0091063D01*
X0183958Y0092449D01*
X0188764Y0092449D01*
X0188792Y0092383D01*
X0189722Y0091452D01*
X0190662Y0091063D01*
X0190426Y0091161D02*
X0185246Y0091161D01*
X0184247Y0092159D02*
X0189015Y0092159D01*
X0188816Y0096153D02*
X0184253Y0096153D01*
X0183569Y0097152D02*
X0189944Y0097152D01*
X0193246Y0097152D02*
X0222371Y0097152D01*
X0222371Y0097956D02*
X0222371Y0096158D01*
X0222473Y0095777D01*
X0222670Y0095435D01*
X0222950Y0095156D01*
X0223292Y0094958D01*
X0223673Y0094856D01*
X0224871Y0094856D01*
X0224871Y0097956D01*
X0224871Y0097956D01*
X0224871Y0097956D01*
X0222371Y0097956D01*
X0222371Y0098150D02*
X0183569Y0098150D01*
X0183569Y0099149D02*
X0222371Y0099149D01*
X0222480Y0100147D02*
X0187028Y0100147D01*
X0194375Y0096153D02*
X0222372Y0096153D01*
X0222951Y0095155D02*
X0194802Y0095155D01*
X0206228Y0092159D02*
X0244943Y0092159D01*
X0243944Y0091161D02*
X0207367Y0091161D01*
X0207799Y0090162D02*
X0242946Y0090162D01*
X0231170Y0094856D02*
X0231170Y0097956D01*
X0231170Y0097956D01*
X0228020Y0097956D01*
X0228020Y0097956D01*
X0228670Y0097956D01*
X0231170Y0097956D01*
X0231170Y0097956D01*
X0231170Y0094856D01*
X0231170Y0095155D02*
X0231170Y0095155D01*
X0231170Y0096153D02*
X0231170Y0096153D01*
X0231170Y0097152D02*
X0231170Y0097152D01*
X0231170Y0098150D02*
X0231170Y0098150D01*
X0231170Y0099149D02*
X0231170Y0099149D01*
X0231170Y0100147D02*
X0231170Y0100147D01*
X0228020Y0100147D02*
X0228020Y0100147D01*
X0228020Y0099149D02*
X0228020Y0099149D01*
X0228020Y0098150D02*
X0228020Y0098150D01*
X0228020Y0097152D02*
X0228020Y0097152D01*
X0228020Y0096153D02*
X0228020Y0096153D01*
X0228020Y0095155D02*
X0228020Y0095155D01*
X0224871Y0095155D02*
X0224871Y0095155D01*
X0224871Y0096153D02*
X0224871Y0096153D01*
X0224871Y0097152D02*
X0224871Y0097152D01*
X0224871Y0099149D02*
X0224871Y0099149D01*
X0224871Y0100147D02*
X0224871Y0100147D01*
X0232977Y0108135D02*
X0276019Y0108135D01*
X0277017Y0107137D02*
X0269187Y0107137D01*
X0267973Y0112129D02*
X0267217Y0112129D01*
X0262973Y0112129D02*
X0262217Y0112129D01*
X0257973Y0112129D02*
X0257217Y0112129D01*
X0252973Y0112129D02*
X0252217Y0112129D01*
X0272217Y0112129D02*
X0272973Y0112129D01*
X0282217Y0112129D02*
X0282973Y0112129D01*
X0287217Y0112129D02*
X0315176Y0112129D01*
X0314178Y0113128D02*
X0287702Y0113128D01*
X0287702Y0114126D02*
X0313179Y0114126D01*
X0317275Y0117122D02*
X0321288Y0117122D01*
X0321288Y0118120D02*
X0316276Y0118120D01*
X0315278Y0119119D02*
X0321288Y0119119D01*
X0321288Y0116123D02*
X0318273Y0116123D01*
X0319272Y0115125D02*
X0321288Y0115125D01*
X0321805Y0114126D02*
X0320270Y0114126D01*
X0321269Y0113128D02*
X0322804Y0113128D01*
X0322267Y0112129D02*
X0323802Y0112129D01*
X0323266Y0111131D02*
X0324801Y0111131D01*
X0332387Y0113128D02*
X0384088Y0113128D01*
X0384088Y0114126D02*
X0380361Y0114126D01*
X0381627Y0115125D02*
X0384088Y0115125D01*
X0384088Y0116123D02*
X0382317Y0116123D01*
X0382730Y0117122D02*
X0384088Y0117122D01*
X0384088Y0118120D02*
X0382792Y0118120D01*
X0382777Y0119119D02*
X0384088Y0119119D01*
X0383188Y0120117D02*
X0382364Y0120117D01*
X0382190Y0121116D02*
X0381740Y0121116D01*
X0381191Y0122114D02*
X0380634Y0122114D01*
X0378195Y0125110D02*
X0284995Y0125110D01*
X0282595Y0146004D02*
X0281937Y0146663D01*
X0281902Y0146663D01*
X0281902Y0148393D01*
X0283288Y0147007D01*
X0283288Y0146663D01*
X0283254Y0146663D01*
X0282595Y0146004D01*
X0282521Y0146079D02*
X0282670Y0146079D01*
X0283218Y0147077D02*
X0281902Y0147077D01*
X0281902Y0148076D02*
X0282220Y0148076D01*
X0278288Y0147007D02*
X0276902Y0148393D01*
X0276902Y0146663D01*
X0276937Y0146663D01*
X0277595Y0146004D01*
X0278254Y0146663D01*
X0278288Y0146663D01*
X0278288Y0147007D01*
X0278218Y0147077D02*
X0276902Y0147077D01*
X0276902Y0148076D02*
X0277220Y0148076D01*
X0277521Y0146079D02*
X0277670Y0146079D01*
X0281340Y0154067D02*
X0368294Y0154067D01*
X0369655Y0153068D02*
X0330702Y0153068D01*
X0374489Y0153068D02*
X0375489Y0153068D01*
X0375489Y0154067D02*
X0374489Y0154067D01*
X0374489Y0155065D02*
X0375489Y0155065D01*
X0376409Y0179988D02*
X0376409Y0179988D01*
X0410208Y0187018D02*
X0415595Y0187018D01*
X0415595Y0188016D02*
X0411932Y0188016D01*
X0412930Y0189015D02*
X0415595Y0189015D01*
X0415595Y0190013D02*
X0413893Y0190013D01*
X0414469Y0191012D02*
X0415595Y0191012D01*
X0415595Y0192010D02*
X0415046Y0192010D01*
X0415396Y0193009D02*
X0415595Y0193009D01*
X0397757Y0202994D02*
X0044434Y0202994D01*
X0045183Y0201995D02*
X0397007Y0201995D01*
X0396431Y0200997D02*
X0045760Y0200997D01*
X0043435Y0203992D02*
X0398755Y0203992D01*
X0400110Y0204991D02*
X0042080Y0204991D01*
X0040093Y0205989D02*
X0402098Y0205989D01*
X0233232Y0142449D02*
X0231872Y0141088D01*
X0186890Y0141088D01*
X0186437Y0141541D01*
X0183569Y0141541D01*
X0183569Y0141674D01*
X0184344Y0142449D01*
X0233232Y0142449D01*
X0232868Y0142085D02*
X0183980Y0142085D01*
X0181788Y0145004D02*
X0179955Y0143171D01*
X0179955Y0141541D01*
X0177087Y0141541D01*
X0177038Y0141492D01*
X0176988Y0141541D01*
X0174120Y0141541D01*
X0174120Y0143225D01*
X0176344Y0145449D01*
X0182232Y0145449D01*
X0181788Y0145004D01*
X0181864Y0145080D02*
X0175975Y0145080D01*
X0174977Y0144082D02*
X0180865Y0144082D01*
X0179955Y0143083D02*
X0174120Y0143083D01*
X0174120Y0142085D02*
X0179955Y0142085D01*
X0187203Y0137092D02*
X0201912Y0137092D01*
X0199377Y0136094D02*
X0187203Y0136094D01*
X0187203Y0135095D02*
X0198379Y0135095D01*
X0197380Y0134097D02*
X0187203Y0134097D01*
X0190620Y0128423D02*
X0197428Y0128423D01*
X0200595Y0125256D01*
X0206457Y0125256D01*
X0206474Y0125239D01*
X0206383Y0129872D02*
X0201037Y0129872D01*
X0201037Y0128584D01*
X0201139Y0128203D01*
X0201337Y0127861D01*
X0201616Y0127582D01*
X0201764Y0127496D01*
X0201338Y0127069D01*
X0198401Y0130006D01*
X0201275Y0132880D01*
X0201314Y0132880D01*
X0201764Y0132430D01*
X0201616Y0132344D01*
X0201337Y0132065D01*
X0201139Y0131723D01*
X0201037Y0131342D01*
X0201037Y0130054D01*
X0206383Y0130054D01*
X0206383Y0129872D01*
X0201037Y0130103D02*
X0198497Y0130103D01*
X0199303Y0129104D02*
X0201037Y0129104D01*
X0201195Y0128106D02*
X0200301Y0128106D01*
X0201300Y0127107D02*
X0201376Y0127107D01*
X0201037Y0131101D02*
X0199496Y0131101D01*
X0200494Y0132100D02*
X0201371Y0132100D01*
X0190771Y0125256D02*
X0190620Y0125273D01*
X0190656Y0122256D02*
X0190620Y0122124D01*
X0195073Y0122124D01*
X0195073Y0122940D01*
X0195588Y0122425D01*
X0195588Y0122087D01*
X0195073Y0121572D01*
X0195073Y0122124D01*
X0190620Y0122124D01*
X0190620Y0122124D01*
X0190620Y0122123D02*
X0190620Y0122123D01*
X0190620Y0121265D01*
X0190620Y0121265D01*
X0190620Y0122123D01*
X0190620Y0122114D02*
X0190620Y0122114D01*
X0186168Y0122114D02*
X0161416Y0122114D01*
X0161416Y0121116D02*
X0186168Y0121116D01*
X0186360Y0120117D02*
X0161608Y0120117D01*
X0161608Y0119119D02*
X0186360Y0119119D01*
X0186360Y0118120D02*
X0161608Y0118120D01*
X0161416Y0117122D02*
X0186199Y0117122D01*
X0186168Y0116123D02*
X0161416Y0116123D01*
X0161416Y0115125D02*
X0186168Y0115125D01*
X0186348Y0114126D02*
X0161416Y0114126D01*
X0161416Y0113128D02*
X0186360Y0113128D01*
X0186360Y0112129D02*
X0161416Y0112129D01*
X0161397Y0111131D02*
X0186379Y0111131D01*
X0186360Y0110132D02*
X0161416Y0110132D01*
X0161416Y0109134D02*
X0186360Y0109134D01*
X0186360Y0108135D02*
X0161416Y0108135D01*
X0160573Y0107234D02*
X0158963Y0107234D01*
X0158963Y0093444D01*
X0161057Y0091349D01*
X0161057Y0099838D01*
X0160573Y0100322D01*
X0160573Y0107234D01*
X0160573Y0107137D02*
X0158963Y0107137D01*
X0158963Y0106138D02*
X0160573Y0106138D01*
X0160573Y0105140D02*
X0158963Y0105140D01*
X0158963Y0104141D02*
X0160573Y0104141D01*
X0160573Y0103143D02*
X0158963Y0103143D01*
X0158963Y0102144D02*
X0160573Y0102144D01*
X0160573Y0101146D02*
X0158963Y0101146D01*
X0158963Y0100147D02*
X0160748Y0100147D01*
X0161057Y0099149D02*
X0158963Y0099149D01*
X0158963Y0098150D02*
X0161057Y0098150D01*
X0161057Y0097152D02*
X0158963Y0097152D01*
X0158963Y0096153D02*
X0161057Y0096153D01*
X0161057Y0095155D02*
X0158963Y0095155D01*
X0158963Y0094156D02*
X0161057Y0094156D01*
X0161057Y0093158D02*
X0159249Y0093158D01*
X0160247Y0092159D02*
X0161057Y0092159D01*
X0162864Y0090987D02*
X0187595Y0066256D01*
X0287595Y0066256D01*
X0299788Y0071190D02*
X0213836Y0071190D01*
X0215205Y0072189D02*
X0299788Y0072189D01*
X0299788Y0073187D02*
X0215732Y0073187D01*
X0215902Y0074186D02*
X0299788Y0074186D01*
X0299788Y0075184D02*
X0215790Y0075184D01*
X0215345Y0076183D02*
X0299788Y0076183D01*
X0299788Y0077181D02*
X0214174Y0077181D01*
X0211016Y0077181D02*
X0208198Y0077181D01*
X0206818Y0076183D02*
X0209845Y0076183D01*
X0212595Y0074256D02*
X0187595Y0074256D01*
X0169164Y0092687D01*
X0169164Y0103817D01*
X0172313Y0103817D02*
X0172313Y0093538D01*
X0186595Y0079256D01*
X0205595Y0079256D01*
X0204372Y0076183D02*
X0188224Y0076183D01*
X0188344Y0076063D02*
X0186958Y0077449D01*
X0202764Y0077449D01*
X0202792Y0077383D01*
X0203722Y0076452D01*
X0204662Y0076063D01*
X0188344Y0076063D01*
X0187225Y0077181D02*
X0202993Y0077181D01*
X0202838Y0081176D02*
X0198800Y0081176D01*
X0200190Y0082174D02*
X0203998Y0082174D01*
X0196662Y0081063D02*
X0187344Y0081063D01*
X0185958Y0082449D01*
X0194764Y0082449D01*
X0194792Y0082383D01*
X0195722Y0081452D01*
X0196662Y0081063D01*
X0196390Y0081176D02*
X0187231Y0081176D01*
X0186233Y0082174D02*
X0195000Y0082174D01*
X0187958Y0072449D02*
X0189344Y0071063D01*
X0211662Y0071063D01*
X0210722Y0071452D01*
X0209792Y0072383D01*
X0209764Y0072449D01*
X0187958Y0072449D01*
X0188218Y0072189D02*
X0209985Y0072189D01*
X0211354Y0071190D02*
X0189216Y0071190D01*
X0188595Y0069256D02*
X0301595Y0069256D01*
X0303402Y0071190D02*
X0320974Y0071190D01*
X0321973Y0072189D02*
X0303402Y0072189D01*
X0303402Y0073187D02*
X0322971Y0073187D01*
X0323970Y0074186D02*
X0303402Y0074186D01*
X0303402Y0075184D02*
X0324968Y0075184D01*
X0325967Y0076183D02*
X0303402Y0076183D01*
X0303402Y0077181D02*
X0326788Y0077181D01*
X0324926Y0078180D02*
X0316369Y0078180D01*
X0316457Y0079178D02*
X0324926Y0079178D01*
X0324926Y0080177D02*
X0316457Y0080177D01*
X0316457Y0081176D02*
X0324926Y0081176D01*
X0324926Y0082174D02*
X0316457Y0082174D01*
X0313095Y0082174D02*
X0312095Y0082174D01*
X0312095Y0081176D02*
X0313095Y0081176D01*
X0313095Y0080177D02*
X0312095Y0080177D01*
X0312095Y0079178D02*
X0313095Y0079178D01*
X0313095Y0078180D02*
X0312095Y0078180D01*
X0308821Y0078180D02*
X0303402Y0078180D01*
X0303402Y0079178D02*
X0308733Y0079178D01*
X0308733Y0080177D02*
X0303402Y0080177D01*
X0303402Y0081176D02*
X0308733Y0081176D01*
X0308733Y0082174D02*
X0303402Y0082174D01*
X0312095Y0085170D02*
X0313095Y0085170D01*
X0313095Y0086168D02*
X0312095Y0086168D01*
X0312095Y0087167D02*
X0313095Y0087167D01*
X0313095Y0088165D02*
X0312095Y0088165D01*
X0312095Y0089164D02*
X0313095Y0089164D01*
X0326085Y0071190D02*
X0368055Y0071190D01*
X0367538Y0070192D02*
X0325087Y0070192D01*
X0324088Y0069193D02*
X0367186Y0069193D01*
X0367186Y0068195D02*
X0323090Y0068195D01*
X0308789Y0056213D02*
X0298264Y0056213D01*
X0298264Y0055214D02*
X0308733Y0055214D01*
X0308733Y0054216D02*
X0298264Y0054216D01*
X0298264Y0053217D02*
X0308733Y0053217D01*
X0308733Y0052219D02*
X0298264Y0052219D01*
X0298264Y0051220D02*
X0312095Y0051220D01*
X0312095Y0050222D02*
X0313095Y0050222D01*
X0313095Y0049223D02*
X0312095Y0049223D01*
X0312095Y0048225D02*
X0313095Y0048225D01*
X0313095Y0047226D02*
X0312095Y0047226D01*
X0312095Y0046228D02*
X0313095Y0046228D01*
X0313095Y0045229D02*
X0312095Y0045229D01*
X0309238Y0045229D02*
X0297679Y0045229D01*
X0298264Y0046228D02*
X0308733Y0046228D01*
X0308733Y0047226D02*
X0298264Y0047226D01*
X0298264Y0048225D02*
X0308733Y0048225D01*
X0308733Y0049223D02*
X0298264Y0049223D01*
X0298264Y0050222D02*
X0308733Y0050222D01*
X0290926Y0050222D02*
X0282457Y0050222D01*
X0282457Y0049223D02*
X0290926Y0049223D01*
X0290926Y0048225D02*
X0282457Y0048225D01*
X0282457Y0047226D02*
X0290926Y0047226D01*
X0290926Y0046228D02*
X0282457Y0046228D01*
X0281952Y0045229D02*
X0291511Y0045229D01*
X0290926Y0052219D02*
X0282457Y0052219D01*
X0282457Y0053217D02*
X0290926Y0053217D01*
X0290926Y0054216D02*
X0282457Y0054216D01*
X0282457Y0055214D02*
X0290926Y0055214D01*
X0290926Y0056213D02*
X0282401Y0056213D01*
X0275687Y0057211D02*
X0262402Y0057211D01*
X0264264Y0056213D02*
X0274789Y0056213D01*
X0274733Y0055214D02*
X0264264Y0055214D01*
X0264264Y0054216D02*
X0274733Y0054216D01*
X0274733Y0053217D02*
X0264264Y0053217D01*
X0264264Y0052219D02*
X0274733Y0052219D01*
X0274733Y0050222D02*
X0264264Y0050222D01*
X0264264Y0051220D02*
X0278095Y0051220D01*
X0278095Y0050222D02*
X0279095Y0050222D01*
X0279095Y0049223D02*
X0278095Y0049223D01*
X0278095Y0048225D02*
X0279095Y0048225D01*
X0279095Y0047226D02*
X0278095Y0047226D01*
X0278095Y0046228D02*
X0279095Y0046228D01*
X0279095Y0045229D02*
X0278095Y0045229D01*
X0275238Y0045229D02*
X0263679Y0045229D01*
X0264264Y0046228D02*
X0274733Y0046228D01*
X0274733Y0047226D02*
X0264264Y0047226D01*
X0264264Y0048225D02*
X0274733Y0048225D01*
X0274733Y0049223D02*
X0264264Y0049223D01*
X0256926Y0052219D02*
X0248264Y0052219D01*
X0248264Y0053217D02*
X0256926Y0053217D01*
X0256926Y0054216D02*
X0248264Y0054216D01*
X0248264Y0055214D02*
X0256926Y0055214D01*
X0256926Y0056213D02*
X0248264Y0056213D01*
X0246402Y0057211D02*
X0258788Y0057211D01*
X0258788Y0058210D02*
X0246402Y0058210D01*
X0246198Y0059208D02*
X0258087Y0059208D01*
X0257089Y0060207D02*
X0245200Y0060207D01*
X0244201Y0061205D02*
X0256090Y0061205D01*
X0256595Y0063256D02*
X0186595Y0063256D01*
X0157156Y0092695D01*
X0157156Y0109525D01*
X0155349Y0107234D02*
X0153662Y0107234D01*
X0152896Y0107999D01*
X0152896Y0110868D01*
X0152763Y0110868D01*
X0151402Y0109507D01*
X0151402Y0097004D01*
X0155349Y0093058D01*
X0155349Y0107234D01*
X0155349Y0107137D02*
X0151402Y0107137D01*
X0151402Y0108135D02*
X0152896Y0108135D01*
X0152896Y0109134D02*
X0151402Y0109134D01*
X0152027Y0110132D02*
X0152896Y0110132D01*
X0152014Y0112675D02*
X0157156Y0112675D01*
X0157156Y0118974D02*
X0157156Y0118974D01*
X0157156Y0119119D02*
X0157156Y0119119D01*
X0161416Y0123113D02*
X0186168Y0123113D01*
X0195073Y0122114D02*
X0195588Y0122114D01*
X0199602Y0123113D02*
X0201633Y0123113D01*
X0190620Y0116123D02*
X0190620Y0116123D01*
X0190620Y0115125D02*
X0190620Y0115125D01*
X0166014Y0103817D02*
X0166014Y0091837D01*
X0188595Y0069256D01*
X0179095Y0064201D02*
X0175738Y0064201D01*
X0175902Y0065199D02*
X0178096Y0065199D01*
X0177098Y0066198D02*
X0175785Y0066198D01*
X0176099Y0067196D02*
X0175332Y0067196D01*
X0175101Y0068195D02*
X0174142Y0068195D01*
X0174102Y0069193D02*
X0152776Y0069193D01*
X0152776Y0068195D02*
X0161049Y0068195D01*
X0159859Y0067196D02*
X0152776Y0067196D01*
X0152776Y0070192D02*
X0173104Y0070192D01*
X0172105Y0071190D02*
X0152219Y0071190D01*
X0145995Y0071190D02*
X0141468Y0071190D01*
X0141367Y0071292D02*
X0141025Y0071489D01*
X0140643Y0071591D01*
X0138583Y0071591D01*
X0138583Y0065867D01*
X0137583Y0065867D01*
X0137583Y0064867D01*
X0134221Y0064867D01*
X0134221Y0060445D01*
X0134323Y0060064D01*
X0134521Y0059721D01*
X0134800Y0059442D01*
X0135142Y0059245D01*
X0135524Y0059143D01*
X0137583Y0059143D01*
X0137583Y0064867D01*
X0138583Y0064867D01*
X0138583Y0059143D01*
X0140643Y0059143D01*
X0141025Y0059245D01*
X0141367Y0059442D01*
X0141646Y0059721D01*
X0141843Y0060064D01*
X0141946Y0060445D01*
X0141946Y0064867D01*
X0138583Y0064867D01*
X0138583Y0065867D01*
X0141946Y0065867D01*
X0141946Y0070289D01*
X0141843Y0070670D01*
X0141646Y0071012D01*
X0141367Y0071292D01*
X0141946Y0070192D02*
X0145438Y0070192D01*
X0145438Y0069193D02*
X0141946Y0069193D01*
X0141946Y0068195D02*
X0145438Y0068195D01*
X0145438Y0067196D02*
X0141946Y0067196D01*
X0141946Y0066198D02*
X0145438Y0066198D01*
X0145438Y0065199D02*
X0138583Y0065199D01*
X0138583Y0064201D02*
X0137583Y0064201D01*
X0137583Y0065199D02*
X0115823Y0065199D01*
X0115823Y0064201D02*
X0134221Y0064201D01*
X0134221Y0063202D02*
X0115823Y0063202D01*
X0115823Y0062204D02*
X0134221Y0062204D01*
X0134221Y0061205D02*
X0115823Y0061205D01*
X0115823Y0060207D02*
X0134285Y0060207D01*
X0135278Y0059208D02*
X0115823Y0059208D01*
X0115823Y0058210D02*
X0160788Y0058210D01*
X0160788Y0059208D02*
X0140888Y0059208D01*
X0141882Y0060207D02*
X0145438Y0060207D01*
X0145438Y0061205D02*
X0141946Y0061205D01*
X0141946Y0062204D02*
X0145438Y0062204D01*
X0145438Y0063202D02*
X0141946Y0063202D01*
X0141946Y0064201D02*
X0145438Y0064201D01*
X0149107Y0065367D02*
X0163484Y0065367D01*
X0162595Y0065256D01*
X0162595Y0054516D01*
X0163855Y0053256D01*
X0159989Y0055214D02*
X0115418Y0055214D01*
X0115823Y0056213D02*
X0159989Y0056213D01*
X0160450Y0057211D02*
X0115823Y0057211D01*
X0115823Y0066198D02*
X0134221Y0066198D01*
X0134221Y0065867D02*
X0137583Y0065867D01*
X0137583Y0071591D01*
X0135524Y0071591D01*
X0135142Y0071489D01*
X0134800Y0071292D01*
X0134521Y0071012D01*
X0134323Y0070670D01*
X0134221Y0070289D01*
X0134221Y0065867D01*
X0134221Y0067196D02*
X0115823Y0067196D01*
X0115823Y0068195D02*
X0134221Y0068195D01*
X0134221Y0069193D02*
X0115823Y0069193D01*
X0115823Y0070192D02*
X0134221Y0070192D01*
X0134699Y0071190D02*
X0115115Y0071190D01*
X0112102Y0072189D02*
X0171107Y0072189D01*
X0170108Y0073187D02*
X0112102Y0073187D01*
X0112102Y0074186D02*
X0169109Y0074186D01*
X0168111Y0075184D02*
X0112102Y0075184D01*
X0122418Y0081176D02*
X0127439Y0081176D01*
X0137583Y0071190D02*
X0138583Y0071190D01*
X0138583Y0070192D02*
X0137583Y0070192D01*
X0137583Y0069193D02*
X0138583Y0069193D01*
X0138583Y0068195D02*
X0137583Y0068195D01*
X0137583Y0067196D02*
X0138583Y0067196D01*
X0138583Y0066198D02*
X0137583Y0066198D01*
X0137583Y0063202D02*
X0138583Y0063202D01*
X0138583Y0062204D02*
X0137583Y0062204D01*
X0137583Y0061205D02*
X0138583Y0061205D01*
X0138583Y0060207D02*
X0137583Y0060207D01*
X0137583Y0059208D02*
X0138583Y0059208D01*
X0149107Y0065367D02*
X0149218Y0065256D01*
X0152776Y0063202D02*
X0159972Y0063202D01*
X0160788Y0062204D02*
X0152776Y0062204D01*
X0152776Y0061205D02*
X0160788Y0061205D01*
X0160788Y0060207D02*
X0152776Y0060207D01*
X0164402Y0060207D02*
X0170788Y0060207D01*
X0170788Y0061205D02*
X0164402Y0061205D01*
X0164402Y0062204D02*
X0170788Y0062204D01*
X0169972Y0063202D02*
X0165218Y0063202D01*
X0165738Y0064201D02*
X0169453Y0064201D01*
X0169288Y0065199D02*
X0165902Y0065199D01*
X0165785Y0066198D02*
X0169406Y0066198D01*
X0169859Y0067196D02*
X0165332Y0067196D01*
X0164142Y0068195D02*
X0171049Y0068195D01*
X0172595Y0065256D02*
X0172595Y0054516D01*
X0171335Y0053256D01*
X0168008Y0049223D02*
X0167183Y0049223D01*
X0167260Y0057211D02*
X0167930Y0057211D01*
X0170788Y0058210D02*
X0164402Y0058210D01*
X0164402Y0059208D02*
X0170788Y0059208D01*
X0174402Y0059208D02*
X0184087Y0059208D01*
X0183089Y0060207D02*
X0174402Y0060207D01*
X0174402Y0061205D02*
X0182090Y0061205D01*
X0181092Y0062204D02*
X0174402Y0062204D01*
X0175218Y0063202D02*
X0180093Y0063202D01*
X0162864Y0090987D02*
X0162864Y0103817D01*
X0155349Y0104141D02*
X0151402Y0104141D01*
X0151402Y0103143D02*
X0155349Y0103143D01*
X0155349Y0102144D02*
X0151402Y0102144D01*
X0151402Y0101146D02*
X0155349Y0101146D01*
X0155349Y0100147D02*
X0151402Y0100147D01*
X0151402Y0099149D02*
X0155349Y0099149D01*
X0155349Y0098150D02*
X0151402Y0098150D01*
X0151402Y0097152D02*
X0155349Y0097152D01*
X0155349Y0096153D02*
X0152253Y0096153D01*
X0153252Y0095155D02*
X0155349Y0095155D01*
X0155349Y0094156D02*
X0154250Y0094156D01*
X0155249Y0093158D02*
X0155349Y0093158D01*
X0155349Y0105140D02*
X0151402Y0105140D01*
X0151402Y0106138D02*
X0155349Y0106138D01*
X0126088Y0102144D02*
X0110394Y0102144D01*
X0110394Y0101146D02*
X0126088Y0101146D01*
X0126088Y0100147D02*
X0110394Y0100147D01*
X0109861Y0099149D02*
X0126088Y0099149D01*
X0126088Y0098150D02*
X0102246Y0098150D01*
X0102108Y0099149D02*
X0102809Y0099149D01*
X0103245Y0097152D02*
X0125841Y0097152D01*
X0125408Y0096153D02*
X0110243Y0096153D01*
X0111242Y0095155D02*
X0125307Y0095155D01*
X0125492Y0094156D02*
X0112240Y0094156D01*
X0113239Y0093158D02*
X0126043Y0093158D01*
X0106835Y0099149D02*
X0105835Y0099149D01*
X0105835Y0100147D02*
X0106835Y0100147D01*
X0106835Y0101146D02*
X0105835Y0101146D01*
X0105835Y0102144D02*
X0106835Y0102144D01*
X0111938Y0111131D02*
X0112938Y0111131D01*
X0112938Y0112129D02*
X0111938Y0112129D01*
X0111938Y0113128D02*
X0112938Y0113128D01*
X0112938Y0114126D02*
X0111938Y0114126D01*
X0111938Y0115125D02*
X0112938Y0115125D01*
X0112938Y0116123D02*
X0111938Y0116123D01*
X0118662Y0115125D02*
X0126088Y0115125D01*
X0126088Y0114126D02*
X0118662Y0114126D01*
X0118662Y0113128D02*
X0126088Y0113128D01*
X0126088Y0112129D02*
X0118607Y0112129D01*
X0117730Y0111131D02*
X0126088Y0111131D01*
X0137921Y0130103D02*
X0082000Y0130103D01*
X0083281Y0131101D02*
X0095649Y0131101D01*
X0094989Y0132100D02*
X0083949Y0132100D01*
X0083949Y0133098D02*
X0091658Y0133098D01*
X0090555Y0134097D02*
X0083949Y0134097D01*
X0083949Y0135095D02*
X0090241Y0135095D01*
X0090246Y0136094D02*
X0083949Y0136094D01*
X0083647Y0137092D02*
X0090246Y0137092D01*
X0095260Y0139089D02*
X0095328Y0139089D01*
X0095260Y0140088D02*
X0139674Y0140088D01*
X0139674Y0141086D02*
X0117564Y0141086D01*
X0117741Y0141134D02*
X0118083Y0141331D01*
X0118362Y0141610D01*
X0118560Y0141953D01*
X0118662Y0142334D01*
X0118662Y0146756D01*
X0112938Y0146756D01*
X0112938Y0147756D01*
X0118662Y0147756D01*
X0118662Y0152178D01*
X0118560Y0152559D01*
X0118362Y0152901D01*
X0118083Y0153181D01*
X0117741Y0153378D01*
X0117360Y0153480D01*
X0112938Y0153480D01*
X0112938Y0147756D01*
X0111938Y0147756D01*
X0111938Y0153480D01*
X0107516Y0153480D01*
X0107134Y0153378D01*
X0106792Y0153181D01*
X0106513Y0152901D01*
X0106315Y0152559D01*
X0106213Y0152178D01*
X0106213Y0147756D01*
X0111938Y0147756D01*
X0111938Y0146756D01*
X0112938Y0146756D01*
X0112938Y0141031D01*
X0117360Y0141031D01*
X0117741Y0141134D01*
X0118595Y0142085D02*
X0139674Y0142085D01*
X0139674Y0143083D02*
X0118662Y0143083D01*
X0118662Y0144082D02*
X0139674Y0144082D01*
X0139674Y0145080D02*
X0118662Y0145080D01*
X0118662Y0146079D02*
X0139674Y0146079D01*
X0139674Y0147077D02*
X0112938Y0147077D01*
X0112938Y0146079D02*
X0111938Y0146079D01*
X0111938Y0146756D02*
X0111938Y0141031D01*
X0107516Y0141031D01*
X0107134Y0141134D01*
X0106792Y0141331D01*
X0106513Y0141610D01*
X0106315Y0141953D01*
X0106213Y0142334D01*
X0106213Y0146756D01*
X0111938Y0146756D01*
X0111938Y0147077D02*
X0098784Y0147077D01*
X0098784Y0146079D02*
X0106213Y0146079D01*
X0106213Y0145080D02*
X0098784Y0145080D01*
X0098784Y0144082D02*
X0106213Y0144082D01*
X0106213Y0143083D02*
X0098784Y0143083D01*
X0098784Y0142085D02*
X0106280Y0142085D01*
X0107312Y0141086D02*
X0095260Y0141086D01*
X0102382Y0139089D02*
X0102553Y0139089D01*
X0105835Y0139089D02*
X0106835Y0139089D01*
X0106835Y0139709D02*
X0109092Y0139709D01*
X0109473Y0139606D01*
X0109815Y0139409D01*
X0110095Y0139130D01*
X0110292Y0138788D01*
X0110394Y0138406D01*
X0110394Y0135756D01*
X0106835Y0135756D01*
X0106835Y0139709D01*
X0106835Y0138091D02*
X0105835Y0138091D01*
X0105835Y0137092D02*
X0106835Y0137092D01*
X0106835Y0136094D02*
X0105835Y0136094D01*
X0106835Y0135095D02*
X0139674Y0135095D01*
X0139674Y0134097D02*
X0110394Y0134097D01*
X0110394Y0133098D02*
X0139674Y0133098D01*
X0139674Y0132100D02*
X0110393Y0132100D01*
X0109812Y0131101D02*
X0139674Y0131101D01*
X0144688Y0134097D02*
X0155349Y0134097D01*
X0155349Y0135095D02*
X0144688Y0135095D01*
X0144688Y0136094D02*
X0155349Y0136094D01*
X0155349Y0137092D02*
X0144688Y0137092D01*
X0144688Y0138091D02*
X0155349Y0138091D01*
X0155349Y0139089D02*
X0144688Y0139089D01*
X0144688Y0140088D02*
X0155349Y0140088D01*
X0155349Y0141086D02*
X0144688Y0141086D01*
X0144688Y0142085D02*
X0155349Y0142085D01*
X0155349Y0143083D02*
X0144688Y0143083D01*
X0144688Y0144082D02*
X0155349Y0144082D01*
X0155864Y0145080D02*
X0144688Y0145080D01*
X0144688Y0146079D02*
X0156862Y0146079D01*
X0156407Y0145624D02*
X0156407Y0145624D01*
X0157861Y0147077D02*
X0144688Y0147077D01*
X0144688Y0148076D02*
X0158859Y0148076D01*
X0159858Y0149074D02*
X0144688Y0149074D01*
X0144688Y0150073D02*
X0160856Y0150073D01*
X0161855Y0151071D02*
X0144688Y0151071D01*
X0144688Y0152070D02*
X0162853Y0152070D01*
X0163852Y0153068D02*
X0144688Y0153068D01*
X0144688Y0154067D02*
X0164850Y0154067D01*
X0165849Y0155065D02*
X0144688Y0155065D01*
X0144688Y0156064D02*
X0166848Y0156064D01*
X0167788Y0157004D02*
X0167788Y0157004D01*
X0167846Y0157062D02*
X0144688Y0157062D01*
X0139674Y0157062D02*
X0095146Y0157062D01*
X0095157Y0156064D02*
X0139674Y0156064D01*
X0139674Y0155065D02*
X0095169Y0155065D01*
X0095181Y0154067D02*
X0139674Y0154067D01*
X0139674Y0153068D02*
X0118195Y0153068D01*
X0118662Y0152070D02*
X0139674Y0152070D01*
X0139674Y0151071D02*
X0118662Y0151071D01*
X0118662Y0150073D02*
X0139674Y0150073D01*
X0139674Y0149074D02*
X0118662Y0149074D01*
X0118662Y0148076D02*
X0139674Y0148076D01*
X0139674Y0139089D02*
X0110118Y0139089D01*
X0110394Y0138091D02*
X0139674Y0138091D01*
X0139674Y0137092D02*
X0110394Y0137092D01*
X0110394Y0136094D02*
X0139674Y0136094D01*
X0158963Y0138091D02*
X0160573Y0138091D01*
X0160573Y0139089D02*
X0158963Y0139089D01*
X0158963Y0140088D02*
X0160573Y0140088D01*
X0160884Y0141086D02*
X0158963Y0141086D01*
X0158963Y0142085D02*
X0161057Y0142085D01*
X0161057Y0143083D02*
X0158978Y0143083D01*
X0159977Y0144082D02*
X0161057Y0144082D01*
X0161057Y0145080D02*
X0160975Y0145080D01*
X0166014Y0142675D02*
X0166014Y0137281D01*
X0119343Y0158061D02*
X0095702Y0158061D01*
X0095702Y0159059D02*
X0118246Y0159059D01*
X0117248Y0160058D02*
X0095702Y0160058D01*
X0095702Y0161056D02*
X0116249Y0161056D01*
X0115251Y0162055D02*
X0095702Y0162055D01*
X0095702Y0163053D02*
X0114252Y0163053D01*
X0113254Y0164052D02*
X0095398Y0164052D01*
X0089793Y0164052D02*
X0048048Y0164052D01*
X0048048Y0163759D02*
X0048048Y0166016D01*
X0044095Y0166016D01*
X0044095Y0167016D01*
X0048048Y0167016D01*
X0048048Y0169272D01*
X0047946Y0169654D01*
X0047748Y0169996D01*
X0047469Y0170275D01*
X0047320Y0170361D01*
X0047855Y0170896D01*
X0047855Y0171489D01*
X0055927Y0171489D01*
X0057446Y0169970D01*
X0057446Y0165762D01*
X0058211Y0164996D01*
X0065200Y0164996D01*
X0065965Y0165762D01*
X0065965Y0172750D01*
X0065200Y0173516D01*
X0060991Y0173516D01*
X0058385Y0176121D01*
X0057464Y0176503D01*
X0047855Y0176503D01*
X0047855Y0177097D01*
X0047089Y0177862D01*
X0040101Y0177862D01*
X0039335Y0177097D01*
X0039335Y0170896D01*
X0039870Y0170361D01*
X0039721Y0170275D01*
X0039442Y0169996D01*
X0039245Y0169654D01*
X0039142Y0169272D01*
X0039142Y0167016D01*
X0043095Y0167016D01*
X0043095Y0166016D01*
X0039142Y0166016D01*
X0039142Y0163759D01*
X0039245Y0163378D01*
X0039442Y0163036D01*
X0039721Y0162756D01*
X0040063Y0162559D01*
X0040445Y0162457D01*
X0043095Y0162457D01*
X0043095Y0166016D01*
X0044095Y0166016D01*
X0044095Y0162457D01*
X0046745Y0162457D01*
X0047127Y0162559D01*
X0047469Y0162756D01*
X0047748Y0163036D01*
X0047946Y0163378D01*
X0048048Y0163759D01*
X0047758Y0163053D02*
X0089488Y0163053D01*
X0089488Y0162055D02*
X0026595Y0162055D01*
X0026595Y0163053D02*
X0039432Y0163053D01*
X0039142Y0164052D02*
X0026595Y0164052D01*
X0026595Y0165050D02*
X0039142Y0165050D01*
X0039142Y0167047D02*
X0026595Y0167047D01*
X0026595Y0166049D02*
X0043095Y0166049D01*
X0043095Y0165050D02*
X0044095Y0165050D01*
X0044095Y0164052D02*
X0043095Y0164052D01*
X0043095Y0163053D02*
X0044095Y0163053D01*
X0044095Y0166049D02*
X0057446Y0166049D01*
X0057446Y0167047D02*
X0048048Y0167047D01*
X0048048Y0168046D02*
X0057446Y0168046D01*
X0057446Y0169045D02*
X0048048Y0169045D01*
X0047701Y0170043D02*
X0057373Y0170043D01*
X0056374Y0171042D02*
X0047855Y0171042D01*
X0047855Y0177033D02*
X0058175Y0177033D01*
X0058473Y0176034D02*
X0065161Y0176034D01*
X0066160Y0175036D02*
X0059471Y0175036D01*
X0060470Y0174037D02*
X0067158Y0174037D01*
X0068157Y0173039D02*
X0065677Y0173039D01*
X0065965Y0172040D02*
X0069155Y0172040D01*
X0070154Y0171042D02*
X0065965Y0171042D01*
X0065965Y0170043D02*
X0071152Y0170043D01*
X0071225Y0169045D02*
X0065965Y0169045D01*
X0065965Y0168046D02*
X0071225Y0168046D01*
X0071225Y0167047D02*
X0065965Y0167047D01*
X0065965Y0166049D02*
X0071225Y0166049D01*
X0071936Y0165050D02*
X0065254Y0165050D01*
X0058157Y0165050D02*
X0048048Y0165050D01*
X0039142Y0168046D02*
X0026595Y0168046D01*
X0026595Y0169045D02*
X0039142Y0169045D01*
X0039489Y0170043D02*
X0026595Y0170043D01*
X0026595Y0171042D02*
X0039335Y0171042D01*
X0039335Y0172040D02*
X0026595Y0172040D01*
X0026595Y0173039D02*
X0039335Y0173039D01*
X0039335Y0174037D02*
X0026595Y0174037D01*
X0026595Y0175036D02*
X0039335Y0175036D01*
X0039335Y0176034D02*
X0026595Y0176034D01*
X0026595Y0177033D02*
X0039335Y0177033D01*
X0026595Y0178031D02*
X0057446Y0178031D01*
X0057446Y0179030D02*
X0026595Y0179030D01*
X0026595Y0180028D02*
X0057446Y0180028D01*
X0057446Y0181027D02*
X0026595Y0181027D01*
X0026595Y0182025D02*
X0057446Y0182025D01*
X0057446Y0183024D02*
X0026595Y0183024D01*
X0026595Y0184022D02*
X0057446Y0184022D01*
X0057716Y0185021D02*
X0026595Y0185021D01*
X0026595Y0186019D02*
X0034975Y0186019D01*
X0031982Y0187018D02*
X0026595Y0187018D01*
X0026595Y0188016D02*
X0030258Y0188016D01*
X0029260Y0189015D02*
X0026595Y0189015D01*
X0026595Y0190013D02*
X0028298Y0190013D01*
X0027721Y0191012D02*
X0026595Y0191012D01*
X0026595Y0192010D02*
X0027145Y0192010D01*
X0026795Y0193009D02*
X0026595Y0193009D01*
X0073251Y0175036D02*
X0077719Y0175036D01*
X0076721Y0174037D02*
X0074249Y0174037D01*
X0080816Y0171042D02*
X0082583Y0171042D01*
X0079818Y0170043D02*
X0090210Y0170043D01*
X0089488Y0171042D02*
X0086608Y0171042D01*
X0079745Y0169045D02*
X0108261Y0169045D01*
X0107262Y0170043D02*
X0094981Y0170043D01*
X0095702Y0171042D02*
X0106264Y0171042D01*
X0109259Y0168046D02*
X0079745Y0168046D01*
X0079745Y0167047D02*
X0110258Y0167047D01*
X0111257Y0166049D02*
X0079745Y0166049D01*
X0079033Y0165050D02*
X0112255Y0165050D01*
X0111938Y0153068D02*
X0112938Y0153068D01*
X0112938Y0152070D02*
X0111938Y0152070D01*
X0111938Y0151071D02*
X0112938Y0151071D01*
X0112938Y0150073D02*
X0111938Y0150073D01*
X0111938Y0149074D02*
X0112938Y0149074D01*
X0112938Y0148076D02*
X0111938Y0148076D01*
X0111938Y0145080D02*
X0112938Y0145080D01*
X0112938Y0144082D02*
X0111938Y0144082D01*
X0111938Y0143083D02*
X0112938Y0143083D01*
X0112938Y0142085D02*
X0111938Y0142085D01*
X0111938Y0141086D02*
X0112938Y0141086D01*
X0106835Y0134097D02*
X0105835Y0134097D01*
X0105835Y0133098D02*
X0106835Y0133098D01*
X0106835Y0132100D02*
X0105835Y0132100D01*
X0105835Y0131101D02*
X0106835Y0131101D01*
X0102858Y0131101D02*
X0102060Y0131101D01*
X0086721Y0144082D02*
X0064457Y0144082D01*
X0064457Y0145080D02*
X0084417Y0145080D01*
X0083199Y0146079D02*
X0064457Y0146079D01*
X0064457Y0147077D02*
X0081945Y0147077D01*
X0080690Y0148076D02*
X0064457Y0148076D01*
X0064457Y0149074D02*
X0075684Y0149074D01*
X0075036Y0150073D02*
X0064457Y0150073D01*
X0064457Y0151071D02*
X0075036Y0151071D01*
X0075036Y0152070D02*
X0064457Y0152070D01*
X0064457Y0153068D02*
X0075036Y0153068D01*
X0075036Y0154067D02*
X0064457Y0154067D01*
X0063899Y0155065D02*
X0075359Y0155065D01*
X0083626Y0155065D02*
X0090155Y0155065D01*
X0090166Y0154067D02*
X0083949Y0154067D01*
X0083949Y0153068D02*
X0087268Y0153068D01*
X0086721Y0152070D02*
X0083949Y0152070D01*
X0084978Y0151071D02*
X0086721Y0151071D01*
X0086721Y0150073D02*
X0086233Y0150073D01*
X0090143Y0156064D02*
X0026595Y0156064D01*
X0026595Y0157062D02*
X0090131Y0157062D01*
X0089488Y0158061D02*
X0026595Y0158061D01*
X0026595Y0159059D02*
X0089488Y0159059D01*
X0089488Y0160058D02*
X0026595Y0160058D01*
X0026595Y0161056D02*
X0089488Y0161056D01*
X0098237Y0153068D02*
X0106680Y0153068D01*
X0106213Y0152070D02*
X0098784Y0152070D01*
X0098784Y0151071D02*
X0106213Y0151071D01*
X0106213Y0150073D02*
X0098784Y0150073D01*
X0098784Y0149074D02*
X0106213Y0149074D01*
X0106213Y0148076D02*
X0098784Y0148076D01*
X0051253Y0148076D02*
X0050253Y0148076D01*
X0050253Y0149074D02*
X0051253Y0149074D01*
X0051253Y0150073D02*
X0050253Y0150073D01*
X0050253Y0151071D02*
X0051253Y0151071D01*
X0051253Y0152070D02*
X0050253Y0152070D01*
X0050253Y0153068D02*
X0051253Y0153068D01*
X0051253Y0154067D02*
X0050253Y0154067D01*
X0050253Y0155065D02*
X0051253Y0155065D01*
X0037606Y0155065D02*
X0026595Y0155065D01*
X0026595Y0154067D02*
X0037048Y0154067D01*
X0037048Y0153068D02*
X0026595Y0153068D01*
X0026595Y0152070D02*
X0037048Y0152070D01*
X0037048Y0151071D02*
X0026595Y0151071D01*
X0026595Y0150073D02*
X0037048Y0150073D01*
X0037048Y0149074D02*
X0026595Y0149074D01*
X0026595Y0148076D02*
X0037048Y0148076D01*
X0037048Y0147077D02*
X0026595Y0147077D01*
X0026595Y0146079D02*
X0037048Y0146079D01*
X0037048Y0145080D02*
X0026595Y0145080D01*
X0026595Y0144082D02*
X0037048Y0144082D01*
X0050253Y0144082D02*
X0051253Y0144082D01*
X0051253Y0145080D02*
X0050253Y0145080D01*
X0050253Y0146079D02*
X0051253Y0146079D01*
X0051253Y0147077D02*
X0050253Y0147077D01*
X0050253Y0141086D02*
X0051253Y0141086D01*
X0051253Y0140088D02*
X0050253Y0140088D01*
X0050253Y0139089D02*
X0051253Y0139089D01*
X0051253Y0138091D02*
X0050253Y0138091D01*
X0050253Y0137092D02*
X0051253Y0137092D01*
X0051253Y0136094D02*
X0050253Y0136094D01*
X0050253Y0135095D02*
X0051253Y0135095D01*
X0051253Y0134097D02*
X0050253Y0134097D01*
X0050253Y0133098D02*
X0051253Y0133098D01*
X0051253Y0132100D02*
X0050253Y0132100D01*
X0050253Y0123113D02*
X0051253Y0123113D01*
X0051253Y0122114D02*
X0050253Y0122114D01*
X0050253Y0121116D02*
X0051253Y0121116D01*
X0051253Y0120117D02*
X0050253Y0120117D01*
X0050253Y0119119D02*
X0051253Y0119119D01*
X0051253Y0118120D02*
X0050253Y0118120D01*
X0050253Y0117122D02*
X0051253Y0117122D01*
X0050784Y0117224D02*
X0050753Y0111256D01*
X0050253Y0113128D02*
X0051253Y0113128D01*
X0051253Y0114126D02*
X0050253Y0114126D01*
X0050253Y0115125D02*
X0051253Y0115125D01*
X0051253Y0116123D02*
X0050253Y0116123D01*
X0026595Y0092159D02*
X0101146Y0092159D01*
X0100470Y0092836D02*
X0100470Y0092836D01*
X0097198Y0177033D02*
X0095992Y0177033D01*
X0096450Y0185021D02*
X0096740Y0185021D01*
X0097216Y0189015D02*
X0095974Y0189015D01*
X0100335Y0193256D02*
X0109595Y0193256D01*
X0124595Y0178256D01*
X0111281Y0189015D02*
X0103454Y0189015D01*
X0104201Y0190013D02*
X0110282Y0190013D01*
X0109284Y0191012D02*
X0104201Y0191012D01*
X0096722Y0197003D02*
X0096468Y0197003D01*
X0089242Y0197003D02*
X0079492Y0197003D01*
X0079745Y0196004D02*
X0088989Y0196004D01*
X0346095Y0049223D02*
X0347095Y0049223D01*
X0347095Y0048225D02*
X0346095Y0048225D01*
X0346095Y0047226D02*
X0347095Y0047226D01*
X0347095Y0046228D02*
X0346095Y0046228D01*
X0346095Y0045229D02*
X0347095Y0045229D01*
X0364748Y0103143D02*
X0384088Y0103143D01*
X0384088Y0104141D02*
X0380016Y0104141D01*
X0381484Y0105140D02*
X0384088Y0105140D01*
X0384088Y0106138D02*
X0382258Y0106138D01*
X0382671Y0107137D02*
X0384088Y0107137D01*
X0384088Y0108135D02*
X0382792Y0108135D01*
X0382792Y0109134D02*
X0384088Y0109134D01*
X0384088Y0110132D02*
X0382423Y0110132D01*
X0381883Y0111131D02*
X0384088Y0111131D01*
X0384088Y0112129D02*
X0380884Y0112129D01*
D36*
X0227995Y0098656D02*
X0227995Y0097256D01*
X0228020Y0097281D01*
X0228020Y0097956D01*
X0227995Y0097256D02*
X0227995Y0092656D01*
X0226595Y0091256D01*
X0226595Y0083431D01*
X0226595Y0083256D01*
X0207095Y0115756D02*
X0190595Y0115756D01*
X0190620Y0115781D01*
X0190620Y0115824D01*
X0190595Y0115756D02*
X0190295Y0115756D01*
X0207095Y0115756D02*
X0214595Y0123256D01*
X0214595Y0128256D01*
X0212888Y0129963D01*
X0206474Y0129963D01*
X0157156Y0118995D02*
X0157095Y0119056D01*
X0157156Y0118995D02*
X0157156Y0118974D01*
D37*
X0138595Y0107256D03*
X0158595Y0078256D03*
X0214595Y0092256D03*
X0205595Y0117256D03*
X0204595Y0166256D03*
X0161595Y0166256D03*
X0359595Y0056256D03*
D38*
X0212595Y0074256D03*
X0205595Y0079256D03*
X0197595Y0084256D03*
X0204595Y0089256D03*
X0191595Y0094256D03*
X0172595Y0065256D03*
X0162595Y0065256D03*
X0119595Y0173256D03*
X0124595Y0178256D03*
X0084595Y0173706D03*
D39*
X0128595Y0095256D03*
X0128595Y0084256D03*
X0303595Y0098256D03*
X0327595Y0096256D03*
D40*
X0405595Y0039256D03*
X0405595Y0196256D03*
X0036595Y0196256D03*
X0036595Y0039256D03*
M02*
