G75*
%MOIN*%
%OFA0B0*%
%FSLAX25Y25*%
%IPPOS*%
%LPD*%
%AMOC8*
5,1,8,0,0,1.08239X$1,22.5*
%
%ADD10OC8,0.07000*%
%ADD11C,0.07000*%
%ADD12R,0.05906X0.05118*%
%ADD13C,0.06496*%
%ADD14OC8,0.10000*%
%ADD15R,0.05118X0.05906*%
%ADD16R,0.07000X0.07000*%
%ADD17R,0.08661X0.07087*%
%ADD18C,0.06600*%
%ADD19C,0.10000*%
%ADD20R,0.09843X0.07874*%
%ADD21R,0.12992X0.07874*%
%ADD22R,0.12205X0.01969*%
%ADD23R,0.03600X0.04800*%
%ADD24R,0.05906X0.01575*%
%ADD25R,0.09449X0.09449*%
%ADD26C,0.02400*%
%ADD27C,0.01000*%
%ADD28C,0.01600*%
%ADD29C,0.01400*%
%ADD30C,0.03100*%
%ADD31C,0.04000*%
%ADD32C,0.01200*%
%ADD33C,0.01800*%
%ADD34C,0.03962*%
%ADD35C,0.18000*%
D10*
X0247595Y0179256D03*
X0299595Y0189256D03*
X0309595Y0189256D03*
D11*
X0319595Y0189256D03*
X0329595Y0189256D03*
X0339595Y0189256D03*
X0267595Y0189256D03*
X0257595Y0189256D03*
X0247595Y0189256D03*
X0257595Y0179256D03*
X0267595Y0179256D03*
D12*
X0166595Y0112996D03*
X0166595Y0105516D03*
X0113595Y0106516D03*
X0113595Y0113996D03*
X0095595Y0138516D03*
X0095595Y0145996D03*
D13*
X0371741Y0157335D02*
X0378237Y0157335D01*
X0378237Y0167177D02*
X0371741Y0167177D01*
X0371741Y0118177D02*
X0378237Y0118177D01*
X0378237Y0108335D02*
X0371741Y0108335D01*
X0371741Y0078277D02*
X0378237Y0078277D01*
X0378237Y0068435D02*
X0371741Y0068435D01*
D14*
X0327595Y0117256D03*
X0327595Y0147256D03*
D15*
X0329562Y0174013D03*
X0337042Y0174013D03*
X0346855Y0174256D03*
X0354335Y0174256D03*
X0319335Y0174256D03*
X0311855Y0174256D03*
X0301335Y0174256D03*
X0293855Y0174256D03*
D16*
X0349595Y0189256D03*
D17*
X0343595Y0142295D03*
X0343595Y0122217D03*
D18*
X0360595Y0101130D03*
X0360595Y0093256D03*
X0360595Y0085382D03*
D19*
X0077406Y0076256D02*
X0077406Y0066256D01*
X0070595Y0052358D02*
X0060595Y0052358D01*
X0053784Y0066256D02*
X0053784Y0076256D01*
D20*
X0034784Y0100236D03*
X0034784Y0135276D03*
D21*
X0058012Y0135276D03*
X0058012Y0100236D03*
D22*
X0058406Y0111457D03*
X0058406Y0114606D03*
X0058406Y0117756D03*
X0058406Y0120906D03*
X0058406Y0124055D03*
D23*
X0085595Y0122806D03*
X0085595Y0135706D03*
D24*
X0112323Y0135740D03*
X0112323Y0133181D03*
X0112323Y0130622D03*
X0112323Y0138299D03*
X0112323Y0140858D03*
X0112323Y0143417D03*
X0112323Y0145976D03*
X0112323Y0148535D03*
X0112323Y0151094D03*
X0112323Y0153654D03*
X0112323Y0156213D03*
X0112323Y0158772D03*
X0112323Y0161331D03*
X0112323Y0163890D03*
X0140867Y0163890D03*
X0140867Y0161331D03*
X0140867Y0158772D03*
X0140867Y0156213D03*
X0140867Y0153654D03*
X0140867Y0151094D03*
X0140867Y0148535D03*
X0140867Y0145976D03*
X0140867Y0143417D03*
X0140867Y0140858D03*
X0140867Y0138299D03*
X0140867Y0135740D03*
X0140867Y0133181D03*
X0140867Y0130622D03*
D25*
X0097595Y0120098D03*
X0097595Y0100413D03*
D26*
X0113595Y0113996D02*
X0107493Y0120098D01*
X0097595Y0120098D01*
X0094888Y0122806D02*
X0085595Y0122806D01*
X0085595Y0135706D02*
X0085595Y0140256D01*
X0091335Y0145996D01*
X0095595Y0145996D01*
X0095855Y0146256D02*
X0095855Y0162446D01*
X0084595Y0173706D01*
X0128595Y0095256D02*
X0136595Y0088256D01*
X0136595Y0076256D01*
X0162595Y0050256D01*
X0299595Y0050256D01*
X0350469Y0101130D01*
X0360595Y0101130D01*
X0360595Y0093256D02*
X0386595Y0093256D01*
X0386595Y0082256D01*
X0382595Y0078256D01*
X0375010Y0078256D01*
X0374989Y0078277D01*
X0360595Y0085382D02*
X0350721Y0085382D01*
X0308595Y0043256D01*
X0158595Y0043256D01*
X0128595Y0073256D01*
X0128595Y0084256D01*
X0267595Y0189256D02*
X0267595Y0195256D01*
X0272595Y0200256D01*
X0344595Y0200256D01*
X0349595Y0195256D01*
X0349595Y0189256D01*
X0357595Y0189256D01*
X0361595Y0185256D01*
X0361595Y0163256D01*
X0366595Y0157256D01*
X0374910Y0157256D01*
X0337595Y0174256D02*
X0337595Y0180256D01*
X0339595Y0182256D01*
X0339595Y0189256D01*
X0348595Y0189256D02*
X0349595Y0189256D01*
X0374989Y0118177D02*
X0381674Y0118177D01*
X0386595Y0114256D01*
X0386595Y0093256D01*
D27*
X0403092Y0029256D02*
X0039098Y0029256D01*
X0040574Y0029651D01*
X0042924Y0031008D01*
X0044843Y0032927D01*
X0046200Y0035278D01*
X0046902Y0037899D01*
X0046902Y0040613D01*
X0046200Y0043234D01*
X0044843Y0045585D01*
X0042924Y0047504D01*
X0040574Y0048861D01*
X0037952Y0049563D01*
X0035238Y0049563D01*
X0032617Y0048861D01*
X0030266Y0047504D01*
X0028347Y0045585D01*
X0026990Y0043234D01*
X0026595Y0041759D01*
X0026595Y0193753D01*
X0026990Y0192278D01*
X0028347Y0189927D01*
X0030266Y0188008D01*
X0032617Y0186651D01*
X0035238Y0185949D01*
X0037952Y0185949D01*
X0040574Y0186651D01*
X0042924Y0188008D01*
X0044843Y0189927D01*
X0046200Y0192278D01*
X0046902Y0194899D01*
X0046902Y0197613D01*
X0046200Y0200234D01*
X0044843Y0202585D01*
X0042924Y0204504D01*
X0040574Y0205861D01*
X0039098Y0206256D01*
X0403092Y0206256D01*
X0401617Y0205861D01*
X0399266Y0204504D01*
X0397347Y0202585D01*
X0395990Y0200234D01*
X0395288Y0197613D01*
X0395288Y0194899D01*
X0395990Y0192278D01*
X0397347Y0189927D01*
X0399266Y0188008D01*
X0401617Y0186651D01*
X0404238Y0185949D01*
X0406952Y0185949D01*
X0409574Y0186651D01*
X0411924Y0188008D01*
X0413843Y0189927D01*
X0415200Y0192278D01*
X0415595Y0193753D01*
X0415595Y0041759D01*
X0415200Y0043234D01*
X0413843Y0045585D01*
X0411924Y0047504D01*
X0409574Y0048861D01*
X0406952Y0049563D01*
X0404238Y0049563D01*
X0401617Y0048861D01*
X0399266Y0047504D01*
X0397347Y0045585D01*
X0395990Y0043234D01*
X0395288Y0040613D01*
X0395288Y0037899D01*
X0395990Y0035278D01*
X0397347Y0032927D01*
X0399266Y0031008D01*
X0401617Y0029651D01*
X0403092Y0029256D01*
X0400577Y0030251D02*
X0041613Y0030251D01*
X0043166Y0031250D02*
X0399025Y0031250D01*
X0398026Y0032248D02*
X0044164Y0032248D01*
X0045027Y0033247D02*
X0397163Y0033247D01*
X0396586Y0034245D02*
X0045604Y0034245D01*
X0046180Y0035244D02*
X0396010Y0035244D01*
X0395732Y0036243D02*
X0046458Y0036243D01*
X0046726Y0037241D02*
X0395464Y0037241D01*
X0395288Y0038240D02*
X0046902Y0038240D01*
X0046902Y0039238D02*
X0395288Y0039238D01*
X0395288Y0040237D02*
X0046902Y0040237D01*
X0046735Y0041235D02*
X0157070Y0041235D01*
X0157175Y0041130D02*
X0158096Y0040749D01*
X0309094Y0040749D01*
X0310015Y0041130D01*
X0310721Y0041836D01*
X0351760Y0082875D01*
X0356647Y0082875D01*
X0356689Y0082772D01*
X0357985Y0081476D01*
X0359679Y0080775D01*
X0361512Y0080775D01*
X0363205Y0081476D01*
X0364501Y0082772D01*
X0365202Y0084465D01*
X0365202Y0086298D01*
X0364501Y0087992D01*
X0363205Y0089288D01*
X0363129Y0089319D01*
X0363205Y0089350D01*
X0364501Y0090646D01*
X0364543Y0090749D01*
X0384088Y0090749D01*
X0384088Y0083294D01*
X0381875Y0081081D01*
X0380817Y0082139D01*
X0379143Y0082832D01*
X0370835Y0082832D01*
X0369161Y0082139D01*
X0367879Y0080857D01*
X0367186Y0079183D01*
X0367186Y0077371D01*
X0367879Y0075697D01*
X0369161Y0074416D01*
X0370835Y0073722D01*
X0379143Y0073722D01*
X0380817Y0074416D01*
X0382098Y0075697D01*
X0382120Y0075749D01*
X0383094Y0075749D01*
X0384015Y0076130D01*
X0384721Y0076836D01*
X0388721Y0080836D01*
X0389102Y0081757D01*
X0389102Y0113902D01*
X0389142Y0114042D01*
X0389102Y0114397D01*
X0389102Y0114755D01*
X0389047Y0114889D01*
X0389030Y0115033D01*
X0388857Y0115346D01*
X0388721Y0115676D01*
X0388618Y0115779D01*
X0388547Y0115906D01*
X0388268Y0116129D01*
X0388015Y0116381D01*
X0387881Y0116437D01*
X0383347Y0120050D01*
X0383094Y0120303D01*
X0382960Y0120358D01*
X0382846Y0120449D01*
X0382503Y0120547D01*
X0382173Y0120684D01*
X0382129Y0120684D01*
X0382098Y0120757D01*
X0380817Y0122039D01*
X0379143Y0122732D01*
X0370835Y0122732D01*
X0369161Y0122039D01*
X0367879Y0120757D01*
X0367186Y0119083D01*
X0367186Y0117271D01*
X0367879Y0115597D01*
X0369161Y0114316D01*
X0370835Y0113622D01*
X0379143Y0113622D01*
X0380817Y0114316D01*
X0381562Y0115061D01*
X0384088Y0113048D01*
X0384088Y0095763D01*
X0364543Y0095763D01*
X0364501Y0095866D01*
X0363205Y0097162D01*
X0363129Y0097193D01*
X0363205Y0097224D01*
X0364501Y0098520D01*
X0365202Y0100214D01*
X0365202Y0102046D01*
X0364501Y0103740D01*
X0363205Y0105036D01*
X0361512Y0105737D01*
X0359679Y0105737D01*
X0357985Y0105036D01*
X0356689Y0103740D01*
X0356647Y0103637D01*
X0349970Y0103637D01*
X0349049Y0103255D01*
X0348344Y0102550D01*
X0298557Y0052763D01*
X0163634Y0052763D01*
X0139102Y0077294D01*
X0139102Y0087843D01*
X0139130Y0087925D01*
X0139102Y0088339D01*
X0139102Y0088755D01*
X0139069Y0088834D01*
X0139063Y0088920D01*
X0138879Y0089292D01*
X0138721Y0089676D01*
X0138660Y0089737D01*
X0138621Y0089814D01*
X0138309Y0090088D01*
X0138015Y0090381D01*
X0137936Y0090414D01*
X0131883Y0095710D01*
X0131883Y0095910D01*
X0131383Y0097119D01*
X0130458Y0098043D01*
X0129249Y0098544D01*
X0127941Y0098544D01*
X0126733Y0098043D01*
X0125808Y0097119D01*
X0125307Y0095910D01*
X0125307Y0094602D01*
X0125808Y0093393D01*
X0126733Y0092468D01*
X0127941Y0091968D01*
X0128546Y0091968D01*
X0134088Y0087118D01*
X0134088Y0075757D01*
X0134470Y0074836D01*
X0135175Y0074130D01*
X0161175Y0048130D01*
X0162096Y0047749D01*
X0300094Y0047749D01*
X0301015Y0048130D01*
X0301721Y0048836D01*
X0351508Y0098623D01*
X0356647Y0098623D01*
X0356689Y0098520D01*
X0357985Y0097224D01*
X0358061Y0097193D01*
X0357985Y0097162D01*
X0356689Y0095866D01*
X0355988Y0094172D01*
X0355988Y0092339D01*
X0356689Y0090646D01*
X0357985Y0089350D01*
X0358061Y0089319D01*
X0357985Y0089288D01*
X0356689Y0087992D01*
X0356647Y0087889D01*
X0350222Y0087889D01*
X0349301Y0087507D01*
X0307557Y0045763D01*
X0159634Y0045763D01*
X0131102Y0074294D01*
X0131102Y0082113D01*
X0131383Y0082393D01*
X0131883Y0083602D01*
X0131883Y0084910D01*
X0131383Y0086119D01*
X0130458Y0087043D01*
X0129249Y0087544D01*
X0127941Y0087544D01*
X0126733Y0087043D01*
X0125808Y0086119D01*
X0125307Y0084910D01*
X0125307Y0083602D01*
X0125808Y0082393D01*
X0126088Y0082113D01*
X0126088Y0072757D01*
X0126470Y0071836D01*
X0127175Y0071130D01*
X0156470Y0041836D01*
X0157175Y0041130D01*
X0156470Y0041836D02*
X0156470Y0041836D01*
X0156072Y0042234D02*
X0046468Y0042234D01*
X0046200Y0043232D02*
X0155073Y0043232D01*
X0154075Y0044231D02*
X0045625Y0044231D01*
X0045048Y0045229D02*
X0153076Y0045229D01*
X0152078Y0046228D02*
X0072780Y0046228D01*
X0072689Y0046190D02*
X0073476Y0046516D01*
X0074214Y0046942D01*
X0074890Y0047461D01*
X0075493Y0048063D01*
X0076011Y0048739D01*
X0076437Y0049477D01*
X0076763Y0050264D01*
X0076984Y0051087D01*
X0077095Y0051932D01*
X0077095Y0052058D01*
X0074207Y0052058D01*
X0074207Y0052658D01*
X0077095Y0052658D01*
X0077095Y0052784D01*
X0076984Y0053629D01*
X0076763Y0054452D01*
X0076437Y0055239D01*
X0076011Y0055977D01*
X0075493Y0056653D01*
X0074890Y0057256D01*
X0074214Y0057774D01*
X0073476Y0058200D01*
X0072689Y0058527D01*
X0071866Y0058747D01*
X0071021Y0058858D01*
X0065895Y0058858D01*
X0065895Y0055458D01*
X0065766Y0055458D01*
X0065595Y0055388D01*
X0065424Y0055458D01*
X0065295Y0055458D01*
X0065295Y0058858D01*
X0060169Y0058858D01*
X0059324Y0058747D01*
X0058501Y0058527D01*
X0057714Y0058200D01*
X0056976Y0057774D01*
X0056300Y0057256D01*
X0055698Y0056653D01*
X0055179Y0055977D01*
X0054753Y0055239D01*
X0054427Y0054452D01*
X0054206Y0053629D01*
X0054095Y0052784D01*
X0054095Y0052658D01*
X0056983Y0052658D01*
X0056983Y0052058D01*
X0054095Y0052058D01*
X0054095Y0051932D01*
X0054206Y0051087D01*
X0054427Y0050264D01*
X0054753Y0049477D01*
X0055179Y0048739D01*
X0055698Y0048063D01*
X0056300Y0047461D01*
X0056976Y0046942D01*
X0057714Y0046516D01*
X0058501Y0046190D01*
X0059324Y0045969D01*
X0060169Y0045858D01*
X0065295Y0045858D01*
X0065295Y0049258D01*
X0065424Y0049258D01*
X0065595Y0049329D01*
X0065766Y0049258D01*
X0065895Y0049258D01*
X0065895Y0045858D01*
X0071021Y0045858D01*
X0071866Y0045969D01*
X0072689Y0046190D01*
X0074584Y0047226D02*
X0151079Y0047226D01*
X0150081Y0048225D02*
X0075616Y0048225D01*
X0076291Y0049223D02*
X0149082Y0049223D01*
X0148084Y0050222D02*
X0076746Y0050222D01*
X0077001Y0051220D02*
X0147085Y0051220D01*
X0146087Y0052219D02*
X0074207Y0052219D01*
X0077038Y0053217D02*
X0145088Y0053217D01*
X0144090Y0054216D02*
X0076827Y0054216D01*
X0076448Y0055214D02*
X0143091Y0055214D01*
X0142093Y0056213D02*
X0075831Y0056213D01*
X0074935Y0057211D02*
X0141094Y0057211D01*
X0140096Y0058210D02*
X0073454Y0058210D01*
X0073833Y0060909D02*
X0076152Y0059949D01*
X0078661Y0059949D01*
X0080979Y0060909D01*
X0082753Y0062683D01*
X0083713Y0065001D01*
X0083713Y0077510D01*
X0082753Y0079829D01*
X0080979Y0081603D01*
X0078661Y0082563D01*
X0076152Y0082563D01*
X0073833Y0081603D01*
X0072059Y0079829D01*
X0071099Y0077510D01*
X0071099Y0065001D01*
X0072059Y0062683D01*
X0073833Y0060909D01*
X0073537Y0061205D02*
X0057879Y0061205D01*
X0058079Y0061358D02*
X0058682Y0061961D01*
X0059200Y0062637D01*
X0059626Y0063375D01*
X0059952Y0064162D01*
X0060173Y0064985D01*
X0060284Y0065830D01*
X0060284Y0070956D01*
X0056884Y0070956D01*
X0056884Y0071085D01*
X0056813Y0071256D01*
X0056884Y0071427D01*
X0056884Y0071556D01*
X0060284Y0071556D01*
X0060284Y0076682D01*
X0060173Y0077527D01*
X0059952Y0078350D01*
X0059626Y0079137D01*
X0059200Y0079875D01*
X0058682Y0080551D01*
X0058079Y0081153D01*
X0057403Y0081672D01*
X0056665Y0082098D01*
X0055878Y0082424D01*
X0055055Y0082645D01*
X0054210Y0082756D01*
X0054084Y0082756D01*
X0054084Y0079868D01*
X0053484Y0079868D01*
X0053484Y0082756D01*
X0053358Y0082756D01*
X0052513Y0082645D01*
X0051690Y0082424D01*
X0050903Y0082098D01*
X0050165Y0081672D01*
X0049489Y0081153D01*
X0048887Y0080551D01*
X0048368Y0079875D01*
X0047942Y0079137D01*
X0047616Y0078350D01*
X0047395Y0077527D01*
X0047284Y0076682D01*
X0047284Y0071556D01*
X0050684Y0071556D01*
X0050684Y0071427D01*
X0050755Y0071256D01*
X0050684Y0071085D01*
X0050684Y0070956D01*
X0047284Y0070956D01*
X0047284Y0065830D01*
X0047395Y0064985D01*
X0047616Y0064162D01*
X0047942Y0063375D01*
X0048368Y0062637D01*
X0048887Y0061961D01*
X0049489Y0061358D01*
X0050165Y0060840D01*
X0050903Y0060414D01*
X0051690Y0060088D01*
X0052513Y0059867D01*
X0053358Y0059756D01*
X0053484Y0059756D01*
X0053484Y0062644D01*
X0054084Y0062644D01*
X0054084Y0059756D01*
X0054210Y0059756D01*
X0055055Y0059867D01*
X0055878Y0060088D01*
X0056665Y0060414D01*
X0057403Y0060840D01*
X0058079Y0061358D01*
X0058868Y0062204D02*
X0072539Y0062204D01*
X0071844Y0063202D02*
X0059527Y0063202D01*
X0059963Y0064201D02*
X0071431Y0064201D01*
X0071099Y0065199D02*
X0060201Y0065199D01*
X0060284Y0066198D02*
X0071099Y0066198D01*
X0071099Y0067196D02*
X0060284Y0067196D01*
X0060284Y0068195D02*
X0071099Y0068195D01*
X0071099Y0069193D02*
X0060284Y0069193D01*
X0060284Y0070192D02*
X0071099Y0070192D01*
X0071099Y0071190D02*
X0056841Y0071190D01*
X0060284Y0072189D02*
X0071099Y0072189D01*
X0071099Y0073187D02*
X0060284Y0073187D01*
X0060284Y0074186D02*
X0071099Y0074186D01*
X0071099Y0075184D02*
X0060284Y0075184D01*
X0060284Y0076183D02*
X0071099Y0076183D01*
X0071099Y0077181D02*
X0060218Y0077181D01*
X0059998Y0078180D02*
X0071376Y0078180D01*
X0071790Y0079178D02*
X0059602Y0079178D01*
X0058968Y0080177D02*
X0072408Y0080177D01*
X0073406Y0081176D02*
X0058050Y0081176D01*
X0056482Y0082174D02*
X0075213Y0082174D01*
X0079600Y0082174D02*
X0126027Y0082174D01*
X0126088Y0081176D02*
X0081406Y0081176D01*
X0082405Y0080177D02*
X0126088Y0080177D01*
X0126088Y0079178D02*
X0083022Y0079178D01*
X0083436Y0078180D02*
X0126088Y0078180D01*
X0126088Y0077181D02*
X0083713Y0077181D01*
X0083713Y0076183D02*
X0126088Y0076183D01*
X0126088Y0075184D02*
X0083713Y0075184D01*
X0083713Y0074186D02*
X0126088Y0074186D01*
X0126088Y0073187D02*
X0083713Y0073187D01*
X0083713Y0072189D02*
X0126323Y0072189D01*
X0127115Y0071190D02*
X0083713Y0071190D01*
X0083713Y0070192D02*
X0128114Y0070192D01*
X0127175Y0071130D02*
X0127175Y0071130D01*
X0129112Y0069193D02*
X0083713Y0069193D01*
X0083713Y0068195D02*
X0130111Y0068195D01*
X0131109Y0067196D02*
X0083713Y0067196D01*
X0083713Y0066198D02*
X0132108Y0066198D01*
X0133106Y0065199D02*
X0083713Y0065199D01*
X0083382Y0064201D02*
X0134105Y0064201D01*
X0135103Y0063202D02*
X0082968Y0063202D01*
X0082274Y0062204D02*
X0136102Y0062204D01*
X0137100Y0061205D02*
X0081275Y0061205D01*
X0079283Y0060207D02*
X0138099Y0060207D01*
X0139097Y0059208D02*
X0026595Y0059208D01*
X0026595Y0058210D02*
X0057737Y0058210D01*
X0056256Y0057211D02*
X0026595Y0057211D01*
X0026595Y0056213D02*
X0055360Y0056213D01*
X0054743Y0055214D02*
X0026595Y0055214D01*
X0026595Y0054216D02*
X0054364Y0054216D01*
X0054152Y0053217D02*
X0026595Y0053217D01*
X0026595Y0052219D02*
X0056983Y0052219D01*
X0054189Y0051220D02*
X0026595Y0051220D01*
X0026595Y0050222D02*
X0054445Y0050222D01*
X0054900Y0049223D02*
X0039220Y0049223D01*
X0041675Y0048225D02*
X0055574Y0048225D01*
X0056606Y0047226D02*
X0043201Y0047226D01*
X0044200Y0046228D02*
X0058410Y0046228D01*
X0065295Y0046228D02*
X0065895Y0046228D01*
X0065895Y0047226D02*
X0065295Y0047226D01*
X0065295Y0048225D02*
X0065895Y0048225D01*
X0065895Y0049223D02*
X0065295Y0049223D01*
X0065295Y0056213D02*
X0065895Y0056213D01*
X0065895Y0057211D02*
X0065295Y0057211D01*
X0065295Y0058210D02*
X0065895Y0058210D01*
X0075529Y0060207D02*
X0056166Y0060207D01*
X0054084Y0060207D02*
X0053484Y0060207D01*
X0053484Y0061205D02*
X0054084Y0061205D01*
X0054084Y0062204D02*
X0053484Y0062204D01*
X0051403Y0060207D02*
X0026595Y0060207D01*
X0026595Y0061205D02*
X0049689Y0061205D01*
X0048700Y0062204D02*
X0026595Y0062204D01*
X0026595Y0063202D02*
X0048042Y0063202D01*
X0047605Y0064201D02*
X0026595Y0064201D01*
X0026595Y0065199D02*
X0047367Y0065199D01*
X0047284Y0066198D02*
X0026595Y0066198D01*
X0026595Y0067196D02*
X0047284Y0067196D01*
X0047284Y0068195D02*
X0026595Y0068195D01*
X0026595Y0069193D02*
X0047284Y0069193D01*
X0047284Y0070192D02*
X0026595Y0070192D01*
X0026595Y0071190D02*
X0050728Y0071190D01*
X0047284Y0072189D02*
X0026595Y0072189D01*
X0026595Y0073187D02*
X0047284Y0073187D01*
X0047284Y0074186D02*
X0026595Y0074186D01*
X0026595Y0075184D02*
X0047284Y0075184D01*
X0047284Y0076183D02*
X0026595Y0076183D01*
X0026595Y0077181D02*
X0047350Y0077181D01*
X0047570Y0078180D02*
X0026595Y0078180D01*
X0026595Y0079178D02*
X0047966Y0079178D01*
X0048600Y0080177D02*
X0026595Y0080177D01*
X0026595Y0081176D02*
X0049518Y0081176D01*
X0051086Y0082174D02*
X0026595Y0082174D01*
X0026595Y0083173D02*
X0125485Y0083173D01*
X0125307Y0084171D02*
X0026595Y0084171D01*
X0026595Y0085170D02*
X0125414Y0085170D01*
X0125857Y0086168D02*
X0026595Y0086168D01*
X0026595Y0087167D02*
X0127030Y0087167D01*
X0130161Y0087167D02*
X0134033Y0087167D01*
X0134088Y0086168D02*
X0131333Y0086168D01*
X0131776Y0085170D02*
X0134088Y0085170D01*
X0134088Y0084171D02*
X0131883Y0084171D01*
X0131705Y0083173D02*
X0134088Y0083173D01*
X0134088Y0082174D02*
X0131163Y0082174D01*
X0131102Y0081176D02*
X0134088Y0081176D01*
X0134088Y0080177D02*
X0131102Y0080177D01*
X0131102Y0079178D02*
X0134088Y0079178D01*
X0134088Y0078180D02*
X0131102Y0078180D01*
X0131102Y0077181D02*
X0134088Y0077181D01*
X0134088Y0076183D02*
X0131102Y0076183D01*
X0131102Y0075184D02*
X0134325Y0075184D01*
X0135120Y0074186D02*
X0131211Y0074186D01*
X0132209Y0073187D02*
X0136118Y0073187D01*
X0137117Y0072189D02*
X0133208Y0072189D01*
X0134206Y0071190D02*
X0138115Y0071190D01*
X0139114Y0070192D02*
X0135205Y0070192D01*
X0136203Y0069193D02*
X0140112Y0069193D01*
X0141111Y0068195D02*
X0137202Y0068195D01*
X0138200Y0067196D02*
X0142109Y0067196D01*
X0143108Y0066198D02*
X0139199Y0066198D01*
X0140197Y0065199D02*
X0144106Y0065199D01*
X0145105Y0064201D02*
X0141196Y0064201D01*
X0142194Y0063202D02*
X0146103Y0063202D01*
X0147102Y0062204D02*
X0143193Y0062204D01*
X0144191Y0061205D02*
X0148100Y0061205D01*
X0149099Y0060207D02*
X0145190Y0060207D01*
X0146188Y0059208D02*
X0150097Y0059208D01*
X0151096Y0058210D02*
X0147187Y0058210D01*
X0148185Y0057211D02*
X0152094Y0057211D01*
X0153093Y0056213D02*
X0149184Y0056213D01*
X0150182Y0055214D02*
X0154091Y0055214D01*
X0155090Y0054216D02*
X0151181Y0054216D01*
X0152179Y0053217D02*
X0156088Y0053217D01*
X0157087Y0052219D02*
X0153178Y0052219D01*
X0154176Y0051220D02*
X0158085Y0051220D01*
X0159084Y0050222D02*
X0155175Y0050222D01*
X0156173Y0049223D02*
X0160082Y0049223D01*
X0161081Y0048225D02*
X0157172Y0048225D01*
X0158170Y0047226D02*
X0309020Y0047226D01*
X0310018Y0048225D02*
X0301109Y0048225D01*
X0301721Y0048836D02*
X0301721Y0048836D01*
X0302108Y0049223D02*
X0311017Y0049223D01*
X0312015Y0050222D02*
X0303106Y0050222D01*
X0304105Y0051220D02*
X0313014Y0051220D01*
X0314012Y0052219D02*
X0305103Y0052219D01*
X0306102Y0053217D02*
X0315011Y0053217D01*
X0316009Y0054216D02*
X0307100Y0054216D01*
X0308099Y0055214D02*
X0317008Y0055214D01*
X0318006Y0056213D02*
X0309098Y0056213D01*
X0310096Y0057211D02*
X0319005Y0057211D01*
X0320003Y0058210D02*
X0311095Y0058210D01*
X0312093Y0059208D02*
X0321002Y0059208D01*
X0322000Y0060207D02*
X0313092Y0060207D01*
X0314090Y0061205D02*
X0322999Y0061205D01*
X0323998Y0062204D02*
X0315089Y0062204D01*
X0316087Y0063202D02*
X0324996Y0063202D01*
X0325995Y0064201D02*
X0317086Y0064201D01*
X0318084Y0065199D02*
X0326993Y0065199D01*
X0327992Y0066198D02*
X0319083Y0066198D01*
X0320081Y0067196D02*
X0328990Y0067196D01*
X0329989Y0068195D02*
X0321080Y0068195D01*
X0322078Y0069193D02*
X0330987Y0069193D01*
X0331986Y0070192D02*
X0323077Y0070192D01*
X0324075Y0071190D02*
X0332984Y0071190D01*
X0333983Y0072189D02*
X0325074Y0072189D01*
X0326072Y0073187D02*
X0334981Y0073187D01*
X0335980Y0074186D02*
X0327071Y0074186D01*
X0328069Y0075184D02*
X0336978Y0075184D01*
X0337977Y0076183D02*
X0329068Y0076183D01*
X0330066Y0077181D02*
X0338975Y0077181D01*
X0339974Y0078180D02*
X0331065Y0078180D01*
X0332063Y0079178D02*
X0340972Y0079178D01*
X0341971Y0080177D02*
X0333062Y0080177D01*
X0334060Y0081176D02*
X0342969Y0081176D01*
X0343968Y0082174D02*
X0335059Y0082174D01*
X0336057Y0083173D02*
X0344966Y0083173D01*
X0345965Y0084171D02*
X0337056Y0084171D01*
X0338054Y0085170D02*
X0346963Y0085170D01*
X0347962Y0086168D02*
X0339053Y0086168D01*
X0340051Y0087167D02*
X0348960Y0087167D01*
X0344045Y0091161D02*
X0356476Y0091161D01*
X0356063Y0092159D02*
X0345044Y0092159D01*
X0346042Y0093158D02*
X0355988Y0093158D01*
X0355988Y0094156D02*
X0347041Y0094156D01*
X0348039Y0095155D02*
X0356395Y0095155D01*
X0356977Y0096153D02*
X0349038Y0096153D01*
X0350036Y0097152D02*
X0357976Y0097152D01*
X0357059Y0098150D02*
X0351035Y0098150D01*
X0345941Y0100147D02*
X0329502Y0100147D01*
X0329502Y0099149D02*
X0344942Y0099149D01*
X0343944Y0098150D02*
X0330351Y0098150D01*
X0330383Y0098119D02*
X0329502Y0098999D01*
X0329502Y0110949D01*
X0330208Y0110949D01*
X0333902Y0114643D01*
X0333902Y0115349D01*
X0339424Y0115349D01*
X0341442Y0117366D01*
X0348467Y0117366D01*
X0349233Y0118132D01*
X0349233Y0126301D01*
X0348467Y0127067D01*
X0338723Y0127067D01*
X0337957Y0126301D01*
X0337957Y0119276D01*
X0337845Y0119163D01*
X0333902Y0119163D01*
X0333902Y0119868D01*
X0330208Y0123563D01*
X0324983Y0123563D01*
X0321288Y0119868D01*
X0321288Y0114643D01*
X0324983Y0110949D01*
X0325688Y0110949D01*
X0325688Y0098999D01*
X0324808Y0098119D01*
X0324307Y0096910D01*
X0324307Y0095602D01*
X0324808Y0094393D01*
X0325733Y0093468D01*
X0326941Y0092968D01*
X0328249Y0092968D01*
X0329458Y0093468D01*
X0330383Y0094393D01*
X0330883Y0095602D01*
X0330883Y0096910D01*
X0330383Y0098119D01*
X0330783Y0097152D02*
X0342945Y0097152D01*
X0341947Y0096153D02*
X0330883Y0096153D01*
X0330698Y0095155D02*
X0340948Y0095155D01*
X0339950Y0094156D02*
X0330146Y0094156D01*
X0328708Y0093158D02*
X0338951Y0093158D01*
X0337953Y0092159D02*
X0300337Y0092159D01*
X0301335Y0093158D02*
X0326483Y0093158D01*
X0325045Y0094156D02*
X0302334Y0094156D01*
X0303145Y0094968D02*
X0304249Y0094968D01*
X0305458Y0095468D01*
X0306383Y0096393D01*
X0306883Y0097602D01*
X0306883Y0098910D01*
X0306383Y0100119D01*
X0305802Y0100699D01*
X0305802Y0135342D01*
X0339249Y0168789D01*
X0339249Y0169753D01*
X0340143Y0169753D01*
X0340909Y0170519D01*
X0340909Y0172349D01*
X0342989Y0172349D01*
X0342989Y0170762D01*
X0343755Y0169996D01*
X0349955Y0169996D01*
X0350595Y0170636D01*
X0351235Y0169996D01*
X0352428Y0169996D01*
X0352428Y0153825D01*
X0345748Y0147146D01*
X0341442Y0147146D01*
X0339424Y0149163D01*
X0333902Y0149163D01*
X0333902Y0149868D01*
X0330208Y0153563D01*
X0324983Y0153563D01*
X0321288Y0149868D01*
X0321288Y0144643D01*
X0324983Y0140949D01*
X0330208Y0140949D01*
X0333902Y0144643D01*
X0333902Y0145349D01*
X0337845Y0145349D01*
X0337957Y0145236D01*
X0337957Y0138211D01*
X0338723Y0137445D01*
X0348467Y0137445D01*
X0349233Y0138211D01*
X0349233Y0145236D01*
X0356242Y0152245D01*
X0356242Y0169996D01*
X0357436Y0169996D01*
X0358201Y0170762D01*
X0358201Y0177750D01*
X0357436Y0178516D01*
X0351235Y0178516D01*
X0350595Y0177876D01*
X0349955Y0178516D01*
X0343755Y0178516D01*
X0342989Y0177750D01*
X0342989Y0176163D01*
X0340909Y0176163D01*
X0340909Y0177507D01*
X0340143Y0178273D01*
X0340102Y0178273D01*
X0340102Y0179217D01*
X0341015Y0180130D01*
X0341721Y0180836D01*
X0342102Y0181757D01*
X0342102Y0185091D01*
X0342318Y0185181D01*
X0343670Y0186533D01*
X0344402Y0188300D01*
X0344402Y0190212D01*
X0343670Y0191979D01*
X0342318Y0193331D01*
X0341502Y0193669D01*
X0341502Y0194046D01*
X0337385Y0198163D01*
X0316805Y0198163D01*
X0315688Y0197046D01*
X0315688Y0197046D01*
X0313805Y0195163D01*
X0312688Y0194046D01*
X0312688Y0192961D01*
X0311586Y0194063D01*
X0307604Y0194063D01*
X0304788Y0191247D01*
X0304788Y0187265D01*
X0306918Y0185135D01*
X0300299Y0178516D01*
X0298235Y0178516D01*
X0297595Y0177876D01*
X0296955Y0178516D01*
X0295662Y0178516D01*
X0295662Y0178767D01*
X0300344Y0183449D01*
X0301344Y0184449D01*
X0301586Y0184449D01*
X0304402Y0187265D01*
X0304402Y0191247D01*
X0301586Y0194063D01*
X0297604Y0194063D01*
X0294788Y0191247D01*
X0294788Y0187265D01*
X0296918Y0185135D01*
X0292048Y0180264D01*
X0292048Y0178516D01*
X0290755Y0178516D01*
X0289989Y0177750D01*
X0289989Y0170762D01*
X0290755Y0169996D01*
X0296955Y0169996D01*
X0297595Y0170636D01*
X0298235Y0169996D01*
X0304436Y0169996D01*
X0305201Y0170762D01*
X0305201Y0177750D01*
X0304923Y0178028D01*
X0310344Y0183449D01*
X0311344Y0184449D01*
X0311586Y0184449D01*
X0312688Y0185551D01*
X0312688Y0184046D01*
X0309948Y0181306D01*
X0309948Y0178516D01*
X0308755Y0178516D01*
X0307989Y0177750D01*
X0307989Y0170762D01*
X0308755Y0169996D01*
X0314955Y0169996D01*
X0315595Y0170636D01*
X0316235Y0169996D01*
X0316780Y0169996D01*
X0227847Y0081063D01*
X0208426Y0081063D01*
X0208399Y0081129D01*
X0207468Y0082060D01*
X0206529Y0082449D01*
X0226344Y0082449D01*
X0227402Y0083507D01*
X0269402Y0125507D01*
X0269402Y0174801D01*
X0270318Y0175181D01*
X0271670Y0176533D01*
X0272402Y0178300D01*
X0272402Y0180212D01*
X0271670Y0181979D01*
X0270318Y0183331D01*
X0268551Y0184063D01*
X0266639Y0184063D01*
X0264872Y0183331D01*
X0263520Y0181979D01*
X0262788Y0180212D01*
X0262788Y0178300D01*
X0263520Y0176533D01*
X0264872Y0175181D01*
X0265788Y0174801D01*
X0265788Y0127004D01*
X0224847Y0086063D01*
X0205529Y0086063D01*
X0206468Y0086452D01*
X0207399Y0087383D01*
X0207902Y0088598D01*
X0207902Y0089914D01*
X0207399Y0091129D01*
X0206468Y0092060D01*
X0206402Y0092087D01*
X0206402Y0109004D01*
X0149710Y0165697D01*
X0144648Y0165697D01*
X0144361Y0165984D01*
X0137373Y0165984D01*
X0136607Y0165219D01*
X0136607Y0158120D01*
X0135428Y0158120D01*
X0132502Y0161046D01*
X0132502Y0180046D01*
X0127502Y0185046D01*
X0126385Y0186163D01*
X0094355Y0186163D01*
X0085205Y0177013D01*
X0083937Y0177013D01*
X0082722Y0176510D01*
X0081792Y0175579D01*
X0081288Y0174364D01*
X0081288Y0173048D01*
X0081792Y0171833D01*
X0082722Y0170902D01*
X0083937Y0170399D01*
X0084357Y0170399D01*
X0093348Y0161408D01*
X0093348Y0149862D01*
X0092101Y0149862D01*
X0091335Y0149097D01*
X0091335Y0148503D01*
X0090837Y0148503D01*
X0089915Y0148121D01*
X0084175Y0142381D01*
X0083470Y0141676D01*
X0083088Y0140755D01*
X0083088Y0139247D01*
X0082488Y0138647D01*
X0082488Y0132764D01*
X0082823Y0132429D01*
X0080213Y0132429D01*
X0067347Y0119563D01*
X0065816Y0119563D01*
X0065816Y0122335D01*
X0065906Y0122492D01*
X0066009Y0122873D01*
X0066009Y0124055D01*
X0058406Y0124055D01*
X0050804Y0124055D01*
X0050804Y0122873D01*
X0050906Y0122492D01*
X0050997Y0122335D01*
X0050997Y0119380D01*
X0051046Y0119331D01*
X0050997Y0119282D01*
X0050997Y0116230D01*
X0051046Y0116181D01*
X0050997Y0116132D01*
X0050997Y0113081D01*
X0051046Y0113031D01*
X0050997Y0112982D01*
X0050997Y0109931D01*
X0051762Y0109165D01*
X0065050Y0109165D01*
X0065234Y0109350D01*
X0075119Y0109350D01*
X0084868Y0119099D01*
X0087937Y0119099D01*
X0088702Y0119864D01*
X0088702Y0120299D01*
X0091564Y0120299D01*
X0091564Y0114833D01*
X0092329Y0114067D01*
X0102861Y0114067D01*
X0103627Y0114833D01*
X0103627Y0117591D01*
X0106454Y0117591D01*
X0109335Y0114710D01*
X0109335Y0110896D01*
X0109870Y0110361D01*
X0109721Y0110275D01*
X0109442Y0109996D01*
X0109245Y0109654D01*
X0109142Y0109272D01*
X0109142Y0107016D01*
X0113095Y0107016D01*
X0113095Y0106016D01*
X0109142Y0106016D01*
X0109142Y0103759D01*
X0109245Y0103378D01*
X0109442Y0103036D01*
X0109721Y0102756D01*
X0110063Y0102559D01*
X0110445Y0102457D01*
X0113095Y0102457D01*
X0113095Y0106016D01*
X0114095Y0106016D01*
X0114095Y0107016D01*
X0118048Y0107016D01*
X0118048Y0109272D01*
X0117946Y0109654D01*
X0117748Y0109996D01*
X0117469Y0110275D01*
X0117320Y0110361D01*
X0117855Y0110896D01*
X0117855Y0117097D01*
X0117089Y0117862D01*
X0113275Y0117862D01*
X0108913Y0122224D01*
X0107991Y0122605D01*
X0103627Y0122605D01*
X0103627Y0125364D01*
X0103542Y0125449D01*
X0118344Y0125449D01*
X0119402Y0126507D01*
X0121402Y0128507D01*
X0121402Y0132004D01*
X0120344Y0133063D01*
X0118418Y0134988D01*
X0116583Y0134988D01*
X0116583Y0136776D01*
X0116674Y0136933D01*
X0116776Y0137314D01*
X0116776Y0138299D01*
X0112324Y0138299D01*
X0112324Y0138299D01*
X0116776Y0138299D01*
X0116776Y0139284D01*
X0116674Y0139666D01*
X0116583Y0139823D01*
X0116583Y0144453D01*
X0116674Y0144610D01*
X0116776Y0144991D01*
X0116776Y0145976D01*
X0112324Y0145976D01*
X0112324Y0145976D01*
X0116776Y0145976D01*
X0116776Y0146728D01*
X0119623Y0146728D01*
X0125344Y0152449D01*
X0126402Y0153507D01*
X0126402Y0175425D01*
X0126468Y0175452D01*
X0127399Y0176383D01*
X0127902Y0177598D01*
X0127902Y0178914D01*
X0127663Y0179491D01*
X0128688Y0178466D01*
X0128688Y0159466D01*
X0129805Y0158349D01*
X0133848Y0154306D01*
X0136607Y0154306D01*
X0136607Y0150059D01*
X0136516Y0149902D01*
X0136414Y0149520D01*
X0136414Y0148535D01*
X0136414Y0147551D01*
X0136516Y0147169D01*
X0136607Y0147012D01*
X0136607Y0129293D01*
X0137373Y0128528D01*
X0144361Y0128528D01*
X0145127Y0129293D01*
X0145127Y0147012D01*
X0145217Y0147169D01*
X0145320Y0147551D01*
X0145320Y0148535D01*
X0140867Y0148535D01*
X0140867Y0148535D01*
X0130875Y0148535D01*
X0123595Y0141256D01*
X0116583Y0141086D02*
X0136607Y0141086D01*
X0136607Y0140088D02*
X0116583Y0140088D01*
X0116776Y0139089D02*
X0136607Y0139089D01*
X0136607Y0138091D02*
X0116776Y0138091D01*
X0116717Y0137092D02*
X0136607Y0137092D01*
X0136607Y0136094D02*
X0116583Y0136094D01*
X0116583Y0135095D02*
X0136607Y0135095D01*
X0136607Y0134097D02*
X0119310Y0134097D01*
X0120309Y0133098D02*
X0136607Y0133098D01*
X0136607Y0132100D02*
X0121307Y0132100D01*
X0121402Y0131101D02*
X0136607Y0131101D01*
X0136607Y0130103D02*
X0121402Y0130103D01*
X0121402Y0129104D02*
X0136796Y0129104D01*
X0144937Y0129104D02*
X0152788Y0129104D01*
X0152788Y0128106D02*
X0121000Y0128106D01*
X0120002Y0127107D02*
X0152788Y0127107D01*
X0152788Y0126109D02*
X0119003Y0126109D01*
X0117595Y0127256D02*
X0082595Y0127256D01*
X0069946Y0114606D01*
X0058406Y0114606D01*
X0058406Y0117756D02*
X0068095Y0117756D01*
X0080961Y0130622D01*
X0112323Y0130622D01*
X0112323Y0133181D02*
X0117670Y0133181D01*
X0119595Y0131256D01*
X0119595Y0129256D01*
X0117595Y0127256D01*
X0116847Y0129063D02*
X0116353Y0129063D01*
X0116583Y0129293D01*
X0116583Y0131374D01*
X0116921Y0131374D01*
X0117788Y0130507D01*
X0117788Y0130004D01*
X0116847Y0129063D01*
X0116888Y0129104D02*
X0116394Y0129104D01*
X0116583Y0130103D02*
X0117788Y0130103D01*
X0117194Y0131101D02*
X0116583Y0131101D01*
X0108064Y0132429D02*
X0088367Y0132429D01*
X0088702Y0132764D01*
X0088702Y0138647D01*
X0088117Y0139232D01*
X0091558Y0142673D01*
X0091975Y0142256D01*
X0091335Y0141616D01*
X0091335Y0135415D01*
X0092101Y0134650D01*
X0099089Y0134650D01*
X0099855Y0135415D01*
X0099855Y0136449D01*
X0103344Y0136449D01*
X0104402Y0137507D01*
X0105946Y0139051D01*
X0107871Y0139051D01*
X0107871Y0138299D01*
X0107871Y0137314D01*
X0107973Y0136933D01*
X0108064Y0136776D01*
X0108064Y0132429D01*
X0108064Y0133098D02*
X0088702Y0133098D01*
X0088702Y0134097D02*
X0108064Y0134097D01*
X0108064Y0135095D02*
X0099535Y0135095D01*
X0099855Y0136094D02*
X0108064Y0136094D01*
X0107930Y0137092D02*
X0103987Y0137092D01*
X0104985Y0138091D02*
X0107871Y0138091D01*
X0107871Y0138299D02*
X0112323Y0138299D01*
X0112323Y0138299D01*
X0107871Y0138299D01*
X0105198Y0140858D02*
X0102595Y0138256D01*
X0095855Y0138256D01*
X0099855Y0140063D02*
X0099855Y0141616D01*
X0099215Y0142256D01*
X0099855Y0142896D01*
X0099855Y0144349D01*
X0101805Y0144349D01*
X0103969Y0142185D01*
X0101847Y0140063D01*
X0099855Y0140063D01*
X0099855Y0140088D02*
X0101871Y0140088D01*
X0102870Y0141086D02*
X0099855Y0141086D01*
X0099386Y0142085D02*
X0103868Y0142085D01*
X0103071Y0143083D02*
X0099855Y0143083D01*
X0099855Y0144082D02*
X0102072Y0144082D01*
X0104502Y0147046D02*
X0103385Y0148163D01*
X0099855Y0148163D01*
X0099855Y0149097D01*
X0099089Y0149862D01*
X0098362Y0149862D01*
X0098362Y0162945D01*
X0097980Y0163866D01*
X0087902Y0173944D01*
X0087902Y0174316D01*
X0095935Y0182349D01*
X0124805Y0182349D01*
X0125830Y0181324D01*
X0125253Y0181563D01*
X0123937Y0181563D01*
X0122722Y0181060D01*
X0121792Y0180129D01*
X0121288Y0178914D01*
X0121288Y0177598D01*
X0121792Y0176383D01*
X0122722Y0175452D01*
X0122788Y0175425D01*
X0122788Y0174189D01*
X0122399Y0175129D01*
X0121468Y0176060D01*
X0120253Y0176563D01*
X0118937Y0176563D01*
X0117722Y0176060D01*
X0116792Y0175129D01*
X0116288Y0173914D01*
X0116288Y0172598D01*
X0116792Y0171383D01*
X0117722Y0170452D01*
X0117788Y0170425D01*
X0117788Y0154004D01*
X0116685Y0152902D01*
X0116583Y0152902D01*
X0116583Y0154689D01*
X0116674Y0154846D01*
X0116776Y0155228D01*
X0116776Y0156213D01*
X0116776Y0157197D01*
X0116674Y0157579D01*
X0116583Y0157736D01*
X0116583Y0165219D01*
X0115818Y0165984D01*
X0108829Y0165984D01*
X0108064Y0165219D01*
X0108064Y0157736D01*
X0107973Y0157579D01*
X0107871Y0157197D01*
X0107871Y0156213D01*
X0112323Y0156213D01*
X0112323Y0156213D01*
X0107871Y0156213D01*
X0107871Y0155228D01*
X0107973Y0154846D01*
X0108064Y0154689D01*
X0108064Y0147500D01*
X0107973Y0147343D01*
X0107871Y0146961D01*
X0107871Y0145976D01*
X0107871Y0145324D01*
X0106224Y0145324D01*
X0104502Y0147046D01*
X0104471Y0147077D02*
X0107902Y0147077D01*
X0107871Y0146079D02*
X0105469Y0146079D01*
X0105595Y0148256D02*
X0107895Y0145956D01*
X0112303Y0145956D01*
X0112323Y0145976D01*
X0107871Y0145976D01*
X0112323Y0145976D01*
X0112323Y0145976D01*
X0112323Y0148535D02*
X0118875Y0148535D01*
X0124595Y0154256D01*
X0124595Y0178256D01*
X0121522Y0177033D02*
X0090619Y0177033D01*
X0091617Y0178031D02*
X0121288Y0178031D01*
X0121336Y0179030D02*
X0092616Y0179030D01*
X0093614Y0180028D02*
X0121750Y0180028D01*
X0122689Y0181027D02*
X0094613Y0181027D01*
X0095611Y0182025D02*
X0125129Y0182025D01*
X0127527Y0185021D02*
X0245258Y0185021D01*
X0244872Y0185181D02*
X0246639Y0184449D01*
X0248551Y0184449D01*
X0250318Y0185181D01*
X0251670Y0186533D01*
X0252402Y0188300D01*
X0252402Y0190212D01*
X0251670Y0191979D01*
X0250318Y0193331D01*
X0248551Y0194063D01*
X0246639Y0194063D01*
X0244872Y0193331D01*
X0243520Y0191979D01*
X0242788Y0190212D01*
X0242788Y0188300D01*
X0243520Y0186533D01*
X0244872Y0185181D01*
X0244034Y0186019D02*
X0126529Y0186019D01*
X0128526Y0184022D02*
X0245563Y0184022D01*
X0245604Y0184063D02*
X0242788Y0181247D01*
X0242788Y0177265D01*
X0245604Y0174449D01*
X0249586Y0174449D01*
X0252402Y0177265D01*
X0252402Y0181247D01*
X0249586Y0184063D01*
X0245604Y0184063D01*
X0244565Y0183024D02*
X0129524Y0183024D01*
X0130523Y0182025D02*
X0243566Y0182025D01*
X0242788Y0181027D02*
X0131521Y0181027D01*
X0132502Y0180028D02*
X0242788Y0180028D01*
X0242788Y0179030D02*
X0132502Y0179030D01*
X0132502Y0178031D02*
X0242788Y0178031D01*
X0243020Y0177033D02*
X0132502Y0177033D01*
X0132502Y0176034D02*
X0244019Y0176034D01*
X0245017Y0175036D02*
X0132502Y0175036D01*
X0132502Y0174037D02*
X0265788Y0174037D01*
X0265788Y0173039D02*
X0132502Y0173039D01*
X0132502Y0172040D02*
X0265788Y0172040D01*
X0265788Y0171042D02*
X0132502Y0171042D01*
X0132502Y0170043D02*
X0265788Y0170043D01*
X0265788Y0169045D02*
X0132502Y0169045D01*
X0132502Y0168046D02*
X0265788Y0168046D01*
X0265788Y0167047D02*
X0132502Y0167047D01*
X0132502Y0166049D02*
X0265788Y0166049D01*
X0265788Y0165050D02*
X0150356Y0165050D01*
X0151355Y0164052D02*
X0265788Y0164052D01*
X0265788Y0163053D02*
X0152353Y0163053D01*
X0153352Y0162055D02*
X0265788Y0162055D01*
X0265788Y0161056D02*
X0154350Y0161056D01*
X0155349Y0160058D02*
X0265788Y0160058D01*
X0265788Y0159059D02*
X0156347Y0159059D01*
X0157346Y0158061D02*
X0265788Y0158061D01*
X0265788Y0157062D02*
X0158344Y0157062D01*
X0159343Y0156064D02*
X0265788Y0156064D01*
X0265788Y0155065D02*
X0160341Y0155065D01*
X0161340Y0154067D02*
X0265788Y0154067D01*
X0265788Y0153068D02*
X0162338Y0153068D01*
X0163337Y0152070D02*
X0265788Y0152070D01*
X0265788Y0151071D02*
X0164335Y0151071D01*
X0165334Y0150073D02*
X0265788Y0150073D01*
X0265788Y0149074D02*
X0166332Y0149074D01*
X0167331Y0148076D02*
X0265788Y0148076D01*
X0265788Y0147077D02*
X0168329Y0147077D01*
X0169328Y0146079D02*
X0265788Y0146079D01*
X0265788Y0145080D02*
X0170326Y0145080D01*
X0171325Y0144082D02*
X0265788Y0144082D01*
X0265788Y0143083D02*
X0172323Y0143083D01*
X0173322Y0142085D02*
X0265788Y0142085D01*
X0265788Y0141086D02*
X0174320Y0141086D01*
X0175319Y0140088D02*
X0265788Y0140088D01*
X0265788Y0139089D02*
X0176317Y0139089D01*
X0177316Y0138091D02*
X0265788Y0138091D01*
X0265788Y0137092D02*
X0178314Y0137092D01*
X0179313Y0136094D02*
X0265788Y0136094D01*
X0265788Y0135095D02*
X0180312Y0135095D01*
X0181310Y0134097D02*
X0265788Y0134097D01*
X0265788Y0133098D02*
X0182309Y0133098D01*
X0183307Y0132100D02*
X0265788Y0132100D01*
X0265788Y0131101D02*
X0184306Y0131101D01*
X0185304Y0130103D02*
X0265788Y0130103D01*
X0265788Y0129104D02*
X0186303Y0129104D01*
X0187301Y0128106D02*
X0265788Y0128106D01*
X0265788Y0127107D02*
X0188300Y0127107D01*
X0189298Y0126109D02*
X0264892Y0126109D01*
X0263894Y0125110D02*
X0190297Y0125110D01*
X0191295Y0124112D02*
X0262895Y0124112D01*
X0261897Y0123113D02*
X0192294Y0123113D01*
X0193292Y0122114D02*
X0260898Y0122114D01*
X0259900Y0121116D02*
X0194291Y0121116D01*
X0195289Y0120117D02*
X0258901Y0120117D01*
X0257903Y0119119D02*
X0196288Y0119119D01*
X0197286Y0118120D02*
X0256904Y0118120D01*
X0255906Y0117122D02*
X0198285Y0117122D01*
X0199283Y0116123D02*
X0254907Y0116123D01*
X0253909Y0115125D02*
X0200282Y0115125D01*
X0201280Y0114126D02*
X0252910Y0114126D01*
X0251912Y0113128D02*
X0202279Y0113128D01*
X0203277Y0112129D02*
X0250913Y0112129D01*
X0249914Y0111131D02*
X0204276Y0111131D01*
X0205274Y0110132D02*
X0248916Y0110132D01*
X0247917Y0109134D02*
X0206273Y0109134D01*
X0206402Y0108135D02*
X0246919Y0108135D01*
X0245920Y0107137D02*
X0206402Y0107137D01*
X0206402Y0106138D02*
X0244922Y0106138D01*
X0243923Y0105140D02*
X0206402Y0105140D01*
X0206402Y0104141D02*
X0242925Y0104141D01*
X0241926Y0103143D02*
X0206402Y0103143D01*
X0206402Y0102144D02*
X0240928Y0102144D01*
X0239929Y0101146D02*
X0206402Y0101146D01*
X0206402Y0100147D02*
X0238931Y0100147D01*
X0237932Y0099149D02*
X0206402Y0099149D01*
X0206402Y0098150D02*
X0236934Y0098150D01*
X0235935Y0097152D02*
X0206402Y0097152D01*
X0206402Y0096153D02*
X0234937Y0096153D01*
X0233938Y0095155D02*
X0206402Y0095155D01*
X0206402Y0094156D02*
X0232940Y0094156D01*
X0231941Y0093158D02*
X0206402Y0093158D01*
X0206402Y0092159D02*
X0230943Y0092159D01*
X0229944Y0091161D02*
X0207367Y0091161D01*
X0207799Y0090162D02*
X0228946Y0090162D01*
X0227947Y0089164D02*
X0207902Y0089164D01*
X0207723Y0088165D02*
X0226949Y0088165D01*
X0225950Y0087167D02*
X0207183Y0087167D01*
X0205782Y0086168D02*
X0224952Y0086168D01*
X0225595Y0084256D02*
X0197595Y0084256D01*
X0197595Y0099256D01*
X0191335Y0105516D01*
X0166595Y0105516D01*
X0162335Y0105140D02*
X0156402Y0105140D01*
X0156402Y0105004D02*
X0156402Y0148893D01*
X0164788Y0140507D01*
X0164788Y0116862D01*
X0163101Y0116862D01*
X0162335Y0116097D01*
X0162335Y0109896D01*
X0162975Y0109256D01*
X0162335Y0108616D01*
X0162335Y0102415D01*
X0163101Y0101650D01*
X0170089Y0101650D01*
X0170855Y0102415D01*
X0170855Y0103709D01*
X0190587Y0103709D01*
X0195788Y0098507D01*
X0195788Y0087087D01*
X0195722Y0087060D01*
X0194792Y0086129D01*
X0194764Y0086063D01*
X0180847Y0086063D01*
X0163319Y0068536D01*
X0163253Y0068563D01*
X0161937Y0068563D01*
X0160722Y0068060D01*
X0159792Y0067129D01*
X0159288Y0065914D01*
X0159288Y0064598D01*
X0159792Y0063383D01*
X0160722Y0062452D01*
X0161937Y0061949D01*
X0163253Y0061949D01*
X0164468Y0062452D01*
X0165399Y0063383D01*
X0165902Y0064598D01*
X0165902Y0065914D01*
X0165875Y0065980D01*
X0182344Y0082449D01*
X0194764Y0082449D01*
X0194792Y0082383D01*
X0195722Y0081452D01*
X0196937Y0080949D01*
X0198253Y0080949D01*
X0199468Y0081452D01*
X0200399Y0082383D01*
X0200426Y0082449D01*
X0204662Y0082449D01*
X0203722Y0082060D01*
X0202792Y0081129D01*
X0202288Y0079914D01*
X0202288Y0078598D01*
X0202792Y0077383D01*
X0203722Y0076452D01*
X0204937Y0075949D01*
X0206253Y0075949D01*
X0207468Y0076452D01*
X0208399Y0077383D01*
X0208426Y0077449D01*
X0211662Y0077449D01*
X0210722Y0077060D01*
X0209792Y0076129D01*
X0209288Y0074914D01*
X0209288Y0073598D01*
X0209792Y0072383D01*
X0210722Y0071452D01*
X0211937Y0070949D01*
X0213253Y0070949D01*
X0214468Y0071452D01*
X0215399Y0072383D01*
X0215426Y0072449D01*
X0233344Y0072449D01*
X0330648Y0169753D01*
X0332663Y0169753D01*
X0333302Y0170393D01*
X0333942Y0169753D01*
X0333971Y0169753D01*
X0302681Y0138463D01*
X0301388Y0137170D01*
X0301388Y0100699D01*
X0300808Y0100119D01*
X0300307Y0098910D01*
X0300307Y0097806D01*
X0269764Y0067263D01*
X0175265Y0067263D01*
X0174468Y0068060D01*
X0173253Y0068563D01*
X0171937Y0068563D01*
X0170722Y0068060D01*
X0169792Y0067129D01*
X0169288Y0065914D01*
X0169288Y0064598D01*
X0169792Y0063383D01*
X0170722Y0062452D01*
X0171937Y0061949D01*
X0173253Y0061949D01*
X0174468Y0062452D01*
X0175265Y0063249D01*
X0271427Y0063249D01*
X0303145Y0094968D01*
X0304701Y0095155D02*
X0324492Y0095155D01*
X0324307Y0096153D02*
X0306143Y0096153D01*
X0306697Y0097152D02*
X0324407Y0097152D01*
X0324839Y0098150D02*
X0306883Y0098150D01*
X0306784Y0099149D02*
X0325688Y0099149D01*
X0325688Y0100147D02*
X0306354Y0100147D01*
X0305802Y0101146D02*
X0325688Y0101146D01*
X0325688Y0102144D02*
X0305802Y0102144D01*
X0305802Y0103143D02*
X0325688Y0103143D01*
X0325688Y0104141D02*
X0305802Y0104141D01*
X0305802Y0105140D02*
X0325688Y0105140D01*
X0325688Y0106138D02*
X0305802Y0106138D01*
X0305802Y0107137D02*
X0325688Y0107137D01*
X0325688Y0108135D02*
X0305802Y0108135D01*
X0305802Y0109134D02*
X0325688Y0109134D01*
X0325688Y0110132D02*
X0305802Y0110132D01*
X0305802Y0111131D02*
X0324801Y0111131D01*
X0323802Y0112129D02*
X0305802Y0112129D01*
X0305802Y0113128D02*
X0322804Y0113128D01*
X0321805Y0114126D02*
X0305802Y0114126D01*
X0305802Y0115125D02*
X0321288Y0115125D01*
X0321288Y0116123D02*
X0305802Y0116123D01*
X0305802Y0117122D02*
X0321288Y0117122D01*
X0321288Y0118120D02*
X0305802Y0118120D01*
X0305802Y0119119D02*
X0321288Y0119119D01*
X0321537Y0120117D02*
X0305802Y0120117D01*
X0305802Y0121116D02*
X0322536Y0121116D01*
X0323534Y0122114D02*
X0305802Y0122114D01*
X0305802Y0123113D02*
X0324533Y0123113D01*
X0330658Y0123113D02*
X0337957Y0123113D01*
X0337957Y0124112D02*
X0305802Y0124112D01*
X0305802Y0125110D02*
X0337957Y0125110D01*
X0337957Y0126109D02*
X0305802Y0126109D01*
X0305802Y0127107D02*
X0415595Y0127107D01*
X0415595Y0126109D02*
X0349233Y0126109D01*
X0349233Y0125110D02*
X0415595Y0125110D01*
X0415595Y0124112D02*
X0349233Y0124112D01*
X0349233Y0123113D02*
X0415595Y0123113D01*
X0415595Y0122114D02*
X0380634Y0122114D01*
X0381740Y0121116D02*
X0415595Y0121116D01*
X0415595Y0120117D02*
X0383279Y0120117D01*
X0384515Y0119119D02*
X0415595Y0119119D01*
X0415595Y0118120D02*
X0385768Y0118120D01*
X0387021Y0117122D02*
X0415595Y0117122D01*
X0415595Y0116123D02*
X0388274Y0116123D01*
X0388980Y0115125D02*
X0415595Y0115125D01*
X0415595Y0114126D02*
X0389133Y0114126D01*
X0389102Y0113128D02*
X0415595Y0113128D01*
X0415595Y0112129D02*
X0389102Y0112129D01*
X0389102Y0111131D02*
X0415595Y0111131D01*
X0415595Y0110132D02*
X0389102Y0110132D01*
X0389102Y0109134D02*
X0415595Y0109134D01*
X0415595Y0108135D02*
X0389102Y0108135D01*
X0389102Y0107137D02*
X0415595Y0107137D01*
X0415595Y0106138D02*
X0389102Y0106138D01*
X0389102Y0105140D02*
X0415595Y0105140D01*
X0415595Y0104141D02*
X0389102Y0104141D01*
X0389102Y0103143D02*
X0415595Y0103143D01*
X0415595Y0102144D02*
X0389102Y0102144D01*
X0389102Y0101146D02*
X0415595Y0101146D01*
X0415595Y0100147D02*
X0389102Y0100147D01*
X0389102Y0099149D02*
X0415595Y0099149D01*
X0415595Y0098150D02*
X0389102Y0098150D01*
X0389102Y0097152D02*
X0415595Y0097152D01*
X0415595Y0096153D02*
X0389102Y0096153D01*
X0389102Y0095155D02*
X0415595Y0095155D01*
X0415595Y0094156D02*
X0389102Y0094156D01*
X0389102Y0093158D02*
X0415595Y0093158D01*
X0415595Y0092159D02*
X0389102Y0092159D01*
X0389102Y0091161D02*
X0415595Y0091161D01*
X0415595Y0090162D02*
X0389102Y0090162D01*
X0389102Y0089164D02*
X0415595Y0089164D01*
X0415595Y0088165D02*
X0389102Y0088165D01*
X0389102Y0087167D02*
X0415595Y0087167D01*
X0415595Y0086168D02*
X0389102Y0086168D01*
X0389102Y0085170D02*
X0415595Y0085170D01*
X0415595Y0084171D02*
X0389102Y0084171D01*
X0389102Y0083173D02*
X0415595Y0083173D01*
X0415595Y0082174D02*
X0389102Y0082174D01*
X0388861Y0081176D02*
X0415595Y0081176D01*
X0415595Y0080177D02*
X0388062Y0080177D01*
X0387063Y0079178D02*
X0415595Y0079178D01*
X0415595Y0078180D02*
X0386065Y0078180D01*
X0385066Y0077181D02*
X0415595Y0077181D01*
X0415595Y0076183D02*
X0384068Y0076183D01*
X0381586Y0075184D02*
X0415595Y0075184D01*
X0415595Y0074186D02*
X0380263Y0074186D01*
X0379143Y0072990D02*
X0380817Y0072296D01*
X0382098Y0071015D01*
X0382792Y0069341D01*
X0382792Y0067529D01*
X0382098Y0065854D01*
X0380817Y0064573D01*
X0379143Y0063880D01*
X0370835Y0063880D01*
X0369161Y0064573D01*
X0367879Y0065854D01*
X0367186Y0067529D01*
X0367186Y0069341D01*
X0367879Y0071015D01*
X0369161Y0072296D01*
X0370835Y0072990D01*
X0379143Y0072990D01*
X0380924Y0072189D02*
X0415595Y0072189D01*
X0415595Y0073187D02*
X0342072Y0073187D01*
X0341074Y0072189D02*
X0369053Y0072189D01*
X0368055Y0071190D02*
X0340075Y0071190D01*
X0339077Y0070192D02*
X0367538Y0070192D01*
X0367186Y0069193D02*
X0338078Y0069193D01*
X0337080Y0068195D02*
X0367186Y0068195D01*
X0367323Y0067196D02*
X0336081Y0067196D01*
X0335083Y0066198D02*
X0367737Y0066198D01*
X0368534Y0065199D02*
X0334084Y0065199D01*
X0333086Y0064201D02*
X0370059Y0064201D01*
X0379919Y0064201D02*
X0415595Y0064201D01*
X0415595Y0065199D02*
X0381443Y0065199D01*
X0382241Y0066198D02*
X0415595Y0066198D01*
X0415595Y0067196D02*
X0382654Y0067196D01*
X0382792Y0068195D02*
X0415595Y0068195D01*
X0415595Y0069193D02*
X0382792Y0069193D01*
X0382439Y0070192D02*
X0415595Y0070192D01*
X0415595Y0071190D02*
X0381923Y0071190D01*
X0369715Y0074186D02*
X0343071Y0074186D01*
X0344069Y0075184D02*
X0368392Y0075184D01*
X0367678Y0076183D02*
X0345068Y0076183D01*
X0346066Y0077181D02*
X0367264Y0077181D01*
X0367186Y0078180D02*
X0347065Y0078180D01*
X0348063Y0079178D02*
X0367186Y0079178D01*
X0367597Y0080177D02*
X0349062Y0080177D01*
X0350060Y0081176D02*
X0358711Y0081176D01*
X0357288Y0082174D02*
X0351059Y0082174D01*
X0356863Y0088165D02*
X0341050Y0088165D01*
X0342048Y0089164D02*
X0357861Y0089164D01*
X0357174Y0090162D02*
X0343047Y0090162D01*
X0336954Y0091161D02*
X0299338Y0091161D01*
X0298340Y0090162D02*
X0335956Y0090162D01*
X0334957Y0089164D02*
X0297341Y0089164D01*
X0296343Y0088165D02*
X0333959Y0088165D01*
X0332960Y0087167D02*
X0295344Y0087167D01*
X0294346Y0086168D02*
X0331962Y0086168D01*
X0330963Y0085170D02*
X0293347Y0085170D01*
X0292349Y0084171D02*
X0329965Y0084171D01*
X0328966Y0083173D02*
X0291350Y0083173D01*
X0290352Y0082174D02*
X0327968Y0082174D01*
X0326969Y0081176D02*
X0289353Y0081176D01*
X0288355Y0080177D02*
X0325971Y0080177D01*
X0324972Y0079178D02*
X0287356Y0079178D01*
X0286358Y0078180D02*
X0323974Y0078180D01*
X0322975Y0077181D02*
X0285359Y0077181D01*
X0284361Y0076183D02*
X0321977Y0076183D01*
X0320978Y0075184D02*
X0283362Y0075184D01*
X0282364Y0074186D02*
X0319980Y0074186D01*
X0318981Y0073187D02*
X0281365Y0073187D01*
X0280367Y0072189D02*
X0317983Y0072189D01*
X0316984Y0071190D02*
X0279368Y0071190D01*
X0278370Y0070192D02*
X0315986Y0070192D01*
X0314987Y0069193D02*
X0277371Y0069193D01*
X0276373Y0068195D02*
X0313989Y0068195D01*
X0312990Y0067196D02*
X0275374Y0067196D01*
X0274376Y0066198D02*
X0311992Y0066198D01*
X0310993Y0065199D02*
X0273377Y0065199D01*
X0272379Y0064201D02*
X0309995Y0064201D01*
X0308996Y0063202D02*
X0175218Y0063202D01*
X0173869Y0062204D02*
X0307998Y0062204D01*
X0306999Y0061205D02*
X0155191Y0061205D01*
X0156190Y0060207D02*
X0306000Y0060207D01*
X0305002Y0059208D02*
X0157188Y0059208D01*
X0158187Y0058210D02*
X0304003Y0058210D01*
X0303005Y0057211D02*
X0159185Y0057211D01*
X0160184Y0056213D02*
X0302006Y0056213D01*
X0301008Y0055214D02*
X0161182Y0055214D01*
X0162181Y0054216D02*
X0300009Y0054216D01*
X0299011Y0053217D02*
X0163179Y0053217D01*
X0159169Y0046228D02*
X0308021Y0046228D01*
X0311118Y0042234D02*
X0395722Y0042234D01*
X0395990Y0043232D02*
X0312117Y0043232D01*
X0313115Y0044231D02*
X0396566Y0044231D01*
X0397142Y0045229D02*
X0314114Y0045229D01*
X0315112Y0046228D02*
X0397990Y0046228D01*
X0398989Y0047226D02*
X0316111Y0047226D01*
X0317109Y0048225D02*
X0400515Y0048225D01*
X0402970Y0049223D02*
X0318108Y0049223D01*
X0319106Y0050222D02*
X0415595Y0050222D01*
X0415595Y0051220D02*
X0320105Y0051220D01*
X0321103Y0052219D02*
X0415595Y0052219D01*
X0415595Y0053217D02*
X0322102Y0053217D01*
X0323100Y0054216D02*
X0415595Y0054216D01*
X0415595Y0055214D02*
X0324099Y0055214D01*
X0325098Y0056213D02*
X0415595Y0056213D01*
X0415595Y0057211D02*
X0326096Y0057211D01*
X0327095Y0058210D02*
X0415595Y0058210D01*
X0415595Y0059208D02*
X0328093Y0059208D01*
X0329092Y0060207D02*
X0415595Y0060207D01*
X0415595Y0061205D02*
X0330090Y0061205D01*
X0331089Y0062204D02*
X0415595Y0062204D01*
X0415595Y0063202D02*
X0332087Y0063202D01*
X0362479Y0081176D02*
X0368197Y0081176D01*
X0369246Y0082174D02*
X0363903Y0082174D01*
X0364667Y0083173D02*
X0383966Y0083173D01*
X0384088Y0084171D02*
X0365080Y0084171D01*
X0365202Y0085170D02*
X0384088Y0085170D01*
X0384088Y0086168D02*
X0365202Y0086168D01*
X0364843Y0087167D02*
X0384088Y0087167D01*
X0384088Y0088165D02*
X0364327Y0088165D01*
X0363329Y0089164D02*
X0384088Y0089164D01*
X0384088Y0090162D02*
X0364017Y0090162D01*
X0364213Y0096153D02*
X0384088Y0096153D01*
X0384088Y0097152D02*
X0363215Y0097152D01*
X0364131Y0098150D02*
X0384088Y0098150D01*
X0384088Y0099149D02*
X0364761Y0099149D01*
X0365175Y0100147D02*
X0384088Y0100147D01*
X0384088Y0101146D02*
X0365202Y0101146D01*
X0365162Y0102144D02*
X0384088Y0102144D01*
X0384088Y0103143D02*
X0364748Y0103143D01*
X0364099Y0104141D02*
X0369961Y0104141D01*
X0369161Y0104473D02*
X0370835Y0103780D01*
X0379143Y0103780D01*
X0380817Y0104473D01*
X0382098Y0105754D01*
X0382792Y0107429D01*
X0382792Y0109241D01*
X0382098Y0110915D01*
X0380817Y0112196D01*
X0379143Y0112890D01*
X0370835Y0112890D01*
X0369161Y0112196D01*
X0367879Y0110915D01*
X0367186Y0109241D01*
X0367186Y0107429D01*
X0367879Y0105754D01*
X0369161Y0104473D01*
X0368494Y0105140D02*
X0362953Y0105140D01*
X0358237Y0105140D02*
X0329502Y0105140D01*
X0329502Y0106138D02*
X0367720Y0106138D01*
X0367307Y0107137D02*
X0329502Y0107137D01*
X0329502Y0108135D02*
X0367186Y0108135D01*
X0367186Y0109134D02*
X0329502Y0109134D01*
X0329502Y0110132D02*
X0367555Y0110132D01*
X0368095Y0111131D02*
X0330390Y0111131D01*
X0331388Y0112129D02*
X0369094Y0112129D01*
X0369617Y0114126D02*
X0333385Y0114126D01*
X0333902Y0115125D02*
X0368351Y0115125D01*
X0367661Y0116123D02*
X0340199Y0116123D01*
X0341198Y0117122D02*
X0367247Y0117122D01*
X0367186Y0118120D02*
X0349222Y0118120D01*
X0349233Y0119119D02*
X0367200Y0119119D01*
X0367614Y0120117D02*
X0349233Y0120117D01*
X0349233Y0121116D02*
X0368238Y0121116D01*
X0369343Y0122114D02*
X0349233Y0122114D01*
X0337957Y0122114D02*
X0331656Y0122114D01*
X0332655Y0121116D02*
X0337957Y0121116D01*
X0337957Y0120117D02*
X0333653Y0120117D01*
X0332387Y0113128D02*
X0383988Y0113128D01*
X0384088Y0112129D02*
X0380884Y0112129D01*
X0381883Y0111131D02*
X0384088Y0111131D01*
X0384088Y0110132D02*
X0382423Y0110132D01*
X0382792Y0109134D02*
X0384088Y0109134D01*
X0384088Y0108135D02*
X0382792Y0108135D01*
X0382671Y0107137D02*
X0384088Y0107137D01*
X0384088Y0106138D02*
X0382258Y0106138D01*
X0381484Y0105140D02*
X0384088Y0105140D01*
X0384088Y0104141D02*
X0380016Y0104141D01*
X0380361Y0114126D02*
X0382735Y0114126D01*
X0357091Y0104141D02*
X0329502Y0104141D01*
X0329502Y0103143D02*
X0348936Y0103143D01*
X0348344Y0102550D02*
X0348344Y0102550D01*
X0347938Y0102144D02*
X0329502Y0102144D01*
X0329502Y0101146D02*
X0346939Y0101146D01*
X0380732Y0082174D02*
X0382968Y0082174D01*
X0381969Y0081176D02*
X0381780Y0081176D01*
X0408220Y0049223D02*
X0415595Y0049223D01*
X0415595Y0048225D02*
X0410675Y0048225D01*
X0412201Y0047226D02*
X0415595Y0047226D01*
X0415595Y0046228D02*
X0413200Y0046228D01*
X0414048Y0045229D02*
X0415595Y0045229D01*
X0415595Y0044231D02*
X0414625Y0044231D01*
X0415200Y0043232D02*
X0415595Y0043232D01*
X0415595Y0042234D02*
X0415468Y0042234D01*
X0395455Y0041235D02*
X0310120Y0041235D01*
X0310721Y0041836D02*
X0310721Y0041836D01*
X0272693Y0070192D02*
X0170087Y0070192D01*
X0171085Y0071190D02*
X0211354Y0071190D01*
X0209985Y0072189D02*
X0172084Y0072189D01*
X0173082Y0073187D02*
X0209458Y0073187D01*
X0209288Y0074186D02*
X0174081Y0074186D01*
X0175079Y0075184D02*
X0209400Y0075184D01*
X0209845Y0076183D02*
X0206818Y0076183D01*
X0208198Y0077181D02*
X0211016Y0077181D01*
X0213529Y0077449D02*
X0214468Y0077060D01*
X0215399Y0076129D01*
X0215426Y0076063D01*
X0231847Y0076063D01*
X0325999Y0170216D01*
X0325696Y0170519D01*
X0325696Y0177507D01*
X0326462Y0178273D01*
X0327755Y0178273D01*
X0327755Y0184815D01*
X0326872Y0185181D01*
X0325520Y0186533D01*
X0324788Y0188300D01*
X0324788Y0190212D01*
X0325520Y0191979D01*
X0326872Y0193331D01*
X0328639Y0194063D01*
X0330551Y0194063D01*
X0332318Y0193331D01*
X0333670Y0191979D01*
X0334402Y0190212D01*
X0334402Y0188300D01*
X0333670Y0186533D01*
X0332318Y0185181D01*
X0331369Y0184788D01*
X0331369Y0178273D01*
X0332663Y0178273D01*
X0333302Y0177633D01*
X0333942Y0178273D01*
X0335088Y0178273D01*
X0335088Y0179757D01*
X0335088Y0180755D01*
X0335470Y0181676D01*
X0337088Y0183294D01*
X0337088Y0185091D01*
X0336872Y0185181D01*
X0335520Y0186533D01*
X0334788Y0188300D01*
X0334788Y0190212D01*
X0335520Y0191979D01*
X0336848Y0193307D01*
X0335805Y0194349D01*
X0318385Y0194349D01*
X0317718Y0193681D01*
X0318639Y0194063D01*
X0320551Y0194063D01*
X0322318Y0193331D01*
X0323670Y0191979D01*
X0324402Y0190212D01*
X0324402Y0188300D01*
X0323670Y0186533D01*
X0322318Y0185181D01*
X0321142Y0184694D01*
X0321142Y0178516D01*
X0322436Y0178516D01*
X0323201Y0177750D01*
X0323201Y0170762D01*
X0322436Y0169996D01*
X0321142Y0169996D01*
X0321142Y0169248D01*
X0230402Y0078507D01*
X0229344Y0077449D01*
X0213529Y0077449D01*
X0214174Y0077181D02*
X0232965Y0077181D01*
X0231967Y0076183D02*
X0215345Y0076183D01*
X0212595Y0074256D02*
X0232595Y0074256D01*
X0329562Y0171223D01*
X0329562Y0174013D01*
X0329595Y0173980D01*
X0329562Y0174013D02*
X0329562Y0189223D01*
X0329595Y0189256D01*
X0325119Y0191012D02*
X0324071Y0191012D01*
X0324402Y0190013D02*
X0324788Y0190013D01*
X0324788Y0189015D02*
X0324402Y0189015D01*
X0324285Y0188016D02*
X0324905Y0188016D01*
X0325319Y0187018D02*
X0323871Y0187018D01*
X0323157Y0186019D02*
X0326034Y0186019D01*
X0327258Y0185021D02*
X0321932Y0185021D01*
X0321142Y0184022D02*
X0327755Y0184022D01*
X0327755Y0183024D02*
X0321142Y0183024D01*
X0321142Y0182025D02*
X0327755Y0182025D01*
X0327755Y0181027D02*
X0321142Y0181027D01*
X0321142Y0180028D02*
X0327755Y0180028D01*
X0327755Y0179030D02*
X0321142Y0179030D01*
X0322920Y0178031D02*
X0326220Y0178031D01*
X0325696Y0177033D02*
X0323201Y0177033D01*
X0323201Y0176034D02*
X0325696Y0176034D01*
X0325696Y0175036D02*
X0323201Y0175036D01*
X0323201Y0174037D02*
X0325696Y0174037D01*
X0325696Y0173039D02*
X0323201Y0173039D01*
X0323201Y0172040D02*
X0325696Y0172040D01*
X0325696Y0171042D02*
X0323201Y0171042D01*
X0322483Y0170043D02*
X0325827Y0170043D01*
X0324828Y0169045D02*
X0320939Y0169045D01*
X0319941Y0168046D02*
X0323830Y0168046D01*
X0322831Y0167047D02*
X0318942Y0167047D01*
X0317944Y0166049D02*
X0321833Y0166049D01*
X0320834Y0165050D02*
X0316945Y0165050D01*
X0315947Y0164052D02*
X0319836Y0164052D01*
X0318837Y0163053D02*
X0314948Y0163053D01*
X0313950Y0162055D02*
X0317839Y0162055D01*
X0316840Y0161056D02*
X0312951Y0161056D01*
X0311953Y0160058D02*
X0315842Y0160058D01*
X0314843Y0159059D02*
X0310954Y0159059D01*
X0309956Y0158061D02*
X0313845Y0158061D01*
X0312846Y0157062D02*
X0308957Y0157062D01*
X0307959Y0156064D02*
X0311848Y0156064D01*
X0310849Y0155065D02*
X0306960Y0155065D01*
X0305962Y0154067D02*
X0309850Y0154067D01*
X0308852Y0153068D02*
X0304963Y0153068D01*
X0303965Y0152070D02*
X0307853Y0152070D01*
X0306855Y0151071D02*
X0302966Y0151071D01*
X0301968Y0150073D02*
X0305856Y0150073D01*
X0304858Y0149074D02*
X0300969Y0149074D01*
X0299971Y0148076D02*
X0303859Y0148076D01*
X0302861Y0147077D02*
X0298972Y0147077D01*
X0297974Y0146079D02*
X0301862Y0146079D01*
X0300864Y0145080D02*
X0296975Y0145080D01*
X0295977Y0144082D02*
X0299865Y0144082D01*
X0298867Y0143083D02*
X0294978Y0143083D01*
X0293980Y0142085D02*
X0297868Y0142085D01*
X0296870Y0141086D02*
X0292981Y0141086D01*
X0291983Y0140088D02*
X0295871Y0140088D01*
X0294873Y0139089D02*
X0290984Y0139089D01*
X0289985Y0138091D02*
X0293874Y0138091D01*
X0292876Y0137092D02*
X0288987Y0137092D01*
X0287988Y0136094D02*
X0291877Y0136094D01*
X0290879Y0135095D02*
X0286990Y0135095D01*
X0285991Y0134097D02*
X0289880Y0134097D01*
X0288882Y0133098D02*
X0284993Y0133098D01*
X0283994Y0132100D02*
X0287883Y0132100D01*
X0286885Y0131101D02*
X0282996Y0131101D01*
X0281997Y0130103D02*
X0285886Y0130103D01*
X0284888Y0129104D02*
X0280999Y0129104D01*
X0280000Y0128106D02*
X0283889Y0128106D01*
X0282891Y0127107D02*
X0279002Y0127107D01*
X0278003Y0126109D02*
X0281892Y0126109D01*
X0280894Y0125110D02*
X0277005Y0125110D01*
X0276006Y0124112D02*
X0279895Y0124112D01*
X0278897Y0123113D02*
X0275008Y0123113D01*
X0274009Y0122114D02*
X0277898Y0122114D01*
X0276900Y0121116D02*
X0273011Y0121116D01*
X0272012Y0120117D02*
X0275901Y0120117D01*
X0274903Y0119119D02*
X0271014Y0119119D01*
X0270015Y0118120D02*
X0273904Y0118120D01*
X0272906Y0117122D02*
X0269017Y0117122D01*
X0268018Y0116123D02*
X0271907Y0116123D01*
X0270909Y0115125D02*
X0267020Y0115125D01*
X0266021Y0114126D02*
X0269910Y0114126D01*
X0268912Y0113128D02*
X0265023Y0113128D01*
X0264024Y0112129D02*
X0267913Y0112129D01*
X0266914Y0111131D02*
X0263026Y0111131D01*
X0262027Y0110132D02*
X0265916Y0110132D01*
X0264917Y0109134D02*
X0261029Y0109134D01*
X0260030Y0108135D02*
X0263919Y0108135D01*
X0262920Y0107137D02*
X0259032Y0107137D01*
X0258033Y0106138D02*
X0261922Y0106138D01*
X0260923Y0105140D02*
X0257035Y0105140D01*
X0256036Y0104141D02*
X0259925Y0104141D01*
X0258926Y0103143D02*
X0255038Y0103143D01*
X0254039Y0102144D02*
X0257928Y0102144D01*
X0256929Y0101146D02*
X0253041Y0101146D01*
X0252042Y0100147D02*
X0255931Y0100147D01*
X0254932Y0099149D02*
X0251044Y0099149D01*
X0250045Y0098150D02*
X0253934Y0098150D01*
X0252935Y0097152D02*
X0249047Y0097152D01*
X0248048Y0096153D02*
X0251937Y0096153D01*
X0250938Y0095155D02*
X0247050Y0095155D01*
X0246051Y0094156D02*
X0249940Y0094156D01*
X0248941Y0093158D02*
X0245052Y0093158D01*
X0244054Y0092159D02*
X0247943Y0092159D01*
X0246944Y0091161D02*
X0243055Y0091161D01*
X0242057Y0090162D02*
X0245946Y0090162D01*
X0244947Y0089164D02*
X0241058Y0089164D01*
X0240060Y0088165D02*
X0243949Y0088165D01*
X0242950Y0087167D02*
X0239061Y0087167D01*
X0238063Y0086168D02*
X0241952Y0086168D01*
X0240953Y0085170D02*
X0237064Y0085170D01*
X0236066Y0084171D02*
X0239955Y0084171D01*
X0238956Y0083173D02*
X0235067Y0083173D01*
X0234069Y0082174D02*
X0237958Y0082174D01*
X0236959Y0081176D02*
X0233070Y0081176D01*
X0232072Y0080177D02*
X0235961Y0080177D01*
X0234962Y0079178D02*
X0231073Y0079178D01*
X0230075Y0078180D02*
X0233964Y0078180D01*
X0236079Y0075184D02*
X0277685Y0075184D01*
X0276687Y0074186D02*
X0235081Y0074186D01*
X0234082Y0073187D02*
X0275688Y0073187D01*
X0274690Y0072189D02*
X0215205Y0072189D01*
X0213836Y0071190D02*
X0273691Y0071190D01*
X0271694Y0069193D02*
X0169088Y0069193D01*
X0168090Y0068195D02*
X0171049Y0068195D01*
X0169859Y0067196D02*
X0167091Y0067196D01*
X0166093Y0066198D02*
X0169406Y0066198D01*
X0169288Y0065199D02*
X0165902Y0065199D01*
X0165738Y0064201D02*
X0169453Y0064201D01*
X0169972Y0063202D02*
X0165218Y0063202D01*
X0163869Y0062204D02*
X0171322Y0062204D01*
X0162595Y0065256D02*
X0181595Y0084256D01*
X0197595Y0084256D01*
X0196390Y0081176D02*
X0181070Y0081176D01*
X0182069Y0082174D02*
X0195000Y0082174D01*
X0198800Y0081176D02*
X0202838Y0081176D01*
X0202397Y0080177D02*
X0180072Y0080177D01*
X0179073Y0079178D02*
X0202288Y0079178D01*
X0202461Y0078180D02*
X0178075Y0078180D01*
X0177076Y0077181D02*
X0202993Y0077181D01*
X0204372Y0076183D02*
X0176078Y0076183D01*
X0173962Y0079178D02*
X0139102Y0079178D01*
X0139102Y0078180D02*
X0172964Y0078180D01*
X0171965Y0077181D02*
X0139215Y0077181D01*
X0140214Y0076183D02*
X0170967Y0076183D01*
X0169968Y0075184D02*
X0141212Y0075184D01*
X0142211Y0074186D02*
X0168970Y0074186D01*
X0167971Y0073187D02*
X0143209Y0073187D01*
X0144208Y0072189D02*
X0166973Y0072189D01*
X0165974Y0071190D02*
X0145206Y0071190D01*
X0146205Y0070192D02*
X0164976Y0070192D01*
X0163977Y0069193D02*
X0147203Y0069193D01*
X0148202Y0068195D02*
X0161049Y0068195D01*
X0159859Y0067196D02*
X0149200Y0067196D01*
X0150199Y0066198D02*
X0159406Y0066198D01*
X0159288Y0065199D02*
X0151197Y0065199D01*
X0152196Y0064201D02*
X0159453Y0064201D01*
X0159972Y0063202D02*
X0153194Y0063202D01*
X0154193Y0062204D02*
X0161322Y0062204D01*
X0174142Y0068195D02*
X0270696Y0068195D01*
X0278684Y0076183D02*
X0237078Y0076183D01*
X0238076Y0077181D02*
X0279682Y0077181D01*
X0280681Y0078180D02*
X0239075Y0078180D01*
X0240073Y0079178D02*
X0281679Y0079178D01*
X0282678Y0080177D02*
X0241072Y0080177D01*
X0242070Y0081176D02*
X0283676Y0081176D01*
X0284675Y0082174D02*
X0243069Y0082174D01*
X0244067Y0083173D02*
X0285673Y0083173D01*
X0286672Y0084171D02*
X0245066Y0084171D01*
X0246064Y0085170D02*
X0287670Y0085170D01*
X0288669Y0086168D02*
X0247063Y0086168D01*
X0248061Y0087167D02*
X0289667Y0087167D01*
X0290666Y0088165D02*
X0249060Y0088165D01*
X0250058Y0089164D02*
X0291664Y0089164D01*
X0292663Y0090162D02*
X0251057Y0090162D01*
X0252055Y0091161D02*
X0293661Y0091161D01*
X0294660Y0092159D02*
X0253054Y0092159D01*
X0254052Y0093158D02*
X0295658Y0093158D01*
X0296657Y0094156D02*
X0255051Y0094156D01*
X0256050Y0095155D02*
X0297655Y0095155D01*
X0298654Y0096153D02*
X0257048Y0096153D01*
X0258047Y0097152D02*
X0299652Y0097152D01*
X0300307Y0098150D02*
X0259045Y0098150D01*
X0260044Y0099149D02*
X0300406Y0099149D01*
X0300836Y0100147D02*
X0261042Y0100147D01*
X0262041Y0101146D02*
X0301388Y0101146D01*
X0301388Y0102144D02*
X0263039Y0102144D01*
X0264038Y0103143D02*
X0301388Y0103143D01*
X0301388Y0104141D02*
X0265036Y0104141D01*
X0266035Y0105140D02*
X0301388Y0105140D01*
X0301388Y0106138D02*
X0267033Y0106138D01*
X0268032Y0107137D02*
X0301388Y0107137D01*
X0301388Y0108135D02*
X0269030Y0108135D01*
X0270029Y0109134D02*
X0301388Y0109134D01*
X0301388Y0110132D02*
X0271027Y0110132D01*
X0272026Y0111131D02*
X0301388Y0111131D01*
X0301388Y0112129D02*
X0273024Y0112129D01*
X0274023Y0113128D02*
X0301388Y0113128D01*
X0301388Y0114126D02*
X0275021Y0114126D01*
X0276020Y0115125D02*
X0301388Y0115125D01*
X0301388Y0116123D02*
X0277018Y0116123D01*
X0278017Y0117122D02*
X0301388Y0117122D01*
X0301388Y0118120D02*
X0279015Y0118120D01*
X0280014Y0119119D02*
X0301388Y0119119D01*
X0301388Y0120117D02*
X0281012Y0120117D01*
X0282011Y0121116D02*
X0301388Y0121116D01*
X0301388Y0122114D02*
X0283009Y0122114D01*
X0284008Y0123113D02*
X0301388Y0123113D01*
X0301388Y0124112D02*
X0285006Y0124112D01*
X0286005Y0125110D02*
X0301388Y0125110D01*
X0301388Y0126109D02*
X0287003Y0126109D01*
X0288002Y0127107D02*
X0301388Y0127107D01*
X0301388Y0128106D02*
X0289000Y0128106D01*
X0289999Y0129104D02*
X0301388Y0129104D01*
X0301388Y0130103D02*
X0290997Y0130103D01*
X0291996Y0131101D02*
X0301388Y0131101D01*
X0301388Y0132100D02*
X0292994Y0132100D01*
X0293993Y0133098D02*
X0301388Y0133098D01*
X0301388Y0134097D02*
X0294991Y0134097D01*
X0295990Y0135095D02*
X0301388Y0135095D01*
X0301388Y0136094D02*
X0296988Y0136094D01*
X0297987Y0137092D02*
X0301388Y0137092D01*
X0302309Y0138091D02*
X0298985Y0138091D01*
X0299984Y0139089D02*
X0303307Y0139089D01*
X0304306Y0140088D02*
X0300983Y0140088D01*
X0301981Y0141086D02*
X0305304Y0141086D01*
X0306303Y0142085D02*
X0302980Y0142085D01*
X0303978Y0143083D02*
X0307301Y0143083D01*
X0308300Y0144082D02*
X0304977Y0144082D01*
X0305975Y0145080D02*
X0309298Y0145080D01*
X0310297Y0146079D02*
X0306974Y0146079D01*
X0307972Y0147077D02*
X0311295Y0147077D01*
X0312294Y0148076D02*
X0308971Y0148076D01*
X0309969Y0149074D02*
X0313292Y0149074D01*
X0314291Y0150073D02*
X0310968Y0150073D01*
X0311966Y0151071D02*
X0315289Y0151071D01*
X0316288Y0152070D02*
X0312965Y0152070D01*
X0313963Y0153068D02*
X0317286Y0153068D01*
X0318285Y0154067D02*
X0314962Y0154067D01*
X0315960Y0155065D02*
X0319283Y0155065D01*
X0320282Y0156064D02*
X0316959Y0156064D01*
X0317957Y0157062D02*
X0321280Y0157062D01*
X0322279Y0158061D02*
X0318956Y0158061D01*
X0319954Y0159059D02*
X0323277Y0159059D01*
X0324276Y0160058D02*
X0320953Y0160058D01*
X0321951Y0161056D02*
X0325274Y0161056D01*
X0326273Y0162055D02*
X0322950Y0162055D01*
X0323948Y0163053D02*
X0327271Y0163053D01*
X0328270Y0164052D02*
X0324947Y0164052D01*
X0325945Y0165050D02*
X0329268Y0165050D01*
X0330267Y0166049D02*
X0326944Y0166049D01*
X0327942Y0167047D02*
X0331265Y0167047D01*
X0332264Y0168046D02*
X0328941Y0168046D01*
X0329939Y0169045D02*
X0333262Y0169045D01*
X0332952Y0170043D02*
X0333652Y0170043D01*
X0337508Y0167047D02*
X0352428Y0167047D01*
X0352428Y0166049D02*
X0336509Y0166049D01*
X0335511Y0165050D02*
X0352428Y0165050D01*
X0352428Y0164052D02*
X0334512Y0164052D01*
X0333514Y0163053D02*
X0352428Y0163053D01*
X0352428Y0162055D02*
X0332515Y0162055D01*
X0331517Y0161056D02*
X0352428Y0161056D01*
X0352428Y0160058D02*
X0330518Y0160058D01*
X0329520Y0159059D02*
X0352428Y0159059D01*
X0352428Y0158061D02*
X0328521Y0158061D01*
X0327523Y0157062D02*
X0352428Y0157062D01*
X0352428Y0156064D02*
X0326524Y0156064D01*
X0325526Y0155065D02*
X0352428Y0155065D01*
X0352428Y0154067D02*
X0324527Y0154067D01*
X0324488Y0153068D02*
X0323529Y0153068D01*
X0323489Y0152070D02*
X0322530Y0152070D01*
X0322491Y0151071D02*
X0321532Y0151071D01*
X0321492Y0150073D02*
X0320533Y0150073D01*
X0321288Y0149074D02*
X0319535Y0149074D01*
X0318536Y0148076D02*
X0321288Y0148076D01*
X0321288Y0147077D02*
X0317538Y0147077D01*
X0316539Y0146079D02*
X0321288Y0146079D01*
X0321288Y0145080D02*
X0315541Y0145080D01*
X0314542Y0144082D02*
X0321850Y0144082D01*
X0322848Y0143083D02*
X0313544Y0143083D01*
X0312545Y0142085D02*
X0323847Y0142085D01*
X0324845Y0141086D02*
X0311547Y0141086D01*
X0310548Y0140088D02*
X0337957Y0140088D01*
X0337957Y0141086D02*
X0330345Y0141086D01*
X0331344Y0142085D02*
X0337957Y0142085D01*
X0337957Y0143083D02*
X0332342Y0143083D01*
X0333341Y0144082D02*
X0337957Y0144082D01*
X0337957Y0145080D02*
X0333902Y0145080D01*
X0339513Y0149074D02*
X0347677Y0149074D01*
X0346679Y0148076D02*
X0340512Y0148076D01*
X0333698Y0150073D02*
X0348676Y0150073D01*
X0349674Y0151071D02*
X0332699Y0151071D01*
X0331701Y0152070D02*
X0350673Y0152070D01*
X0351671Y0153068D02*
X0330702Y0153068D01*
X0309837Y0163053D02*
X0269402Y0163053D01*
X0269402Y0162055D02*
X0308839Y0162055D01*
X0307840Y0161056D02*
X0269402Y0161056D01*
X0269402Y0160058D02*
X0306842Y0160058D01*
X0305843Y0159059D02*
X0269402Y0159059D01*
X0269402Y0158061D02*
X0304845Y0158061D01*
X0303846Y0157062D02*
X0269402Y0157062D01*
X0269402Y0156064D02*
X0302848Y0156064D01*
X0301849Y0155065D02*
X0269402Y0155065D01*
X0269402Y0154067D02*
X0300850Y0154067D01*
X0299852Y0153068D02*
X0269402Y0153068D01*
X0269402Y0152070D02*
X0298853Y0152070D01*
X0297855Y0151071D02*
X0269402Y0151071D01*
X0269402Y0150073D02*
X0296856Y0150073D01*
X0295858Y0149074D02*
X0269402Y0149074D01*
X0269402Y0148076D02*
X0294859Y0148076D01*
X0293861Y0147077D02*
X0269402Y0147077D01*
X0269402Y0146079D02*
X0292862Y0146079D01*
X0291864Y0145080D02*
X0269402Y0145080D01*
X0269402Y0144082D02*
X0290865Y0144082D01*
X0289867Y0143083D02*
X0269402Y0143083D01*
X0269402Y0142085D02*
X0288868Y0142085D01*
X0287870Y0141086D02*
X0269402Y0141086D01*
X0269402Y0140088D02*
X0286871Y0140088D01*
X0285873Y0139089D02*
X0269402Y0139089D01*
X0269402Y0138091D02*
X0284874Y0138091D01*
X0283876Y0137092D02*
X0269402Y0137092D01*
X0269402Y0136094D02*
X0282877Y0136094D01*
X0281879Y0135095D02*
X0269402Y0135095D01*
X0269402Y0134097D02*
X0280880Y0134097D01*
X0279882Y0133098D02*
X0269402Y0133098D01*
X0269402Y0132100D02*
X0278883Y0132100D01*
X0277885Y0131101D02*
X0269402Y0131101D01*
X0269402Y0130103D02*
X0276886Y0130103D01*
X0275888Y0129104D02*
X0269402Y0129104D01*
X0269402Y0128106D02*
X0274889Y0128106D01*
X0273891Y0127107D02*
X0269402Y0127107D01*
X0269402Y0126109D02*
X0272892Y0126109D01*
X0271894Y0125110D02*
X0269005Y0125110D01*
X0268006Y0124112D02*
X0270895Y0124112D01*
X0269897Y0123113D02*
X0267008Y0123113D01*
X0266009Y0122114D02*
X0268898Y0122114D01*
X0267900Y0121116D02*
X0265011Y0121116D01*
X0264012Y0120117D02*
X0266901Y0120117D01*
X0265903Y0119119D02*
X0263014Y0119119D01*
X0262015Y0118120D02*
X0264904Y0118120D01*
X0263906Y0117122D02*
X0261017Y0117122D01*
X0260018Y0116123D02*
X0262907Y0116123D01*
X0261909Y0115125D02*
X0259020Y0115125D01*
X0258021Y0114126D02*
X0260910Y0114126D01*
X0259912Y0113128D02*
X0257023Y0113128D01*
X0256024Y0112129D02*
X0258913Y0112129D01*
X0257915Y0111131D02*
X0255026Y0111131D01*
X0254027Y0110132D02*
X0256916Y0110132D01*
X0255917Y0109134D02*
X0253029Y0109134D01*
X0252030Y0108135D02*
X0254919Y0108135D01*
X0253920Y0107137D02*
X0251032Y0107137D01*
X0250033Y0106138D02*
X0252922Y0106138D01*
X0251923Y0105140D02*
X0249035Y0105140D01*
X0248036Y0104141D02*
X0250925Y0104141D01*
X0249926Y0103143D02*
X0247038Y0103143D01*
X0246039Y0102144D02*
X0248928Y0102144D01*
X0247929Y0101146D02*
X0245041Y0101146D01*
X0244042Y0100147D02*
X0246931Y0100147D01*
X0245932Y0099149D02*
X0243044Y0099149D01*
X0242045Y0098150D02*
X0244934Y0098150D01*
X0243935Y0097152D02*
X0241047Y0097152D01*
X0240048Y0096153D02*
X0242937Y0096153D01*
X0241938Y0095155D02*
X0239050Y0095155D01*
X0238051Y0094156D02*
X0240940Y0094156D01*
X0239941Y0093158D02*
X0237052Y0093158D01*
X0236054Y0092159D02*
X0238943Y0092159D01*
X0237944Y0091161D02*
X0235055Y0091161D01*
X0234057Y0090162D02*
X0236946Y0090162D01*
X0235947Y0089164D02*
X0233058Y0089164D01*
X0232060Y0088165D02*
X0234949Y0088165D01*
X0233950Y0087167D02*
X0231061Y0087167D01*
X0230063Y0086168D02*
X0232952Y0086168D01*
X0231953Y0085170D02*
X0229064Y0085170D01*
X0228066Y0084171D02*
X0230955Y0084171D01*
X0229956Y0083173D02*
X0227067Y0083173D01*
X0225595Y0084256D02*
X0267595Y0126256D01*
X0267595Y0179256D01*
X0263125Y0181027D02*
X0262065Y0181027D01*
X0262402Y0180212D02*
X0261670Y0181979D01*
X0260318Y0183331D01*
X0258551Y0184063D01*
X0256639Y0184063D01*
X0254872Y0183331D01*
X0253520Y0181979D01*
X0252788Y0180212D01*
X0252788Y0178300D01*
X0253520Y0176533D01*
X0254872Y0175181D01*
X0256639Y0174449D01*
X0258551Y0174449D01*
X0260318Y0175181D01*
X0261670Y0176533D01*
X0262402Y0178300D01*
X0262402Y0180212D01*
X0262402Y0180028D02*
X0262788Y0180028D01*
X0262788Y0179030D02*
X0262402Y0179030D01*
X0262291Y0178031D02*
X0262899Y0178031D01*
X0263313Y0177033D02*
X0261877Y0177033D01*
X0261172Y0176034D02*
X0264019Y0176034D01*
X0265222Y0175036D02*
X0259968Y0175036D01*
X0255222Y0175036D02*
X0250173Y0175036D01*
X0251172Y0176034D02*
X0254019Y0176034D01*
X0253313Y0177033D02*
X0252170Y0177033D01*
X0252402Y0178031D02*
X0252899Y0178031D01*
X0252788Y0179030D02*
X0252402Y0179030D01*
X0252402Y0180028D02*
X0252788Y0180028D01*
X0253125Y0181027D02*
X0252402Y0181027D01*
X0251624Y0182025D02*
X0253566Y0182025D01*
X0254565Y0183024D02*
X0250626Y0183024D01*
X0249627Y0184022D02*
X0256540Y0184022D01*
X0256639Y0184449D02*
X0258551Y0184449D01*
X0260318Y0185181D01*
X0261670Y0186533D01*
X0262402Y0188300D01*
X0262402Y0190212D01*
X0261670Y0191979D01*
X0260318Y0193331D01*
X0258551Y0194063D01*
X0256639Y0194063D01*
X0254872Y0193331D01*
X0253520Y0191979D01*
X0252788Y0190212D01*
X0252788Y0188300D01*
X0253520Y0186533D01*
X0254872Y0185181D01*
X0256639Y0184449D01*
X0255258Y0185021D02*
X0249932Y0185021D01*
X0251157Y0186019D02*
X0254034Y0186019D01*
X0253319Y0187018D02*
X0251871Y0187018D01*
X0252285Y0188016D02*
X0252905Y0188016D01*
X0252788Y0189015D02*
X0252402Y0189015D01*
X0252402Y0190013D02*
X0252788Y0190013D01*
X0253119Y0191012D02*
X0252071Y0191012D01*
X0251639Y0192010D02*
X0253551Y0192010D01*
X0254550Y0193009D02*
X0250641Y0193009D01*
X0248686Y0194007D02*
X0256505Y0194007D01*
X0258686Y0194007D02*
X0266038Y0194007D01*
X0265676Y0193890D02*
X0264975Y0193532D01*
X0264338Y0193070D01*
X0263781Y0192513D01*
X0263319Y0191876D01*
X0262961Y0191175D01*
X0262718Y0190427D01*
X0262595Y0189649D01*
X0262595Y0189563D01*
X0267288Y0189563D01*
X0267288Y0188949D01*
X0262595Y0188949D01*
X0262595Y0188862D01*
X0262718Y0188085D01*
X0262961Y0187337D01*
X0263319Y0186635D01*
X0263781Y0185999D01*
X0264338Y0185442D01*
X0264975Y0184980D01*
X0265676Y0184622D01*
X0266424Y0184379D01*
X0267202Y0184256D01*
X0267288Y0184256D01*
X0267288Y0188949D01*
X0267902Y0188949D01*
X0267902Y0184256D01*
X0267989Y0184256D01*
X0268766Y0184379D01*
X0269514Y0184622D01*
X0270216Y0184980D01*
X0270852Y0185442D01*
X0271409Y0185999D01*
X0271872Y0186635D01*
X0272229Y0187337D01*
X0272472Y0188085D01*
X0272595Y0188862D01*
X0272595Y0188949D01*
X0267902Y0188949D01*
X0267902Y0189563D01*
X0267288Y0189563D01*
X0267288Y0194256D01*
X0267202Y0194256D01*
X0266424Y0194133D01*
X0265676Y0193890D01*
X0267288Y0194007D02*
X0267902Y0194007D01*
X0267902Y0194256D02*
X0267989Y0194256D01*
X0268766Y0194133D01*
X0269514Y0193890D01*
X0270216Y0193532D01*
X0270852Y0193070D01*
X0271409Y0192513D01*
X0271872Y0191876D01*
X0272229Y0191175D01*
X0272472Y0190427D01*
X0272595Y0189649D01*
X0272595Y0189563D01*
X0267902Y0189563D01*
X0267902Y0194256D01*
X0267902Y0193009D02*
X0267288Y0193009D01*
X0267288Y0192010D02*
X0267902Y0192010D01*
X0267902Y0191012D02*
X0267288Y0191012D01*
X0267288Y0190013D02*
X0267902Y0190013D01*
X0267902Y0189015D02*
X0294788Y0189015D01*
X0294788Y0190013D02*
X0272538Y0190013D01*
X0272282Y0191012D02*
X0294788Y0191012D01*
X0295551Y0192010D02*
X0271774Y0192010D01*
X0270913Y0193009D02*
X0296550Y0193009D01*
X0297548Y0194007D02*
X0269152Y0194007D01*
X0264277Y0193009D02*
X0260641Y0193009D01*
X0261639Y0192010D02*
X0263416Y0192010D01*
X0262908Y0191012D02*
X0262071Y0191012D01*
X0262402Y0190013D02*
X0262653Y0190013D01*
X0262402Y0189015D02*
X0267288Y0189015D01*
X0267288Y0188016D02*
X0267902Y0188016D01*
X0267902Y0187018D02*
X0267288Y0187018D01*
X0267288Y0186019D02*
X0267902Y0186019D01*
X0267902Y0185021D02*
X0267288Y0185021D01*
X0266540Y0184022D02*
X0258650Y0184022D01*
X0259932Y0185021D02*
X0264918Y0185021D01*
X0263766Y0186019D02*
X0261157Y0186019D01*
X0261871Y0187018D02*
X0263124Y0187018D01*
X0262741Y0188016D02*
X0262285Y0188016D01*
X0260626Y0183024D02*
X0264565Y0183024D01*
X0263566Y0182025D02*
X0261624Y0182025D01*
X0268650Y0184022D02*
X0295806Y0184022D01*
X0294807Y0183024D02*
X0270626Y0183024D01*
X0271624Y0182025D02*
X0293809Y0182025D01*
X0292810Y0181027D02*
X0272065Y0181027D01*
X0272402Y0180028D02*
X0292048Y0180028D01*
X0292048Y0179030D02*
X0272402Y0179030D01*
X0272291Y0178031D02*
X0290270Y0178031D01*
X0289989Y0177033D02*
X0271877Y0177033D01*
X0271172Y0176034D02*
X0289989Y0176034D01*
X0289989Y0175036D02*
X0269968Y0175036D01*
X0269402Y0174037D02*
X0289989Y0174037D01*
X0289989Y0173039D02*
X0269402Y0173039D01*
X0269402Y0172040D02*
X0289989Y0172040D01*
X0289989Y0171042D02*
X0269402Y0171042D01*
X0269402Y0170043D02*
X0290708Y0170043D01*
X0293855Y0174256D02*
X0293855Y0179516D01*
X0299595Y0185256D01*
X0299595Y0189256D01*
X0296034Y0186019D02*
X0271424Y0186019D01*
X0272066Y0187018D02*
X0295035Y0187018D01*
X0294788Y0188016D02*
X0272450Y0188016D01*
X0270272Y0185021D02*
X0296804Y0185021D01*
X0298920Y0182025D02*
X0303809Y0182025D01*
X0304807Y0183024D02*
X0299919Y0183024D01*
X0300917Y0184022D02*
X0305806Y0184022D01*
X0306804Y0185021D02*
X0302158Y0185021D01*
X0303157Y0186019D02*
X0306034Y0186019D01*
X0305035Y0187018D02*
X0304155Y0187018D01*
X0304402Y0188016D02*
X0304788Y0188016D01*
X0304788Y0189015D02*
X0304402Y0189015D01*
X0304402Y0190013D02*
X0304788Y0190013D01*
X0304788Y0191012D02*
X0304402Y0191012D01*
X0303639Y0192010D02*
X0305551Y0192010D01*
X0306550Y0193009D02*
X0302640Y0193009D01*
X0301642Y0194007D02*
X0307548Y0194007D01*
X0311642Y0194007D02*
X0312688Y0194007D01*
X0312688Y0193009D02*
X0312640Y0193009D01*
X0313648Y0195006D02*
X0046902Y0195006D01*
X0046902Y0196004D02*
X0314647Y0196004D01*
X0313805Y0195163D02*
X0313805Y0195163D01*
X0315645Y0197003D02*
X0046902Y0197003D01*
X0046798Y0198001D02*
X0316644Y0198001D01*
X0318044Y0194007D02*
X0318505Y0194007D01*
X0320686Y0194007D02*
X0328505Y0194007D01*
X0330686Y0194007D02*
X0336147Y0194007D01*
X0336550Y0193009D02*
X0332641Y0193009D01*
X0333639Y0192010D02*
X0335551Y0192010D01*
X0335119Y0191012D02*
X0334071Y0191012D01*
X0334402Y0190013D02*
X0334788Y0190013D01*
X0334788Y0189015D02*
X0334402Y0189015D01*
X0334285Y0188016D02*
X0334905Y0188016D01*
X0335319Y0187018D02*
X0333871Y0187018D01*
X0333157Y0186019D02*
X0336034Y0186019D01*
X0337088Y0185021D02*
X0331932Y0185021D01*
X0331369Y0184022D02*
X0337088Y0184022D01*
X0336817Y0183024D02*
X0331369Y0183024D01*
X0331369Y0182025D02*
X0335819Y0182025D01*
X0335201Y0181027D02*
X0331369Y0181027D01*
X0331369Y0180028D02*
X0335088Y0180028D01*
X0335088Y0179030D02*
X0331369Y0179030D01*
X0332905Y0178031D02*
X0333700Y0178031D01*
X0337285Y0174256D02*
X0337042Y0174013D01*
X0337352Y0174013D01*
X0337595Y0174256D01*
X0337285Y0174256D01*
X0340909Y0172040D02*
X0342989Y0172040D01*
X0342989Y0171042D02*
X0340909Y0171042D01*
X0340432Y0170043D02*
X0343708Y0170043D01*
X0339249Y0169045D02*
X0352428Y0169045D01*
X0352428Y0168046D02*
X0338507Y0168046D01*
X0350002Y0170043D02*
X0351188Y0170043D01*
X0356242Y0169045D02*
X0367584Y0169045D01*
X0367879Y0169757D02*
X0367186Y0168083D01*
X0367186Y0166271D01*
X0367879Y0164597D01*
X0369161Y0163316D01*
X0370835Y0162622D01*
X0379143Y0162622D01*
X0380817Y0163316D01*
X0382098Y0164597D01*
X0382792Y0166271D01*
X0382792Y0168083D01*
X0382098Y0169757D01*
X0380817Y0171039D01*
X0379143Y0171732D01*
X0370835Y0171732D01*
X0369161Y0171039D01*
X0367879Y0169757D01*
X0368165Y0170043D02*
X0357483Y0170043D01*
X0358201Y0171042D02*
X0369167Y0171042D01*
X0367186Y0168046D02*
X0356242Y0168046D01*
X0356242Y0167047D02*
X0367186Y0167047D01*
X0367278Y0166049D02*
X0356242Y0166049D01*
X0356242Y0165050D02*
X0367691Y0165050D01*
X0368424Y0164052D02*
X0356242Y0164052D01*
X0356242Y0163053D02*
X0369793Y0163053D01*
X0369918Y0161735D02*
X0369252Y0161396D01*
X0368648Y0160956D01*
X0368119Y0160428D01*
X0367680Y0159823D01*
X0367341Y0159157D01*
X0367110Y0158446D01*
X0367013Y0157835D01*
X0374489Y0157835D01*
X0374489Y0162083D01*
X0371367Y0162083D01*
X0370629Y0161966D01*
X0369918Y0161735D01*
X0371192Y0162055D02*
X0356242Y0162055D01*
X0356242Y0161056D02*
X0368786Y0161056D01*
X0367850Y0160058D02*
X0356242Y0160058D01*
X0356242Y0159059D02*
X0367309Y0159059D01*
X0367049Y0158061D02*
X0356242Y0158061D01*
X0356242Y0157062D02*
X0374489Y0157062D01*
X0374489Y0156835D02*
X0374489Y0157835D01*
X0375489Y0157835D01*
X0375489Y0162083D01*
X0378611Y0162083D01*
X0379349Y0161966D01*
X0380059Y0161735D01*
X0380725Y0161396D01*
X0381330Y0160956D01*
X0381858Y0160428D01*
X0382298Y0159823D01*
X0382637Y0159157D01*
X0382868Y0158446D01*
X0382965Y0157835D01*
X0375489Y0157835D01*
X0375489Y0156835D01*
X0382965Y0156835D01*
X0382868Y0156223D01*
X0382637Y0155512D01*
X0382298Y0154846D01*
X0381858Y0154242D01*
X0381330Y0153713D01*
X0380725Y0153274D01*
X0380059Y0152934D01*
X0379349Y0152704D01*
X0378611Y0152587D01*
X0375489Y0152587D01*
X0375489Y0156835D01*
X0374489Y0156835D01*
X0367013Y0156835D01*
X0367110Y0156223D01*
X0367341Y0155512D01*
X0367680Y0154846D01*
X0368119Y0154242D01*
X0368648Y0153713D01*
X0369252Y0153274D01*
X0369918Y0152934D01*
X0370629Y0152704D01*
X0371367Y0152587D01*
X0374489Y0152587D01*
X0374489Y0156835D01*
X0374910Y0157256D02*
X0374989Y0157335D01*
X0375489Y0157062D02*
X0415595Y0157062D01*
X0415595Y0156064D02*
X0382816Y0156064D01*
X0382409Y0155065D02*
X0415595Y0155065D01*
X0415595Y0154067D02*
X0381684Y0154067D01*
X0380322Y0153068D02*
X0415595Y0153068D01*
X0415595Y0152070D02*
X0356067Y0152070D01*
X0356242Y0153068D02*
X0369655Y0153068D01*
X0368294Y0154067D02*
X0356242Y0154067D01*
X0356242Y0155065D02*
X0367568Y0155065D01*
X0367161Y0156064D02*
X0356242Y0156064D01*
X0355068Y0151071D02*
X0415595Y0151071D01*
X0415595Y0150073D02*
X0354070Y0150073D01*
X0353071Y0149074D02*
X0415595Y0149074D01*
X0415595Y0148076D02*
X0352073Y0148076D01*
X0351074Y0147077D02*
X0415595Y0147077D01*
X0415595Y0146079D02*
X0350076Y0146079D01*
X0349233Y0145080D02*
X0415595Y0145080D01*
X0415595Y0144082D02*
X0349233Y0144082D01*
X0349233Y0143083D02*
X0415595Y0143083D01*
X0415595Y0142085D02*
X0349233Y0142085D01*
X0349233Y0141086D02*
X0415595Y0141086D01*
X0415595Y0140088D02*
X0349233Y0140088D01*
X0349233Y0139089D02*
X0415595Y0139089D01*
X0415595Y0138091D02*
X0349113Y0138091D01*
X0338077Y0138091D02*
X0308551Y0138091D01*
X0309550Y0139089D02*
X0337957Y0139089D01*
X0307553Y0137092D02*
X0415595Y0137092D01*
X0415595Y0136094D02*
X0306554Y0136094D01*
X0305802Y0135095D02*
X0415595Y0135095D01*
X0415595Y0134097D02*
X0305802Y0134097D01*
X0305802Y0133098D02*
X0415595Y0133098D01*
X0415595Y0132100D02*
X0305802Y0132100D01*
X0305802Y0131101D02*
X0415595Y0131101D01*
X0415595Y0130103D02*
X0305802Y0130103D01*
X0305802Y0129104D02*
X0415595Y0129104D01*
X0415595Y0128106D02*
X0305802Y0128106D01*
X0310836Y0164052D02*
X0269402Y0164052D01*
X0269402Y0165050D02*
X0311834Y0165050D01*
X0312833Y0166049D02*
X0269402Y0166049D01*
X0269402Y0167047D02*
X0313831Y0167047D01*
X0314830Y0168046D02*
X0269402Y0168046D01*
X0269402Y0169045D02*
X0315828Y0169045D01*
X0316188Y0170043D02*
X0315002Y0170043D01*
X0319335Y0169996D02*
X0228595Y0079256D01*
X0205595Y0079256D01*
X0208352Y0081176D02*
X0227959Y0081176D01*
X0228958Y0082174D02*
X0207192Y0082174D01*
X0203998Y0082174D02*
X0200190Y0082174D01*
X0200426Y0086063D02*
X0200399Y0086129D01*
X0199468Y0087060D01*
X0199402Y0087087D01*
X0199402Y0100004D01*
X0192084Y0107323D01*
X0170855Y0107323D01*
X0170855Y0108616D01*
X0170215Y0109256D01*
X0170855Y0109896D01*
X0170855Y0116097D01*
X0170089Y0116862D01*
X0168402Y0116862D01*
X0168402Y0141893D01*
X0202788Y0107507D01*
X0202788Y0092087D01*
X0202722Y0092060D01*
X0201792Y0091129D01*
X0201288Y0089914D01*
X0201288Y0088598D01*
X0201792Y0087383D01*
X0202722Y0086452D01*
X0203662Y0086063D01*
X0200426Y0086063D01*
X0200360Y0086168D02*
X0203408Y0086168D01*
X0202008Y0087167D02*
X0199402Y0087167D01*
X0199402Y0088165D02*
X0201467Y0088165D01*
X0201288Y0089164D02*
X0199402Y0089164D01*
X0199402Y0090162D02*
X0201391Y0090162D01*
X0201823Y0091161D02*
X0199402Y0091161D01*
X0199402Y0092159D02*
X0202788Y0092159D01*
X0202788Y0093158D02*
X0199402Y0093158D01*
X0199402Y0094156D02*
X0202788Y0094156D01*
X0202788Y0095155D02*
X0199402Y0095155D01*
X0199402Y0096153D02*
X0202788Y0096153D01*
X0202788Y0097152D02*
X0199402Y0097152D01*
X0199402Y0098150D02*
X0202788Y0098150D01*
X0202788Y0099149D02*
X0199402Y0099149D01*
X0199259Y0100147D02*
X0202788Y0100147D01*
X0202788Y0101146D02*
X0198261Y0101146D01*
X0197262Y0102144D02*
X0202788Y0102144D01*
X0202788Y0103143D02*
X0196264Y0103143D01*
X0195265Y0104141D02*
X0202788Y0104141D01*
X0202788Y0105140D02*
X0194267Y0105140D01*
X0193268Y0106138D02*
X0202788Y0106138D01*
X0202788Y0107137D02*
X0192270Y0107137D01*
X0191153Y0103143D02*
X0170855Y0103143D01*
X0170584Y0102144D02*
X0192151Y0102144D01*
X0193150Y0101146D02*
X0160261Y0101146D01*
X0159262Y0102144D02*
X0162606Y0102144D01*
X0162335Y0103143D02*
X0158264Y0103143D01*
X0157265Y0104141D02*
X0162335Y0104141D01*
X0162335Y0106138D02*
X0156402Y0106138D01*
X0156402Y0107137D02*
X0162335Y0107137D01*
X0162335Y0108135D02*
X0156402Y0108135D01*
X0156402Y0109134D02*
X0162853Y0109134D01*
X0162335Y0110132D02*
X0156402Y0110132D01*
X0156402Y0111131D02*
X0162335Y0111131D01*
X0162335Y0112129D02*
X0156402Y0112129D01*
X0156402Y0113128D02*
X0162335Y0113128D01*
X0162335Y0114126D02*
X0156402Y0114126D01*
X0156402Y0115125D02*
X0162335Y0115125D01*
X0162362Y0116123D02*
X0156402Y0116123D01*
X0156402Y0117122D02*
X0164788Y0117122D01*
X0164788Y0118120D02*
X0156402Y0118120D01*
X0156402Y0119119D02*
X0164788Y0119119D01*
X0164788Y0120117D02*
X0156402Y0120117D01*
X0156402Y0121116D02*
X0164788Y0121116D01*
X0164788Y0122114D02*
X0156402Y0122114D01*
X0156402Y0123113D02*
X0164788Y0123113D01*
X0164788Y0124112D02*
X0156402Y0124112D01*
X0156402Y0125110D02*
X0164788Y0125110D01*
X0164788Y0126109D02*
X0156402Y0126109D01*
X0156402Y0127107D02*
X0164788Y0127107D01*
X0164788Y0128106D02*
X0156402Y0128106D01*
X0156402Y0129104D02*
X0164788Y0129104D01*
X0164788Y0130103D02*
X0156402Y0130103D01*
X0156402Y0131101D02*
X0164788Y0131101D01*
X0164788Y0132100D02*
X0156402Y0132100D01*
X0156402Y0133098D02*
X0164788Y0133098D01*
X0164788Y0134097D02*
X0156402Y0134097D01*
X0156402Y0135095D02*
X0164788Y0135095D01*
X0164788Y0136094D02*
X0156402Y0136094D01*
X0156402Y0137092D02*
X0164788Y0137092D01*
X0164788Y0138091D02*
X0156402Y0138091D01*
X0156402Y0139089D02*
X0164788Y0139089D01*
X0164788Y0140088D02*
X0156402Y0140088D01*
X0156402Y0141086D02*
X0164209Y0141086D01*
X0163211Y0142085D02*
X0156402Y0142085D01*
X0156402Y0143083D02*
X0162212Y0143083D01*
X0161214Y0144082D02*
X0156402Y0144082D01*
X0156402Y0145080D02*
X0160215Y0145080D01*
X0159217Y0146079D02*
X0156402Y0146079D01*
X0156402Y0147077D02*
X0158218Y0147077D01*
X0157220Y0148076D02*
X0156402Y0148076D01*
X0154595Y0148256D02*
X0154595Y0104256D01*
X0164595Y0094256D01*
X0191595Y0094256D01*
X0194902Y0094156D02*
X0195788Y0094156D01*
X0195788Y0093158D02*
X0194720Y0093158D01*
X0194902Y0093598D02*
X0194902Y0094914D01*
X0194399Y0096129D01*
X0193468Y0097060D01*
X0192253Y0097563D01*
X0190937Y0097563D01*
X0189722Y0097060D01*
X0188792Y0096129D01*
X0188764Y0096063D01*
X0165344Y0096063D01*
X0156402Y0105004D01*
X0152788Y0105140D02*
X0118048Y0105140D01*
X0118048Y0106016D02*
X0118048Y0103759D01*
X0117946Y0103378D01*
X0117748Y0103036D01*
X0117469Y0102756D01*
X0117127Y0102559D01*
X0116745Y0102457D01*
X0114095Y0102457D01*
X0114095Y0106016D01*
X0118048Y0106016D01*
X0118048Y0107137D02*
X0152788Y0107137D01*
X0152788Y0108135D02*
X0118048Y0108135D01*
X0118048Y0109134D02*
X0152788Y0109134D01*
X0152788Y0110132D02*
X0117612Y0110132D01*
X0117855Y0111131D02*
X0152788Y0111131D01*
X0152788Y0112129D02*
X0117855Y0112129D01*
X0117855Y0113128D02*
X0152788Y0113128D01*
X0152788Y0114126D02*
X0117855Y0114126D01*
X0117855Y0115125D02*
X0152788Y0115125D01*
X0152788Y0116123D02*
X0117855Y0116123D01*
X0117830Y0117122D02*
X0152788Y0117122D01*
X0152788Y0118120D02*
X0113016Y0118120D01*
X0112018Y0119119D02*
X0152788Y0119119D01*
X0152788Y0120117D02*
X0111019Y0120117D01*
X0110021Y0121116D02*
X0152788Y0121116D01*
X0152788Y0122114D02*
X0109022Y0122114D01*
X0103627Y0123113D02*
X0152788Y0123113D01*
X0152788Y0124112D02*
X0103627Y0124112D01*
X0103627Y0125110D02*
X0152788Y0125110D01*
X0152788Y0130103D02*
X0145127Y0130103D01*
X0145127Y0131101D02*
X0152788Y0131101D01*
X0152788Y0132100D02*
X0145127Y0132100D01*
X0145127Y0133098D02*
X0152788Y0133098D01*
X0152788Y0134097D02*
X0145127Y0134097D01*
X0145127Y0135095D02*
X0152788Y0135095D01*
X0152788Y0136094D02*
X0145127Y0136094D01*
X0145127Y0137092D02*
X0152788Y0137092D01*
X0152788Y0138091D02*
X0145127Y0138091D01*
X0145127Y0139089D02*
X0152788Y0139089D01*
X0152788Y0140088D02*
X0145127Y0140088D01*
X0145127Y0141086D02*
X0152788Y0141086D01*
X0152788Y0142085D02*
X0145127Y0142085D01*
X0145127Y0143083D02*
X0152788Y0143083D01*
X0152788Y0144082D02*
X0145127Y0144082D01*
X0145127Y0145080D02*
X0152788Y0145080D01*
X0152788Y0146079D02*
X0145127Y0146079D01*
X0145164Y0147077D02*
X0152788Y0147077D01*
X0152788Y0147507D02*
X0152788Y0103507D01*
X0163847Y0092449D01*
X0188764Y0092449D01*
X0188792Y0092383D01*
X0189722Y0091452D01*
X0190937Y0090949D01*
X0192253Y0090949D01*
X0193468Y0091452D01*
X0194399Y0092383D01*
X0194902Y0093598D01*
X0194802Y0095155D02*
X0195788Y0095155D01*
X0195788Y0096153D02*
X0194375Y0096153D01*
X0193246Y0097152D02*
X0195788Y0097152D01*
X0195788Y0098150D02*
X0163256Y0098150D01*
X0162258Y0099149D02*
X0195147Y0099149D01*
X0194148Y0100147D02*
X0161259Y0100147D01*
X0159144Y0097152D02*
X0131350Y0097152D01*
X0131783Y0096153D02*
X0160142Y0096153D01*
X0161141Y0095155D02*
X0132518Y0095155D01*
X0133659Y0094156D02*
X0162139Y0094156D01*
X0163138Y0093158D02*
X0134800Y0093158D01*
X0135942Y0092159D02*
X0189015Y0092159D01*
X0190426Y0091161D02*
X0137083Y0091161D01*
X0138234Y0090162D02*
X0195788Y0090162D01*
X0195788Y0089164D02*
X0138943Y0089164D01*
X0139114Y0088165D02*
X0195788Y0088165D01*
X0195788Y0087167D02*
X0139102Y0087167D01*
X0139102Y0086168D02*
X0194830Y0086168D01*
X0195788Y0091161D02*
X0192764Y0091161D01*
X0194175Y0092159D02*
X0195788Y0092159D01*
X0189944Y0097152D02*
X0164255Y0097152D01*
X0165253Y0096153D02*
X0188816Y0096153D01*
X0204595Y0089256D02*
X0204595Y0108256D01*
X0148961Y0163890D01*
X0140867Y0163890D01*
X0140867Y0161331D02*
X0146520Y0161331D01*
X0166595Y0141256D01*
X0166595Y0112996D01*
X0170855Y0113128D02*
X0197168Y0113128D01*
X0198166Y0112129D02*
X0170855Y0112129D01*
X0170855Y0111131D02*
X0199165Y0111131D01*
X0200163Y0110132D02*
X0170855Y0110132D01*
X0170337Y0109134D02*
X0201162Y0109134D01*
X0202160Y0108135D02*
X0170855Y0108135D01*
X0170855Y0114126D02*
X0196169Y0114126D01*
X0195171Y0115125D02*
X0170855Y0115125D01*
X0170828Y0116123D02*
X0194172Y0116123D01*
X0193174Y0117122D02*
X0168402Y0117122D01*
X0168402Y0118120D02*
X0192175Y0118120D01*
X0191176Y0119119D02*
X0168402Y0119119D01*
X0168402Y0120117D02*
X0190178Y0120117D01*
X0189179Y0121116D02*
X0168402Y0121116D01*
X0168402Y0122114D02*
X0188181Y0122114D01*
X0187182Y0123113D02*
X0168402Y0123113D01*
X0168402Y0124112D02*
X0186184Y0124112D01*
X0185185Y0125110D02*
X0168402Y0125110D01*
X0168402Y0126109D02*
X0184187Y0126109D01*
X0183188Y0127107D02*
X0168402Y0127107D01*
X0168402Y0128106D02*
X0182190Y0128106D01*
X0181191Y0129104D02*
X0168402Y0129104D01*
X0168402Y0130103D02*
X0180193Y0130103D01*
X0179194Y0131101D02*
X0168402Y0131101D01*
X0168402Y0132100D02*
X0178196Y0132100D01*
X0177197Y0133098D02*
X0168402Y0133098D01*
X0168402Y0134097D02*
X0176199Y0134097D01*
X0175200Y0135095D02*
X0168402Y0135095D01*
X0168402Y0136094D02*
X0174202Y0136094D01*
X0173203Y0137092D02*
X0168402Y0137092D01*
X0168402Y0138091D02*
X0172205Y0138091D01*
X0171206Y0139089D02*
X0168402Y0139089D01*
X0168402Y0140088D02*
X0170208Y0140088D01*
X0169209Y0141086D02*
X0168402Y0141086D01*
X0154595Y0148256D02*
X0149198Y0153654D01*
X0140867Y0153654D01*
X0136607Y0154067D02*
X0126402Y0154067D01*
X0126402Y0155065D02*
X0133089Y0155065D01*
X0132090Y0156064D02*
X0126402Y0156064D01*
X0126402Y0157062D02*
X0131092Y0157062D01*
X0130093Y0158061D02*
X0126402Y0158061D01*
X0126402Y0159059D02*
X0129095Y0159059D01*
X0128688Y0160058D02*
X0126402Y0160058D01*
X0126402Y0161056D02*
X0128688Y0161056D01*
X0128688Y0162055D02*
X0126402Y0162055D01*
X0126402Y0163053D02*
X0128688Y0163053D01*
X0128688Y0164052D02*
X0126402Y0164052D01*
X0126402Y0165050D02*
X0128688Y0165050D01*
X0128688Y0166049D02*
X0126402Y0166049D01*
X0126402Y0167047D02*
X0128688Y0167047D01*
X0128688Y0168046D02*
X0126402Y0168046D01*
X0126402Y0169045D02*
X0128688Y0169045D01*
X0128688Y0170043D02*
X0126402Y0170043D01*
X0126402Y0171042D02*
X0128688Y0171042D01*
X0128688Y0172040D02*
X0126402Y0172040D01*
X0126402Y0173039D02*
X0128688Y0173039D01*
X0128688Y0174037D02*
X0126402Y0174037D01*
X0126402Y0175036D02*
X0128688Y0175036D01*
X0128688Y0176034D02*
X0127050Y0176034D01*
X0127668Y0177033D02*
X0128688Y0177033D01*
X0128688Y0178031D02*
X0127902Y0178031D01*
X0127854Y0179030D02*
X0128124Y0179030D01*
X0122140Y0176034D02*
X0121494Y0176034D01*
X0122438Y0175036D02*
X0122788Y0175036D01*
X0122788Y0172322D02*
X0122788Y0155004D01*
X0121402Y0153619D01*
X0121402Y0170425D01*
X0121468Y0170452D01*
X0122399Y0171383D01*
X0122788Y0172322D01*
X0122788Y0172040D02*
X0122671Y0172040D01*
X0122788Y0171042D02*
X0122058Y0171042D01*
X0121402Y0170043D02*
X0122788Y0170043D01*
X0122788Y0169045D02*
X0121402Y0169045D01*
X0121402Y0168046D02*
X0122788Y0168046D01*
X0122788Y0167047D02*
X0121402Y0167047D01*
X0121402Y0166049D02*
X0122788Y0166049D01*
X0122788Y0165050D02*
X0121402Y0165050D01*
X0121402Y0164052D02*
X0122788Y0164052D01*
X0122788Y0163053D02*
X0121402Y0163053D01*
X0121402Y0162055D02*
X0122788Y0162055D01*
X0122788Y0161056D02*
X0121402Y0161056D01*
X0121402Y0160058D02*
X0122788Y0160058D01*
X0122788Y0159059D02*
X0121402Y0159059D01*
X0121402Y0158061D02*
X0122788Y0158061D01*
X0122788Y0157062D02*
X0121402Y0157062D01*
X0121402Y0156064D02*
X0122788Y0156064D01*
X0122788Y0155065D02*
X0121402Y0155065D01*
X0121402Y0154067D02*
X0121850Y0154067D01*
X0119595Y0153256D02*
X0117434Y0151094D01*
X0112323Y0151094D01*
X0108064Y0151071D02*
X0098362Y0151071D01*
X0098362Y0150073D02*
X0108064Y0150073D01*
X0108064Y0149074D02*
X0099855Y0149074D01*
X0098362Y0152070D02*
X0108064Y0152070D01*
X0108064Y0153068D02*
X0098362Y0153068D01*
X0098362Y0154067D02*
X0108064Y0154067D01*
X0107914Y0155065D02*
X0098362Y0155065D01*
X0098362Y0156064D02*
X0107871Y0156064D01*
X0107552Y0156213D02*
X0105595Y0154256D01*
X0105595Y0148256D01*
X0103472Y0148076D02*
X0108064Y0148076D01*
X0116776Y0146079D02*
X0136607Y0146079D01*
X0136607Y0145080D02*
X0116776Y0145080D01*
X0116583Y0144082D02*
X0136607Y0144082D01*
X0136607Y0143083D02*
X0116583Y0143083D01*
X0116583Y0142085D02*
X0136607Y0142085D01*
X0136569Y0147077D02*
X0119972Y0147077D01*
X0120971Y0148076D02*
X0136414Y0148076D01*
X0136414Y0148535D02*
X0140867Y0148535D01*
X0145320Y0148535D01*
X0145320Y0149520D01*
X0145217Y0149902D01*
X0145127Y0150059D01*
X0145127Y0151846D01*
X0148449Y0151846D01*
X0152788Y0147507D01*
X0152220Y0148076D02*
X0145320Y0148076D01*
X0145320Y0149074D02*
X0151221Y0149074D01*
X0150223Y0150073D02*
X0145127Y0150073D01*
X0145127Y0151071D02*
X0149224Y0151071D01*
X0149835Y0155461D02*
X0148449Y0155461D01*
X0145127Y0155461D01*
X0145127Y0159524D01*
X0145772Y0159524D01*
X0149835Y0155461D01*
X0149232Y0156064D02*
X0145127Y0156064D01*
X0145127Y0157062D02*
X0148233Y0157062D01*
X0147235Y0158061D02*
X0145127Y0158061D01*
X0145127Y0159059D02*
X0146236Y0159059D01*
X0136607Y0159059D02*
X0134489Y0159059D01*
X0133490Y0160058D02*
X0136607Y0160058D01*
X0136607Y0161056D02*
X0132502Y0161056D01*
X0132502Y0162055D02*
X0136607Y0162055D01*
X0136607Y0163053D02*
X0132502Y0163053D01*
X0132502Y0164052D02*
X0136607Y0164052D01*
X0136607Y0165050D02*
X0132502Y0165050D01*
X0117788Y0165050D02*
X0116583Y0165050D01*
X0116583Y0164052D02*
X0117788Y0164052D01*
X0117788Y0163053D02*
X0116583Y0163053D01*
X0116583Y0162055D02*
X0117788Y0162055D01*
X0117788Y0161056D02*
X0116583Y0161056D01*
X0116583Y0160058D02*
X0117788Y0160058D01*
X0117788Y0159059D02*
X0116583Y0159059D01*
X0116583Y0158061D02*
X0117788Y0158061D01*
X0117788Y0157062D02*
X0116776Y0157062D01*
X0116776Y0156213D02*
X0112324Y0156213D01*
X0112324Y0156213D01*
X0116776Y0156213D01*
X0116776Y0156064D02*
X0117788Y0156064D01*
X0117788Y0155065D02*
X0116733Y0155065D01*
X0116583Y0154067D02*
X0117788Y0154067D01*
X0116852Y0153068D02*
X0116583Y0153068D01*
X0119595Y0153256D02*
X0119595Y0173256D01*
X0116519Y0172040D02*
X0089807Y0172040D01*
X0090805Y0171042D02*
X0117133Y0171042D01*
X0117788Y0170043D02*
X0091804Y0170043D01*
X0092802Y0169045D02*
X0117788Y0169045D01*
X0117788Y0168046D02*
X0093801Y0168046D01*
X0094799Y0167047D02*
X0117788Y0167047D01*
X0117788Y0166049D02*
X0095798Y0166049D01*
X0096796Y0165050D02*
X0108064Y0165050D01*
X0108064Y0164052D02*
X0097795Y0164052D01*
X0098317Y0163053D02*
X0108064Y0163053D01*
X0108064Y0162055D02*
X0098362Y0162055D01*
X0098362Y0161056D02*
X0108064Y0161056D01*
X0108064Y0160058D02*
X0098362Y0160058D01*
X0098362Y0159059D02*
X0108064Y0159059D01*
X0108064Y0158061D02*
X0098362Y0158061D01*
X0098362Y0157062D02*
X0107871Y0157062D01*
X0107552Y0156213D02*
X0112323Y0156213D01*
X0122968Y0150073D02*
X0136607Y0150073D01*
X0136607Y0151071D02*
X0123966Y0151071D01*
X0124965Y0152070D02*
X0136607Y0152070D01*
X0136607Y0153068D02*
X0125963Y0153068D01*
X0121969Y0149074D02*
X0136414Y0149074D01*
X0136414Y0148535D02*
X0140867Y0148535D01*
X0140867Y0148535D01*
X0112323Y0140858D02*
X0105198Y0140858D01*
X0091804Y0142085D02*
X0090969Y0142085D01*
X0091335Y0141086D02*
X0089971Y0141086D01*
X0088972Y0140088D02*
X0091335Y0140088D01*
X0091335Y0139089D02*
X0088260Y0139089D01*
X0088702Y0138091D02*
X0091335Y0138091D01*
X0091335Y0137092D02*
X0088702Y0137092D01*
X0088702Y0136094D02*
X0091335Y0136094D01*
X0091655Y0135095D02*
X0088702Y0135095D01*
X0082488Y0135095D02*
X0065816Y0135095D01*
X0065816Y0134097D02*
X0082488Y0134097D01*
X0082488Y0133098D02*
X0065816Y0133098D01*
X0065816Y0132100D02*
X0079883Y0132100D01*
X0078885Y0131101D02*
X0065816Y0131101D01*
X0065816Y0130797D02*
X0065050Y0130031D01*
X0050975Y0130031D01*
X0050209Y0130797D01*
X0050209Y0139754D01*
X0050975Y0140520D01*
X0065050Y0140520D01*
X0065816Y0139754D01*
X0065816Y0130797D01*
X0065121Y0130103D02*
X0077886Y0130103D01*
X0076888Y0129104D02*
X0026595Y0129104D01*
X0026595Y0128106D02*
X0075889Y0128106D01*
X0074891Y0127107D02*
X0026595Y0127107D01*
X0026595Y0126109D02*
X0051252Y0126109D01*
X0051383Y0126240D02*
X0051104Y0125960D01*
X0050906Y0125618D01*
X0050804Y0125237D01*
X0050804Y0124055D01*
X0058406Y0124055D01*
X0058406Y0124055D01*
X0058406Y0126539D01*
X0052106Y0126539D01*
X0051725Y0126437D01*
X0051383Y0126240D01*
X0050804Y0125110D02*
X0026595Y0125110D01*
X0026595Y0124112D02*
X0050804Y0124112D01*
X0050804Y0123113D02*
X0026595Y0123113D01*
X0026595Y0122114D02*
X0050997Y0122114D01*
X0050997Y0121116D02*
X0026595Y0121116D01*
X0026595Y0120117D02*
X0050997Y0120117D01*
X0050997Y0119119D02*
X0026595Y0119119D01*
X0026595Y0118120D02*
X0050997Y0118120D01*
X0050997Y0117122D02*
X0026595Y0117122D01*
X0026595Y0116123D02*
X0050997Y0116123D01*
X0050997Y0115125D02*
X0026595Y0115125D01*
X0026595Y0114126D02*
X0050997Y0114126D01*
X0050997Y0113128D02*
X0026595Y0113128D01*
X0026595Y0112129D02*
X0050997Y0112129D01*
X0050997Y0111131D02*
X0026595Y0111131D01*
X0026595Y0110132D02*
X0050997Y0110132D01*
X0050975Y0105480D02*
X0050209Y0104715D01*
X0050209Y0095758D01*
X0050975Y0094992D01*
X0065050Y0094992D01*
X0065816Y0095758D01*
X0065816Y0104715D01*
X0065050Y0105480D01*
X0050975Y0105480D01*
X0050634Y0105140D02*
X0040587Y0105140D01*
X0040247Y0105480D02*
X0041012Y0104715D01*
X0041012Y0095758D01*
X0040247Y0094992D01*
X0029321Y0094992D01*
X0028556Y0095758D01*
X0028556Y0104715D01*
X0029321Y0105480D01*
X0040247Y0105480D01*
X0041012Y0104141D02*
X0050209Y0104141D01*
X0050209Y0103143D02*
X0041012Y0103143D01*
X0041012Y0102144D02*
X0050209Y0102144D01*
X0050209Y0101146D02*
X0041012Y0101146D01*
X0041012Y0100147D02*
X0050209Y0100147D01*
X0050209Y0099149D02*
X0041012Y0099149D01*
X0041012Y0098150D02*
X0050209Y0098150D01*
X0050209Y0097152D02*
X0041012Y0097152D01*
X0041012Y0096153D02*
X0050209Y0096153D01*
X0050812Y0095155D02*
X0040409Y0095155D01*
X0029159Y0095155D02*
X0026595Y0095155D01*
X0026595Y0096153D02*
X0028556Y0096153D01*
X0028556Y0097152D02*
X0026595Y0097152D01*
X0026595Y0098150D02*
X0028556Y0098150D01*
X0028556Y0099149D02*
X0026595Y0099149D01*
X0026595Y0100147D02*
X0028556Y0100147D01*
X0028556Y0101146D02*
X0026595Y0101146D01*
X0026595Y0102144D02*
X0028556Y0102144D01*
X0028556Y0103143D02*
X0026595Y0103143D01*
X0026595Y0104141D02*
X0028556Y0104141D01*
X0028981Y0105140D02*
X0026595Y0105140D01*
X0026595Y0106138D02*
X0091750Y0106138D01*
X0091670Y0106059D02*
X0091473Y0105717D01*
X0091371Y0105335D01*
X0091371Y0100913D01*
X0097095Y0100913D01*
X0097095Y0099913D01*
X0098095Y0099913D01*
X0098095Y0094189D01*
X0102517Y0094189D01*
X0102899Y0094291D01*
X0103241Y0094489D01*
X0103520Y0094768D01*
X0103717Y0095110D01*
X0103820Y0095491D01*
X0103820Y0099913D01*
X0098095Y0099913D01*
X0098095Y0100913D01*
X0103820Y0100913D01*
X0103820Y0105335D01*
X0103717Y0105717D01*
X0103520Y0106059D01*
X0103241Y0106338D01*
X0102899Y0106536D01*
X0102517Y0106638D01*
X0098095Y0106638D01*
X0098095Y0100913D01*
X0097095Y0100913D01*
X0097095Y0106638D01*
X0092673Y0106638D01*
X0092292Y0106536D01*
X0091950Y0106338D01*
X0091670Y0106059D01*
X0091371Y0105140D02*
X0065390Y0105140D01*
X0065816Y0104141D02*
X0091371Y0104141D01*
X0091371Y0103143D02*
X0065816Y0103143D01*
X0065816Y0102144D02*
X0091371Y0102144D01*
X0091371Y0101146D02*
X0065816Y0101146D01*
X0065816Y0100147D02*
X0097095Y0100147D01*
X0097095Y0099913D02*
X0091371Y0099913D01*
X0091371Y0095491D01*
X0091473Y0095110D01*
X0091670Y0094768D01*
X0091950Y0094489D01*
X0092292Y0094291D01*
X0092673Y0094189D01*
X0097095Y0094189D01*
X0097095Y0099913D01*
X0097095Y0099149D02*
X0098095Y0099149D01*
X0098095Y0100147D02*
X0156148Y0100147D01*
X0157147Y0099149D02*
X0103820Y0099149D01*
X0103820Y0098150D02*
X0126990Y0098150D01*
X0125841Y0097152D02*
X0103820Y0097152D01*
X0103820Y0096153D02*
X0125408Y0096153D01*
X0125307Y0095155D02*
X0103729Y0095155D01*
X0098095Y0095155D02*
X0097095Y0095155D01*
X0097095Y0096153D02*
X0098095Y0096153D01*
X0098095Y0097152D02*
X0097095Y0097152D01*
X0097095Y0098150D02*
X0098095Y0098150D01*
X0091371Y0098150D02*
X0065816Y0098150D01*
X0065816Y0097152D02*
X0091371Y0097152D01*
X0091371Y0096153D02*
X0065816Y0096153D01*
X0065212Y0095155D02*
X0091461Y0095155D01*
X0091371Y0099149D02*
X0065816Y0099149D01*
X0075901Y0110132D02*
X0109579Y0110132D01*
X0109335Y0111131D02*
X0076900Y0111131D01*
X0077898Y0112129D02*
X0109335Y0112129D01*
X0109335Y0113128D02*
X0078897Y0113128D01*
X0079895Y0114126D02*
X0092270Y0114126D01*
X0091564Y0115125D02*
X0080894Y0115125D01*
X0081892Y0116123D02*
X0091564Y0116123D01*
X0091564Y0117122D02*
X0082891Y0117122D01*
X0083890Y0118120D02*
X0091564Y0118120D01*
X0091564Y0119119D02*
X0087957Y0119119D01*
X0088702Y0120117D02*
X0091564Y0120117D01*
X0091564Y0125313D02*
X0088702Y0125313D01*
X0088702Y0125449D01*
X0091648Y0125449D01*
X0091564Y0125364D01*
X0091564Y0125313D01*
X0082488Y0124593D02*
X0082488Y0122679D01*
X0073373Y0113564D01*
X0071459Y0113564D01*
X0082488Y0124593D01*
X0082488Y0124112D02*
X0082006Y0124112D01*
X0082488Y0123113D02*
X0081008Y0123113D01*
X0081924Y0122114D02*
X0080009Y0122114D01*
X0080925Y0121116D02*
X0079011Y0121116D01*
X0079927Y0120117D02*
X0078012Y0120117D01*
X0078928Y0119119D02*
X0077014Y0119119D01*
X0077930Y0118120D02*
X0076015Y0118120D01*
X0076931Y0117122D02*
X0075017Y0117122D01*
X0075933Y0116123D02*
X0074018Y0116123D01*
X0074934Y0115125D02*
X0073020Y0115125D01*
X0073936Y0114126D02*
X0072021Y0114126D01*
X0067901Y0120117D02*
X0065816Y0120117D01*
X0065816Y0121116D02*
X0068900Y0121116D01*
X0069898Y0122114D02*
X0065816Y0122114D01*
X0066009Y0123113D02*
X0070897Y0123113D01*
X0071895Y0124112D02*
X0066009Y0124112D01*
X0066009Y0124055D02*
X0066009Y0125237D01*
X0065906Y0125618D01*
X0065709Y0125960D01*
X0065430Y0126240D01*
X0065087Y0126437D01*
X0064706Y0126539D01*
X0058406Y0126539D01*
X0058406Y0124055D01*
X0058406Y0124055D01*
X0058406Y0124055D01*
X0066009Y0124055D01*
X0066009Y0125110D02*
X0072894Y0125110D01*
X0073892Y0126109D02*
X0065561Y0126109D01*
X0058406Y0126109D02*
X0058406Y0126109D01*
X0058406Y0125110D02*
X0058406Y0125110D01*
X0058406Y0124112D02*
X0058406Y0124112D01*
X0050904Y0130103D02*
X0040318Y0130103D01*
X0040247Y0130031D02*
X0041012Y0130797D01*
X0041012Y0139754D01*
X0040247Y0140520D01*
X0029321Y0140520D01*
X0028556Y0139754D01*
X0028556Y0130797D01*
X0029321Y0130031D01*
X0040247Y0130031D01*
X0041012Y0131101D02*
X0050209Y0131101D01*
X0050209Y0132100D02*
X0041012Y0132100D01*
X0041012Y0133098D02*
X0050209Y0133098D01*
X0050209Y0134097D02*
X0041012Y0134097D01*
X0041012Y0135095D02*
X0050209Y0135095D01*
X0050209Y0136094D02*
X0041012Y0136094D01*
X0041012Y0137092D02*
X0050209Y0137092D01*
X0050209Y0138091D02*
X0041012Y0138091D01*
X0041012Y0139089D02*
X0050209Y0139089D01*
X0050543Y0140088D02*
X0040679Y0140088D01*
X0028889Y0140088D02*
X0026595Y0140088D01*
X0026595Y0141086D02*
X0083225Y0141086D01*
X0083088Y0140088D02*
X0065482Y0140088D01*
X0065816Y0139089D02*
X0082930Y0139089D01*
X0082488Y0138091D02*
X0065816Y0138091D01*
X0065816Y0137092D02*
X0082488Y0137092D01*
X0082488Y0136094D02*
X0065816Y0136094D01*
X0083878Y0142085D02*
X0026595Y0142085D01*
X0026595Y0143083D02*
X0084877Y0143083D01*
X0085875Y0144082D02*
X0026595Y0144082D01*
X0026595Y0145080D02*
X0086874Y0145080D01*
X0087872Y0146079D02*
X0026595Y0146079D01*
X0026595Y0147077D02*
X0088871Y0147077D01*
X0089869Y0148076D02*
X0026595Y0148076D01*
X0026595Y0149074D02*
X0091335Y0149074D01*
X0093348Y0150073D02*
X0026595Y0150073D01*
X0026595Y0151071D02*
X0093348Y0151071D01*
X0093348Y0152070D02*
X0026595Y0152070D01*
X0026595Y0153068D02*
X0093348Y0153068D01*
X0093348Y0154067D02*
X0026595Y0154067D01*
X0026595Y0155065D02*
X0093348Y0155065D01*
X0093348Y0156064D02*
X0026595Y0156064D01*
X0026595Y0157062D02*
X0093348Y0157062D01*
X0093348Y0158061D02*
X0026595Y0158061D01*
X0026595Y0159059D02*
X0093348Y0159059D01*
X0093348Y0160058D02*
X0026595Y0160058D01*
X0026595Y0161056D02*
X0093348Y0161056D01*
X0092701Y0162055D02*
X0026595Y0162055D01*
X0026595Y0163053D02*
X0091702Y0163053D01*
X0090704Y0164052D02*
X0026595Y0164052D01*
X0026595Y0165050D02*
X0089705Y0165050D01*
X0088707Y0166049D02*
X0026595Y0166049D01*
X0026595Y0167047D02*
X0087708Y0167047D01*
X0086709Y0168046D02*
X0026595Y0168046D01*
X0026595Y0169045D02*
X0085711Y0169045D01*
X0084712Y0170043D02*
X0026595Y0170043D01*
X0026595Y0171042D02*
X0082583Y0171042D01*
X0081706Y0172040D02*
X0026595Y0172040D01*
X0026595Y0173039D02*
X0081292Y0173039D01*
X0081288Y0174037D02*
X0026595Y0174037D01*
X0026595Y0175036D02*
X0081566Y0175036D01*
X0082246Y0176034D02*
X0026595Y0176034D01*
X0026595Y0177033D02*
X0085225Y0177033D01*
X0086223Y0178031D02*
X0026595Y0178031D01*
X0026595Y0179030D02*
X0087222Y0179030D01*
X0088220Y0180028D02*
X0026595Y0180028D01*
X0026595Y0181027D02*
X0089219Y0181027D01*
X0090217Y0182025D02*
X0026595Y0182025D01*
X0026595Y0183024D02*
X0091216Y0183024D01*
X0092214Y0184022D02*
X0026595Y0184022D01*
X0026595Y0185021D02*
X0093213Y0185021D01*
X0094211Y0186019D02*
X0038215Y0186019D01*
X0041208Y0187018D02*
X0243319Y0187018D01*
X0242905Y0188016D02*
X0042932Y0188016D01*
X0043930Y0189015D02*
X0242788Y0189015D01*
X0242788Y0190013D02*
X0044893Y0190013D01*
X0045469Y0191012D02*
X0243119Y0191012D01*
X0243551Y0192010D02*
X0046046Y0192010D01*
X0046396Y0193009D02*
X0244550Y0193009D01*
X0246505Y0194007D02*
X0046663Y0194007D01*
X0046531Y0199000D02*
X0395660Y0199000D01*
X0395927Y0199998D02*
X0046263Y0199998D01*
X0045760Y0200997D02*
X0396431Y0200997D01*
X0397007Y0201995D02*
X0045183Y0201995D01*
X0044434Y0202994D02*
X0397757Y0202994D01*
X0398755Y0203992D02*
X0043435Y0203992D01*
X0042080Y0204991D02*
X0400110Y0204991D01*
X0402098Y0205989D02*
X0040093Y0205989D01*
X0026795Y0193009D02*
X0026595Y0193009D01*
X0026595Y0192010D02*
X0027145Y0192010D01*
X0026595Y0191012D02*
X0027721Y0191012D01*
X0028298Y0190013D02*
X0026595Y0190013D01*
X0026595Y0189015D02*
X0029260Y0189015D01*
X0030258Y0188016D02*
X0026595Y0188016D01*
X0026595Y0187018D02*
X0031982Y0187018D01*
X0034975Y0186019D02*
X0026595Y0186019D01*
X0087902Y0174037D02*
X0116339Y0174037D01*
X0116288Y0173039D02*
X0088808Y0173039D01*
X0088622Y0175036D02*
X0116753Y0175036D01*
X0117696Y0176034D02*
X0089620Y0176034D01*
X0028556Y0139089D02*
X0026595Y0139089D01*
X0026595Y0138091D02*
X0028556Y0138091D01*
X0028556Y0137092D02*
X0026595Y0137092D01*
X0026595Y0136094D02*
X0028556Y0136094D01*
X0028556Y0135095D02*
X0026595Y0135095D01*
X0026595Y0134097D02*
X0028556Y0134097D01*
X0028556Y0133098D02*
X0026595Y0133098D01*
X0026595Y0132100D02*
X0028556Y0132100D01*
X0028556Y0131101D02*
X0026595Y0131101D01*
X0026595Y0130103D02*
X0029250Y0130103D01*
X0026595Y0109134D02*
X0109142Y0109134D01*
X0109142Y0108135D02*
X0026595Y0108135D01*
X0026595Y0107137D02*
X0109142Y0107137D01*
X0109142Y0105140D02*
X0103820Y0105140D01*
X0103820Y0104141D02*
X0109142Y0104141D01*
X0109380Y0103143D02*
X0103820Y0103143D01*
X0103820Y0102144D02*
X0154151Y0102144D01*
X0155150Y0101146D02*
X0103820Y0101146D01*
X0103440Y0106138D02*
X0113095Y0106138D01*
X0113095Y0105140D02*
X0114095Y0105140D01*
X0114095Y0106138D02*
X0152788Y0106138D01*
X0152788Y0104141D02*
X0118048Y0104141D01*
X0117810Y0103143D02*
X0153153Y0103143D01*
X0158145Y0098150D02*
X0130200Y0098150D01*
X0125492Y0094156D02*
X0026595Y0094156D01*
X0026595Y0093158D02*
X0126043Y0093158D01*
X0127479Y0092159D02*
X0026595Y0092159D01*
X0026595Y0091161D02*
X0129468Y0091161D01*
X0130609Y0090162D02*
X0026595Y0090162D01*
X0026595Y0089164D02*
X0131751Y0089164D01*
X0132892Y0088165D02*
X0026595Y0088165D01*
X0053484Y0082174D02*
X0054084Y0082174D01*
X0054084Y0081176D02*
X0053484Y0081176D01*
X0053484Y0080177D02*
X0054084Y0080177D01*
X0097095Y0101146D02*
X0098095Y0101146D01*
X0098095Y0102144D02*
X0097095Y0102144D01*
X0097095Y0103143D02*
X0098095Y0103143D01*
X0098095Y0104141D02*
X0097095Y0104141D01*
X0097095Y0105140D02*
X0098095Y0105140D01*
X0098095Y0106138D02*
X0097095Y0106138D01*
X0102920Y0114126D02*
X0109335Y0114126D01*
X0108921Y0115125D02*
X0103627Y0115125D01*
X0103627Y0116123D02*
X0107922Y0116123D01*
X0106924Y0117122D02*
X0103627Y0117122D01*
X0113095Y0104141D02*
X0114095Y0104141D01*
X0114095Y0103143D02*
X0113095Y0103143D01*
X0139102Y0085170D02*
X0179953Y0085170D01*
X0178955Y0084171D02*
X0139102Y0084171D01*
X0139102Y0083173D02*
X0177956Y0083173D01*
X0176958Y0082174D02*
X0139102Y0082174D01*
X0139102Y0081176D02*
X0175959Y0081176D01*
X0174961Y0080177D02*
X0139102Y0080177D01*
X0033970Y0049223D02*
X0026595Y0049223D01*
X0026595Y0048225D02*
X0031515Y0048225D01*
X0029989Y0047226D02*
X0026595Y0047226D01*
X0026595Y0046228D02*
X0028990Y0046228D01*
X0028142Y0045229D02*
X0026595Y0045229D01*
X0026595Y0044231D02*
X0027566Y0044231D01*
X0026990Y0043232D02*
X0026595Y0043232D01*
X0026595Y0042234D02*
X0026722Y0042234D01*
X0295924Y0179030D02*
X0300813Y0179030D01*
X0301812Y0180028D02*
X0296923Y0180028D01*
X0297921Y0181027D02*
X0302810Y0181027D01*
X0305924Y0179030D02*
X0309948Y0179030D01*
X0309948Y0180028D02*
X0306923Y0180028D01*
X0307921Y0181027D02*
X0309948Y0181027D01*
X0310667Y0182025D02*
X0308920Y0182025D01*
X0309918Y0183024D02*
X0311666Y0183024D01*
X0310917Y0184022D02*
X0312664Y0184022D01*
X0312688Y0185021D02*
X0312158Y0185021D01*
X0309595Y0185256D02*
X0309595Y0189256D01*
X0309595Y0185256D02*
X0301335Y0176996D01*
X0301335Y0174256D01*
X0305201Y0174037D02*
X0307989Y0174037D01*
X0307989Y0173039D02*
X0305201Y0173039D01*
X0305201Y0172040D02*
X0307989Y0172040D01*
X0307989Y0171042D02*
X0305201Y0171042D01*
X0304483Y0170043D02*
X0308708Y0170043D01*
X0307989Y0175036D02*
X0305201Y0175036D01*
X0305201Y0176034D02*
X0307989Y0176034D01*
X0307989Y0177033D02*
X0305201Y0177033D01*
X0304926Y0178031D02*
X0308270Y0178031D01*
X0313762Y0178516D02*
X0313762Y0179726D01*
X0315385Y0181349D01*
X0316502Y0182466D01*
X0316502Y0185551D01*
X0316872Y0185181D01*
X0317528Y0184909D01*
X0317528Y0178516D01*
X0316235Y0178516D01*
X0315595Y0177876D01*
X0314955Y0178516D01*
X0313762Y0178516D01*
X0313762Y0179030D02*
X0317528Y0179030D01*
X0317528Y0180028D02*
X0314064Y0180028D01*
X0315063Y0181027D02*
X0317528Y0181027D01*
X0317528Y0182025D02*
X0316061Y0182025D01*
X0316502Y0183024D02*
X0317528Y0183024D01*
X0317528Y0184022D02*
X0316502Y0184022D01*
X0316502Y0185021D02*
X0317258Y0185021D01*
X0319335Y0188996D02*
X0319595Y0189256D01*
X0319335Y0188996D02*
X0319335Y0174256D01*
X0319335Y0169996D01*
X0315750Y0178031D02*
X0315440Y0178031D01*
X0297750Y0178031D02*
X0297440Y0178031D01*
X0297002Y0170043D02*
X0298188Y0170043D01*
X0323639Y0192010D02*
X0325551Y0192010D01*
X0326550Y0193009D02*
X0322641Y0193009D01*
X0337547Y0198001D02*
X0395392Y0198001D01*
X0395288Y0197003D02*
X0338545Y0197003D01*
X0339544Y0196004D02*
X0395288Y0196004D01*
X0395288Y0195006D02*
X0340542Y0195006D01*
X0341502Y0194007D02*
X0345263Y0194007D01*
X0345174Y0193956D02*
X0344895Y0193677D01*
X0344697Y0193335D01*
X0344595Y0192953D01*
X0344595Y0189563D01*
X0349288Y0189563D01*
X0349288Y0188949D01*
X0344595Y0188949D01*
X0344595Y0185558D01*
X0344697Y0185177D01*
X0344895Y0184835D01*
X0345174Y0184556D01*
X0345516Y0184358D01*
X0345898Y0184256D01*
X0349288Y0184256D01*
X0349288Y0188949D01*
X0349902Y0188949D01*
X0349902Y0184256D01*
X0353293Y0184256D01*
X0353674Y0184358D01*
X0354016Y0184556D01*
X0354295Y0184835D01*
X0354493Y0185177D01*
X0354595Y0185558D01*
X0354595Y0188949D01*
X0349902Y0188949D01*
X0349902Y0189563D01*
X0349288Y0189563D01*
X0349288Y0194256D01*
X0345898Y0194256D01*
X0345516Y0194154D01*
X0345174Y0193956D01*
X0344610Y0193009D02*
X0342641Y0193009D01*
X0343639Y0192010D02*
X0344595Y0192010D01*
X0344595Y0191012D02*
X0344071Y0191012D01*
X0344402Y0190013D02*
X0344595Y0190013D01*
X0344402Y0189015D02*
X0349288Y0189015D01*
X0349902Y0189015D02*
X0398260Y0189015D01*
X0397298Y0190013D02*
X0354595Y0190013D01*
X0354595Y0189563D02*
X0349902Y0189563D01*
X0349902Y0194256D01*
X0353293Y0194256D01*
X0353674Y0194154D01*
X0354016Y0193956D01*
X0354295Y0193677D01*
X0354493Y0193335D01*
X0354595Y0192953D01*
X0354595Y0189563D01*
X0354595Y0191012D02*
X0396721Y0191012D01*
X0396145Y0192010D02*
X0354595Y0192010D01*
X0354580Y0193009D02*
X0395795Y0193009D01*
X0395527Y0194007D02*
X0353928Y0194007D01*
X0349902Y0194007D02*
X0349288Y0194007D01*
X0349288Y0193009D02*
X0349902Y0193009D01*
X0349902Y0192010D02*
X0349288Y0192010D01*
X0349288Y0191012D02*
X0349902Y0191012D01*
X0349902Y0190013D02*
X0349288Y0190013D01*
X0349288Y0188016D02*
X0349902Y0188016D01*
X0349902Y0187018D02*
X0349288Y0187018D01*
X0349288Y0186019D02*
X0349902Y0186019D01*
X0349902Y0185021D02*
X0349288Y0185021D01*
X0344788Y0185021D02*
X0342102Y0185021D01*
X0342102Y0184022D02*
X0415595Y0184022D01*
X0415595Y0183024D02*
X0342102Y0183024D01*
X0342102Y0182025D02*
X0415595Y0182025D01*
X0415595Y0181027D02*
X0341800Y0181027D01*
X0340913Y0180028D02*
X0415595Y0180028D01*
X0415595Y0179030D02*
X0340102Y0179030D01*
X0340385Y0178031D02*
X0343270Y0178031D01*
X0342989Y0177033D02*
X0340909Y0177033D01*
X0350440Y0178031D02*
X0350750Y0178031D01*
X0357920Y0178031D02*
X0415595Y0178031D01*
X0415595Y0177033D02*
X0358201Y0177033D01*
X0358201Y0176034D02*
X0415595Y0176034D01*
X0415595Y0175036D02*
X0358201Y0175036D01*
X0358201Y0174037D02*
X0415595Y0174037D01*
X0415595Y0173039D02*
X0358201Y0173039D01*
X0358201Y0172040D02*
X0415595Y0172040D01*
X0415595Y0171042D02*
X0380811Y0171042D01*
X0381813Y0170043D02*
X0415595Y0170043D01*
X0415595Y0169045D02*
X0382394Y0169045D01*
X0382792Y0168046D02*
X0415595Y0168046D01*
X0415595Y0167047D02*
X0382792Y0167047D01*
X0382700Y0166049D02*
X0415595Y0166049D01*
X0415595Y0165050D02*
X0382286Y0165050D01*
X0381554Y0164052D02*
X0415595Y0164052D01*
X0415595Y0163053D02*
X0380184Y0163053D01*
X0378786Y0162055D02*
X0415595Y0162055D01*
X0415595Y0161056D02*
X0381192Y0161056D01*
X0382127Y0160058D02*
X0415595Y0160058D01*
X0415595Y0159059D02*
X0382669Y0159059D01*
X0382929Y0158061D02*
X0415595Y0158061D01*
X0375489Y0158061D02*
X0374489Y0158061D01*
X0374489Y0159059D02*
X0375489Y0159059D01*
X0375489Y0160058D02*
X0374489Y0160058D01*
X0374489Y0161056D02*
X0375489Y0161056D01*
X0375489Y0162055D02*
X0374489Y0162055D01*
X0374489Y0156064D02*
X0375489Y0156064D01*
X0375489Y0155065D02*
X0374489Y0155065D01*
X0374489Y0154067D02*
X0375489Y0154067D01*
X0375489Y0153068D02*
X0374489Y0153068D01*
X0354403Y0185021D02*
X0415595Y0185021D01*
X0415595Y0186019D02*
X0407215Y0186019D01*
X0410208Y0187018D02*
X0415595Y0187018D01*
X0415595Y0188016D02*
X0411932Y0188016D01*
X0412930Y0189015D02*
X0415595Y0189015D01*
X0415595Y0190013D02*
X0413893Y0190013D01*
X0414469Y0191012D02*
X0415595Y0191012D01*
X0415595Y0192010D02*
X0415046Y0192010D01*
X0415396Y0193009D02*
X0415595Y0193009D01*
X0403975Y0186019D02*
X0354595Y0186019D01*
X0354595Y0187018D02*
X0400982Y0187018D01*
X0399258Y0188016D02*
X0354595Y0188016D01*
X0344595Y0188016D02*
X0344285Y0188016D01*
X0344595Y0187018D02*
X0343871Y0187018D01*
X0343157Y0186019D02*
X0344595Y0186019D01*
X0339595Y0189256D02*
X0339595Y0193256D01*
D28*
X0123595Y0141256D02*
X0123595Y0133256D01*
X0118552Y0138299D01*
X0112323Y0138299D01*
X0118875Y0145976D02*
X0123595Y0141256D01*
X0118875Y0145976D02*
X0112323Y0145976D01*
X0095855Y0146256D02*
X0095595Y0145996D01*
X0095595Y0138516D02*
X0095855Y0138256D01*
X0123595Y0133256D02*
X0123595Y0111256D01*
X0118595Y0106256D01*
X0113855Y0106256D01*
X0113595Y0106516D01*
X0113493Y0100413D01*
X0097595Y0100413D01*
X0097595Y0100256D02*
X0085595Y0100256D01*
X0072595Y0087256D01*
X0053595Y0087256D01*
X0053784Y0071256D01*
X0058406Y0111457D02*
X0074246Y0111457D01*
X0085595Y0122806D01*
X0094888Y0122806D02*
X0097595Y0120098D01*
D29*
X0058406Y0124055D02*
X0049394Y0124055D01*
X0045595Y0120256D01*
X0045595Y0095256D01*
X0053595Y0087256D01*
X0172595Y0065256D02*
X0270595Y0065256D01*
X0303595Y0098256D01*
D30*
X0359595Y0056256D03*
X0214595Y0092256D03*
X0205595Y0117256D03*
X0138595Y0107256D03*
X0158595Y0078256D03*
X0161595Y0166256D03*
X0204595Y0166256D03*
D31*
X0124595Y0178256D03*
X0119595Y0173256D03*
X0084595Y0173706D03*
X0191595Y0094256D03*
X0204595Y0089256D03*
X0197595Y0084256D03*
X0205595Y0079256D03*
X0212595Y0074256D03*
X0172595Y0065256D03*
X0162595Y0065256D03*
D32*
X0112323Y0143417D02*
X0105434Y0143417D01*
X0102595Y0146256D01*
X0095855Y0146256D01*
X0130595Y0160256D02*
X0130595Y0179256D01*
X0125595Y0184256D01*
X0095145Y0184256D01*
X0084595Y0173706D01*
X0130595Y0160256D02*
X0134638Y0156213D01*
X0140867Y0156213D01*
X0311855Y0174256D02*
X0311855Y0180516D01*
X0314595Y0183256D01*
X0314595Y0193256D01*
X0317595Y0196256D01*
X0336595Y0196256D01*
X0339595Y0193256D01*
X0337595Y0174256D02*
X0346855Y0174256D01*
X0354335Y0174256D02*
X0354335Y0153035D01*
X0343595Y0142295D01*
X0338635Y0147256D01*
X0327595Y0147256D01*
X0343595Y0122217D02*
X0338635Y0117256D01*
X0327595Y0117256D01*
X0327595Y0096256D01*
D33*
X0303595Y0098256D02*
X0303595Y0136256D01*
X0337042Y0169703D01*
X0337042Y0174013D01*
D34*
X0327595Y0096256D03*
X0303595Y0098256D03*
X0128595Y0095256D03*
X0128595Y0084256D03*
D35*
X0036595Y0039256D03*
X0036595Y0196256D03*
X0405595Y0196256D03*
X0405595Y0039256D03*
M02*
