G75*
%MOIN*%
%OFA0B0*%
%FSLAX25Y25*%
%IPPOS*%
%LPD*%
%AMOC8*
5,1,8,0,0,1.08239X$1,22.5*
%
%ADD10OC8,0.07000*%
%ADD11C,0.07000*%
%ADD12R,0.05906X0.05118*%
%ADD13C,0.06496*%
%ADD14OC8,0.10000*%
%ADD15R,0.05118X0.05906*%
%ADD16R,0.07000X0.07000*%
%ADD17R,0.08661X0.07087*%
%ADD18C,0.06600*%
%ADD19C,0.10000*%
%ADD20R,0.09843X0.07874*%
%ADD21R,0.12992X0.07874*%
%ADD22R,0.12205X0.01969*%
%ADD23R,0.03600X0.04800*%
%ADD24R,0.05906X0.01575*%
%ADD25R,0.09449X0.09449*%
%ADD26C,0.02400*%
%ADD27C,0.01000*%
%ADD28C,0.01600*%
%ADD29C,0.01400*%
%ADD30C,0.04000*%
%ADD31C,0.01200*%
%ADD32C,0.01800*%
%ADD33C,0.03962*%
%ADD34C,0.18000*%
D10*
X0247595Y0179256D03*
X0299595Y0189256D03*
X0309595Y0189256D03*
D11*
X0319595Y0189256D03*
X0329595Y0189256D03*
X0339595Y0189256D03*
X0267595Y0189256D03*
X0257595Y0189256D03*
X0247595Y0189256D03*
X0257595Y0179256D03*
X0267595Y0179256D03*
D12*
X0166595Y0112996D03*
X0166595Y0105516D03*
X0113595Y0106516D03*
X0113595Y0113996D03*
X0095595Y0138516D03*
X0095595Y0145996D03*
D13*
X0371741Y0157335D02*
X0378237Y0157335D01*
X0378237Y0167177D02*
X0371741Y0167177D01*
X0371741Y0118177D02*
X0378237Y0118177D01*
X0378237Y0108335D02*
X0371741Y0108335D01*
X0371741Y0078277D02*
X0378237Y0078277D01*
X0378237Y0068435D02*
X0371741Y0068435D01*
D14*
X0327595Y0117256D03*
X0327595Y0147256D03*
D15*
X0329562Y0174013D03*
X0337042Y0174013D03*
X0346855Y0174256D03*
X0354335Y0174256D03*
X0319335Y0174256D03*
X0311855Y0174256D03*
X0301335Y0174256D03*
X0293855Y0174256D03*
D16*
X0349595Y0189256D03*
D17*
X0343595Y0142295D03*
X0343595Y0122217D03*
D18*
X0360595Y0101130D03*
X0360595Y0093256D03*
X0360595Y0085382D03*
D19*
X0077406Y0076256D02*
X0077406Y0066256D01*
X0070595Y0052358D02*
X0060595Y0052358D01*
X0053784Y0066256D02*
X0053784Y0076256D01*
D20*
X0034784Y0100236D03*
X0034784Y0135276D03*
D21*
X0058012Y0135276D03*
X0058012Y0100236D03*
D22*
X0058406Y0111457D03*
X0058406Y0114606D03*
X0058406Y0117756D03*
X0058406Y0120906D03*
X0058406Y0124055D03*
D23*
X0085595Y0122806D03*
X0085595Y0135706D03*
D24*
X0112323Y0135740D03*
X0112323Y0133181D03*
X0112323Y0130622D03*
X0112323Y0138299D03*
X0112323Y0140858D03*
X0112323Y0143417D03*
X0112323Y0145976D03*
X0112323Y0148535D03*
X0112323Y0151094D03*
X0112323Y0153654D03*
X0112323Y0156213D03*
X0112323Y0158772D03*
X0112323Y0161331D03*
X0112323Y0163890D03*
X0140867Y0163890D03*
X0140867Y0161331D03*
X0140867Y0158772D03*
X0140867Y0156213D03*
X0140867Y0153654D03*
X0140867Y0151094D03*
X0140867Y0148535D03*
X0140867Y0145976D03*
X0140867Y0143417D03*
X0140867Y0140858D03*
X0140867Y0138299D03*
X0140867Y0135740D03*
X0140867Y0133181D03*
X0140867Y0130622D03*
D25*
X0097595Y0120098D03*
X0097595Y0100413D03*
D26*
X0113595Y0113996D02*
X0107493Y0120098D01*
X0097595Y0120098D01*
X0094888Y0122806D02*
X0085595Y0122806D01*
X0085595Y0135706D02*
X0085595Y0140256D01*
X0091335Y0145996D01*
X0095595Y0145996D01*
X0095855Y0146256D02*
X0095855Y0162446D01*
X0084595Y0173706D01*
X0128595Y0095256D02*
X0136595Y0088256D01*
X0136595Y0076256D01*
X0162595Y0050256D01*
X0299595Y0050256D01*
X0350469Y0101130D01*
X0360595Y0101130D01*
X0360595Y0093256D02*
X0386595Y0093256D01*
X0386595Y0082256D01*
X0382595Y0078256D01*
X0375010Y0078256D01*
X0374989Y0078277D01*
X0360595Y0085382D02*
X0350721Y0085382D01*
X0308595Y0043256D01*
X0158595Y0043256D01*
X0128595Y0073256D01*
X0128595Y0084256D01*
X0267595Y0189256D02*
X0267595Y0195256D01*
X0272595Y0200256D01*
X0344595Y0200256D01*
X0349595Y0195256D01*
X0349595Y0189256D01*
X0357595Y0189256D01*
X0361595Y0185256D01*
X0361595Y0163256D01*
X0366595Y0157256D01*
X0374910Y0157256D01*
X0337595Y0174256D02*
X0337595Y0180256D01*
X0339595Y0182256D01*
X0339595Y0189256D01*
X0348595Y0189256D02*
X0349595Y0189256D01*
X0374989Y0118177D02*
X0381674Y0118177D01*
X0386595Y0114256D01*
X0386595Y0093256D01*
D27*
X0398984Y0030256D02*
X0043207Y0030256D01*
X0043411Y0030374D01*
X0045477Y0032440D01*
X0046939Y0034971D01*
X0047695Y0037795D01*
X0047695Y0040717D01*
X0046939Y0043540D01*
X0045477Y0046071D01*
X0043411Y0048138D01*
X0040880Y0049599D01*
X0038056Y0050356D01*
X0035134Y0050356D01*
X0032311Y0049599D01*
X0029780Y0048138D01*
X0027713Y0046071D01*
X0027595Y0045867D01*
X0027595Y0189644D01*
X0027713Y0189440D01*
X0029780Y0187374D01*
X0032311Y0185912D01*
X0035134Y0185156D01*
X0038056Y0185156D01*
X0040880Y0185912D01*
X0043411Y0187374D01*
X0045477Y0189440D01*
X0046939Y0191971D01*
X0047695Y0194795D01*
X0047695Y0197717D01*
X0046939Y0200540D01*
X0045477Y0203071D01*
X0043411Y0205138D01*
X0043207Y0205256D01*
X0398984Y0205256D01*
X0398780Y0205138D01*
X0396713Y0203071D01*
X0395252Y0200540D01*
X0394495Y0197717D01*
X0394495Y0194795D01*
X0395252Y0191971D01*
X0396713Y0189440D01*
X0398780Y0187374D01*
X0401311Y0185912D01*
X0404134Y0185156D01*
X0407056Y0185156D01*
X0409880Y0185912D01*
X0412411Y0187374D01*
X0414477Y0189440D01*
X0414595Y0189644D01*
X0414595Y0045867D01*
X0414477Y0046071D01*
X0412411Y0048138D01*
X0409880Y0049599D01*
X0407056Y0050356D01*
X0404134Y0050356D01*
X0401311Y0049599D01*
X0398780Y0048138D01*
X0396713Y0046071D01*
X0395252Y0043540D01*
X0394495Y0040717D01*
X0394495Y0037795D01*
X0395252Y0034971D01*
X0396713Y0032440D01*
X0398780Y0030374D01*
X0398984Y0030256D01*
X0397903Y0031250D02*
X0044287Y0031250D01*
X0045285Y0032248D02*
X0396905Y0032248D01*
X0396247Y0033247D02*
X0045943Y0033247D01*
X0046520Y0034245D02*
X0395671Y0034245D01*
X0395179Y0035244D02*
X0047012Y0035244D01*
X0047279Y0036243D02*
X0394911Y0036243D01*
X0394643Y0037241D02*
X0047547Y0037241D01*
X0047695Y0038240D02*
X0394495Y0038240D01*
X0394495Y0039238D02*
X0047695Y0039238D01*
X0047695Y0040237D02*
X0157261Y0040237D01*
X0156726Y0040458D02*
X0157939Y0039956D01*
X0309252Y0039956D01*
X0310464Y0040458D01*
X0311393Y0041387D01*
X0352088Y0082082D01*
X0356258Y0082082D01*
X0357536Y0080804D01*
X0359521Y0079982D01*
X0361669Y0079982D01*
X0363654Y0080804D01*
X0365173Y0082323D01*
X0365995Y0084308D01*
X0365995Y0086456D01*
X0365173Y0088441D01*
X0364295Y0089319D01*
X0364932Y0089956D01*
X0383295Y0089956D01*
X0383295Y0083623D01*
X0381875Y0082202D01*
X0381266Y0082811D01*
X0379301Y0083625D01*
X0370677Y0083625D01*
X0368711Y0082811D01*
X0367207Y0081307D01*
X0366393Y0079341D01*
X0366393Y0077213D01*
X0367207Y0075248D01*
X0368711Y0073743D01*
X0369647Y0073356D01*
X0368711Y0072968D01*
X0367207Y0071464D01*
X0366393Y0069498D01*
X0366393Y0067371D01*
X0367207Y0065405D01*
X0368711Y0063901D01*
X0370677Y0063087D01*
X0379301Y0063087D01*
X0381266Y0063901D01*
X0382771Y0065405D01*
X0383585Y0067371D01*
X0383585Y0069498D01*
X0382771Y0071464D01*
X0381266Y0072968D01*
X0380331Y0073356D01*
X0381266Y0073743D01*
X0382479Y0074956D01*
X0383252Y0074956D01*
X0384464Y0075458D01*
X0385393Y0076387D01*
X0389393Y0080387D01*
X0389895Y0081599D01*
X0389895Y0113791D01*
X0389948Y0113974D01*
X0389895Y0114442D01*
X0389895Y0114912D01*
X0389822Y0115089D01*
X0389800Y0115279D01*
X0389573Y0115691D01*
X0389393Y0116125D01*
X0389258Y0116260D01*
X0389165Y0116428D01*
X0388797Y0116721D01*
X0388464Y0117053D01*
X0388288Y0117127D01*
X0383876Y0120642D01*
X0383543Y0120975D01*
X0383367Y0121048D01*
X0383217Y0121167D01*
X0382765Y0121297D01*
X0382620Y0121357D01*
X0381266Y0122711D01*
X0379301Y0123525D01*
X0370677Y0123525D01*
X0368711Y0122711D01*
X0367207Y0121207D01*
X0366393Y0119241D01*
X0366393Y0117113D01*
X0367207Y0115148D01*
X0368711Y0113643D01*
X0369647Y0113256D01*
X0368711Y0112868D01*
X0367207Y0111364D01*
X0366393Y0109398D01*
X0366393Y0107271D01*
X0367207Y0105305D01*
X0368711Y0103801D01*
X0370677Y0102987D01*
X0379301Y0102987D01*
X0381266Y0103801D01*
X0382771Y0105305D01*
X0383295Y0106571D01*
X0383295Y0096556D01*
X0364932Y0096556D01*
X0364295Y0097193D01*
X0365173Y0098071D01*
X0365995Y0100056D01*
X0365995Y0102204D01*
X0365173Y0104189D01*
X0363654Y0105708D01*
X0361669Y0106530D01*
X0359521Y0106530D01*
X0357536Y0105708D01*
X0356258Y0104430D01*
X0349813Y0104430D01*
X0348600Y0103928D01*
X0347672Y0102999D01*
X0298228Y0053556D01*
X0163962Y0053556D01*
X0139895Y0077623D01*
X0139895Y0087713D01*
X0139931Y0087820D01*
X0139895Y0088366D01*
X0139895Y0088912D01*
X0139852Y0089017D01*
X0139844Y0089130D01*
X0139602Y0089620D01*
X0139393Y0090125D01*
X0139313Y0090205D01*
X0139262Y0090307D01*
X0138851Y0090667D01*
X0138464Y0091053D01*
X0138360Y0091097D01*
X0132675Y0096071D01*
X0132055Y0097568D01*
X0130907Y0098716D01*
X0129407Y0099337D01*
X0127783Y0099337D01*
X0126283Y0098716D01*
X0125135Y0097568D01*
X0124514Y0096068D01*
X0124514Y0094444D01*
X0125135Y0092944D01*
X0126283Y0091796D01*
X0127783Y0091175D01*
X0128248Y0091175D01*
X0133295Y0086758D01*
X0133295Y0075599D01*
X0133798Y0074387D01*
X0134726Y0073458D01*
X0160726Y0047458D01*
X0161939Y0046956D01*
X0300252Y0046956D01*
X0301464Y0047458D01*
X0302393Y0048387D01*
X0351836Y0097830D01*
X0356258Y0097830D01*
X0356895Y0097193D01*
X0356017Y0096315D01*
X0355195Y0094330D01*
X0355195Y0092182D01*
X0356017Y0090197D01*
X0356895Y0089319D01*
X0356258Y0088682D01*
X0350065Y0088682D01*
X0348852Y0088179D01*
X0307228Y0046556D01*
X0159962Y0046556D01*
X0131895Y0074623D01*
X0131895Y0081784D01*
X0132055Y0081944D01*
X0132676Y0083444D01*
X0132676Y0085068D01*
X0132055Y0086568D01*
X0130907Y0087716D01*
X0129407Y0088337D01*
X0127783Y0088337D01*
X0126283Y0087716D01*
X0125135Y0086568D01*
X0124514Y0085068D01*
X0124514Y0083444D01*
X0125135Y0081944D01*
X0125295Y0081784D01*
X0125295Y0072599D01*
X0125798Y0071387D01*
X0126726Y0070458D01*
X0155798Y0041387D01*
X0156726Y0040458D01*
X0155949Y0041235D02*
X0047556Y0041235D01*
X0047289Y0042234D02*
X0154951Y0042234D01*
X0155798Y0041387D02*
X0155798Y0041387D01*
X0153952Y0043232D02*
X0047021Y0043232D01*
X0046540Y0044231D02*
X0152954Y0044231D01*
X0151955Y0045229D02*
X0045964Y0045229D01*
X0045321Y0046228D02*
X0057014Y0046228D01*
X0056642Y0046442D02*
X0057448Y0045977D01*
X0058308Y0045621D01*
X0059207Y0045380D01*
X0060130Y0045258D01*
X0065295Y0045258D01*
X0065295Y0048258D01*
X0065895Y0048258D01*
X0065895Y0045258D01*
X0071060Y0045258D01*
X0071983Y0045380D01*
X0072882Y0045621D01*
X0073742Y0045977D01*
X0074548Y0046442D01*
X0075287Y0047009D01*
X0075945Y0047667D01*
X0076511Y0048405D01*
X0076977Y0049211D01*
X0077333Y0050071D01*
X0077574Y0050970D01*
X0077695Y0051893D01*
X0077695Y0052058D01*
X0075207Y0052058D01*
X0075207Y0052658D01*
X0077695Y0052658D01*
X0077695Y0052824D01*
X0077574Y0053746D01*
X0077333Y0054645D01*
X0076977Y0055505D01*
X0076511Y0056311D01*
X0075945Y0057050D01*
X0075287Y0057708D01*
X0074548Y0058274D01*
X0073742Y0058740D01*
X0072882Y0059096D01*
X0071983Y0059337D01*
X0071060Y0059458D01*
X0065895Y0059458D01*
X0065895Y0056458D01*
X0065295Y0056458D01*
X0065295Y0059458D01*
X0060130Y0059458D01*
X0059207Y0059337D01*
X0058308Y0059096D01*
X0057448Y0058740D01*
X0056642Y0058274D01*
X0055904Y0057708D01*
X0055246Y0057050D01*
X0054679Y0056311D01*
X0054214Y0055505D01*
X0053858Y0054645D01*
X0053617Y0053746D01*
X0053495Y0052824D01*
X0053495Y0052658D01*
X0055983Y0052658D01*
X0055983Y0052058D01*
X0053495Y0052058D01*
X0053495Y0051893D01*
X0053617Y0050970D01*
X0053858Y0050071D01*
X0054214Y0049211D01*
X0054679Y0048405D01*
X0055246Y0047667D01*
X0055904Y0047009D01*
X0056642Y0046442D01*
X0055686Y0047226D02*
X0044323Y0047226D01*
X0043261Y0048225D02*
X0054818Y0048225D01*
X0054209Y0049223D02*
X0041531Y0049223D01*
X0038557Y0050222D02*
X0053817Y0050222D01*
X0053584Y0051220D02*
X0027595Y0051220D01*
X0027595Y0050222D02*
X0034633Y0050222D01*
X0031659Y0049223D02*
X0027595Y0049223D01*
X0027595Y0048225D02*
X0029929Y0048225D01*
X0028868Y0047226D02*
X0027595Y0047226D01*
X0027595Y0046228D02*
X0027869Y0046228D01*
X0027595Y0052219D02*
X0055983Y0052219D01*
X0053547Y0053217D02*
X0027595Y0053217D01*
X0027595Y0054216D02*
X0053742Y0054216D01*
X0054093Y0055214D02*
X0027595Y0055214D01*
X0027595Y0056213D02*
X0054622Y0056213D01*
X0055407Y0057211D02*
X0027595Y0057211D01*
X0027595Y0058210D02*
X0056558Y0058210D01*
X0056071Y0059518D02*
X0055172Y0059277D01*
X0054249Y0059156D01*
X0054084Y0059156D01*
X0054084Y0061644D01*
X0053484Y0061644D01*
X0053484Y0059156D01*
X0053319Y0059156D01*
X0052396Y0059277D01*
X0051497Y0059518D01*
X0050637Y0059874D01*
X0049831Y0060340D01*
X0049093Y0060906D01*
X0048435Y0061565D01*
X0047868Y0062303D01*
X0047403Y0063109D01*
X0047046Y0063969D01*
X0046806Y0064868D01*
X0046684Y0065791D01*
X0046684Y0070956D01*
X0049684Y0070956D01*
X0049684Y0071556D01*
X0046684Y0071556D01*
X0046684Y0076721D01*
X0046806Y0077644D01*
X0047046Y0078543D01*
X0047403Y0079403D01*
X0047868Y0080209D01*
X0048435Y0080947D01*
X0049093Y0081605D01*
X0049831Y0082172D01*
X0050637Y0082637D01*
X0051497Y0082994D01*
X0052396Y0083234D01*
X0053319Y0083356D01*
X0053484Y0083356D01*
X0053484Y0080868D01*
X0054084Y0080868D01*
X0054084Y0083356D01*
X0054249Y0083356D01*
X0055172Y0083234D01*
X0056071Y0082994D01*
X0056931Y0082637D01*
X0057737Y0082172D01*
X0058476Y0081605D01*
X0059134Y0080947D01*
X0059700Y0080209D01*
X0060166Y0079403D01*
X0060522Y0078543D01*
X0060763Y0077644D01*
X0060884Y0076721D01*
X0060884Y0071556D01*
X0057884Y0071556D01*
X0057884Y0070956D01*
X0060884Y0070956D01*
X0060884Y0065791D01*
X0060763Y0064868D01*
X0060522Y0063969D01*
X0060166Y0063109D01*
X0059700Y0062303D01*
X0059134Y0061565D01*
X0058476Y0060906D01*
X0057737Y0060340D01*
X0056931Y0059874D01*
X0056071Y0059518D01*
X0054647Y0059208D02*
X0058727Y0059208D01*
X0057507Y0060207D02*
X0073457Y0060207D01*
X0073384Y0060237D02*
X0075994Y0059156D01*
X0078818Y0059156D01*
X0081428Y0060237D01*
X0083425Y0062234D01*
X0084506Y0064844D01*
X0084506Y0077668D01*
X0083425Y0080278D01*
X0081428Y0082275D01*
X0078818Y0083356D01*
X0075994Y0083356D01*
X0073384Y0082275D01*
X0071387Y0080278D01*
X0070306Y0077668D01*
X0070306Y0064844D01*
X0071387Y0062234D01*
X0073384Y0060237D01*
X0072416Y0061205D02*
X0058774Y0061205D01*
X0059624Y0062204D02*
X0071417Y0062204D01*
X0070986Y0063202D02*
X0060204Y0063202D01*
X0060584Y0064201D02*
X0070572Y0064201D01*
X0070306Y0065199D02*
X0060806Y0065199D01*
X0060884Y0066198D02*
X0070306Y0066198D01*
X0070306Y0067196D02*
X0060884Y0067196D01*
X0060884Y0068195D02*
X0070306Y0068195D01*
X0070306Y0069193D02*
X0060884Y0069193D01*
X0060884Y0070192D02*
X0070306Y0070192D01*
X0070306Y0071190D02*
X0057884Y0071190D01*
X0060884Y0072189D02*
X0070306Y0072189D01*
X0070306Y0073187D02*
X0060884Y0073187D01*
X0060884Y0074186D02*
X0070306Y0074186D01*
X0070306Y0075184D02*
X0060884Y0075184D01*
X0060884Y0076183D02*
X0070306Y0076183D01*
X0070306Y0077181D02*
X0060824Y0077181D01*
X0060619Y0078180D02*
X0070518Y0078180D01*
X0070932Y0079178D02*
X0060259Y0079178D01*
X0059719Y0080177D02*
X0071345Y0080177D01*
X0072285Y0081176D02*
X0058905Y0081176D01*
X0057734Y0082174D02*
X0073283Y0082174D01*
X0075551Y0083173D02*
X0055403Y0083173D01*
X0054084Y0083173D02*
X0053484Y0083173D01*
X0053484Y0082174D02*
X0054084Y0082174D01*
X0054084Y0081176D02*
X0053484Y0081176D01*
X0052165Y0083173D02*
X0027595Y0083173D01*
X0027595Y0084171D02*
X0124514Y0084171D01*
X0124556Y0085170D02*
X0027595Y0085170D01*
X0027595Y0086168D02*
X0124970Y0086168D01*
X0125734Y0087167D02*
X0027595Y0087167D01*
X0027595Y0088165D02*
X0127368Y0088165D01*
X0129822Y0088165D02*
X0131688Y0088165D01*
X0131456Y0087167D02*
X0132829Y0087167D01*
X0133295Y0086168D02*
X0132220Y0086168D01*
X0132634Y0085170D02*
X0133295Y0085170D01*
X0133295Y0084171D02*
X0132676Y0084171D01*
X0132564Y0083173D02*
X0133295Y0083173D01*
X0133295Y0082174D02*
X0132150Y0082174D01*
X0131895Y0081176D02*
X0133295Y0081176D01*
X0133295Y0080177D02*
X0131895Y0080177D01*
X0131895Y0079178D02*
X0133295Y0079178D01*
X0133295Y0078180D02*
X0131895Y0078180D01*
X0131895Y0077181D02*
X0133295Y0077181D01*
X0133295Y0076183D02*
X0131895Y0076183D01*
X0131895Y0075184D02*
X0133467Y0075184D01*
X0133998Y0074186D02*
X0132332Y0074186D01*
X0133330Y0073187D02*
X0134997Y0073187D01*
X0134329Y0072189D02*
X0135995Y0072189D01*
X0135328Y0071190D02*
X0136994Y0071190D01*
X0136326Y0070192D02*
X0137992Y0070192D01*
X0137325Y0069193D02*
X0138991Y0069193D01*
X0138323Y0068195D02*
X0139989Y0068195D01*
X0139322Y0067196D02*
X0140988Y0067196D01*
X0140320Y0066198D02*
X0141986Y0066198D01*
X0141319Y0065199D02*
X0142985Y0065199D01*
X0142317Y0064201D02*
X0143983Y0064201D01*
X0143316Y0063202D02*
X0144982Y0063202D01*
X0144314Y0062204D02*
X0145980Y0062204D01*
X0145313Y0061205D02*
X0146979Y0061205D01*
X0146311Y0060207D02*
X0147977Y0060207D01*
X0147310Y0059208D02*
X0148976Y0059208D01*
X0148308Y0058210D02*
X0149974Y0058210D01*
X0149307Y0057211D02*
X0150973Y0057211D01*
X0150305Y0056213D02*
X0151971Y0056213D01*
X0151304Y0055214D02*
X0152970Y0055214D01*
X0152302Y0054216D02*
X0153968Y0054216D01*
X0153301Y0053217D02*
X0154967Y0053217D01*
X0154299Y0052219D02*
X0155965Y0052219D01*
X0155298Y0051220D02*
X0156964Y0051220D01*
X0156296Y0050222D02*
X0157962Y0050222D01*
X0157295Y0049223D02*
X0158961Y0049223D01*
X0158293Y0048225D02*
X0159959Y0048225D01*
X0159292Y0047226D02*
X0161286Y0047226D01*
X0150957Y0046228D02*
X0074177Y0046228D01*
X0075504Y0047226D02*
X0149958Y0047226D01*
X0148960Y0048225D02*
X0076373Y0048225D01*
X0076982Y0049223D02*
X0147961Y0049223D01*
X0146962Y0050222D02*
X0077373Y0050222D01*
X0077607Y0051220D02*
X0145964Y0051220D01*
X0144965Y0052219D02*
X0075207Y0052219D01*
X0077643Y0053217D02*
X0143967Y0053217D01*
X0142968Y0054216D02*
X0077448Y0054216D01*
X0077097Y0055214D02*
X0141970Y0055214D01*
X0140971Y0056213D02*
X0076568Y0056213D01*
X0075783Y0057211D02*
X0139973Y0057211D01*
X0138974Y0058210D02*
X0074632Y0058210D01*
X0075867Y0059208D02*
X0072463Y0059208D01*
X0065895Y0059208D02*
X0065295Y0059208D01*
X0065295Y0058210D02*
X0065895Y0058210D01*
X0065895Y0057211D02*
X0065295Y0057211D01*
X0054084Y0059208D02*
X0053484Y0059208D01*
X0052921Y0059208D02*
X0027595Y0059208D01*
X0027595Y0060207D02*
X0050061Y0060207D01*
X0048794Y0061205D02*
X0027595Y0061205D01*
X0027595Y0062204D02*
X0047944Y0062204D01*
X0047364Y0063202D02*
X0027595Y0063202D01*
X0027595Y0064201D02*
X0046984Y0064201D01*
X0046762Y0065199D02*
X0027595Y0065199D01*
X0027595Y0066198D02*
X0046684Y0066198D01*
X0046684Y0067196D02*
X0027595Y0067196D01*
X0027595Y0068195D02*
X0046684Y0068195D01*
X0046684Y0069193D02*
X0027595Y0069193D01*
X0027595Y0070192D02*
X0046684Y0070192D01*
X0046684Y0072189D02*
X0027595Y0072189D01*
X0027595Y0073187D02*
X0046684Y0073187D01*
X0046684Y0074186D02*
X0027595Y0074186D01*
X0027595Y0075184D02*
X0046684Y0075184D01*
X0046684Y0076183D02*
X0027595Y0076183D01*
X0027595Y0077181D02*
X0046745Y0077181D01*
X0046949Y0078180D02*
X0027595Y0078180D01*
X0027595Y0079178D02*
X0047310Y0079178D01*
X0047850Y0080177D02*
X0027595Y0080177D01*
X0027595Y0081176D02*
X0048663Y0081176D01*
X0049835Y0082174D02*
X0027595Y0082174D01*
X0027595Y0089164D02*
X0130546Y0089164D01*
X0129405Y0090162D02*
X0027595Y0090162D01*
X0027595Y0091161D02*
X0128264Y0091161D01*
X0125920Y0092159D02*
X0027595Y0092159D01*
X0027595Y0093158D02*
X0125047Y0093158D01*
X0124633Y0094156D02*
X0103757Y0094156D01*
X0103609Y0094009D02*
X0104000Y0094400D01*
X0104276Y0094878D01*
X0104420Y0095412D01*
X0104420Y0099913D01*
X0098095Y0099913D01*
X0098095Y0093589D01*
X0102596Y0093589D01*
X0103130Y0093732D01*
X0103609Y0094009D01*
X0104350Y0095155D02*
X0124514Y0095155D01*
X0124549Y0096153D02*
X0104420Y0096153D01*
X0104420Y0097152D02*
X0124963Y0097152D01*
X0125718Y0098150D02*
X0104420Y0098150D01*
X0104420Y0099149D02*
X0127329Y0099149D01*
X0129861Y0099149D02*
X0156025Y0099149D01*
X0155027Y0100147D02*
X0098095Y0100147D01*
X0098095Y0099913D02*
X0098095Y0100913D01*
X0104420Y0100913D01*
X0104420Y0105414D01*
X0104276Y0105948D01*
X0104000Y0106427D01*
X0103609Y0106818D01*
X0103130Y0107095D01*
X0102596Y0107238D01*
X0098095Y0107238D01*
X0098095Y0100913D01*
X0097095Y0100913D01*
X0097095Y0099913D01*
X0098095Y0099913D01*
X0098095Y0099149D02*
X0097095Y0099149D01*
X0097095Y0099913D02*
X0097095Y0093589D01*
X0092594Y0093589D01*
X0092060Y0093732D01*
X0091581Y0094009D01*
X0091190Y0094400D01*
X0090914Y0094878D01*
X0090771Y0095412D01*
X0090771Y0099913D01*
X0097095Y0099913D01*
X0097095Y0100147D02*
X0066609Y0100147D01*
X0066609Y0099149D02*
X0090771Y0099149D01*
X0090771Y0098150D02*
X0066609Y0098150D01*
X0066609Y0097152D02*
X0090771Y0097152D01*
X0090771Y0096153D02*
X0066609Y0096153D01*
X0066609Y0095429D02*
X0065378Y0094199D01*
X0050647Y0094199D01*
X0049416Y0095429D01*
X0049416Y0105043D01*
X0050647Y0106273D01*
X0065378Y0106273D01*
X0066609Y0105043D01*
X0066609Y0095429D01*
X0066334Y0095155D02*
X0090840Y0095155D01*
X0091434Y0094156D02*
X0027595Y0094156D01*
X0027595Y0095155D02*
X0028038Y0095155D01*
X0027763Y0095429D02*
X0028993Y0094199D01*
X0040575Y0094199D01*
X0041805Y0095429D01*
X0041805Y0105043D01*
X0040575Y0106273D01*
X0028993Y0106273D01*
X0027763Y0105043D01*
X0027763Y0095429D01*
X0027763Y0096153D02*
X0027595Y0096153D01*
X0027595Y0097152D02*
X0027763Y0097152D01*
X0027763Y0098150D02*
X0027595Y0098150D01*
X0027595Y0099149D02*
X0027763Y0099149D01*
X0027763Y0100147D02*
X0027595Y0100147D01*
X0027595Y0101146D02*
X0027763Y0101146D01*
X0027763Y0102144D02*
X0027595Y0102144D01*
X0027595Y0103143D02*
X0027763Y0103143D01*
X0027763Y0104141D02*
X0027595Y0104141D01*
X0027595Y0105140D02*
X0027860Y0105140D01*
X0027595Y0106138D02*
X0028858Y0106138D01*
X0027595Y0107137D02*
X0092217Y0107137D01*
X0092060Y0107095D02*
X0091581Y0106818D01*
X0091190Y0106427D01*
X0090914Y0105948D01*
X0090771Y0105414D01*
X0090771Y0100913D01*
X0097095Y0100913D01*
X0097095Y0107238D01*
X0092594Y0107238D01*
X0092060Y0107095D01*
X0091024Y0106138D02*
X0065513Y0106138D01*
X0066512Y0105140D02*
X0090771Y0105140D01*
X0090771Y0104141D02*
X0066609Y0104141D01*
X0066609Y0103143D02*
X0090771Y0103143D01*
X0090771Y0102144D02*
X0066609Y0102144D01*
X0066609Y0101146D02*
X0090771Y0101146D01*
X0097095Y0101146D02*
X0098095Y0101146D01*
X0098095Y0102144D02*
X0097095Y0102144D01*
X0097095Y0103143D02*
X0098095Y0103143D01*
X0098095Y0104141D02*
X0097095Y0104141D01*
X0097095Y0105140D02*
X0098095Y0105140D01*
X0098095Y0106138D02*
X0097095Y0106138D01*
X0097095Y0107137D02*
X0098095Y0107137D01*
X0102973Y0107137D02*
X0108542Y0107137D01*
X0108542Y0107016D02*
X0113095Y0107016D01*
X0113095Y0106016D01*
X0108542Y0106016D01*
X0108542Y0103680D01*
X0108685Y0103146D01*
X0108962Y0102667D01*
X0109353Y0102276D01*
X0109832Y0102000D01*
X0110366Y0101857D01*
X0113095Y0101857D01*
X0113095Y0106016D01*
X0114095Y0106016D01*
X0114095Y0107016D01*
X0118648Y0107016D01*
X0118648Y0109351D01*
X0118505Y0109885D01*
X0118308Y0110227D01*
X0118648Y0110567D01*
X0118648Y0117425D01*
X0117418Y0118655D01*
X0113603Y0118655D01*
X0109362Y0122896D01*
X0108149Y0123398D01*
X0104420Y0123398D01*
X0104420Y0124656D01*
X0118112Y0124656D01*
X0119068Y0125052D01*
X0119799Y0125783D01*
X0121799Y0127783D01*
X0122195Y0128739D01*
X0122195Y0131773D01*
X0121799Y0132729D01*
X0121068Y0133460D01*
X0119143Y0135385D01*
X0118187Y0135781D01*
X0117376Y0135781D01*
X0117376Y0138299D01*
X0116474Y0138299D01*
X0116474Y0138299D01*
X0116474Y0138299D01*
X0117376Y0138299D01*
X0117376Y0145935D01*
X0119392Y0145935D01*
X0120347Y0146331D01*
X0126068Y0152052D01*
X0126799Y0152783D01*
X0127195Y0153739D01*
X0127195Y0175058D01*
X0127895Y0175758D01*
X0127895Y0159719D01*
X0128306Y0158726D01*
X0129066Y0157967D01*
X0133109Y0153924D01*
X0134101Y0153513D01*
X0135814Y0153513D01*
X0135814Y0148535D01*
X0135814Y0128965D01*
X0137044Y0127735D01*
X0144689Y0127735D01*
X0145920Y0128965D01*
X0145920Y0148535D01*
X0145018Y0148535D01*
X0145018Y0148535D01*
X0145018Y0148535D01*
X0145920Y0148535D01*
X0145920Y0151054D01*
X0148121Y0151054D01*
X0151995Y0147179D01*
X0151995Y0103739D01*
X0152391Y0102783D01*
X0163122Y0092052D01*
X0164078Y0091656D01*
X0188397Y0091656D01*
X0189273Y0090780D01*
X0190780Y0090156D01*
X0192411Y0090156D01*
X0193918Y0090780D01*
X0194995Y0091858D01*
X0194995Y0087454D01*
X0194397Y0086856D01*
X0181078Y0086856D01*
X0180122Y0086460D01*
X0163018Y0069356D01*
X0161780Y0069356D01*
X0160273Y0068732D01*
X0159119Y0067578D01*
X0158495Y0066071D01*
X0158495Y0064440D01*
X0159119Y0062933D01*
X0160273Y0061780D01*
X0161780Y0061156D01*
X0163411Y0061156D01*
X0164918Y0061780D01*
X0166071Y0062933D01*
X0166695Y0064440D01*
X0166695Y0065679D01*
X0182672Y0081656D01*
X0194397Y0081656D01*
X0195273Y0080780D01*
X0196780Y0080156D01*
X0198411Y0080156D01*
X0199918Y0080780D01*
X0200793Y0081656D01*
X0202197Y0081656D01*
X0202119Y0081578D01*
X0201495Y0080071D01*
X0201495Y0078440D01*
X0202119Y0076933D01*
X0203273Y0075780D01*
X0204780Y0075156D01*
X0206411Y0075156D01*
X0207918Y0075780D01*
X0208793Y0076656D01*
X0209197Y0076656D01*
X0209119Y0076578D01*
X0208495Y0075071D01*
X0208495Y0073440D01*
X0209119Y0071933D01*
X0210273Y0070780D01*
X0211780Y0070156D01*
X0213411Y0070156D01*
X0214918Y0070780D01*
X0215793Y0071656D01*
X0233112Y0071656D01*
X0234068Y0072052D01*
X0330977Y0168961D01*
X0332057Y0168961D01*
X0301896Y0138799D01*
X0301052Y0137955D01*
X0300595Y0136853D01*
X0300595Y0101027D01*
X0300135Y0100568D01*
X0299514Y0099068D01*
X0299514Y0098135D01*
X0269435Y0068056D01*
X0175593Y0068056D01*
X0174918Y0068732D01*
X0173411Y0069356D01*
X0171780Y0069356D01*
X0170273Y0068732D01*
X0169119Y0067578D01*
X0168495Y0066071D01*
X0168495Y0064440D01*
X0169119Y0062933D01*
X0170273Y0061780D01*
X0171780Y0061156D01*
X0173411Y0061156D01*
X0174918Y0061780D01*
X0175593Y0062456D01*
X0271152Y0062456D01*
X0272181Y0062882D01*
X0303474Y0094175D01*
X0304407Y0094175D01*
X0305907Y0094796D01*
X0307055Y0095944D01*
X0307676Y0097444D01*
X0307676Y0099068D01*
X0307055Y0100568D01*
X0306595Y0101027D01*
X0306595Y0135013D01*
X0320495Y0148913D01*
X0320495Y0144315D01*
X0324654Y0140156D01*
X0330536Y0140156D01*
X0334695Y0144315D01*
X0334695Y0144556D01*
X0337164Y0144556D01*
X0337164Y0137882D01*
X0338395Y0136652D01*
X0348796Y0136652D01*
X0350026Y0137882D01*
X0350026Y0144908D01*
X0356624Y0151506D01*
X0357035Y0152498D01*
X0357035Y0169203D01*
X0357764Y0169203D01*
X0358994Y0170433D01*
X0358994Y0178079D01*
X0357764Y0179309D01*
X0350906Y0179309D01*
X0350595Y0178997D01*
X0350284Y0179309D01*
X0343426Y0179309D01*
X0342196Y0178079D01*
X0342196Y0176956D01*
X0341701Y0176956D01*
X0341701Y0177836D01*
X0340895Y0178642D01*
X0340895Y0178889D01*
X0341464Y0179458D01*
X0342393Y0180387D01*
X0342895Y0181599D01*
X0342895Y0184636D01*
X0343995Y0185736D01*
X0343995Y0185479D01*
X0344138Y0184945D01*
X0344415Y0184466D01*
X0344806Y0184075D01*
X0345285Y0183799D01*
X0345819Y0183656D01*
X0349288Y0183656D01*
X0349288Y0188949D01*
X0345195Y0188949D01*
X0345195Y0189563D01*
X0349288Y0189563D01*
X0349288Y0188949D01*
X0349902Y0188949D01*
X0349902Y0183656D01*
X0353372Y0183656D01*
X0353906Y0183799D01*
X0354385Y0184075D01*
X0354776Y0184466D01*
X0355052Y0184945D01*
X0355195Y0185479D01*
X0355195Y0188949D01*
X0349902Y0188949D01*
X0349902Y0189563D01*
X0349288Y0189563D01*
X0349288Y0194856D01*
X0345819Y0194856D01*
X0345285Y0194713D01*
X0344806Y0194436D01*
X0344415Y0194045D01*
X0344138Y0193566D01*
X0343995Y0193032D01*
X0343995Y0192775D01*
X0342767Y0194003D01*
X0342092Y0194283D01*
X0341884Y0194785D01*
X0338125Y0198545D01*
X0337132Y0198956D01*
X0317058Y0198956D01*
X0316066Y0198545D01*
X0315306Y0197785D01*
X0313066Y0195545D01*
X0313066Y0195545D01*
X0312306Y0194785D01*
X0312212Y0194558D01*
X0311915Y0194856D01*
X0307276Y0194856D01*
X0304595Y0192175D01*
X0301915Y0194856D01*
X0297276Y0194856D01*
X0293995Y0191575D01*
X0293995Y0186936D01*
X0295797Y0185135D01*
X0291651Y0180989D01*
X0291255Y0180033D01*
X0291255Y0179309D01*
X0290426Y0179309D01*
X0289196Y0178079D01*
X0289196Y0170433D01*
X0290426Y0169203D01*
X0297284Y0169203D01*
X0297595Y0169514D01*
X0297906Y0169203D01*
X0304764Y0169203D01*
X0305994Y0170433D01*
X0305994Y0177978D01*
X0309216Y0181200D01*
X0309155Y0181053D01*
X0309155Y0179309D01*
X0308426Y0179309D01*
X0307196Y0178079D01*
X0307196Y0170433D01*
X0308426Y0169203D01*
X0314865Y0169203D01*
X0227518Y0081856D01*
X0226595Y0081856D01*
X0227068Y0082052D01*
X0227799Y0082783D01*
X0269799Y0124783D01*
X0270195Y0125739D01*
X0270195Y0174271D01*
X0270767Y0174508D01*
X0272343Y0176084D01*
X0273195Y0178142D01*
X0273195Y0180370D01*
X0272343Y0182428D01*
X0270767Y0184003D01*
X0270135Y0184265D01*
X0270530Y0184466D01*
X0271243Y0184984D01*
X0271867Y0185608D01*
X0272385Y0186321D01*
X0272785Y0187106D01*
X0273057Y0187945D01*
X0273195Y0188815D01*
X0273195Y0188949D01*
X0267902Y0188949D01*
X0267902Y0189563D01*
X0267288Y0189563D01*
X0267288Y0194856D01*
X0267154Y0194856D01*
X0266284Y0194718D01*
X0265445Y0194446D01*
X0264660Y0194045D01*
X0263947Y0193527D01*
X0263324Y0192904D01*
X0262806Y0192191D01*
X0262604Y0191796D01*
X0262343Y0192428D01*
X0260767Y0194003D01*
X0258709Y0194856D01*
X0256481Y0194856D01*
X0254423Y0194003D01*
X0252848Y0192428D01*
X0252595Y0191818D01*
X0252343Y0192428D01*
X0250767Y0194003D01*
X0248709Y0194856D01*
X0246481Y0194856D01*
X0244423Y0194003D01*
X0242848Y0192428D01*
X0241995Y0190370D01*
X0241995Y0188142D01*
X0242848Y0186084D01*
X0244423Y0184508D01*
X0244780Y0184361D01*
X0241995Y0181575D01*
X0241995Y0176936D01*
X0245276Y0173656D01*
X0249915Y0173656D01*
X0252700Y0176441D01*
X0252848Y0176084D01*
X0254423Y0174508D01*
X0256481Y0173656D01*
X0258709Y0173656D01*
X0260767Y0174508D01*
X0262343Y0176084D01*
X0262595Y0176693D01*
X0262848Y0176084D01*
X0264423Y0174508D01*
X0264995Y0174271D01*
X0264995Y0127333D01*
X0224518Y0086856D01*
X0207993Y0086856D01*
X0208071Y0086933D01*
X0208695Y0088440D01*
X0208695Y0090071D01*
X0208071Y0091578D01*
X0207195Y0092454D01*
X0207195Y0108773D01*
X0206799Y0109729D01*
X0150434Y0166094D01*
X0149478Y0166490D01*
X0144977Y0166490D01*
X0144689Y0166777D01*
X0137044Y0166777D01*
X0135814Y0165547D01*
X0135814Y0158913D01*
X0135757Y0158913D01*
X0133295Y0161374D01*
X0133295Y0179793D01*
X0132884Y0180785D01*
X0127884Y0185785D01*
X0127125Y0186545D01*
X0126132Y0186956D01*
X0094608Y0186956D01*
X0093616Y0186545D01*
X0084877Y0177806D01*
X0083780Y0177806D01*
X0082273Y0177182D01*
X0081119Y0176028D01*
X0080495Y0174521D01*
X0080495Y0172890D01*
X0081119Y0171383D01*
X0082273Y0170230D01*
X0083780Y0169606D01*
X0084028Y0169606D01*
X0092555Y0161079D01*
X0092555Y0150655D01*
X0091773Y0150655D01*
X0090542Y0149425D01*
X0090542Y0149240D01*
X0089466Y0148794D01*
X0083726Y0143053D01*
X0082798Y0142125D01*
X0082295Y0140912D01*
X0082295Y0139576D01*
X0081695Y0138976D01*
X0081695Y0133222D01*
X0080444Y0133222D01*
X0079488Y0132826D01*
X0067018Y0120356D01*
X0066609Y0120356D01*
X0066609Y0122760D01*
X0066601Y0122767D01*
X0066609Y0122794D01*
X0066609Y0124055D01*
X0058406Y0124055D01*
X0050204Y0124055D01*
X0050204Y0122794D01*
X0050211Y0122767D01*
X0050204Y0122760D01*
X0050204Y0109603D01*
X0051434Y0108372D01*
X0065378Y0108372D01*
X0065563Y0108557D01*
X0074823Y0108557D01*
X0075889Y0108998D01*
X0085196Y0118306D01*
X0088265Y0118306D01*
X0089465Y0119506D01*
X0090771Y0119506D01*
X0090771Y0114504D01*
X0092001Y0113274D01*
X0103189Y0113274D01*
X0104420Y0114504D01*
X0104420Y0116798D01*
X0106126Y0116798D01*
X0108542Y0114382D01*
X0108542Y0110567D01*
X0108883Y0110227D01*
X0108685Y0109885D01*
X0108542Y0109351D01*
X0108542Y0107016D01*
X0108542Y0108135D02*
X0027595Y0108135D01*
X0027595Y0109134D02*
X0050673Y0109134D01*
X0050204Y0110132D02*
X0027595Y0110132D01*
X0027595Y0111131D02*
X0050204Y0111131D01*
X0050204Y0112129D02*
X0027595Y0112129D01*
X0027595Y0113128D02*
X0050204Y0113128D01*
X0050204Y0114126D02*
X0027595Y0114126D01*
X0027595Y0115125D02*
X0050204Y0115125D01*
X0050204Y0116123D02*
X0027595Y0116123D01*
X0027595Y0117122D02*
X0050204Y0117122D01*
X0050204Y0118120D02*
X0027595Y0118120D01*
X0027595Y0119119D02*
X0050204Y0119119D01*
X0050204Y0120117D02*
X0027595Y0120117D01*
X0027595Y0121116D02*
X0050204Y0121116D01*
X0050204Y0122114D02*
X0027595Y0122114D01*
X0027595Y0123113D02*
X0050204Y0123113D01*
X0050204Y0124055D02*
X0058406Y0124055D01*
X0058406Y0124055D01*
X0058406Y0127139D01*
X0052027Y0127139D01*
X0051493Y0126996D01*
X0051014Y0126720D01*
X0050623Y0126329D01*
X0050347Y0125850D01*
X0050204Y0125316D01*
X0050204Y0124055D01*
X0050204Y0124112D02*
X0027595Y0124112D01*
X0027595Y0125110D02*
X0050204Y0125110D01*
X0050496Y0126109D02*
X0027595Y0126109D01*
X0027595Y0127107D02*
X0051907Y0127107D01*
X0050647Y0129239D02*
X0065378Y0129239D01*
X0066609Y0130469D01*
X0066609Y0140082D01*
X0065378Y0141313D01*
X0050647Y0141313D01*
X0049416Y0140082D01*
X0049416Y0130469D01*
X0050647Y0129239D01*
X0049783Y0130103D02*
X0041439Y0130103D01*
X0041805Y0130469D02*
X0040575Y0129239D01*
X0028993Y0129239D01*
X0027763Y0130469D01*
X0027763Y0140082D01*
X0028993Y0141313D01*
X0040575Y0141313D01*
X0041805Y0140082D01*
X0041805Y0130469D01*
X0041805Y0131101D02*
X0049416Y0131101D01*
X0049416Y0132100D02*
X0041805Y0132100D01*
X0041805Y0133098D02*
X0049416Y0133098D01*
X0049416Y0134097D02*
X0041805Y0134097D01*
X0041805Y0135095D02*
X0049416Y0135095D01*
X0049416Y0136094D02*
X0041805Y0136094D01*
X0041805Y0137092D02*
X0049416Y0137092D01*
X0049416Y0138091D02*
X0041805Y0138091D01*
X0041805Y0139089D02*
X0049416Y0139089D01*
X0049422Y0140088D02*
X0041800Y0140088D01*
X0040802Y0141086D02*
X0050420Y0141086D01*
X0065605Y0141086D02*
X0082367Y0141086D01*
X0082295Y0140088D02*
X0066603Y0140088D01*
X0066609Y0139089D02*
X0081809Y0139089D01*
X0081695Y0138091D02*
X0066609Y0138091D01*
X0066609Y0137092D02*
X0081695Y0137092D01*
X0081695Y0136094D02*
X0066609Y0136094D01*
X0066609Y0135095D02*
X0081695Y0135095D01*
X0081695Y0134097D02*
X0066609Y0134097D01*
X0066609Y0133098D02*
X0080145Y0133098D01*
X0078762Y0132100D02*
X0066609Y0132100D01*
X0066609Y0131101D02*
X0077763Y0131101D01*
X0076765Y0130103D02*
X0066242Y0130103D01*
X0065319Y0126996D02*
X0064785Y0127139D01*
X0058406Y0127139D01*
X0058406Y0124055D01*
X0058406Y0124055D01*
X0058406Y0124055D01*
X0066609Y0124055D01*
X0066609Y0125316D01*
X0066465Y0125850D01*
X0066189Y0126329D01*
X0065798Y0126720D01*
X0065319Y0126996D01*
X0064906Y0127107D02*
X0073769Y0127107D01*
X0072771Y0126109D02*
X0066316Y0126109D01*
X0066609Y0125110D02*
X0071772Y0125110D01*
X0070774Y0124112D02*
X0066609Y0124112D01*
X0066609Y0123113D02*
X0069775Y0123113D01*
X0068777Y0122114D02*
X0066609Y0122114D01*
X0066609Y0121116D02*
X0067778Y0121116D01*
X0068095Y0117756D02*
X0080961Y0130622D01*
X0112323Y0130622D01*
X0112323Y0133181D02*
X0117670Y0133181D01*
X0119595Y0131256D01*
X0119595Y0129256D01*
X0117595Y0127256D01*
X0082595Y0127256D01*
X0069946Y0114606D01*
X0058406Y0114606D01*
X0058406Y0117756D02*
X0068095Y0117756D01*
X0058406Y0124112D02*
X0058406Y0124112D01*
X0058406Y0125110D02*
X0058406Y0125110D01*
X0058406Y0126109D02*
X0058406Y0126109D01*
X0058406Y0127107D02*
X0058406Y0127107D01*
X0074768Y0128106D02*
X0027595Y0128106D01*
X0027595Y0129104D02*
X0075766Y0129104D01*
X0089495Y0133222D02*
X0089495Y0138976D01*
X0089238Y0139232D01*
X0090542Y0140536D01*
X0090542Y0135087D01*
X0091773Y0133857D01*
X0099418Y0133857D01*
X0100648Y0135087D01*
X0100648Y0135656D01*
X0103112Y0135656D01*
X0104068Y0136052D01*
X0104799Y0136783D01*
X0106274Y0138258D01*
X0107271Y0138258D01*
X0107271Y0133222D01*
X0089495Y0133222D01*
X0089495Y0134097D02*
X0091533Y0134097D01*
X0090542Y0135095D02*
X0089495Y0135095D01*
X0089495Y0136094D02*
X0090542Y0136094D01*
X0090542Y0137092D02*
X0089495Y0137092D01*
X0089495Y0138091D02*
X0090542Y0138091D01*
X0090542Y0139089D02*
X0089382Y0139089D01*
X0090094Y0140088D02*
X0090542Y0140088D01*
X0095855Y0138256D02*
X0102595Y0138256D01*
X0105198Y0140858D01*
X0112323Y0140858D01*
X0117376Y0141086D02*
X0135814Y0141086D01*
X0135814Y0140088D02*
X0117376Y0140088D01*
X0117376Y0139089D02*
X0135814Y0139089D01*
X0135814Y0138091D02*
X0117376Y0138091D01*
X0117376Y0137092D02*
X0135814Y0137092D01*
X0135814Y0136094D02*
X0117376Y0136094D01*
X0119433Y0135095D02*
X0135814Y0135095D01*
X0135814Y0134097D02*
X0120431Y0134097D01*
X0121430Y0133098D02*
X0135814Y0133098D01*
X0135814Y0132100D02*
X0122060Y0132100D01*
X0122195Y0131101D02*
X0135814Y0131101D01*
X0135814Y0130103D02*
X0122195Y0130103D01*
X0122195Y0129104D02*
X0135814Y0129104D01*
X0136673Y0128106D02*
X0121933Y0128106D01*
X0121123Y0127107D02*
X0151995Y0127107D01*
X0151995Y0126109D02*
X0120125Y0126109D01*
X0119126Y0125110D02*
X0151995Y0125110D01*
X0151995Y0124112D02*
X0104420Y0124112D01*
X0108838Y0123113D02*
X0151995Y0123113D01*
X0151995Y0122114D02*
X0110144Y0122114D01*
X0111142Y0121116D02*
X0151995Y0121116D01*
X0151995Y0120117D02*
X0112141Y0120117D01*
X0113139Y0119119D02*
X0151995Y0119119D01*
X0151995Y0118120D02*
X0117952Y0118120D01*
X0118648Y0117122D02*
X0151995Y0117122D01*
X0151995Y0116123D02*
X0118648Y0116123D01*
X0118648Y0115125D02*
X0151995Y0115125D01*
X0151995Y0114126D02*
X0118648Y0114126D01*
X0118648Y0113128D02*
X0151995Y0113128D01*
X0151995Y0112129D02*
X0118648Y0112129D01*
X0118648Y0111131D02*
X0151995Y0111131D01*
X0151995Y0110132D02*
X0118362Y0110132D01*
X0118648Y0109134D02*
X0151995Y0109134D01*
X0151995Y0108135D02*
X0118648Y0108135D01*
X0118648Y0107137D02*
X0151995Y0107137D01*
X0151995Y0106138D02*
X0114095Y0106138D01*
X0114095Y0106016D02*
X0118648Y0106016D01*
X0118648Y0103680D01*
X0118505Y0103146D01*
X0118228Y0102667D01*
X0117837Y0102276D01*
X0117358Y0102000D01*
X0116824Y0101857D01*
X0114095Y0101857D01*
X0114095Y0106016D01*
X0114095Y0105140D02*
X0113095Y0105140D01*
X0113095Y0106138D02*
X0104167Y0106138D01*
X0104420Y0105140D02*
X0108542Y0105140D01*
X0108542Y0104141D02*
X0104420Y0104141D01*
X0104420Y0103143D02*
X0108687Y0103143D01*
X0109582Y0102144D02*
X0104420Y0102144D01*
X0104420Y0101146D02*
X0154028Y0101146D01*
X0153030Y0102144D02*
X0117609Y0102144D01*
X0118503Y0103143D02*
X0152242Y0103143D01*
X0151995Y0104141D02*
X0118648Y0104141D01*
X0118648Y0105140D02*
X0151995Y0105140D01*
X0154595Y0104256D02*
X0164595Y0094256D01*
X0191595Y0094256D01*
X0188693Y0097152D02*
X0165376Y0097152D01*
X0165672Y0096856D02*
X0157195Y0105333D01*
X0157195Y0146979D01*
X0163995Y0140179D01*
X0163995Y0117655D01*
X0162773Y0117655D01*
X0161542Y0116425D01*
X0161542Y0109567D01*
X0161854Y0109256D01*
X0161542Y0108945D01*
X0161542Y0102087D01*
X0162773Y0100857D01*
X0170418Y0100857D01*
X0171648Y0102087D01*
X0171648Y0102916D01*
X0190258Y0102916D01*
X0194995Y0098179D01*
X0194995Y0096654D01*
X0193918Y0097732D01*
X0192411Y0098356D01*
X0190780Y0098356D01*
X0189273Y0097732D01*
X0188397Y0096856D01*
X0165672Y0096856D01*
X0164378Y0098150D02*
X0190283Y0098150D01*
X0192907Y0098150D02*
X0194995Y0098150D01*
X0194995Y0097152D02*
X0194498Y0097152D01*
X0194025Y0099149D02*
X0163379Y0099149D01*
X0162381Y0100147D02*
X0193027Y0100147D01*
X0192028Y0101146D02*
X0170707Y0101146D01*
X0171648Y0102144D02*
X0191030Y0102144D01*
X0191335Y0105516D02*
X0197595Y0099256D01*
X0197595Y0084256D01*
X0225595Y0084256D01*
X0267595Y0126256D01*
X0267595Y0179256D01*
X0272736Y0177033D02*
X0289196Y0177033D01*
X0289196Y0178031D02*
X0273149Y0178031D01*
X0273195Y0179030D02*
X0290147Y0179030D01*
X0291255Y0180028D02*
X0273195Y0180028D01*
X0272923Y0181027D02*
X0291689Y0181027D01*
X0292687Y0182025D02*
X0272509Y0182025D01*
X0271747Y0183024D02*
X0293686Y0183024D01*
X0294684Y0184022D02*
X0270722Y0184022D01*
X0271280Y0185021D02*
X0295683Y0185021D01*
X0294912Y0186019D02*
X0272166Y0186019D01*
X0272740Y0187018D02*
X0293995Y0187018D01*
X0293995Y0188016D02*
X0273069Y0188016D01*
X0273195Y0189563D02*
X0273195Y0189697D01*
X0273057Y0190567D01*
X0272785Y0191406D01*
X0272385Y0192191D01*
X0271867Y0192904D01*
X0271243Y0193527D01*
X0270530Y0194045D01*
X0269745Y0194446D01*
X0268906Y0194718D01*
X0268036Y0194856D01*
X0267902Y0194856D01*
X0267902Y0189563D01*
X0273195Y0189563D01*
X0273145Y0190013D02*
X0293995Y0190013D01*
X0293995Y0189015D02*
X0267902Y0189015D01*
X0267902Y0190013D02*
X0267288Y0190013D01*
X0267288Y0191012D02*
X0267902Y0191012D01*
X0267902Y0192010D02*
X0267288Y0192010D01*
X0267288Y0193009D02*
X0267902Y0193009D01*
X0267902Y0194007D02*
X0267288Y0194007D01*
X0264608Y0194007D02*
X0260758Y0194007D01*
X0261762Y0193009D02*
X0263428Y0193009D01*
X0262714Y0192010D02*
X0262516Y0192010D01*
X0270583Y0194007D02*
X0296427Y0194007D01*
X0295428Y0193009D02*
X0271762Y0193009D01*
X0272477Y0192010D02*
X0294430Y0192010D01*
X0293995Y0191012D02*
X0272913Y0191012D01*
X0263947Y0184984D02*
X0263324Y0185608D01*
X0262806Y0186321D01*
X0262604Y0186716D01*
X0262343Y0186084D01*
X0260767Y0184508D01*
X0260158Y0184256D01*
X0260767Y0184003D01*
X0262343Y0182428D01*
X0262595Y0181818D01*
X0262848Y0182428D01*
X0264423Y0184003D01*
X0265055Y0184265D01*
X0264660Y0184466D01*
X0263947Y0184984D01*
X0263911Y0185021D02*
X0261280Y0185021D01*
X0260722Y0184022D02*
X0264468Y0184022D01*
X0263443Y0183024D02*
X0261747Y0183024D01*
X0262509Y0182025D02*
X0262681Y0182025D01*
X0263025Y0186019D02*
X0262278Y0186019D01*
X0255033Y0184256D02*
X0254423Y0184003D01*
X0252848Y0182428D01*
X0252700Y0182071D01*
X0250410Y0184361D01*
X0250767Y0184508D01*
X0252343Y0186084D01*
X0252595Y0186693D01*
X0252848Y0186084D01*
X0254423Y0184508D01*
X0255033Y0184256D01*
X0254468Y0184022D02*
X0250748Y0184022D01*
X0251280Y0185021D02*
X0253911Y0185021D01*
X0252912Y0186019D02*
X0252278Y0186019D01*
X0251747Y0183024D02*
X0253443Y0183024D01*
X0244442Y0184022D02*
X0129647Y0184022D01*
X0128649Y0185021D02*
X0243911Y0185021D01*
X0242912Y0186019D02*
X0127650Y0186019D01*
X0130646Y0183024D02*
X0243443Y0183024D01*
X0242445Y0182025D02*
X0131644Y0182025D01*
X0132643Y0181027D02*
X0241995Y0181027D01*
X0241995Y0180028D02*
X0133198Y0180028D01*
X0133295Y0179030D02*
X0241995Y0179030D01*
X0241995Y0178031D02*
X0133295Y0178031D01*
X0133295Y0177033D02*
X0241995Y0177033D01*
X0242897Y0176034D02*
X0133295Y0176034D01*
X0133295Y0175036D02*
X0243896Y0175036D01*
X0244894Y0174037D02*
X0133295Y0174037D01*
X0133295Y0173039D02*
X0264995Y0173039D01*
X0264995Y0174037D02*
X0259629Y0174037D01*
X0261294Y0175036D02*
X0263896Y0175036D01*
X0262897Y0176034D02*
X0262293Y0176034D01*
X0270195Y0174037D02*
X0289196Y0174037D01*
X0289196Y0173039D02*
X0270195Y0173039D01*
X0270195Y0172040D02*
X0289196Y0172040D01*
X0289196Y0171042D02*
X0270195Y0171042D01*
X0270195Y0170043D02*
X0289586Y0170043D01*
X0289196Y0175036D02*
X0271294Y0175036D01*
X0272293Y0176034D02*
X0289196Y0176034D01*
X0293855Y0174256D02*
X0293855Y0179516D01*
X0299595Y0185256D01*
X0299595Y0189256D01*
X0304278Y0186019D02*
X0304912Y0186019D01*
X0304595Y0186336D02*
X0305797Y0185135D01*
X0299971Y0179309D01*
X0297906Y0179309D01*
X0297595Y0178997D01*
X0297304Y0179288D01*
X0301068Y0183052D01*
X0301672Y0183656D01*
X0301915Y0183656D01*
X0304595Y0186336D01*
X0305683Y0185021D02*
X0303280Y0185021D01*
X0302281Y0184022D02*
X0304684Y0184022D01*
X0303686Y0183024D02*
X0301040Y0183024D01*
X0300041Y0182025D02*
X0302687Y0182025D01*
X0301689Y0181027D02*
X0299043Y0181027D01*
X0298044Y0180028D02*
X0300690Y0180028D01*
X0301335Y0176996D02*
X0309595Y0185256D01*
X0309595Y0189256D01*
X0305428Y0193009D02*
X0303762Y0193009D01*
X0302763Y0194007D02*
X0306427Y0194007D01*
X0312527Y0195006D02*
X0047695Y0195006D01*
X0047695Y0196004D02*
X0313525Y0196004D01*
X0314524Y0197003D02*
X0047695Y0197003D01*
X0047619Y0198001D02*
X0315522Y0198001D01*
X0315306Y0197785D02*
X0315306Y0197785D01*
X0323215Y0193556D02*
X0325976Y0193556D01*
X0324848Y0192428D01*
X0324595Y0191818D01*
X0324343Y0192428D01*
X0323215Y0193556D01*
X0323762Y0193009D02*
X0325428Y0193009D01*
X0324675Y0192010D02*
X0324516Y0192010D01*
X0319595Y0189256D02*
X0319335Y0188996D01*
X0319335Y0174256D01*
X0319335Y0169996D01*
X0228595Y0079256D01*
X0205595Y0079256D01*
X0201495Y0079178D02*
X0180195Y0079178D01*
X0179196Y0078180D02*
X0201603Y0078180D01*
X0202017Y0077181D02*
X0178198Y0077181D01*
X0177199Y0076183D02*
X0202870Y0076183D01*
X0204711Y0075184D02*
X0176201Y0075184D01*
X0175202Y0074186D02*
X0208495Y0074186D01*
X0208542Y0075184D02*
X0206480Y0075184D01*
X0208320Y0076183D02*
X0208956Y0076183D01*
X0208600Y0073187D02*
X0174204Y0073187D01*
X0173205Y0072189D02*
X0209013Y0072189D01*
X0209862Y0071190D02*
X0172207Y0071190D01*
X0171208Y0070192D02*
X0211693Y0070192D01*
X0213498Y0070192D02*
X0271571Y0070192D01*
X0270573Y0069193D02*
X0173803Y0069193D01*
X0175454Y0068195D02*
X0269574Y0068195D01*
X0272570Y0071190D02*
X0215328Y0071190D01*
X0212595Y0074256D02*
X0232595Y0074256D01*
X0329562Y0171223D01*
X0329562Y0174013D01*
X0329595Y0173980D01*
X0329562Y0174013D02*
X0329562Y0189223D01*
X0329595Y0189256D01*
X0324595Y0186693D02*
X0324848Y0186084D01*
X0326423Y0184508D01*
X0326962Y0184285D01*
X0326962Y0179066D01*
X0326133Y0179066D01*
X0324903Y0177836D01*
X0324903Y0170241D01*
X0231518Y0076856D01*
X0229595Y0076856D01*
X0230068Y0077052D01*
X0230799Y0077783D01*
X0321539Y0168523D01*
X0321821Y0169203D01*
X0322764Y0169203D01*
X0323994Y0170433D01*
X0323994Y0178079D01*
X0322764Y0179309D01*
X0321935Y0179309D01*
X0321935Y0184164D01*
X0322767Y0184508D01*
X0324343Y0186084D01*
X0324595Y0186693D01*
X0324278Y0186019D02*
X0324912Y0186019D01*
X0325911Y0185021D02*
X0323280Y0185021D01*
X0321935Y0184022D02*
X0326962Y0184022D01*
X0326962Y0183024D02*
X0321935Y0183024D01*
X0321935Y0182025D02*
X0326962Y0182025D01*
X0326962Y0181027D02*
X0321935Y0181027D01*
X0321935Y0180028D02*
X0326962Y0180028D01*
X0326097Y0179030D02*
X0323043Y0179030D01*
X0323994Y0178031D02*
X0325098Y0178031D01*
X0324903Y0177033D02*
X0323994Y0177033D01*
X0323994Y0176034D02*
X0324903Y0176034D01*
X0324903Y0175036D02*
X0323994Y0175036D01*
X0323994Y0174037D02*
X0324903Y0174037D01*
X0324903Y0173039D02*
X0323994Y0173039D01*
X0323994Y0172040D02*
X0324903Y0172040D01*
X0324903Y0171042D02*
X0323994Y0171042D01*
X0323604Y0170043D02*
X0324705Y0170043D01*
X0323707Y0169045D02*
X0321755Y0169045D01*
X0321062Y0168046D02*
X0322708Y0168046D01*
X0321710Y0167047D02*
X0320064Y0167047D01*
X0320711Y0166049D02*
X0319065Y0166049D01*
X0319713Y0165050D02*
X0318067Y0165050D01*
X0318714Y0164052D02*
X0317068Y0164052D01*
X0317716Y0163053D02*
X0316070Y0163053D01*
X0316717Y0162055D02*
X0315071Y0162055D01*
X0315719Y0161056D02*
X0314073Y0161056D01*
X0314720Y0160058D02*
X0313074Y0160058D01*
X0313722Y0159059D02*
X0312076Y0159059D01*
X0312723Y0158061D02*
X0311077Y0158061D01*
X0311725Y0157062D02*
X0310079Y0157062D01*
X0310726Y0156064D02*
X0309080Y0156064D01*
X0309728Y0155065D02*
X0308082Y0155065D01*
X0308729Y0154067D02*
X0307083Y0154067D01*
X0307731Y0153068D02*
X0306085Y0153068D01*
X0306732Y0152070D02*
X0305086Y0152070D01*
X0305734Y0151071D02*
X0304087Y0151071D01*
X0304735Y0150073D02*
X0303089Y0150073D01*
X0303737Y0149074D02*
X0302090Y0149074D01*
X0302738Y0148076D02*
X0301092Y0148076D01*
X0301740Y0147077D02*
X0300093Y0147077D01*
X0300741Y0146079D02*
X0299095Y0146079D01*
X0299743Y0145080D02*
X0298096Y0145080D01*
X0298744Y0144082D02*
X0297098Y0144082D01*
X0297746Y0143083D02*
X0296099Y0143083D01*
X0296747Y0142085D02*
X0295101Y0142085D01*
X0295748Y0141086D02*
X0294102Y0141086D01*
X0294750Y0140088D02*
X0293104Y0140088D01*
X0293751Y0139089D02*
X0292105Y0139089D01*
X0292753Y0138091D02*
X0291107Y0138091D01*
X0291754Y0137092D02*
X0290108Y0137092D01*
X0290756Y0136094D02*
X0289110Y0136094D01*
X0289757Y0135095D02*
X0288111Y0135095D01*
X0288759Y0134097D02*
X0287113Y0134097D01*
X0287760Y0133098D02*
X0286114Y0133098D01*
X0286762Y0132100D02*
X0285116Y0132100D01*
X0285763Y0131101D02*
X0284117Y0131101D01*
X0284765Y0130103D02*
X0283119Y0130103D01*
X0283766Y0129104D02*
X0282120Y0129104D01*
X0282768Y0128106D02*
X0281122Y0128106D01*
X0281769Y0127107D02*
X0280123Y0127107D01*
X0280771Y0126109D02*
X0279125Y0126109D01*
X0279772Y0125110D02*
X0278126Y0125110D01*
X0278774Y0124112D02*
X0277128Y0124112D01*
X0277775Y0123113D02*
X0276129Y0123113D01*
X0276777Y0122114D02*
X0275131Y0122114D01*
X0275778Y0121116D02*
X0274132Y0121116D01*
X0274780Y0120117D02*
X0273134Y0120117D01*
X0273781Y0119119D02*
X0272135Y0119119D01*
X0272783Y0118120D02*
X0271137Y0118120D01*
X0271784Y0117122D02*
X0270138Y0117122D01*
X0270786Y0116123D02*
X0269140Y0116123D01*
X0269787Y0115125D02*
X0268141Y0115125D01*
X0268789Y0114126D02*
X0267143Y0114126D01*
X0267790Y0113128D02*
X0266144Y0113128D01*
X0266792Y0112129D02*
X0265146Y0112129D01*
X0265793Y0111131D02*
X0264147Y0111131D01*
X0264795Y0110132D02*
X0263149Y0110132D01*
X0263796Y0109134D02*
X0262150Y0109134D01*
X0262798Y0108135D02*
X0261152Y0108135D01*
X0261799Y0107137D02*
X0260153Y0107137D01*
X0260801Y0106138D02*
X0259154Y0106138D01*
X0259802Y0105140D02*
X0258156Y0105140D01*
X0258804Y0104141D02*
X0257157Y0104141D01*
X0257805Y0103143D02*
X0256159Y0103143D01*
X0256807Y0102144D02*
X0255160Y0102144D01*
X0255808Y0101146D02*
X0254162Y0101146D01*
X0254810Y0100147D02*
X0253163Y0100147D01*
X0253811Y0099149D02*
X0252165Y0099149D01*
X0252812Y0098150D02*
X0251166Y0098150D01*
X0251814Y0097152D02*
X0250168Y0097152D01*
X0250815Y0096153D02*
X0249169Y0096153D01*
X0249817Y0095155D02*
X0248171Y0095155D01*
X0248818Y0094156D02*
X0247172Y0094156D01*
X0247820Y0093158D02*
X0246174Y0093158D01*
X0246821Y0092159D02*
X0245175Y0092159D01*
X0245823Y0091161D02*
X0244177Y0091161D01*
X0244824Y0090162D02*
X0243178Y0090162D01*
X0243826Y0089164D02*
X0242180Y0089164D01*
X0242827Y0088165D02*
X0241181Y0088165D01*
X0241829Y0087167D02*
X0240183Y0087167D01*
X0240830Y0086168D02*
X0239184Y0086168D01*
X0239832Y0085170D02*
X0238186Y0085170D01*
X0238833Y0084171D02*
X0237187Y0084171D01*
X0237835Y0083173D02*
X0236189Y0083173D01*
X0236836Y0082174D02*
X0235190Y0082174D01*
X0235838Y0081176D02*
X0234192Y0081176D01*
X0234839Y0080177D02*
X0233193Y0080177D01*
X0233841Y0079178D02*
X0232195Y0079178D01*
X0232842Y0078180D02*
X0231196Y0078180D01*
X0231844Y0077181D02*
X0230198Y0077181D01*
X0235204Y0073187D02*
X0274567Y0073187D01*
X0273568Y0072189D02*
X0234205Y0072189D01*
X0236202Y0074186D02*
X0275565Y0074186D01*
X0276564Y0075184D02*
X0237201Y0075184D01*
X0238199Y0076183D02*
X0277562Y0076183D01*
X0278561Y0077181D02*
X0239198Y0077181D01*
X0240196Y0078180D02*
X0279559Y0078180D01*
X0280558Y0079178D02*
X0241195Y0079178D01*
X0242193Y0080177D02*
X0281556Y0080177D01*
X0282555Y0081176D02*
X0243192Y0081176D01*
X0244190Y0082174D02*
X0283553Y0082174D01*
X0284552Y0083173D02*
X0245189Y0083173D01*
X0246187Y0084171D02*
X0285550Y0084171D01*
X0286549Y0085170D02*
X0247186Y0085170D01*
X0248184Y0086168D02*
X0287548Y0086168D01*
X0288546Y0087167D02*
X0249183Y0087167D01*
X0250181Y0088165D02*
X0289545Y0088165D01*
X0290543Y0089164D02*
X0251180Y0089164D01*
X0252178Y0090162D02*
X0291542Y0090162D01*
X0292540Y0091161D02*
X0253177Y0091161D01*
X0254175Y0092159D02*
X0293539Y0092159D01*
X0294537Y0093158D02*
X0255174Y0093158D01*
X0256172Y0094156D02*
X0295536Y0094156D01*
X0296534Y0095155D02*
X0257171Y0095155D01*
X0258169Y0096153D02*
X0297533Y0096153D01*
X0298531Y0097152D02*
X0259168Y0097152D01*
X0260166Y0098150D02*
X0299514Y0098150D01*
X0299548Y0099149D02*
X0261165Y0099149D01*
X0262163Y0100147D02*
X0299961Y0100147D01*
X0300595Y0101146D02*
X0263162Y0101146D01*
X0264160Y0102144D02*
X0300595Y0102144D01*
X0300595Y0103143D02*
X0265159Y0103143D01*
X0266157Y0104141D02*
X0300595Y0104141D01*
X0300595Y0105140D02*
X0267156Y0105140D01*
X0268154Y0106138D02*
X0300595Y0106138D01*
X0300595Y0107137D02*
X0269153Y0107137D01*
X0270152Y0108135D02*
X0300595Y0108135D01*
X0300595Y0109134D02*
X0271150Y0109134D01*
X0272149Y0110132D02*
X0300595Y0110132D01*
X0300595Y0111131D02*
X0273147Y0111131D01*
X0274146Y0112129D02*
X0300595Y0112129D01*
X0300595Y0113128D02*
X0275144Y0113128D01*
X0276143Y0114126D02*
X0300595Y0114126D01*
X0300595Y0115125D02*
X0277141Y0115125D01*
X0278140Y0116123D02*
X0300595Y0116123D01*
X0300595Y0117122D02*
X0279138Y0117122D01*
X0280137Y0118120D02*
X0300595Y0118120D01*
X0300595Y0119119D02*
X0281135Y0119119D01*
X0282134Y0120117D02*
X0300595Y0120117D01*
X0300595Y0121116D02*
X0283132Y0121116D01*
X0284131Y0122114D02*
X0300595Y0122114D01*
X0300595Y0123113D02*
X0285129Y0123113D01*
X0286128Y0124112D02*
X0300595Y0124112D01*
X0300595Y0125110D02*
X0287126Y0125110D01*
X0288125Y0126109D02*
X0300595Y0126109D01*
X0300595Y0127107D02*
X0289123Y0127107D01*
X0290122Y0128106D02*
X0300595Y0128106D01*
X0300595Y0129104D02*
X0291120Y0129104D01*
X0292119Y0130103D02*
X0300595Y0130103D01*
X0300595Y0131101D02*
X0293117Y0131101D01*
X0294116Y0132100D02*
X0300595Y0132100D01*
X0300595Y0133098D02*
X0295114Y0133098D01*
X0296113Y0134097D02*
X0300595Y0134097D01*
X0300595Y0135095D02*
X0297111Y0135095D01*
X0298110Y0136094D02*
X0300595Y0136094D01*
X0300694Y0137092D02*
X0299108Y0137092D01*
X0300107Y0138091D02*
X0301187Y0138091D01*
X0301105Y0139089D02*
X0302186Y0139089D01*
X0302104Y0140088D02*
X0303184Y0140088D01*
X0303102Y0141086D02*
X0304183Y0141086D01*
X0304101Y0142085D02*
X0305181Y0142085D01*
X0305099Y0143083D02*
X0306180Y0143083D01*
X0306098Y0144082D02*
X0307178Y0144082D01*
X0307096Y0145080D02*
X0308177Y0145080D01*
X0308095Y0146079D02*
X0309175Y0146079D01*
X0309093Y0147077D02*
X0310174Y0147077D01*
X0310092Y0148076D02*
X0311172Y0148076D01*
X0311090Y0149074D02*
X0312171Y0149074D01*
X0312089Y0150073D02*
X0313169Y0150073D01*
X0313087Y0151071D02*
X0314168Y0151071D01*
X0314086Y0152070D02*
X0315166Y0152070D01*
X0315085Y0153068D02*
X0316165Y0153068D01*
X0316083Y0154067D02*
X0317163Y0154067D01*
X0317082Y0155065D02*
X0318162Y0155065D01*
X0318080Y0156064D02*
X0319160Y0156064D01*
X0319079Y0157062D02*
X0320159Y0157062D01*
X0320077Y0158061D02*
X0321157Y0158061D01*
X0321076Y0159059D02*
X0322156Y0159059D01*
X0322074Y0160058D02*
X0323155Y0160058D01*
X0323073Y0161056D02*
X0324153Y0161056D01*
X0324071Y0162055D02*
X0325152Y0162055D01*
X0325070Y0163053D02*
X0326150Y0163053D01*
X0326068Y0164052D02*
X0327149Y0164052D01*
X0327067Y0165050D02*
X0328147Y0165050D01*
X0328065Y0166049D02*
X0329146Y0166049D01*
X0329064Y0167047D02*
X0330144Y0167047D01*
X0330062Y0168046D02*
X0331143Y0168046D01*
X0335634Y0164052D02*
X0351635Y0164052D01*
X0351635Y0165050D02*
X0336632Y0165050D01*
X0337631Y0166049D02*
X0351635Y0166049D01*
X0351635Y0167047D02*
X0338629Y0167047D01*
X0339586Y0168004D02*
X0339982Y0168961D01*
X0340471Y0168961D01*
X0341701Y0170191D01*
X0341701Y0171556D01*
X0342196Y0171556D01*
X0342196Y0170433D01*
X0343426Y0169203D01*
X0350284Y0169203D01*
X0350595Y0169514D01*
X0350906Y0169203D01*
X0351635Y0169203D01*
X0351635Y0154154D01*
X0345420Y0147939D01*
X0341770Y0147939D01*
X0340164Y0149545D01*
X0339172Y0149956D01*
X0334695Y0149956D01*
X0334695Y0150197D01*
X0330536Y0154356D01*
X0325938Y0154356D01*
X0339586Y0168004D01*
X0339603Y0168046D02*
X0351635Y0168046D01*
X0351635Y0169045D02*
X0340555Y0169045D01*
X0341554Y0170043D02*
X0342586Y0170043D01*
X0342196Y0171042D02*
X0341701Y0171042D01*
X0337595Y0174256D02*
X0337285Y0174256D01*
X0337042Y0174013D01*
X0337352Y0174013D01*
X0337595Y0174256D01*
X0341701Y0177033D02*
X0342196Y0177033D01*
X0342196Y0178031D02*
X0341506Y0178031D01*
X0341036Y0179030D02*
X0343147Y0179030D01*
X0342034Y0180028D02*
X0414595Y0180028D01*
X0414595Y0179030D02*
X0358043Y0179030D01*
X0358994Y0178031D02*
X0414595Y0178031D01*
X0414595Y0177033D02*
X0358994Y0177033D01*
X0358994Y0176034D02*
X0414595Y0176034D01*
X0414595Y0175036D02*
X0358994Y0175036D01*
X0358994Y0174037D02*
X0414595Y0174037D01*
X0414595Y0173039D02*
X0358994Y0173039D01*
X0358994Y0172040D02*
X0369506Y0172040D01*
X0368711Y0171711D02*
X0367207Y0170207D01*
X0366393Y0168241D01*
X0366393Y0166113D01*
X0367207Y0164148D01*
X0368711Y0162643D01*
X0369632Y0162262D01*
X0368938Y0161909D01*
X0368257Y0161414D01*
X0367662Y0160819D01*
X0367167Y0160138D01*
X0366785Y0159388D01*
X0366524Y0158587D01*
X0366405Y0157835D01*
X0374489Y0157835D01*
X0374489Y0156835D01*
X0366405Y0156835D01*
X0366524Y0156082D01*
X0366785Y0155282D01*
X0367167Y0154532D01*
X0367662Y0153851D01*
X0368257Y0153255D01*
X0368938Y0152761D01*
X0369688Y0152378D01*
X0370488Y0152118D01*
X0371320Y0151987D01*
X0374489Y0151987D01*
X0374489Y0156835D01*
X0375489Y0156835D01*
X0375489Y0157835D01*
X0383572Y0157835D01*
X0383453Y0158587D01*
X0383193Y0159388D01*
X0382811Y0160138D01*
X0382316Y0160819D01*
X0381721Y0161414D01*
X0381040Y0161909D01*
X0380346Y0162262D01*
X0381266Y0162643D01*
X0382771Y0164148D01*
X0383585Y0166113D01*
X0383585Y0168241D01*
X0382771Y0170207D01*
X0381266Y0171711D01*
X0379301Y0172525D01*
X0370677Y0172525D01*
X0368711Y0171711D01*
X0368042Y0171042D02*
X0358994Y0171042D01*
X0358604Y0170043D02*
X0367139Y0170043D01*
X0366726Y0169045D02*
X0357035Y0169045D01*
X0357035Y0168046D02*
X0366393Y0168046D01*
X0366393Y0167047D02*
X0357035Y0167047D01*
X0357035Y0166049D02*
X0366419Y0166049D01*
X0366833Y0165050D02*
X0357035Y0165050D01*
X0357035Y0164052D02*
X0367303Y0164052D01*
X0368301Y0163053D02*
X0357035Y0163053D01*
X0357035Y0162055D02*
X0369225Y0162055D01*
X0367899Y0161056D02*
X0357035Y0161056D01*
X0357035Y0160058D02*
X0367126Y0160058D01*
X0366678Y0159059D02*
X0357035Y0159059D01*
X0357035Y0158061D02*
X0366441Y0158061D01*
X0366530Y0156064D02*
X0357035Y0156064D01*
X0357035Y0157062D02*
X0374489Y0157062D01*
X0374910Y0157256D02*
X0374989Y0157335D01*
X0375489Y0157062D02*
X0414595Y0157062D01*
X0414595Y0156064D02*
X0383447Y0156064D01*
X0383453Y0156082D02*
X0383193Y0155282D01*
X0382811Y0154532D01*
X0382316Y0153851D01*
X0381721Y0153255D01*
X0381040Y0152761D01*
X0380290Y0152378D01*
X0379489Y0152118D01*
X0378658Y0151987D01*
X0375489Y0151987D01*
X0375489Y0156835D01*
X0383572Y0156835D01*
X0383453Y0156082D01*
X0383083Y0155065D02*
X0414595Y0155065D01*
X0414595Y0154067D02*
X0382473Y0154067D01*
X0381463Y0153068D02*
X0414595Y0153068D01*
X0414595Y0152070D02*
X0379183Y0152070D01*
X0375489Y0152070D02*
X0374489Y0152070D01*
X0374489Y0153068D02*
X0375489Y0153068D01*
X0375489Y0154067D02*
X0374489Y0154067D01*
X0374489Y0155065D02*
X0375489Y0155065D01*
X0375489Y0156064D02*
X0374489Y0156064D01*
X0370795Y0152070D02*
X0356858Y0152070D01*
X0357035Y0153068D02*
X0368514Y0153068D01*
X0367504Y0154067D02*
X0357035Y0154067D01*
X0357035Y0155065D02*
X0366895Y0155065D01*
X0356190Y0151071D02*
X0414595Y0151071D01*
X0414595Y0150073D02*
X0355191Y0150073D01*
X0354193Y0149074D02*
X0414595Y0149074D01*
X0414595Y0148076D02*
X0353194Y0148076D01*
X0352195Y0147077D02*
X0414595Y0147077D01*
X0414595Y0146079D02*
X0351197Y0146079D01*
X0350198Y0145080D02*
X0414595Y0145080D01*
X0414595Y0144082D02*
X0350026Y0144082D01*
X0350026Y0143083D02*
X0414595Y0143083D01*
X0414595Y0142085D02*
X0350026Y0142085D01*
X0350026Y0141086D02*
X0414595Y0141086D01*
X0414595Y0140088D02*
X0350026Y0140088D01*
X0350026Y0139089D02*
X0414595Y0139089D01*
X0414595Y0138091D02*
X0350026Y0138091D01*
X0349236Y0137092D02*
X0414595Y0137092D01*
X0414595Y0136094D02*
X0307676Y0136094D01*
X0308674Y0137092D02*
X0337954Y0137092D01*
X0337164Y0138091D02*
X0309673Y0138091D01*
X0310671Y0139089D02*
X0337164Y0139089D01*
X0337164Y0140088D02*
X0311670Y0140088D01*
X0312668Y0141086D02*
X0323724Y0141086D01*
X0322725Y0142085D02*
X0313667Y0142085D01*
X0314665Y0143083D02*
X0321727Y0143083D01*
X0320728Y0144082D02*
X0315664Y0144082D01*
X0316662Y0145080D02*
X0320495Y0145080D01*
X0320495Y0146079D02*
X0317661Y0146079D01*
X0318659Y0147077D02*
X0320495Y0147077D01*
X0320495Y0148076D02*
X0319658Y0148076D01*
X0330825Y0154067D02*
X0351548Y0154067D01*
X0351635Y0155065D02*
X0326647Y0155065D01*
X0327646Y0156064D02*
X0351635Y0156064D01*
X0351635Y0157062D02*
X0328644Y0157062D01*
X0329643Y0158061D02*
X0351635Y0158061D01*
X0351635Y0159059D02*
X0330641Y0159059D01*
X0331640Y0160058D02*
X0351635Y0160058D01*
X0351635Y0161056D02*
X0332638Y0161056D01*
X0333637Y0162055D02*
X0351635Y0162055D01*
X0351635Y0163053D02*
X0334635Y0163053D01*
X0331824Y0153068D02*
X0350550Y0153068D01*
X0349551Y0152070D02*
X0332822Y0152070D01*
X0333821Y0151071D02*
X0348553Y0151071D01*
X0347554Y0150073D02*
X0334695Y0150073D01*
X0340634Y0149074D02*
X0346556Y0149074D01*
X0345557Y0148076D02*
X0341633Y0148076D01*
X0337164Y0144082D02*
X0334462Y0144082D01*
X0333463Y0143083D02*
X0337164Y0143083D01*
X0337164Y0142085D02*
X0332465Y0142085D01*
X0331466Y0141086D02*
X0337164Y0141086D01*
X0338395Y0127860D02*
X0337164Y0126630D01*
X0337164Y0119956D01*
X0334695Y0119956D01*
X0334695Y0120197D01*
X0330536Y0124356D01*
X0324654Y0124356D01*
X0320495Y0120197D01*
X0320495Y0114315D01*
X0324654Y0110156D01*
X0324895Y0110156D01*
X0324895Y0099327D01*
X0324135Y0098568D01*
X0323514Y0097068D01*
X0323514Y0095444D01*
X0324135Y0093944D01*
X0325283Y0092796D01*
X0326783Y0092175D01*
X0328407Y0092175D01*
X0329907Y0092796D01*
X0331055Y0093944D01*
X0331676Y0095444D01*
X0331676Y0097068D01*
X0331055Y0098568D01*
X0330295Y0099327D01*
X0330295Y0110156D01*
X0330536Y0110156D01*
X0334695Y0114315D01*
X0334695Y0114556D01*
X0339172Y0114556D01*
X0340164Y0114967D01*
X0341770Y0116573D01*
X0348796Y0116573D01*
X0350026Y0117803D01*
X0350026Y0126630D01*
X0348796Y0127860D01*
X0338395Y0127860D01*
X0337642Y0127107D02*
X0306595Y0127107D01*
X0306595Y0126109D02*
X0337164Y0126109D01*
X0337164Y0125110D02*
X0306595Y0125110D01*
X0306595Y0124112D02*
X0324410Y0124112D01*
X0323411Y0123113D02*
X0306595Y0123113D01*
X0306595Y0122114D02*
X0322413Y0122114D01*
X0321414Y0121116D02*
X0306595Y0121116D01*
X0306595Y0120117D02*
X0320495Y0120117D01*
X0320495Y0119119D02*
X0306595Y0119119D01*
X0306595Y0118120D02*
X0320495Y0118120D01*
X0320495Y0117122D02*
X0306595Y0117122D01*
X0306595Y0116123D02*
X0320495Y0116123D01*
X0320495Y0115125D02*
X0306595Y0115125D01*
X0306595Y0114126D02*
X0320684Y0114126D01*
X0321682Y0113128D02*
X0306595Y0113128D01*
X0306595Y0112129D02*
X0322681Y0112129D01*
X0323679Y0111131D02*
X0306595Y0111131D01*
X0306595Y0110132D02*
X0324895Y0110132D01*
X0324895Y0109134D02*
X0306595Y0109134D01*
X0306595Y0108135D02*
X0324895Y0108135D01*
X0324895Y0107137D02*
X0306595Y0107137D01*
X0306595Y0106138D02*
X0324895Y0106138D01*
X0324895Y0105140D02*
X0306595Y0105140D01*
X0306595Y0104141D02*
X0324895Y0104141D01*
X0324895Y0103143D02*
X0306595Y0103143D01*
X0306595Y0102144D02*
X0324895Y0102144D01*
X0324895Y0101146D02*
X0306595Y0101146D01*
X0307229Y0100147D02*
X0324895Y0100147D01*
X0324716Y0099149D02*
X0307643Y0099149D01*
X0307676Y0098150D02*
X0323962Y0098150D01*
X0323549Y0097152D02*
X0307555Y0097152D01*
X0307141Y0096153D02*
X0323514Y0096153D01*
X0323634Y0095155D02*
X0306265Y0095155D01*
X0303455Y0094156D02*
X0324048Y0094156D01*
X0324922Y0093158D02*
X0302457Y0093158D01*
X0301458Y0092159D02*
X0336831Y0092159D01*
X0335833Y0091161D02*
X0300460Y0091161D01*
X0299461Y0090162D02*
X0334834Y0090162D01*
X0333836Y0089164D02*
X0298463Y0089164D01*
X0297464Y0088165D02*
X0332837Y0088165D01*
X0331839Y0087167D02*
X0296466Y0087167D01*
X0295467Y0086168D02*
X0330840Y0086168D01*
X0329842Y0085170D02*
X0294469Y0085170D01*
X0293470Y0084171D02*
X0328843Y0084171D01*
X0327845Y0083173D02*
X0292472Y0083173D01*
X0291473Y0082174D02*
X0326846Y0082174D01*
X0325848Y0081176D02*
X0290475Y0081176D01*
X0289476Y0080177D02*
X0324849Y0080177D01*
X0323851Y0079178D02*
X0288478Y0079178D01*
X0287479Y0078180D02*
X0322852Y0078180D01*
X0321854Y0077181D02*
X0286480Y0077181D01*
X0285482Y0076183D02*
X0320855Y0076183D01*
X0319857Y0075184D02*
X0284483Y0075184D01*
X0283485Y0074186D02*
X0318858Y0074186D01*
X0317860Y0073187D02*
X0282486Y0073187D01*
X0281488Y0072189D02*
X0316861Y0072189D01*
X0315863Y0071190D02*
X0280489Y0071190D01*
X0279491Y0070192D02*
X0314864Y0070192D01*
X0313866Y0069193D02*
X0278492Y0069193D01*
X0277494Y0068195D02*
X0312867Y0068195D01*
X0311869Y0067196D02*
X0276495Y0067196D01*
X0275497Y0066198D02*
X0310870Y0066198D01*
X0309872Y0065199D02*
X0274498Y0065199D01*
X0273500Y0064201D02*
X0308873Y0064201D01*
X0307875Y0063202D02*
X0272501Y0063202D01*
X0298888Y0054216D02*
X0163302Y0054216D01*
X0162304Y0055214D02*
X0299887Y0055214D01*
X0300885Y0056213D02*
X0161305Y0056213D01*
X0160307Y0057211D02*
X0301884Y0057211D01*
X0302882Y0058210D02*
X0159308Y0058210D01*
X0158310Y0059208D02*
X0303881Y0059208D01*
X0304879Y0060207D02*
X0157311Y0060207D01*
X0156313Y0061205D02*
X0161660Y0061205D01*
X0163530Y0061205D02*
X0171660Y0061205D01*
X0173530Y0061205D02*
X0305878Y0061205D01*
X0306876Y0062204D02*
X0175341Y0062204D01*
X0169849Y0062204D02*
X0165341Y0062204D01*
X0166182Y0063202D02*
X0169008Y0063202D01*
X0168594Y0064201D02*
X0166596Y0064201D01*
X0166695Y0065199D02*
X0168495Y0065199D01*
X0168548Y0066198D02*
X0167214Y0066198D01*
X0168213Y0067196D02*
X0168961Y0067196D01*
X0169211Y0068195D02*
X0169736Y0068195D01*
X0170210Y0069193D02*
X0171387Y0069193D01*
X0165851Y0072189D02*
X0145329Y0072189D01*
X0144330Y0073187D02*
X0166850Y0073187D01*
X0167848Y0074186D02*
X0143332Y0074186D01*
X0142333Y0075184D02*
X0168847Y0075184D01*
X0169845Y0076183D02*
X0141335Y0076183D01*
X0140336Y0077181D02*
X0170844Y0077181D01*
X0171842Y0078180D02*
X0139895Y0078180D01*
X0139895Y0079178D02*
X0172841Y0079178D01*
X0173839Y0080177D02*
X0139895Y0080177D01*
X0139895Y0081176D02*
X0174838Y0081176D01*
X0175836Y0082174D02*
X0139895Y0082174D01*
X0139895Y0083173D02*
X0176835Y0083173D01*
X0177833Y0084171D02*
X0139895Y0084171D01*
X0139895Y0085170D02*
X0178832Y0085170D01*
X0179830Y0086168D02*
X0139895Y0086168D01*
X0139895Y0087167D02*
X0194708Y0087167D01*
X0194995Y0088165D02*
X0139909Y0088165D01*
X0139828Y0089164D02*
X0194995Y0089164D01*
X0194995Y0090162D02*
X0192426Y0090162D01*
X0190765Y0090162D02*
X0139356Y0090162D01*
X0138287Y0091161D02*
X0188892Y0091161D01*
X0194298Y0091161D02*
X0194995Y0091161D01*
X0200195Y0091161D02*
X0200946Y0091161D01*
X0201119Y0091578D02*
X0200495Y0090071D01*
X0200495Y0088440D01*
X0201119Y0086933D01*
X0201197Y0086856D01*
X0200793Y0086856D01*
X0200195Y0087454D01*
X0200195Y0099773D01*
X0199799Y0100729D01*
X0192808Y0107720D01*
X0191852Y0108116D01*
X0171648Y0108116D01*
X0171648Y0108945D01*
X0171337Y0109256D01*
X0171648Y0109567D01*
X0171648Y0116425D01*
X0170418Y0117655D01*
X0169195Y0117655D01*
X0169195Y0139979D01*
X0201995Y0107179D01*
X0201995Y0092454D01*
X0201119Y0091578D01*
X0201700Y0092159D02*
X0200195Y0092159D01*
X0200195Y0093158D02*
X0201995Y0093158D01*
X0201995Y0094156D02*
X0200195Y0094156D01*
X0200195Y0095155D02*
X0201995Y0095155D01*
X0201995Y0096153D02*
X0200195Y0096153D01*
X0200195Y0097152D02*
X0201995Y0097152D01*
X0201995Y0098150D02*
X0200195Y0098150D01*
X0200195Y0099149D02*
X0201995Y0099149D01*
X0201995Y0100147D02*
X0200040Y0100147D01*
X0199382Y0101146D02*
X0201995Y0101146D01*
X0201995Y0102144D02*
X0198384Y0102144D01*
X0197385Y0103143D02*
X0201995Y0103143D01*
X0201995Y0104141D02*
X0196387Y0104141D01*
X0195388Y0105140D02*
X0201995Y0105140D01*
X0201995Y0106138D02*
X0194390Y0106138D01*
X0193391Y0107137D02*
X0201995Y0107137D01*
X0201039Y0108135D02*
X0171648Y0108135D01*
X0171459Y0109134D02*
X0200040Y0109134D01*
X0199042Y0110132D02*
X0171648Y0110132D01*
X0171648Y0111131D02*
X0198043Y0111131D01*
X0197045Y0112129D02*
X0171648Y0112129D01*
X0171648Y0113128D02*
X0196046Y0113128D01*
X0195048Y0114126D02*
X0171648Y0114126D01*
X0171648Y0115125D02*
X0194049Y0115125D01*
X0193051Y0116123D02*
X0171648Y0116123D01*
X0170951Y0117122D02*
X0192052Y0117122D01*
X0191054Y0118120D02*
X0169195Y0118120D01*
X0169195Y0119119D02*
X0190055Y0119119D01*
X0189057Y0120117D02*
X0169195Y0120117D01*
X0169195Y0121116D02*
X0188058Y0121116D01*
X0187060Y0122114D02*
X0169195Y0122114D01*
X0169195Y0123113D02*
X0186061Y0123113D01*
X0185063Y0124112D02*
X0169195Y0124112D01*
X0169195Y0125110D02*
X0184064Y0125110D01*
X0183066Y0126109D02*
X0169195Y0126109D01*
X0169195Y0127107D02*
X0182067Y0127107D01*
X0181069Y0128106D02*
X0169195Y0128106D01*
X0169195Y0129104D02*
X0180070Y0129104D01*
X0179072Y0130103D02*
X0169195Y0130103D01*
X0169195Y0131101D02*
X0178073Y0131101D01*
X0177074Y0132100D02*
X0169195Y0132100D01*
X0169195Y0133098D02*
X0176076Y0133098D01*
X0175077Y0134097D02*
X0169195Y0134097D01*
X0169195Y0135095D02*
X0174079Y0135095D01*
X0173080Y0136094D02*
X0169195Y0136094D01*
X0169195Y0137092D02*
X0172082Y0137092D01*
X0171083Y0138091D02*
X0169195Y0138091D01*
X0169195Y0139089D02*
X0170085Y0139089D01*
X0166595Y0141256D02*
X0166595Y0112996D01*
X0161542Y0113128D02*
X0157195Y0113128D01*
X0157195Y0114126D02*
X0161542Y0114126D01*
X0161542Y0115125D02*
X0157195Y0115125D01*
X0157195Y0116123D02*
X0161542Y0116123D01*
X0162239Y0117122D02*
X0157195Y0117122D01*
X0157195Y0118120D02*
X0163995Y0118120D01*
X0163995Y0119119D02*
X0157195Y0119119D01*
X0157195Y0120117D02*
X0163995Y0120117D01*
X0163995Y0121116D02*
X0157195Y0121116D01*
X0157195Y0122114D02*
X0163995Y0122114D01*
X0163995Y0123113D02*
X0157195Y0123113D01*
X0157195Y0124112D02*
X0163995Y0124112D01*
X0163995Y0125110D02*
X0157195Y0125110D01*
X0157195Y0126109D02*
X0163995Y0126109D01*
X0163995Y0127107D02*
X0157195Y0127107D01*
X0157195Y0128106D02*
X0163995Y0128106D01*
X0163995Y0129104D02*
X0157195Y0129104D01*
X0157195Y0130103D02*
X0163995Y0130103D01*
X0163995Y0131101D02*
X0157195Y0131101D01*
X0157195Y0132100D02*
X0163995Y0132100D01*
X0163995Y0133098D02*
X0157195Y0133098D01*
X0157195Y0134097D02*
X0163995Y0134097D01*
X0163995Y0135095D02*
X0157195Y0135095D01*
X0157195Y0136094D02*
X0163995Y0136094D01*
X0163995Y0137092D02*
X0157195Y0137092D01*
X0157195Y0138091D02*
X0163995Y0138091D01*
X0163995Y0139089D02*
X0157195Y0139089D01*
X0157195Y0140088D02*
X0163995Y0140088D01*
X0163088Y0141086D02*
X0157195Y0141086D01*
X0157195Y0142085D02*
X0162089Y0142085D01*
X0161091Y0143083D02*
X0157195Y0143083D01*
X0157195Y0144082D02*
X0160092Y0144082D01*
X0159094Y0145080D02*
X0157195Y0145080D01*
X0157195Y0146079D02*
X0158095Y0146079D01*
X0154595Y0148256D02*
X0154595Y0104256D01*
X0157388Y0105140D02*
X0161542Y0105140D01*
X0161542Y0106138D02*
X0157195Y0106138D01*
X0157195Y0107137D02*
X0161542Y0107137D01*
X0161542Y0108135D02*
X0157195Y0108135D01*
X0157195Y0109134D02*
X0161732Y0109134D01*
X0161542Y0110132D02*
X0157195Y0110132D01*
X0157195Y0111131D02*
X0161542Y0111131D01*
X0161542Y0112129D02*
X0157195Y0112129D01*
X0166595Y0105516D02*
X0191335Y0105516D01*
X0204595Y0108256D02*
X0148961Y0163890D01*
X0140867Y0163890D01*
X0140867Y0161331D02*
X0146520Y0161331D01*
X0166595Y0141256D01*
X0171448Y0145080D02*
X0264995Y0145080D01*
X0264995Y0144082D02*
X0172446Y0144082D01*
X0173445Y0143083D02*
X0264995Y0143083D01*
X0264995Y0142085D02*
X0174443Y0142085D01*
X0175442Y0141086D02*
X0264995Y0141086D01*
X0264995Y0140088D02*
X0176440Y0140088D01*
X0177439Y0139089D02*
X0264995Y0139089D01*
X0264995Y0138091D02*
X0178437Y0138091D01*
X0179436Y0137092D02*
X0264995Y0137092D01*
X0264995Y0136094D02*
X0180434Y0136094D01*
X0181433Y0135095D02*
X0264995Y0135095D01*
X0264995Y0134097D02*
X0182431Y0134097D01*
X0183430Y0133098D02*
X0264995Y0133098D01*
X0264995Y0132100D02*
X0184428Y0132100D01*
X0185427Y0131101D02*
X0264995Y0131101D01*
X0264995Y0130103D02*
X0186425Y0130103D01*
X0187424Y0129104D02*
X0264995Y0129104D01*
X0264995Y0128106D02*
X0188422Y0128106D01*
X0189421Y0127107D02*
X0264769Y0127107D01*
X0263771Y0126109D02*
X0190419Y0126109D01*
X0191418Y0125110D02*
X0262772Y0125110D01*
X0261774Y0124112D02*
X0192416Y0124112D01*
X0193415Y0123113D02*
X0260775Y0123113D01*
X0259777Y0122114D02*
X0194413Y0122114D01*
X0195412Y0121116D02*
X0258778Y0121116D01*
X0257780Y0120117D02*
X0196411Y0120117D01*
X0197409Y0119119D02*
X0256781Y0119119D01*
X0255783Y0118120D02*
X0198408Y0118120D01*
X0199406Y0117122D02*
X0254784Y0117122D01*
X0253786Y0116123D02*
X0200405Y0116123D01*
X0201403Y0115125D02*
X0252787Y0115125D01*
X0251789Y0114126D02*
X0202402Y0114126D01*
X0203400Y0113128D02*
X0250790Y0113128D01*
X0249792Y0112129D02*
X0204399Y0112129D01*
X0205397Y0111131D02*
X0248793Y0111131D01*
X0247795Y0110132D02*
X0206396Y0110132D01*
X0207046Y0109134D02*
X0246796Y0109134D01*
X0245798Y0108135D02*
X0207195Y0108135D01*
X0207195Y0107137D02*
X0244799Y0107137D01*
X0243801Y0106138D02*
X0207195Y0106138D01*
X0207195Y0105140D02*
X0242802Y0105140D01*
X0241804Y0104141D02*
X0207195Y0104141D01*
X0207195Y0103143D02*
X0240805Y0103143D01*
X0239807Y0102144D02*
X0207195Y0102144D01*
X0207195Y0101146D02*
X0238808Y0101146D01*
X0237810Y0100147D02*
X0207195Y0100147D01*
X0207195Y0099149D02*
X0236811Y0099149D01*
X0235812Y0098150D02*
X0207195Y0098150D01*
X0207195Y0097152D02*
X0234814Y0097152D01*
X0233815Y0096153D02*
X0207195Y0096153D01*
X0207195Y0095155D02*
X0232817Y0095155D01*
X0231818Y0094156D02*
X0207195Y0094156D01*
X0207195Y0093158D02*
X0230820Y0093158D01*
X0229821Y0092159D02*
X0207490Y0092159D01*
X0208244Y0091161D02*
X0228823Y0091161D01*
X0227824Y0090162D02*
X0208658Y0090162D01*
X0208695Y0089164D02*
X0226826Y0089164D01*
X0225827Y0088165D02*
X0208581Y0088165D01*
X0208168Y0087167D02*
X0224829Y0087167D01*
X0230186Y0085170D02*
X0230832Y0085170D01*
X0231184Y0086168D02*
X0231830Y0086168D01*
X0232183Y0087167D02*
X0232829Y0087167D01*
X0233181Y0088165D02*
X0233827Y0088165D01*
X0234180Y0089164D02*
X0234826Y0089164D01*
X0235178Y0090162D02*
X0235824Y0090162D01*
X0236177Y0091161D02*
X0236823Y0091161D01*
X0237175Y0092159D02*
X0237821Y0092159D01*
X0238174Y0093158D02*
X0238820Y0093158D01*
X0239172Y0094156D02*
X0239818Y0094156D01*
X0240171Y0095155D02*
X0240817Y0095155D01*
X0241169Y0096153D02*
X0241815Y0096153D01*
X0242168Y0097152D02*
X0242814Y0097152D01*
X0243166Y0098150D02*
X0243813Y0098150D01*
X0244165Y0099149D02*
X0244811Y0099149D01*
X0245163Y0100147D02*
X0245810Y0100147D01*
X0246162Y0101146D02*
X0246808Y0101146D01*
X0247160Y0102144D02*
X0247807Y0102144D01*
X0248159Y0103143D02*
X0248805Y0103143D01*
X0249157Y0104141D02*
X0249804Y0104141D01*
X0250156Y0105140D02*
X0250802Y0105140D01*
X0251154Y0106138D02*
X0251801Y0106138D01*
X0252153Y0107137D02*
X0252799Y0107137D01*
X0253152Y0108135D02*
X0253798Y0108135D01*
X0254150Y0109134D02*
X0254796Y0109134D01*
X0255149Y0110132D02*
X0255795Y0110132D01*
X0256147Y0111131D02*
X0256793Y0111131D01*
X0257146Y0112129D02*
X0257792Y0112129D01*
X0258144Y0113128D02*
X0258790Y0113128D01*
X0259143Y0114126D02*
X0259789Y0114126D01*
X0260141Y0115125D02*
X0260787Y0115125D01*
X0261140Y0116123D02*
X0261786Y0116123D01*
X0262138Y0117122D02*
X0262784Y0117122D01*
X0263137Y0118120D02*
X0263783Y0118120D01*
X0264135Y0119119D02*
X0264781Y0119119D01*
X0265134Y0120117D02*
X0265780Y0120117D01*
X0266132Y0121116D02*
X0266778Y0121116D01*
X0267131Y0122114D02*
X0267777Y0122114D01*
X0268129Y0123113D02*
X0268775Y0123113D01*
X0269128Y0124112D02*
X0269774Y0124112D01*
X0269935Y0125110D02*
X0270772Y0125110D01*
X0270195Y0126109D02*
X0271771Y0126109D01*
X0272769Y0127107D02*
X0270195Y0127107D01*
X0270195Y0128106D02*
X0273768Y0128106D01*
X0274766Y0129104D02*
X0270195Y0129104D01*
X0270195Y0130103D02*
X0275765Y0130103D01*
X0276763Y0131101D02*
X0270195Y0131101D01*
X0270195Y0132100D02*
X0277762Y0132100D01*
X0278760Y0133098D02*
X0270195Y0133098D01*
X0270195Y0134097D02*
X0279759Y0134097D01*
X0280757Y0135095D02*
X0270195Y0135095D01*
X0270195Y0136094D02*
X0281756Y0136094D01*
X0282754Y0137092D02*
X0270195Y0137092D01*
X0270195Y0138091D02*
X0283753Y0138091D01*
X0284751Y0139089D02*
X0270195Y0139089D01*
X0270195Y0140088D02*
X0285750Y0140088D01*
X0286748Y0141086D02*
X0270195Y0141086D01*
X0270195Y0142085D02*
X0287747Y0142085D01*
X0288746Y0143083D02*
X0270195Y0143083D01*
X0270195Y0144082D02*
X0289744Y0144082D01*
X0290743Y0145080D02*
X0270195Y0145080D01*
X0270195Y0146079D02*
X0291741Y0146079D01*
X0292740Y0147077D02*
X0270195Y0147077D01*
X0270195Y0148076D02*
X0293738Y0148076D01*
X0294737Y0149074D02*
X0270195Y0149074D01*
X0270195Y0150073D02*
X0295735Y0150073D01*
X0296734Y0151071D02*
X0270195Y0151071D01*
X0270195Y0152070D02*
X0297732Y0152070D01*
X0298731Y0153068D02*
X0270195Y0153068D01*
X0270195Y0154067D02*
X0299729Y0154067D01*
X0300728Y0155065D02*
X0270195Y0155065D01*
X0270195Y0156064D02*
X0301726Y0156064D01*
X0302725Y0157062D02*
X0270195Y0157062D01*
X0270195Y0158061D02*
X0303723Y0158061D01*
X0304722Y0159059D02*
X0270195Y0159059D01*
X0270195Y0160058D02*
X0305720Y0160058D01*
X0306719Y0161056D02*
X0270195Y0161056D01*
X0270195Y0162055D02*
X0307717Y0162055D01*
X0308716Y0163053D02*
X0270195Y0163053D01*
X0270195Y0164052D02*
X0309714Y0164052D01*
X0310713Y0165050D02*
X0270195Y0165050D01*
X0270195Y0166049D02*
X0311711Y0166049D01*
X0312710Y0167047D02*
X0270195Y0167047D01*
X0270195Y0168046D02*
X0313708Y0168046D01*
X0314707Y0169045D02*
X0270195Y0169045D01*
X0264995Y0169045D02*
X0133295Y0169045D01*
X0133295Y0170043D02*
X0264995Y0170043D01*
X0264995Y0171042D02*
X0133295Y0171042D01*
X0133295Y0172040D02*
X0264995Y0172040D01*
X0264995Y0168046D02*
X0133295Y0168046D01*
X0133295Y0167047D02*
X0264995Y0167047D01*
X0264995Y0166049D02*
X0150479Y0166049D01*
X0151478Y0165050D02*
X0264995Y0165050D01*
X0264995Y0164052D02*
X0152476Y0164052D01*
X0153475Y0163053D02*
X0264995Y0163053D01*
X0264995Y0162055D02*
X0154473Y0162055D01*
X0155472Y0161056D02*
X0264995Y0161056D01*
X0264995Y0160058D02*
X0156470Y0160058D01*
X0157469Y0159059D02*
X0264995Y0159059D01*
X0264995Y0158061D02*
X0158467Y0158061D01*
X0159466Y0157062D02*
X0264995Y0157062D01*
X0264995Y0156064D02*
X0160464Y0156064D01*
X0161463Y0155065D02*
X0264995Y0155065D01*
X0264995Y0154067D02*
X0162461Y0154067D01*
X0163460Y0153068D02*
X0264995Y0153068D01*
X0264995Y0152070D02*
X0164458Y0152070D01*
X0165457Y0151071D02*
X0264995Y0151071D01*
X0264995Y0150073D02*
X0166455Y0150073D01*
X0167454Y0149074D02*
X0264995Y0149074D01*
X0264995Y0148076D02*
X0168452Y0148076D01*
X0169451Y0147077D02*
X0264995Y0147077D01*
X0264995Y0146079D02*
X0170449Y0146079D01*
X0154595Y0148256D02*
X0149198Y0153654D01*
X0140867Y0153654D01*
X0135814Y0153068D02*
X0126917Y0153068D01*
X0127195Y0154067D02*
X0132966Y0154067D01*
X0131967Y0155065D02*
X0127195Y0155065D01*
X0127195Y0156064D02*
X0130969Y0156064D01*
X0129970Y0157062D02*
X0127195Y0157062D01*
X0127195Y0158061D02*
X0128972Y0158061D01*
X0128168Y0159059D02*
X0127195Y0159059D01*
X0127195Y0160058D02*
X0127895Y0160058D01*
X0127895Y0161056D02*
X0127195Y0161056D01*
X0127195Y0162055D02*
X0127895Y0162055D01*
X0127895Y0163053D02*
X0127195Y0163053D01*
X0127195Y0164052D02*
X0127895Y0164052D01*
X0127895Y0165050D02*
X0127195Y0165050D01*
X0127195Y0166049D02*
X0127895Y0166049D01*
X0127895Y0167047D02*
X0127195Y0167047D01*
X0127195Y0168046D02*
X0127895Y0168046D01*
X0127895Y0169045D02*
X0127195Y0169045D01*
X0127195Y0170043D02*
X0127895Y0170043D01*
X0127895Y0171042D02*
X0127195Y0171042D01*
X0127195Y0172040D02*
X0127895Y0172040D01*
X0127895Y0173039D02*
X0127195Y0173039D01*
X0127195Y0174037D02*
X0127895Y0174037D01*
X0127895Y0175036D02*
X0127195Y0175036D01*
X0120555Y0177296D02*
X0120411Y0177356D01*
X0118780Y0177356D01*
X0117273Y0176732D01*
X0116119Y0175578D01*
X0115495Y0174071D01*
X0115495Y0172440D01*
X0116119Y0170933D01*
X0116995Y0170058D01*
X0116995Y0165928D01*
X0116146Y0166777D01*
X0108501Y0166777D01*
X0107271Y0165547D01*
X0107271Y0156213D01*
X0108172Y0156213D01*
X0108173Y0156213D01*
X0108172Y0156213D01*
X0107271Y0156213D01*
X0107271Y0146117D01*
X0106552Y0146117D01*
X0104884Y0147785D01*
X0104125Y0148545D01*
X0103132Y0148956D01*
X0100648Y0148956D01*
X0100648Y0149425D01*
X0099418Y0150655D01*
X0099155Y0150655D01*
X0099155Y0163102D01*
X0098653Y0164315D01*
X0088838Y0174130D01*
X0096264Y0181556D01*
X0122097Y0181556D01*
X0121119Y0180578D01*
X0120495Y0179071D01*
X0120495Y0177440D01*
X0120555Y0177296D01*
X0120495Y0178031D02*
X0092739Y0178031D01*
X0093737Y0179030D02*
X0120495Y0179030D01*
X0120891Y0180028D02*
X0094736Y0180028D01*
X0095734Y0181027D02*
X0121568Y0181027D01*
X0124595Y0178256D02*
X0124595Y0154256D01*
X0118875Y0148535D01*
X0112323Y0148535D01*
X0112323Y0145976D02*
X0112303Y0145956D01*
X0107895Y0145956D01*
X0105595Y0148256D01*
X0105595Y0154256D01*
X0107552Y0156213D01*
X0112323Y0156213D01*
X0116474Y0156213D02*
X0116474Y0156213D01*
X0116995Y0156213D01*
X0116995Y0156213D01*
X0116474Y0156213D01*
X0116474Y0156213D01*
X0119595Y0153256D02*
X0119595Y0173256D01*
X0115495Y0173039D02*
X0089929Y0173039D01*
X0088931Y0174037D02*
X0115495Y0174037D01*
X0115895Y0175036D02*
X0089743Y0175036D01*
X0090742Y0176034D02*
X0116575Y0176034D01*
X0117999Y0177033D02*
X0091740Y0177033D01*
X0087099Y0180028D02*
X0027595Y0180028D01*
X0027595Y0179030D02*
X0086100Y0179030D01*
X0085102Y0178031D02*
X0027595Y0178031D01*
X0027595Y0177033D02*
X0082124Y0177033D01*
X0081125Y0176034D02*
X0027595Y0176034D01*
X0027595Y0175036D02*
X0080708Y0175036D01*
X0080495Y0174037D02*
X0027595Y0174037D01*
X0027595Y0173039D02*
X0080495Y0173039D01*
X0080847Y0172040D02*
X0027595Y0172040D01*
X0027595Y0171042D02*
X0081461Y0171042D01*
X0082724Y0170043D02*
X0027595Y0170043D01*
X0027595Y0169045D02*
X0084590Y0169045D01*
X0085588Y0168046D02*
X0027595Y0168046D01*
X0027595Y0167047D02*
X0086587Y0167047D01*
X0087585Y0166049D02*
X0027595Y0166049D01*
X0027595Y0165050D02*
X0088584Y0165050D01*
X0089582Y0164052D02*
X0027595Y0164052D01*
X0027595Y0163053D02*
X0090581Y0163053D01*
X0091579Y0162055D02*
X0027595Y0162055D01*
X0027595Y0161056D02*
X0092555Y0161056D01*
X0092555Y0160058D02*
X0027595Y0160058D01*
X0027595Y0159059D02*
X0092555Y0159059D01*
X0092555Y0158061D02*
X0027595Y0158061D01*
X0027595Y0157062D02*
X0092555Y0157062D01*
X0092555Y0156064D02*
X0027595Y0156064D01*
X0027595Y0155065D02*
X0092555Y0155065D01*
X0092555Y0154067D02*
X0027595Y0154067D01*
X0027595Y0153068D02*
X0092555Y0153068D01*
X0092555Y0152070D02*
X0027595Y0152070D01*
X0027595Y0151071D02*
X0092555Y0151071D01*
X0091190Y0150073D02*
X0027595Y0150073D01*
X0027595Y0149074D02*
X0090144Y0149074D01*
X0088748Y0148076D02*
X0027595Y0148076D01*
X0027595Y0147077D02*
X0087750Y0147077D01*
X0086751Y0146079D02*
X0027595Y0146079D01*
X0027595Y0145080D02*
X0085753Y0145080D01*
X0084754Y0144082D02*
X0027595Y0144082D01*
X0027595Y0143083D02*
X0083756Y0143083D01*
X0082781Y0142085D02*
X0027595Y0142085D01*
X0027595Y0141086D02*
X0028767Y0141086D01*
X0027768Y0140088D02*
X0027595Y0140088D01*
X0027595Y0139089D02*
X0027763Y0139089D01*
X0027763Y0138091D02*
X0027595Y0138091D01*
X0027595Y0137092D02*
X0027763Y0137092D01*
X0027763Y0136094D02*
X0027595Y0136094D01*
X0027595Y0135095D02*
X0027763Y0135095D01*
X0027763Y0134097D02*
X0027595Y0134097D01*
X0027595Y0133098D02*
X0027763Y0133098D01*
X0027763Y0132100D02*
X0027595Y0132100D01*
X0027595Y0131101D02*
X0027763Y0131101D01*
X0027595Y0130103D02*
X0028129Y0130103D01*
X0040710Y0106138D02*
X0050512Y0106138D01*
X0049513Y0105140D02*
X0041709Y0105140D01*
X0041805Y0104141D02*
X0049416Y0104141D01*
X0049416Y0103143D02*
X0041805Y0103143D01*
X0041805Y0102144D02*
X0049416Y0102144D01*
X0049416Y0101146D02*
X0041805Y0101146D01*
X0041805Y0100147D02*
X0049416Y0100147D01*
X0049416Y0099149D02*
X0041805Y0099149D01*
X0041805Y0098150D02*
X0049416Y0098150D01*
X0049416Y0097152D02*
X0041805Y0097152D01*
X0041805Y0096153D02*
X0049416Y0096153D01*
X0049691Y0095155D02*
X0041531Y0095155D01*
X0076024Y0109134D02*
X0108542Y0109134D01*
X0108828Y0110132D02*
X0077023Y0110132D01*
X0078021Y0111131D02*
X0108542Y0111131D01*
X0108542Y0112129D02*
X0079020Y0112129D01*
X0080018Y0113128D02*
X0108542Y0113128D01*
X0108542Y0114126D02*
X0104042Y0114126D01*
X0104420Y0115125D02*
X0107799Y0115125D01*
X0106801Y0116123D02*
X0104420Y0116123D01*
X0091148Y0114126D02*
X0081017Y0114126D01*
X0082015Y0115125D02*
X0090771Y0115125D01*
X0090771Y0116123D02*
X0083014Y0116123D01*
X0084012Y0117122D02*
X0090771Y0117122D01*
X0090771Y0118120D02*
X0085011Y0118120D01*
X0089078Y0119119D02*
X0090771Y0119119D01*
X0113095Y0104141D02*
X0114095Y0104141D01*
X0114095Y0103143D02*
X0113095Y0103143D01*
X0113095Y0102144D02*
X0114095Y0102144D01*
X0098095Y0098150D02*
X0097095Y0098150D01*
X0097095Y0097152D02*
X0098095Y0097152D01*
X0098095Y0096153D02*
X0097095Y0096153D01*
X0097095Y0095155D02*
X0098095Y0095155D01*
X0098095Y0094156D02*
X0097095Y0094156D01*
X0081529Y0082174D02*
X0125040Y0082174D01*
X0125295Y0081176D02*
X0082527Y0081176D01*
X0083467Y0080177D02*
X0125295Y0080177D01*
X0125295Y0079178D02*
X0083881Y0079178D01*
X0084294Y0078180D02*
X0125295Y0078180D01*
X0125295Y0077181D02*
X0084506Y0077181D01*
X0084506Y0076183D02*
X0125295Y0076183D01*
X0125295Y0075184D02*
X0084506Y0075184D01*
X0084506Y0074186D02*
X0125295Y0074186D01*
X0125295Y0073187D02*
X0084506Y0073187D01*
X0084506Y0072189D02*
X0125465Y0072189D01*
X0125994Y0071190D02*
X0084506Y0071190D01*
X0084506Y0070192D02*
X0126992Y0070192D01*
X0126726Y0070458D02*
X0126726Y0070458D01*
X0127991Y0069193D02*
X0084506Y0069193D01*
X0084506Y0068195D02*
X0128989Y0068195D01*
X0129988Y0067196D02*
X0084506Y0067196D01*
X0084506Y0066198D02*
X0130986Y0066198D01*
X0131985Y0065199D02*
X0084506Y0065199D01*
X0084240Y0064201D02*
X0132983Y0064201D01*
X0133982Y0063202D02*
X0083826Y0063202D01*
X0083395Y0062204D02*
X0134980Y0062204D01*
X0135979Y0061205D02*
X0082396Y0061205D01*
X0081355Y0060207D02*
X0136977Y0060207D01*
X0137976Y0059208D02*
X0078945Y0059208D01*
X0065895Y0048225D02*
X0065295Y0048225D01*
X0065295Y0047226D02*
X0065895Y0047226D01*
X0065895Y0046228D02*
X0065295Y0046228D01*
X0054084Y0060207D02*
X0053484Y0060207D01*
X0053484Y0061205D02*
X0054084Y0061205D01*
X0049684Y0071190D02*
X0027595Y0071190D01*
X0079261Y0083173D02*
X0124627Y0083173D01*
X0136004Y0093158D02*
X0162016Y0093158D01*
X0161018Y0094156D02*
X0134863Y0094156D01*
X0133722Y0095155D02*
X0160019Y0095155D01*
X0159021Y0096153D02*
X0132641Y0096153D01*
X0132227Y0097152D02*
X0158022Y0097152D01*
X0157024Y0098150D02*
X0131472Y0098150D01*
X0137146Y0092159D02*
X0163015Y0092159D01*
X0162483Y0101146D02*
X0161382Y0101146D01*
X0161542Y0102144D02*
X0160384Y0102144D01*
X0159385Y0103143D02*
X0161542Y0103143D01*
X0161542Y0104141D02*
X0158387Y0104141D01*
X0181595Y0084256D02*
X0162595Y0065256D01*
X0158495Y0065199D02*
X0152319Y0065199D01*
X0153317Y0064201D02*
X0158594Y0064201D01*
X0159008Y0063202D02*
X0154316Y0063202D01*
X0155314Y0062204D02*
X0159849Y0062204D01*
X0158548Y0066198D02*
X0151320Y0066198D01*
X0150322Y0067196D02*
X0158961Y0067196D01*
X0159736Y0068195D02*
X0149323Y0068195D01*
X0148325Y0069193D02*
X0161387Y0069193D01*
X0163854Y0070192D02*
X0147326Y0070192D01*
X0146328Y0071190D02*
X0164853Y0071190D01*
X0181193Y0080177D02*
X0196729Y0080177D01*
X0198462Y0080177D02*
X0201539Y0080177D01*
X0201952Y0081176D02*
X0200313Y0081176D01*
X0197595Y0084256D02*
X0181595Y0084256D01*
X0182192Y0081176D02*
X0194877Y0081176D01*
X0200483Y0087167D02*
X0201023Y0087167D01*
X0200609Y0088165D02*
X0200195Y0088165D01*
X0200195Y0089164D02*
X0200495Y0089164D01*
X0200533Y0090162D02*
X0200195Y0090162D01*
X0204595Y0089256D02*
X0204595Y0108256D01*
X0229187Y0084171D02*
X0229833Y0084171D01*
X0228835Y0083173D02*
X0228189Y0083173D01*
X0227836Y0082174D02*
X0227190Y0082174D01*
X0300904Y0047226D02*
X0307898Y0047226D01*
X0308897Y0048225D02*
X0302231Y0048225D01*
X0302393Y0048387D02*
X0302393Y0048387D01*
X0303229Y0049223D02*
X0309896Y0049223D01*
X0310894Y0050222D02*
X0304228Y0050222D01*
X0305226Y0051220D02*
X0311893Y0051220D01*
X0312891Y0052219D02*
X0306225Y0052219D01*
X0307223Y0053217D02*
X0313890Y0053217D01*
X0314888Y0054216D02*
X0308222Y0054216D01*
X0309220Y0055214D02*
X0315887Y0055214D01*
X0316885Y0056213D02*
X0310219Y0056213D01*
X0311217Y0057211D02*
X0317884Y0057211D01*
X0318882Y0058210D02*
X0312216Y0058210D01*
X0313214Y0059208D02*
X0319881Y0059208D01*
X0320879Y0060207D02*
X0314213Y0060207D01*
X0315211Y0061205D02*
X0321878Y0061205D01*
X0322876Y0062204D02*
X0316210Y0062204D01*
X0317208Y0063202D02*
X0323875Y0063202D01*
X0324873Y0064201D02*
X0318207Y0064201D01*
X0319205Y0065199D02*
X0325872Y0065199D01*
X0326870Y0066198D02*
X0320204Y0066198D01*
X0321202Y0067196D02*
X0327869Y0067196D01*
X0328867Y0068195D02*
X0322201Y0068195D01*
X0323199Y0069193D02*
X0329866Y0069193D01*
X0330864Y0070192D02*
X0324198Y0070192D01*
X0325197Y0071190D02*
X0331863Y0071190D01*
X0332861Y0072189D02*
X0326195Y0072189D01*
X0327194Y0073187D02*
X0333860Y0073187D01*
X0334858Y0074186D02*
X0328192Y0074186D01*
X0329191Y0075184D02*
X0335857Y0075184D01*
X0336855Y0076183D02*
X0330189Y0076183D01*
X0331188Y0077181D02*
X0337854Y0077181D01*
X0338852Y0078180D02*
X0332186Y0078180D01*
X0333185Y0079178D02*
X0339851Y0079178D01*
X0340849Y0080177D02*
X0334183Y0080177D01*
X0335182Y0081176D02*
X0341848Y0081176D01*
X0342846Y0082174D02*
X0336180Y0082174D01*
X0337179Y0083173D02*
X0343845Y0083173D01*
X0344843Y0084171D02*
X0338177Y0084171D01*
X0339176Y0085170D02*
X0345842Y0085170D01*
X0346840Y0086168D02*
X0340174Y0086168D01*
X0341173Y0087167D02*
X0347839Y0087167D01*
X0348837Y0088165D02*
X0342171Y0088165D01*
X0343170Y0089164D02*
X0356740Y0089164D01*
X0356052Y0090162D02*
X0344168Y0090162D01*
X0345167Y0091161D02*
X0355618Y0091161D01*
X0355205Y0092159D02*
X0346165Y0092159D01*
X0347164Y0093158D02*
X0355195Y0093158D01*
X0355195Y0094156D02*
X0348162Y0094156D01*
X0349161Y0095155D02*
X0355537Y0095155D01*
X0355950Y0096153D02*
X0350159Y0096153D01*
X0351158Y0097152D02*
X0356854Y0097152D01*
X0364336Y0097152D02*
X0383295Y0097152D01*
X0383295Y0098150D02*
X0365206Y0098150D01*
X0365619Y0099149D02*
X0383295Y0099149D01*
X0383295Y0100147D02*
X0365995Y0100147D01*
X0365995Y0101146D02*
X0383295Y0101146D01*
X0383295Y0102144D02*
X0365995Y0102144D01*
X0365606Y0103143D02*
X0370300Y0103143D01*
X0368371Y0104141D02*
X0365193Y0104141D01*
X0364222Y0105140D02*
X0367372Y0105140D01*
X0366862Y0106138D02*
X0362615Y0106138D01*
X0366448Y0107137D02*
X0330295Y0107137D01*
X0330295Y0108135D02*
X0366393Y0108135D01*
X0366393Y0109134D02*
X0330295Y0109134D01*
X0330295Y0110132D02*
X0366697Y0110132D01*
X0367110Y0111131D02*
X0331511Y0111131D01*
X0332510Y0112129D02*
X0367972Y0112129D01*
X0369338Y0113128D02*
X0333508Y0113128D01*
X0334507Y0114126D02*
X0368228Y0114126D01*
X0367230Y0115125D02*
X0340322Y0115125D01*
X0341320Y0116123D02*
X0366803Y0116123D01*
X0366393Y0117122D02*
X0349344Y0117122D01*
X0350026Y0118120D02*
X0366393Y0118120D01*
X0366393Y0119119D02*
X0350026Y0119119D01*
X0350026Y0120117D02*
X0366756Y0120117D01*
X0367169Y0121116D02*
X0350026Y0121116D01*
X0350026Y0122114D02*
X0368115Y0122114D01*
X0369682Y0123113D02*
X0350026Y0123113D01*
X0350026Y0124112D02*
X0414595Y0124112D01*
X0414595Y0125110D02*
X0350026Y0125110D01*
X0350026Y0126109D02*
X0414595Y0126109D01*
X0414595Y0127107D02*
X0349548Y0127107D01*
X0337164Y0124112D02*
X0330780Y0124112D01*
X0331779Y0123113D02*
X0337164Y0123113D01*
X0337164Y0122114D02*
X0332777Y0122114D01*
X0333776Y0121116D02*
X0337164Y0121116D01*
X0337164Y0120117D02*
X0334695Y0120117D01*
X0330295Y0106138D02*
X0358576Y0106138D01*
X0356968Y0105140D02*
X0330295Y0105140D01*
X0330295Y0104141D02*
X0349116Y0104141D01*
X0347815Y0103143D02*
X0330295Y0103143D01*
X0330295Y0102144D02*
X0346817Y0102144D01*
X0347672Y0102999D02*
X0347672Y0102999D01*
X0345818Y0101146D02*
X0330295Y0101146D01*
X0330295Y0100147D02*
X0344820Y0100147D01*
X0343821Y0099149D02*
X0330474Y0099149D01*
X0331228Y0098150D02*
X0342823Y0098150D01*
X0341824Y0097152D02*
X0331641Y0097152D01*
X0331676Y0096153D02*
X0340826Y0096153D01*
X0339827Y0095155D02*
X0331556Y0095155D01*
X0331143Y0094156D02*
X0338829Y0094156D01*
X0337830Y0093158D02*
X0330268Y0093158D01*
X0350183Y0080177D02*
X0359050Y0080177D01*
X0357165Y0081176D02*
X0351182Y0081176D01*
X0349185Y0079178D02*
X0366393Y0079178D01*
X0366393Y0078180D02*
X0348186Y0078180D01*
X0347188Y0077181D02*
X0366406Y0077181D01*
X0366820Y0076183D02*
X0346189Y0076183D01*
X0345191Y0075184D02*
X0367270Y0075184D01*
X0368269Y0074186D02*
X0344192Y0074186D01*
X0343194Y0073187D02*
X0369240Y0073187D01*
X0367932Y0072189D02*
X0342195Y0072189D01*
X0341197Y0071190D02*
X0367094Y0071190D01*
X0366680Y0070192D02*
X0340198Y0070192D01*
X0339199Y0069193D02*
X0366393Y0069193D01*
X0366393Y0068195D02*
X0338201Y0068195D01*
X0337202Y0067196D02*
X0366465Y0067196D01*
X0366879Y0066198D02*
X0336204Y0066198D01*
X0335205Y0065199D02*
X0367413Y0065199D01*
X0368411Y0064201D02*
X0334207Y0064201D01*
X0333208Y0063202D02*
X0370398Y0063202D01*
X0379580Y0063202D02*
X0414595Y0063202D01*
X0414595Y0062204D02*
X0332210Y0062204D01*
X0331211Y0061205D02*
X0414595Y0061205D01*
X0414595Y0060207D02*
X0330213Y0060207D01*
X0329214Y0059208D02*
X0414595Y0059208D01*
X0414595Y0058210D02*
X0328216Y0058210D01*
X0327217Y0057211D02*
X0414595Y0057211D01*
X0414595Y0056213D02*
X0326219Y0056213D01*
X0325220Y0055214D02*
X0414595Y0055214D01*
X0414595Y0054216D02*
X0324222Y0054216D01*
X0323223Y0053217D02*
X0414595Y0053217D01*
X0414595Y0052219D02*
X0322225Y0052219D01*
X0321226Y0051220D02*
X0414595Y0051220D01*
X0414595Y0050222D02*
X0407557Y0050222D01*
X0410531Y0049223D02*
X0414595Y0049223D01*
X0414595Y0048225D02*
X0412261Y0048225D01*
X0413323Y0047226D02*
X0414595Y0047226D01*
X0414595Y0046228D02*
X0414321Y0046228D01*
X0403633Y0050222D02*
X0320228Y0050222D01*
X0319229Y0049223D02*
X0400659Y0049223D01*
X0398929Y0048225D02*
X0318231Y0048225D01*
X0317232Y0047226D02*
X0397868Y0047226D01*
X0396869Y0046228D02*
X0316234Y0046228D01*
X0315235Y0045229D02*
X0396227Y0045229D01*
X0395650Y0044231D02*
X0314237Y0044231D01*
X0313238Y0043232D02*
X0395169Y0043232D01*
X0394901Y0042234D02*
X0312240Y0042234D01*
X0311393Y0041387D02*
X0311393Y0041387D01*
X0311241Y0041235D02*
X0394634Y0041235D01*
X0394495Y0040237D02*
X0309929Y0040237D01*
X0381566Y0064201D02*
X0414595Y0064201D01*
X0414595Y0065199D02*
X0382565Y0065199D01*
X0383099Y0066198D02*
X0414595Y0066198D01*
X0414595Y0067196D02*
X0383513Y0067196D01*
X0383585Y0068195D02*
X0414595Y0068195D01*
X0414595Y0069193D02*
X0383585Y0069193D01*
X0383298Y0070192D02*
X0414595Y0070192D01*
X0414595Y0071190D02*
X0382884Y0071190D01*
X0382046Y0072189D02*
X0414595Y0072189D01*
X0414595Y0073187D02*
X0380738Y0073187D01*
X0381709Y0074186D02*
X0414595Y0074186D01*
X0414595Y0075184D02*
X0383803Y0075184D01*
X0385189Y0076183D02*
X0414595Y0076183D01*
X0414595Y0077181D02*
X0386188Y0077181D01*
X0387186Y0078180D02*
X0414595Y0078180D01*
X0414595Y0079178D02*
X0388185Y0079178D01*
X0389183Y0080177D02*
X0414595Y0080177D01*
X0414595Y0081176D02*
X0389720Y0081176D01*
X0389895Y0082174D02*
X0414595Y0082174D01*
X0414595Y0083173D02*
X0389895Y0083173D01*
X0389895Y0084171D02*
X0414595Y0084171D01*
X0414595Y0085170D02*
X0389895Y0085170D01*
X0389895Y0086168D02*
X0414595Y0086168D01*
X0414595Y0087167D02*
X0389895Y0087167D01*
X0389895Y0088165D02*
X0414595Y0088165D01*
X0414595Y0089164D02*
X0389895Y0089164D01*
X0389895Y0090162D02*
X0414595Y0090162D01*
X0414595Y0091161D02*
X0389895Y0091161D01*
X0389895Y0092159D02*
X0414595Y0092159D01*
X0414595Y0093158D02*
X0389895Y0093158D01*
X0389895Y0094156D02*
X0414595Y0094156D01*
X0414595Y0095155D02*
X0389895Y0095155D01*
X0389895Y0096153D02*
X0414595Y0096153D01*
X0414595Y0097152D02*
X0389895Y0097152D01*
X0389895Y0098150D02*
X0414595Y0098150D01*
X0414595Y0099149D02*
X0389895Y0099149D01*
X0389895Y0100147D02*
X0414595Y0100147D01*
X0414595Y0101146D02*
X0389895Y0101146D01*
X0389895Y0102144D02*
X0414595Y0102144D01*
X0414595Y0103143D02*
X0389895Y0103143D01*
X0389895Y0104141D02*
X0414595Y0104141D01*
X0414595Y0105140D02*
X0389895Y0105140D01*
X0389895Y0106138D02*
X0414595Y0106138D01*
X0414595Y0107137D02*
X0389895Y0107137D01*
X0389895Y0108135D02*
X0414595Y0108135D01*
X0414595Y0109134D02*
X0389895Y0109134D01*
X0389895Y0110132D02*
X0414595Y0110132D01*
X0414595Y0111131D02*
X0389895Y0111131D01*
X0389895Y0112129D02*
X0414595Y0112129D01*
X0414595Y0113128D02*
X0389895Y0113128D01*
X0389931Y0114126D02*
X0414595Y0114126D01*
X0414595Y0115125D02*
X0389818Y0115125D01*
X0389393Y0116123D02*
X0414595Y0116123D01*
X0414595Y0117122D02*
X0388299Y0117122D01*
X0387041Y0118120D02*
X0414595Y0118120D01*
X0414595Y0119119D02*
X0385787Y0119119D01*
X0384534Y0120117D02*
X0414595Y0120117D01*
X0414595Y0121116D02*
X0383281Y0121116D01*
X0381863Y0122114D02*
X0414595Y0122114D01*
X0414595Y0123113D02*
X0380296Y0123113D01*
X0381622Y0113999D02*
X0383295Y0112666D01*
X0383295Y0110098D01*
X0382771Y0111364D01*
X0381266Y0112868D01*
X0380331Y0113256D01*
X0381266Y0113643D01*
X0381622Y0113999D01*
X0380640Y0113128D02*
X0382715Y0113128D01*
X0383295Y0112129D02*
X0382005Y0112129D01*
X0382867Y0111131D02*
X0383295Y0111131D01*
X0383281Y0110132D02*
X0383295Y0110132D01*
X0383295Y0106138D02*
X0383116Y0106138D01*
X0383295Y0105140D02*
X0382605Y0105140D01*
X0383295Y0104141D02*
X0381607Y0104141D01*
X0383295Y0103143D02*
X0379678Y0103143D01*
X0383295Y0089164D02*
X0364450Y0089164D01*
X0365287Y0088165D02*
X0383295Y0088165D01*
X0383295Y0087167D02*
X0365701Y0087167D01*
X0365995Y0086168D02*
X0383295Y0086168D01*
X0383295Y0085170D02*
X0365995Y0085170D01*
X0365938Y0084171D02*
X0383295Y0084171D01*
X0382845Y0083173D02*
X0380393Y0083173D01*
X0369584Y0083173D02*
X0365525Y0083173D01*
X0365024Y0082174D02*
X0368074Y0082174D01*
X0367153Y0081176D02*
X0364026Y0081176D01*
X0362140Y0080177D02*
X0366739Y0080177D01*
X0414595Y0128106D02*
X0306595Y0128106D01*
X0306595Y0129104D02*
X0414595Y0129104D01*
X0414595Y0130103D02*
X0306595Y0130103D01*
X0306595Y0131101D02*
X0414595Y0131101D01*
X0414595Y0132100D02*
X0306595Y0132100D01*
X0306595Y0133098D02*
X0414595Y0133098D01*
X0414595Y0134097D02*
X0306595Y0134097D01*
X0306677Y0135095D02*
X0414595Y0135095D01*
X0414595Y0158061D02*
X0383537Y0158061D01*
X0383300Y0159059D02*
X0414595Y0159059D01*
X0414595Y0160058D02*
X0382852Y0160058D01*
X0382078Y0161056D02*
X0414595Y0161056D01*
X0414595Y0162055D02*
X0380753Y0162055D01*
X0381676Y0163053D02*
X0414595Y0163053D01*
X0414595Y0164052D02*
X0382675Y0164052D01*
X0383145Y0165050D02*
X0414595Y0165050D01*
X0414595Y0166049D02*
X0383558Y0166049D01*
X0383585Y0167047D02*
X0414595Y0167047D01*
X0414595Y0168046D02*
X0383585Y0168046D01*
X0383252Y0169045D02*
X0414595Y0169045D01*
X0414595Y0170043D02*
X0382838Y0170043D01*
X0381936Y0171042D02*
X0414595Y0171042D01*
X0414595Y0172040D02*
X0380472Y0172040D01*
X0399396Y0187018D02*
X0355195Y0187018D01*
X0355195Y0188016D02*
X0398137Y0188016D01*
X0397139Y0189015D02*
X0349902Y0189015D01*
X0349902Y0189563D02*
X0355195Y0189563D01*
X0355195Y0193032D01*
X0355052Y0193566D01*
X0354776Y0194045D01*
X0354385Y0194436D01*
X0353906Y0194713D01*
X0353372Y0194856D01*
X0349902Y0194856D01*
X0349902Y0189563D01*
X0349902Y0190013D02*
X0349288Y0190013D01*
X0349288Y0189015D02*
X0345195Y0189015D01*
X0349288Y0188016D02*
X0349902Y0188016D01*
X0349902Y0187018D02*
X0349288Y0187018D01*
X0349288Y0186019D02*
X0349902Y0186019D01*
X0349902Y0185021D02*
X0349288Y0185021D01*
X0349288Y0184022D02*
X0349902Y0184022D01*
X0354292Y0184022D02*
X0414595Y0184022D01*
X0414595Y0183024D02*
X0342895Y0183024D01*
X0342895Y0184022D02*
X0344898Y0184022D01*
X0344118Y0185021D02*
X0343280Y0185021D01*
X0342895Y0182025D02*
X0414595Y0182025D01*
X0414595Y0181027D02*
X0342658Y0181027D01*
X0336295Y0183623D02*
X0334798Y0182125D01*
X0334295Y0180912D01*
X0334295Y0179599D01*
X0334295Y0179066D01*
X0333614Y0179066D01*
X0333302Y0178755D01*
X0332991Y0179066D01*
X0332162Y0179066D01*
X0332162Y0184258D01*
X0332767Y0184508D01*
X0334343Y0186084D01*
X0334595Y0186693D01*
X0334848Y0186084D01*
X0336295Y0184636D01*
X0336295Y0183623D01*
X0336295Y0184022D02*
X0332162Y0184022D01*
X0332162Y0183024D02*
X0335696Y0183024D01*
X0334756Y0182025D02*
X0332162Y0182025D01*
X0332162Y0181027D02*
X0334343Y0181027D01*
X0334295Y0180028D02*
X0332162Y0180028D01*
X0333027Y0179030D02*
X0333577Y0179030D01*
X0333280Y0185021D02*
X0335911Y0185021D01*
X0334912Y0186019D02*
X0334278Y0186019D01*
X0334595Y0191818D02*
X0334343Y0192428D01*
X0333215Y0193556D01*
X0335477Y0193556D01*
X0335726Y0193307D01*
X0334848Y0192428D01*
X0334595Y0191818D01*
X0334516Y0192010D02*
X0334675Y0192010D01*
X0335428Y0193009D02*
X0333762Y0193009D01*
X0339595Y0193256D02*
X0339595Y0189256D01*
X0343762Y0193009D02*
X0343995Y0193009D01*
X0344393Y0194007D02*
X0342758Y0194007D01*
X0341664Y0195006D02*
X0394495Y0195006D01*
X0394495Y0196004D02*
X0340665Y0196004D01*
X0339667Y0197003D02*
X0394495Y0197003D01*
X0394571Y0198001D02*
X0338668Y0198001D01*
X0349288Y0194007D02*
X0349902Y0194007D01*
X0349902Y0193009D02*
X0349288Y0193009D01*
X0349288Y0192010D02*
X0349902Y0192010D01*
X0349902Y0191012D02*
X0349288Y0191012D01*
X0355195Y0191012D02*
X0395806Y0191012D01*
X0395241Y0192010D02*
X0355195Y0192010D01*
X0355195Y0193009D02*
X0394974Y0193009D01*
X0394706Y0194007D02*
X0354798Y0194007D01*
X0355195Y0190013D02*
X0396382Y0190013D01*
X0401126Y0186019D02*
X0355195Y0186019D01*
X0355072Y0185021D02*
X0414595Y0185021D01*
X0414595Y0186019D02*
X0410065Y0186019D01*
X0411794Y0187018D02*
X0414595Y0187018D01*
X0414595Y0188016D02*
X0413053Y0188016D01*
X0414052Y0189015D02*
X0414595Y0189015D01*
X0394839Y0199000D02*
X0047351Y0199000D01*
X0047084Y0199998D02*
X0395106Y0199998D01*
X0395515Y0200997D02*
X0046675Y0200997D01*
X0046099Y0201995D02*
X0396092Y0201995D01*
X0396668Y0202994D02*
X0045522Y0202994D01*
X0044556Y0203992D02*
X0397634Y0203992D01*
X0398632Y0204991D02*
X0043558Y0204991D01*
X0047484Y0194007D02*
X0244433Y0194007D01*
X0243428Y0193009D02*
X0047217Y0193009D01*
X0046949Y0192010D02*
X0242675Y0192010D01*
X0242261Y0191012D02*
X0046385Y0191012D01*
X0045808Y0190013D02*
X0241995Y0190013D01*
X0241995Y0189015D02*
X0045052Y0189015D01*
X0044053Y0188016D02*
X0242047Y0188016D01*
X0242461Y0187018D02*
X0042794Y0187018D01*
X0041065Y0186019D02*
X0093090Y0186019D01*
X0092092Y0185021D02*
X0027595Y0185021D01*
X0027595Y0186019D02*
X0032126Y0186019D01*
X0030396Y0187018D02*
X0027595Y0187018D01*
X0027595Y0188016D02*
X0029137Y0188016D01*
X0028139Y0189015D02*
X0027595Y0189015D01*
X0027595Y0184022D02*
X0091093Y0184022D01*
X0090095Y0183024D02*
X0027595Y0183024D01*
X0027595Y0182025D02*
X0089096Y0182025D01*
X0088098Y0181027D02*
X0027595Y0181027D01*
X0090928Y0172040D02*
X0115661Y0172040D01*
X0116075Y0171042D02*
X0091926Y0171042D01*
X0092925Y0170043D02*
X0116995Y0170043D01*
X0116995Y0169045D02*
X0093923Y0169045D01*
X0094922Y0168046D02*
X0116995Y0168046D01*
X0116995Y0167047D02*
X0095920Y0167047D01*
X0096919Y0166049D02*
X0107773Y0166049D01*
X0107271Y0165050D02*
X0097917Y0165050D01*
X0098762Y0164052D02*
X0107271Y0164052D01*
X0107271Y0163053D02*
X0099155Y0163053D01*
X0099155Y0162055D02*
X0107271Y0162055D01*
X0107271Y0161056D02*
X0099155Y0161056D01*
X0099155Y0160058D02*
X0107271Y0160058D01*
X0107271Y0159059D02*
X0099155Y0159059D01*
X0099155Y0158061D02*
X0107271Y0158061D01*
X0107271Y0157062D02*
X0099155Y0157062D01*
X0099155Y0156064D02*
X0107271Y0156064D01*
X0107271Y0155065D02*
X0099155Y0155065D01*
X0099155Y0154067D02*
X0107271Y0154067D01*
X0107271Y0153068D02*
X0099155Y0153068D01*
X0099155Y0152070D02*
X0107271Y0152070D01*
X0107271Y0151071D02*
X0099155Y0151071D01*
X0100000Y0150073D02*
X0107271Y0150073D01*
X0107271Y0149074D02*
X0100648Y0149074D01*
X0104594Y0148076D02*
X0107271Y0148076D01*
X0107271Y0147077D02*
X0105592Y0147077D01*
X0101949Y0143083D02*
X0100648Y0143083D01*
X0100648Y0143556D02*
X0101477Y0143556D01*
X0102847Y0142185D01*
X0101518Y0140856D01*
X0100648Y0140856D01*
X0100648Y0141945D01*
X0100337Y0142256D01*
X0100648Y0142567D01*
X0100648Y0143556D01*
X0100508Y0142085D02*
X0102747Y0142085D01*
X0101748Y0141086D02*
X0100648Y0141086D01*
X0105108Y0137092D02*
X0107271Y0137092D01*
X0107271Y0136094D02*
X0104110Y0136094D01*
X0106107Y0138091D02*
X0107271Y0138091D01*
X0107271Y0135095D02*
X0100648Y0135095D01*
X0099658Y0134097D02*
X0107271Y0134097D01*
X0117376Y0142085D02*
X0135814Y0142085D01*
X0135814Y0143083D02*
X0117376Y0143083D01*
X0117376Y0144082D02*
X0135814Y0144082D01*
X0135814Y0145080D02*
X0117376Y0145080D01*
X0119738Y0146079D02*
X0135814Y0146079D01*
X0135814Y0147077D02*
X0121093Y0147077D01*
X0122092Y0148076D02*
X0135814Y0148076D01*
X0135814Y0148535D02*
X0136716Y0148535D01*
X0136716Y0148535D01*
X0136716Y0148535D01*
X0135814Y0148535D01*
X0135814Y0149074D02*
X0123090Y0149074D01*
X0124089Y0150073D02*
X0135814Y0150073D01*
X0135814Y0151071D02*
X0125087Y0151071D01*
X0126086Y0152070D02*
X0135814Y0152070D01*
X0130875Y0148535D02*
X0123595Y0141256D01*
X0130875Y0148535D02*
X0140867Y0148535D01*
X0145920Y0148076D02*
X0151098Y0148076D01*
X0151995Y0147077D02*
X0145920Y0147077D01*
X0145920Y0146079D02*
X0151995Y0146079D01*
X0151995Y0145080D02*
X0145920Y0145080D01*
X0145920Y0144082D02*
X0151995Y0144082D01*
X0151995Y0143083D02*
X0145920Y0143083D01*
X0145920Y0142085D02*
X0151995Y0142085D01*
X0151995Y0141086D02*
X0145920Y0141086D01*
X0145920Y0140088D02*
X0151995Y0140088D01*
X0151995Y0139089D02*
X0145920Y0139089D01*
X0145920Y0138091D02*
X0151995Y0138091D01*
X0151995Y0137092D02*
X0145920Y0137092D01*
X0145920Y0136094D02*
X0151995Y0136094D01*
X0151995Y0135095D02*
X0145920Y0135095D01*
X0145920Y0134097D02*
X0151995Y0134097D01*
X0151995Y0133098D02*
X0145920Y0133098D01*
X0145920Y0132100D02*
X0151995Y0132100D01*
X0151995Y0131101D02*
X0145920Y0131101D01*
X0145920Y0130103D02*
X0151995Y0130103D01*
X0151995Y0129104D02*
X0145920Y0129104D01*
X0145060Y0128106D02*
X0151995Y0128106D01*
X0150100Y0149074D02*
X0145920Y0149074D01*
X0145920Y0150073D02*
X0149101Y0150073D01*
X0147921Y0156254D02*
X0145920Y0156254D01*
X0145920Y0158255D01*
X0147921Y0156254D01*
X0147112Y0157062D02*
X0145920Y0157062D01*
X0145920Y0158061D02*
X0146113Y0158061D01*
X0135814Y0159059D02*
X0135610Y0159059D01*
X0135814Y0160058D02*
X0134611Y0160058D01*
X0133613Y0161056D02*
X0135814Y0161056D01*
X0135814Y0162055D02*
X0133295Y0162055D01*
X0133295Y0163053D02*
X0135814Y0163053D01*
X0135814Y0164052D02*
X0133295Y0164052D01*
X0133295Y0165050D02*
X0135814Y0165050D01*
X0136316Y0166049D02*
X0133295Y0166049D01*
X0116995Y0166049D02*
X0116874Y0166049D01*
X0119595Y0153256D02*
X0117434Y0151094D01*
X0112323Y0151094D01*
X0250296Y0174037D02*
X0255561Y0174037D01*
X0253896Y0175036D02*
X0251294Y0175036D01*
X0252293Y0176034D02*
X0252897Y0176034D01*
X0252675Y0192010D02*
X0252516Y0192010D01*
X0251762Y0193009D02*
X0253428Y0193009D01*
X0254433Y0194007D02*
X0250758Y0194007D01*
X0297563Y0179030D02*
X0297627Y0179030D01*
X0301335Y0176996D02*
X0301335Y0174256D01*
X0305994Y0174037D02*
X0307196Y0174037D01*
X0307196Y0173039D02*
X0305994Y0173039D01*
X0305994Y0172040D02*
X0307196Y0172040D01*
X0307196Y0171042D02*
X0305994Y0171042D01*
X0305604Y0170043D02*
X0307586Y0170043D01*
X0307196Y0175036D02*
X0305994Y0175036D01*
X0305994Y0176034D02*
X0307196Y0176034D01*
X0307196Y0177033D02*
X0305994Y0177033D01*
X0306047Y0178031D02*
X0307196Y0178031D01*
X0307046Y0179030D02*
X0308147Y0179030D01*
X0308044Y0180028D02*
X0309155Y0180028D01*
X0309155Y0181027D02*
X0309043Y0181027D01*
X0314555Y0179397D02*
X0316125Y0180967D01*
X0316735Y0181578D01*
X0316735Y0179309D01*
X0315906Y0179309D01*
X0315595Y0178997D01*
X0315284Y0179309D01*
X0314555Y0179309D01*
X0314555Y0179397D01*
X0315186Y0180028D02*
X0316735Y0180028D01*
X0316735Y0181027D02*
X0316184Y0181027D01*
X0315627Y0179030D02*
X0315563Y0179030D01*
X0350563Y0179030D02*
X0350627Y0179030D01*
D28*
X0123595Y0141256D02*
X0123595Y0133256D01*
X0118552Y0138299D01*
X0112323Y0138299D01*
X0118875Y0145976D02*
X0123595Y0141256D01*
X0118875Y0145976D02*
X0112323Y0145976D01*
X0095855Y0146256D02*
X0095595Y0145996D01*
X0095595Y0138516D02*
X0095855Y0138256D01*
X0123595Y0133256D02*
X0123595Y0111256D01*
X0118595Y0106256D01*
X0113855Y0106256D01*
X0113595Y0106516D01*
X0113493Y0100413D01*
X0097595Y0100413D01*
X0097595Y0100256D02*
X0085595Y0100256D01*
X0072595Y0087256D01*
X0053595Y0087256D01*
X0053784Y0071256D01*
X0058406Y0111457D02*
X0074246Y0111457D01*
X0085595Y0122806D01*
X0094888Y0122806D02*
X0097595Y0120098D01*
D29*
X0058406Y0124055D02*
X0049394Y0124055D01*
X0045595Y0120256D01*
X0045595Y0095256D01*
X0053595Y0087256D01*
X0172595Y0065256D02*
X0270595Y0065256D01*
X0303595Y0098256D01*
D30*
X0212595Y0074256D03*
X0205595Y0079256D03*
X0197595Y0084256D03*
X0204595Y0089256D03*
X0191595Y0094256D03*
X0172595Y0065256D03*
X0162595Y0065256D03*
X0119595Y0173256D03*
X0124595Y0178256D03*
X0084595Y0173706D03*
D31*
X0095145Y0184256D01*
X0125595Y0184256D01*
X0130595Y0179256D01*
X0130595Y0160256D01*
X0134638Y0156213D01*
X0140867Y0156213D01*
X0112323Y0143417D02*
X0105434Y0143417D01*
X0102595Y0146256D01*
X0095855Y0146256D01*
X0311855Y0174256D02*
X0311855Y0180516D01*
X0314595Y0183256D01*
X0314595Y0193256D01*
X0317595Y0196256D01*
X0336595Y0196256D01*
X0339595Y0193256D01*
X0337595Y0174256D02*
X0346855Y0174256D01*
X0354335Y0174256D02*
X0354335Y0153035D01*
X0343595Y0142295D01*
X0338635Y0147256D01*
X0327595Y0147256D01*
X0343595Y0122217D02*
X0338635Y0117256D01*
X0327595Y0117256D01*
X0327595Y0096256D01*
D32*
X0303595Y0098256D02*
X0303595Y0136256D01*
X0337042Y0169703D01*
X0337042Y0174013D01*
D33*
X0327595Y0096256D03*
X0303595Y0098256D03*
X0128595Y0095256D03*
X0128595Y0084256D03*
D34*
X0036595Y0039256D03*
X0036595Y0196256D03*
X0405595Y0196256D03*
X0405595Y0039256D03*
M02*
