G75*
%MOIN*%
%OFA0B0*%
%FSLAX25Y25*%
%IPPOS*%
%LPD*%
%AMOC8*
5,1,8,0,0,1.08239X$1,22.5*
%
%ADD10R,0.05118X0.05906*%
%ADD11OC8,0.07000*%
%ADD12C,0.07000*%
%ADD13R,0.05906X0.05118*%
%ADD14R,0.02600X0.08000*%
%ADD15C,0.06496*%
%ADD16OC8,0.10000*%
%ADD17R,0.07000X0.07000*%
%ADD18R,0.04724X0.09449*%
%ADD19R,0.05906X0.01969*%
%ADD20R,0.01969X0.05906*%
%ADD21R,0.07874X0.02362*%
%ADD22R,0.09449X0.09449*%
%ADD23R,0.05906X0.05906*%
%ADD24R,0.09843X0.13780*%
%ADD25R,0.07087X0.09449*%
%ADD26R,0.24409X0.21260*%
%ADD27R,0.06299X0.03937*%
%ADD28R,0.03600X0.04800*%
%ADD29R,0.02000X0.03200*%
%ADD30C,0.06600*%
%ADD31C,0.10000*%
%ADD32C,0.01200*%
%ADD33C,0.02400*%
%ADD34C,0.01400*%
%ADD35C,0.01000*%
%ADD36C,0.01600*%
%ADD37C,0.04000*%
%ADD38C,0.03962*%
%ADD39C,0.18000*%
D10*
X0163855Y0053256D03*
X0171335Y0053256D03*
X0106335Y0103256D03*
X0098855Y0103256D03*
X0098855Y0135256D03*
X0106335Y0135256D03*
X0100335Y0181256D03*
X0092855Y0181256D03*
X0092855Y0193256D03*
X0100335Y0193256D03*
D11*
X0247595Y0179256D03*
X0299595Y0189256D03*
X0309595Y0189256D03*
D12*
X0319595Y0189256D03*
X0329595Y0189256D03*
X0339595Y0189256D03*
X0267595Y0189256D03*
X0257595Y0189256D03*
X0247595Y0189256D03*
X0257595Y0179256D03*
X0267595Y0179256D03*
D13*
X0281595Y0167996D03*
X0281595Y0160516D03*
X0142181Y0127168D03*
X0142181Y0119687D03*
X0043595Y0166516D03*
X0043595Y0173996D03*
D14*
X0250095Y0141356D03*
X0255095Y0141356D03*
X0260095Y0141356D03*
X0265095Y0141356D03*
X0270095Y0141356D03*
X0275095Y0141356D03*
X0280095Y0141356D03*
X0285095Y0141356D03*
X0285095Y0117156D03*
X0280095Y0117156D03*
X0275095Y0117156D03*
X0270095Y0117156D03*
X0265095Y0117156D03*
X0260095Y0117156D03*
X0255095Y0117156D03*
X0250095Y0117156D03*
D15*
X0371741Y0118177D02*
X0378237Y0118177D01*
X0378237Y0108335D02*
X0371741Y0108335D01*
X0371741Y0078277D02*
X0378237Y0078277D01*
X0378237Y0068435D02*
X0371741Y0068435D01*
X0371741Y0157335D02*
X0378237Y0157335D01*
X0378237Y0167177D02*
X0371741Y0167177D01*
D16*
X0327595Y0147256D03*
X0327595Y0117256D03*
D17*
X0349595Y0189256D03*
D18*
X0346595Y0083431D03*
X0328595Y0083431D03*
X0312595Y0083431D03*
X0294595Y0083431D03*
X0278595Y0083431D03*
X0260595Y0083431D03*
X0244595Y0083431D03*
X0226595Y0083431D03*
X0226595Y0051080D03*
X0244595Y0051080D03*
X0260595Y0051080D03*
X0278595Y0051080D03*
X0294595Y0051080D03*
X0312595Y0051080D03*
X0328595Y0051080D03*
X0346595Y0051080D03*
X0149107Y0041145D03*
X0138083Y0041145D03*
X0138083Y0065367D03*
X0149107Y0065367D03*
D19*
X0157156Y0109525D03*
X0157156Y0112675D03*
X0157156Y0115824D03*
X0157156Y0118974D03*
X0157156Y0122124D03*
X0157156Y0125273D03*
X0157156Y0128423D03*
X0157156Y0131572D03*
X0190620Y0131572D03*
X0190620Y0128423D03*
X0190620Y0125273D03*
X0190620Y0122124D03*
X0190620Y0118974D03*
X0190620Y0115824D03*
X0190620Y0112675D03*
X0190620Y0109525D03*
D20*
X0184912Y0103817D03*
X0181762Y0103817D03*
X0178612Y0103817D03*
X0175463Y0103817D03*
X0172313Y0103817D03*
X0169164Y0103817D03*
X0166014Y0103817D03*
X0162864Y0103817D03*
X0162864Y0137281D03*
X0166014Y0137281D03*
X0169164Y0137281D03*
X0172313Y0137281D03*
X0175463Y0137281D03*
X0178612Y0137281D03*
X0181762Y0137281D03*
X0184912Y0137281D03*
D21*
X0206474Y0134687D03*
X0206474Y0129963D03*
X0206474Y0125239D03*
D22*
X0112438Y0117256D03*
X0092753Y0117256D03*
X0092753Y0147256D03*
X0112438Y0147256D03*
D23*
X0075485Y0169256D03*
X0061705Y0169256D03*
X0061705Y0181256D03*
X0075485Y0181256D03*
X0075485Y0193256D03*
X0061705Y0193256D03*
X0281595Y0191146D03*
X0281595Y0177366D03*
D24*
X0109595Y0063051D03*
X0109595Y0037461D03*
D25*
X0101623Y0084256D03*
X0117568Y0084256D03*
D26*
X0050753Y0111256D03*
X0050753Y0143256D03*
D27*
X0079493Y0152232D03*
X0079493Y0134280D03*
X0079493Y0120232D03*
X0079493Y0102280D03*
D28*
X0092595Y0160806D03*
X0092595Y0173706D03*
D29*
X0224871Y0104556D03*
X0228020Y0104556D03*
X0231170Y0104556D03*
X0234320Y0104556D03*
X0234320Y0097956D03*
X0231170Y0097956D03*
X0228020Y0097956D03*
X0224871Y0097956D03*
X0257871Y0097956D03*
X0261020Y0097956D03*
X0264170Y0097956D03*
X0267320Y0097956D03*
X0267320Y0104556D03*
X0264170Y0104556D03*
X0261020Y0104556D03*
X0257871Y0104556D03*
D30*
X0360595Y0101130D03*
X0360595Y0093256D03*
X0360595Y0085382D03*
D31*
X0077406Y0076256D02*
X0077406Y0066256D01*
X0070595Y0052358D02*
X0060595Y0052358D01*
X0053784Y0066256D02*
X0053784Y0076256D01*
D32*
X0219595Y0100256D02*
X0221595Y0098256D01*
X0224571Y0098256D01*
X0224871Y0097956D02*
X0228020Y0097956D01*
X0231170Y0097956D01*
X0219595Y0100256D02*
X0219595Y0116256D01*
X0244695Y0141356D01*
X0250095Y0141356D01*
X0255095Y0141356D01*
X0260095Y0141356D01*
X0265095Y0141356D01*
X0270095Y0141356D01*
X0275095Y0117156D02*
X0275095Y0111756D01*
X0278595Y0108256D01*
X0307595Y0108256D01*
X0319595Y0096256D01*
X0327595Y0096256D01*
X0281595Y0167996D02*
X0281595Y0177366D01*
D33*
X0269485Y0191146D02*
X0267595Y0189256D01*
X0269485Y0191146D02*
X0281595Y0191146D01*
X0247595Y0189256D02*
X0247595Y0198256D01*
X0244595Y0198256D01*
X0236595Y0190256D01*
X0236595Y0173256D01*
X0223595Y0160256D01*
X0141595Y0160256D01*
X0142181Y0159670D01*
X0142181Y0127168D01*
X0142181Y0119687D02*
X0134164Y0119687D01*
X0118595Y0135256D01*
X0106335Y0135256D01*
X0112438Y0135358D01*
X0112438Y0147256D01*
X0112595Y0149256D01*
X0112595Y0148256D01*
X0112595Y0149256D02*
X0112595Y0157256D01*
X0102595Y0167256D01*
X0087595Y0167256D01*
X0080595Y0160256D01*
X0050753Y0160256D01*
X0043753Y0160358D01*
X0043595Y0166516D01*
X0043595Y0173996D02*
X0056965Y0173996D01*
X0061705Y0169256D01*
X0061705Y0183035D02*
X0075485Y0169256D01*
X0079935Y0173706D01*
X0084595Y0173706D01*
X0092595Y0173706D01*
X0107145Y0173706D01*
X0120595Y0160256D01*
X0141595Y0160256D01*
X0092595Y0160806D02*
X0092753Y0147256D01*
X0085776Y0147232D01*
X0079493Y0152232D01*
X0092753Y0147256D02*
X0092753Y0135358D01*
X0098855Y0135256D01*
X0080493Y0127256D02*
X0118595Y0127256D01*
X0128595Y0117256D01*
X0128595Y0095256D01*
X0117568Y0085283D02*
X0108595Y0094256D01*
X0102595Y0094256D01*
X0098855Y0097996D01*
X0098855Y0103256D01*
X0097879Y0102280D01*
X0079493Y0102280D01*
X0082595Y0109256D02*
X0112595Y0109256D01*
X0112635Y0103316D01*
X0106335Y0103256D01*
X0112595Y0109256D02*
X0112595Y0117256D01*
X0112438Y0117256D01*
X0114869Y0119687D01*
X0092753Y0117256D02*
X0082469Y0117256D01*
X0079493Y0120232D01*
X0079493Y0126256D01*
X0080493Y0127256D01*
X0079493Y0126256D02*
X0079493Y0134280D01*
X0050753Y0143256D02*
X0050753Y0160256D01*
X0050753Y0143256D02*
X0050753Y0111256D01*
X0052174Y0109835D01*
X0053595Y0111256D01*
X0080595Y0111256D01*
X0082595Y0109256D01*
X0053784Y0108224D02*
X0053784Y0071445D01*
X0053784Y0071256D01*
X0053784Y0071067D01*
X0053784Y0052358D01*
X0065595Y0052358D01*
X0065595Y0041256D01*
X0069595Y0037256D01*
X0109390Y0037256D01*
X0109595Y0037461D01*
X0125390Y0037461D01*
X0129595Y0033256D01*
X0137595Y0033256D01*
X0137399Y0033452D01*
X0137399Y0040461D01*
X0137595Y0033256D02*
X0177595Y0033256D01*
X0187595Y0043256D01*
X0226595Y0043256D01*
X0278595Y0043256D01*
X0278595Y0051080D01*
X0278595Y0043256D02*
X0312595Y0043256D01*
X0312595Y0051080D01*
X0312595Y0051256D01*
X0312595Y0043256D02*
X0346595Y0043256D01*
X0346595Y0051080D01*
X0346595Y0051256D01*
X0346595Y0043256D02*
X0375595Y0043256D01*
X0392595Y0060256D01*
X0392595Y0147256D01*
X0381595Y0157256D01*
X0375068Y0157256D01*
X0374989Y0157335D01*
X0374989Y0167177D02*
X0374989Y0177862D01*
X0354595Y0198256D01*
X0339595Y0198256D01*
X0339595Y0189256D01*
X0339595Y0198256D02*
X0247595Y0198256D01*
X0284595Y0128256D02*
X0378595Y0128256D01*
X0386595Y0120256D01*
X0386595Y0073256D01*
X0381595Y0068256D01*
X0375168Y0068256D01*
X0374989Y0068435D01*
X0374910Y0108256D02*
X0322595Y0108256D01*
X0313695Y0117156D01*
X0285095Y0117156D01*
X0280095Y0117156D02*
X0280095Y0123756D01*
X0284595Y0128256D01*
X0374910Y0108256D02*
X0374989Y0108335D01*
X0226595Y0051080D02*
X0226595Y0043256D01*
X0128595Y0084256D02*
X0117568Y0084256D01*
X0117568Y0085283D01*
X0117595Y0084283D02*
X0117568Y0084256D01*
X0109595Y0076283D01*
X0109595Y0063051D01*
X0090406Y0084256D02*
X0077406Y0071256D01*
X0090406Y0084256D02*
X0101623Y0084256D01*
X0053784Y0108224D02*
X0052174Y0109835D01*
X0061705Y0181256D02*
X0061705Y0193256D01*
X0061705Y0183035D02*
X0061705Y0181256D01*
D34*
X0142181Y0127168D02*
X0143436Y0128423D01*
X0157156Y0128423D01*
X0172428Y0128423D01*
X0175595Y0125256D01*
X0190771Y0125256D01*
X0195595Y0125256D01*
X0197595Y0123256D01*
X0197595Y0121256D01*
X0195313Y0118974D01*
X0190620Y0118974D01*
X0190620Y0115824D02*
X0186027Y0115824D01*
X0183595Y0118256D01*
X0183595Y0122256D01*
X0190656Y0122256D01*
X0183595Y0122256D02*
X0175595Y0122256D01*
X0172313Y0118974D01*
X0157156Y0118974D01*
X0157095Y0119056D02*
X0142812Y0119056D01*
X0142181Y0119687D01*
D35*
X0043411Y0030374D02*
X0043207Y0030256D01*
X0102584Y0030256D01*
X0102574Y0030294D01*
X0102574Y0036961D01*
X0109095Y0036961D01*
X0109095Y0037961D01*
X0109095Y0046450D01*
X0104397Y0046450D01*
X0103863Y0046307D01*
X0103384Y0046031D01*
X0102993Y0045640D01*
X0102717Y0045161D01*
X0102574Y0044627D01*
X0102574Y0037961D01*
X0109095Y0037961D01*
X0110095Y0037961D01*
X0110095Y0046450D01*
X0114793Y0046450D01*
X0115327Y0046307D01*
X0115806Y0046031D01*
X0116197Y0045640D01*
X0116473Y0045161D01*
X0116616Y0044627D01*
X0116616Y0037961D01*
X0110095Y0037961D01*
X0110095Y0036961D01*
X0116616Y0036961D01*
X0116616Y0030294D01*
X0116606Y0030256D01*
X0398984Y0030256D01*
X0398780Y0030374D01*
X0396713Y0032440D01*
X0395252Y0034971D01*
X0394495Y0037795D01*
X0394495Y0040717D01*
X0395252Y0043540D01*
X0396713Y0046071D01*
X0398780Y0048138D01*
X0401311Y0049599D01*
X0404134Y0050356D01*
X0407056Y0050356D01*
X0409880Y0049599D01*
X0412411Y0048138D01*
X0414477Y0046071D01*
X0414595Y0045867D01*
X0414595Y0189644D01*
X0414477Y0189440D01*
X0412411Y0187374D01*
X0409880Y0185912D01*
X0407056Y0185156D01*
X0404134Y0185156D01*
X0401311Y0185912D01*
X0398780Y0187374D01*
X0396713Y0189440D01*
X0395252Y0191971D01*
X0394495Y0194795D01*
X0394495Y0197717D01*
X0395252Y0200540D01*
X0396713Y0203071D01*
X0398780Y0205138D01*
X0398984Y0205256D01*
X0043207Y0205256D01*
X0043411Y0205138D01*
X0045477Y0203071D01*
X0046939Y0200540D01*
X0047695Y0197717D01*
X0047695Y0194795D01*
X0046939Y0191971D01*
X0045477Y0189440D01*
X0043411Y0187374D01*
X0040880Y0185912D01*
X0038056Y0185156D01*
X0035134Y0185156D01*
X0032311Y0185912D01*
X0029780Y0187374D01*
X0027713Y0189440D01*
X0027595Y0189644D01*
X0027595Y0045867D01*
X0027713Y0046071D01*
X0029780Y0048138D01*
X0032311Y0049599D01*
X0035134Y0050356D01*
X0038056Y0050356D01*
X0040880Y0049599D01*
X0043411Y0048138D01*
X0045477Y0046071D01*
X0046939Y0043540D01*
X0047695Y0040717D01*
X0047695Y0037795D01*
X0046939Y0034971D01*
X0045477Y0032440D01*
X0043411Y0030374D01*
X0044287Y0031250D02*
X0102574Y0031250D01*
X0102574Y0032248D02*
X0045285Y0032248D01*
X0045943Y0033247D02*
X0102574Y0033247D01*
X0102574Y0034245D02*
X0046520Y0034245D01*
X0047012Y0035244D02*
X0102574Y0035244D01*
X0102574Y0036243D02*
X0047279Y0036243D01*
X0047547Y0037241D02*
X0109095Y0037241D01*
X0109095Y0038240D02*
X0110095Y0038240D01*
X0110095Y0039238D02*
X0109095Y0039238D01*
X0109095Y0040237D02*
X0110095Y0040237D01*
X0110095Y0041235D02*
X0109095Y0041235D01*
X0109095Y0042234D02*
X0110095Y0042234D01*
X0110095Y0043232D02*
X0109095Y0043232D01*
X0109095Y0044231D02*
X0110095Y0044231D01*
X0110095Y0045229D02*
X0109095Y0045229D01*
X0109095Y0046228D02*
X0110095Y0046228D01*
X0115465Y0046228D02*
X0133643Y0046228D01*
X0133621Y0046146D02*
X0133621Y0041645D01*
X0137583Y0041645D01*
X0137583Y0040645D01*
X0133621Y0040645D01*
X0133621Y0036144D01*
X0133764Y0035610D01*
X0134041Y0035131D01*
X0134432Y0034740D01*
X0134911Y0034464D01*
X0135445Y0034320D01*
X0137583Y0034320D01*
X0137583Y0040645D01*
X0138583Y0040645D01*
X0138583Y0034320D01*
X0140722Y0034320D01*
X0141256Y0034464D01*
X0141735Y0034740D01*
X0142126Y0035131D01*
X0142402Y0035610D01*
X0142546Y0036144D01*
X0142546Y0040645D01*
X0138583Y0040645D01*
X0138583Y0041645D01*
X0137583Y0041645D01*
X0137583Y0047969D01*
X0135445Y0047969D01*
X0134911Y0047826D01*
X0134432Y0047550D01*
X0134041Y0047159D01*
X0133764Y0046680D01*
X0133621Y0046146D01*
X0133621Y0045229D02*
X0116434Y0045229D01*
X0116616Y0044231D02*
X0133621Y0044231D01*
X0133621Y0043232D02*
X0116616Y0043232D01*
X0116616Y0042234D02*
X0133621Y0042234D01*
X0133621Y0040237D02*
X0116616Y0040237D01*
X0116616Y0041235D02*
X0137583Y0041235D01*
X0138083Y0041145D02*
X0137399Y0040461D01*
X0137583Y0040237D02*
X0138583Y0040237D01*
X0138583Y0041235D02*
X0144645Y0041235D01*
X0144645Y0040237D02*
X0142546Y0040237D01*
X0142546Y0039238D02*
X0144645Y0039238D01*
X0144645Y0038240D02*
X0142546Y0038240D01*
X0142546Y0037241D02*
X0144645Y0037241D01*
X0144645Y0036243D02*
X0142546Y0036243D01*
X0142191Y0035244D02*
X0144951Y0035244D01*
X0144645Y0035551D02*
X0145875Y0034320D01*
X0152339Y0034320D01*
X0153569Y0035551D01*
X0153569Y0046739D01*
X0152339Y0047969D01*
X0145875Y0047969D01*
X0144645Y0046739D01*
X0144645Y0035551D01*
X0138583Y0035244D02*
X0137583Y0035244D01*
X0137583Y0036243D02*
X0138583Y0036243D01*
X0138583Y0037241D02*
X0137583Y0037241D01*
X0137583Y0038240D02*
X0138583Y0038240D01*
X0138583Y0039238D02*
X0137583Y0039238D01*
X0138583Y0041645D02*
X0142546Y0041645D01*
X0142546Y0046146D01*
X0142402Y0046680D01*
X0142126Y0047159D01*
X0141735Y0047550D01*
X0141256Y0047826D01*
X0140722Y0047969D01*
X0138583Y0047969D01*
X0138583Y0041645D01*
X0138583Y0042234D02*
X0137583Y0042234D01*
X0137583Y0043232D02*
X0138583Y0043232D01*
X0138583Y0044231D02*
X0137583Y0044231D01*
X0137583Y0045229D02*
X0138583Y0045229D01*
X0138583Y0046228D02*
X0137583Y0046228D01*
X0137583Y0047226D02*
X0138583Y0047226D01*
X0142059Y0047226D02*
X0145132Y0047226D01*
X0144645Y0046228D02*
X0142524Y0046228D01*
X0142546Y0045229D02*
X0144645Y0045229D01*
X0144645Y0044231D02*
X0142546Y0044231D01*
X0142546Y0043232D02*
X0144645Y0043232D01*
X0144645Y0042234D02*
X0142546Y0042234D01*
X0133621Y0039238D02*
X0116616Y0039238D01*
X0116616Y0038240D02*
X0133621Y0038240D01*
X0133621Y0037241D02*
X0110095Y0037241D01*
X0116616Y0036243D02*
X0133621Y0036243D01*
X0133975Y0035244D02*
X0116616Y0035244D01*
X0116616Y0034245D02*
X0395671Y0034245D01*
X0395179Y0035244D02*
X0153263Y0035244D01*
X0153569Y0036243D02*
X0394911Y0036243D01*
X0394643Y0037241D02*
X0153569Y0037241D01*
X0153569Y0038240D02*
X0394495Y0038240D01*
X0394495Y0039238D02*
X0153569Y0039238D01*
X0153569Y0040237D02*
X0394495Y0040237D01*
X0394634Y0041235D02*
X0153569Y0041235D01*
X0153569Y0042234D02*
X0394901Y0042234D01*
X0395169Y0043232D02*
X0153569Y0043232D01*
X0153569Y0044231D02*
X0395650Y0044231D01*
X0396227Y0045229D02*
X0350732Y0045229D01*
X0350638Y0045066D02*
X0350914Y0045545D01*
X0351057Y0046079D01*
X0351057Y0050580D01*
X0347095Y0050580D01*
X0347095Y0044256D01*
X0349234Y0044256D01*
X0349768Y0044399D01*
X0350247Y0044675D01*
X0350638Y0045066D01*
X0351057Y0046228D02*
X0396869Y0046228D01*
X0397868Y0047226D02*
X0351057Y0047226D01*
X0351057Y0048225D02*
X0398929Y0048225D01*
X0400659Y0049223D02*
X0351057Y0049223D01*
X0351057Y0050222D02*
X0403633Y0050222D01*
X0407557Y0050222D02*
X0414595Y0050222D01*
X0414595Y0051220D02*
X0347095Y0051220D01*
X0347095Y0051580D02*
X0347095Y0050580D01*
X0346095Y0050580D01*
X0346095Y0044256D01*
X0343956Y0044256D01*
X0343422Y0044399D01*
X0342944Y0044675D01*
X0342553Y0045066D01*
X0342276Y0045545D01*
X0342133Y0046079D01*
X0342133Y0050580D01*
X0346095Y0050580D01*
X0346095Y0051580D01*
X0342133Y0051580D01*
X0342133Y0056081D01*
X0342276Y0056615D01*
X0342553Y0057094D01*
X0342944Y0057485D01*
X0343422Y0057762D01*
X0343956Y0057905D01*
X0346095Y0057905D01*
X0346095Y0051580D01*
X0347095Y0051580D01*
X0351057Y0051580D01*
X0351057Y0056081D01*
X0350914Y0056615D01*
X0350638Y0057094D01*
X0350247Y0057485D01*
X0349768Y0057762D01*
X0349234Y0057905D01*
X0347095Y0057905D01*
X0347095Y0051580D01*
X0347095Y0052219D02*
X0346095Y0052219D01*
X0346095Y0053217D02*
X0347095Y0053217D01*
X0347095Y0054216D02*
X0346095Y0054216D01*
X0346095Y0055214D02*
X0347095Y0055214D01*
X0347095Y0056213D02*
X0346095Y0056213D01*
X0346095Y0057211D02*
X0347095Y0057211D01*
X0350521Y0057211D02*
X0414595Y0057211D01*
X0414595Y0056213D02*
X0351022Y0056213D01*
X0351057Y0055214D02*
X0414595Y0055214D01*
X0414595Y0054216D02*
X0351057Y0054216D01*
X0351057Y0053217D02*
X0414595Y0053217D01*
X0414595Y0052219D02*
X0351057Y0052219D01*
X0347095Y0050222D02*
X0346095Y0050222D01*
X0346095Y0051220D02*
X0333057Y0051220D01*
X0333057Y0050222D02*
X0342133Y0050222D01*
X0342133Y0049223D02*
X0333057Y0049223D01*
X0333057Y0048225D02*
X0342133Y0048225D01*
X0342133Y0047226D02*
X0333057Y0047226D01*
X0333057Y0046228D02*
X0342133Y0046228D01*
X0342459Y0045229D02*
X0332800Y0045229D01*
X0333057Y0045486D02*
X0333057Y0056675D01*
X0331827Y0057905D01*
X0325363Y0057905D01*
X0324133Y0056675D01*
X0324133Y0045486D01*
X0325363Y0044256D01*
X0331827Y0044256D01*
X0333057Y0045486D01*
X0324390Y0045229D02*
X0316732Y0045229D01*
X0316638Y0045066D02*
X0316914Y0045545D01*
X0317057Y0046079D01*
X0317057Y0050580D01*
X0313095Y0050580D01*
X0313095Y0044256D01*
X0315234Y0044256D01*
X0315768Y0044399D01*
X0316247Y0044675D01*
X0316638Y0045066D01*
X0317057Y0046228D02*
X0324133Y0046228D01*
X0324133Y0047226D02*
X0317057Y0047226D01*
X0317057Y0048225D02*
X0324133Y0048225D01*
X0324133Y0049223D02*
X0317057Y0049223D01*
X0317057Y0050222D02*
X0324133Y0050222D01*
X0324133Y0051220D02*
X0313095Y0051220D01*
X0313095Y0051580D02*
X0313095Y0050580D01*
X0312095Y0050580D01*
X0312095Y0044256D01*
X0309956Y0044256D01*
X0309422Y0044399D01*
X0308944Y0044675D01*
X0308553Y0045066D01*
X0308276Y0045545D01*
X0308133Y0046079D01*
X0308133Y0050580D01*
X0312095Y0050580D01*
X0312095Y0051580D01*
X0308133Y0051580D01*
X0308133Y0056081D01*
X0308276Y0056615D01*
X0308553Y0057094D01*
X0308944Y0057485D01*
X0309422Y0057762D01*
X0309956Y0057905D01*
X0312095Y0057905D01*
X0312095Y0051580D01*
X0313095Y0051580D01*
X0317057Y0051580D01*
X0317057Y0056081D01*
X0316914Y0056615D01*
X0316638Y0057094D01*
X0316247Y0057485D01*
X0315768Y0057762D01*
X0315234Y0057905D01*
X0313095Y0057905D01*
X0313095Y0051580D01*
X0313095Y0052219D02*
X0312095Y0052219D01*
X0312095Y0053217D02*
X0313095Y0053217D01*
X0313095Y0054216D02*
X0312095Y0054216D01*
X0312095Y0055214D02*
X0313095Y0055214D01*
X0313095Y0056213D02*
X0312095Y0056213D01*
X0312095Y0057211D02*
X0313095Y0057211D01*
X0316521Y0057211D02*
X0324670Y0057211D01*
X0324133Y0056213D02*
X0317022Y0056213D01*
X0317057Y0055214D02*
X0324133Y0055214D01*
X0324133Y0054216D02*
X0317057Y0054216D01*
X0317057Y0053217D02*
X0324133Y0053217D01*
X0324133Y0052219D02*
X0317057Y0052219D01*
X0313095Y0050222D02*
X0312095Y0050222D01*
X0312095Y0051220D02*
X0299057Y0051220D01*
X0299057Y0050222D02*
X0308133Y0050222D01*
X0308133Y0049223D02*
X0299057Y0049223D01*
X0299057Y0048225D02*
X0308133Y0048225D01*
X0308133Y0047226D02*
X0299057Y0047226D01*
X0299057Y0046228D02*
X0308133Y0046228D01*
X0308459Y0045229D02*
X0298800Y0045229D01*
X0299057Y0045486D02*
X0299057Y0056675D01*
X0297827Y0057905D01*
X0297195Y0057905D01*
X0297195Y0059773D01*
X0296799Y0060729D01*
X0296068Y0061460D01*
X0296068Y0061460D01*
X0290872Y0066656D01*
X0322112Y0066656D01*
X0323068Y0067052D01*
X0330068Y0074052D01*
X0330799Y0074783D01*
X0331195Y0075739D01*
X0331195Y0076607D01*
X0331827Y0076607D01*
X0333057Y0077837D01*
X0333057Y0089026D01*
X0331827Y0090256D01*
X0325363Y0090256D01*
X0324133Y0089026D01*
X0324133Y0077837D01*
X0325316Y0076654D01*
X0320518Y0071856D01*
X0304195Y0071856D01*
X0304195Y0088773D01*
X0303799Y0089729D01*
X0303068Y0090460D01*
X0303068Y0090460D01*
X0293368Y0100160D01*
X0292412Y0100556D01*
X0270289Y0100556D01*
X0269589Y0101256D01*
X0270289Y0101956D01*
X0296218Y0101956D01*
X0299514Y0098660D01*
X0299514Y0097444D01*
X0300135Y0095944D01*
X0301283Y0094796D01*
X0302783Y0094175D01*
X0304407Y0094175D01*
X0305907Y0094796D01*
X0307055Y0095944D01*
X0307676Y0097444D01*
X0307676Y0099068D01*
X0307055Y0100568D01*
X0305907Y0101716D01*
X0304407Y0102337D01*
X0303191Y0102337D01*
X0299972Y0105556D01*
X0306477Y0105556D01*
X0317306Y0094726D01*
X0318066Y0093967D01*
X0319058Y0093556D01*
X0324524Y0093556D01*
X0325283Y0092796D01*
X0326783Y0092175D01*
X0328407Y0092175D01*
X0329907Y0092796D01*
X0331055Y0093944D01*
X0331676Y0095444D01*
X0331676Y0097068D01*
X0331055Y0098568D01*
X0329907Y0099716D01*
X0328407Y0100337D01*
X0326783Y0100337D01*
X0325283Y0099716D01*
X0324524Y0098956D01*
X0320714Y0098956D01*
X0309125Y0110545D01*
X0308132Y0110956D01*
X0279714Y0110956D01*
X0279613Y0111056D01*
X0282265Y0111056D01*
X0282595Y0111386D01*
X0282925Y0111056D01*
X0287265Y0111056D01*
X0288495Y0112286D01*
X0288495Y0113856D01*
X0312328Y0113856D01*
X0319798Y0106387D01*
X0320726Y0105458D01*
X0321939Y0104956D01*
X0356784Y0104956D01*
X0356017Y0104189D01*
X0355195Y0102204D01*
X0355195Y0100056D01*
X0356017Y0098071D01*
X0356895Y0097193D01*
X0356017Y0096315D01*
X0355195Y0094330D01*
X0355195Y0092182D01*
X0356017Y0090197D01*
X0356895Y0089319D01*
X0356017Y0088441D01*
X0355195Y0086456D01*
X0355195Y0084308D01*
X0356017Y0082323D01*
X0357536Y0080804D01*
X0359521Y0079982D01*
X0361669Y0079982D01*
X0363654Y0080804D01*
X0365173Y0082323D01*
X0365995Y0084308D01*
X0365995Y0086456D01*
X0365173Y0088441D01*
X0364295Y0089319D01*
X0365173Y0090197D01*
X0365995Y0092182D01*
X0365995Y0094330D01*
X0365173Y0096315D01*
X0364295Y0097193D01*
X0365173Y0098071D01*
X0365995Y0100056D01*
X0365995Y0102204D01*
X0365173Y0104189D01*
X0364406Y0104956D01*
X0367556Y0104956D01*
X0368711Y0103801D01*
X0370677Y0102987D01*
X0379301Y0102987D01*
X0381266Y0103801D01*
X0382771Y0105305D01*
X0383295Y0106571D01*
X0383295Y0080040D01*
X0382771Y0081307D01*
X0381266Y0082811D01*
X0379301Y0083625D01*
X0370677Y0083625D01*
X0368711Y0082811D01*
X0367207Y0081307D01*
X0366393Y0079341D01*
X0366393Y0077213D01*
X0367207Y0075248D01*
X0368711Y0073743D01*
X0369647Y0073356D01*
X0368711Y0072968D01*
X0367207Y0071464D01*
X0366393Y0069498D01*
X0366393Y0067371D01*
X0367207Y0065405D01*
X0368711Y0063901D01*
X0370677Y0063087D01*
X0379301Y0063087D01*
X0381266Y0063901D01*
X0382371Y0065005D01*
X0383464Y0065458D01*
X0384393Y0066387D01*
X0389393Y0071387D01*
X0389895Y0072599D01*
X0389895Y0120912D01*
X0389393Y0122125D01*
X0388464Y0123053D01*
X0380464Y0131053D01*
X0379252Y0131556D01*
X0285572Y0131556D01*
X0287299Y0133283D01*
X0287695Y0134239D01*
X0287695Y0135686D01*
X0288495Y0136486D01*
X0288495Y0146226D01*
X0287695Y0147026D01*
X0287695Y0148273D01*
X0287299Y0149229D01*
X0280671Y0155857D01*
X0285418Y0155857D01*
X0286648Y0157087D01*
X0286648Y0163945D01*
X0286337Y0164256D01*
X0286648Y0164567D01*
X0286648Y0171425D01*
X0285589Y0172484D01*
X0286648Y0173544D01*
X0286648Y0181189D01*
X0285418Y0182419D01*
X0277773Y0182419D01*
X0276542Y0181189D01*
X0276542Y0173544D01*
X0277602Y0172484D01*
X0276542Y0171425D01*
X0276542Y0164567D01*
X0276854Y0164256D01*
X0276542Y0163945D01*
X0276542Y0163116D01*
X0245132Y0163116D01*
X0247672Y0165656D01*
X0258112Y0165656D01*
X0259068Y0166052D01*
X0259799Y0166783D01*
X0264799Y0171783D01*
X0265195Y0172739D01*
X0265195Y0174189D01*
X0266481Y0173656D01*
X0268709Y0173656D01*
X0270767Y0174508D01*
X0272343Y0176084D01*
X0273195Y0178142D01*
X0273195Y0180370D01*
X0272343Y0182428D01*
X0270767Y0184003D01*
X0270135Y0184265D01*
X0270530Y0184466D01*
X0271243Y0184984D01*
X0271867Y0185608D01*
X0272385Y0186321D01*
X0272785Y0187106D01*
X0273057Y0187945D01*
X0273195Y0188815D01*
X0273195Y0188949D01*
X0267902Y0188949D01*
X0267902Y0189563D01*
X0267288Y0189563D01*
X0267288Y0194856D01*
X0267154Y0194856D01*
X0266284Y0194718D01*
X0265445Y0194446D01*
X0264660Y0194045D01*
X0263947Y0193527D01*
X0263324Y0192904D01*
X0262806Y0192191D01*
X0262604Y0191796D01*
X0262343Y0192428D01*
X0260767Y0194003D01*
X0258709Y0194856D01*
X0256481Y0194856D01*
X0254423Y0194003D01*
X0252848Y0192428D01*
X0252595Y0191818D01*
X0252343Y0192428D01*
X0250895Y0193875D01*
X0250895Y0194956D01*
X0276713Y0194956D01*
X0276685Y0194909D01*
X0276542Y0194375D01*
X0276542Y0191646D01*
X0281095Y0191646D01*
X0281095Y0190646D01*
X0276542Y0190646D01*
X0276542Y0187916D01*
X0276685Y0187382D01*
X0276962Y0186903D01*
X0277353Y0186512D01*
X0277832Y0186236D01*
X0278366Y0186093D01*
X0281095Y0186093D01*
X0281095Y0190646D01*
X0282095Y0190646D01*
X0282095Y0191646D01*
X0286648Y0191646D01*
X0286648Y0194375D01*
X0286505Y0194909D01*
X0286478Y0194956D01*
X0336295Y0194956D01*
X0336295Y0193875D01*
X0334848Y0192428D01*
X0334595Y0191818D01*
X0334343Y0192428D01*
X0332767Y0194003D01*
X0330709Y0194856D01*
X0328481Y0194856D01*
X0326423Y0194003D01*
X0324848Y0192428D01*
X0324595Y0191818D01*
X0324343Y0192428D01*
X0322767Y0194003D01*
X0320709Y0194856D01*
X0318481Y0194856D01*
X0316423Y0194003D01*
X0314848Y0192428D01*
X0314700Y0192071D01*
X0311915Y0194856D01*
X0307276Y0194856D01*
X0304595Y0192175D01*
X0301915Y0194856D01*
X0297276Y0194856D01*
X0293995Y0191575D01*
X0293995Y0186936D01*
X0297276Y0183656D01*
X0301915Y0183656D01*
X0304595Y0186336D01*
X0307276Y0183656D01*
X0311915Y0183656D01*
X0314700Y0186441D01*
X0314848Y0186084D01*
X0316423Y0184508D01*
X0318481Y0183656D01*
X0320709Y0183656D01*
X0322767Y0184508D01*
X0324343Y0186084D01*
X0324595Y0186693D01*
X0324848Y0186084D01*
X0326423Y0184508D01*
X0328481Y0183656D01*
X0330709Y0183656D01*
X0332767Y0184508D01*
X0334343Y0186084D01*
X0334595Y0186693D01*
X0334848Y0186084D01*
X0336423Y0184508D01*
X0338481Y0183656D01*
X0340709Y0183656D01*
X0342767Y0184508D01*
X0343995Y0185736D01*
X0343995Y0185479D01*
X0344138Y0184945D01*
X0344415Y0184466D01*
X0344806Y0184075D01*
X0345285Y0183799D01*
X0345819Y0183656D01*
X0349288Y0183656D01*
X0349288Y0188949D01*
X0349902Y0188949D01*
X0349902Y0183656D01*
X0353372Y0183656D01*
X0353906Y0183799D01*
X0354385Y0184075D01*
X0354776Y0184466D01*
X0355052Y0184945D01*
X0355195Y0185479D01*
X0355195Y0188949D01*
X0349902Y0188949D01*
X0349902Y0189563D01*
X0349288Y0189563D01*
X0349288Y0194856D01*
X0345819Y0194856D01*
X0345285Y0194713D01*
X0344806Y0194436D01*
X0344415Y0194045D01*
X0344138Y0193566D01*
X0343995Y0193032D01*
X0343995Y0192775D01*
X0342895Y0193875D01*
X0342895Y0194956D01*
X0353228Y0194956D01*
X0353328Y0194856D01*
X0349902Y0194856D01*
X0349902Y0189563D01*
X0355195Y0189563D01*
X0355195Y0192989D01*
X0371689Y0176495D01*
X0371689Y0172525D01*
X0370677Y0172525D01*
X0368711Y0171711D01*
X0367207Y0170207D01*
X0366393Y0168241D01*
X0366393Y0166113D01*
X0367207Y0164148D01*
X0368711Y0162643D01*
X0369632Y0162262D01*
X0368938Y0161909D01*
X0368257Y0161414D01*
X0367662Y0160819D01*
X0367167Y0160138D01*
X0366785Y0159388D01*
X0366524Y0158587D01*
X0366405Y0157835D01*
X0374489Y0157835D01*
X0374489Y0156835D01*
X0366405Y0156835D01*
X0366524Y0156082D01*
X0366785Y0155282D01*
X0367167Y0154532D01*
X0367662Y0153851D01*
X0368257Y0153255D01*
X0368938Y0152761D01*
X0369688Y0152378D01*
X0370488Y0152118D01*
X0371320Y0151987D01*
X0374489Y0151987D01*
X0374489Y0156835D01*
X0375489Y0156835D01*
X0375489Y0157835D01*
X0383572Y0157835D01*
X0383453Y0158587D01*
X0383193Y0159388D01*
X0382811Y0160138D01*
X0382316Y0160819D01*
X0381721Y0161414D01*
X0381040Y0161909D01*
X0380346Y0162262D01*
X0381266Y0162643D01*
X0382771Y0164148D01*
X0383585Y0166113D01*
X0383585Y0168241D01*
X0382771Y0170207D01*
X0381266Y0171711D01*
X0379301Y0172525D01*
X0378289Y0172525D01*
X0378289Y0178519D01*
X0377786Y0179731D01*
X0376858Y0180660D01*
X0356464Y0201053D01*
X0355252Y0201556D01*
X0243939Y0201556D01*
X0242726Y0201053D01*
X0234726Y0193053D01*
X0233798Y0192125D01*
X0233295Y0190912D01*
X0233295Y0174623D01*
X0222228Y0163556D01*
X0121962Y0163556D01*
X0109014Y0176503D01*
X0107802Y0177006D01*
X0104567Y0177006D01*
X0104994Y0177433D01*
X0104994Y0178656D01*
X0110518Y0178656D01*
X0115495Y0173679D01*
X0115495Y0172440D01*
X0116119Y0170933D01*
X0117273Y0169780D01*
X0118780Y0169156D01*
X0120411Y0169156D01*
X0121918Y0169780D01*
X0123071Y0170933D01*
X0123695Y0172440D01*
X0123695Y0174071D01*
X0123635Y0174216D01*
X0123780Y0174156D01*
X0125411Y0174156D01*
X0126918Y0174780D01*
X0128071Y0175933D01*
X0128695Y0177440D01*
X0128695Y0179071D01*
X0128071Y0180578D01*
X0126918Y0181732D01*
X0125411Y0182356D01*
X0124172Y0182356D01*
X0111799Y0194729D01*
X0111068Y0195460D01*
X0110112Y0195856D01*
X0104994Y0195856D01*
X0104994Y0197079D01*
X0103764Y0198309D01*
X0096906Y0198309D01*
X0096595Y0197997D01*
X0096284Y0198309D01*
X0089426Y0198309D01*
X0088196Y0197079D01*
X0088196Y0195856D01*
X0080538Y0195856D01*
X0080538Y0197079D01*
X0079308Y0198309D01*
X0071662Y0198309D01*
X0070432Y0197079D01*
X0070432Y0189433D01*
X0071662Y0188203D01*
X0079308Y0188203D01*
X0080538Y0189433D01*
X0080538Y0190656D01*
X0088196Y0190656D01*
X0088196Y0189433D01*
X0089426Y0188203D01*
X0096284Y0188203D01*
X0096595Y0188514D01*
X0096906Y0188203D01*
X0103764Y0188203D01*
X0104994Y0189433D01*
X0104994Y0190656D01*
X0108518Y0190656D01*
X0120495Y0178679D01*
X0120495Y0177440D01*
X0120555Y0177296D01*
X0120411Y0177356D01*
X0119172Y0177356D01*
X0113799Y0182729D01*
X0113068Y0183460D01*
X0112112Y0183856D01*
X0104994Y0183856D01*
X0104994Y0185079D01*
X0103764Y0186309D01*
X0096906Y0186309D01*
X0096595Y0185997D01*
X0096284Y0186309D01*
X0089426Y0186309D01*
X0088196Y0185079D01*
X0088196Y0183856D01*
X0080538Y0183856D01*
X0080538Y0185079D01*
X0079308Y0186309D01*
X0071662Y0186309D01*
X0070432Y0185079D01*
X0070432Y0178976D01*
X0066758Y0182650D01*
X0066758Y0185079D01*
X0065528Y0186309D01*
X0065005Y0186309D01*
X0065005Y0188203D01*
X0065528Y0188203D01*
X0066758Y0189433D01*
X0066758Y0197079D01*
X0065528Y0198309D01*
X0057883Y0198309D01*
X0056653Y0197079D01*
X0056653Y0189433D01*
X0057883Y0188203D01*
X0058405Y0188203D01*
X0058405Y0186309D01*
X0057883Y0186309D01*
X0056653Y0185079D01*
X0056653Y0177433D01*
X0056790Y0177296D01*
X0048648Y0177296D01*
X0048648Y0177425D01*
X0047418Y0178655D01*
X0039773Y0178655D01*
X0038542Y0177425D01*
X0038542Y0170567D01*
X0038883Y0170227D01*
X0038685Y0169885D01*
X0038542Y0169351D01*
X0038542Y0167016D01*
X0043095Y0167016D01*
X0043095Y0166016D01*
X0038542Y0166016D01*
X0038542Y0163680D01*
X0038685Y0163146D01*
X0038962Y0162667D01*
X0039353Y0162276D01*
X0039832Y0162000D01*
X0040366Y0161857D01*
X0043095Y0161857D01*
X0043095Y0166016D01*
X0044095Y0166016D01*
X0044095Y0167016D01*
X0048648Y0167016D01*
X0048648Y0169351D01*
X0048505Y0169885D01*
X0048308Y0170227D01*
X0048648Y0170567D01*
X0048648Y0170696D01*
X0055598Y0170696D01*
X0056653Y0169642D01*
X0056653Y0165433D01*
X0057883Y0164203D01*
X0065528Y0164203D01*
X0066758Y0165433D01*
X0066758Y0173079D01*
X0065528Y0174309D01*
X0061320Y0174309D01*
X0059425Y0176203D01*
X0063871Y0176203D01*
X0070432Y0169642D01*
X0070432Y0165433D01*
X0071662Y0164203D01*
X0079308Y0164203D01*
X0080538Y0165433D01*
X0080538Y0169642D01*
X0081302Y0170406D01*
X0082097Y0170406D01*
X0082273Y0170230D01*
X0083780Y0169606D01*
X0085411Y0169606D01*
X0086918Y0170230D01*
X0087093Y0170406D01*
X0088725Y0170406D01*
X0089925Y0169206D01*
X0095265Y0169206D01*
X0096465Y0170406D01*
X0105778Y0170406D01*
X0118726Y0157458D01*
X0119939Y0156956D01*
X0138881Y0156956D01*
X0138881Y0131827D01*
X0138358Y0131827D01*
X0137128Y0130597D01*
X0137128Y0123739D01*
X0137468Y0123398D01*
X0137271Y0123057D01*
X0137128Y0122523D01*
X0137128Y0120187D01*
X0141681Y0120187D01*
X0141681Y0119187D01*
X0142681Y0119187D01*
X0142681Y0115028D01*
X0145410Y0115028D01*
X0145944Y0115171D01*
X0146423Y0115448D01*
X0146814Y0115839D01*
X0147091Y0116318D01*
X0147234Y0116852D01*
X0147234Y0119187D01*
X0142681Y0119187D01*
X0142681Y0120187D01*
X0147234Y0120187D01*
X0147234Y0122523D01*
X0147091Y0123057D01*
X0146893Y0123398D01*
X0147234Y0123739D01*
X0147234Y0125623D01*
X0152103Y0125623D01*
X0152103Y0120269D01*
X0152110Y0120262D01*
X0152103Y0120235D01*
X0152103Y0118974D01*
X0157156Y0118974D01*
X0162208Y0118974D01*
X0162208Y0120235D01*
X0162201Y0120262D01*
X0162208Y0120269D01*
X0162208Y0125623D01*
X0171268Y0125623D01*
X0173221Y0123670D01*
X0174009Y0122882D01*
X0175038Y0122456D01*
X0185568Y0122456D01*
X0185568Y0122124D01*
X0190620Y0122124D01*
X0190620Y0122189D01*
X0190620Y0122189D01*
X0190620Y0122124D01*
X0190620Y0122124D01*
X0190620Y0122124D01*
X0185568Y0122124D01*
X0185568Y0120863D01*
X0185575Y0120835D01*
X0185568Y0120828D01*
X0185568Y0117120D01*
X0185575Y0117113D01*
X0185568Y0117085D01*
X0185568Y0115824D01*
X0185568Y0114564D01*
X0185575Y0114536D01*
X0185568Y0114529D01*
X0185568Y0108869D01*
X0162208Y0108869D01*
X0162208Y0117678D01*
X0162201Y0117686D01*
X0162208Y0117713D01*
X0162208Y0118974D01*
X0157156Y0118974D01*
X0157156Y0118974D01*
X0157156Y0118974D01*
X0157156Y0119039D01*
X0157156Y0119039D01*
X0157156Y0118974D01*
X0152103Y0118974D01*
X0152103Y0117713D01*
X0152110Y0117686D01*
X0152103Y0117678D01*
X0152103Y0115275D01*
X0151497Y0115275D01*
X0150541Y0114879D01*
X0148122Y0112460D01*
X0147391Y0111729D01*
X0146995Y0110773D01*
X0146995Y0095739D01*
X0147391Y0094783D01*
X0172818Y0069356D01*
X0171780Y0069356D01*
X0170273Y0068732D01*
X0169119Y0067578D01*
X0168495Y0066071D01*
X0168495Y0064440D01*
X0169119Y0062933D01*
X0169995Y0062058D01*
X0169995Y0058309D01*
X0167906Y0058309D01*
X0167595Y0057997D01*
X0167284Y0058309D01*
X0165195Y0058309D01*
X0165195Y0062058D01*
X0166071Y0062933D01*
X0166695Y0064440D01*
X0166695Y0066071D01*
X0166071Y0067578D01*
X0164918Y0068732D01*
X0163411Y0069356D01*
X0161780Y0069356D01*
X0160273Y0068732D01*
X0159508Y0067967D01*
X0153569Y0067967D01*
X0153569Y0070961D01*
X0152339Y0072191D01*
X0145875Y0072191D01*
X0144645Y0070961D01*
X0144645Y0059773D01*
X0145875Y0058543D01*
X0152339Y0058543D01*
X0153569Y0059773D01*
X0153569Y0062767D01*
X0159286Y0062767D01*
X0159995Y0062058D01*
X0159995Y0057878D01*
X0159196Y0057079D01*
X0159196Y0049433D01*
X0160426Y0048203D01*
X0167284Y0048203D01*
X0167595Y0048514D01*
X0167906Y0048203D01*
X0174764Y0048203D01*
X0175994Y0049433D01*
X0175994Y0057079D01*
X0175195Y0057878D01*
X0175195Y0062058D01*
X0176071Y0062933D01*
X0176695Y0064440D01*
X0176695Y0065479D01*
X0183391Y0058783D01*
X0184122Y0058052D01*
X0185078Y0057656D01*
X0223239Y0057656D01*
X0222944Y0057485D01*
X0222553Y0057094D01*
X0222276Y0056615D01*
X0222133Y0056081D01*
X0222133Y0051580D01*
X0226095Y0051580D01*
X0226095Y0050580D01*
X0227095Y0050580D01*
X0227095Y0044256D01*
X0229234Y0044256D01*
X0229768Y0044399D01*
X0230247Y0044675D01*
X0230638Y0045066D01*
X0230914Y0045545D01*
X0231057Y0046079D01*
X0231057Y0050580D01*
X0227095Y0050580D01*
X0227095Y0051580D01*
X0231057Y0051580D01*
X0231057Y0056081D01*
X0230914Y0056615D01*
X0230638Y0057094D01*
X0230247Y0057485D01*
X0229951Y0057656D01*
X0241114Y0057656D01*
X0240133Y0056675D01*
X0240133Y0045486D01*
X0241363Y0044256D01*
X0247827Y0044256D01*
X0249057Y0045486D01*
X0249057Y0056675D01*
X0247827Y0057905D01*
X0247195Y0057905D01*
X0247195Y0058773D01*
X0246799Y0059729D01*
X0246068Y0060460D01*
X0245872Y0060656D01*
X0255518Y0060656D01*
X0257995Y0058179D01*
X0257995Y0057905D01*
X0257363Y0057905D01*
X0256133Y0056675D01*
X0256133Y0045486D01*
X0257363Y0044256D01*
X0263827Y0044256D01*
X0265057Y0045486D01*
X0265057Y0056675D01*
X0263827Y0057905D01*
X0263195Y0057905D01*
X0263195Y0059773D01*
X0262799Y0060729D01*
X0259872Y0063656D01*
X0286518Y0063656D01*
X0291995Y0058179D01*
X0291995Y0057905D01*
X0291363Y0057905D01*
X0290133Y0056675D01*
X0290133Y0045486D01*
X0291363Y0044256D01*
X0297827Y0044256D01*
X0299057Y0045486D01*
X0294595Y0051080D02*
X0294595Y0059256D01*
X0287595Y0066256D01*
X0187595Y0066256D01*
X0162864Y0090987D01*
X0162864Y0103817D01*
X0159780Y0104141D02*
X0159756Y0104141D01*
X0159756Y0103143D02*
X0159780Y0103143D01*
X0159756Y0102144D02*
X0159780Y0102144D01*
X0159756Y0101146D02*
X0159780Y0101146D01*
X0159756Y0100147D02*
X0159780Y0100147D01*
X0159780Y0099994D02*
X0160264Y0099510D01*
X0160264Y0093264D01*
X0159756Y0093772D01*
X0159756Y0106441D01*
X0159780Y0106441D01*
X0159780Y0099994D01*
X0159756Y0099149D02*
X0160264Y0099149D01*
X0160264Y0098150D02*
X0159756Y0098150D01*
X0159756Y0097152D02*
X0160264Y0097152D01*
X0160264Y0096153D02*
X0159756Y0096153D01*
X0159756Y0095155D02*
X0160264Y0095155D01*
X0160264Y0094156D02*
X0159756Y0094156D01*
X0157156Y0092695D02*
X0186595Y0063256D01*
X0256595Y0063256D01*
X0260595Y0059256D01*
X0260595Y0051080D01*
X0256133Y0051220D02*
X0249057Y0051220D01*
X0249057Y0050222D02*
X0256133Y0050222D01*
X0256133Y0049223D02*
X0249057Y0049223D01*
X0249057Y0048225D02*
X0256133Y0048225D01*
X0256133Y0047226D02*
X0249057Y0047226D01*
X0249057Y0046228D02*
X0256133Y0046228D01*
X0256390Y0045229D02*
X0248800Y0045229D01*
X0244595Y0051080D02*
X0244595Y0058256D01*
X0242595Y0060256D01*
X0185595Y0060256D01*
X0149595Y0096256D01*
X0149595Y0110256D01*
X0152014Y0112675D01*
X0157156Y0112675D01*
X0162208Y0113128D02*
X0185568Y0113128D01*
X0185568Y0114126D02*
X0162208Y0114126D01*
X0162208Y0115125D02*
X0185568Y0115125D01*
X0185568Y0115824D02*
X0190620Y0115824D01*
X0190620Y0115824D01*
X0190620Y0115759D01*
X0190620Y0115759D01*
X0190620Y0115824D01*
X0190620Y0115824D01*
X0185568Y0115824D01*
X0185568Y0116123D02*
X0162208Y0116123D01*
X0162208Y0117122D02*
X0185568Y0117122D01*
X0185568Y0118120D02*
X0162208Y0118120D01*
X0162208Y0119119D02*
X0185568Y0119119D01*
X0185568Y0120117D02*
X0162208Y0120117D01*
X0162208Y0121116D02*
X0185568Y0121116D01*
X0185568Y0122114D02*
X0162208Y0122114D01*
X0162208Y0123113D02*
X0173778Y0123113D01*
X0173221Y0123670D02*
X0173221Y0123670D01*
X0172780Y0124112D02*
X0162208Y0124112D01*
X0162208Y0125110D02*
X0171781Y0125110D01*
X0175707Y0129104D02*
X0185568Y0129104D01*
X0185568Y0128106D02*
X0176705Y0128106D01*
X0176755Y0128056D02*
X0174014Y0130797D01*
X0172985Y0131223D01*
X0162208Y0131223D01*
X0162208Y0132228D01*
X0185568Y0132228D01*
X0185568Y0128056D01*
X0176755Y0128056D01*
X0174708Y0130103D02*
X0185568Y0130103D01*
X0185568Y0131101D02*
X0173279Y0131101D01*
X0172313Y0137281D02*
X0172313Y0143974D01*
X0175595Y0147256D01*
X0230595Y0147256D01*
X0243855Y0160516D01*
X0281595Y0160516D01*
X0286648Y0160058D02*
X0367126Y0160058D01*
X0366678Y0159059D02*
X0286648Y0159059D01*
X0286648Y0158061D02*
X0366441Y0158061D01*
X0366530Y0156064D02*
X0285625Y0156064D01*
X0286623Y0157062D02*
X0374489Y0157062D01*
X0374489Y0156064D02*
X0375489Y0156064D01*
X0375489Y0156835D02*
X0375489Y0151987D01*
X0378658Y0151987D01*
X0379489Y0152118D01*
X0380290Y0152378D01*
X0381040Y0152761D01*
X0381721Y0153255D01*
X0382316Y0153851D01*
X0382811Y0154532D01*
X0383193Y0155282D01*
X0383453Y0156082D01*
X0383572Y0156835D01*
X0375489Y0156835D01*
X0375489Y0157062D02*
X0414595Y0157062D01*
X0414595Y0156064D02*
X0383447Y0156064D01*
X0383083Y0155065D02*
X0414595Y0155065D01*
X0414595Y0154067D02*
X0382473Y0154067D01*
X0381463Y0153068D02*
X0414595Y0153068D01*
X0414595Y0152070D02*
X0379183Y0152070D01*
X0375489Y0152070D02*
X0374489Y0152070D01*
X0374489Y0153068D02*
X0375489Y0153068D01*
X0375489Y0154067D02*
X0374489Y0154067D01*
X0374489Y0155065D02*
X0375489Y0155065D01*
X0370795Y0152070D02*
X0332822Y0152070D01*
X0331824Y0153068D02*
X0368514Y0153068D01*
X0367504Y0154067D02*
X0330825Y0154067D01*
X0330536Y0154356D02*
X0324654Y0154356D01*
X0320495Y0150197D01*
X0320495Y0144315D01*
X0324654Y0140156D01*
X0330536Y0140156D01*
X0334695Y0144315D01*
X0334695Y0150197D01*
X0330536Y0154356D01*
X0333821Y0151071D02*
X0414595Y0151071D01*
X0414595Y0150073D02*
X0334695Y0150073D01*
X0334695Y0149074D02*
X0414595Y0149074D01*
X0414595Y0148076D02*
X0334695Y0148076D01*
X0334695Y0147077D02*
X0414595Y0147077D01*
X0414595Y0146079D02*
X0334695Y0146079D01*
X0334695Y0145080D02*
X0414595Y0145080D01*
X0414595Y0144082D02*
X0334462Y0144082D01*
X0333463Y0143083D02*
X0414595Y0143083D01*
X0414595Y0142085D02*
X0332465Y0142085D01*
X0331466Y0141086D02*
X0414595Y0141086D01*
X0414595Y0140088D02*
X0288495Y0140088D01*
X0288495Y0141086D02*
X0323724Y0141086D01*
X0322725Y0142085D02*
X0288495Y0142085D01*
X0288495Y0143083D02*
X0321727Y0143083D01*
X0320728Y0144082D02*
X0288495Y0144082D01*
X0288495Y0145080D02*
X0320495Y0145080D01*
X0320495Y0146079D02*
X0288495Y0146079D01*
X0287695Y0147077D02*
X0320495Y0147077D01*
X0320495Y0148076D02*
X0287695Y0148076D01*
X0287363Y0149074D02*
X0320495Y0149074D01*
X0320495Y0150073D02*
X0286455Y0150073D01*
X0285457Y0151071D02*
X0321370Y0151071D01*
X0322368Y0152070D02*
X0284458Y0152070D01*
X0283460Y0153068D02*
X0323367Y0153068D01*
X0324365Y0154067D02*
X0282461Y0154067D01*
X0281463Y0155065D02*
X0366895Y0155065D01*
X0367899Y0161056D02*
X0286648Y0161056D01*
X0286648Y0162055D02*
X0369225Y0162055D01*
X0368301Y0163053D02*
X0286648Y0163053D01*
X0286541Y0164052D02*
X0367303Y0164052D01*
X0366833Y0165050D02*
X0286648Y0165050D01*
X0286648Y0166049D02*
X0366419Y0166049D01*
X0366393Y0167047D02*
X0286648Y0167047D01*
X0286648Y0168046D02*
X0366393Y0168046D01*
X0366726Y0169045D02*
X0286648Y0169045D01*
X0286648Y0170043D02*
X0367139Y0170043D01*
X0368042Y0171042D02*
X0286648Y0171042D01*
X0286033Y0172040D02*
X0369506Y0172040D01*
X0371689Y0173039D02*
X0286143Y0173039D01*
X0286648Y0174037D02*
X0371689Y0174037D01*
X0371689Y0175036D02*
X0286648Y0175036D01*
X0286648Y0176034D02*
X0371689Y0176034D01*
X0371152Y0177033D02*
X0286648Y0177033D01*
X0286648Y0178031D02*
X0370153Y0178031D01*
X0369155Y0179030D02*
X0286648Y0179030D01*
X0286648Y0180028D02*
X0368156Y0180028D01*
X0367158Y0181027D02*
X0286648Y0181027D01*
X0285811Y0182025D02*
X0366159Y0182025D01*
X0365160Y0183024D02*
X0271747Y0183024D01*
X0272509Y0182025D02*
X0277379Y0182025D01*
X0276542Y0181027D02*
X0272923Y0181027D01*
X0273195Y0180028D02*
X0276542Y0180028D01*
X0276542Y0179030D02*
X0273195Y0179030D01*
X0273149Y0178031D02*
X0276542Y0178031D01*
X0276542Y0177033D02*
X0272736Y0177033D01*
X0272293Y0176034D02*
X0276542Y0176034D01*
X0276542Y0175036D02*
X0271294Y0175036D01*
X0269629Y0174037D02*
X0276542Y0174037D01*
X0277047Y0173039D02*
X0265195Y0173039D01*
X0265195Y0174037D02*
X0265561Y0174037D01*
X0264906Y0172040D02*
X0277157Y0172040D01*
X0276542Y0171042D02*
X0264058Y0171042D01*
X0263059Y0170043D02*
X0276542Y0170043D01*
X0276542Y0169045D02*
X0262061Y0169045D01*
X0261062Y0168046D02*
X0276542Y0168046D01*
X0276542Y0167047D02*
X0260064Y0167047D01*
X0259061Y0166049D02*
X0276542Y0166049D01*
X0276542Y0165050D02*
X0247067Y0165050D01*
X0246068Y0164052D02*
X0276650Y0164052D01*
X0276542Y0157916D02*
X0276542Y0157856D01*
X0244872Y0157856D01*
X0244932Y0157916D01*
X0276542Y0157916D01*
X0277595Y0155256D02*
X0243595Y0155256D01*
X0232595Y0144256D01*
X0183595Y0144256D01*
X0181762Y0142423D01*
X0181762Y0137281D01*
X0184595Y0137598D02*
X0184912Y0137281D01*
X0184595Y0137598D02*
X0184595Y0139256D01*
X0184620Y0139281D01*
X0232620Y0139281D01*
X0245595Y0152256D01*
X0275595Y0152256D01*
X0280095Y0147756D01*
X0280095Y0141356D01*
X0280095Y0134756D01*
X0274595Y0129256D01*
X0242595Y0129256D01*
X0228020Y0114681D01*
X0228020Y0104556D01*
X0224871Y0104556D02*
X0224871Y0116531D01*
X0240595Y0132256D01*
X0272595Y0132256D01*
X0275095Y0134756D01*
X0275095Y0141356D01*
X0275095Y0147756D01*
X0273595Y0149256D01*
X0247595Y0149256D01*
X0207864Y0109525D01*
X0190620Y0109525D01*
X0187996Y0106441D02*
X0194443Y0106441D01*
X0194927Y0106925D01*
X0208382Y0106925D01*
X0209337Y0107321D01*
X0246695Y0144679D01*
X0246695Y0141506D01*
X0249945Y0141506D01*
X0249945Y0141206D01*
X0246695Y0141206D01*
X0246695Y0137079D01*
X0246838Y0136545D01*
X0247115Y0136066D01*
X0247506Y0135675D01*
X0247985Y0135399D01*
X0248519Y0135256D01*
X0249945Y0135256D01*
X0249945Y0141206D01*
X0250245Y0141206D01*
X0250245Y0135256D01*
X0251672Y0135256D01*
X0252206Y0135399D01*
X0252595Y0135624D01*
X0252985Y0135399D01*
X0253519Y0135256D01*
X0254945Y0135256D01*
X0254945Y0141206D01*
X0250245Y0141206D01*
X0250245Y0141506D01*
X0253495Y0141506D01*
X0254945Y0141506D01*
X0254945Y0141206D01*
X0255245Y0141206D01*
X0255245Y0135256D01*
X0256672Y0135256D01*
X0257206Y0135399D01*
X0257595Y0135624D01*
X0257985Y0135399D01*
X0258519Y0135256D01*
X0259945Y0135256D01*
X0259945Y0141206D01*
X0255245Y0141206D01*
X0255245Y0141506D01*
X0258495Y0141506D01*
X0259945Y0141506D01*
X0259945Y0141206D01*
X0260245Y0141206D01*
X0260245Y0135256D01*
X0261672Y0135256D01*
X0262206Y0135399D01*
X0262595Y0135624D01*
X0262985Y0135399D01*
X0263519Y0135256D01*
X0264945Y0135256D01*
X0264945Y0141206D01*
X0260245Y0141206D01*
X0260245Y0141506D01*
X0263495Y0141506D01*
X0264945Y0141506D01*
X0264945Y0141206D01*
X0265245Y0141206D01*
X0265245Y0135256D01*
X0266672Y0135256D01*
X0267206Y0135399D01*
X0267595Y0135624D01*
X0267985Y0135399D01*
X0268519Y0135256D01*
X0269945Y0135256D01*
X0269945Y0141206D01*
X0265245Y0141206D01*
X0265245Y0141506D01*
X0266695Y0141506D01*
X0269945Y0141506D01*
X0269945Y0141206D01*
X0270245Y0141206D01*
X0270245Y0135256D01*
X0271672Y0135256D01*
X0272008Y0135346D01*
X0271518Y0134856D01*
X0240078Y0134856D01*
X0239122Y0134460D01*
X0238391Y0133729D01*
X0222667Y0118004D01*
X0222271Y0117049D01*
X0222271Y0107526D01*
X0221771Y0107026D01*
X0221771Y0102086D01*
X0222606Y0101251D01*
X0222581Y0101236D01*
X0222190Y0100845D01*
X0221914Y0100366D01*
X0221771Y0099832D01*
X0221771Y0097956D01*
X0224871Y0097956D01*
X0228020Y0097956D01*
X0228020Y0097956D01*
X0224920Y0097956D01*
X0224871Y0097956D01*
X0224871Y0097956D01*
X0224571Y0098256D01*
X0224871Y0097956D02*
X0224871Y0097956D01*
X0224871Y0094256D01*
X0226147Y0094256D01*
X0226446Y0094336D01*
X0226744Y0094256D01*
X0228020Y0094256D01*
X0228020Y0097956D01*
X0228020Y0097956D01*
X0228020Y0094256D01*
X0229297Y0094256D01*
X0229595Y0094336D01*
X0229893Y0094256D01*
X0231170Y0094256D01*
X0232446Y0094256D01*
X0232449Y0094257D01*
X0232450Y0094256D01*
X0236189Y0094256D01*
X0237420Y0095486D01*
X0237420Y0100426D01*
X0236589Y0101256D01*
X0237420Y0102086D01*
X0237420Y0107026D01*
X0236189Y0108256D01*
X0233770Y0108256D01*
X0233770Y0111754D01*
X0245672Y0123656D01*
X0276795Y0123656D01*
X0276795Y0123256D01*
X0272925Y0123256D01*
X0272595Y0122926D01*
X0272265Y0123256D01*
X0267925Y0123256D01*
X0267595Y0122926D01*
X0267265Y0123256D01*
X0262925Y0123256D01*
X0262595Y0122926D01*
X0262265Y0123256D01*
X0257925Y0123256D01*
X0257595Y0122926D01*
X0257265Y0123256D01*
X0252925Y0123256D01*
X0252595Y0122926D01*
X0252265Y0123256D01*
X0247925Y0123256D01*
X0246695Y0122026D01*
X0246695Y0112286D01*
X0247925Y0111056D01*
X0252265Y0111056D01*
X0252595Y0111386D01*
X0252925Y0111056D01*
X0257265Y0111056D01*
X0257595Y0111386D01*
X0257925Y0111056D01*
X0262265Y0111056D01*
X0262595Y0111386D01*
X0262925Y0111056D01*
X0267265Y0111056D01*
X0267595Y0111386D01*
X0267925Y0111056D01*
X0272265Y0111056D01*
X0272405Y0111196D01*
X0272806Y0110226D01*
X0275877Y0107156D01*
X0270289Y0107156D01*
X0269189Y0108256D01*
X0256001Y0108256D01*
X0254771Y0107026D01*
X0254771Y0102086D01*
X0255601Y0101256D01*
X0254901Y0100556D01*
X0252778Y0100556D01*
X0251822Y0100160D01*
X0243122Y0091460D01*
X0242391Y0090729D01*
X0242195Y0090256D01*
X0241363Y0090256D01*
X0240133Y0089026D01*
X0240133Y0077837D01*
X0241363Y0076607D01*
X0247827Y0076607D01*
X0249057Y0077837D01*
X0249057Y0089026D01*
X0248550Y0089533D01*
X0254372Y0095356D01*
X0254901Y0095356D01*
X0256001Y0094256D01*
X0258420Y0094256D01*
X0258420Y0090256D01*
X0257363Y0090256D01*
X0256133Y0089026D01*
X0256133Y0077837D01*
X0257363Y0076607D01*
X0263827Y0076607D01*
X0265057Y0077837D01*
X0265057Y0089026D01*
X0263827Y0090256D01*
X0263620Y0090256D01*
X0263620Y0090554D01*
X0264391Y0089783D01*
X0265122Y0089052D01*
X0266078Y0088656D01*
X0274193Y0088656D01*
X0274133Y0088432D01*
X0274133Y0083931D01*
X0278095Y0083931D01*
X0278095Y0082932D01*
X0274133Y0082932D01*
X0274133Y0078431D01*
X0274276Y0077897D01*
X0274553Y0077418D01*
X0274944Y0077027D01*
X0275422Y0076750D01*
X0275956Y0076607D01*
X0278095Y0076607D01*
X0278095Y0082931D01*
X0279095Y0082931D01*
X0279095Y0076607D01*
X0281234Y0076607D01*
X0281768Y0076750D01*
X0282247Y0077027D01*
X0282638Y0077418D01*
X0282914Y0077897D01*
X0283057Y0078431D01*
X0283057Y0082932D01*
X0279095Y0082932D01*
X0279095Y0083931D01*
X0283057Y0083931D01*
X0283057Y0088432D01*
X0282997Y0088656D01*
X0290133Y0088656D01*
X0290133Y0077837D01*
X0291363Y0076607D01*
X0297827Y0076607D01*
X0298995Y0077775D01*
X0298995Y0071856D01*
X0215993Y0071856D01*
X0216071Y0071933D01*
X0216695Y0073440D01*
X0216695Y0075071D01*
X0216071Y0076578D01*
X0214918Y0077732D01*
X0213411Y0078356D01*
X0211780Y0078356D01*
X0210273Y0077732D01*
X0209397Y0076856D01*
X0208993Y0076856D01*
X0209071Y0076933D01*
X0209695Y0078440D01*
X0209695Y0080071D01*
X0209071Y0081578D01*
X0207918Y0082732D01*
X0206411Y0083356D01*
X0204780Y0083356D01*
X0203273Y0082732D01*
X0202397Y0081856D01*
X0200993Y0081856D01*
X0201071Y0081933D01*
X0201695Y0083440D01*
X0201695Y0085071D01*
X0201071Y0086578D01*
X0200993Y0086656D01*
X0201397Y0086656D01*
X0202273Y0085780D01*
X0203780Y0085156D01*
X0205411Y0085156D01*
X0206918Y0085780D01*
X0208071Y0086933D01*
X0208695Y0088440D01*
X0208695Y0090071D01*
X0208071Y0091578D01*
X0206918Y0092732D01*
X0205411Y0093356D01*
X0203780Y0093356D01*
X0202273Y0092732D01*
X0201397Y0091856D01*
X0194993Y0091856D01*
X0195071Y0091933D01*
X0195695Y0093440D01*
X0195695Y0095071D01*
X0195071Y0096578D01*
X0193918Y0097732D01*
X0192411Y0098356D01*
X0190780Y0098356D01*
X0189273Y0097732D01*
X0188397Y0096856D01*
X0184672Y0096856D01*
X0184362Y0097166D01*
X0184362Y0098764D01*
X0186766Y0098764D01*
X0187996Y0099994D01*
X0187996Y0106441D01*
X0187996Y0106138D02*
X0221771Y0106138D01*
X0221771Y0105140D02*
X0187996Y0105140D01*
X0187996Y0104141D02*
X0221771Y0104141D01*
X0221771Y0103143D02*
X0187996Y0103143D01*
X0187996Y0102144D02*
X0221771Y0102144D01*
X0222491Y0101146D02*
X0187996Y0101146D01*
X0187996Y0100147D02*
X0221855Y0100147D01*
X0221771Y0099149D02*
X0187151Y0099149D01*
X0188693Y0097152D02*
X0184376Y0097152D01*
X0184362Y0098150D02*
X0190283Y0098150D01*
X0192907Y0098150D02*
X0221771Y0098150D01*
X0221771Y0097956D02*
X0221771Y0096079D01*
X0221914Y0095545D01*
X0222190Y0095066D01*
X0222581Y0094675D01*
X0223060Y0094399D01*
X0223594Y0094256D01*
X0224871Y0094256D01*
X0224871Y0097956D01*
X0224871Y0097956D01*
X0221771Y0097956D01*
X0221771Y0097152D02*
X0194498Y0097152D01*
X0195247Y0096153D02*
X0221771Y0096153D01*
X0222139Y0095155D02*
X0195661Y0095155D01*
X0195695Y0094156D02*
X0245818Y0094156D01*
X0244820Y0093158D02*
X0205889Y0093158D01*
X0207490Y0092159D02*
X0243821Y0092159D01*
X0242823Y0091161D02*
X0208244Y0091161D01*
X0208658Y0090162D02*
X0223606Y0090162D01*
X0223422Y0090113D02*
X0223956Y0090256D01*
X0226095Y0090256D01*
X0226095Y0083932D01*
X0227095Y0083932D01*
X0227095Y0090256D01*
X0229234Y0090256D01*
X0229768Y0090113D01*
X0230247Y0089836D01*
X0230638Y0089445D01*
X0230914Y0088966D01*
X0231057Y0088432D01*
X0231057Y0083931D01*
X0227095Y0083931D01*
X0227095Y0082932D01*
X0231057Y0082932D01*
X0231057Y0078431D01*
X0230914Y0077897D01*
X0230638Y0077418D01*
X0230247Y0077027D01*
X0229768Y0076750D01*
X0229234Y0076607D01*
X0227095Y0076607D01*
X0227095Y0082931D01*
X0226095Y0082931D01*
X0226095Y0076607D01*
X0223956Y0076607D01*
X0223422Y0076750D01*
X0222944Y0077027D01*
X0222553Y0077418D01*
X0222276Y0077897D01*
X0222133Y0078431D01*
X0222133Y0082932D01*
X0226095Y0082932D01*
X0226095Y0083931D01*
X0222133Y0083931D01*
X0222133Y0088432D01*
X0222276Y0088966D01*
X0222553Y0089445D01*
X0222944Y0089836D01*
X0223422Y0090113D01*
X0222390Y0089164D02*
X0208695Y0089164D01*
X0208581Y0088165D02*
X0222133Y0088165D01*
X0222133Y0087167D02*
X0208168Y0087167D01*
X0207306Y0086168D02*
X0222133Y0086168D01*
X0222133Y0085170D02*
X0205444Y0085170D01*
X0203747Y0085170D02*
X0201654Y0085170D01*
X0201695Y0084171D02*
X0222133Y0084171D01*
X0222133Y0082174D02*
X0208475Y0082174D01*
X0209238Y0081176D02*
X0222133Y0081176D01*
X0222133Y0080177D02*
X0209651Y0080177D01*
X0209695Y0079178D02*
X0222133Y0079178D01*
X0222200Y0078180D02*
X0213835Y0078180D01*
X0215468Y0077181D02*
X0222789Y0077181D01*
X0226095Y0077181D02*
X0227095Y0077181D01*
X0227095Y0078180D02*
X0226095Y0078180D01*
X0226095Y0079178D02*
X0227095Y0079178D01*
X0227095Y0080177D02*
X0226095Y0080177D01*
X0226095Y0081176D02*
X0227095Y0081176D01*
X0227095Y0082174D02*
X0226095Y0082174D01*
X0226095Y0083173D02*
X0206853Y0083173D01*
X0204337Y0083173D02*
X0201584Y0083173D01*
X0201171Y0082174D02*
X0202715Y0082174D01*
X0201885Y0086168D02*
X0201241Y0086168D01*
X0197595Y0084256D02*
X0185595Y0084256D01*
X0175463Y0094388D01*
X0175463Y0103817D01*
X0178612Y0103817D02*
X0178612Y0095239D01*
X0184595Y0089256D01*
X0204595Y0089256D01*
X0201700Y0092159D02*
X0195164Y0092159D01*
X0195578Y0093158D02*
X0203301Y0093158D01*
X0191595Y0094256D02*
X0183595Y0094256D01*
X0181762Y0096089D01*
X0181762Y0103817D01*
X0185568Y0109134D02*
X0162208Y0109134D01*
X0162208Y0110132D02*
X0185568Y0110132D01*
X0185568Y0111131D02*
X0162208Y0111131D01*
X0162208Y0112129D02*
X0185568Y0112129D01*
X0190620Y0115825D02*
X0190620Y0115890D01*
X0190620Y0115890D01*
X0190620Y0115825D01*
X0190620Y0115825D01*
X0190620Y0115824D02*
X0195673Y0115824D01*
X0190620Y0115824D01*
X0190620Y0115824D01*
X0195673Y0115824D02*
X0195673Y0114564D01*
X0195666Y0114536D01*
X0195673Y0114529D01*
X0195673Y0112125D01*
X0206787Y0112125D01*
X0231343Y0136681D01*
X0212511Y0136681D01*
X0212511Y0132636D01*
X0212171Y0132296D01*
X0212368Y0131955D01*
X0212511Y0131421D01*
X0212511Y0130054D01*
X0206564Y0130054D01*
X0206564Y0129872D01*
X0212511Y0129872D01*
X0212511Y0128505D01*
X0212368Y0127971D01*
X0212171Y0127630D01*
X0212511Y0127290D01*
X0212511Y0123188D01*
X0211281Y0121957D01*
X0201667Y0121957D01*
X0200969Y0122656D01*
X0200395Y0122656D01*
X0200395Y0120699D01*
X0199969Y0119670D01*
X0196899Y0116600D01*
X0195870Y0116174D01*
X0195673Y0116174D01*
X0195673Y0115824D01*
X0195673Y0116123D02*
X0210786Y0116123D01*
X0209787Y0115125D02*
X0195673Y0115125D01*
X0195673Y0114126D02*
X0208789Y0114126D01*
X0207790Y0113128D02*
X0195673Y0113128D01*
X0195673Y0112129D02*
X0206792Y0112129D01*
X0210151Y0108135D02*
X0222271Y0108135D01*
X0222271Y0109134D02*
X0211150Y0109134D01*
X0212149Y0110132D02*
X0222271Y0110132D01*
X0222271Y0111131D02*
X0213147Y0111131D01*
X0214146Y0112129D02*
X0222271Y0112129D01*
X0222271Y0113128D02*
X0215144Y0113128D01*
X0216143Y0114126D02*
X0222271Y0114126D01*
X0222271Y0115125D02*
X0217141Y0115125D01*
X0218140Y0116123D02*
X0222271Y0116123D01*
X0222301Y0117122D02*
X0219138Y0117122D01*
X0220137Y0118120D02*
X0222783Y0118120D01*
X0223781Y0119119D02*
X0221135Y0119119D01*
X0222134Y0120117D02*
X0224780Y0120117D01*
X0225778Y0121116D02*
X0223132Y0121116D01*
X0224131Y0122114D02*
X0226777Y0122114D01*
X0227775Y0123113D02*
X0225129Y0123113D01*
X0226128Y0124112D02*
X0228774Y0124112D01*
X0229772Y0125110D02*
X0227126Y0125110D01*
X0228125Y0126109D02*
X0230771Y0126109D01*
X0231769Y0127107D02*
X0229123Y0127107D01*
X0230122Y0128106D02*
X0232768Y0128106D01*
X0233766Y0129104D02*
X0231120Y0129104D01*
X0232119Y0130103D02*
X0234765Y0130103D01*
X0235763Y0131101D02*
X0233117Y0131101D01*
X0234116Y0132100D02*
X0236762Y0132100D01*
X0237760Y0133098D02*
X0235114Y0133098D01*
X0236113Y0134097D02*
X0238759Y0134097D01*
X0237111Y0135095D02*
X0271757Y0135095D01*
X0270245Y0136094D02*
X0269945Y0136094D01*
X0269945Y0137092D02*
X0270245Y0137092D01*
X0270245Y0138091D02*
X0269945Y0138091D01*
X0269945Y0139089D02*
X0270245Y0139089D01*
X0270245Y0140088D02*
X0269945Y0140088D01*
X0269945Y0141086D02*
X0270245Y0141086D01*
X0265245Y0141086D02*
X0264945Y0141086D01*
X0264945Y0140088D02*
X0265245Y0140088D01*
X0265245Y0139089D02*
X0264945Y0139089D01*
X0264945Y0138091D02*
X0265245Y0138091D01*
X0265245Y0137092D02*
X0264945Y0137092D01*
X0264945Y0136094D02*
X0265245Y0136094D01*
X0260245Y0136094D02*
X0259945Y0136094D01*
X0259945Y0137092D02*
X0260245Y0137092D01*
X0260245Y0138091D02*
X0259945Y0138091D01*
X0259945Y0139089D02*
X0260245Y0139089D01*
X0260245Y0140088D02*
X0259945Y0140088D01*
X0259945Y0141086D02*
X0260245Y0141086D01*
X0255245Y0141086D02*
X0254945Y0141086D01*
X0254945Y0140088D02*
X0255245Y0140088D01*
X0255245Y0139089D02*
X0254945Y0139089D01*
X0254945Y0138091D02*
X0255245Y0138091D01*
X0255245Y0137092D02*
X0254945Y0137092D01*
X0254945Y0136094D02*
X0255245Y0136094D01*
X0250245Y0136094D02*
X0249945Y0136094D01*
X0249945Y0137092D02*
X0250245Y0137092D01*
X0250245Y0138091D02*
X0249945Y0138091D01*
X0249945Y0139089D02*
X0250245Y0139089D01*
X0250245Y0140088D02*
X0249945Y0140088D01*
X0249945Y0141086D02*
X0250245Y0141086D01*
X0246695Y0141086D02*
X0243102Y0141086D01*
X0242104Y0140088D02*
X0246695Y0140088D01*
X0246695Y0139089D02*
X0241105Y0139089D01*
X0240107Y0138091D02*
X0246695Y0138091D01*
X0246695Y0137092D02*
X0239108Y0137092D01*
X0238110Y0136094D02*
X0247099Y0136094D01*
X0246695Y0142085D02*
X0244101Y0142085D01*
X0245099Y0143083D02*
X0246695Y0143083D01*
X0246695Y0144082D02*
X0246098Y0144082D01*
X0230756Y0136094D02*
X0212511Y0136094D01*
X0212511Y0135095D02*
X0229757Y0135095D01*
X0228759Y0134097D02*
X0212511Y0134097D01*
X0212511Y0133098D02*
X0227760Y0133098D01*
X0226762Y0132100D02*
X0212284Y0132100D01*
X0212511Y0131101D02*
X0225763Y0131101D01*
X0224765Y0130103D02*
X0212511Y0130103D01*
X0212511Y0129104D02*
X0223766Y0129104D01*
X0222768Y0128106D02*
X0212404Y0128106D01*
X0212511Y0127107D02*
X0221769Y0127107D01*
X0220771Y0126109D02*
X0212511Y0126109D01*
X0212511Y0125110D02*
X0219772Y0125110D01*
X0218774Y0124112D02*
X0212511Y0124112D01*
X0212436Y0123113D02*
X0217775Y0123113D01*
X0216777Y0122114D02*
X0211438Y0122114D01*
X0214780Y0120117D02*
X0200154Y0120117D01*
X0200395Y0121116D02*
X0215778Y0121116D01*
X0213781Y0119119D02*
X0199418Y0119119D01*
X0198419Y0118120D02*
X0212783Y0118120D01*
X0211784Y0117122D02*
X0197421Y0117122D01*
X0194503Y0122124D02*
X0190620Y0122124D01*
X0190656Y0122256D01*
X0190620Y0122124D02*
X0194503Y0122124D01*
X0194503Y0122124D01*
X0190620Y0122124D02*
X0190620Y0122124D01*
X0190620Y0122123D02*
X0190620Y0122123D01*
X0190620Y0122058D01*
X0190620Y0122058D01*
X0190620Y0122123D01*
X0190620Y0122114D02*
X0190620Y0122114D01*
X0190771Y0125256D02*
X0190620Y0125273D01*
X0190620Y0128423D02*
X0197428Y0128423D01*
X0200595Y0125256D01*
X0206457Y0125256D01*
X0206474Y0125239D01*
X0206383Y0129872D02*
X0200437Y0129872D01*
X0200437Y0129091D01*
X0199522Y0130006D01*
X0200437Y0130921D01*
X0200437Y0130054D01*
X0206383Y0130054D01*
X0206383Y0129872D01*
X0206474Y0134687D02*
X0200527Y0134687D01*
X0197412Y0131572D01*
X0190620Y0131572D01*
X0187996Y0134657D02*
X0187996Y0136681D01*
X0198843Y0136681D01*
X0196335Y0134172D01*
X0194927Y0134172D01*
X0194443Y0134657D01*
X0187996Y0134657D01*
X0187996Y0135095D02*
X0197257Y0135095D01*
X0198256Y0136094D02*
X0187996Y0136094D01*
X0185568Y0132100D02*
X0162208Y0132100D01*
X0159780Y0134657D02*
X0159756Y0134657D01*
X0159756Y0142740D01*
X0160264Y0143248D01*
X0160264Y0141588D01*
X0159780Y0141104D01*
X0159780Y0134657D01*
X0159756Y0135095D02*
X0159780Y0135095D01*
X0159756Y0136094D02*
X0159780Y0136094D01*
X0159756Y0137092D02*
X0159780Y0137092D01*
X0159756Y0138091D02*
X0159780Y0138091D01*
X0159756Y0139089D02*
X0159780Y0139089D01*
X0159756Y0140088D02*
X0159780Y0140088D01*
X0159756Y0141086D02*
X0159780Y0141086D01*
X0159756Y0142085D02*
X0160264Y0142085D01*
X0160264Y0143083D02*
X0160099Y0143083D01*
X0157156Y0143817D02*
X0169595Y0156256D01*
X0224595Y0156256D01*
X0241595Y0173256D01*
X0241595Y0181256D01*
X0244595Y0184256D01*
X0252595Y0184256D01*
X0257595Y0179256D01*
X0252700Y0176441D02*
X0250195Y0173936D01*
X0250195Y0173739D01*
X0249799Y0172783D01*
X0249068Y0172052D01*
X0247872Y0170856D01*
X0256518Y0170856D01*
X0259749Y0174087D01*
X0258709Y0173656D01*
X0256481Y0173656D01*
X0254423Y0174508D01*
X0252848Y0176084D01*
X0252700Y0176441D01*
X0252897Y0176034D02*
X0252293Y0176034D01*
X0251294Y0175036D02*
X0253896Y0175036D01*
X0255561Y0174037D02*
X0250296Y0174037D01*
X0249905Y0173039D02*
X0258701Y0173039D01*
X0259629Y0174037D02*
X0259699Y0174037D01*
X0257702Y0172040D02*
X0249056Y0172040D01*
X0248058Y0171042D02*
X0256704Y0171042D01*
X0257595Y0168256D02*
X0246595Y0168256D01*
X0228595Y0150256D01*
X0173595Y0150256D01*
X0166014Y0142675D01*
X0166014Y0137281D01*
X0162864Y0137281D02*
X0162864Y0144525D01*
X0171595Y0153256D01*
X0226595Y0153256D01*
X0247595Y0174256D01*
X0247595Y0179256D01*
X0244195Y0174736D02*
X0244195Y0174533D01*
X0244297Y0174635D01*
X0244195Y0174736D01*
X0233295Y0175036D02*
X0127173Y0175036D01*
X0128113Y0176034D02*
X0233295Y0176034D01*
X0233295Y0177033D02*
X0128526Y0177033D01*
X0128695Y0178031D02*
X0233295Y0178031D01*
X0233295Y0179030D02*
X0128695Y0179030D01*
X0128299Y0180028D02*
X0233295Y0180028D01*
X0233295Y0181027D02*
X0127623Y0181027D01*
X0126209Y0182025D02*
X0233295Y0182025D01*
X0233295Y0183024D02*
X0123504Y0183024D01*
X0122506Y0184022D02*
X0233295Y0184022D01*
X0233295Y0185021D02*
X0121507Y0185021D01*
X0120509Y0186019D02*
X0233295Y0186019D01*
X0233295Y0187018D02*
X0119510Y0187018D01*
X0118512Y0188016D02*
X0233295Y0188016D01*
X0233295Y0189015D02*
X0117513Y0189015D01*
X0116515Y0190013D02*
X0233295Y0190013D01*
X0233336Y0191012D02*
X0115516Y0191012D01*
X0114518Y0192010D02*
X0233750Y0192010D01*
X0234681Y0193009D02*
X0113519Y0193009D01*
X0112521Y0194007D02*
X0235680Y0194007D01*
X0236678Y0195006D02*
X0111522Y0195006D01*
X0109595Y0193256D02*
X0100335Y0193256D01*
X0104994Y0196004D02*
X0237677Y0196004D01*
X0238675Y0197003D02*
X0104994Y0197003D01*
X0104072Y0198001D02*
X0239674Y0198001D01*
X0240672Y0199000D02*
X0047351Y0199000D01*
X0047084Y0199998D02*
X0241671Y0199998D01*
X0242669Y0200997D02*
X0046675Y0200997D01*
X0046099Y0201995D02*
X0396092Y0201995D01*
X0395515Y0200997D02*
X0356521Y0200997D01*
X0357520Y0199998D02*
X0395106Y0199998D01*
X0394839Y0199000D02*
X0358518Y0199000D01*
X0359517Y0198001D02*
X0394571Y0198001D01*
X0394495Y0197003D02*
X0360515Y0197003D01*
X0361514Y0196004D02*
X0394495Y0196004D01*
X0394495Y0195006D02*
X0362512Y0195006D01*
X0363511Y0194007D02*
X0394706Y0194007D01*
X0394974Y0193009D02*
X0364509Y0193009D01*
X0365508Y0192010D02*
X0395241Y0192010D01*
X0395806Y0191012D02*
X0366506Y0191012D01*
X0367505Y0190013D02*
X0396382Y0190013D01*
X0397139Y0189015D02*
X0368503Y0189015D01*
X0369502Y0188016D02*
X0398137Y0188016D01*
X0399396Y0187018D02*
X0370500Y0187018D01*
X0371499Y0186019D02*
X0401126Y0186019D01*
X0410065Y0186019D02*
X0414595Y0186019D01*
X0414595Y0185021D02*
X0372497Y0185021D01*
X0373496Y0184022D02*
X0414595Y0184022D01*
X0414595Y0183024D02*
X0374494Y0183024D01*
X0375493Y0182025D02*
X0414595Y0182025D01*
X0414595Y0181027D02*
X0376491Y0181027D01*
X0376858Y0180660D02*
X0376858Y0180660D01*
X0377490Y0180028D02*
X0414595Y0180028D01*
X0414595Y0179030D02*
X0378077Y0179030D01*
X0378289Y0178031D02*
X0414595Y0178031D01*
X0414595Y0177033D02*
X0378289Y0177033D01*
X0378289Y0176034D02*
X0414595Y0176034D01*
X0414595Y0175036D02*
X0378289Y0175036D01*
X0378289Y0174037D02*
X0414595Y0174037D01*
X0414595Y0173039D02*
X0378289Y0173039D01*
X0380472Y0172040D02*
X0414595Y0172040D01*
X0414595Y0171042D02*
X0381936Y0171042D01*
X0382838Y0170043D02*
X0414595Y0170043D01*
X0414595Y0169045D02*
X0383252Y0169045D01*
X0383585Y0168046D02*
X0414595Y0168046D01*
X0414595Y0167047D02*
X0383585Y0167047D01*
X0383558Y0166049D02*
X0414595Y0166049D01*
X0414595Y0165050D02*
X0383145Y0165050D01*
X0382675Y0164052D02*
X0414595Y0164052D01*
X0414595Y0163053D02*
X0381676Y0163053D01*
X0380753Y0162055D02*
X0414595Y0162055D01*
X0414595Y0161056D02*
X0382078Y0161056D01*
X0382852Y0160058D02*
X0414595Y0160058D01*
X0414595Y0159059D02*
X0383300Y0159059D01*
X0383537Y0158061D02*
X0414595Y0158061D01*
X0414595Y0139089D02*
X0288495Y0139089D01*
X0288495Y0138091D02*
X0414595Y0138091D01*
X0414595Y0137092D02*
X0288495Y0137092D01*
X0288103Y0136094D02*
X0414595Y0136094D01*
X0414595Y0135095D02*
X0287695Y0135095D01*
X0287636Y0134097D02*
X0414595Y0134097D01*
X0414595Y0133098D02*
X0287114Y0133098D01*
X0286116Y0132100D02*
X0414595Y0132100D01*
X0414595Y0131101D02*
X0380350Y0131101D01*
X0381415Y0130103D02*
X0414595Y0130103D01*
X0414595Y0129104D02*
X0382414Y0129104D01*
X0383412Y0128106D02*
X0414595Y0128106D01*
X0414595Y0127107D02*
X0384411Y0127107D01*
X0385409Y0126109D02*
X0414595Y0126109D01*
X0414595Y0125110D02*
X0386408Y0125110D01*
X0387406Y0124112D02*
X0414595Y0124112D01*
X0414595Y0123113D02*
X0388405Y0123113D01*
X0389397Y0122114D02*
X0414595Y0122114D01*
X0414595Y0121116D02*
X0389811Y0121116D01*
X0389895Y0120117D02*
X0414595Y0120117D01*
X0414595Y0119119D02*
X0389895Y0119119D01*
X0389895Y0118120D02*
X0414595Y0118120D01*
X0414595Y0117122D02*
X0389895Y0117122D01*
X0389895Y0116123D02*
X0414595Y0116123D01*
X0414595Y0115125D02*
X0389895Y0115125D01*
X0389895Y0114126D02*
X0414595Y0114126D01*
X0414595Y0113128D02*
X0389895Y0113128D01*
X0389895Y0112129D02*
X0414595Y0112129D01*
X0414595Y0111131D02*
X0389895Y0111131D01*
X0389895Y0110132D02*
X0414595Y0110132D01*
X0414595Y0109134D02*
X0389895Y0109134D01*
X0389895Y0108135D02*
X0414595Y0108135D01*
X0414595Y0107137D02*
X0389895Y0107137D01*
X0389895Y0106138D02*
X0414595Y0106138D01*
X0414595Y0105140D02*
X0389895Y0105140D01*
X0389895Y0104141D02*
X0414595Y0104141D01*
X0414595Y0103143D02*
X0389895Y0103143D01*
X0389895Y0102144D02*
X0414595Y0102144D01*
X0414595Y0101146D02*
X0389895Y0101146D01*
X0389895Y0100147D02*
X0414595Y0100147D01*
X0414595Y0099149D02*
X0389895Y0099149D01*
X0389895Y0098150D02*
X0414595Y0098150D01*
X0414595Y0097152D02*
X0389895Y0097152D01*
X0389895Y0096153D02*
X0414595Y0096153D01*
X0414595Y0095155D02*
X0389895Y0095155D01*
X0389895Y0094156D02*
X0414595Y0094156D01*
X0414595Y0093158D02*
X0389895Y0093158D01*
X0389895Y0092159D02*
X0414595Y0092159D01*
X0414595Y0091161D02*
X0389895Y0091161D01*
X0389895Y0090162D02*
X0414595Y0090162D01*
X0414595Y0089164D02*
X0389895Y0089164D01*
X0389895Y0088165D02*
X0414595Y0088165D01*
X0414595Y0087167D02*
X0389895Y0087167D01*
X0389895Y0086168D02*
X0414595Y0086168D01*
X0414595Y0085170D02*
X0389895Y0085170D01*
X0389895Y0084171D02*
X0414595Y0084171D01*
X0414595Y0083173D02*
X0389895Y0083173D01*
X0389895Y0082174D02*
X0414595Y0082174D01*
X0414595Y0081176D02*
X0389895Y0081176D01*
X0389895Y0080177D02*
X0414595Y0080177D01*
X0414595Y0079178D02*
X0389895Y0079178D01*
X0389895Y0078180D02*
X0414595Y0078180D01*
X0414595Y0077181D02*
X0389895Y0077181D01*
X0389895Y0076183D02*
X0414595Y0076183D01*
X0414595Y0075184D02*
X0389895Y0075184D01*
X0389895Y0074186D02*
X0414595Y0074186D01*
X0414595Y0073187D02*
X0389895Y0073187D01*
X0389725Y0072189D02*
X0414595Y0072189D01*
X0414595Y0071190D02*
X0389197Y0071190D01*
X0388198Y0070192D02*
X0414595Y0070192D01*
X0414595Y0069193D02*
X0387200Y0069193D01*
X0386201Y0068195D02*
X0414595Y0068195D01*
X0414595Y0067196D02*
X0385202Y0067196D01*
X0384204Y0066198D02*
X0414595Y0066198D01*
X0414595Y0065199D02*
X0382839Y0065199D01*
X0381566Y0064201D02*
X0414595Y0064201D01*
X0414595Y0063202D02*
X0379580Y0063202D01*
X0370398Y0063202D02*
X0294326Y0063202D01*
X0295324Y0062204D02*
X0414595Y0062204D01*
X0414595Y0061205D02*
X0296323Y0061205D01*
X0297015Y0060207D02*
X0414595Y0060207D01*
X0414595Y0059208D02*
X0297195Y0059208D01*
X0297195Y0058210D02*
X0414595Y0058210D01*
X0414595Y0049223D02*
X0410531Y0049223D01*
X0412261Y0048225D02*
X0414595Y0048225D01*
X0414595Y0047226D02*
X0413323Y0047226D01*
X0414321Y0046228D02*
X0414595Y0046228D01*
X0396247Y0033247D02*
X0116616Y0033247D01*
X0116616Y0032248D02*
X0396905Y0032248D01*
X0397903Y0031250D02*
X0116616Y0031250D01*
X0102574Y0038240D02*
X0047695Y0038240D01*
X0047695Y0039238D02*
X0102574Y0039238D01*
X0102574Y0040237D02*
X0047695Y0040237D01*
X0047556Y0041235D02*
X0102574Y0041235D01*
X0102574Y0042234D02*
X0047289Y0042234D01*
X0047021Y0043232D02*
X0102574Y0043232D01*
X0102574Y0044231D02*
X0046540Y0044231D01*
X0045964Y0045229D02*
X0102756Y0045229D01*
X0103725Y0046228D02*
X0074177Y0046228D01*
X0074548Y0046442D02*
X0075287Y0047009D01*
X0075945Y0047667D01*
X0076511Y0048405D01*
X0076977Y0049211D01*
X0077333Y0050071D01*
X0077574Y0050970D01*
X0077695Y0051893D01*
X0077695Y0052058D01*
X0075207Y0052058D01*
X0075207Y0052658D01*
X0077695Y0052658D01*
X0077695Y0052824D01*
X0077574Y0053746D01*
X0077333Y0054645D01*
X0076977Y0055505D01*
X0076511Y0056311D01*
X0075945Y0057050D01*
X0075287Y0057708D01*
X0074548Y0058274D01*
X0073742Y0058740D01*
X0072882Y0059096D01*
X0071983Y0059337D01*
X0071060Y0059458D01*
X0065895Y0059458D01*
X0065895Y0056458D01*
X0065295Y0056458D01*
X0065295Y0059458D01*
X0060130Y0059458D01*
X0059207Y0059337D01*
X0058308Y0059096D01*
X0057448Y0058740D01*
X0056642Y0058274D01*
X0055904Y0057708D01*
X0055246Y0057050D01*
X0054679Y0056311D01*
X0054214Y0055505D01*
X0053858Y0054645D01*
X0053617Y0053746D01*
X0053495Y0052824D01*
X0053495Y0052658D01*
X0055983Y0052658D01*
X0055983Y0052058D01*
X0053495Y0052058D01*
X0053495Y0051893D01*
X0053617Y0050970D01*
X0053858Y0050071D01*
X0054214Y0049211D01*
X0054679Y0048405D01*
X0055246Y0047667D01*
X0055904Y0047009D01*
X0056642Y0046442D01*
X0057448Y0045977D01*
X0058308Y0045621D01*
X0059207Y0045380D01*
X0060130Y0045258D01*
X0065295Y0045258D01*
X0065295Y0048258D01*
X0065895Y0048258D01*
X0065895Y0045258D01*
X0071060Y0045258D01*
X0071983Y0045380D01*
X0072882Y0045621D01*
X0073742Y0045977D01*
X0074548Y0046442D01*
X0075504Y0047226D02*
X0134108Y0047226D01*
X0135445Y0058543D02*
X0137583Y0058543D01*
X0137583Y0064867D01*
X0133621Y0064867D01*
X0133621Y0060366D01*
X0133764Y0059832D01*
X0134041Y0059353D01*
X0134432Y0058962D01*
X0134911Y0058686D01*
X0135445Y0058543D01*
X0134186Y0059208D02*
X0116616Y0059208D01*
X0116616Y0058210D02*
X0159995Y0058210D01*
X0159995Y0059208D02*
X0153005Y0059208D01*
X0153569Y0060207D02*
X0159995Y0060207D01*
X0159995Y0061205D02*
X0153569Y0061205D01*
X0153569Y0062204D02*
X0159849Y0062204D01*
X0162595Y0065256D02*
X0162595Y0054516D01*
X0163855Y0053256D01*
X0159196Y0053217D02*
X0077643Y0053217D01*
X0077448Y0054216D02*
X0103650Y0054216D01*
X0103804Y0054061D02*
X0115386Y0054061D01*
X0116616Y0055292D01*
X0116616Y0070811D01*
X0115386Y0072041D01*
X0112895Y0072041D01*
X0112895Y0074917D01*
X0115410Y0077431D01*
X0121981Y0077431D01*
X0123211Y0078662D01*
X0123211Y0080956D01*
X0126124Y0080956D01*
X0126283Y0080796D01*
X0127783Y0080175D01*
X0129407Y0080175D01*
X0130907Y0080796D01*
X0132055Y0081944D01*
X0132676Y0083444D01*
X0132676Y0085068D01*
X0132055Y0086568D01*
X0130907Y0087716D01*
X0129407Y0088337D01*
X0127783Y0088337D01*
X0126283Y0087716D01*
X0126124Y0087556D01*
X0123211Y0087556D01*
X0123211Y0089850D01*
X0121981Y0091080D01*
X0116438Y0091080D01*
X0111393Y0096125D01*
X0110464Y0097053D01*
X0109252Y0097556D01*
X0103962Y0097556D01*
X0103247Y0098271D01*
X0103500Y0098203D01*
X0105835Y0098203D01*
X0105835Y0102756D01*
X0106835Y0102756D01*
X0106835Y0098203D01*
X0109171Y0098203D01*
X0109705Y0098346D01*
X0110184Y0098623D01*
X0110575Y0099014D01*
X0110851Y0099493D01*
X0110994Y0100027D01*
X0110994Y0102756D01*
X0106835Y0102756D01*
X0106835Y0103756D01*
X0105835Y0103756D01*
X0105835Y0108309D01*
X0103500Y0108309D01*
X0102966Y0108166D01*
X0102624Y0107968D01*
X0102284Y0108309D01*
X0095426Y0108309D01*
X0094196Y0107079D01*
X0094196Y0105580D01*
X0084281Y0105580D01*
X0083512Y0106348D01*
X0075473Y0106348D01*
X0074243Y0105118D01*
X0074243Y0099441D01*
X0075473Y0098211D01*
X0083512Y0098211D01*
X0084281Y0098980D01*
X0094650Y0098980D01*
X0095426Y0098203D01*
X0095555Y0098203D01*
X0095555Y0097340D01*
X0096057Y0096127D01*
X0099798Y0092387D01*
X0100726Y0091458D01*
X0101638Y0091080D01*
X0097210Y0091080D01*
X0095979Y0089850D01*
X0095979Y0087556D01*
X0089750Y0087556D01*
X0088537Y0087053D01*
X0082593Y0081110D01*
X0081428Y0082275D01*
X0078818Y0083356D01*
X0075994Y0083356D01*
X0073384Y0082275D01*
X0071387Y0080278D01*
X0070306Y0077668D01*
X0070306Y0064844D01*
X0071387Y0062234D01*
X0073384Y0060237D01*
X0075994Y0059156D01*
X0078818Y0059156D01*
X0081428Y0060237D01*
X0083425Y0062234D01*
X0084506Y0064844D01*
X0084506Y0073689D01*
X0091773Y0080956D01*
X0095979Y0080956D01*
X0095979Y0078662D01*
X0097210Y0077431D01*
X0106036Y0077431D01*
X0107266Y0078662D01*
X0107266Y0089850D01*
X0106160Y0090956D01*
X0107228Y0090956D01*
X0111924Y0086260D01*
X0111924Y0083279D01*
X0106798Y0078153D01*
X0106295Y0076940D01*
X0106295Y0072041D01*
X0103804Y0072041D01*
X0102574Y0070811D01*
X0102574Y0055292D01*
X0103804Y0054061D01*
X0102651Y0055214D02*
X0077097Y0055214D01*
X0076568Y0056213D02*
X0102574Y0056213D01*
X0102574Y0057211D02*
X0075783Y0057211D01*
X0074632Y0058210D02*
X0102574Y0058210D01*
X0102574Y0059208D02*
X0078945Y0059208D01*
X0081355Y0060207D02*
X0102574Y0060207D01*
X0102574Y0061205D02*
X0082396Y0061205D01*
X0083395Y0062204D02*
X0102574Y0062204D01*
X0102574Y0063202D02*
X0083826Y0063202D01*
X0084240Y0064201D02*
X0102574Y0064201D01*
X0102574Y0065199D02*
X0084506Y0065199D01*
X0084506Y0066198D02*
X0102574Y0066198D01*
X0102574Y0067196D02*
X0084506Y0067196D01*
X0084506Y0068195D02*
X0102574Y0068195D01*
X0102574Y0069193D02*
X0084506Y0069193D01*
X0084506Y0070192D02*
X0102574Y0070192D01*
X0102953Y0071190D02*
X0084506Y0071190D01*
X0084506Y0072189D02*
X0106295Y0072189D01*
X0106295Y0073187D02*
X0084506Y0073187D01*
X0085003Y0074186D02*
X0106295Y0074186D01*
X0106295Y0075184D02*
X0086002Y0075184D01*
X0087000Y0076183D02*
X0106295Y0076183D01*
X0106395Y0077181D02*
X0087999Y0077181D01*
X0088997Y0078180D02*
X0096461Y0078180D01*
X0095979Y0079178D02*
X0089996Y0079178D01*
X0090994Y0080177D02*
X0095979Y0080177D01*
X0087651Y0086168D02*
X0027595Y0086168D01*
X0027595Y0085170D02*
X0086653Y0085170D01*
X0085654Y0084171D02*
X0027595Y0084171D01*
X0027595Y0083173D02*
X0052165Y0083173D01*
X0052396Y0083234D02*
X0051497Y0082994D01*
X0050637Y0082637D01*
X0049831Y0082172D01*
X0049093Y0081605D01*
X0048435Y0080947D01*
X0047868Y0080209D01*
X0047403Y0079403D01*
X0047046Y0078543D01*
X0046806Y0077644D01*
X0046684Y0076721D01*
X0046684Y0071556D01*
X0049684Y0071556D01*
X0049684Y0070956D01*
X0046684Y0070956D01*
X0046684Y0065791D01*
X0046806Y0064868D01*
X0047046Y0063969D01*
X0047403Y0063109D01*
X0047868Y0062303D01*
X0048435Y0061565D01*
X0049093Y0060906D01*
X0049831Y0060340D01*
X0050637Y0059874D01*
X0051497Y0059518D01*
X0052396Y0059277D01*
X0053319Y0059156D01*
X0053484Y0059156D01*
X0053484Y0061644D01*
X0054084Y0061644D01*
X0054084Y0059156D01*
X0054249Y0059156D01*
X0055172Y0059277D01*
X0056071Y0059518D01*
X0056931Y0059874D01*
X0057737Y0060340D01*
X0058476Y0060906D01*
X0059134Y0061565D01*
X0059700Y0062303D01*
X0060166Y0063109D01*
X0060522Y0063969D01*
X0060763Y0064868D01*
X0060884Y0065791D01*
X0060884Y0070956D01*
X0057884Y0070956D01*
X0057884Y0071556D01*
X0060884Y0071556D01*
X0060884Y0076721D01*
X0060763Y0077644D01*
X0060522Y0078543D01*
X0060166Y0079403D01*
X0059700Y0080209D01*
X0059134Y0080947D01*
X0058476Y0081605D01*
X0057737Y0082172D01*
X0056931Y0082637D01*
X0056071Y0082994D01*
X0055172Y0083234D01*
X0054249Y0083356D01*
X0054084Y0083356D01*
X0054084Y0080868D01*
X0053484Y0080868D01*
X0053484Y0083356D01*
X0053319Y0083356D01*
X0052396Y0083234D01*
X0053484Y0083173D02*
X0054084Y0083173D01*
X0054084Y0082174D02*
X0053484Y0082174D01*
X0053484Y0081176D02*
X0054084Y0081176D01*
X0055403Y0083173D02*
X0075551Y0083173D01*
X0073283Y0082174D02*
X0057734Y0082174D01*
X0058905Y0081176D02*
X0072285Y0081176D01*
X0071345Y0080177D02*
X0059719Y0080177D01*
X0060259Y0079178D02*
X0070932Y0079178D01*
X0070518Y0078180D02*
X0060619Y0078180D01*
X0060824Y0077181D02*
X0070306Y0077181D01*
X0070306Y0076183D02*
X0060884Y0076183D01*
X0060884Y0075184D02*
X0070306Y0075184D01*
X0070306Y0074186D02*
X0060884Y0074186D01*
X0060884Y0073187D02*
X0070306Y0073187D01*
X0070306Y0072189D02*
X0060884Y0072189D01*
X0060884Y0070192D02*
X0070306Y0070192D01*
X0070306Y0071190D02*
X0057884Y0071190D01*
X0060884Y0069193D02*
X0070306Y0069193D01*
X0070306Y0068195D02*
X0060884Y0068195D01*
X0060884Y0067196D02*
X0070306Y0067196D01*
X0070306Y0066198D02*
X0060884Y0066198D01*
X0060806Y0065199D02*
X0070306Y0065199D01*
X0070572Y0064201D02*
X0060584Y0064201D01*
X0060204Y0063202D02*
X0070986Y0063202D01*
X0071417Y0062204D02*
X0059624Y0062204D01*
X0058774Y0061205D02*
X0072416Y0061205D01*
X0073457Y0060207D02*
X0057507Y0060207D01*
X0058727Y0059208D02*
X0054647Y0059208D01*
X0054084Y0059208D02*
X0053484Y0059208D01*
X0052921Y0059208D02*
X0027595Y0059208D01*
X0027595Y0058210D02*
X0056558Y0058210D01*
X0055407Y0057211D02*
X0027595Y0057211D01*
X0027595Y0056213D02*
X0054622Y0056213D01*
X0054093Y0055214D02*
X0027595Y0055214D01*
X0027595Y0054216D02*
X0053742Y0054216D01*
X0053547Y0053217D02*
X0027595Y0053217D01*
X0027595Y0052219D02*
X0055983Y0052219D01*
X0053584Y0051220D02*
X0027595Y0051220D01*
X0027595Y0050222D02*
X0034633Y0050222D01*
X0031659Y0049223D02*
X0027595Y0049223D01*
X0027595Y0048225D02*
X0029929Y0048225D01*
X0028868Y0047226D02*
X0027595Y0047226D01*
X0027595Y0046228D02*
X0027869Y0046228D01*
X0038557Y0050222D02*
X0053817Y0050222D01*
X0054209Y0049223D02*
X0041531Y0049223D01*
X0043261Y0048225D02*
X0054818Y0048225D01*
X0055686Y0047226D02*
X0044323Y0047226D01*
X0045321Y0046228D02*
X0057014Y0046228D01*
X0065295Y0046228D02*
X0065895Y0046228D01*
X0065895Y0047226D02*
X0065295Y0047226D01*
X0065295Y0048225D02*
X0065895Y0048225D01*
X0075207Y0052219D02*
X0159196Y0052219D01*
X0159196Y0051220D02*
X0077607Y0051220D01*
X0077373Y0050222D02*
X0159196Y0050222D01*
X0159406Y0049223D02*
X0076982Y0049223D01*
X0076373Y0048225D02*
X0160405Y0048225D01*
X0167305Y0048225D02*
X0167885Y0048225D01*
X0174786Y0048225D02*
X0222133Y0048225D01*
X0222133Y0049223D02*
X0175784Y0049223D01*
X0175994Y0050222D02*
X0222133Y0050222D01*
X0222133Y0050580D02*
X0222133Y0046079D01*
X0222276Y0045545D01*
X0222553Y0045066D01*
X0222944Y0044675D01*
X0223422Y0044399D01*
X0223956Y0044256D01*
X0226095Y0044256D01*
X0226095Y0050580D01*
X0222133Y0050580D01*
X0222133Y0052219D02*
X0175994Y0052219D01*
X0175994Y0053217D02*
X0222133Y0053217D01*
X0222133Y0054216D02*
X0175994Y0054216D01*
X0175994Y0055214D02*
X0222133Y0055214D01*
X0222168Y0056213D02*
X0175994Y0056213D01*
X0175862Y0057211D02*
X0222670Y0057211D01*
X0230521Y0057211D02*
X0240670Y0057211D01*
X0240133Y0056213D02*
X0231022Y0056213D01*
X0231057Y0055214D02*
X0240133Y0055214D01*
X0240133Y0054216D02*
X0231057Y0054216D01*
X0231057Y0053217D02*
X0240133Y0053217D01*
X0240133Y0052219D02*
X0231057Y0052219D01*
X0231057Y0050222D02*
X0240133Y0050222D01*
X0240133Y0051220D02*
X0227095Y0051220D01*
X0227095Y0050222D02*
X0226095Y0050222D01*
X0226095Y0051220D02*
X0175994Y0051220D01*
X0172595Y0054516D02*
X0171335Y0053256D01*
X0172595Y0054516D02*
X0172595Y0065256D01*
X0168495Y0065199D02*
X0166695Y0065199D01*
X0166643Y0066198D02*
X0168548Y0066198D01*
X0168961Y0067196D02*
X0166229Y0067196D01*
X0165454Y0068195D02*
X0169736Y0068195D01*
X0171387Y0069193D02*
X0163803Y0069193D01*
X0161387Y0069193D02*
X0153569Y0069193D01*
X0153569Y0068195D02*
X0159736Y0068195D01*
X0162595Y0065256D02*
X0163484Y0065367D01*
X0149107Y0065367D01*
X0149218Y0065256D01*
X0144645Y0065199D02*
X0138583Y0065199D01*
X0138583Y0064867D02*
X0138583Y0065867D01*
X0137583Y0065867D01*
X0137583Y0064867D01*
X0138583Y0064867D01*
X0138583Y0058543D01*
X0140722Y0058543D01*
X0141256Y0058686D01*
X0141735Y0058962D01*
X0142126Y0059353D01*
X0142402Y0059832D01*
X0142546Y0060366D01*
X0142546Y0064867D01*
X0138583Y0064867D01*
X0138583Y0064201D02*
X0137583Y0064201D01*
X0137583Y0065199D02*
X0116616Y0065199D01*
X0116616Y0064201D02*
X0133621Y0064201D01*
X0133621Y0063202D02*
X0116616Y0063202D01*
X0116616Y0062204D02*
X0133621Y0062204D01*
X0133621Y0061205D02*
X0116616Y0061205D01*
X0116616Y0060207D02*
X0133664Y0060207D01*
X0137583Y0060207D02*
X0138583Y0060207D01*
X0138583Y0061205D02*
X0137583Y0061205D01*
X0137583Y0062204D02*
X0138583Y0062204D01*
X0138583Y0063202D02*
X0137583Y0063202D01*
X0137583Y0059208D02*
X0138583Y0059208D01*
X0141981Y0059208D02*
X0145209Y0059208D01*
X0144645Y0060207D02*
X0142503Y0060207D01*
X0142546Y0061205D02*
X0144645Y0061205D01*
X0144645Y0062204D02*
X0142546Y0062204D01*
X0142546Y0063202D02*
X0144645Y0063202D01*
X0144645Y0064201D02*
X0142546Y0064201D01*
X0142546Y0065867D02*
X0138583Y0065867D01*
X0138583Y0072191D01*
X0140722Y0072191D01*
X0141256Y0072048D01*
X0141735Y0071772D01*
X0142126Y0071381D01*
X0142402Y0070902D01*
X0142546Y0070368D01*
X0142546Y0065867D01*
X0142546Y0066198D02*
X0144645Y0066198D01*
X0144645Y0067196D02*
X0142546Y0067196D01*
X0142546Y0068195D02*
X0144645Y0068195D01*
X0144645Y0069193D02*
X0142546Y0069193D01*
X0142546Y0070192D02*
X0144645Y0070192D01*
X0144874Y0071190D02*
X0142236Y0071190D01*
X0140731Y0072189D02*
X0145872Y0072189D01*
X0138583Y0072189D02*
X0137583Y0072189D01*
X0137583Y0072191D02*
X0135445Y0072191D01*
X0134911Y0072048D01*
X0134432Y0071772D01*
X0134041Y0071381D01*
X0133764Y0070902D01*
X0133621Y0070368D01*
X0133621Y0065867D01*
X0137583Y0065867D01*
X0137583Y0072191D01*
X0137583Y0071190D02*
X0138583Y0071190D01*
X0138583Y0070192D02*
X0137583Y0070192D01*
X0137583Y0069193D02*
X0138583Y0069193D01*
X0138583Y0068195D02*
X0137583Y0068195D01*
X0137583Y0067196D02*
X0138583Y0067196D01*
X0138583Y0066198D02*
X0137583Y0066198D01*
X0133621Y0066198D02*
X0116616Y0066198D01*
X0116616Y0067196D02*
X0133621Y0067196D01*
X0133621Y0068195D02*
X0116616Y0068195D01*
X0116616Y0069193D02*
X0133621Y0069193D01*
X0133621Y0070192D02*
X0116616Y0070192D01*
X0116237Y0071190D02*
X0133931Y0071190D01*
X0135436Y0072189D02*
X0112895Y0072189D01*
X0112895Y0073187D02*
X0168987Y0073187D01*
X0169985Y0072189D02*
X0152341Y0072189D01*
X0153340Y0071190D02*
X0170984Y0071190D01*
X0171982Y0070192D02*
X0153569Y0070192D01*
X0164993Y0077181D02*
X0115160Y0077181D01*
X0114162Y0076183D02*
X0165991Y0076183D01*
X0166990Y0075184D02*
X0113163Y0075184D01*
X0112895Y0074186D02*
X0167988Y0074186D01*
X0163994Y0078180D02*
X0122729Y0078180D01*
X0123211Y0079178D02*
X0162996Y0079178D01*
X0161997Y0080177D02*
X0129412Y0080177D01*
X0127778Y0080177D02*
X0123211Y0080177D01*
X0131286Y0081176D02*
X0160999Y0081176D01*
X0160000Y0082174D02*
X0132150Y0082174D01*
X0132564Y0083173D02*
X0159002Y0083173D01*
X0158003Y0084171D02*
X0132676Y0084171D01*
X0132634Y0085170D02*
X0157005Y0085170D01*
X0156006Y0086168D02*
X0132220Y0086168D01*
X0131456Y0087167D02*
X0155008Y0087167D01*
X0154009Y0088165D02*
X0129822Y0088165D01*
X0127368Y0088165D02*
X0123211Y0088165D01*
X0123211Y0089164D02*
X0153010Y0089164D01*
X0152012Y0090162D02*
X0122899Y0090162D01*
X0125135Y0092944D02*
X0126283Y0091796D01*
X0127783Y0091175D01*
X0129407Y0091175D01*
X0130907Y0091796D01*
X0132055Y0092944D01*
X0132676Y0094444D01*
X0132676Y0096068D01*
X0132055Y0097568D01*
X0131895Y0097727D01*
X0131895Y0117912D01*
X0131393Y0119125D01*
X0121393Y0129125D01*
X0120464Y0130053D01*
X0119252Y0130556D01*
X0110068Y0130556D01*
X0110184Y0130623D01*
X0110575Y0131014D01*
X0110851Y0131493D01*
X0110994Y0132027D01*
X0110994Y0134756D01*
X0106835Y0134756D01*
X0106835Y0135756D01*
X0105835Y0135756D01*
X0105835Y0140309D01*
X0103500Y0140309D01*
X0102966Y0140166D01*
X0102624Y0139968D01*
X0102284Y0140309D01*
X0096053Y0140309D01*
X0096053Y0140431D01*
X0098347Y0140431D01*
X0099577Y0141662D01*
X0099577Y0152850D01*
X0098347Y0154080D01*
X0095974Y0154080D01*
X0095940Y0156981D01*
X0096495Y0157536D01*
X0096495Y0164076D01*
X0095265Y0165306D01*
X0089925Y0165306D01*
X0088695Y0164076D01*
X0088695Y0157536D01*
X0089340Y0156891D01*
X0089373Y0154080D01*
X0087158Y0154080D01*
X0085928Y0152850D01*
X0085928Y0151329D01*
X0084742Y0152272D01*
X0084742Y0155071D01*
X0083512Y0156301D01*
X0075473Y0156301D01*
X0074243Y0155071D01*
X0074243Y0149394D01*
X0075473Y0148164D01*
X0079306Y0148164D01*
X0083579Y0144763D01*
X0083916Y0144428D01*
X0084089Y0144358D01*
X0084235Y0144241D01*
X0084692Y0144110D01*
X0085131Y0143930D01*
X0085318Y0143931D01*
X0085497Y0143879D01*
X0085928Y0143928D01*
X0085928Y0141662D01*
X0087158Y0140431D01*
X0089453Y0140431D01*
X0089453Y0135385D01*
X0089442Y0134757D01*
X0089453Y0134731D01*
X0089453Y0134702D01*
X0089693Y0134121D01*
X0089924Y0133536D01*
X0089944Y0133516D01*
X0089955Y0133489D01*
X0090400Y0133044D01*
X0090837Y0132592D01*
X0090863Y0132581D01*
X0090883Y0132561D01*
X0091465Y0132320D01*
X0092041Y0132070D01*
X0092070Y0132069D01*
X0092096Y0132058D01*
X0092726Y0132058D01*
X0094196Y0132034D01*
X0094196Y0131433D01*
X0095073Y0130556D01*
X0083857Y0130556D01*
X0084742Y0131441D01*
X0084742Y0137118D01*
X0083512Y0138348D01*
X0075473Y0138348D01*
X0074243Y0137118D01*
X0074243Y0131441D01*
X0075473Y0130211D01*
X0076193Y0130211D01*
X0076193Y0124301D01*
X0075473Y0124301D01*
X0074243Y0123071D01*
X0074243Y0117394D01*
X0075473Y0116164D01*
X0078894Y0116164D01*
X0080600Y0114458D01*
X0081813Y0113956D01*
X0085928Y0113956D01*
X0085928Y0111662D01*
X0087158Y0110431D01*
X0098347Y0110431D01*
X0099577Y0111662D01*
X0099577Y0122850D01*
X0098471Y0123956D01*
X0106973Y0123956D01*
X0106903Y0123937D01*
X0106424Y0123661D01*
X0106033Y0123270D01*
X0105756Y0122791D01*
X0105613Y0122257D01*
X0105613Y0117756D01*
X0111938Y0117756D01*
X0111938Y0116756D01*
X0112938Y0116756D01*
X0112938Y0117756D01*
X0119262Y0117756D01*
X0119262Y0121922D01*
X0125295Y0115889D01*
X0125295Y0097727D01*
X0125135Y0097568D01*
X0124514Y0096068D01*
X0124514Y0094444D01*
X0125135Y0092944D01*
X0125047Y0093158D02*
X0114360Y0093158D01*
X0113362Y0094156D02*
X0124633Y0094156D01*
X0124514Y0095155D02*
X0112363Y0095155D01*
X0111365Y0096153D02*
X0124549Y0096153D01*
X0124963Y0097152D02*
X0110227Y0097152D01*
X0110653Y0099149D02*
X0125295Y0099149D01*
X0125295Y0100147D02*
X0110994Y0100147D01*
X0110994Y0101146D02*
X0125295Y0101146D01*
X0125295Y0102144D02*
X0110994Y0102144D01*
X0110994Y0103756D02*
X0106835Y0103756D01*
X0106835Y0108309D01*
X0109171Y0108309D01*
X0109705Y0108166D01*
X0110184Y0107889D01*
X0110575Y0107498D01*
X0110851Y0107019D01*
X0110994Y0106485D01*
X0110994Y0103756D01*
X0110994Y0104141D02*
X0125295Y0104141D01*
X0125295Y0103143D02*
X0106835Y0103143D01*
X0106835Y0104141D02*
X0105835Y0104141D01*
X0105835Y0105140D02*
X0106835Y0105140D01*
X0106835Y0106138D02*
X0105835Y0106138D01*
X0105835Y0107137D02*
X0106835Y0107137D01*
X0106835Y0108135D02*
X0105835Y0108135D01*
X0106903Y0110575D02*
X0107437Y0110431D01*
X0111938Y0110431D01*
X0111938Y0116756D01*
X0105613Y0116756D01*
X0105613Y0112255D01*
X0105756Y0111721D01*
X0106033Y0111242D01*
X0106424Y0110851D01*
X0106903Y0110575D01*
X0106144Y0111131D02*
X0099046Y0111131D01*
X0099577Y0112129D02*
X0105647Y0112129D01*
X0105613Y0113128D02*
X0099577Y0113128D01*
X0099577Y0114126D02*
X0105613Y0114126D01*
X0105613Y0115125D02*
X0099577Y0115125D01*
X0099577Y0116123D02*
X0105613Y0116123D01*
X0105613Y0118120D02*
X0099577Y0118120D01*
X0099577Y0117122D02*
X0111938Y0117122D01*
X0111938Y0116123D02*
X0112938Y0116123D01*
X0112938Y0116756D02*
X0112938Y0110431D01*
X0117439Y0110431D01*
X0117973Y0110575D01*
X0118451Y0110851D01*
X0118842Y0111242D01*
X0119119Y0111721D01*
X0119262Y0112255D01*
X0119262Y0116756D01*
X0112938Y0116756D01*
X0112938Y0117122D02*
X0124062Y0117122D01*
X0123064Y0118120D02*
X0119262Y0118120D01*
X0119262Y0119119D02*
X0122065Y0119119D01*
X0121067Y0120117D02*
X0119262Y0120117D01*
X0119262Y0121116D02*
X0120068Y0121116D01*
X0119262Y0116123D02*
X0125061Y0116123D01*
X0125295Y0115125D02*
X0119262Y0115125D01*
X0119262Y0114126D02*
X0125295Y0114126D01*
X0125295Y0113128D02*
X0119262Y0113128D01*
X0119228Y0112129D02*
X0125295Y0112129D01*
X0125295Y0111131D02*
X0118731Y0111131D01*
X0112938Y0111131D02*
X0111938Y0111131D01*
X0111938Y0112129D02*
X0112938Y0112129D01*
X0112938Y0113128D02*
X0111938Y0113128D01*
X0111938Y0114126D02*
X0112938Y0114126D01*
X0112938Y0115125D02*
X0111938Y0115125D01*
X0105613Y0119119D02*
X0099577Y0119119D01*
X0099577Y0120117D02*
X0105613Y0120117D01*
X0105613Y0121116D02*
X0099577Y0121116D01*
X0099577Y0122114D02*
X0105613Y0122114D01*
X0105942Y0123113D02*
X0099314Y0123113D01*
X0094528Y0131101D02*
X0084402Y0131101D01*
X0084742Y0132100D02*
X0091972Y0132100D01*
X0090346Y0133098D02*
X0084742Y0133098D01*
X0084742Y0134097D02*
X0089703Y0134097D01*
X0089448Y0135095D02*
X0084742Y0135095D01*
X0084742Y0136094D02*
X0089453Y0136094D01*
X0089453Y0137092D02*
X0084742Y0137092D01*
X0083770Y0138091D02*
X0089453Y0138091D01*
X0089453Y0139089D02*
X0065057Y0139089D01*
X0065057Y0138091D02*
X0075216Y0138091D01*
X0074243Y0137092D02*
X0065057Y0137092D01*
X0065057Y0136094D02*
X0074243Y0136094D01*
X0074243Y0135095D02*
X0065057Y0135095D01*
X0065057Y0134097D02*
X0074243Y0134097D01*
X0074243Y0133098D02*
X0065057Y0133098D01*
X0065057Y0132350D02*
X0065057Y0142756D01*
X0051253Y0142756D01*
X0051253Y0143756D01*
X0065057Y0143756D01*
X0065057Y0154162D01*
X0064914Y0154696D01*
X0064638Y0155175D01*
X0064247Y0155566D01*
X0063768Y0155843D01*
X0063234Y0155986D01*
X0051253Y0155986D01*
X0051253Y0143756D01*
X0050253Y0143756D01*
X0050253Y0155986D01*
X0038271Y0155986D01*
X0037737Y0155843D01*
X0037258Y0155566D01*
X0036867Y0155175D01*
X0036591Y0154696D01*
X0036448Y0154162D01*
X0036448Y0143756D01*
X0050253Y0143756D01*
X0050253Y0142756D01*
X0051253Y0142756D01*
X0051253Y0130526D01*
X0063234Y0130526D01*
X0063768Y0130669D01*
X0064247Y0130946D01*
X0064638Y0131337D01*
X0064914Y0131815D01*
X0065057Y0132350D01*
X0064990Y0132100D02*
X0074243Y0132100D01*
X0074583Y0131101D02*
X0064402Y0131101D01*
X0063234Y0123986D02*
X0051253Y0123986D01*
X0051253Y0111756D01*
X0065057Y0111756D01*
X0065057Y0122162D01*
X0064914Y0122696D01*
X0064638Y0123175D01*
X0064247Y0123566D01*
X0063768Y0123843D01*
X0063234Y0123986D01*
X0064674Y0123113D02*
X0074286Y0123113D01*
X0074243Y0122114D02*
X0065057Y0122114D01*
X0065057Y0121116D02*
X0074243Y0121116D01*
X0074243Y0120117D02*
X0065057Y0120117D01*
X0065057Y0119119D02*
X0074243Y0119119D01*
X0074243Y0118120D02*
X0065057Y0118120D01*
X0065057Y0117122D02*
X0074515Y0117122D01*
X0078935Y0116123D02*
X0065057Y0116123D01*
X0065057Y0115125D02*
X0079933Y0115125D01*
X0081401Y0114126D02*
X0065057Y0114126D01*
X0065057Y0113128D02*
X0085928Y0113128D01*
X0085928Y0112129D02*
X0065057Y0112129D01*
X0065057Y0110756D02*
X0051253Y0110756D01*
X0051253Y0111756D01*
X0050253Y0111756D01*
X0050253Y0123986D01*
X0038271Y0123986D01*
X0037737Y0123843D01*
X0037258Y0123566D01*
X0036867Y0123175D01*
X0036591Y0122696D01*
X0036448Y0122162D01*
X0036448Y0111756D01*
X0050253Y0111756D01*
X0050253Y0110756D01*
X0051253Y0110756D01*
X0051253Y0098526D01*
X0063234Y0098526D01*
X0063768Y0098669D01*
X0064247Y0098946D01*
X0064638Y0099337D01*
X0064914Y0099815D01*
X0065057Y0100350D01*
X0065057Y0110756D01*
X0065057Y0110132D02*
X0125295Y0110132D01*
X0125295Y0109134D02*
X0065057Y0109134D01*
X0065057Y0108135D02*
X0095253Y0108135D01*
X0094254Y0107137D02*
X0065057Y0107137D01*
X0065057Y0106138D02*
X0075264Y0106138D01*
X0074265Y0105140D02*
X0065057Y0105140D01*
X0065057Y0104141D02*
X0074243Y0104141D01*
X0074243Y0103143D02*
X0065057Y0103143D01*
X0065057Y0102144D02*
X0074243Y0102144D01*
X0074243Y0101146D02*
X0065057Y0101146D01*
X0065003Y0100147D02*
X0074243Y0100147D01*
X0074536Y0099149D02*
X0064450Y0099149D01*
X0051253Y0099149D02*
X0050253Y0099149D01*
X0050253Y0098526D02*
X0050253Y0110756D01*
X0036448Y0110756D01*
X0036448Y0100350D01*
X0036591Y0099815D01*
X0036867Y0099337D01*
X0037258Y0098946D01*
X0037737Y0098669D01*
X0038271Y0098526D01*
X0050253Y0098526D01*
X0050253Y0100147D02*
X0051253Y0100147D01*
X0051253Y0101146D02*
X0050253Y0101146D01*
X0050253Y0102144D02*
X0051253Y0102144D01*
X0051253Y0103143D02*
X0050253Y0103143D01*
X0050253Y0104141D02*
X0051253Y0104141D01*
X0051253Y0105140D02*
X0050253Y0105140D01*
X0050253Y0106138D02*
X0051253Y0106138D01*
X0051253Y0107137D02*
X0050253Y0107137D01*
X0050253Y0108135D02*
X0051253Y0108135D01*
X0051253Y0109134D02*
X0050253Y0109134D01*
X0050253Y0110132D02*
X0051253Y0110132D01*
X0051253Y0111131D02*
X0086459Y0111131D01*
X0083722Y0106138D02*
X0094196Y0106138D01*
X0102457Y0108135D02*
X0102913Y0108135D01*
X0109757Y0108135D02*
X0125295Y0108135D01*
X0125295Y0107137D02*
X0110783Y0107137D01*
X0110994Y0106138D02*
X0125295Y0106138D01*
X0125295Y0105140D02*
X0110994Y0105140D01*
X0106835Y0102144D02*
X0105835Y0102144D01*
X0105835Y0101146D02*
X0106835Y0101146D01*
X0106835Y0100147D02*
X0105835Y0100147D01*
X0105835Y0099149D02*
X0106835Y0099149D01*
X0103368Y0098150D02*
X0125295Y0098150D01*
X0131895Y0098150D02*
X0146995Y0098150D01*
X0146995Y0097152D02*
X0132227Y0097152D01*
X0132641Y0096153D02*
X0146995Y0096153D01*
X0147237Y0095155D02*
X0132676Y0095155D01*
X0132557Y0094156D02*
X0148018Y0094156D01*
X0149016Y0093158D02*
X0132143Y0093158D01*
X0131270Y0092159D02*
X0150015Y0092159D01*
X0151013Y0091161D02*
X0116357Y0091161D01*
X0115359Y0092159D02*
X0125920Y0092159D01*
X0131895Y0099149D02*
X0146995Y0099149D01*
X0146995Y0100147D02*
X0131895Y0100147D01*
X0131895Y0101146D02*
X0146995Y0101146D01*
X0146995Y0102144D02*
X0131895Y0102144D01*
X0131895Y0103143D02*
X0146995Y0103143D01*
X0146995Y0104141D02*
X0131895Y0104141D01*
X0131895Y0105140D02*
X0146995Y0105140D01*
X0146995Y0106138D02*
X0131895Y0106138D01*
X0131895Y0107137D02*
X0146995Y0107137D01*
X0146995Y0108135D02*
X0131895Y0108135D01*
X0131895Y0109134D02*
X0146995Y0109134D01*
X0146995Y0110132D02*
X0131895Y0110132D01*
X0131895Y0111131D02*
X0147143Y0111131D01*
X0147792Y0112129D02*
X0131895Y0112129D01*
X0131895Y0113128D02*
X0148790Y0113128D01*
X0149789Y0114126D02*
X0131895Y0114126D01*
X0131895Y0115125D02*
X0138591Y0115125D01*
X0138418Y0115171D02*
X0138952Y0115028D01*
X0141681Y0115028D01*
X0141681Y0119187D01*
X0137128Y0119187D01*
X0137128Y0116852D01*
X0137271Y0116318D01*
X0137548Y0115839D01*
X0137939Y0115448D01*
X0138418Y0115171D01*
X0137383Y0116123D02*
X0131895Y0116123D01*
X0131895Y0117122D02*
X0137128Y0117122D01*
X0137128Y0118120D02*
X0131809Y0118120D01*
X0131395Y0119119D02*
X0137128Y0119119D01*
X0137128Y0121116D02*
X0129402Y0121116D01*
X0130400Y0120117D02*
X0141681Y0120117D01*
X0141681Y0119119D02*
X0142681Y0119119D01*
X0142681Y0120117D02*
X0152103Y0120117D01*
X0152103Y0119119D02*
X0147234Y0119119D01*
X0147234Y0118120D02*
X0152103Y0118120D01*
X0152103Y0117122D02*
X0147234Y0117122D01*
X0146978Y0116123D02*
X0152103Y0116123D01*
X0151135Y0115125D02*
X0145771Y0115125D01*
X0142681Y0115125D02*
X0141681Y0115125D01*
X0141681Y0116123D02*
X0142681Y0116123D01*
X0142681Y0117122D02*
X0141681Y0117122D01*
X0141681Y0118120D02*
X0142681Y0118120D01*
X0147234Y0121116D02*
X0152103Y0121116D01*
X0152103Y0122114D02*
X0147234Y0122114D01*
X0147058Y0123113D02*
X0152103Y0123113D01*
X0152103Y0124112D02*
X0147234Y0124112D01*
X0147234Y0125110D02*
X0152103Y0125110D01*
X0152103Y0131223D02*
X0146607Y0131223D01*
X0146004Y0131827D01*
X0145481Y0131827D01*
X0145481Y0156956D01*
X0166618Y0156956D01*
X0155683Y0146021D01*
X0154952Y0145289D01*
X0154556Y0144334D01*
X0154556Y0134657D01*
X0153333Y0134657D01*
X0152103Y0133427D01*
X0152103Y0131223D01*
X0152103Y0132100D02*
X0145481Y0132100D01*
X0145481Y0133098D02*
X0152103Y0133098D01*
X0152773Y0134097D02*
X0145481Y0134097D01*
X0145481Y0135095D02*
X0154556Y0135095D01*
X0154556Y0136094D02*
X0145481Y0136094D01*
X0145481Y0137092D02*
X0154556Y0137092D01*
X0154556Y0138091D02*
X0145481Y0138091D01*
X0145481Y0139089D02*
X0154556Y0139089D01*
X0154556Y0140088D02*
X0145481Y0140088D01*
X0145481Y0141086D02*
X0154556Y0141086D01*
X0154556Y0142085D02*
X0145481Y0142085D01*
X0145481Y0143083D02*
X0154556Y0143083D01*
X0154556Y0144082D02*
X0145481Y0144082D01*
X0145481Y0145080D02*
X0154865Y0145080D01*
X0155683Y0146021D02*
X0155683Y0146021D01*
X0155741Y0146079D02*
X0145481Y0146079D01*
X0145481Y0147077D02*
X0156740Y0147077D01*
X0157738Y0148076D02*
X0145481Y0148076D01*
X0145481Y0149074D02*
X0158737Y0149074D01*
X0159735Y0150073D02*
X0145481Y0150073D01*
X0145481Y0151071D02*
X0160734Y0151071D01*
X0161732Y0152070D02*
X0145481Y0152070D01*
X0145481Y0153068D02*
X0162731Y0153068D01*
X0163729Y0154067D02*
X0145481Y0154067D01*
X0145481Y0155065D02*
X0164728Y0155065D01*
X0165726Y0156064D02*
X0145481Y0156064D01*
X0138881Y0156064D02*
X0095950Y0156064D01*
X0095962Y0155065D02*
X0138881Y0155065D01*
X0138881Y0154067D02*
X0117489Y0154067D01*
X0117439Y0154080D02*
X0112938Y0154080D01*
X0112938Y0147756D01*
X0119262Y0147756D01*
X0119262Y0152257D01*
X0119119Y0152791D01*
X0118842Y0153270D01*
X0118451Y0153661D01*
X0117973Y0153937D01*
X0117439Y0154080D01*
X0118959Y0153068D02*
X0138881Y0153068D01*
X0138881Y0152070D02*
X0119262Y0152070D01*
X0119262Y0151071D02*
X0138881Y0151071D01*
X0138881Y0150073D02*
X0119262Y0150073D01*
X0119262Y0149074D02*
X0138881Y0149074D01*
X0138881Y0148076D02*
X0119262Y0148076D01*
X0119262Y0146756D02*
X0112938Y0146756D01*
X0112938Y0147756D01*
X0111938Y0147756D01*
X0111938Y0154080D01*
X0107437Y0154080D01*
X0106903Y0153937D01*
X0106424Y0153661D01*
X0106033Y0153270D01*
X0105756Y0152791D01*
X0105613Y0152257D01*
X0105613Y0147756D01*
X0111938Y0147756D01*
X0111938Y0146756D01*
X0112938Y0146756D01*
X0112938Y0140431D01*
X0117439Y0140431D01*
X0117973Y0140575D01*
X0118451Y0140851D01*
X0118842Y0141242D01*
X0119119Y0141721D01*
X0119262Y0142255D01*
X0119262Y0146756D01*
X0119262Y0146079D02*
X0138881Y0146079D01*
X0138881Y0147077D02*
X0112938Y0147077D01*
X0112938Y0146079D02*
X0111938Y0146079D01*
X0111938Y0146756D02*
X0111938Y0140431D01*
X0107437Y0140431D01*
X0106903Y0140575D01*
X0106424Y0140851D01*
X0106033Y0141242D01*
X0105756Y0141721D01*
X0105613Y0142255D01*
X0105613Y0146756D01*
X0111938Y0146756D01*
X0111938Y0147077D02*
X0099577Y0147077D01*
X0099577Y0146079D02*
X0105613Y0146079D01*
X0105613Y0145080D02*
X0099577Y0145080D01*
X0099577Y0144082D02*
X0105613Y0144082D01*
X0105613Y0143083D02*
X0099577Y0143083D01*
X0099577Y0142085D02*
X0105659Y0142085D01*
X0106189Y0141086D02*
X0099002Y0141086D01*
X0102505Y0140088D02*
X0102831Y0140088D01*
X0105835Y0140088D02*
X0106835Y0140088D01*
X0106835Y0140309D02*
X0106835Y0135756D01*
X0110994Y0135756D01*
X0110994Y0138485D01*
X0110851Y0139019D01*
X0110575Y0139498D01*
X0110184Y0139889D01*
X0109705Y0140166D01*
X0109171Y0140309D01*
X0106835Y0140309D01*
X0106835Y0139089D02*
X0105835Y0139089D01*
X0105835Y0138091D02*
X0106835Y0138091D01*
X0106835Y0137092D02*
X0105835Y0137092D01*
X0105835Y0136094D02*
X0106835Y0136094D01*
X0106835Y0135095D02*
X0138881Y0135095D01*
X0138881Y0134097D02*
X0110994Y0134097D01*
X0110994Y0133098D02*
X0138881Y0133098D01*
X0138881Y0132100D02*
X0110994Y0132100D01*
X0110625Y0131101D02*
X0137633Y0131101D01*
X0137128Y0130103D02*
X0120346Y0130103D01*
X0121414Y0129104D02*
X0137128Y0129104D01*
X0137128Y0128106D02*
X0122412Y0128106D01*
X0123411Y0127107D02*
X0137128Y0127107D01*
X0137128Y0126109D02*
X0124409Y0126109D01*
X0125408Y0125110D02*
X0137128Y0125110D01*
X0137128Y0124112D02*
X0126406Y0124112D01*
X0127405Y0123113D02*
X0137304Y0123113D01*
X0137128Y0122114D02*
X0128403Y0122114D01*
X0138881Y0136094D02*
X0110994Y0136094D01*
X0110994Y0137092D02*
X0138881Y0137092D01*
X0138881Y0138091D02*
X0110994Y0138091D01*
X0110811Y0139089D02*
X0138881Y0139089D01*
X0138881Y0140088D02*
X0109840Y0140088D01*
X0111938Y0141086D02*
X0112938Y0141086D01*
X0112938Y0142085D02*
X0111938Y0142085D01*
X0111938Y0143083D02*
X0112938Y0143083D01*
X0112938Y0144082D02*
X0111938Y0144082D01*
X0111938Y0145080D02*
X0112938Y0145080D01*
X0119262Y0145080D02*
X0138881Y0145080D01*
X0138881Y0144082D02*
X0119262Y0144082D01*
X0119262Y0143083D02*
X0138881Y0143083D01*
X0138881Y0142085D02*
X0119216Y0142085D01*
X0118687Y0141086D02*
X0138881Y0141086D01*
X0157156Y0143817D02*
X0157156Y0131572D01*
X0169350Y0142334D02*
X0169713Y0142334D01*
X0169713Y0142697D01*
X0169350Y0142334D01*
X0174913Y0142334D02*
X0174913Y0142897D01*
X0176672Y0144656D01*
X0180318Y0144656D01*
X0179558Y0143896D01*
X0179162Y0142940D01*
X0179162Y0142334D01*
X0174913Y0142334D01*
X0175099Y0143083D02*
X0179221Y0143083D01*
X0179744Y0144082D02*
X0176098Y0144082D01*
X0199619Y0130103D02*
X0200437Y0130103D01*
X0200424Y0129104D02*
X0200437Y0129104D01*
X0200395Y0122114D02*
X0201510Y0122114D01*
X0208893Y0107137D02*
X0221882Y0107137D01*
X0231170Y0104556D02*
X0231170Y0112831D01*
X0244595Y0126256D01*
X0276595Y0126256D01*
X0285095Y0134756D01*
X0285095Y0141356D01*
X0285095Y0147756D01*
X0277595Y0155256D01*
X0262595Y0173256D02*
X0257595Y0168256D01*
X0262595Y0173256D02*
X0262595Y0184256D01*
X0257595Y0189256D01*
X0252675Y0192010D02*
X0252516Y0192010D01*
X0251762Y0193009D02*
X0253428Y0193009D01*
X0254433Y0194007D02*
X0250895Y0194007D01*
X0242433Y0191427D02*
X0239895Y0188889D01*
X0239895Y0183233D01*
X0242391Y0185729D01*
X0242391Y0185729D01*
X0242818Y0186156D01*
X0241995Y0188142D01*
X0241995Y0190370D01*
X0242433Y0191427D01*
X0242261Y0191012D02*
X0242018Y0191012D01*
X0241995Y0190013D02*
X0241019Y0190013D01*
X0241995Y0189015D02*
X0240021Y0189015D01*
X0239895Y0188016D02*
X0242047Y0188016D01*
X0242461Y0187018D02*
X0239895Y0187018D01*
X0239895Y0186019D02*
X0242682Y0186019D01*
X0241683Y0185021D02*
X0239895Y0185021D01*
X0239895Y0184022D02*
X0240684Y0184022D01*
X0232709Y0174037D02*
X0123695Y0174037D01*
X0123695Y0173039D02*
X0231711Y0173039D01*
X0230712Y0172040D02*
X0123529Y0172040D01*
X0123116Y0171042D02*
X0229714Y0171042D01*
X0228715Y0170043D02*
X0122181Y0170043D01*
X0119595Y0173256D02*
X0111595Y0181256D01*
X0100335Y0181256D01*
X0104994Y0184022D02*
X0115152Y0184022D01*
X0116150Y0183024D02*
X0113504Y0183024D01*
X0114503Y0182025D02*
X0117149Y0182025D01*
X0118147Y0181027D02*
X0115501Y0181027D01*
X0116500Y0180028D02*
X0119146Y0180028D01*
X0120144Y0179030D02*
X0117498Y0179030D01*
X0118497Y0178031D02*
X0120495Y0178031D01*
X0124595Y0178256D02*
X0109595Y0193256D01*
X0109161Y0190013D02*
X0104994Y0190013D01*
X0104576Y0189015D02*
X0110159Y0189015D01*
X0111158Y0188016D02*
X0065005Y0188016D01*
X0065005Y0187018D02*
X0112156Y0187018D01*
X0113155Y0186019D02*
X0104054Y0186019D01*
X0104994Y0185021D02*
X0114153Y0185021D01*
X0111143Y0178031D02*
X0104994Y0178031D01*
X0104594Y0177033D02*
X0112141Y0177033D01*
X0113140Y0176034D02*
X0109484Y0176034D01*
X0110482Y0175036D02*
X0114139Y0175036D01*
X0115137Y0174037D02*
X0111481Y0174037D01*
X0112479Y0173039D02*
X0115495Y0173039D01*
X0115661Y0172040D02*
X0113478Y0172040D01*
X0114476Y0171042D02*
X0116075Y0171042D01*
X0115475Y0170043D02*
X0117010Y0170043D01*
X0116473Y0169045D02*
X0227717Y0169045D01*
X0226718Y0168046D02*
X0117472Y0168046D01*
X0118470Y0167047D02*
X0225720Y0167047D01*
X0224721Y0166049D02*
X0119469Y0166049D01*
X0120467Y0165050D02*
X0223723Y0165050D01*
X0222724Y0164052D02*
X0121466Y0164052D01*
X0116126Y0160058D02*
X0096495Y0160058D01*
X0096495Y0161056D02*
X0115128Y0161056D01*
X0114129Y0162055D02*
X0096495Y0162055D01*
X0096495Y0163053D02*
X0113131Y0163053D01*
X0112132Y0164052D02*
X0096495Y0164052D01*
X0095520Y0165050D02*
X0111134Y0165050D01*
X0110135Y0166049D02*
X0080538Y0166049D01*
X0080538Y0167047D02*
X0109137Y0167047D01*
X0108138Y0168046D02*
X0080538Y0168046D01*
X0080538Y0169045D02*
X0107140Y0169045D01*
X0106141Y0170043D02*
X0096102Y0170043D01*
X0089088Y0170043D02*
X0086466Y0170043D01*
X0082724Y0170043D02*
X0080939Y0170043D01*
X0080155Y0165050D02*
X0089670Y0165050D01*
X0088695Y0164052D02*
X0048648Y0164052D01*
X0048648Y0163680D02*
X0048648Y0166016D01*
X0044095Y0166016D01*
X0044095Y0161857D01*
X0046824Y0161857D01*
X0047358Y0162000D01*
X0047837Y0162276D01*
X0048228Y0162667D01*
X0048505Y0163146D01*
X0048648Y0163680D01*
X0048451Y0163053D02*
X0088695Y0163053D01*
X0088695Y0162055D02*
X0047454Y0162055D01*
X0048648Y0165050D02*
X0057035Y0165050D01*
X0056653Y0166049D02*
X0044095Y0166049D01*
X0044095Y0165050D02*
X0043095Y0165050D01*
X0043095Y0164052D02*
X0044095Y0164052D01*
X0044095Y0163053D02*
X0043095Y0163053D01*
X0043095Y0162055D02*
X0044095Y0162055D01*
X0043095Y0166049D02*
X0027595Y0166049D01*
X0027595Y0167047D02*
X0038542Y0167047D01*
X0038542Y0168046D02*
X0027595Y0168046D01*
X0027595Y0169045D02*
X0038542Y0169045D01*
X0038777Y0170043D02*
X0027595Y0170043D01*
X0027595Y0171042D02*
X0038542Y0171042D01*
X0038542Y0172040D02*
X0027595Y0172040D01*
X0027595Y0173039D02*
X0038542Y0173039D01*
X0038542Y0174037D02*
X0027595Y0174037D01*
X0027595Y0175036D02*
X0038542Y0175036D01*
X0038542Y0176034D02*
X0027595Y0176034D01*
X0027595Y0177033D02*
X0038542Y0177033D01*
X0039149Y0178031D02*
X0027595Y0178031D01*
X0027595Y0179030D02*
X0056653Y0179030D01*
X0056653Y0180028D02*
X0027595Y0180028D01*
X0027595Y0181027D02*
X0056653Y0181027D01*
X0056653Y0182025D02*
X0027595Y0182025D01*
X0027595Y0183024D02*
X0056653Y0183024D01*
X0056653Y0184022D02*
X0027595Y0184022D01*
X0027595Y0185021D02*
X0056653Y0185021D01*
X0057593Y0186019D02*
X0041065Y0186019D01*
X0042794Y0187018D02*
X0058405Y0187018D01*
X0058405Y0188016D02*
X0044053Y0188016D01*
X0045052Y0189015D02*
X0057071Y0189015D01*
X0056653Y0190013D02*
X0045808Y0190013D01*
X0046385Y0191012D02*
X0056653Y0191012D01*
X0056653Y0192010D02*
X0046949Y0192010D01*
X0047217Y0193009D02*
X0056653Y0193009D01*
X0056653Y0194007D02*
X0047484Y0194007D01*
X0047695Y0195006D02*
X0056653Y0195006D01*
X0056653Y0196004D02*
X0047695Y0196004D01*
X0047695Y0197003D02*
X0056653Y0197003D01*
X0057575Y0198001D02*
X0047619Y0198001D01*
X0045522Y0202994D02*
X0396668Y0202994D01*
X0397634Y0203992D02*
X0044556Y0203992D01*
X0043558Y0204991D02*
X0398632Y0204991D01*
X0414052Y0189015D02*
X0414595Y0189015D01*
X0414595Y0188016D02*
X0413053Y0188016D01*
X0411794Y0187018D02*
X0414595Y0187018D01*
X0364162Y0184022D02*
X0354292Y0184022D01*
X0355072Y0185021D02*
X0363163Y0185021D01*
X0362165Y0186019D02*
X0355195Y0186019D01*
X0355195Y0187018D02*
X0361166Y0187018D01*
X0360168Y0188016D02*
X0355195Y0188016D01*
X0355195Y0190013D02*
X0358171Y0190013D01*
X0359169Y0189015D02*
X0349902Y0189015D01*
X0349902Y0190013D02*
X0349288Y0190013D01*
X0349288Y0191012D02*
X0349902Y0191012D01*
X0349902Y0192010D02*
X0349288Y0192010D01*
X0349288Y0193009D02*
X0349902Y0193009D01*
X0349902Y0194007D02*
X0349288Y0194007D01*
X0344393Y0194007D02*
X0342895Y0194007D01*
X0343762Y0193009D02*
X0343995Y0193009D01*
X0349288Y0188016D02*
X0349902Y0188016D01*
X0349902Y0187018D02*
X0349288Y0187018D01*
X0349288Y0186019D02*
X0349902Y0186019D01*
X0349902Y0185021D02*
X0349288Y0185021D01*
X0349288Y0184022D02*
X0349902Y0184022D01*
X0344898Y0184022D02*
X0341593Y0184022D01*
X0343280Y0185021D02*
X0344118Y0185021D01*
X0337597Y0184022D02*
X0331593Y0184022D01*
X0333280Y0185021D02*
X0335911Y0185021D01*
X0334912Y0186019D02*
X0334278Y0186019D01*
X0327597Y0184022D02*
X0321593Y0184022D01*
X0323280Y0185021D02*
X0325911Y0185021D01*
X0324912Y0186019D02*
X0324278Y0186019D01*
X0324516Y0192010D02*
X0324675Y0192010D01*
X0325428Y0193009D02*
X0323762Y0193009D01*
X0322758Y0194007D02*
X0326433Y0194007D01*
X0332758Y0194007D02*
X0336295Y0194007D01*
X0335428Y0193009D02*
X0333762Y0193009D01*
X0334516Y0192010D02*
X0334675Y0192010D01*
X0316433Y0194007D02*
X0312763Y0194007D01*
X0313762Y0193009D02*
X0315428Y0193009D01*
X0306427Y0194007D02*
X0302763Y0194007D01*
X0303762Y0193009D02*
X0305428Y0193009D01*
X0304912Y0186019D02*
X0304278Y0186019D01*
X0303280Y0185021D02*
X0305911Y0185021D01*
X0306909Y0184022D02*
X0302281Y0184022D01*
X0296909Y0184022D02*
X0270722Y0184022D01*
X0271280Y0185021D02*
X0295911Y0185021D01*
X0294912Y0186019D02*
X0272166Y0186019D01*
X0272740Y0187018D02*
X0276896Y0187018D01*
X0276542Y0188016D02*
X0273069Y0188016D01*
X0273195Y0189563D02*
X0273195Y0189697D01*
X0273057Y0190567D01*
X0272785Y0191406D01*
X0272385Y0192191D01*
X0271867Y0192904D01*
X0271243Y0193527D01*
X0270530Y0194045D01*
X0269745Y0194446D01*
X0268906Y0194718D01*
X0268036Y0194856D01*
X0267902Y0194856D01*
X0267902Y0189563D01*
X0273195Y0189563D01*
X0273145Y0190013D02*
X0276542Y0190013D01*
X0276542Y0189015D02*
X0267902Y0189015D01*
X0267902Y0190013D02*
X0267288Y0190013D01*
X0267288Y0191012D02*
X0267902Y0191012D01*
X0267902Y0192010D02*
X0267288Y0192010D01*
X0267288Y0193009D02*
X0267902Y0193009D01*
X0267902Y0194007D02*
X0267288Y0194007D01*
X0264608Y0194007D02*
X0260758Y0194007D01*
X0261762Y0193009D02*
X0263428Y0193009D01*
X0262714Y0192010D02*
X0262516Y0192010D01*
X0270583Y0194007D02*
X0276542Y0194007D01*
X0276542Y0193009D02*
X0271762Y0193009D01*
X0272477Y0192010D02*
X0276542Y0192010D01*
X0272913Y0191012D02*
X0281095Y0191012D01*
X0281095Y0190013D02*
X0282095Y0190013D01*
X0282095Y0190646D02*
X0282095Y0186093D01*
X0284824Y0186093D01*
X0285358Y0186236D01*
X0285837Y0186512D01*
X0286228Y0186903D01*
X0286505Y0187382D01*
X0286648Y0187916D01*
X0286648Y0190646D01*
X0282095Y0190646D01*
X0282095Y0191012D02*
X0293995Y0191012D01*
X0293995Y0190013D02*
X0286648Y0190013D01*
X0286648Y0189015D02*
X0293995Y0189015D01*
X0293995Y0188016D02*
X0286648Y0188016D01*
X0286294Y0187018D02*
X0293995Y0187018D01*
X0294430Y0192010D02*
X0286648Y0192010D01*
X0286648Y0193009D02*
X0295428Y0193009D01*
X0296427Y0194007D02*
X0286648Y0194007D01*
X0282095Y0189015D02*
X0281095Y0189015D01*
X0281095Y0188016D02*
X0282095Y0188016D01*
X0282095Y0187018D02*
X0281095Y0187018D01*
X0312281Y0184022D02*
X0317597Y0184022D01*
X0315911Y0185021D02*
X0313280Y0185021D01*
X0314278Y0186019D02*
X0314912Y0186019D01*
X0355195Y0191012D02*
X0357172Y0191012D01*
X0356174Y0192010D02*
X0355195Y0192010D01*
X0377228Y0124956D02*
X0285962Y0124956D01*
X0284262Y0123256D01*
X0287265Y0123256D01*
X0288495Y0122026D01*
X0288495Y0120456D01*
X0314352Y0120456D01*
X0315564Y0119953D01*
X0320495Y0115023D01*
X0320495Y0120197D01*
X0324654Y0124356D01*
X0330536Y0124356D01*
X0334695Y0120197D01*
X0334695Y0114315D01*
X0331936Y0111556D01*
X0367399Y0111556D01*
X0368711Y0112868D01*
X0369647Y0113256D01*
X0368711Y0113643D01*
X0367207Y0115148D01*
X0366393Y0117113D01*
X0366393Y0119241D01*
X0367207Y0121207D01*
X0368711Y0122711D01*
X0370677Y0123525D01*
X0378659Y0123525D01*
X0377228Y0124956D01*
X0378073Y0124112D02*
X0330780Y0124112D01*
X0331779Y0123113D02*
X0369682Y0123113D01*
X0368115Y0122114D02*
X0332777Y0122114D01*
X0333776Y0121116D02*
X0367169Y0121116D01*
X0366756Y0120117D02*
X0334695Y0120117D01*
X0334695Y0119119D02*
X0366393Y0119119D01*
X0366393Y0118120D02*
X0334695Y0118120D01*
X0334695Y0117122D02*
X0366393Y0117122D01*
X0366803Y0116123D02*
X0334695Y0116123D01*
X0334695Y0115125D02*
X0367230Y0115125D01*
X0368228Y0114126D02*
X0334507Y0114126D01*
X0333508Y0113128D02*
X0369338Y0113128D01*
X0367972Y0112129D02*
X0332509Y0112129D01*
X0320495Y0115125D02*
X0320393Y0115125D01*
X0320495Y0116123D02*
X0319395Y0116123D01*
X0318396Y0117122D02*
X0320495Y0117122D01*
X0320495Y0118120D02*
X0317397Y0118120D01*
X0316399Y0119119D02*
X0320495Y0119119D01*
X0320495Y0120117D02*
X0315169Y0120117D01*
X0321414Y0121116D02*
X0288495Y0121116D01*
X0288406Y0122114D02*
X0322413Y0122114D01*
X0323411Y0123113D02*
X0287408Y0123113D01*
X0285118Y0124112D02*
X0324410Y0124112D01*
X0313056Y0113128D02*
X0288495Y0113128D01*
X0288338Y0112129D02*
X0314055Y0112129D01*
X0315053Y0111131D02*
X0287340Y0111131D01*
X0282850Y0111131D02*
X0282340Y0111131D01*
X0274897Y0108135D02*
X0269310Y0108135D01*
X0267850Y0111131D02*
X0267340Y0111131D01*
X0262850Y0111131D02*
X0262340Y0111131D01*
X0257850Y0111131D02*
X0257340Y0111131D01*
X0255880Y0108135D02*
X0236310Y0108135D01*
X0237308Y0107137D02*
X0254882Y0107137D01*
X0254771Y0106138D02*
X0237420Y0106138D01*
X0237420Y0105140D02*
X0254771Y0105140D01*
X0254771Y0104141D02*
X0237420Y0104141D01*
X0237420Y0103143D02*
X0254771Y0103143D01*
X0254771Y0102144D02*
X0237420Y0102144D01*
X0236700Y0101146D02*
X0255491Y0101146D01*
X0251810Y0100147D02*
X0237420Y0100147D01*
X0237420Y0099149D02*
X0250811Y0099149D01*
X0249812Y0098150D02*
X0237420Y0098150D01*
X0237420Y0097152D02*
X0248814Y0097152D01*
X0247815Y0096153D02*
X0237420Y0096153D01*
X0237088Y0095155D02*
X0246817Y0095155D01*
X0251175Y0092159D02*
X0258420Y0092159D01*
X0258420Y0091161D02*
X0250177Y0091161D01*
X0249178Y0090162D02*
X0257269Y0090162D01*
X0256271Y0089164D02*
X0248919Y0089164D01*
X0249057Y0088165D02*
X0256133Y0088165D01*
X0256133Y0087167D02*
X0249057Y0087167D01*
X0249057Y0086168D02*
X0256133Y0086168D01*
X0256133Y0085170D02*
X0249057Y0085170D01*
X0249057Y0084171D02*
X0256133Y0084171D01*
X0256133Y0083173D02*
X0249057Y0083173D01*
X0249057Y0082174D02*
X0256133Y0082174D01*
X0256133Y0081176D02*
X0249057Y0081176D01*
X0249057Y0080177D02*
X0256133Y0080177D01*
X0256133Y0079178D02*
X0249057Y0079178D01*
X0249057Y0078180D02*
X0256133Y0078180D01*
X0256789Y0077181D02*
X0248402Y0077181D01*
X0240789Y0077181D02*
X0230402Y0077181D01*
X0230990Y0078180D02*
X0240133Y0078180D01*
X0240133Y0079178D02*
X0231057Y0079178D01*
X0231057Y0080177D02*
X0240133Y0080177D01*
X0240133Y0081176D02*
X0231057Y0081176D01*
X0231057Y0082174D02*
X0240133Y0082174D01*
X0240133Y0083173D02*
X0227095Y0083173D01*
X0227095Y0084171D02*
X0226095Y0084171D01*
X0226095Y0085170D02*
X0227095Y0085170D01*
X0227095Y0086168D02*
X0226095Y0086168D01*
X0226095Y0087167D02*
X0227095Y0087167D01*
X0227095Y0088165D02*
X0226095Y0088165D01*
X0226095Y0089164D02*
X0227095Y0089164D01*
X0227095Y0090162D02*
X0226095Y0090162D01*
X0229584Y0090162D02*
X0241269Y0090162D01*
X0240271Y0089164D02*
X0230800Y0089164D01*
X0231057Y0088165D02*
X0240133Y0088165D01*
X0240133Y0087167D02*
X0231057Y0087167D01*
X0231057Y0086168D02*
X0240133Y0086168D01*
X0240133Y0085170D02*
X0231057Y0085170D01*
X0231057Y0084171D02*
X0240133Y0084171D01*
X0244595Y0083431D02*
X0244595Y0089256D01*
X0253295Y0097956D01*
X0257871Y0097956D01*
X0261020Y0097956D02*
X0261020Y0084006D01*
X0260595Y0083431D01*
X0265057Y0083173D02*
X0278095Y0083173D01*
X0278095Y0082174D02*
X0279095Y0082174D01*
X0279095Y0081176D02*
X0278095Y0081176D01*
X0278095Y0080177D02*
X0279095Y0080177D01*
X0279095Y0079178D02*
X0278095Y0079178D01*
X0278095Y0078180D02*
X0279095Y0078180D01*
X0279095Y0077181D02*
X0278095Y0077181D01*
X0274789Y0077181D02*
X0264402Y0077181D01*
X0265057Y0078180D02*
X0274200Y0078180D01*
X0274133Y0079178D02*
X0265057Y0079178D01*
X0265057Y0080177D02*
X0274133Y0080177D01*
X0274133Y0081176D02*
X0265057Y0081176D01*
X0265057Y0082174D02*
X0274133Y0082174D01*
X0274133Y0084171D02*
X0265057Y0084171D01*
X0265057Y0085170D02*
X0274133Y0085170D01*
X0274133Y0086168D02*
X0265057Y0086168D01*
X0265057Y0087167D02*
X0274133Y0087167D01*
X0274133Y0088165D02*
X0265057Y0088165D01*
X0265010Y0089164D02*
X0264919Y0089164D01*
X0264012Y0090162D02*
X0263921Y0090162D01*
X0266595Y0091256D02*
X0264170Y0093681D01*
X0264170Y0097956D01*
X0267320Y0097956D02*
X0291895Y0097956D01*
X0301595Y0088256D01*
X0301595Y0069256D01*
X0321595Y0069256D01*
X0328595Y0076256D01*
X0328595Y0083431D01*
X0324133Y0083173D02*
X0313095Y0083173D01*
X0313095Y0082932D02*
X0313095Y0083931D01*
X0317057Y0083931D01*
X0317057Y0088432D01*
X0316914Y0088966D01*
X0316638Y0089445D01*
X0316247Y0089836D01*
X0315768Y0090113D01*
X0315234Y0090256D01*
X0313095Y0090256D01*
X0313095Y0083932D01*
X0312095Y0083932D01*
X0312095Y0090256D01*
X0309956Y0090256D01*
X0309422Y0090113D01*
X0308944Y0089836D01*
X0308553Y0089445D01*
X0308276Y0088966D01*
X0308133Y0088432D01*
X0308133Y0083931D01*
X0312095Y0083931D01*
X0312095Y0082932D01*
X0308133Y0082932D01*
X0308133Y0078431D01*
X0308276Y0077897D01*
X0308553Y0077418D01*
X0308944Y0077027D01*
X0309422Y0076750D01*
X0309956Y0076607D01*
X0312095Y0076607D01*
X0312095Y0082931D01*
X0313095Y0082931D01*
X0313095Y0076607D01*
X0315234Y0076607D01*
X0315768Y0076750D01*
X0316247Y0077027D01*
X0316638Y0077418D01*
X0316914Y0077897D01*
X0317057Y0078431D01*
X0317057Y0082932D01*
X0313095Y0082932D01*
X0313095Y0082174D02*
X0312095Y0082174D01*
X0312095Y0081176D02*
X0313095Y0081176D01*
X0313095Y0080177D02*
X0312095Y0080177D01*
X0312095Y0079178D02*
X0313095Y0079178D01*
X0313095Y0078180D02*
X0312095Y0078180D01*
X0312095Y0077181D02*
X0313095Y0077181D01*
X0316402Y0077181D02*
X0324789Y0077181D01*
X0324845Y0076183D02*
X0304195Y0076183D01*
X0304195Y0077181D02*
X0308789Y0077181D01*
X0308200Y0078180D02*
X0304195Y0078180D01*
X0304195Y0079178D02*
X0308133Y0079178D01*
X0308133Y0080177D02*
X0304195Y0080177D01*
X0304195Y0081176D02*
X0308133Y0081176D01*
X0308133Y0082174D02*
X0304195Y0082174D01*
X0304195Y0083173D02*
X0312095Y0083173D01*
X0312095Y0084171D02*
X0313095Y0084171D01*
X0313095Y0085170D02*
X0312095Y0085170D01*
X0312095Y0086168D02*
X0313095Y0086168D01*
X0313095Y0087167D02*
X0312095Y0087167D01*
X0312095Y0088165D02*
X0313095Y0088165D01*
X0313095Y0089164D02*
X0312095Y0089164D01*
X0312095Y0090162D02*
X0313095Y0090162D01*
X0315584Y0090162D02*
X0325269Y0090162D01*
X0324271Y0089164D02*
X0316800Y0089164D01*
X0317057Y0088165D02*
X0324133Y0088165D01*
X0324133Y0087167D02*
X0317057Y0087167D01*
X0317057Y0086168D02*
X0324133Y0086168D01*
X0324133Y0085170D02*
X0317057Y0085170D01*
X0317057Y0084171D02*
X0324133Y0084171D01*
X0324133Y0082174D02*
X0317057Y0082174D01*
X0317057Y0081176D02*
X0324133Y0081176D01*
X0324133Y0080177D02*
X0317057Y0080177D01*
X0317057Y0079178D02*
X0324133Y0079178D01*
X0324133Y0078180D02*
X0316990Y0078180D01*
X0321850Y0073187D02*
X0304195Y0073187D01*
X0304195Y0072189D02*
X0320851Y0072189D01*
X0322848Y0074186D02*
X0304195Y0074186D01*
X0304195Y0075184D02*
X0323847Y0075184D01*
X0329204Y0073187D02*
X0369240Y0073187D01*
X0368269Y0074186D02*
X0330202Y0074186D01*
X0330966Y0075184D02*
X0367270Y0075184D01*
X0366820Y0076183D02*
X0331195Y0076183D01*
X0332402Y0077181D02*
X0342789Y0077181D01*
X0342944Y0077027D02*
X0343422Y0076750D01*
X0343956Y0076607D01*
X0346095Y0076607D01*
X0346095Y0082931D01*
X0347095Y0082931D01*
X0347095Y0076607D01*
X0349234Y0076607D01*
X0349768Y0076750D01*
X0350247Y0077027D01*
X0350638Y0077418D01*
X0350914Y0077897D01*
X0351057Y0078431D01*
X0351057Y0082932D01*
X0347095Y0082932D01*
X0347095Y0083931D01*
X0351057Y0083931D01*
X0351057Y0088432D01*
X0350914Y0088966D01*
X0350638Y0089445D01*
X0350247Y0089836D01*
X0349768Y0090113D01*
X0349234Y0090256D01*
X0347095Y0090256D01*
X0347095Y0083932D01*
X0346095Y0083932D01*
X0346095Y0090256D01*
X0343956Y0090256D01*
X0343422Y0090113D01*
X0342944Y0089836D01*
X0342553Y0089445D01*
X0342276Y0088966D01*
X0342133Y0088432D01*
X0342133Y0083931D01*
X0346095Y0083931D01*
X0346095Y0082932D01*
X0342133Y0082932D01*
X0342133Y0078431D01*
X0342276Y0077897D01*
X0342553Y0077418D01*
X0342944Y0077027D01*
X0342200Y0078180D02*
X0333057Y0078180D01*
X0333057Y0079178D02*
X0342133Y0079178D01*
X0342133Y0080177D02*
X0333057Y0080177D01*
X0333057Y0081176D02*
X0342133Y0081176D01*
X0342133Y0082174D02*
X0333057Y0082174D01*
X0333057Y0083173D02*
X0346095Y0083173D01*
X0346095Y0084171D02*
X0347095Y0084171D01*
X0347095Y0083173D02*
X0355665Y0083173D01*
X0355252Y0084171D02*
X0351057Y0084171D01*
X0351057Y0085170D02*
X0355195Y0085170D01*
X0355195Y0086168D02*
X0351057Y0086168D01*
X0351057Y0087167D02*
X0355489Y0087167D01*
X0355903Y0088165D02*
X0351057Y0088165D01*
X0350800Y0089164D02*
X0356740Y0089164D01*
X0356052Y0090162D02*
X0349584Y0090162D01*
X0347095Y0090162D02*
X0346095Y0090162D01*
X0346095Y0089164D02*
X0347095Y0089164D01*
X0347095Y0088165D02*
X0346095Y0088165D01*
X0346095Y0087167D02*
X0347095Y0087167D01*
X0347095Y0086168D02*
X0346095Y0086168D01*
X0346095Y0085170D02*
X0347095Y0085170D01*
X0347095Y0082174D02*
X0346095Y0082174D01*
X0346095Y0081176D02*
X0347095Y0081176D01*
X0347095Y0080177D02*
X0346095Y0080177D01*
X0346095Y0079178D02*
X0347095Y0079178D01*
X0347095Y0078180D02*
X0346095Y0078180D01*
X0346095Y0077181D02*
X0347095Y0077181D01*
X0350402Y0077181D02*
X0366406Y0077181D01*
X0366393Y0078180D02*
X0350990Y0078180D01*
X0351057Y0079178D02*
X0366393Y0079178D01*
X0366739Y0080177D02*
X0362140Y0080177D01*
X0364026Y0081176D02*
X0367153Y0081176D01*
X0368074Y0082174D02*
X0365024Y0082174D01*
X0365525Y0083173D02*
X0369584Y0083173D01*
X0365938Y0084171D02*
X0383295Y0084171D01*
X0383295Y0083173D02*
X0380393Y0083173D01*
X0381903Y0082174D02*
X0383295Y0082174D01*
X0383295Y0081176D02*
X0382825Y0081176D01*
X0383239Y0080177D02*
X0383295Y0080177D01*
X0383295Y0076514D02*
X0383295Y0074623D01*
X0381454Y0072781D01*
X0381266Y0072968D01*
X0380331Y0073356D01*
X0381266Y0073743D01*
X0382771Y0075248D01*
X0383295Y0076514D01*
X0383295Y0076183D02*
X0383158Y0076183D01*
X0383295Y0075184D02*
X0382707Y0075184D01*
X0382858Y0074186D02*
X0381709Y0074186D01*
X0381860Y0073187D02*
X0380738Y0073187D01*
X0367932Y0072189D02*
X0328205Y0072189D01*
X0327207Y0071190D02*
X0367094Y0071190D01*
X0366680Y0070192D02*
X0326208Y0070192D01*
X0325210Y0069193D02*
X0366393Y0069193D01*
X0366393Y0068195D02*
X0324211Y0068195D01*
X0323213Y0067196D02*
X0366465Y0067196D01*
X0366879Y0066198D02*
X0291330Y0066198D01*
X0292329Y0065199D02*
X0367413Y0065199D01*
X0368411Y0064201D02*
X0293327Y0064201D01*
X0288969Y0061205D02*
X0262323Y0061205D01*
X0263015Y0060207D02*
X0289967Y0060207D01*
X0290966Y0059208D02*
X0263195Y0059208D01*
X0263195Y0058210D02*
X0291964Y0058210D01*
X0290670Y0057211D02*
X0282521Y0057211D01*
X0282638Y0057094D02*
X0282247Y0057485D01*
X0281768Y0057762D01*
X0281234Y0057905D01*
X0279095Y0057905D01*
X0279095Y0051580D01*
X0283057Y0051580D01*
X0283057Y0056081D01*
X0282914Y0056615D01*
X0282638Y0057094D01*
X0283022Y0056213D02*
X0290133Y0056213D01*
X0290133Y0055214D02*
X0283057Y0055214D01*
X0283057Y0054216D02*
X0290133Y0054216D01*
X0290133Y0053217D02*
X0283057Y0053217D01*
X0283057Y0052219D02*
X0290133Y0052219D01*
X0290133Y0051220D02*
X0279095Y0051220D01*
X0279095Y0051580D02*
X0279095Y0050580D01*
X0279095Y0044256D01*
X0281234Y0044256D01*
X0281768Y0044399D01*
X0282247Y0044675D01*
X0282638Y0045066D01*
X0282914Y0045545D01*
X0283057Y0046079D01*
X0283057Y0050580D01*
X0279095Y0050580D01*
X0278095Y0050580D01*
X0278095Y0044256D01*
X0275956Y0044256D01*
X0275422Y0044399D01*
X0274944Y0044675D01*
X0274553Y0045066D01*
X0274276Y0045545D01*
X0274133Y0046079D01*
X0274133Y0050580D01*
X0278095Y0050580D01*
X0278095Y0051580D01*
X0274133Y0051580D01*
X0274133Y0056081D01*
X0274276Y0056615D01*
X0274553Y0057094D01*
X0274944Y0057485D01*
X0275422Y0057762D01*
X0275956Y0057905D01*
X0278095Y0057905D01*
X0278095Y0051580D01*
X0279095Y0051580D01*
X0279095Y0052219D02*
X0278095Y0052219D01*
X0278095Y0053217D02*
X0279095Y0053217D01*
X0279095Y0054216D02*
X0278095Y0054216D01*
X0278095Y0055214D02*
X0279095Y0055214D01*
X0279095Y0056213D02*
X0278095Y0056213D01*
X0278095Y0057211D02*
X0279095Y0057211D01*
X0274670Y0057211D02*
X0264521Y0057211D01*
X0265057Y0056213D02*
X0274168Y0056213D01*
X0274133Y0055214D02*
X0265057Y0055214D01*
X0265057Y0054216D02*
X0274133Y0054216D01*
X0274133Y0053217D02*
X0265057Y0053217D01*
X0265057Y0052219D02*
X0274133Y0052219D01*
X0274133Y0050222D02*
X0265057Y0050222D01*
X0265057Y0051220D02*
X0278095Y0051220D01*
X0278095Y0050222D02*
X0279095Y0050222D01*
X0279095Y0049223D02*
X0278095Y0049223D01*
X0278095Y0048225D02*
X0279095Y0048225D01*
X0279095Y0047226D02*
X0278095Y0047226D01*
X0278095Y0046228D02*
X0279095Y0046228D01*
X0279095Y0045229D02*
X0278095Y0045229D01*
X0274459Y0045229D02*
X0264800Y0045229D01*
X0265057Y0046228D02*
X0274133Y0046228D01*
X0274133Y0047226D02*
X0265057Y0047226D01*
X0265057Y0048225D02*
X0274133Y0048225D01*
X0274133Y0049223D02*
X0265057Y0049223D01*
X0256133Y0052219D02*
X0249057Y0052219D01*
X0249057Y0053217D02*
X0256133Y0053217D01*
X0256133Y0054216D02*
X0249057Y0054216D01*
X0249057Y0055214D02*
X0256133Y0055214D01*
X0256133Y0056213D02*
X0249057Y0056213D01*
X0248521Y0057211D02*
X0256670Y0057211D01*
X0257964Y0058210D02*
X0247195Y0058210D01*
X0247015Y0059208D02*
X0256966Y0059208D01*
X0255967Y0060207D02*
X0246321Y0060207D01*
X0260326Y0063202D02*
X0286972Y0063202D01*
X0287970Y0062204D02*
X0261324Y0062204D01*
X0283057Y0050222D02*
X0290133Y0050222D01*
X0290133Y0049223D02*
X0283057Y0049223D01*
X0283057Y0048225D02*
X0290133Y0048225D01*
X0290133Y0047226D02*
X0283057Y0047226D01*
X0283057Y0046228D02*
X0290133Y0046228D01*
X0290390Y0045229D02*
X0282732Y0045229D01*
X0299057Y0052219D02*
X0308133Y0052219D01*
X0308133Y0053217D02*
X0299057Y0053217D01*
X0299057Y0054216D02*
X0308133Y0054216D01*
X0308133Y0055214D02*
X0299057Y0055214D01*
X0299057Y0056213D02*
X0308168Y0056213D01*
X0308670Y0057211D02*
X0298521Y0057211D01*
X0312095Y0049223D02*
X0313095Y0049223D01*
X0313095Y0048225D02*
X0312095Y0048225D01*
X0312095Y0047226D02*
X0313095Y0047226D01*
X0313095Y0046228D02*
X0312095Y0046228D01*
X0312095Y0045229D02*
X0313095Y0045229D01*
X0333057Y0052219D02*
X0342133Y0052219D01*
X0342133Y0053217D02*
X0333057Y0053217D01*
X0333057Y0054216D02*
X0342133Y0054216D01*
X0342133Y0055214D02*
X0333057Y0055214D01*
X0333057Y0056213D02*
X0342168Y0056213D01*
X0342670Y0057211D02*
X0332521Y0057211D01*
X0346095Y0049223D02*
X0347095Y0049223D01*
X0347095Y0048225D02*
X0346095Y0048225D01*
X0346095Y0047226D02*
X0347095Y0047226D01*
X0347095Y0046228D02*
X0346095Y0046228D01*
X0346095Y0045229D02*
X0347095Y0045229D01*
X0301595Y0069256D02*
X0188595Y0069256D01*
X0166014Y0091837D01*
X0166014Y0103817D01*
X0169164Y0103817D02*
X0169164Y0092687D01*
X0187595Y0074256D01*
X0212595Y0074256D01*
X0209722Y0077181D02*
X0209174Y0077181D01*
X0209587Y0078180D02*
X0211355Y0078180D01*
X0216235Y0076183D02*
X0298995Y0076183D01*
X0298995Y0077181D02*
X0298402Y0077181D01*
X0298995Y0075184D02*
X0216648Y0075184D01*
X0216695Y0074186D02*
X0298995Y0074186D01*
X0298995Y0073187D02*
X0216590Y0073187D01*
X0216177Y0072189D02*
X0298995Y0072189D01*
X0290789Y0077181D02*
X0282402Y0077181D01*
X0282990Y0078180D02*
X0290133Y0078180D01*
X0290133Y0079178D02*
X0283057Y0079178D01*
X0283057Y0080177D02*
X0290133Y0080177D01*
X0290133Y0081176D02*
X0283057Y0081176D01*
X0283057Y0082174D02*
X0290133Y0082174D01*
X0290133Y0083173D02*
X0279095Y0083173D01*
X0283057Y0084171D02*
X0290133Y0084171D01*
X0290133Y0085170D02*
X0283057Y0085170D01*
X0283057Y0086168D02*
X0290133Y0086168D01*
X0290133Y0087167D02*
X0283057Y0087167D01*
X0283057Y0088165D02*
X0290133Y0088165D01*
X0291595Y0091256D02*
X0294595Y0088256D01*
X0294595Y0083431D01*
X0304195Y0084171D02*
X0308133Y0084171D01*
X0308133Y0085170D02*
X0304195Y0085170D01*
X0304195Y0086168D02*
X0308133Y0086168D01*
X0308133Y0087167D02*
X0304195Y0087167D01*
X0304195Y0088165D02*
X0308133Y0088165D01*
X0308390Y0089164D02*
X0304033Y0089164D01*
X0303366Y0090162D02*
X0309606Y0090162D01*
X0306265Y0095155D02*
X0316878Y0095155D01*
X0315879Y0096153D02*
X0307141Y0096153D01*
X0307555Y0097152D02*
X0314881Y0097152D01*
X0313882Y0098150D02*
X0307676Y0098150D01*
X0307643Y0099149D02*
X0312884Y0099149D01*
X0311885Y0100147D02*
X0307229Y0100147D01*
X0306477Y0101146D02*
X0310887Y0101146D01*
X0309888Y0102144D02*
X0304872Y0102144D01*
X0302385Y0103143D02*
X0308890Y0103143D01*
X0307891Y0104141D02*
X0301387Y0104141D01*
X0300388Y0105140D02*
X0306893Y0105140D01*
X0312533Y0107137D02*
X0319047Y0107137D01*
X0318049Y0108135D02*
X0311534Y0108135D01*
X0310536Y0109134D02*
X0317050Y0109134D01*
X0316052Y0110132D02*
X0309537Y0110132D01*
X0313531Y0106138D02*
X0320046Y0106138D01*
X0321495Y0105140D02*
X0314530Y0105140D01*
X0315528Y0104141D02*
X0355998Y0104141D01*
X0355584Y0103143D02*
X0316527Y0103143D01*
X0317525Y0102144D02*
X0355195Y0102144D01*
X0355195Y0101146D02*
X0318524Y0101146D01*
X0319522Y0100147D02*
X0326325Y0100147D01*
X0324716Y0099149D02*
X0320521Y0099149D01*
X0317877Y0094156D02*
X0299372Y0094156D01*
X0300370Y0093158D02*
X0324922Y0093158D01*
X0330268Y0093158D02*
X0355195Y0093158D01*
X0355195Y0094156D02*
X0331143Y0094156D01*
X0331556Y0095155D02*
X0355537Y0095155D01*
X0355950Y0096153D02*
X0331676Y0096153D01*
X0331641Y0097152D02*
X0356854Y0097152D01*
X0355984Y0098150D02*
X0331228Y0098150D01*
X0330474Y0099149D02*
X0355571Y0099149D01*
X0355195Y0100147D02*
X0328865Y0100147D01*
X0331921Y0090162D02*
X0343606Y0090162D01*
X0342390Y0089164D02*
X0332919Y0089164D01*
X0333057Y0088165D02*
X0342133Y0088165D01*
X0342133Y0087167D02*
X0333057Y0087167D01*
X0333057Y0086168D02*
X0342133Y0086168D01*
X0342133Y0085170D02*
X0333057Y0085170D01*
X0333057Y0084171D02*
X0342133Y0084171D01*
X0351057Y0082174D02*
X0356166Y0082174D01*
X0357165Y0081176D02*
X0351057Y0081176D01*
X0351057Y0080177D02*
X0359050Y0080177D01*
X0365995Y0085170D02*
X0383295Y0085170D01*
X0383295Y0086168D02*
X0365995Y0086168D01*
X0365701Y0087167D02*
X0383295Y0087167D01*
X0383295Y0088165D02*
X0365287Y0088165D01*
X0364450Y0089164D02*
X0383295Y0089164D01*
X0383295Y0090162D02*
X0365138Y0090162D01*
X0365572Y0091161D02*
X0383295Y0091161D01*
X0383295Y0092159D02*
X0365986Y0092159D01*
X0365995Y0093158D02*
X0383295Y0093158D01*
X0383295Y0094156D02*
X0365995Y0094156D01*
X0365654Y0095155D02*
X0383295Y0095155D01*
X0383295Y0096153D02*
X0365240Y0096153D01*
X0364336Y0097152D02*
X0383295Y0097152D01*
X0383295Y0098150D02*
X0365206Y0098150D01*
X0365619Y0099149D02*
X0383295Y0099149D01*
X0383295Y0100147D02*
X0365995Y0100147D01*
X0365995Y0101146D02*
X0383295Y0101146D01*
X0383295Y0102144D02*
X0365995Y0102144D01*
X0365606Y0103143D02*
X0370300Y0103143D01*
X0368371Y0104141D02*
X0365193Y0104141D01*
X0379678Y0103143D02*
X0383295Y0103143D01*
X0383295Y0104141D02*
X0381607Y0104141D01*
X0382605Y0105140D02*
X0383295Y0105140D01*
X0383295Y0106138D02*
X0383116Y0106138D01*
X0383295Y0110098D02*
X0382771Y0111364D01*
X0381266Y0112868D01*
X0380331Y0113256D01*
X0381266Y0113643D01*
X0382771Y0115148D01*
X0383295Y0116414D01*
X0383295Y0110098D01*
X0383295Y0110132D02*
X0383281Y0110132D01*
X0383295Y0111131D02*
X0382867Y0111131D01*
X0383295Y0112129D02*
X0382005Y0112129D01*
X0383295Y0113128D02*
X0380640Y0113128D01*
X0381749Y0114126D02*
X0383295Y0114126D01*
X0383295Y0115125D02*
X0382748Y0115125D01*
X0383175Y0116123D02*
X0383295Y0116123D01*
X0355205Y0092159D02*
X0301369Y0092159D01*
X0302367Y0091161D02*
X0355618Y0091161D01*
X0303595Y0098256D02*
X0297295Y0104556D01*
X0267320Y0104556D01*
X0264170Y0104556D01*
X0261020Y0104556D01*
X0257871Y0104556D01*
X0252850Y0111131D02*
X0252340Y0111131D01*
X0247850Y0111131D02*
X0233770Y0111131D01*
X0233770Y0110132D02*
X0272900Y0110132D01*
X0272432Y0111131D02*
X0272340Y0111131D01*
X0273899Y0109134D02*
X0233770Y0109134D01*
X0234146Y0112129D02*
X0246852Y0112129D01*
X0246695Y0113128D02*
X0235144Y0113128D01*
X0236143Y0114126D02*
X0246695Y0114126D01*
X0246695Y0115125D02*
X0237141Y0115125D01*
X0238140Y0116123D02*
X0246695Y0116123D01*
X0246695Y0117122D02*
X0239138Y0117122D01*
X0240137Y0118120D02*
X0246695Y0118120D01*
X0246695Y0119119D02*
X0241135Y0119119D01*
X0242134Y0120117D02*
X0246695Y0120117D01*
X0246695Y0121116D02*
X0243132Y0121116D01*
X0244131Y0122114D02*
X0246784Y0122114D01*
X0247782Y0123113D02*
X0245129Y0123113D01*
X0252408Y0123113D02*
X0252782Y0123113D01*
X0257408Y0123113D02*
X0257782Y0123113D01*
X0262408Y0123113D02*
X0262782Y0123113D01*
X0267408Y0123113D02*
X0267782Y0123113D01*
X0272408Y0123113D02*
X0272782Y0123113D01*
X0269700Y0101146D02*
X0297028Y0101146D01*
X0298027Y0100147D02*
X0293381Y0100147D01*
X0294379Y0099149D02*
X0299025Y0099149D01*
X0299514Y0098150D02*
X0295378Y0098150D01*
X0296376Y0097152D02*
X0299635Y0097152D01*
X0300049Y0096153D02*
X0297375Y0096153D01*
X0298373Y0095155D02*
X0300925Y0095155D01*
X0292464Y0093710D02*
X0292112Y0093856D01*
X0267672Y0093856D01*
X0267272Y0094256D01*
X0269189Y0094256D01*
X0270289Y0095356D01*
X0290818Y0095356D01*
X0292464Y0093710D01*
X0292018Y0094156D02*
X0267372Y0094156D01*
X0270088Y0095155D02*
X0291019Y0095155D01*
X0291595Y0091256D02*
X0266595Y0091256D01*
X0258420Y0093158D02*
X0252174Y0093158D01*
X0253172Y0094156D02*
X0258420Y0094156D01*
X0255102Y0095155D02*
X0254171Y0095155D01*
X0231170Y0095155D02*
X0231170Y0095155D01*
X0231170Y0094256D02*
X0231170Y0097956D01*
X0231170Y0097956D01*
X0228020Y0097956D01*
X0228020Y0097956D01*
X0228070Y0097956D01*
X0231170Y0097956D01*
X0231170Y0097956D01*
X0231170Y0094256D01*
X0231170Y0096153D02*
X0231170Y0096153D01*
X0231170Y0097152D02*
X0231170Y0097152D01*
X0228020Y0097152D02*
X0228020Y0097152D01*
X0228020Y0096153D02*
X0228020Y0096153D01*
X0228020Y0095155D02*
X0228020Y0095155D01*
X0224871Y0095155D02*
X0224871Y0095155D01*
X0224871Y0096153D02*
X0224871Y0096153D01*
X0224871Y0097152D02*
X0224871Y0097152D01*
X0205595Y0079256D02*
X0186595Y0079256D01*
X0172313Y0093538D01*
X0172313Y0103817D01*
X0159780Y0105140D02*
X0159756Y0105140D01*
X0159756Y0106138D02*
X0159780Y0106138D01*
X0157156Y0109525D02*
X0157156Y0092695D01*
X0154556Y0094972D02*
X0152195Y0097333D01*
X0152195Y0107579D01*
X0153333Y0106441D01*
X0154556Y0106441D01*
X0154556Y0094972D01*
X0154556Y0095155D02*
X0154373Y0095155D01*
X0154556Y0096153D02*
X0153375Y0096153D01*
X0152376Y0097152D02*
X0154556Y0097152D01*
X0154556Y0098150D02*
X0152195Y0098150D01*
X0152195Y0099149D02*
X0154556Y0099149D01*
X0154556Y0100147D02*
X0152195Y0100147D01*
X0152195Y0101146D02*
X0154556Y0101146D01*
X0154556Y0102144D02*
X0152195Y0102144D01*
X0152195Y0103143D02*
X0154556Y0103143D01*
X0154556Y0104141D02*
X0152195Y0104141D01*
X0152195Y0105140D02*
X0154556Y0105140D01*
X0154556Y0106138D02*
X0152195Y0106138D01*
X0152195Y0107137D02*
X0152637Y0107137D01*
X0157156Y0118974D02*
X0157156Y0118974D01*
X0109021Y0089164D02*
X0107266Y0089164D01*
X0107266Y0088165D02*
X0110019Y0088165D01*
X0111018Y0087167D02*
X0107266Y0087167D01*
X0107266Y0086168D02*
X0111924Y0086168D01*
X0111924Y0085170D02*
X0107266Y0085170D01*
X0107266Y0084171D02*
X0111924Y0084171D01*
X0111817Y0083173D02*
X0107266Y0083173D01*
X0107266Y0082174D02*
X0110819Y0082174D01*
X0109820Y0081176D02*
X0107266Y0081176D01*
X0107266Y0080177D02*
X0108822Y0080177D01*
X0107823Y0079178D02*
X0107266Y0079178D01*
X0106825Y0078180D02*
X0106784Y0078180D01*
X0095979Y0088165D02*
X0027595Y0088165D01*
X0027595Y0087167D02*
X0088810Y0087167D01*
X0084656Y0083173D02*
X0079261Y0083173D01*
X0081529Y0082174D02*
X0083657Y0082174D01*
X0082659Y0081176D02*
X0082527Y0081176D01*
X0095979Y0089164D02*
X0027595Y0089164D01*
X0027595Y0090162D02*
X0096291Y0090162D01*
X0099026Y0093158D02*
X0027595Y0093158D01*
X0027595Y0094156D02*
X0098028Y0094156D01*
X0097029Y0095155D02*
X0027595Y0095155D01*
X0027595Y0096153D02*
X0096046Y0096153D01*
X0095633Y0097152D02*
X0027595Y0097152D01*
X0027595Y0098150D02*
X0095555Y0098150D01*
X0099798Y0092387D02*
X0099798Y0092387D01*
X0100025Y0092159D02*
X0027595Y0092159D01*
X0027595Y0091161D02*
X0101444Y0091161D01*
X0106954Y0090162D02*
X0108022Y0090162D01*
X0085928Y0120556D02*
X0084742Y0120556D01*
X0084742Y0123071D01*
X0083857Y0123956D01*
X0087034Y0123956D01*
X0085928Y0122850D01*
X0085928Y0120556D01*
X0085928Y0121116D02*
X0084742Y0121116D01*
X0084742Y0122114D02*
X0085928Y0122114D01*
X0086191Y0123113D02*
X0084700Y0123113D01*
X0076193Y0125110D02*
X0027595Y0125110D01*
X0027595Y0124112D02*
X0075284Y0124112D01*
X0076193Y0126109D02*
X0027595Y0126109D01*
X0027595Y0127107D02*
X0076193Y0127107D01*
X0076193Y0128106D02*
X0027595Y0128106D01*
X0027595Y0129104D02*
X0076193Y0129104D01*
X0076193Y0130103D02*
X0027595Y0130103D01*
X0027595Y0131101D02*
X0037103Y0131101D01*
X0037258Y0130946D02*
X0037737Y0130669D01*
X0038271Y0130526D01*
X0050253Y0130526D01*
X0050253Y0142756D01*
X0036448Y0142756D01*
X0036448Y0132350D01*
X0036591Y0131815D01*
X0036867Y0131337D01*
X0037258Y0130946D01*
X0036515Y0132100D02*
X0027595Y0132100D01*
X0027595Y0133098D02*
X0036448Y0133098D01*
X0036448Y0134097D02*
X0027595Y0134097D01*
X0027595Y0135095D02*
X0036448Y0135095D01*
X0036448Y0136094D02*
X0027595Y0136094D01*
X0027595Y0137092D02*
X0036448Y0137092D01*
X0036448Y0138091D02*
X0027595Y0138091D01*
X0027595Y0139089D02*
X0036448Y0139089D01*
X0036448Y0140088D02*
X0027595Y0140088D01*
X0027595Y0141086D02*
X0036448Y0141086D01*
X0036448Y0142085D02*
X0027595Y0142085D01*
X0027595Y0143083D02*
X0050253Y0143083D01*
X0050253Y0142085D02*
X0051253Y0142085D01*
X0051253Y0143083D02*
X0085928Y0143083D01*
X0085928Y0142085D02*
X0065057Y0142085D01*
X0065057Y0141086D02*
X0086504Y0141086D01*
X0089453Y0140088D02*
X0065057Y0140088D01*
X0065057Y0144082D02*
X0084761Y0144082D01*
X0083181Y0145080D02*
X0065057Y0145080D01*
X0065057Y0146079D02*
X0081926Y0146079D01*
X0080671Y0147077D02*
X0065057Y0147077D01*
X0065057Y0148076D02*
X0079416Y0148076D01*
X0074563Y0149074D02*
X0065057Y0149074D01*
X0065057Y0150073D02*
X0074243Y0150073D01*
X0074243Y0151071D02*
X0065057Y0151071D01*
X0065057Y0152070D02*
X0074243Y0152070D01*
X0074243Y0153068D02*
X0065057Y0153068D01*
X0065057Y0154067D02*
X0074243Y0154067D01*
X0074243Y0155065D02*
X0064701Y0155065D01*
X0075236Y0156064D02*
X0027595Y0156064D01*
X0027595Y0157062D02*
X0089169Y0157062D01*
X0089350Y0156064D02*
X0083749Y0156064D01*
X0084742Y0155065D02*
X0089362Y0155065D01*
X0087145Y0154067D02*
X0084742Y0154067D01*
X0084742Y0153068D02*
X0086146Y0153068D01*
X0085928Y0152070D02*
X0084997Y0152070D01*
X0088695Y0158061D02*
X0027595Y0158061D01*
X0027595Y0159059D02*
X0088695Y0159059D01*
X0088695Y0160058D02*
X0027595Y0160058D01*
X0027595Y0161056D02*
X0088695Y0161056D01*
X0096495Y0159059D02*
X0117125Y0159059D01*
X0118123Y0158061D02*
X0096495Y0158061D01*
X0096021Y0157062D02*
X0119682Y0157062D01*
X0112938Y0154067D02*
X0111938Y0154067D01*
X0111938Y0153068D02*
X0112938Y0153068D01*
X0112938Y0152070D02*
X0111938Y0152070D01*
X0111938Y0151071D02*
X0112938Y0151071D01*
X0112938Y0150073D02*
X0111938Y0150073D01*
X0111938Y0149074D02*
X0112938Y0149074D01*
X0112938Y0148076D02*
X0111938Y0148076D01*
X0105613Y0148076D02*
X0099577Y0148076D01*
X0099577Y0149074D02*
X0105613Y0149074D01*
X0105613Y0150073D02*
X0099577Y0150073D01*
X0099577Y0151071D02*
X0105613Y0151071D01*
X0105613Y0152070D02*
X0099577Y0152070D01*
X0099359Y0153068D02*
X0105917Y0153068D01*
X0107387Y0154067D02*
X0098360Y0154067D01*
X0070815Y0165050D02*
X0066375Y0165050D01*
X0066758Y0166049D02*
X0070432Y0166049D01*
X0070432Y0167047D02*
X0066758Y0167047D01*
X0066758Y0168046D02*
X0070432Y0168046D01*
X0070432Y0169045D02*
X0066758Y0169045D01*
X0066758Y0170043D02*
X0070031Y0170043D01*
X0069032Y0171042D02*
X0066758Y0171042D01*
X0066758Y0172040D02*
X0068034Y0172040D01*
X0067035Y0173039D02*
X0066758Y0173039D01*
X0066037Y0174037D02*
X0065800Y0174037D01*
X0065038Y0175036D02*
X0060593Y0175036D01*
X0059594Y0176034D02*
X0064040Y0176034D01*
X0056653Y0178031D02*
X0048042Y0178031D01*
X0048414Y0170043D02*
X0056251Y0170043D01*
X0056653Y0169045D02*
X0048648Y0169045D01*
X0048648Y0168046D02*
X0056653Y0168046D01*
X0056653Y0167047D02*
X0048648Y0167047D01*
X0039736Y0162055D02*
X0027595Y0162055D01*
X0027595Y0163053D02*
X0038739Y0163053D01*
X0038542Y0164052D02*
X0027595Y0164052D01*
X0027595Y0165050D02*
X0038542Y0165050D01*
X0036804Y0155065D02*
X0027595Y0155065D01*
X0027595Y0154067D02*
X0036448Y0154067D01*
X0036448Y0153068D02*
X0027595Y0153068D01*
X0027595Y0152070D02*
X0036448Y0152070D01*
X0036448Y0151071D02*
X0027595Y0151071D01*
X0027595Y0150073D02*
X0036448Y0150073D01*
X0036448Y0149074D02*
X0027595Y0149074D01*
X0027595Y0148076D02*
X0036448Y0148076D01*
X0036448Y0147077D02*
X0027595Y0147077D01*
X0027595Y0146079D02*
X0036448Y0146079D01*
X0036448Y0145080D02*
X0027595Y0145080D01*
X0027595Y0144082D02*
X0036448Y0144082D01*
X0050253Y0144082D02*
X0051253Y0144082D01*
X0051253Y0145080D02*
X0050253Y0145080D01*
X0050253Y0146079D02*
X0051253Y0146079D01*
X0051253Y0147077D02*
X0050253Y0147077D01*
X0050253Y0148076D02*
X0051253Y0148076D01*
X0051253Y0149074D02*
X0050253Y0149074D01*
X0050253Y0150073D02*
X0051253Y0150073D01*
X0051253Y0151071D02*
X0050253Y0151071D01*
X0050253Y0152070D02*
X0051253Y0152070D01*
X0051253Y0153068D02*
X0050253Y0153068D01*
X0050253Y0154067D02*
X0051253Y0154067D01*
X0051253Y0155065D02*
X0050253Y0155065D01*
X0050253Y0141086D02*
X0051253Y0141086D01*
X0051253Y0140088D02*
X0050253Y0140088D01*
X0050253Y0139089D02*
X0051253Y0139089D01*
X0051253Y0138091D02*
X0050253Y0138091D01*
X0050253Y0137092D02*
X0051253Y0137092D01*
X0051253Y0136094D02*
X0050253Y0136094D01*
X0050253Y0135095D02*
X0051253Y0135095D01*
X0051253Y0134097D02*
X0050253Y0134097D01*
X0050253Y0133098D02*
X0051253Y0133098D01*
X0051253Y0132100D02*
X0050253Y0132100D01*
X0050253Y0131101D02*
X0051253Y0131101D01*
X0051253Y0123113D02*
X0050253Y0123113D01*
X0050253Y0122114D02*
X0051253Y0122114D01*
X0051253Y0121116D02*
X0050253Y0121116D01*
X0050253Y0120117D02*
X0051253Y0120117D01*
X0051253Y0119119D02*
X0050253Y0119119D01*
X0050253Y0118120D02*
X0051253Y0118120D01*
X0051253Y0117122D02*
X0050253Y0117122D01*
X0050784Y0117224D02*
X0050753Y0111256D01*
X0050253Y0111131D02*
X0027595Y0111131D01*
X0027595Y0112129D02*
X0036448Y0112129D01*
X0036448Y0113128D02*
X0027595Y0113128D01*
X0027595Y0114126D02*
X0036448Y0114126D01*
X0036448Y0115125D02*
X0027595Y0115125D01*
X0027595Y0116123D02*
X0036448Y0116123D01*
X0036448Y0117122D02*
X0027595Y0117122D01*
X0027595Y0118120D02*
X0036448Y0118120D01*
X0036448Y0119119D02*
X0027595Y0119119D01*
X0027595Y0120117D02*
X0036448Y0120117D01*
X0036448Y0121116D02*
X0027595Y0121116D01*
X0027595Y0122114D02*
X0036448Y0122114D01*
X0036832Y0123113D02*
X0027595Y0123113D01*
X0027595Y0110132D02*
X0036448Y0110132D01*
X0036448Y0109134D02*
X0027595Y0109134D01*
X0027595Y0108135D02*
X0036448Y0108135D01*
X0036448Y0107137D02*
X0027595Y0107137D01*
X0027595Y0106138D02*
X0036448Y0106138D01*
X0036448Y0105140D02*
X0027595Y0105140D01*
X0027595Y0104141D02*
X0036448Y0104141D01*
X0036448Y0103143D02*
X0027595Y0103143D01*
X0027595Y0102144D02*
X0036448Y0102144D01*
X0036448Y0101146D02*
X0027595Y0101146D01*
X0027595Y0100147D02*
X0036502Y0100147D01*
X0037055Y0099149D02*
X0027595Y0099149D01*
X0050253Y0112129D02*
X0051253Y0112129D01*
X0051253Y0113128D02*
X0050253Y0113128D01*
X0050253Y0114126D02*
X0051253Y0114126D01*
X0051253Y0115125D02*
X0050253Y0115125D01*
X0050253Y0116123D02*
X0051253Y0116123D01*
X0049835Y0082174D02*
X0027595Y0082174D01*
X0027595Y0081176D02*
X0048663Y0081176D01*
X0047850Y0080177D02*
X0027595Y0080177D01*
X0027595Y0079178D02*
X0047310Y0079178D01*
X0046949Y0078180D02*
X0027595Y0078180D01*
X0027595Y0077181D02*
X0046745Y0077181D01*
X0046684Y0076183D02*
X0027595Y0076183D01*
X0027595Y0075184D02*
X0046684Y0075184D01*
X0046684Y0074186D02*
X0027595Y0074186D01*
X0027595Y0073187D02*
X0046684Y0073187D01*
X0046684Y0072189D02*
X0027595Y0072189D01*
X0027595Y0071190D02*
X0049684Y0071190D01*
X0046684Y0070192D02*
X0027595Y0070192D01*
X0027595Y0069193D02*
X0046684Y0069193D01*
X0046684Y0068195D02*
X0027595Y0068195D01*
X0027595Y0067196D02*
X0046684Y0067196D01*
X0046684Y0066198D02*
X0027595Y0066198D01*
X0027595Y0065199D02*
X0046762Y0065199D01*
X0046984Y0064201D02*
X0027595Y0064201D01*
X0027595Y0063202D02*
X0047364Y0063202D01*
X0047944Y0062204D02*
X0027595Y0062204D01*
X0027595Y0061205D02*
X0048794Y0061205D01*
X0050061Y0060207D02*
X0027595Y0060207D01*
X0053484Y0060207D02*
X0054084Y0060207D01*
X0054084Y0061205D02*
X0053484Y0061205D01*
X0065295Y0059208D02*
X0065895Y0059208D01*
X0065895Y0058210D02*
X0065295Y0058210D01*
X0065295Y0057211D02*
X0065895Y0057211D01*
X0072463Y0059208D02*
X0075867Y0059208D01*
X0115541Y0054216D02*
X0159196Y0054216D01*
X0159196Y0055214D02*
X0116539Y0055214D01*
X0116616Y0056213D02*
X0159196Y0056213D01*
X0159329Y0057211D02*
X0116616Y0057211D01*
X0153082Y0047226D02*
X0222133Y0047226D01*
X0222133Y0046228D02*
X0153569Y0046228D01*
X0153569Y0045229D02*
X0222459Y0045229D01*
X0226095Y0045229D02*
X0227095Y0045229D01*
X0227095Y0046228D02*
X0226095Y0046228D01*
X0226095Y0047226D02*
X0227095Y0047226D01*
X0227095Y0048225D02*
X0226095Y0048225D01*
X0226095Y0049223D02*
X0227095Y0049223D01*
X0231057Y0049223D02*
X0240133Y0049223D01*
X0240133Y0048225D02*
X0231057Y0048225D01*
X0231057Y0047226D02*
X0240133Y0047226D01*
X0240133Y0046228D02*
X0231057Y0046228D01*
X0230732Y0045229D02*
X0240390Y0045229D01*
X0183964Y0058210D02*
X0175195Y0058210D01*
X0175195Y0059208D02*
X0182966Y0059208D01*
X0181967Y0060207D02*
X0175195Y0060207D01*
X0175195Y0061205D02*
X0180969Y0061205D01*
X0179970Y0062204D02*
X0175341Y0062204D01*
X0176182Y0063202D02*
X0178972Y0063202D01*
X0177973Y0064201D02*
X0176596Y0064201D01*
X0176695Y0065199D02*
X0176975Y0065199D01*
X0169849Y0062204D02*
X0165341Y0062204D01*
X0165195Y0061205D02*
X0169995Y0061205D01*
X0169995Y0060207D02*
X0165195Y0060207D01*
X0165195Y0059208D02*
X0169995Y0059208D01*
X0167807Y0058210D02*
X0167383Y0058210D01*
X0166182Y0063202D02*
X0169008Y0063202D01*
X0168594Y0064201D02*
X0166596Y0064201D01*
X0075871Y0174309D02*
X0075099Y0174309D01*
X0073205Y0176203D01*
X0077765Y0176203D01*
X0075871Y0174309D01*
X0076598Y0175036D02*
X0074372Y0175036D01*
X0073374Y0176034D02*
X0077596Y0176034D01*
X0080110Y0177006D02*
X0080538Y0177433D01*
X0080538Y0178656D01*
X0088196Y0178656D01*
X0088196Y0177433D01*
X0088623Y0177006D01*
X0087093Y0177006D01*
X0086918Y0177182D01*
X0085411Y0177806D01*
X0083780Y0177806D01*
X0082273Y0177182D01*
X0082097Y0177006D01*
X0080110Y0177006D01*
X0080137Y0177033D02*
X0082124Y0177033D01*
X0080538Y0178031D02*
X0088196Y0178031D01*
X0088597Y0177033D02*
X0087067Y0177033D01*
X0092855Y0181256D02*
X0075485Y0181256D01*
X0070432Y0181027D02*
X0068381Y0181027D01*
X0067383Y0182025D02*
X0070432Y0182025D01*
X0070432Y0183024D02*
X0066758Y0183024D01*
X0066758Y0184022D02*
X0070432Y0184022D01*
X0070432Y0185021D02*
X0066758Y0185021D01*
X0065817Y0186019D02*
X0071373Y0186019D01*
X0070851Y0189015D02*
X0066340Y0189015D01*
X0066758Y0190013D02*
X0070432Y0190013D01*
X0070432Y0191012D02*
X0066758Y0191012D01*
X0066758Y0192010D02*
X0070432Y0192010D01*
X0070432Y0193009D02*
X0066758Y0193009D01*
X0066758Y0194007D02*
X0070432Y0194007D01*
X0070432Y0195006D02*
X0066758Y0195006D01*
X0066758Y0196004D02*
X0070432Y0196004D01*
X0070432Y0197003D02*
X0066758Y0197003D01*
X0065835Y0198001D02*
X0071355Y0198001D01*
X0075485Y0193256D02*
X0092855Y0193256D01*
X0088196Y0196004D02*
X0080538Y0196004D01*
X0080538Y0197003D02*
X0088196Y0197003D01*
X0089119Y0198001D02*
X0079615Y0198001D01*
X0080538Y0190013D02*
X0088196Y0190013D01*
X0088614Y0189015D02*
X0080119Y0189015D01*
X0079597Y0186019D02*
X0089137Y0186019D01*
X0088196Y0185021D02*
X0080538Y0185021D01*
X0080538Y0184022D02*
X0088196Y0184022D01*
X0096573Y0186019D02*
X0096617Y0186019D01*
X0096591Y0198001D02*
X0096599Y0198001D01*
X0070432Y0180028D02*
X0069380Y0180028D01*
X0070378Y0179030D02*
X0070432Y0179030D01*
X0032126Y0186019D02*
X0027595Y0186019D01*
X0027595Y0187018D02*
X0030396Y0187018D01*
X0029137Y0188016D02*
X0027595Y0188016D01*
X0027595Y0189015D02*
X0028139Y0189015D01*
D36*
X0157095Y0119056D02*
X0157156Y0118995D01*
X0157156Y0118974D01*
X0190295Y0115756D02*
X0190595Y0115756D01*
X0190620Y0115781D01*
X0190620Y0115824D01*
X0190595Y0115756D02*
X0207095Y0115756D01*
X0214595Y0123256D01*
X0214595Y0128256D01*
X0212888Y0129963D01*
X0206474Y0129963D01*
X0227995Y0098656D02*
X0227995Y0097256D01*
X0228020Y0097281D01*
X0228020Y0097956D01*
X0227995Y0097256D02*
X0227995Y0092656D01*
X0226595Y0091256D01*
X0226595Y0083431D01*
X0226595Y0083256D01*
D37*
X0212595Y0074256D03*
X0205595Y0079256D03*
X0197595Y0084256D03*
X0204595Y0089256D03*
X0191595Y0094256D03*
X0172595Y0065256D03*
X0162595Y0065256D03*
X0119595Y0173256D03*
X0124595Y0178256D03*
X0084595Y0173706D03*
D38*
X0128595Y0095256D03*
X0128595Y0084256D03*
X0303595Y0098256D03*
X0327595Y0096256D03*
D39*
X0405595Y0039256D03*
X0405595Y0196256D03*
X0036595Y0196256D03*
X0036595Y0039256D03*
M02*
