%
M48
M72
T01C0.02362
T02C0.02400
T03C0.02800
T04C0.03200
T05C0.03228
T06C0.04000
T07C0.04331
T08C0.12598
%
T01
X128595Y84256
X128595Y95256
X303595Y98256
X327595Y96256
T02
X212595Y74256
X205595Y79256
X197595Y84256
X204595Y89256
X191595Y94256
X172595Y65256
X162595Y65256
X119595Y173256
X124595Y178256
X84595Y173706
T03
X360595Y101130
X360595Y93256
X360595Y85382
T04
X77406Y76768
X77406Y75980
X77406Y75193
X77406Y74406
X77406Y73618
X77406Y72831
X77406Y72043
X77406Y71256
X77406Y70469
X77406Y69681
X77406Y68894
X77406Y68106
X77406Y67319
X77406Y66531
X77406Y65744
X71107Y52358
X70320Y52358
X69532Y52358
X68745Y52358
X67957Y52358
X67170Y52358
X66383Y52358
X65595Y52358
X64808Y52358
X64020Y52358
X63233Y52358
X62446Y52358
X61658Y52358
X60871Y52358
X60083Y52358
X53784Y65744
X53784Y66531
X53784Y67319
X53784Y68106
X53784Y68894
X53784Y69681
X53784Y70469
X53784Y71256
X53784Y72043
X53784Y72831
X53784Y73618
X53784Y74406
X53784Y75193
X53784Y75980
X53784Y76768
T05
X247595Y179256
X257595Y179256
X267595Y179256
X267595Y189256
X257595Y189256
X247595Y189256
X299595Y189256
X309595Y189256
X319595Y189256
X329595Y189256
X339595Y189256
X349595Y189256
T06
X327595Y147256
X327595Y117256
T07
X374989Y118177
X374989Y108335
X374989Y78277
X374989Y68435
X374989Y157335
X374989Y167177
T08
X36595Y39256
X36595Y39256
X36595Y196217
X36595Y196256
X405595Y196256
X405595Y196217
X405595Y39256
X405595Y39256
M30
