G75*
%MOIN*%
%OFA0B0*%
%FSLAX25Y25*%
%IPPOS*%
%LPD*%
%AMOC8*
5,1,8,0,0,1.08239X$1,22.5*
%
%ADD10C,0.01000*%
%ADD11C,0.00000*%
%ADD12C,0.00700*%
%ADD13R,0.08268X0.01181*%
%ADD14C,0.00400*%
%ADD15C,0.00500*%
%ADD16R,0.06600X0.01300*%
%ADD17C,0.00600*%
%ADD18C,0.00300*%
D10*
X0037401Y0027256D02*
X0404142Y0027256D01*
X0404467Y0027260D01*
X0404792Y0027272D01*
X0405117Y0027291D01*
X0405440Y0027319D01*
X0405764Y0027354D01*
X0406086Y0027397D01*
X0406407Y0027448D01*
X0406727Y0027507D01*
X0407045Y0027573D01*
X0407362Y0027647D01*
X0407676Y0027729D01*
X0407989Y0027818D01*
X0408300Y0027914D01*
X0408607Y0028019D01*
X0408913Y0028130D01*
X0409215Y0028249D01*
X0409515Y0028375D01*
X0409812Y0028509D01*
X0410105Y0028649D01*
X0410394Y0028797D01*
X0410680Y0028952D01*
X0410963Y0029113D01*
X0411241Y0029281D01*
X0411515Y0029456D01*
X0411785Y0029638D01*
X0412050Y0029825D01*
X0412311Y0030020D01*
X0412567Y0030220D01*
X0412818Y0030427D01*
X0413064Y0030640D01*
X0413304Y0030858D01*
X0413540Y0031082D01*
X0413770Y0031312D01*
X0413994Y0031548D01*
X0414212Y0031788D01*
X0414425Y0032034D01*
X0414632Y0032285D01*
X0414832Y0032541D01*
X0415027Y0032802D01*
X0415214Y0033067D01*
X0415396Y0033337D01*
X0415571Y0033611D01*
X0415739Y0033889D01*
X0415900Y0034172D01*
X0416055Y0034458D01*
X0416203Y0034747D01*
X0416343Y0035040D01*
X0416477Y0035337D01*
X0416603Y0035637D01*
X0416722Y0035939D01*
X0416833Y0036245D01*
X0416938Y0036552D01*
X0417034Y0036863D01*
X0417123Y0037176D01*
X0417205Y0037490D01*
X0417279Y0037807D01*
X0417345Y0038125D01*
X0417404Y0038445D01*
X0417455Y0038766D01*
X0417498Y0039088D01*
X0417533Y0039412D01*
X0417561Y0039735D01*
X0417580Y0040060D01*
X0417592Y0040385D01*
X0417596Y0040710D01*
X0417595Y0040710D02*
X0417595Y0195450D01*
X0417591Y0195759D01*
X0417580Y0196069D01*
X0417561Y0196378D01*
X0417535Y0196686D01*
X0417502Y0196994D01*
X0417461Y0197300D01*
X0417412Y0197606D01*
X0417356Y0197910D01*
X0417293Y0198213D01*
X0417223Y0198515D01*
X0417145Y0198814D01*
X0417060Y0199112D01*
X0416968Y0199407D01*
X0416869Y0199700D01*
X0416763Y0199991D01*
X0416650Y0200279D01*
X0416529Y0200564D01*
X0416402Y0200846D01*
X0416269Y0201126D01*
X0416128Y0201401D01*
X0415981Y0201674D01*
X0415827Y0201942D01*
X0415667Y0202207D01*
X0415501Y0202468D01*
X0415328Y0202725D01*
X0415149Y0202977D01*
X0414964Y0203225D01*
X0414774Y0203469D01*
X0414577Y0203708D01*
X0414374Y0203942D01*
X0414166Y0204171D01*
X0413953Y0204395D01*
X0413734Y0204614D01*
X0413510Y0204827D01*
X0413281Y0205035D01*
X0413047Y0205238D01*
X0412808Y0205435D01*
X0412564Y0205625D01*
X0412316Y0205810D01*
X0412064Y0205989D01*
X0411807Y0206162D01*
X0411546Y0206328D01*
X0411281Y0206488D01*
X0411013Y0206642D01*
X0410740Y0206789D01*
X0410465Y0206930D01*
X0410185Y0207063D01*
X0409903Y0207190D01*
X0409618Y0207311D01*
X0409330Y0207424D01*
X0409039Y0207530D01*
X0408746Y0207629D01*
X0408451Y0207721D01*
X0408153Y0207806D01*
X0407854Y0207884D01*
X0407552Y0207954D01*
X0407249Y0208017D01*
X0406945Y0208073D01*
X0406639Y0208122D01*
X0406333Y0208163D01*
X0406025Y0208196D01*
X0405717Y0208222D01*
X0405408Y0208241D01*
X0405098Y0208252D01*
X0404789Y0208256D01*
X0037401Y0208256D01*
X0037092Y0208252D01*
X0036782Y0208241D01*
X0036473Y0208222D01*
X0036165Y0208196D01*
X0035857Y0208163D01*
X0035551Y0208122D01*
X0035245Y0208073D01*
X0034941Y0208017D01*
X0034638Y0207954D01*
X0034336Y0207884D01*
X0034037Y0207806D01*
X0033739Y0207721D01*
X0033444Y0207629D01*
X0033151Y0207530D01*
X0032860Y0207424D01*
X0032572Y0207311D01*
X0032287Y0207190D01*
X0032005Y0207063D01*
X0031725Y0206930D01*
X0031450Y0206789D01*
X0031177Y0206642D01*
X0030909Y0206488D01*
X0030644Y0206328D01*
X0030383Y0206162D01*
X0030126Y0205989D01*
X0029874Y0205810D01*
X0029626Y0205625D01*
X0029382Y0205435D01*
X0029143Y0205238D01*
X0028909Y0205035D01*
X0028680Y0204827D01*
X0028456Y0204614D01*
X0028237Y0204395D01*
X0028024Y0204171D01*
X0027816Y0203942D01*
X0027613Y0203708D01*
X0027416Y0203469D01*
X0027226Y0203225D01*
X0027041Y0202977D01*
X0026862Y0202725D01*
X0026689Y0202468D01*
X0026523Y0202207D01*
X0026363Y0201942D01*
X0026209Y0201674D01*
X0026062Y0201401D01*
X0025921Y0201126D01*
X0025788Y0200846D01*
X0025661Y0200564D01*
X0025540Y0200279D01*
X0025427Y0199991D01*
X0025321Y0199700D01*
X0025222Y0199407D01*
X0025130Y0199112D01*
X0025045Y0198814D01*
X0024967Y0198515D01*
X0024897Y0198213D01*
X0024834Y0197910D01*
X0024778Y0197606D01*
X0024729Y0197300D01*
X0024688Y0196994D01*
X0024655Y0196686D01*
X0024629Y0196378D01*
X0024610Y0196069D01*
X0024599Y0195759D01*
X0024595Y0195450D01*
X0024595Y0040062D01*
X0024599Y0039753D01*
X0024610Y0039443D01*
X0024629Y0039134D01*
X0024655Y0038826D01*
X0024688Y0038518D01*
X0024729Y0038212D01*
X0024778Y0037906D01*
X0024834Y0037602D01*
X0024897Y0037299D01*
X0024967Y0036997D01*
X0025045Y0036698D01*
X0025130Y0036400D01*
X0025222Y0036105D01*
X0025321Y0035812D01*
X0025427Y0035521D01*
X0025540Y0035233D01*
X0025661Y0034948D01*
X0025788Y0034666D01*
X0025921Y0034386D01*
X0026062Y0034111D01*
X0026209Y0033838D01*
X0026363Y0033570D01*
X0026523Y0033305D01*
X0026689Y0033044D01*
X0026862Y0032787D01*
X0027041Y0032535D01*
X0027226Y0032287D01*
X0027416Y0032043D01*
X0027613Y0031804D01*
X0027816Y0031570D01*
X0028024Y0031341D01*
X0028237Y0031117D01*
X0028456Y0030898D01*
X0028680Y0030685D01*
X0028909Y0030477D01*
X0029143Y0030274D01*
X0029382Y0030077D01*
X0029626Y0029887D01*
X0029874Y0029702D01*
X0030126Y0029523D01*
X0030383Y0029350D01*
X0030644Y0029184D01*
X0030909Y0029024D01*
X0031177Y0028870D01*
X0031450Y0028723D01*
X0031725Y0028582D01*
X0032005Y0028449D01*
X0032287Y0028322D01*
X0032572Y0028201D01*
X0032860Y0028088D01*
X0033151Y0027982D01*
X0033444Y0027883D01*
X0033739Y0027791D01*
X0034037Y0027706D01*
X0034336Y0027628D01*
X0034638Y0027558D01*
X0034941Y0027495D01*
X0035245Y0027439D01*
X0035551Y0027390D01*
X0035857Y0027349D01*
X0036165Y0027316D01*
X0036473Y0027290D01*
X0036782Y0027271D01*
X0037092Y0027260D01*
X0037401Y0027256D01*
X0340839Y0132059D02*
X0346351Y0132059D01*
X0343595Y0136980D01*
X0340839Y0132059D01*
D11*
X0399296Y0196217D02*
X0399298Y0196375D01*
X0399304Y0196533D01*
X0399314Y0196691D01*
X0399328Y0196849D01*
X0399346Y0197006D01*
X0399367Y0197163D01*
X0399393Y0197319D01*
X0399423Y0197475D01*
X0399456Y0197630D01*
X0399494Y0197783D01*
X0399535Y0197936D01*
X0399580Y0198088D01*
X0399629Y0198239D01*
X0399682Y0198388D01*
X0399738Y0198536D01*
X0399798Y0198682D01*
X0399862Y0198827D01*
X0399930Y0198970D01*
X0400001Y0199112D01*
X0400075Y0199252D01*
X0400153Y0199389D01*
X0400235Y0199525D01*
X0400319Y0199659D01*
X0400408Y0199790D01*
X0400499Y0199919D01*
X0400594Y0200046D01*
X0400691Y0200171D01*
X0400792Y0200293D01*
X0400896Y0200412D01*
X0401003Y0200529D01*
X0401113Y0200643D01*
X0401226Y0200754D01*
X0401341Y0200863D01*
X0401459Y0200968D01*
X0401580Y0201070D01*
X0401703Y0201170D01*
X0401829Y0201266D01*
X0401957Y0201359D01*
X0402087Y0201449D01*
X0402220Y0201535D01*
X0402355Y0201619D01*
X0402491Y0201698D01*
X0402630Y0201775D01*
X0402771Y0201847D01*
X0402913Y0201917D01*
X0403057Y0201982D01*
X0403203Y0202044D01*
X0403350Y0202102D01*
X0403499Y0202157D01*
X0403649Y0202208D01*
X0403800Y0202255D01*
X0403952Y0202298D01*
X0404105Y0202337D01*
X0404260Y0202373D01*
X0404415Y0202404D01*
X0404571Y0202432D01*
X0404727Y0202456D01*
X0404884Y0202476D01*
X0405042Y0202492D01*
X0405199Y0202504D01*
X0405358Y0202512D01*
X0405516Y0202516D01*
X0405674Y0202516D01*
X0405832Y0202512D01*
X0405991Y0202504D01*
X0406148Y0202492D01*
X0406306Y0202476D01*
X0406463Y0202456D01*
X0406619Y0202432D01*
X0406775Y0202404D01*
X0406930Y0202373D01*
X0407085Y0202337D01*
X0407238Y0202298D01*
X0407390Y0202255D01*
X0407541Y0202208D01*
X0407691Y0202157D01*
X0407840Y0202102D01*
X0407987Y0202044D01*
X0408133Y0201982D01*
X0408277Y0201917D01*
X0408419Y0201847D01*
X0408560Y0201775D01*
X0408699Y0201698D01*
X0408835Y0201619D01*
X0408970Y0201535D01*
X0409103Y0201449D01*
X0409233Y0201359D01*
X0409361Y0201266D01*
X0409487Y0201170D01*
X0409610Y0201070D01*
X0409731Y0200968D01*
X0409849Y0200863D01*
X0409964Y0200754D01*
X0410077Y0200643D01*
X0410187Y0200529D01*
X0410294Y0200412D01*
X0410398Y0200293D01*
X0410499Y0200171D01*
X0410596Y0200046D01*
X0410691Y0199919D01*
X0410782Y0199790D01*
X0410871Y0199659D01*
X0410955Y0199525D01*
X0411037Y0199389D01*
X0411115Y0199252D01*
X0411189Y0199112D01*
X0411260Y0198970D01*
X0411328Y0198827D01*
X0411392Y0198682D01*
X0411452Y0198536D01*
X0411508Y0198388D01*
X0411561Y0198239D01*
X0411610Y0198088D01*
X0411655Y0197936D01*
X0411696Y0197783D01*
X0411734Y0197630D01*
X0411767Y0197475D01*
X0411797Y0197319D01*
X0411823Y0197163D01*
X0411844Y0197006D01*
X0411862Y0196849D01*
X0411876Y0196691D01*
X0411886Y0196533D01*
X0411892Y0196375D01*
X0411894Y0196217D01*
X0411892Y0196059D01*
X0411886Y0195901D01*
X0411876Y0195743D01*
X0411862Y0195585D01*
X0411844Y0195428D01*
X0411823Y0195271D01*
X0411797Y0195115D01*
X0411767Y0194959D01*
X0411734Y0194804D01*
X0411696Y0194651D01*
X0411655Y0194498D01*
X0411610Y0194346D01*
X0411561Y0194195D01*
X0411508Y0194046D01*
X0411452Y0193898D01*
X0411392Y0193752D01*
X0411328Y0193607D01*
X0411260Y0193464D01*
X0411189Y0193322D01*
X0411115Y0193182D01*
X0411037Y0193045D01*
X0410955Y0192909D01*
X0410871Y0192775D01*
X0410782Y0192644D01*
X0410691Y0192515D01*
X0410596Y0192388D01*
X0410499Y0192263D01*
X0410398Y0192141D01*
X0410294Y0192022D01*
X0410187Y0191905D01*
X0410077Y0191791D01*
X0409964Y0191680D01*
X0409849Y0191571D01*
X0409731Y0191466D01*
X0409610Y0191364D01*
X0409487Y0191264D01*
X0409361Y0191168D01*
X0409233Y0191075D01*
X0409103Y0190985D01*
X0408970Y0190899D01*
X0408835Y0190815D01*
X0408699Y0190736D01*
X0408560Y0190659D01*
X0408419Y0190587D01*
X0408277Y0190517D01*
X0408133Y0190452D01*
X0407987Y0190390D01*
X0407840Y0190332D01*
X0407691Y0190277D01*
X0407541Y0190226D01*
X0407390Y0190179D01*
X0407238Y0190136D01*
X0407085Y0190097D01*
X0406930Y0190061D01*
X0406775Y0190030D01*
X0406619Y0190002D01*
X0406463Y0189978D01*
X0406306Y0189958D01*
X0406148Y0189942D01*
X0405991Y0189930D01*
X0405832Y0189922D01*
X0405674Y0189918D01*
X0405516Y0189918D01*
X0405358Y0189922D01*
X0405199Y0189930D01*
X0405042Y0189942D01*
X0404884Y0189958D01*
X0404727Y0189978D01*
X0404571Y0190002D01*
X0404415Y0190030D01*
X0404260Y0190061D01*
X0404105Y0190097D01*
X0403952Y0190136D01*
X0403800Y0190179D01*
X0403649Y0190226D01*
X0403499Y0190277D01*
X0403350Y0190332D01*
X0403203Y0190390D01*
X0403057Y0190452D01*
X0402913Y0190517D01*
X0402771Y0190587D01*
X0402630Y0190659D01*
X0402491Y0190736D01*
X0402355Y0190815D01*
X0402220Y0190899D01*
X0402087Y0190985D01*
X0401957Y0191075D01*
X0401829Y0191168D01*
X0401703Y0191264D01*
X0401580Y0191364D01*
X0401459Y0191466D01*
X0401341Y0191571D01*
X0401226Y0191680D01*
X0401113Y0191791D01*
X0401003Y0191905D01*
X0400896Y0192022D01*
X0400792Y0192141D01*
X0400691Y0192263D01*
X0400594Y0192388D01*
X0400499Y0192515D01*
X0400408Y0192644D01*
X0400319Y0192775D01*
X0400235Y0192909D01*
X0400153Y0193045D01*
X0400075Y0193182D01*
X0400001Y0193322D01*
X0399930Y0193464D01*
X0399862Y0193607D01*
X0399798Y0193752D01*
X0399738Y0193898D01*
X0399682Y0194046D01*
X0399629Y0194195D01*
X0399580Y0194346D01*
X0399535Y0194498D01*
X0399494Y0194651D01*
X0399456Y0194804D01*
X0399423Y0194959D01*
X0399393Y0195115D01*
X0399367Y0195271D01*
X0399346Y0195428D01*
X0399328Y0195585D01*
X0399314Y0195743D01*
X0399304Y0195901D01*
X0399298Y0196059D01*
X0399296Y0196217D01*
X0399296Y0039256D02*
X0399298Y0039414D01*
X0399304Y0039572D01*
X0399314Y0039730D01*
X0399328Y0039888D01*
X0399346Y0040045D01*
X0399367Y0040202D01*
X0399393Y0040358D01*
X0399423Y0040514D01*
X0399456Y0040669D01*
X0399494Y0040822D01*
X0399535Y0040975D01*
X0399580Y0041127D01*
X0399629Y0041278D01*
X0399682Y0041427D01*
X0399738Y0041575D01*
X0399798Y0041721D01*
X0399862Y0041866D01*
X0399930Y0042009D01*
X0400001Y0042151D01*
X0400075Y0042291D01*
X0400153Y0042428D01*
X0400235Y0042564D01*
X0400319Y0042698D01*
X0400408Y0042829D01*
X0400499Y0042958D01*
X0400594Y0043085D01*
X0400691Y0043210D01*
X0400792Y0043332D01*
X0400896Y0043451D01*
X0401003Y0043568D01*
X0401113Y0043682D01*
X0401226Y0043793D01*
X0401341Y0043902D01*
X0401459Y0044007D01*
X0401580Y0044109D01*
X0401703Y0044209D01*
X0401829Y0044305D01*
X0401957Y0044398D01*
X0402087Y0044488D01*
X0402220Y0044574D01*
X0402355Y0044658D01*
X0402491Y0044737D01*
X0402630Y0044814D01*
X0402771Y0044886D01*
X0402913Y0044956D01*
X0403057Y0045021D01*
X0403203Y0045083D01*
X0403350Y0045141D01*
X0403499Y0045196D01*
X0403649Y0045247D01*
X0403800Y0045294D01*
X0403952Y0045337D01*
X0404105Y0045376D01*
X0404260Y0045412D01*
X0404415Y0045443D01*
X0404571Y0045471D01*
X0404727Y0045495D01*
X0404884Y0045515D01*
X0405042Y0045531D01*
X0405199Y0045543D01*
X0405358Y0045551D01*
X0405516Y0045555D01*
X0405674Y0045555D01*
X0405832Y0045551D01*
X0405991Y0045543D01*
X0406148Y0045531D01*
X0406306Y0045515D01*
X0406463Y0045495D01*
X0406619Y0045471D01*
X0406775Y0045443D01*
X0406930Y0045412D01*
X0407085Y0045376D01*
X0407238Y0045337D01*
X0407390Y0045294D01*
X0407541Y0045247D01*
X0407691Y0045196D01*
X0407840Y0045141D01*
X0407987Y0045083D01*
X0408133Y0045021D01*
X0408277Y0044956D01*
X0408419Y0044886D01*
X0408560Y0044814D01*
X0408699Y0044737D01*
X0408835Y0044658D01*
X0408970Y0044574D01*
X0409103Y0044488D01*
X0409233Y0044398D01*
X0409361Y0044305D01*
X0409487Y0044209D01*
X0409610Y0044109D01*
X0409731Y0044007D01*
X0409849Y0043902D01*
X0409964Y0043793D01*
X0410077Y0043682D01*
X0410187Y0043568D01*
X0410294Y0043451D01*
X0410398Y0043332D01*
X0410499Y0043210D01*
X0410596Y0043085D01*
X0410691Y0042958D01*
X0410782Y0042829D01*
X0410871Y0042698D01*
X0410955Y0042564D01*
X0411037Y0042428D01*
X0411115Y0042291D01*
X0411189Y0042151D01*
X0411260Y0042009D01*
X0411328Y0041866D01*
X0411392Y0041721D01*
X0411452Y0041575D01*
X0411508Y0041427D01*
X0411561Y0041278D01*
X0411610Y0041127D01*
X0411655Y0040975D01*
X0411696Y0040822D01*
X0411734Y0040669D01*
X0411767Y0040514D01*
X0411797Y0040358D01*
X0411823Y0040202D01*
X0411844Y0040045D01*
X0411862Y0039888D01*
X0411876Y0039730D01*
X0411886Y0039572D01*
X0411892Y0039414D01*
X0411894Y0039256D01*
X0411892Y0039098D01*
X0411886Y0038940D01*
X0411876Y0038782D01*
X0411862Y0038624D01*
X0411844Y0038467D01*
X0411823Y0038310D01*
X0411797Y0038154D01*
X0411767Y0037998D01*
X0411734Y0037843D01*
X0411696Y0037690D01*
X0411655Y0037537D01*
X0411610Y0037385D01*
X0411561Y0037234D01*
X0411508Y0037085D01*
X0411452Y0036937D01*
X0411392Y0036791D01*
X0411328Y0036646D01*
X0411260Y0036503D01*
X0411189Y0036361D01*
X0411115Y0036221D01*
X0411037Y0036084D01*
X0410955Y0035948D01*
X0410871Y0035814D01*
X0410782Y0035683D01*
X0410691Y0035554D01*
X0410596Y0035427D01*
X0410499Y0035302D01*
X0410398Y0035180D01*
X0410294Y0035061D01*
X0410187Y0034944D01*
X0410077Y0034830D01*
X0409964Y0034719D01*
X0409849Y0034610D01*
X0409731Y0034505D01*
X0409610Y0034403D01*
X0409487Y0034303D01*
X0409361Y0034207D01*
X0409233Y0034114D01*
X0409103Y0034024D01*
X0408970Y0033938D01*
X0408835Y0033854D01*
X0408699Y0033775D01*
X0408560Y0033698D01*
X0408419Y0033626D01*
X0408277Y0033556D01*
X0408133Y0033491D01*
X0407987Y0033429D01*
X0407840Y0033371D01*
X0407691Y0033316D01*
X0407541Y0033265D01*
X0407390Y0033218D01*
X0407238Y0033175D01*
X0407085Y0033136D01*
X0406930Y0033100D01*
X0406775Y0033069D01*
X0406619Y0033041D01*
X0406463Y0033017D01*
X0406306Y0032997D01*
X0406148Y0032981D01*
X0405991Y0032969D01*
X0405832Y0032961D01*
X0405674Y0032957D01*
X0405516Y0032957D01*
X0405358Y0032961D01*
X0405199Y0032969D01*
X0405042Y0032981D01*
X0404884Y0032997D01*
X0404727Y0033017D01*
X0404571Y0033041D01*
X0404415Y0033069D01*
X0404260Y0033100D01*
X0404105Y0033136D01*
X0403952Y0033175D01*
X0403800Y0033218D01*
X0403649Y0033265D01*
X0403499Y0033316D01*
X0403350Y0033371D01*
X0403203Y0033429D01*
X0403057Y0033491D01*
X0402913Y0033556D01*
X0402771Y0033626D01*
X0402630Y0033698D01*
X0402491Y0033775D01*
X0402355Y0033854D01*
X0402220Y0033938D01*
X0402087Y0034024D01*
X0401957Y0034114D01*
X0401829Y0034207D01*
X0401703Y0034303D01*
X0401580Y0034403D01*
X0401459Y0034505D01*
X0401341Y0034610D01*
X0401226Y0034719D01*
X0401113Y0034830D01*
X0401003Y0034944D01*
X0400896Y0035061D01*
X0400792Y0035180D01*
X0400691Y0035302D01*
X0400594Y0035427D01*
X0400499Y0035554D01*
X0400408Y0035683D01*
X0400319Y0035814D01*
X0400235Y0035948D01*
X0400153Y0036084D01*
X0400075Y0036221D01*
X0400001Y0036361D01*
X0399930Y0036503D01*
X0399862Y0036646D01*
X0399798Y0036791D01*
X0399738Y0036937D01*
X0399682Y0037085D01*
X0399629Y0037234D01*
X0399580Y0037385D01*
X0399535Y0037537D01*
X0399494Y0037690D01*
X0399456Y0037843D01*
X0399423Y0037998D01*
X0399393Y0038154D01*
X0399367Y0038310D01*
X0399346Y0038467D01*
X0399328Y0038624D01*
X0399314Y0038782D01*
X0399304Y0038940D01*
X0399298Y0039098D01*
X0399296Y0039256D01*
X0075806Y0065744D02*
X0075808Y0065824D01*
X0075814Y0065903D01*
X0075824Y0065982D01*
X0075838Y0066061D01*
X0075855Y0066139D01*
X0075877Y0066216D01*
X0075902Y0066291D01*
X0075932Y0066365D01*
X0075964Y0066438D01*
X0076001Y0066509D01*
X0076041Y0066578D01*
X0076084Y0066645D01*
X0076131Y0066710D01*
X0076180Y0066772D01*
X0076233Y0066832D01*
X0076289Y0066889D01*
X0076347Y0066944D01*
X0076408Y0066995D01*
X0076472Y0067043D01*
X0076538Y0067088D01*
X0076606Y0067130D01*
X0076676Y0067168D01*
X0076748Y0067202D01*
X0076821Y0067233D01*
X0076896Y0067261D01*
X0076973Y0067284D01*
X0077050Y0067304D01*
X0077128Y0067320D01*
X0077207Y0067332D01*
X0077286Y0067340D01*
X0077366Y0067344D01*
X0077446Y0067344D01*
X0077526Y0067340D01*
X0077605Y0067332D01*
X0077684Y0067320D01*
X0077762Y0067304D01*
X0077839Y0067284D01*
X0077916Y0067261D01*
X0077991Y0067233D01*
X0078064Y0067202D01*
X0078136Y0067168D01*
X0078206Y0067130D01*
X0078274Y0067088D01*
X0078340Y0067043D01*
X0078404Y0066995D01*
X0078465Y0066944D01*
X0078523Y0066889D01*
X0078579Y0066832D01*
X0078632Y0066772D01*
X0078681Y0066710D01*
X0078728Y0066645D01*
X0078771Y0066578D01*
X0078811Y0066509D01*
X0078848Y0066438D01*
X0078880Y0066365D01*
X0078910Y0066291D01*
X0078935Y0066216D01*
X0078957Y0066139D01*
X0078974Y0066061D01*
X0078988Y0065982D01*
X0078998Y0065903D01*
X0079004Y0065824D01*
X0079006Y0065744D01*
X0079004Y0065664D01*
X0078998Y0065585D01*
X0078988Y0065506D01*
X0078974Y0065427D01*
X0078957Y0065349D01*
X0078935Y0065272D01*
X0078910Y0065197D01*
X0078880Y0065123D01*
X0078848Y0065050D01*
X0078811Y0064979D01*
X0078771Y0064910D01*
X0078728Y0064843D01*
X0078681Y0064778D01*
X0078632Y0064716D01*
X0078579Y0064656D01*
X0078523Y0064599D01*
X0078465Y0064544D01*
X0078404Y0064493D01*
X0078340Y0064445D01*
X0078274Y0064400D01*
X0078206Y0064358D01*
X0078136Y0064320D01*
X0078064Y0064286D01*
X0077991Y0064255D01*
X0077916Y0064227D01*
X0077839Y0064204D01*
X0077762Y0064184D01*
X0077684Y0064168D01*
X0077605Y0064156D01*
X0077526Y0064148D01*
X0077446Y0064144D01*
X0077366Y0064144D01*
X0077286Y0064148D01*
X0077207Y0064156D01*
X0077128Y0064168D01*
X0077050Y0064184D01*
X0076973Y0064204D01*
X0076896Y0064227D01*
X0076821Y0064255D01*
X0076748Y0064286D01*
X0076676Y0064320D01*
X0076606Y0064358D01*
X0076538Y0064400D01*
X0076472Y0064445D01*
X0076408Y0064493D01*
X0076347Y0064544D01*
X0076289Y0064599D01*
X0076233Y0064656D01*
X0076180Y0064716D01*
X0076131Y0064778D01*
X0076084Y0064843D01*
X0076041Y0064910D01*
X0076001Y0064979D01*
X0075964Y0065050D01*
X0075932Y0065123D01*
X0075902Y0065197D01*
X0075877Y0065272D01*
X0075855Y0065349D01*
X0075838Y0065427D01*
X0075824Y0065506D01*
X0075814Y0065585D01*
X0075808Y0065664D01*
X0075806Y0065744D01*
X0075806Y0066531D02*
X0075808Y0066611D01*
X0075814Y0066690D01*
X0075824Y0066769D01*
X0075838Y0066848D01*
X0075855Y0066926D01*
X0075877Y0067003D01*
X0075902Y0067078D01*
X0075932Y0067152D01*
X0075964Y0067225D01*
X0076001Y0067296D01*
X0076041Y0067365D01*
X0076084Y0067432D01*
X0076131Y0067497D01*
X0076180Y0067559D01*
X0076233Y0067619D01*
X0076289Y0067676D01*
X0076347Y0067731D01*
X0076408Y0067782D01*
X0076472Y0067830D01*
X0076538Y0067875D01*
X0076606Y0067917D01*
X0076676Y0067955D01*
X0076748Y0067989D01*
X0076821Y0068020D01*
X0076896Y0068048D01*
X0076973Y0068071D01*
X0077050Y0068091D01*
X0077128Y0068107D01*
X0077207Y0068119D01*
X0077286Y0068127D01*
X0077366Y0068131D01*
X0077446Y0068131D01*
X0077526Y0068127D01*
X0077605Y0068119D01*
X0077684Y0068107D01*
X0077762Y0068091D01*
X0077839Y0068071D01*
X0077916Y0068048D01*
X0077991Y0068020D01*
X0078064Y0067989D01*
X0078136Y0067955D01*
X0078206Y0067917D01*
X0078274Y0067875D01*
X0078340Y0067830D01*
X0078404Y0067782D01*
X0078465Y0067731D01*
X0078523Y0067676D01*
X0078579Y0067619D01*
X0078632Y0067559D01*
X0078681Y0067497D01*
X0078728Y0067432D01*
X0078771Y0067365D01*
X0078811Y0067296D01*
X0078848Y0067225D01*
X0078880Y0067152D01*
X0078910Y0067078D01*
X0078935Y0067003D01*
X0078957Y0066926D01*
X0078974Y0066848D01*
X0078988Y0066769D01*
X0078998Y0066690D01*
X0079004Y0066611D01*
X0079006Y0066531D01*
X0079004Y0066451D01*
X0078998Y0066372D01*
X0078988Y0066293D01*
X0078974Y0066214D01*
X0078957Y0066136D01*
X0078935Y0066059D01*
X0078910Y0065984D01*
X0078880Y0065910D01*
X0078848Y0065837D01*
X0078811Y0065766D01*
X0078771Y0065697D01*
X0078728Y0065630D01*
X0078681Y0065565D01*
X0078632Y0065503D01*
X0078579Y0065443D01*
X0078523Y0065386D01*
X0078465Y0065331D01*
X0078404Y0065280D01*
X0078340Y0065232D01*
X0078274Y0065187D01*
X0078206Y0065145D01*
X0078136Y0065107D01*
X0078064Y0065073D01*
X0077991Y0065042D01*
X0077916Y0065014D01*
X0077839Y0064991D01*
X0077762Y0064971D01*
X0077684Y0064955D01*
X0077605Y0064943D01*
X0077526Y0064935D01*
X0077446Y0064931D01*
X0077366Y0064931D01*
X0077286Y0064935D01*
X0077207Y0064943D01*
X0077128Y0064955D01*
X0077050Y0064971D01*
X0076973Y0064991D01*
X0076896Y0065014D01*
X0076821Y0065042D01*
X0076748Y0065073D01*
X0076676Y0065107D01*
X0076606Y0065145D01*
X0076538Y0065187D01*
X0076472Y0065232D01*
X0076408Y0065280D01*
X0076347Y0065331D01*
X0076289Y0065386D01*
X0076233Y0065443D01*
X0076180Y0065503D01*
X0076131Y0065565D01*
X0076084Y0065630D01*
X0076041Y0065697D01*
X0076001Y0065766D01*
X0075964Y0065837D01*
X0075932Y0065910D01*
X0075902Y0065984D01*
X0075877Y0066059D01*
X0075855Y0066136D01*
X0075838Y0066214D01*
X0075824Y0066293D01*
X0075814Y0066372D01*
X0075808Y0066451D01*
X0075806Y0066531D01*
X0075806Y0067319D02*
X0075808Y0067399D01*
X0075814Y0067478D01*
X0075824Y0067557D01*
X0075838Y0067636D01*
X0075855Y0067714D01*
X0075877Y0067791D01*
X0075902Y0067866D01*
X0075932Y0067940D01*
X0075964Y0068013D01*
X0076001Y0068084D01*
X0076041Y0068153D01*
X0076084Y0068220D01*
X0076131Y0068285D01*
X0076180Y0068347D01*
X0076233Y0068407D01*
X0076289Y0068464D01*
X0076347Y0068519D01*
X0076408Y0068570D01*
X0076472Y0068618D01*
X0076538Y0068663D01*
X0076606Y0068705D01*
X0076676Y0068743D01*
X0076748Y0068777D01*
X0076821Y0068808D01*
X0076896Y0068836D01*
X0076973Y0068859D01*
X0077050Y0068879D01*
X0077128Y0068895D01*
X0077207Y0068907D01*
X0077286Y0068915D01*
X0077366Y0068919D01*
X0077446Y0068919D01*
X0077526Y0068915D01*
X0077605Y0068907D01*
X0077684Y0068895D01*
X0077762Y0068879D01*
X0077839Y0068859D01*
X0077916Y0068836D01*
X0077991Y0068808D01*
X0078064Y0068777D01*
X0078136Y0068743D01*
X0078206Y0068705D01*
X0078274Y0068663D01*
X0078340Y0068618D01*
X0078404Y0068570D01*
X0078465Y0068519D01*
X0078523Y0068464D01*
X0078579Y0068407D01*
X0078632Y0068347D01*
X0078681Y0068285D01*
X0078728Y0068220D01*
X0078771Y0068153D01*
X0078811Y0068084D01*
X0078848Y0068013D01*
X0078880Y0067940D01*
X0078910Y0067866D01*
X0078935Y0067791D01*
X0078957Y0067714D01*
X0078974Y0067636D01*
X0078988Y0067557D01*
X0078998Y0067478D01*
X0079004Y0067399D01*
X0079006Y0067319D01*
X0079004Y0067239D01*
X0078998Y0067160D01*
X0078988Y0067081D01*
X0078974Y0067002D01*
X0078957Y0066924D01*
X0078935Y0066847D01*
X0078910Y0066772D01*
X0078880Y0066698D01*
X0078848Y0066625D01*
X0078811Y0066554D01*
X0078771Y0066485D01*
X0078728Y0066418D01*
X0078681Y0066353D01*
X0078632Y0066291D01*
X0078579Y0066231D01*
X0078523Y0066174D01*
X0078465Y0066119D01*
X0078404Y0066068D01*
X0078340Y0066020D01*
X0078274Y0065975D01*
X0078206Y0065933D01*
X0078136Y0065895D01*
X0078064Y0065861D01*
X0077991Y0065830D01*
X0077916Y0065802D01*
X0077839Y0065779D01*
X0077762Y0065759D01*
X0077684Y0065743D01*
X0077605Y0065731D01*
X0077526Y0065723D01*
X0077446Y0065719D01*
X0077366Y0065719D01*
X0077286Y0065723D01*
X0077207Y0065731D01*
X0077128Y0065743D01*
X0077050Y0065759D01*
X0076973Y0065779D01*
X0076896Y0065802D01*
X0076821Y0065830D01*
X0076748Y0065861D01*
X0076676Y0065895D01*
X0076606Y0065933D01*
X0076538Y0065975D01*
X0076472Y0066020D01*
X0076408Y0066068D01*
X0076347Y0066119D01*
X0076289Y0066174D01*
X0076233Y0066231D01*
X0076180Y0066291D01*
X0076131Y0066353D01*
X0076084Y0066418D01*
X0076041Y0066485D01*
X0076001Y0066554D01*
X0075964Y0066625D01*
X0075932Y0066698D01*
X0075902Y0066772D01*
X0075877Y0066847D01*
X0075855Y0066924D01*
X0075838Y0067002D01*
X0075824Y0067081D01*
X0075814Y0067160D01*
X0075808Y0067239D01*
X0075806Y0067319D01*
X0075806Y0068106D02*
X0075808Y0068186D01*
X0075814Y0068265D01*
X0075824Y0068344D01*
X0075838Y0068423D01*
X0075855Y0068501D01*
X0075877Y0068578D01*
X0075902Y0068653D01*
X0075932Y0068727D01*
X0075964Y0068800D01*
X0076001Y0068871D01*
X0076041Y0068940D01*
X0076084Y0069007D01*
X0076131Y0069072D01*
X0076180Y0069134D01*
X0076233Y0069194D01*
X0076289Y0069251D01*
X0076347Y0069306D01*
X0076408Y0069357D01*
X0076472Y0069405D01*
X0076538Y0069450D01*
X0076606Y0069492D01*
X0076676Y0069530D01*
X0076748Y0069564D01*
X0076821Y0069595D01*
X0076896Y0069623D01*
X0076973Y0069646D01*
X0077050Y0069666D01*
X0077128Y0069682D01*
X0077207Y0069694D01*
X0077286Y0069702D01*
X0077366Y0069706D01*
X0077446Y0069706D01*
X0077526Y0069702D01*
X0077605Y0069694D01*
X0077684Y0069682D01*
X0077762Y0069666D01*
X0077839Y0069646D01*
X0077916Y0069623D01*
X0077991Y0069595D01*
X0078064Y0069564D01*
X0078136Y0069530D01*
X0078206Y0069492D01*
X0078274Y0069450D01*
X0078340Y0069405D01*
X0078404Y0069357D01*
X0078465Y0069306D01*
X0078523Y0069251D01*
X0078579Y0069194D01*
X0078632Y0069134D01*
X0078681Y0069072D01*
X0078728Y0069007D01*
X0078771Y0068940D01*
X0078811Y0068871D01*
X0078848Y0068800D01*
X0078880Y0068727D01*
X0078910Y0068653D01*
X0078935Y0068578D01*
X0078957Y0068501D01*
X0078974Y0068423D01*
X0078988Y0068344D01*
X0078998Y0068265D01*
X0079004Y0068186D01*
X0079006Y0068106D01*
X0079004Y0068026D01*
X0078998Y0067947D01*
X0078988Y0067868D01*
X0078974Y0067789D01*
X0078957Y0067711D01*
X0078935Y0067634D01*
X0078910Y0067559D01*
X0078880Y0067485D01*
X0078848Y0067412D01*
X0078811Y0067341D01*
X0078771Y0067272D01*
X0078728Y0067205D01*
X0078681Y0067140D01*
X0078632Y0067078D01*
X0078579Y0067018D01*
X0078523Y0066961D01*
X0078465Y0066906D01*
X0078404Y0066855D01*
X0078340Y0066807D01*
X0078274Y0066762D01*
X0078206Y0066720D01*
X0078136Y0066682D01*
X0078064Y0066648D01*
X0077991Y0066617D01*
X0077916Y0066589D01*
X0077839Y0066566D01*
X0077762Y0066546D01*
X0077684Y0066530D01*
X0077605Y0066518D01*
X0077526Y0066510D01*
X0077446Y0066506D01*
X0077366Y0066506D01*
X0077286Y0066510D01*
X0077207Y0066518D01*
X0077128Y0066530D01*
X0077050Y0066546D01*
X0076973Y0066566D01*
X0076896Y0066589D01*
X0076821Y0066617D01*
X0076748Y0066648D01*
X0076676Y0066682D01*
X0076606Y0066720D01*
X0076538Y0066762D01*
X0076472Y0066807D01*
X0076408Y0066855D01*
X0076347Y0066906D01*
X0076289Y0066961D01*
X0076233Y0067018D01*
X0076180Y0067078D01*
X0076131Y0067140D01*
X0076084Y0067205D01*
X0076041Y0067272D01*
X0076001Y0067341D01*
X0075964Y0067412D01*
X0075932Y0067485D01*
X0075902Y0067559D01*
X0075877Y0067634D01*
X0075855Y0067711D01*
X0075838Y0067789D01*
X0075824Y0067868D01*
X0075814Y0067947D01*
X0075808Y0068026D01*
X0075806Y0068106D01*
X0075806Y0068894D02*
X0075808Y0068974D01*
X0075814Y0069053D01*
X0075824Y0069132D01*
X0075838Y0069211D01*
X0075855Y0069289D01*
X0075877Y0069366D01*
X0075902Y0069441D01*
X0075932Y0069515D01*
X0075964Y0069588D01*
X0076001Y0069659D01*
X0076041Y0069728D01*
X0076084Y0069795D01*
X0076131Y0069860D01*
X0076180Y0069922D01*
X0076233Y0069982D01*
X0076289Y0070039D01*
X0076347Y0070094D01*
X0076408Y0070145D01*
X0076472Y0070193D01*
X0076538Y0070238D01*
X0076606Y0070280D01*
X0076676Y0070318D01*
X0076748Y0070352D01*
X0076821Y0070383D01*
X0076896Y0070411D01*
X0076973Y0070434D01*
X0077050Y0070454D01*
X0077128Y0070470D01*
X0077207Y0070482D01*
X0077286Y0070490D01*
X0077366Y0070494D01*
X0077446Y0070494D01*
X0077526Y0070490D01*
X0077605Y0070482D01*
X0077684Y0070470D01*
X0077762Y0070454D01*
X0077839Y0070434D01*
X0077916Y0070411D01*
X0077991Y0070383D01*
X0078064Y0070352D01*
X0078136Y0070318D01*
X0078206Y0070280D01*
X0078274Y0070238D01*
X0078340Y0070193D01*
X0078404Y0070145D01*
X0078465Y0070094D01*
X0078523Y0070039D01*
X0078579Y0069982D01*
X0078632Y0069922D01*
X0078681Y0069860D01*
X0078728Y0069795D01*
X0078771Y0069728D01*
X0078811Y0069659D01*
X0078848Y0069588D01*
X0078880Y0069515D01*
X0078910Y0069441D01*
X0078935Y0069366D01*
X0078957Y0069289D01*
X0078974Y0069211D01*
X0078988Y0069132D01*
X0078998Y0069053D01*
X0079004Y0068974D01*
X0079006Y0068894D01*
X0079004Y0068814D01*
X0078998Y0068735D01*
X0078988Y0068656D01*
X0078974Y0068577D01*
X0078957Y0068499D01*
X0078935Y0068422D01*
X0078910Y0068347D01*
X0078880Y0068273D01*
X0078848Y0068200D01*
X0078811Y0068129D01*
X0078771Y0068060D01*
X0078728Y0067993D01*
X0078681Y0067928D01*
X0078632Y0067866D01*
X0078579Y0067806D01*
X0078523Y0067749D01*
X0078465Y0067694D01*
X0078404Y0067643D01*
X0078340Y0067595D01*
X0078274Y0067550D01*
X0078206Y0067508D01*
X0078136Y0067470D01*
X0078064Y0067436D01*
X0077991Y0067405D01*
X0077916Y0067377D01*
X0077839Y0067354D01*
X0077762Y0067334D01*
X0077684Y0067318D01*
X0077605Y0067306D01*
X0077526Y0067298D01*
X0077446Y0067294D01*
X0077366Y0067294D01*
X0077286Y0067298D01*
X0077207Y0067306D01*
X0077128Y0067318D01*
X0077050Y0067334D01*
X0076973Y0067354D01*
X0076896Y0067377D01*
X0076821Y0067405D01*
X0076748Y0067436D01*
X0076676Y0067470D01*
X0076606Y0067508D01*
X0076538Y0067550D01*
X0076472Y0067595D01*
X0076408Y0067643D01*
X0076347Y0067694D01*
X0076289Y0067749D01*
X0076233Y0067806D01*
X0076180Y0067866D01*
X0076131Y0067928D01*
X0076084Y0067993D01*
X0076041Y0068060D01*
X0076001Y0068129D01*
X0075964Y0068200D01*
X0075932Y0068273D01*
X0075902Y0068347D01*
X0075877Y0068422D01*
X0075855Y0068499D01*
X0075838Y0068577D01*
X0075824Y0068656D01*
X0075814Y0068735D01*
X0075808Y0068814D01*
X0075806Y0068894D01*
X0075806Y0069681D02*
X0075808Y0069761D01*
X0075814Y0069840D01*
X0075824Y0069919D01*
X0075838Y0069998D01*
X0075855Y0070076D01*
X0075877Y0070153D01*
X0075902Y0070228D01*
X0075932Y0070302D01*
X0075964Y0070375D01*
X0076001Y0070446D01*
X0076041Y0070515D01*
X0076084Y0070582D01*
X0076131Y0070647D01*
X0076180Y0070709D01*
X0076233Y0070769D01*
X0076289Y0070826D01*
X0076347Y0070881D01*
X0076408Y0070932D01*
X0076472Y0070980D01*
X0076538Y0071025D01*
X0076606Y0071067D01*
X0076676Y0071105D01*
X0076748Y0071139D01*
X0076821Y0071170D01*
X0076896Y0071198D01*
X0076973Y0071221D01*
X0077050Y0071241D01*
X0077128Y0071257D01*
X0077207Y0071269D01*
X0077286Y0071277D01*
X0077366Y0071281D01*
X0077446Y0071281D01*
X0077526Y0071277D01*
X0077605Y0071269D01*
X0077684Y0071257D01*
X0077762Y0071241D01*
X0077839Y0071221D01*
X0077916Y0071198D01*
X0077991Y0071170D01*
X0078064Y0071139D01*
X0078136Y0071105D01*
X0078206Y0071067D01*
X0078274Y0071025D01*
X0078340Y0070980D01*
X0078404Y0070932D01*
X0078465Y0070881D01*
X0078523Y0070826D01*
X0078579Y0070769D01*
X0078632Y0070709D01*
X0078681Y0070647D01*
X0078728Y0070582D01*
X0078771Y0070515D01*
X0078811Y0070446D01*
X0078848Y0070375D01*
X0078880Y0070302D01*
X0078910Y0070228D01*
X0078935Y0070153D01*
X0078957Y0070076D01*
X0078974Y0069998D01*
X0078988Y0069919D01*
X0078998Y0069840D01*
X0079004Y0069761D01*
X0079006Y0069681D01*
X0079004Y0069601D01*
X0078998Y0069522D01*
X0078988Y0069443D01*
X0078974Y0069364D01*
X0078957Y0069286D01*
X0078935Y0069209D01*
X0078910Y0069134D01*
X0078880Y0069060D01*
X0078848Y0068987D01*
X0078811Y0068916D01*
X0078771Y0068847D01*
X0078728Y0068780D01*
X0078681Y0068715D01*
X0078632Y0068653D01*
X0078579Y0068593D01*
X0078523Y0068536D01*
X0078465Y0068481D01*
X0078404Y0068430D01*
X0078340Y0068382D01*
X0078274Y0068337D01*
X0078206Y0068295D01*
X0078136Y0068257D01*
X0078064Y0068223D01*
X0077991Y0068192D01*
X0077916Y0068164D01*
X0077839Y0068141D01*
X0077762Y0068121D01*
X0077684Y0068105D01*
X0077605Y0068093D01*
X0077526Y0068085D01*
X0077446Y0068081D01*
X0077366Y0068081D01*
X0077286Y0068085D01*
X0077207Y0068093D01*
X0077128Y0068105D01*
X0077050Y0068121D01*
X0076973Y0068141D01*
X0076896Y0068164D01*
X0076821Y0068192D01*
X0076748Y0068223D01*
X0076676Y0068257D01*
X0076606Y0068295D01*
X0076538Y0068337D01*
X0076472Y0068382D01*
X0076408Y0068430D01*
X0076347Y0068481D01*
X0076289Y0068536D01*
X0076233Y0068593D01*
X0076180Y0068653D01*
X0076131Y0068715D01*
X0076084Y0068780D01*
X0076041Y0068847D01*
X0076001Y0068916D01*
X0075964Y0068987D01*
X0075932Y0069060D01*
X0075902Y0069134D01*
X0075877Y0069209D01*
X0075855Y0069286D01*
X0075838Y0069364D01*
X0075824Y0069443D01*
X0075814Y0069522D01*
X0075808Y0069601D01*
X0075806Y0069681D01*
X0075806Y0070469D02*
X0075808Y0070549D01*
X0075814Y0070628D01*
X0075824Y0070707D01*
X0075838Y0070786D01*
X0075855Y0070864D01*
X0075877Y0070941D01*
X0075902Y0071016D01*
X0075932Y0071090D01*
X0075964Y0071163D01*
X0076001Y0071234D01*
X0076041Y0071303D01*
X0076084Y0071370D01*
X0076131Y0071435D01*
X0076180Y0071497D01*
X0076233Y0071557D01*
X0076289Y0071614D01*
X0076347Y0071669D01*
X0076408Y0071720D01*
X0076472Y0071768D01*
X0076538Y0071813D01*
X0076606Y0071855D01*
X0076676Y0071893D01*
X0076748Y0071927D01*
X0076821Y0071958D01*
X0076896Y0071986D01*
X0076973Y0072009D01*
X0077050Y0072029D01*
X0077128Y0072045D01*
X0077207Y0072057D01*
X0077286Y0072065D01*
X0077366Y0072069D01*
X0077446Y0072069D01*
X0077526Y0072065D01*
X0077605Y0072057D01*
X0077684Y0072045D01*
X0077762Y0072029D01*
X0077839Y0072009D01*
X0077916Y0071986D01*
X0077991Y0071958D01*
X0078064Y0071927D01*
X0078136Y0071893D01*
X0078206Y0071855D01*
X0078274Y0071813D01*
X0078340Y0071768D01*
X0078404Y0071720D01*
X0078465Y0071669D01*
X0078523Y0071614D01*
X0078579Y0071557D01*
X0078632Y0071497D01*
X0078681Y0071435D01*
X0078728Y0071370D01*
X0078771Y0071303D01*
X0078811Y0071234D01*
X0078848Y0071163D01*
X0078880Y0071090D01*
X0078910Y0071016D01*
X0078935Y0070941D01*
X0078957Y0070864D01*
X0078974Y0070786D01*
X0078988Y0070707D01*
X0078998Y0070628D01*
X0079004Y0070549D01*
X0079006Y0070469D01*
X0079004Y0070389D01*
X0078998Y0070310D01*
X0078988Y0070231D01*
X0078974Y0070152D01*
X0078957Y0070074D01*
X0078935Y0069997D01*
X0078910Y0069922D01*
X0078880Y0069848D01*
X0078848Y0069775D01*
X0078811Y0069704D01*
X0078771Y0069635D01*
X0078728Y0069568D01*
X0078681Y0069503D01*
X0078632Y0069441D01*
X0078579Y0069381D01*
X0078523Y0069324D01*
X0078465Y0069269D01*
X0078404Y0069218D01*
X0078340Y0069170D01*
X0078274Y0069125D01*
X0078206Y0069083D01*
X0078136Y0069045D01*
X0078064Y0069011D01*
X0077991Y0068980D01*
X0077916Y0068952D01*
X0077839Y0068929D01*
X0077762Y0068909D01*
X0077684Y0068893D01*
X0077605Y0068881D01*
X0077526Y0068873D01*
X0077446Y0068869D01*
X0077366Y0068869D01*
X0077286Y0068873D01*
X0077207Y0068881D01*
X0077128Y0068893D01*
X0077050Y0068909D01*
X0076973Y0068929D01*
X0076896Y0068952D01*
X0076821Y0068980D01*
X0076748Y0069011D01*
X0076676Y0069045D01*
X0076606Y0069083D01*
X0076538Y0069125D01*
X0076472Y0069170D01*
X0076408Y0069218D01*
X0076347Y0069269D01*
X0076289Y0069324D01*
X0076233Y0069381D01*
X0076180Y0069441D01*
X0076131Y0069503D01*
X0076084Y0069568D01*
X0076041Y0069635D01*
X0076001Y0069704D01*
X0075964Y0069775D01*
X0075932Y0069848D01*
X0075902Y0069922D01*
X0075877Y0069997D01*
X0075855Y0070074D01*
X0075838Y0070152D01*
X0075824Y0070231D01*
X0075814Y0070310D01*
X0075808Y0070389D01*
X0075806Y0070469D01*
X0075806Y0072043D02*
X0075808Y0072123D01*
X0075814Y0072202D01*
X0075824Y0072281D01*
X0075838Y0072360D01*
X0075855Y0072438D01*
X0075877Y0072515D01*
X0075902Y0072590D01*
X0075932Y0072664D01*
X0075964Y0072737D01*
X0076001Y0072808D01*
X0076041Y0072877D01*
X0076084Y0072944D01*
X0076131Y0073009D01*
X0076180Y0073071D01*
X0076233Y0073131D01*
X0076289Y0073188D01*
X0076347Y0073243D01*
X0076408Y0073294D01*
X0076472Y0073342D01*
X0076538Y0073387D01*
X0076606Y0073429D01*
X0076676Y0073467D01*
X0076748Y0073501D01*
X0076821Y0073532D01*
X0076896Y0073560D01*
X0076973Y0073583D01*
X0077050Y0073603D01*
X0077128Y0073619D01*
X0077207Y0073631D01*
X0077286Y0073639D01*
X0077366Y0073643D01*
X0077446Y0073643D01*
X0077526Y0073639D01*
X0077605Y0073631D01*
X0077684Y0073619D01*
X0077762Y0073603D01*
X0077839Y0073583D01*
X0077916Y0073560D01*
X0077991Y0073532D01*
X0078064Y0073501D01*
X0078136Y0073467D01*
X0078206Y0073429D01*
X0078274Y0073387D01*
X0078340Y0073342D01*
X0078404Y0073294D01*
X0078465Y0073243D01*
X0078523Y0073188D01*
X0078579Y0073131D01*
X0078632Y0073071D01*
X0078681Y0073009D01*
X0078728Y0072944D01*
X0078771Y0072877D01*
X0078811Y0072808D01*
X0078848Y0072737D01*
X0078880Y0072664D01*
X0078910Y0072590D01*
X0078935Y0072515D01*
X0078957Y0072438D01*
X0078974Y0072360D01*
X0078988Y0072281D01*
X0078998Y0072202D01*
X0079004Y0072123D01*
X0079006Y0072043D01*
X0079004Y0071963D01*
X0078998Y0071884D01*
X0078988Y0071805D01*
X0078974Y0071726D01*
X0078957Y0071648D01*
X0078935Y0071571D01*
X0078910Y0071496D01*
X0078880Y0071422D01*
X0078848Y0071349D01*
X0078811Y0071278D01*
X0078771Y0071209D01*
X0078728Y0071142D01*
X0078681Y0071077D01*
X0078632Y0071015D01*
X0078579Y0070955D01*
X0078523Y0070898D01*
X0078465Y0070843D01*
X0078404Y0070792D01*
X0078340Y0070744D01*
X0078274Y0070699D01*
X0078206Y0070657D01*
X0078136Y0070619D01*
X0078064Y0070585D01*
X0077991Y0070554D01*
X0077916Y0070526D01*
X0077839Y0070503D01*
X0077762Y0070483D01*
X0077684Y0070467D01*
X0077605Y0070455D01*
X0077526Y0070447D01*
X0077446Y0070443D01*
X0077366Y0070443D01*
X0077286Y0070447D01*
X0077207Y0070455D01*
X0077128Y0070467D01*
X0077050Y0070483D01*
X0076973Y0070503D01*
X0076896Y0070526D01*
X0076821Y0070554D01*
X0076748Y0070585D01*
X0076676Y0070619D01*
X0076606Y0070657D01*
X0076538Y0070699D01*
X0076472Y0070744D01*
X0076408Y0070792D01*
X0076347Y0070843D01*
X0076289Y0070898D01*
X0076233Y0070955D01*
X0076180Y0071015D01*
X0076131Y0071077D01*
X0076084Y0071142D01*
X0076041Y0071209D01*
X0076001Y0071278D01*
X0075964Y0071349D01*
X0075932Y0071422D01*
X0075902Y0071496D01*
X0075877Y0071571D01*
X0075855Y0071648D01*
X0075838Y0071726D01*
X0075824Y0071805D01*
X0075814Y0071884D01*
X0075808Y0071963D01*
X0075806Y0072043D01*
X0075806Y0072831D02*
X0075808Y0072911D01*
X0075814Y0072990D01*
X0075824Y0073069D01*
X0075838Y0073148D01*
X0075855Y0073226D01*
X0075877Y0073303D01*
X0075902Y0073378D01*
X0075932Y0073452D01*
X0075964Y0073525D01*
X0076001Y0073596D01*
X0076041Y0073665D01*
X0076084Y0073732D01*
X0076131Y0073797D01*
X0076180Y0073859D01*
X0076233Y0073919D01*
X0076289Y0073976D01*
X0076347Y0074031D01*
X0076408Y0074082D01*
X0076472Y0074130D01*
X0076538Y0074175D01*
X0076606Y0074217D01*
X0076676Y0074255D01*
X0076748Y0074289D01*
X0076821Y0074320D01*
X0076896Y0074348D01*
X0076973Y0074371D01*
X0077050Y0074391D01*
X0077128Y0074407D01*
X0077207Y0074419D01*
X0077286Y0074427D01*
X0077366Y0074431D01*
X0077446Y0074431D01*
X0077526Y0074427D01*
X0077605Y0074419D01*
X0077684Y0074407D01*
X0077762Y0074391D01*
X0077839Y0074371D01*
X0077916Y0074348D01*
X0077991Y0074320D01*
X0078064Y0074289D01*
X0078136Y0074255D01*
X0078206Y0074217D01*
X0078274Y0074175D01*
X0078340Y0074130D01*
X0078404Y0074082D01*
X0078465Y0074031D01*
X0078523Y0073976D01*
X0078579Y0073919D01*
X0078632Y0073859D01*
X0078681Y0073797D01*
X0078728Y0073732D01*
X0078771Y0073665D01*
X0078811Y0073596D01*
X0078848Y0073525D01*
X0078880Y0073452D01*
X0078910Y0073378D01*
X0078935Y0073303D01*
X0078957Y0073226D01*
X0078974Y0073148D01*
X0078988Y0073069D01*
X0078998Y0072990D01*
X0079004Y0072911D01*
X0079006Y0072831D01*
X0079004Y0072751D01*
X0078998Y0072672D01*
X0078988Y0072593D01*
X0078974Y0072514D01*
X0078957Y0072436D01*
X0078935Y0072359D01*
X0078910Y0072284D01*
X0078880Y0072210D01*
X0078848Y0072137D01*
X0078811Y0072066D01*
X0078771Y0071997D01*
X0078728Y0071930D01*
X0078681Y0071865D01*
X0078632Y0071803D01*
X0078579Y0071743D01*
X0078523Y0071686D01*
X0078465Y0071631D01*
X0078404Y0071580D01*
X0078340Y0071532D01*
X0078274Y0071487D01*
X0078206Y0071445D01*
X0078136Y0071407D01*
X0078064Y0071373D01*
X0077991Y0071342D01*
X0077916Y0071314D01*
X0077839Y0071291D01*
X0077762Y0071271D01*
X0077684Y0071255D01*
X0077605Y0071243D01*
X0077526Y0071235D01*
X0077446Y0071231D01*
X0077366Y0071231D01*
X0077286Y0071235D01*
X0077207Y0071243D01*
X0077128Y0071255D01*
X0077050Y0071271D01*
X0076973Y0071291D01*
X0076896Y0071314D01*
X0076821Y0071342D01*
X0076748Y0071373D01*
X0076676Y0071407D01*
X0076606Y0071445D01*
X0076538Y0071487D01*
X0076472Y0071532D01*
X0076408Y0071580D01*
X0076347Y0071631D01*
X0076289Y0071686D01*
X0076233Y0071743D01*
X0076180Y0071803D01*
X0076131Y0071865D01*
X0076084Y0071930D01*
X0076041Y0071997D01*
X0076001Y0072066D01*
X0075964Y0072137D01*
X0075932Y0072210D01*
X0075902Y0072284D01*
X0075877Y0072359D01*
X0075855Y0072436D01*
X0075838Y0072514D01*
X0075824Y0072593D01*
X0075814Y0072672D01*
X0075808Y0072751D01*
X0075806Y0072831D01*
X0075806Y0073618D02*
X0075808Y0073698D01*
X0075814Y0073777D01*
X0075824Y0073856D01*
X0075838Y0073935D01*
X0075855Y0074013D01*
X0075877Y0074090D01*
X0075902Y0074165D01*
X0075932Y0074239D01*
X0075964Y0074312D01*
X0076001Y0074383D01*
X0076041Y0074452D01*
X0076084Y0074519D01*
X0076131Y0074584D01*
X0076180Y0074646D01*
X0076233Y0074706D01*
X0076289Y0074763D01*
X0076347Y0074818D01*
X0076408Y0074869D01*
X0076472Y0074917D01*
X0076538Y0074962D01*
X0076606Y0075004D01*
X0076676Y0075042D01*
X0076748Y0075076D01*
X0076821Y0075107D01*
X0076896Y0075135D01*
X0076973Y0075158D01*
X0077050Y0075178D01*
X0077128Y0075194D01*
X0077207Y0075206D01*
X0077286Y0075214D01*
X0077366Y0075218D01*
X0077446Y0075218D01*
X0077526Y0075214D01*
X0077605Y0075206D01*
X0077684Y0075194D01*
X0077762Y0075178D01*
X0077839Y0075158D01*
X0077916Y0075135D01*
X0077991Y0075107D01*
X0078064Y0075076D01*
X0078136Y0075042D01*
X0078206Y0075004D01*
X0078274Y0074962D01*
X0078340Y0074917D01*
X0078404Y0074869D01*
X0078465Y0074818D01*
X0078523Y0074763D01*
X0078579Y0074706D01*
X0078632Y0074646D01*
X0078681Y0074584D01*
X0078728Y0074519D01*
X0078771Y0074452D01*
X0078811Y0074383D01*
X0078848Y0074312D01*
X0078880Y0074239D01*
X0078910Y0074165D01*
X0078935Y0074090D01*
X0078957Y0074013D01*
X0078974Y0073935D01*
X0078988Y0073856D01*
X0078998Y0073777D01*
X0079004Y0073698D01*
X0079006Y0073618D01*
X0079004Y0073538D01*
X0078998Y0073459D01*
X0078988Y0073380D01*
X0078974Y0073301D01*
X0078957Y0073223D01*
X0078935Y0073146D01*
X0078910Y0073071D01*
X0078880Y0072997D01*
X0078848Y0072924D01*
X0078811Y0072853D01*
X0078771Y0072784D01*
X0078728Y0072717D01*
X0078681Y0072652D01*
X0078632Y0072590D01*
X0078579Y0072530D01*
X0078523Y0072473D01*
X0078465Y0072418D01*
X0078404Y0072367D01*
X0078340Y0072319D01*
X0078274Y0072274D01*
X0078206Y0072232D01*
X0078136Y0072194D01*
X0078064Y0072160D01*
X0077991Y0072129D01*
X0077916Y0072101D01*
X0077839Y0072078D01*
X0077762Y0072058D01*
X0077684Y0072042D01*
X0077605Y0072030D01*
X0077526Y0072022D01*
X0077446Y0072018D01*
X0077366Y0072018D01*
X0077286Y0072022D01*
X0077207Y0072030D01*
X0077128Y0072042D01*
X0077050Y0072058D01*
X0076973Y0072078D01*
X0076896Y0072101D01*
X0076821Y0072129D01*
X0076748Y0072160D01*
X0076676Y0072194D01*
X0076606Y0072232D01*
X0076538Y0072274D01*
X0076472Y0072319D01*
X0076408Y0072367D01*
X0076347Y0072418D01*
X0076289Y0072473D01*
X0076233Y0072530D01*
X0076180Y0072590D01*
X0076131Y0072652D01*
X0076084Y0072717D01*
X0076041Y0072784D01*
X0076001Y0072853D01*
X0075964Y0072924D01*
X0075932Y0072997D01*
X0075902Y0073071D01*
X0075877Y0073146D01*
X0075855Y0073223D01*
X0075838Y0073301D01*
X0075824Y0073380D01*
X0075814Y0073459D01*
X0075808Y0073538D01*
X0075806Y0073618D01*
X0075806Y0074406D02*
X0075808Y0074486D01*
X0075814Y0074565D01*
X0075824Y0074644D01*
X0075838Y0074723D01*
X0075855Y0074801D01*
X0075877Y0074878D01*
X0075902Y0074953D01*
X0075932Y0075027D01*
X0075964Y0075100D01*
X0076001Y0075171D01*
X0076041Y0075240D01*
X0076084Y0075307D01*
X0076131Y0075372D01*
X0076180Y0075434D01*
X0076233Y0075494D01*
X0076289Y0075551D01*
X0076347Y0075606D01*
X0076408Y0075657D01*
X0076472Y0075705D01*
X0076538Y0075750D01*
X0076606Y0075792D01*
X0076676Y0075830D01*
X0076748Y0075864D01*
X0076821Y0075895D01*
X0076896Y0075923D01*
X0076973Y0075946D01*
X0077050Y0075966D01*
X0077128Y0075982D01*
X0077207Y0075994D01*
X0077286Y0076002D01*
X0077366Y0076006D01*
X0077446Y0076006D01*
X0077526Y0076002D01*
X0077605Y0075994D01*
X0077684Y0075982D01*
X0077762Y0075966D01*
X0077839Y0075946D01*
X0077916Y0075923D01*
X0077991Y0075895D01*
X0078064Y0075864D01*
X0078136Y0075830D01*
X0078206Y0075792D01*
X0078274Y0075750D01*
X0078340Y0075705D01*
X0078404Y0075657D01*
X0078465Y0075606D01*
X0078523Y0075551D01*
X0078579Y0075494D01*
X0078632Y0075434D01*
X0078681Y0075372D01*
X0078728Y0075307D01*
X0078771Y0075240D01*
X0078811Y0075171D01*
X0078848Y0075100D01*
X0078880Y0075027D01*
X0078910Y0074953D01*
X0078935Y0074878D01*
X0078957Y0074801D01*
X0078974Y0074723D01*
X0078988Y0074644D01*
X0078998Y0074565D01*
X0079004Y0074486D01*
X0079006Y0074406D01*
X0079004Y0074326D01*
X0078998Y0074247D01*
X0078988Y0074168D01*
X0078974Y0074089D01*
X0078957Y0074011D01*
X0078935Y0073934D01*
X0078910Y0073859D01*
X0078880Y0073785D01*
X0078848Y0073712D01*
X0078811Y0073641D01*
X0078771Y0073572D01*
X0078728Y0073505D01*
X0078681Y0073440D01*
X0078632Y0073378D01*
X0078579Y0073318D01*
X0078523Y0073261D01*
X0078465Y0073206D01*
X0078404Y0073155D01*
X0078340Y0073107D01*
X0078274Y0073062D01*
X0078206Y0073020D01*
X0078136Y0072982D01*
X0078064Y0072948D01*
X0077991Y0072917D01*
X0077916Y0072889D01*
X0077839Y0072866D01*
X0077762Y0072846D01*
X0077684Y0072830D01*
X0077605Y0072818D01*
X0077526Y0072810D01*
X0077446Y0072806D01*
X0077366Y0072806D01*
X0077286Y0072810D01*
X0077207Y0072818D01*
X0077128Y0072830D01*
X0077050Y0072846D01*
X0076973Y0072866D01*
X0076896Y0072889D01*
X0076821Y0072917D01*
X0076748Y0072948D01*
X0076676Y0072982D01*
X0076606Y0073020D01*
X0076538Y0073062D01*
X0076472Y0073107D01*
X0076408Y0073155D01*
X0076347Y0073206D01*
X0076289Y0073261D01*
X0076233Y0073318D01*
X0076180Y0073378D01*
X0076131Y0073440D01*
X0076084Y0073505D01*
X0076041Y0073572D01*
X0076001Y0073641D01*
X0075964Y0073712D01*
X0075932Y0073785D01*
X0075902Y0073859D01*
X0075877Y0073934D01*
X0075855Y0074011D01*
X0075838Y0074089D01*
X0075824Y0074168D01*
X0075814Y0074247D01*
X0075808Y0074326D01*
X0075806Y0074406D01*
X0075806Y0075193D02*
X0075808Y0075273D01*
X0075814Y0075352D01*
X0075824Y0075431D01*
X0075838Y0075510D01*
X0075855Y0075588D01*
X0075877Y0075665D01*
X0075902Y0075740D01*
X0075932Y0075814D01*
X0075964Y0075887D01*
X0076001Y0075958D01*
X0076041Y0076027D01*
X0076084Y0076094D01*
X0076131Y0076159D01*
X0076180Y0076221D01*
X0076233Y0076281D01*
X0076289Y0076338D01*
X0076347Y0076393D01*
X0076408Y0076444D01*
X0076472Y0076492D01*
X0076538Y0076537D01*
X0076606Y0076579D01*
X0076676Y0076617D01*
X0076748Y0076651D01*
X0076821Y0076682D01*
X0076896Y0076710D01*
X0076973Y0076733D01*
X0077050Y0076753D01*
X0077128Y0076769D01*
X0077207Y0076781D01*
X0077286Y0076789D01*
X0077366Y0076793D01*
X0077446Y0076793D01*
X0077526Y0076789D01*
X0077605Y0076781D01*
X0077684Y0076769D01*
X0077762Y0076753D01*
X0077839Y0076733D01*
X0077916Y0076710D01*
X0077991Y0076682D01*
X0078064Y0076651D01*
X0078136Y0076617D01*
X0078206Y0076579D01*
X0078274Y0076537D01*
X0078340Y0076492D01*
X0078404Y0076444D01*
X0078465Y0076393D01*
X0078523Y0076338D01*
X0078579Y0076281D01*
X0078632Y0076221D01*
X0078681Y0076159D01*
X0078728Y0076094D01*
X0078771Y0076027D01*
X0078811Y0075958D01*
X0078848Y0075887D01*
X0078880Y0075814D01*
X0078910Y0075740D01*
X0078935Y0075665D01*
X0078957Y0075588D01*
X0078974Y0075510D01*
X0078988Y0075431D01*
X0078998Y0075352D01*
X0079004Y0075273D01*
X0079006Y0075193D01*
X0079004Y0075113D01*
X0078998Y0075034D01*
X0078988Y0074955D01*
X0078974Y0074876D01*
X0078957Y0074798D01*
X0078935Y0074721D01*
X0078910Y0074646D01*
X0078880Y0074572D01*
X0078848Y0074499D01*
X0078811Y0074428D01*
X0078771Y0074359D01*
X0078728Y0074292D01*
X0078681Y0074227D01*
X0078632Y0074165D01*
X0078579Y0074105D01*
X0078523Y0074048D01*
X0078465Y0073993D01*
X0078404Y0073942D01*
X0078340Y0073894D01*
X0078274Y0073849D01*
X0078206Y0073807D01*
X0078136Y0073769D01*
X0078064Y0073735D01*
X0077991Y0073704D01*
X0077916Y0073676D01*
X0077839Y0073653D01*
X0077762Y0073633D01*
X0077684Y0073617D01*
X0077605Y0073605D01*
X0077526Y0073597D01*
X0077446Y0073593D01*
X0077366Y0073593D01*
X0077286Y0073597D01*
X0077207Y0073605D01*
X0077128Y0073617D01*
X0077050Y0073633D01*
X0076973Y0073653D01*
X0076896Y0073676D01*
X0076821Y0073704D01*
X0076748Y0073735D01*
X0076676Y0073769D01*
X0076606Y0073807D01*
X0076538Y0073849D01*
X0076472Y0073894D01*
X0076408Y0073942D01*
X0076347Y0073993D01*
X0076289Y0074048D01*
X0076233Y0074105D01*
X0076180Y0074165D01*
X0076131Y0074227D01*
X0076084Y0074292D01*
X0076041Y0074359D01*
X0076001Y0074428D01*
X0075964Y0074499D01*
X0075932Y0074572D01*
X0075902Y0074646D01*
X0075877Y0074721D01*
X0075855Y0074798D01*
X0075838Y0074876D01*
X0075824Y0074955D01*
X0075814Y0075034D01*
X0075808Y0075113D01*
X0075806Y0075193D01*
X0075806Y0075980D02*
X0075808Y0076060D01*
X0075814Y0076139D01*
X0075824Y0076218D01*
X0075838Y0076297D01*
X0075855Y0076375D01*
X0075877Y0076452D01*
X0075902Y0076527D01*
X0075932Y0076601D01*
X0075964Y0076674D01*
X0076001Y0076745D01*
X0076041Y0076814D01*
X0076084Y0076881D01*
X0076131Y0076946D01*
X0076180Y0077008D01*
X0076233Y0077068D01*
X0076289Y0077125D01*
X0076347Y0077180D01*
X0076408Y0077231D01*
X0076472Y0077279D01*
X0076538Y0077324D01*
X0076606Y0077366D01*
X0076676Y0077404D01*
X0076748Y0077438D01*
X0076821Y0077469D01*
X0076896Y0077497D01*
X0076973Y0077520D01*
X0077050Y0077540D01*
X0077128Y0077556D01*
X0077207Y0077568D01*
X0077286Y0077576D01*
X0077366Y0077580D01*
X0077446Y0077580D01*
X0077526Y0077576D01*
X0077605Y0077568D01*
X0077684Y0077556D01*
X0077762Y0077540D01*
X0077839Y0077520D01*
X0077916Y0077497D01*
X0077991Y0077469D01*
X0078064Y0077438D01*
X0078136Y0077404D01*
X0078206Y0077366D01*
X0078274Y0077324D01*
X0078340Y0077279D01*
X0078404Y0077231D01*
X0078465Y0077180D01*
X0078523Y0077125D01*
X0078579Y0077068D01*
X0078632Y0077008D01*
X0078681Y0076946D01*
X0078728Y0076881D01*
X0078771Y0076814D01*
X0078811Y0076745D01*
X0078848Y0076674D01*
X0078880Y0076601D01*
X0078910Y0076527D01*
X0078935Y0076452D01*
X0078957Y0076375D01*
X0078974Y0076297D01*
X0078988Y0076218D01*
X0078998Y0076139D01*
X0079004Y0076060D01*
X0079006Y0075980D01*
X0079004Y0075900D01*
X0078998Y0075821D01*
X0078988Y0075742D01*
X0078974Y0075663D01*
X0078957Y0075585D01*
X0078935Y0075508D01*
X0078910Y0075433D01*
X0078880Y0075359D01*
X0078848Y0075286D01*
X0078811Y0075215D01*
X0078771Y0075146D01*
X0078728Y0075079D01*
X0078681Y0075014D01*
X0078632Y0074952D01*
X0078579Y0074892D01*
X0078523Y0074835D01*
X0078465Y0074780D01*
X0078404Y0074729D01*
X0078340Y0074681D01*
X0078274Y0074636D01*
X0078206Y0074594D01*
X0078136Y0074556D01*
X0078064Y0074522D01*
X0077991Y0074491D01*
X0077916Y0074463D01*
X0077839Y0074440D01*
X0077762Y0074420D01*
X0077684Y0074404D01*
X0077605Y0074392D01*
X0077526Y0074384D01*
X0077446Y0074380D01*
X0077366Y0074380D01*
X0077286Y0074384D01*
X0077207Y0074392D01*
X0077128Y0074404D01*
X0077050Y0074420D01*
X0076973Y0074440D01*
X0076896Y0074463D01*
X0076821Y0074491D01*
X0076748Y0074522D01*
X0076676Y0074556D01*
X0076606Y0074594D01*
X0076538Y0074636D01*
X0076472Y0074681D01*
X0076408Y0074729D01*
X0076347Y0074780D01*
X0076289Y0074835D01*
X0076233Y0074892D01*
X0076180Y0074952D01*
X0076131Y0075014D01*
X0076084Y0075079D01*
X0076041Y0075146D01*
X0076001Y0075215D01*
X0075964Y0075286D01*
X0075932Y0075359D01*
X0075902Y0075433D01*
X0075877Y0075508D01*
X0075855Y0075585D01*
X0075838Y0075663D01*
X0075824Y0075742D01*
X0075814Y0075821D01*
X0075808Y0075900D01*
X0075806Y0075980D01*
X0075806Y0076768D02*
X0075808Y0076848D01*
X0075814Y0076927D01*
X0075824Y0077006D01*
X0075838Y0077085D01*
X0075855Y0077163D01*
X0075877Y0077240D01*
X0075902Y0077315D01*
X0075932Y0077389D01*
X0075964Y0077462D01*
X0076001Y0077533D01*
X0076041Y0077602D01*
X0076084Y0077669D01*
X0076131Y0077734D01*
X0076180Y0077796D01*
X0076233Y0077856D01*
X0076289Y0077913D01*
X0076347Y0077968D01*
X0076408Y0078019D01*
X0076472Y0078067D01*
X0076538Y0078112D01*
X0076606Y0078154D01*
X0076676Y0078192D01*
X0076748Y0078226D01*
X0076821Y0078257D01*
X0076896Y0078285D01*
X0076973Y0078308D01*
X0077050Y0078328D01*
X0077128Y0078344D01*
X0077207Y0078356D01*
X0077286Y0078364D01*
X0077366Y0078368D01*
X0077446Y0078368D01*
X0077526Y0078364D01*
X0077605Y0078356D01*
X0077684Y0078344D01*
X0077762Y0078328D01*
X0077839Y0078308D01*
X0077916Y0078285D01*
X0077991Y0078257D01*
X0078064Y0078226D01*
X0078136Y0078192D01*
X0078206Y0078154D01*
X0078274Y0078112D01*
X0078340Y0078067D01*
X0078404Y0078019D01*
X0078465Y0077968D01*
X0078523Y0077913D01*
X0078579Y0077856D01*
X0078632Y0077796D01*
X0078681Y0077734D01*
X0078728Y0077669D01*
X0078771Y0077602D01*
X0078811Y0077533D01*
X0078848Y0077462D01*
X0078880Y0077389D01*
X0078910Y0077315D01*
X0078935Y0077240D01*
X0078957Y0077163D01*
X0078974Y0077085D01*
X0078988Y0077006D01*
X0078998Y0076927D01*
X0079004Y0076848D01*
X0079006Y0076768D01*
X0079004Y0076688D01*
X0078998Y0076609D01*
X0078988Y0076530D01*
X0078974Y0076451D01*
X0078957Y0076373D01*
X0078935Y0076296D01*
X0078910Y0076221D01*
X0078880Y0076147D01*
X0078848Y0076074D01*
X0078811Y0076003D01*
X0078771Y0075934D01*
X0078728Y0075867D01*
X0078681Y0075802D01*
X0078632Y0075740D01*
X0078579Y0075680D01*
X0078523Y0075623D01*
X0078465Y0075568D01*
X0078404Y0075517D01*
X0078340Y0075469D01*
X0078274Y0075424D01*
X0078206Y0075382D01*
X0078136Y0075344D01*
X0078064Y0075310D01*
X0077991Y0075279D01*
X0077916Y0075251D01*
X0077839Y0075228D01*
X0077762Y0075208D01*
X0077684Y0075192D01*
X0077605Y0075180D01*
X0077526Y0075172D01*
X0077446Y0075168D01*
X0077366Y0075168D01*
X0077286Y0075172D01*
X0077207Y0075180D01*
X0077128Y0075192D01*
X0077050Y0075208D01*
X0076973Y0075228D01*
X0076896Y0075251D01*
X0076821Y0075279D01*
X0076748Y0075310D01*
X0076676Y0075344D01*
X0076606Y0075382D01*
X0076538Y0075424D01*
X0076472Y0075469D01*
X0076408Y0075517D01*
X0076347Y0075568D01*
X0076289Y0075623D01*
X0076233Y0075680D01*
X0076180Y0075740D01*
X0076131Y0075802D01*
X0076084Y0075867D01*
X0076041Y0075934D01*
X0076001Y0076003D01*
X0075964Y0076074D01*
X0075932Y0076147D01*
X0075902Y0076221D01*
X0075877Y0076296D01*
X0075855Y0076373D01*
X0075838Y0076451D01*
X0075824Y0076530D01*
X0075814Y0076609D01*
X0075808Y0076688D01*
X0075806Y0076768D01*
X0052184Y0076768D02*
X0052186Y0076848D01*
X0052192Y0076927D01*
X0052202Y0077006D01*
X0052216Y0077085D01*
X0052233Y0077163D01*
X0052255Y0077240D01*
X0052280Y0077315D01*
X0052310Y0077389D01*
X0052342Y0077462D01*
X0052379Y0077533D01*
X0052419Y0077602D01*
X0052462Y0077669D01*
X0052509Y0077734D01*
X0052558Y0077796D01*
X0052611Y0077856D01*
X0052667Y0077913D01*
X0052725Y0077968D01*
X0052786Y0078019D01*
X0052850Y0078067D01*
X0052916Y0078112D01*
X0052984Y0078154D01*
X0053054Y0078192D01*
X0053126Y0078226D01*
X0053199Y0078257D01*
X0053274Y0078285D01*
X0053351Y0078308D01*
X0053428Y0078328D01*
X0053506Y0078344D01*
X0053585Y0078356D01*
X0053664Y0078364D01*
X0053744Y0078368D01*
X0053824Y0078368D01*
X0053904Y0078364D01*
X0053983Y0078356D01*
X0054062Y0078344D01*
X0054140Y0078328D01*
X0054217Y0078308D01*
X0054294Y0078285D01*
X0054369Y0078257D01*
X0054442Y0078226D01*
X0054514Y0078192D01*
X0054584Y0078154D01*
X0054652Y0078112D01*
X0054718Y0078067D01*
X0054782Y0078019D01*
X0054843Y0077968D01*
X0054901Y0077913D01*
X0054957Y0077856D01*
X0055010Y0077796D01*
X0055059Y0077734D01*
X0055106Y0077669D01*
X0055149Y0077602D01*
X0055189Y0077533D01*
X0055226Y0077462D01*
X0055258Y0077389D01*
X0055288Y0077315D01*
X0055313Y0077240D01*
X0055335Y0077163D01*
X0055352Y0077085D01*
X0055366Y0077006D01*
X0055376Y0076927D01*
X0055382Y0076848D01*
X0055384Y0076768D01*
X0055382Y0076688D01*
X0055376Y0076609D01*
X0055366Y0076530D01*
X0055352Y0076451D01*
X0055335Y0076373D01*
X0055313Y0076296D01*
X0055288Y0076221D01*
X0055258Y0076147D01*
X0055226Y0076074D01*
X0055189Y0076003D01*
X0055149Y0075934D01*
X0055106Y0075867D01*
X0055059Y0075802D01*
X0055010Y0075740D01*
X0054957Y0075680D01*
X0054901Y0075623D01*
X0054843Y0075568D01*
X0054782Y0075517D01*
X0054718Y0075469D01*
X0054652Y0075424D01*
X0054584Y0075382D01*
X0054514Y0075344D01*
X0054442Y0075310D01*
X0054369Y0075279D01*
X0054294Y0075251D01*
X0054217Y0075228D01*
X0054140Y0075208D01*
X0054062Y0075192D01*
X0053983Y0075180D01*
X0053904Y0075172D01*
X0053824Y0075168D01*
X0053744Y0075168D01*
X0053664Y0075172D01*
X0053585Y0075180D01*
X0053506Y0075192D01*
X0053428Y0075208D01*
X0053351Y0075228D01*
X0053274Y0075251D01*
X0053199Y0075279D01*
X0053126Y0075310D01*
X0053054Y0075344D01*
X0052984Y0075382D01*
X0052916Y0075424D01*
X0052850Y0075469D01*
X0052786Y0075517D01*
X0052725Y0075568D01*
X0052667Y0075623D01*
X0052611Y0075680D01*
X0052558Y0075740D01*
X0052509Y0075802D01*
X0052462Y0075867D01*
X0052419Y0075934D01*
X0052379Y0076003D01*
X0052342Y0076074D01*
X0052310Y0076147D01*
X0052280Y0076221D01*
X0052255Y0076296D01*
X0052233Y0076373D01*
X0052216Y0076451D01*
X0052202Y0076530D01*
X0052192Y0076609D01*
X0052186Y0076688D01*
X0052184Y0076768D01*
X0052184Y0075980D02*
X0052186Y0076060D01*
X0052192Y0076139D01*
X0052202Y0076218D01*
X0052216Y0076297D01*
X0052233Y0076375D01*
X0052255Y0076452D01*
X0052280Y0076527D01*
X0052310Y0076601D01*
X0052342Y0076674D01*
X0052379Y0076745D01*
X0052419Y0076814D01*
X0052462Y0076881D01*
X0052509Y0076946D01*
X0052558Y0077008D01*
X0052611Y0077068D01*
X0052667Y0077125D01*
X0052725Y0077180D01*
X0052786Y0077231D01*
X0052850Y0077279D01*
X0052916Y0077324D01*
X0052984Y0077366D01*
X0053054Y0077404D01*
X0053126Y0077438D01*
X0053199Y0077469D01*
X0053274Y0077497D01*
X0053351Y0077520D01*
X0053428Y0077540D01*
X0053506Y0077556D01*
X0053585Y0077568D01*
X0053664Y0077576D01*
X0053744Y0077580D01*
X0053824Y0077580D01*
X0053904Y0077576D01*
X0053983Y0077568D01*
X0054062Y0077556D01*
X0054140Y0077540D01*
X0054217Y0077520D01*
X0054294Y0077497D01*
X0054369Y0077469D01*
X0054442Y0077438D01*
X0054514Y0077404D01*
X0054584Y0077366D01*
X0054652Y0077324D01*
X0054718Y0077279D01*
X0054782Y0077231D01*
X0054843Y0077180D01*
X0054901Y0077125D01*
X0054957Y0077068D01*
X0055010Y0077008D01*
X0055059Y0076946D01*
X0055106Y0076881D01*
X0055149Y0076814D01*
X0055189Y0076745D01*
X0055226Y0076674D01*
X0055258Y0076601D01*
X0055288Y0076527D01*
X0055313Y0076452D01*
X0055335Y0076375D01*
X0055352Y0076297D01*
X0055366Y0076218D01*
X0055376Y0076139D01*
X0055382Y0076060D01*
X0055384Y0075980D01*
X0055382Y0075900D01*
X0055376Y0075821D01*
X0055366Y0075742D01*
X0055352Y0075663D01*
X0055335Y0075585D01*
X0055313Y0075508D01*
X0055288Y0075433D01*
X0055258Y0075359D01*
X0055226Y0075286D01*
X0055189Y0075215D01*
X0055149Y0075146D01*
X0055106Y0075079D01*
X0055059Y0075014D01*
X0055010Y0074952D01*
X0054957Y0074892D01*
X0054901Y0074835D01*
X0054843Y0074780D01*
X0054782Y0074729D01*
X0054718Y0074681D01*
X0054652Y0074636D01*
X0054584Y0074594D01*
X0054514Y0074556D01*
X0054442Y0074522D01*
X0054369Y0074491D01*
X0054294Y0074463D01*
X0054217Y0074440D01*
X0054140Y0074420D01*
X0054062Y0074404D01*
X0053983Y0074392D01*
X0053904Y0074384D01*
X0053824Y0074380D01*
X0053744Y0074380D01*
X0053664Y0074384D01*
X0053585Y0074392D01*
X0053506Y0074404D01*
X0053428Y0074420D01*
X0053351Y0074440D01*
X0053274Y0074463D01*
X0053199Y0074491D01*
X0053126Y0074522D01*
X0053054Y0074556D01*
X0052984Y0074594D01*
X0052916Y0074636D01*
X0052850Y0074681D01*
X0052786Y0074729D01*
X0052725Y0074780D01*
X0052667Y0074835D01*
X0052611Y0074892D01*
X0052558Y0074952D01*
X0052509Y0075014D01*
X0052462Y0075079D01*
X0052419Y0075146D01*
X0052379Y0075215D01*
X0052342Y0075286D01*
X0052310Y0075359D01*
X0052280Y0075433D01*
X0052255Y0075508D01*
X0052233Y0075585D01*
X0052216Y0075663D01*
X0052202Y0075742D01*
X0052192Y0075821D01*
X0052186Y0075900D01*
X0052184Y0075980D01*
X0052184Y0075193D02*
X0052186Y0075273D01*
X0052192Y0075352D01*
X0052202Y0075431D01*
X0052216Y0075510D01*
X0052233Y0075588D01*
X0052255Y0075665D01*
X0052280Y0075740D01*
X0052310Y0075814D01*
X0052342Y0075887D01*
X0052379Y0075958D01*
X0052419Y0076027D01*
X0052462Y0076094D01*
X0052509Y0076159D01*
X0052558Y0076221D01*
X0052611Y0076281D01*
X0052667Y0076338D01*
X0052725Y0076393D01*
X0052786Y0076444D01*
X0052850Y0076492D01*
X0052916Y0076537D01*
X0052984Y0076579D01*
X0053054Y0076617D01*
X0053126Y0076651D01*
X0053199Y0076682D01*
X0053274Y0076710D01*
X0053351Y0076733D01*
X0053428Y0076753D01*
X0053506Y0076769D01*
X0053585Y0076781D01*
X0053664Y0076789D01*
X0053744Y0076793D01*
X0053824Y0076793D01*
X0053904Y0076789D01*
X0053983Y0076781D01*
X0054062Y0076769D01*
X0054140Y0076753D01*
X0054217Y0076733D01*
X0054294Y0076710D01*
X0054369Y0076682D01*
X0054442Y0076651D01*
X0054514Y0076617D01*
X0054584Y0076579D01*
X0054652Y0076537D01*
X0054718Y0076492D01*
X0054782Y0076444D01*
X0054843Y0076393D01*
X0054901Y0076338D01*
X0054957Y0076281D01*
X0055010Y0076221D01*
X0055059Y0076159D01*
X0055106Y0076094D01*
X0055149Y0076027D01*
X0055189Y0075958D01*
X0055226Y0075887D01*
X0055258Y0075814D01*
X0055288Y0075740D01*
X0055313Y0075665D01*
X0055335Y0075588D01*
X0055352Y0075510D01*
X0055366Y0075431D01*
X0055376Y0075352D01*
X0055382Y0075273D01*
X0055384Y0075193D01*
X0055382Y0075113D01*
X0055376Y0075034D01*
X0055366Y0074955D01*
X0055352Y0074876D01*
X0055335Y0074798D01*
X0055313Y0074721D01*
X0055288Y0074646D01*
X0055258Y0074572D01*
X0055226Y0074499D01*
X0055189Y0074428D01*
X0055149Y0074359D01*
X0055106Y0074292D01*
X0055059Y0074227D01*
X0055010Y0074165D01*
X0054957Y0074105D01*
X0054901Y0074048D01*
X0054843Y0073993D01*
X0054782Y0073942D01*
X0054718Y0073894D01*
X0054652Y0073849D01*
X0054584Y0073807D01*
X0054514Y0073769D01*
X0054442Y0073735D01*
X0054369Y0073704D01*
X0054294Y0073676D01*
X0054217Y0073653D01*
X0054140Y0073633D01*
X0054062Y0073617D01*
X0053983Y0073605D01*
X0053904Y0073597D01*
X0053824Y0073593D01*
X0053744Y0073593D01*
X0053664Y0073597D01*
X0053585Y0073605D01*
X0053506Y0073617D01*
X0053428Y0073633D01*
X0053351Y0073653D01*
X0053274Y0073676D01*
X0053199Y0073704D01*
X0053126Y0073735D01*
X0053054Y0073769D01*
X0052984Y0073807D01*
X0052916Y0073849D01*
X0052850Y0073894D01*
X0052786Y0073942D01*
X0052725Y0073993D01*
X0052667Y0074048D01*
X0052611Y0074105D01*
X0052558Y0074165D01*
X0052509Y0074227D01*
X0052462Y0074292D01*
X0052419Y0074359D01*
X0052379Y0074428D01*
X0052342Y0074499D01*
X0052310Y0074572D01*
X0052280Y0074646D01*
X0052255Y0074721D01*
X0052233Y0074798D01*
X0052216Y0074876D01*
X0052202Y0074955D01*
X0052192Y0075034D01*
X0052186Y0075113D01*
X0052184Y0075193D01*
X0052184Y0074406D02*
X0052186Y0074486D01*
X0052192Y0074565D01*
X0052202Y0074644D01*
X0052216Y0074723D01*
X0052233Y0074801D01*
X0052255Y0074878D01*
X0052280Y0074953D01*
X0052310Y0075027D01*
X0052342Y0075100D01*
X0052379Y0075171D01*
X0052419Y0075240D01*
X0052462Y0075307D01*
X0052509Y0075372D01*
X0052558Y0075434D01*
X0052611Y0075494D01*
X0052667Y0075551D01*
X0052725Y0075606D01*
X0052786Y0075657D01*
X0052850Y0075705D01*
X0052916Y0075750D01*
X0052984Y0075792D01*
X0053054Y0075830D01*
X0053126Y0075864D01*
X0053199Y0075895D01*
X0053274Y0075923D01*
X0053351Y0075946D01*
X0053428Y0075966D01*
X0053506Y0075982D01*
X0053585Y0075994D01*
X0053664Y0076002D01*
X0053744Y0076006D01*
X0053824Y0076006D01*
X0053904Y0076002D01*
X0053983Y0075994D01*
X0054062Y0075982D01*
X0054140Y0075966D01*
X0054217Y0075946D01*
X0054294Y0075923D01*
X0054369Y0075895D01*
X0054442Y0075864D01*
X0054514Y0075830D01*
X0054584Y0075792D01*
X0054652Y0075750D01*
X0054718Y0075705D01*
X0054782Y0075657D01*
X0054843Y0075606D01*
X0054901Y0075551D01*
X0054957Y0075494D01*
X0055010Y0075434D01*
X0055059Y0075372D01*
X0055106Y0075307D01*
X0055149Y0075240D01*
X0055189Y0075171D01*
X0055226Y0075100D01*
X0055258Y0075027D01*
X0055288Y0074953D01*
X0055313Y0074878D01*
X0055335Y0074801D01*
X0055352Y0074723D01*
X0055366Y0074644D01*
X0055376Y0074565D01*
X0055382Y0074486D01*
X0055384Y0074406D01*
X0055382Y0074326D01*
X0055376Y0074247D01*
X0055366Y0074168D01*
X0055352Y0074089D01*
X0055335Y0074011D01*
X0055313Y0073934D01*
X0055288Y0073859D01*
X0055258Y0073785D01*
X0055226Y0073712D01*
X0055189Y0073641D01*
X0055149Y0073572D01*
X0055106Y0073505D01*
X0055059Y0073440D01*
X0055010Y0073378D01*
X0054957Y0073318D01*
X0054901Y0073261D01*
X0054843Y0073206D01*
X0054782Y0073155D01*
X0054718Y0073107D01*
X0054652Y0073062D01*
X0054584Y0073020D01*
X0054514Y0072982D01*
X0054442Y0072948D01*
X0054369Y0072917D01*
X0054294Y0072889D01*
X0054217Y0072866D01*
X0054140Y0072846D01*
X0054062Y0072830D01*
X0053983Y0072818D01*
X0053904Y0072810D01*
X0053824Y0072806D01*
X0053744Y0072806D01*
X0053664Y0072810D01*
X0053585Y0072818D01*
X0053506Y0072830D01*
X0053428Y0072846D01*
X0053351Y0072866D01*
X0053274Y0072889D01*
X0053199Y0072917D01*
X0053126Y0072948D01*
X0053054Y0072982D01*
X0052984Y0073020D01*
X0052916Y0073062D01*
X0052850Y0073107D01*
X0052786Y0073155D01*
X0052725Y0073206D01*
X0052667Y0073261D01*
X0052611Y0073318D01*
X0052558Y0073378D01*
X0052509Y0073440D01*
X0052462Y0073505D01*
X0052419Y0073572D01*
X0052379Y0073641D01*
X0052342Y0073712D01*
X0052310Y0073785D01*
X0052280Y0073859D01*
X0052255Y0073934D01*
X0052233Y0074011D01*
X0052216Y0074089D01*
X0052202Y0074168D01*
X0052192Y0074247D01*
X0052186Y0074326D01*
X0052184Y0074406D01*
X0052184Y0073618D02*
X0052186Y0073698D01*
X0052192Y0073777D01*
X0052202Y0073856D01*
X0052216Y0073935D01*
X0052233Y0074013D01*
X0052255Y0074090D01*
X0052280Y0074165D01*
X0052310Y0074239D01*
X0052342Y0074312D01*
X0052379Y0074383D01*
X0052419Y0074452D01*
X0052462Y0074519D01*
X0052509Y0074584D01*
X0052558Y0074646D01*
X0052611Y0074706D01*
X0052667Y0074763D01*
X0052725Y0074818D01*
X0052786Y0074869D01*
X0052850Y0074917D01*
X0052916Y0074962D01*
X0052984Y0075004D01*
X0053054Y0075042D01*
X0053126Y0075076D01*
X0053199Y0075107D01*
X0053274Y0075135D01*
X0053351Y0075158D01*
X0053428Y0075178D01*
X0053506Y0075194D01*
X0053585Y0075206D01*
X0053664Y0075214D01*
X0053744Y0075218D01*
X0053824Y0075218D01*
X0053904Y0075214D01*
X0053983Y0075206D01*
X0054062Y0075194D01*
X0054140Y0075178D01*
X0054217Y0075158D01*
X0054294Y0075135D01*
X0054369Y0075107D01*
X0054442Y0075076D01*
X0054514Y0075042D01*
X0054584Y0075004D01*
X0054652Y0074962D01*
X0054718Y0074917D01*
X0054782Y0074869D01*
X0054843Y0074818D01*
X0054901Y0074763D01*
X0054957Y0074706D01*
X0055010Y0074646D01*
X0055059Y0074584D01*
X0055106Y0074519D01*
X0055149Y0074452D01*
X0055189Y0074383D01*
X0055226Y0074312D01*
X0055258Y0074239D01*
X0055288Y0074165D01*
X0055313Y0074090D01*
X0055335Y0074013D01*
X0055352Y0073935D01*
X0055366Y0073856D01*
X0055376Y0073777D01*
X0055382Y0073698D01*
X0055384Y0073618D01*
X0055382Y0073538D01*
X0055376Y0073459D01*
X0055366Y0073380D01*
X0055352Y0073301D01*
X0055335Y0073223D01*
X0055313Y0073146D01*
X0055288Y0073071D01*
X0055258Y0072997D01*
X0055226Y0072924D01*
X0055189Y0072853D01*
X0055149Y0072784D01*
X0055106Y0072717D01*
X0055059Y0072652D01*
X0055010Y0072590D01*
X0054957Y0072530D01*
X0054901Y0072473D01*
X0054843Y0072418D01*
X0054782Y0072367D01*
X0054718Y0072319D01*
X0054652Y0072274D01*
X0054584Y0072232D01*
X0054514Y0072194D01*
X0054442Y0072160D01*
X0054369Y0072129D01*
X0054294Y0072101D01*
X0054217Y0072078D01*
X0054140Y0072058D01*
X0054062Y0072042D01*
X0053983Y0072030D01*
X0053904Y0072022D01*
X0053824Y0072018D01*
X0053744Y0072018D01*
X0053664Y0072022D01*
X0053585Y0072030D01*
X0053506Y0072042D01*
X0053428Y0072058D01*
X0053351Y0072078D01*
X0053274Y0072101D01*
X0053199Y0072129D01*
X0053126Y0072160D01*
X0053054Y0072194D01*
X0052984Y0072232D01*
X0052916Y0072274D01*
X0052850Y0072319D01*
X0052786Y0072367D01*
X0052725Y0072418D01*
X0052667Y0072473D01*
X0052611Y0072530D01*
X0052558Y0072590D01*
X0052509Y0072652D01*
X0052462Y0072717D01*
X0052419Y0072784D01*
X0052379Y0072853D01*
X0052342Y0072924D01*
X0052310Y0072997D01*
X0052280Y0073071D01*
X0052255Y0073146D01*
X0052233Y0073223D01*
X0052216Y0073301D01*
X0052202Y0073380D01*
X0052192Y0073459D01*
X0052186Y0073538D01*
X0052184Y0073618D01*
X0052184Y0072831D02*
X0052186Y0072911D01*
X0052192Y0072990D01*
X0052202Y0073069D01*
X0052216Y0073148D01*
X0052233Y0073226D01*
X0052255Y0073303D01*
X0052280Y0073378D01*
X0052310Y0073452D01*
X0052342Y0073525D01*
X0052379Y0073596D01*
X0052419Y0073665D01*
X0052462Y0073732D01*
X0052509Y0073797D01*
X0052558Y0073859D01*
X0052611Y0073919D01*
X0052667Y0073976D01*
X0052725Y0074031D01*
X0052786Y0074082D01*
X0052850Y0074130D01*
X0052916Y0074175D01*
X0052984Y0074217D01*
X0053054Y0074255D01*
X0053126Y0074289D01*
X0053199Y0074320D01*
X0053274Y0074348D01*
X0053351Y0074371D01*
X0053428Y0074391D01*
X0053506Y0074407D01*
X0053585Y0074419D01*
X0053664Y0074427D01*
X0053744Y0074431D01*
X0053824Y0074431D01*
X0053904Y0074427D01*
X0053983Y0074419D01*
X0054062Y0074407D01*
X0054140Y0074391D01*
X0054217Y0074371D01*
X0054294Y0074348D01*
X0054369Y0074320D01*
X0054442Y0074289D01*
X0054514Y0074255D01*
X0054584Y0074217D01*
X0054652Y0074175D01*
X0054718Y0074130D01*
X0054782Y0074082D01*
X0054843Y0074031D01*
X0054901Y0073976D01*
X0054957Y0073919D01*
X0055010Y0073859D01*
X0055059Y0073797D01*
X0055106Y0073732D01*
X0055149Y0073665D01*
X0055189Y0073596D01*
X0055226Y0073525D01*
X0055258Y0073452D01*
X0055288Y0073378D01*
X0055313Y0073303D01*
X0055335Y0073226D01*
X0055352Y0073148D01*
X0055366Y0073069D01*
X0055376Y0072990D01*
X0055382Y0072911D01*
X0055384Y0072831D01*
X0055382Y0072751D01*
X0055376Y0072672D01*
X0055366Y0072593D01*
X0055352Y0072514D01*
X0055335Y0072436D01*
X0055313Y0072359D01*
X0055288Y0072284D01*
X0055258Y0072210D01*
X0055226Y0072137D01*
X0055189Y0072066D01*
X0055149Y0071997D01*
X0055106Y0071930D01*
X0055059Y0071865D01*
X0055010Y0071803D01*
X0054957Y0071743D01*
X0054901Y0071686D01*
X0054843Y0071631D01*
X0054782Y0071580D01*
X0054718Y0071532D01*
X0054652Y0071487D01*
X0054584Y0071445D01*
X0054514Y0071407D01*
X0054442Y0071373D01*
X0054369Y0071342D01*
X0054294Y0071314D01*
X0054217Y0071291D01*
X0054140Y0071271D01*
X0054062Y0071255D01*
X0053983Y0071243D01*
X0053904Y0071235D01*
X0053824Y0071231D01*
X0053744Y0071231D01*
X0053664Y0071235D01*
X0053585Y0071243D01*
X0053506Y0071255D01*
X0053428Y0071271D01*
X0053351Y0071291D01*
X0053274Y0071314D01*
X0053199Y0071342D01*
X0053126Y0071373D01*
X0053054Y0071407D01*
X0052984Y0071445D01*
X0052916Y0071487D01*
X0052850Y0071532D01*
X0052786Y0071580D01*
X0052725Y0071631D01*
X0052667Y0071686D01*
X0052611Y0071743D01*
X0052558Y0071803D01*
X0052509Y0071865D01*
X0052462Y0071930D01*
X0052419Y0071997D01*
X0052379Y0072066D01*
X0052342Y0072137D01*
X0052310Y0072210D01*
X0052280Y0072284D01*
X0052255Y0072359D01*
X0052233Y0072436D01*
X0052216Y0072514D01*
X0052202Y0072593D01*
X0052192Y0072672D01*
X0052186Y0072751D01*
X0052184Y0072831D01*
X0052184Y0072043D02*
X0052186Y0072123D01*
X0052192Y0072202D01*
X0052202Y0072281D01*
X0052216Y0072360D01*
X0052233Y0072438D01*
X0052255Y0072515D01*
X0052280Y0072590D01*
X0052310Y0072664D01*
X0052342Y0072737D01*
X0052379Y0072808D01*
X0052419Y0072877D01*
X0052462Y0072944D01*
X0052509Y0073009D01*
X0052558Y0073071D01*
X0052611Y0073131D01*
X0052667Y0073188D01*
X0052725Y0073243D01*
X0052786Y0073294D01*
X0052850Y0073342D01*
X0052916Y0073387D01*
X0052984Y0073429D01*
X0053054Y0073467D01*
X0053126Y0073501D01*
X0053199Y0073532D01*
X0053274Y0073560D01*
X0053351Y0073583D01*
X0053428Y0073603D01*
X0053506Y0073619D01*
X0053585Y0073631D01*
X0053664Y0073639D01*
X0053744Y0073643D01*
X0053824Y0073643D01*
X0053904Y0073639D01*
X0053983Y0073631D01*
X0054062Y0073619D01*
X0054140Y0073603D01*
X0054217Y0073583D01*
X0054294Y0073560D01*
X0054369Y0073532D01*
X0054442Y0073501D01*
X0054514Y0073467D01*
X0054584Y0073429D01*
X0054652Y0073387D01*
X0054718Y0073342D01*
X0054782Y0073294D01*
X0054843Y0073243D01*
X0054901Y0073188D01*
X0054957Y0073131D01*
X0055010Y0073071D01*
X0055059Y0073009D01*
X0055106Y0072944D01*
X0055149Y0072877D01*
X0055189Y0072808D01*
X0055226Y0072737D01*
X0055258Y0072664D01*
X0055288Y0072590D01*
X0055313Y0072515D01*
X0055335Y0072438D01*
X0055352Y0072360D01*
X0055366Y0072281D01*
X0055376Y0072202D01*
X0055382Y0072123D01*
X0055384Y0072043D01*
X0055382Y0071963D01*
X0055376Y0071884D01*
X0055366Y0071805D01*
X0055352Y0071726D01*
X0055335Y0071648D01*
X0055313Y0071571D01*
X0055288Y0071496D01*
X0055258Y0071422D01*
X0055226Y0071349D01*
X0055189Y0071278D01*
X0055149Y0071209D01*
X0055106Y0071142D01*
X0055059Y0071077D01*
X0055010Y0071015D01*
X0054957Y0070955D01*
X0054901Y0070898D01*
X0054843Y0070843D01*
X0054782Y0070792D01*
X0054718Y0070744D01*
X0054652Y0070699D01*
X0054584Y0070657D01*
X0054514Y0070619D01*
X0054442Y0070585D01*
X0054369Y0070554D01*
X0054294Y0070526D01*
X0054217Y0070503D01*
X0054140Y0070483D01*
X0054062Y0070467D01*
X0053983Y0070455D01*
X0053904Y0070447D01*
X0053824Y0070443D01*
X0053744Y0070443D01*
X0053664Y0070447D01*
X0053585Y0070455D01*
X0053506Y0070467D01*
X0053428Y0070483D01*
X0053351Y0070503D01*
X0053274Y0070526D01*
X0053199Y0070554D01*
X0053126Y0070585D01*
X0053054Y0070619D01*
X0052984Y0070657D01*
X0052916Y0070699D01*
X0052850Y0070744D01*
X0052786Y0070792D01*
X0052725Y0070843D01*
X0052667Y0070898D01*
X0052611Y0070955D01*
X0052558Y0071015D01*
X0052509Y0071077D01*
X0052462Y0071142D01*
X0052419Y0071209D01*
X0052379Y0071278D01*
X0052342Y0071349D01*
X0052310Y0071422D01*
X0052280Y0071496D01*
X0052255Y0071571D01*
X0052233Y0071648D01*
X0052216Y0071726D01*
X0052202Y0071805D01*
X0052192Y0071884D01*
X0052186Y0071963D01*
X0052184Y0072043D01*
X0052184Y0070469D02*
X0052186Y0070549D01*
X0052192Y0070628D01*
X0052202Y0070707D01*
X0052216Y0070786D01*
X0052233Y0070864D01*
X0052255Y0070941D01*
X0052280Y0071016D01*
X0052310Y0071090D01*
X0052342Y0071163D01*
X0052379Y0071234D01*
X0052419Y0071303D01*
X0052462Y0071370D01*
X0052509Y0071435D01*
X0052558Y0071497D01*
X0052611Y0071557D01*
X0052667Y0071614D01*
X0052725Y0071669D01*
X0052786Y0071720D01*
X0052850Y0071768D01*
X0052916Y0071813D01*
X0052984Y0071855D01*
X0053054Y0071893D01*
X0053126Y0071927D01*
X0053199Y0071958D01*
X0053274Y0071986D01*
X0053351Y0072009D01*
X0053428Y0072029D01*
X0053506Y0072045D01*
X0053585Y0072057D01*
X0053664Y0072065D01*
X0053744Y0072069D01*
X0053824Y0072069D01*
X0053904Y0072065D01*
X0053983Y0072057D01*
X0054062Y0072045D01*
X0054140Y0072029D01*
X0054217Y0072009D01*
X0054294Y0071986D01*
X0054369Y0071958D01*
X0054442Y0071927D01*
X0054514Y0071893D01*
X0054584Y0071855D01*
X0054652Y0071813D01*
X0054718Y0071768D01*
X0054782Y0071720D01*
X0054843Y0071669D01*
X0054901Y0071614D01*
X0054957Y0071557D01*
X0055010Y0071497D01*
X0055059Y0071435D01*
X0055106Y0071370D01*
X0055149Y0071303D01*
X0055189Y0071234D01*
X0055226Y0071163D01*
X0055258Y0071090D01*
X0055288Y0071016D01*
X0055313Y0070941D01*
X0055335Y0070864D01*
X0055352Y0070786D01*
X0055366Y0070707D01*
X0055376Y0070628D01*
X0055382Y0070549D01*
X0055384Y0070469D01*
X0055382Y0070389D01*
X0055376Y0070310D01*
X0055366Y0070231D01*
X0055352Y0070152D01*
X0055335Y0070074D01*
X0055313Y0069997D01*
X0055288Y0069922D01*
X0055258Y0069848D01*
X0055226Y0069775D01*
X0055189Y0069704D01*
X0055149Y0069635D01*
X0055106Y0069568D01*
X0055059Y0069503D01*
X0055010Y0069441D01*
X0054957Y0069381D01*
X0054901Y0069324D01*
X0054843Y0069269D01*
X0054782Y0069218D01*
X0054718Y0069170D01*
X0054652Y0069125D01*
X0054584Y0069083D01*
X0054514Y0069045D01*
X0054442Y0069011D01*
X0054369Y0068980D01*
X0054294Y0068952D01*
X0054217Y0068929D01*
X0054140Y0068909D01*
X0054062Y0068893D01*
X0053983Y0068881D01*
X0053904Y0068873D01*
X0053824Y0068869D01*
X0053744Y0068869D01*
X0053664Y0068873D01*
X0053585Y0068881D01*
X0053506Y0068893D01*
X0053428Y0068909D01*
X0053351Y0068929D01*
X0053274Y0068952D01*
X0053199Y0068980D01*
X0053126Y0069011D01*
X0053054Y0069045D01*
X0052984Y0069083D01*
X0052916Y0069125D01*
X0052850Y0069170D01*
X0052786Y0069218D01*
X0052725Y0069269D01*
X0052667Y0069324D01*
X0052611Y0069381D01*
X0052558Y0069441D01*
X0052509Y0069503D01*
X0052462Y0069568D01*
X0052419Y0069635D01*
X0052379Y0069704D01*
X0052342Y0069775D01*
X0052310Y0069848D01*
X0052280Y0069922D01*
X0052255Y0069997D01*
X0052233Y0070074D01*
X0052216Y0070152D01*
X0052202Y0070231D01*
X0052192Y0070310D01*
X0052186Y0070389D01*
X0052184Y0070469D01*
X0052184Y0069681D02*
X0052186Y0069761D01*
X0052192Y0069840D01*
X0052202Y0069919D01*
X0052216Y0069998D01*
X0052233Y0070076D01*
X0052255Y0070153D01*
X0052280Y0070228D01*
X0052310Y0070302D01*
X0052342Y0070375D01*
X0052379Y0070446D01*
X0052419Y0070515D01*
X0052462Y0070582D01*
X0052509Y0070647D01*
X0052558Y0070709D01*
X0052611Y0070769D01*
X0052667Y0070826D01*
X0052725Y0070881D01*
X0052786Y0070932D01*
X0052850Y0070980D01*
X0052916Y0071025D01*
X0052984Y0071067D01*
X0053054Y0071105D01*
X0053126Y0071139D01*
X0053199Y0071170D01*
X0053274Y0071198D01*
X0053351Y0071221D01*
X0053428Y0071241D01*
X0053506Y0071257D01*
X0053585Y0071269D01*
X0053664Y0071277D01*
X0053744Y0071281D01*
X0053824Y0071281D01*
X0053904Y0071277D01*
X0053983Y0071269D01*
X0054062Y0071257D01*
X0054140Y0071241D01*
X0054217Y0071221D01*
X0054294Y0071198D01*
X0054369Y0071170D01*
X0054442Y0071139D01*
X0054514Y0071105D01*
X0054584Y0071067D01*
X0054652Y0071025D01*
X0054718Y0070980D01*
X0054782Y0070932D01*
X0054843Y0070881D01*
X0054901Y0070826D01*
X0054957Y0070769D01*
X0055010Y0070709D01*
X0055059Y0070647D01*
X0055106Y0070582D01*
X0055149Y0070515D01*
X0055189Y0070446D01*
X0055226Y0070375D01*
X0055258Y0070302D01*
X0055288Y0070228D01*
X0055313Y0070153D01*
X0055335Y0070076D01*
X0055352Y0069998D01*
X0055366Y0069919D01*
X0055376Y0069840D01*
X0055382Y0069761D01*
X0055384Y0069681D01*
X0055382Y0069601D01*
X0055376Y0069522D01*
X0055366Y0069443D01*
X0055352Y0069364D01*
X0055335Y0069286D01*
X0055313Y0069209D01*
X0055288Y0069134D01*
X0055258Y0069060D01*
X0055226Y0068987D01*
X0055189Y0068916D01*
X0055149Y0068847D01*
X0055106Y0068780D01*
X0055059Y0068715D01*
X0055010Y0068653D01*
X0054957Y0068593D01*
X0054901Y0068536D01*
X0054843Y0068481D01*
X0054782Y0068430D01*
X0054718Y0068382D01*
X0054652Y0068337D01*
X0054584Y0068295D01*
X0054514Y0068257D01*
X0054442Y0068223D01*
X0054369Y0068192D01*
X0054294Y0068164D01*
X0054217Y0068141D01*
X0054140Y0068121D01*
X0054062Y0068105D01*
X0053983Y0068093D01*
X0053904Y0068085D01*
X0053824Y0068081D01*
X0053744Y0068081D01*
X0053664Y0068085D01*
X0053585Y0068093D01*
X0053506Y0068105D01*
X0053428Y0068121D01*
X0053351Y0068141D01*
X0053274Y0068164D01*
X0053199Y0068192D01*
X0053126Y0068223D01*
X0053054Y0068257D01*
X0052984Y0068295D01*
X0052916Y0068337D01*
X0052850Y0068382D01*
X0052786Y0068430D01*
X0052725Y0068481D01*
X0052667Y0068536D01*
X0052611Y0068593D01*
X0052558Y0068653D01*
X0052509Y0068715D01*
X0052462Y0068780D01*
X0052419Y0068847D01*
X0052379Y0068916D01*
X0052342Y0068987D01*
X0052310Y0069060D01*
X0052280Y0069134D01*
X0052255Y0069209D01*
X0052233Y0069286D01*
X0052216Y0069364D01*
X0052202Y0069443D01*
X0052192Y0069522D01*
X0052186Y0069601D01*
X0052184Y0069681D01*
X0052184Y0068894D02*
X0052186Y0068974D01*
X0052192Y0069053D01*
X0052202Y0069132D01*
X0052216Y0069211D01*
X0052233Y0069289D01*
X0052255Y0069366D01*
X0052280Y0069441D01*
X0052310Y0069515D01*
X0052342Y0069588D01*
X0052379Y0069659D01*
X0052419Y0069728D01*
X0052462Y0069795D01*
X0052509Y0069860D01*
X0052558Y0069922D01*
X0052611Y0069982D01*
X0052667Y0070039D01*
X0052725Y0070094D01*
X0052786Y0070145D01*
X0052850Y0070193D01*
X0052916Y0070238D01*
X0052984Y0070280D01*
X0053054Y0070318D01*
X0053126Y0070352D01*
X0053199Y0070383D01*
X0053274Y0070411D01*
X0053351Y0070434D01*
X0053428Y0070454D01*
X0053506Y0070470D01*
X0053585Y0070482D01*
X0053664Y0070490D01*
X0053744Y0070494D01*
X0053824Y0070494D01*
X0053904Y0070490D01*
X0053983Y0070482D01*
X0054062Y0070470D01*
X0054140Y0070454D01*
X0054217Y0070434D01*
X0054294Y0070411D01*
X0054369Y0070383D01*
X0054442Y0070352D01*
X0054514Y0070318D01*
X0054584Y0070280D01*
X0054652Y0070238D01*
X0054718Y0070193D01*
X0054782Y0070145D01*
X0054843Y0070094D01*
X0054901Y0070039D01*
X0054957Y0069982D01*
X0055010Y0069922D01*
X0055059Y0069860D01*
X0055106Y0069795D01*
X0055149Y0069728D01*
X0055189Y0069659D01*
X0055226Y0069588D01*
X0055258Y0069515D01*
X0055288Y0069441D01*
X0055313Y0069366D01*
X0055335Y0069289D01*
X0055352Y0069211D01*
X0055366Y0069132D01*
X0055376Y0069053D01*
X0055382Y0068974D01*
X0055384Y0068894D01*
X0055382Y0068814D01*
X0055376Y0068735D01*
X0055366Y0068656D01*
X0055352Y0068577D01*
X0055335Y0068499D01*
X0055313Y0068422D01*
X0055288Y0068347D01*
X0055258Y0068273D01*
X0055226Y0068200D01*
X0055189Y0068129D01*
X0055149Y0068060D01*
X0055106Y0067993D01*
X0055059Y0067928D01*
X0055010Y0067866D01*
X0054957Y0067806D01*
X0054901Y0067749D01*
X0054843Y0067694D01*
X0054782Y0067643D01*
X0054718Y0067595D01*
X0054652Y0067550D01*
X0054584Y0067508D01*
X0054514Y0067470D01*
X0054442Y0067436D01*
X0054369Y0067405D01*
X0054294Y0067377D01*
X0054217Y0067354D01*
X0054140Y0067334D01*
X0054062Y0067318D01*
X0053983Y0067306D01*
X0053904Y0067298D01*
X0053824Y0067294D01*
X0053744Y0067294D01*
X0053664Y0067298D01*
X0053585Y0067306D01*
X0053506Y0067318D01*
X0053428Y0067334D01*
X0053351Y0067354D01*
X0053274Y0067377D01*
X0053199Y0067405D01*
X0053126Y0067436D01*
X0053054Y0067470D01*
X0052984Y0067508D01*
X0052916Y0067550D01*
X0052850Y0067595D01*
X0052786Y0067643D01*
X0052725Y0067694D01*
X0052667Y0067749D01*
X0052611Y0067806D01*
X0052558Y0067866D01*
X0052509Y0067928D01*
X0052462Y0067993D01*
X0052419Y0068060D01*
X0052379Y0068129D01*
X0052342Y0068200D01*
X0052310Y0068273D01*
X0052280Y0068347D01*
X0052255Y0068422D01*
X0052233Y0068499D01*
X0052216Y0068577D01*
X0052202Y0068656D01*
X0052192Y0068735D01*
X0052186Y0068814D01*
X0052184Y0068894D01*
X0052184Y0068106D02*
X0052186Y0068186D01*
X0052192Y0068265D01*
X0052202Y0068344D01*
X0052216Y0068423D01*
X0052233Y0068501D01*
X0052255Y0068578D01*
X0052280Y0068653D01*
X0052310Y0068727D01*
X0052342Y0068800D01*
X0052379Y0068871D01*
X0052419Y0068940D01*
X0052462Y0069007D01*
X0052509Y0069072D01*
X0052558Y0069134D01*
X0052611Y0069194D01*
X0052667Y0069251D01*
X0052725Y0069306D01*
X0052786Y0069357D01*
X0052850Y0069405D01*
X0052916Y0069450D01*
X0052984Y0069492D01*
X0053054Y0069530D01*
X0053126Y0069564D01*
X0053199Y0069595D01*
X0053274Y0069623D01*
X0053351Y0069646D01*
X0053428Y0069666D01*
X0053506Y0069682D01*
X0053585Y0069694D01*
X0053664Y0069702D01*
X0053744Y0069706D01*
X0053824Y0069706D01*
X0053904Y0069702D01*
X0053983Y0069694D01*
X0054062Y0069682D01*
X0054140Y0069666D01*
X0054217Y0069646D01*
X0054294Y0069623D01*
X0054369Y0069595D01*
X0054442Y0069564D01*
X0054514Y0069530D01*
X0054584Y0069492D01*
X0054652Y0069450D01*
X0054718Y0069405D01*
X0054782Y0069357D01*
X0054843Y0069306D01*
X0054901Y0069251D01*
X0054957Y0069194D01*
X0055010Y0069134D01*
X0055059Y0069072D01*
X0055106Y0069007D01*
X0055149Y0068940D01*
X0055189Y0068871D01*
X0055226Y0068800D01*
X0055258Y0068727D01*
X0055288Y0068653D01*
X0055313Y0068578D01*
X0055335Y0068501D01*
X0055352Y0068423D01*
X0055366Y0068344D01*
X0055376Y0068265D01*
X0055382Y0068186D01*
X0055384Y0068106D01*
X0055382Y0068026D01*
X0055376Y0067947D01*
X0055366Y0067868D01*
X0055352Y0067789D01*
X0055335Y0067711D01*
X0055313Y0067634D01*
X0055288Y0067559D01*
X0055258Y0067485D01*
X0055226Y0067412D01*
X0055189Y0067341D01*
X0055149Y0067272D01*
X0055106Y0067205D01*
X0055059Y0067140D01*
X0055010Y0067078D01*
X0054957Y0067018D01*
X0054901Y0066961D01*
X0054843Y0066906D01*
X0054782Y0066855D01*
X0054718Y0066807D01*
X0054652Y0066762D01*
X0054584Y0066720D01*
X0054514Y0066682D01*
X0054442Y0066648D01*
X0054369Y0066617D01*
X0054294Y0066589D01*
X0054217Y0066566D01*
X0054140Y0066546D01*
X0054062Y0066530D01*
X0053983Y0066518D01*
X0053904Y0066510D01*
X0053824Y0066506D01*
X0053744Y0066506D01*
X0053664Y0066510D01*
X0053585Y0066518D01*
X0053506Y0066530D01*
X0053428Y0066546D01*
X0053351Y0066566D01*
X0053274Y0066589D01*
X0053199Y0066617D01*
X0053126Y0066648D01*
X0053054Y0066682D01*
X0052984Y0066720D01*
X0052916Y0066762D01*
X0052850Y0066807D01*
X0052786Y0066855D01*
X0052725Y0066906D01*
X0052667Y0066961D01*
X0052611Y0067018D01*
X0052558Y0067078D01*
X0052509Y0067140D01*
X0052462Y0067205D01*
X0052419Y0067272D01*
X0052379Y0067341D01*
X0052342Y0067412D01*
X0052310Y0067485D01*
X0052280Y0067559D01*
X0052255Y0067634D01*
X0052233Y0067711D01*
X0052216Y0067789D01*
X0052202Y0067868D01*
X0052192Y0067947D01*
X0052186Y0068026D01*
X0052184Y0068106D01*
X0052184Y0067319D02*
X0052186Y0067399D01*
X0052192Y0067478D01*
X0052202Y0067557D01*
X0052216Y0067636D01*
X0052233Y0067714D01*
X0052255Y0067791D01*
X0052280Y0067866D01*
X0052310Y0067940D01*
X0052342Y0068013D01*
X0052379Y0068084D01*
X0052419Y0068153D01*
X0052462Y0068220D01*
X0052509Y0068285D01*
X0052558Y0068347D01*
X0052611Y0068407D01*
X0052667Y0068464D01*
X0052725Y0068519D01*
X0052786Y0068570D01*
X0052850Y0068618D01*
X0052916Y0068663D01*
X0052984Y0068705D01*
X0053054Y0068743D01*
X0053126Y0068777D01*
X0053199Y0068808D01*
X0053274Y0068836D01*
X0053351Y0068859D01*
X0053428Y0068879D01*
X0053506Y0068895D01*
X0053585Y0068907D01*
X0053664Y0068915D01*
X0053744Y0068919D01*
X0053824Y0068919D01*
X0053904Y0068915D01*
X0053983Y0068907D01*
X0054062Y0068895D01*
X0054140Y0068879D01*
X0054217Y0068859D01*
X0054294Y0068836D01*
X0054369Y0068808D01*
X0054442Y0068777D01*
X0054514Y0068743D01*
X0054584Y0068705D01*
X0054652Y0068663D01*
X0054718Y0068618D01*
X0054782Y0068570D01*
X0054843Y0068519D01*
X0054901Y0068464D01*
X0054957Y0068407D01*
X0055010Y0068347D01*
X0055059Y0068285D01*
X0055106Y0068220D01*
X0055149Y0068153D01*
X0055189Y0068084D01*
X0055226Y0068013D01*
X0055258Y0067940D01*
X0055288Y0067866D01*
X0055313Y0067791D01*
X0055335Y0067714D01*
X0055352Y0067636D01*
X0055366Y0067557D01*
X0055376Y0067478D01*
X0055382Y0067399D01*
X0055384Y0067319D01*
X0055382Y0067239D01*
X0055376Y0067160D01*
X0055366Y0067081D01*
X0055352Y0067002D01*
X0055335Y0066924D01*
X0055313Y0066847D01*
X0055288Y0066772D01*
X0055258Y0066698D01*
X0055226Y0066625D01*
X0055189Y0066554D01*
X0055149Y0066485D01*
X0055106Y0066418D01*
X0055059Y0066353D01*
X0055010Y0066291D01*
X0054957Y0066231D01*
X0054901Y0066174D01*
X0054843Y0066119D01*
X0054782Y0066068D01*
X0054718Y0066020D01*
X0054652Y0065975D01*
X0054584Y0065933D01*
X0054514Y0065895D01*
X0054442Y0065861D01*
X0054369Y0065830D01*
X0054294Y0065802D01*
X0054217Y0065779D01*
X0054140Y0065759D01*
X0054062Y0065743D01*
X0053983Y0065731D01*
X0053904Y0065723D01*
X0053824Y0065719D01*
X0053744Y0065719D01*
X0053664Y0065723D01*
X0053585Y0065731D01*
X0053506Y0065743D01*
X0053428Y0065759D01*
X0053351Y0065779D01*
X0053274Y0065802D01*
X0053199Y0065830D01*
X0053126Y0065861D01*
X0053054Y0065895D01*
X0052984Y0065933D01*
X0052916Y0065975D01*
X0052850Y0066020D01*
X0052786Y0066068D01*
X0052725Y0066119D01*
X0052667Y0066174D01*
X0052611Y0066231D01*
X0052558Y0066291D01*
X0052509Y0066353D01*
X0052462Y0066418D01*
X0052419Y0066485D01*
X0052379Y0066554D01*
X0052342Y0066625D01*
X0052310Y0066698D01*
X0052280Y0066772D01*
X0052255Y0066847D01*
X0052233Y0066924D01*
X0052216Y0067002D01*
X0052202Y0067081D01*
X0052192Y0067160D01*
X0052186Y0067239D01*
X0052184Y0067319D01*
X0052184Y0066531D02*
X0052186Y0066611D01*
X0052192Y0066690D01*
X0052202Y0066769D01*
X0052216Y0066848D01*
X0052233Y0066926D01*
X0052255Y0067003D01*
X0052280Y0067078D01*
X0052310Y0067152D01*
X0052342Y0067225D01*
X0052379Y0067296D01*
X0052419Y0067365D01*
X0052462Y0067432D01*
X0052509Y0067497D01*
X0052558Y0067559D01*
X0052611Y0067619D01*
X0052667Y0067676D01*
X0052725Y0067731D01*
X0052786Y0067782D01*
X0052850Y0067830D01*
X0052916Y0067875D01*
X0052984Y0067917D01*
X0053054Y0067955D01*
X0053126Y0067989D01*
X0053199Y0068020D01*
X0053274Y0068048D01*
X0053351Y0068071D01*
X0053428Y0068091D01*
X0053506Y0068107D01*
X0053585Y0068119D01*
X0053664Y0068127D01*
X0053744Y0068131D01*
X0053824Y0068131D01*
X0053904Y0068127D01*
X0053983Y0068119D01*
X0054062Y0068107D01*
X0054140Y0068091D01*
X0054217Y0068071D01*
X0054294Y0068048D01*
X0054369Y0068020D01*
X0054442Y0067989D01*
X0054514Y0067955D01*
X0054584Y0067917D01*
X0054652Y0067875D01*
X0054718Y0067830D01*
X0054782Y0067782D01*
X0054843Y0067731D01*
X0054901Y0067676D01*
X0054957Y0067619D01*
X0055010Y0067559D01*
X0055059Y0067497D01*
X0055106Y0067432D01*
X0055149Y0067365D01*
X0055189Y0067296D01*
X0055226Y0067225D01*
X0055258Y0067152D01*
X0055288Y0067078D01*
X0055313Y0067003D01*
X0055335Y0066926D01*
X0055352Y0066848D01*
X0055366Y0066769D01*
X0055376Y0066690D01*
X0055382Y0066611D01*
X0055384Y0066531D01*
X0055382Y0066451D01*
X0055376Y0066372D01*
X0055366Y0066293D01*
X0055352Y0066214D01*
X0055335Y0066136D01*
X0055313Y0066059D01*
X0055288Y0065984D01*
X0055258Y0065910D01*
X0055226Y0065837D01*
X0055189Y0065766D01*
X0055149Y0065697D01*
X0055106Y0065630D01*
X0055059Y0065565D01*
X0055010Y0065503D01*
X0054957Y0065443D01*
X0054901Y0065386D01*
X0054843Y0065331D01*
X0054782Y0065280D01*
X0054718Y0065232D01*
X0054652Y0065187D01*
X0054584Y0065145D01*
X0054514Y0065107D01*
X0054442Y0065073D01*
X0054369Y0065042D01*
X0054294Y0065014D01*
X0054217Y0064991D01*
X0054140Y0064971D01*
X0054062Y0064955D01*
X0053983Y0064943D01*
X0053904Y0064935D01*
X0053824Y0064931D01*
X0053744Y0064931D01*
X0053664Y0064935D01*
X0053585Y0064943D01*
X0053506Y0064955D01*
X0053428Y0064971D01*
X0053351Y0064991D01*
X0053274Y0065014D01*
X0053199Y0065042D01*
X0053126Y0065073D01*
X0053054Y0065107D01*
X0052984Y0065145D01*
X0052916Y0065187D01*
X0052850Y0065232D01*
X0052786Y0065280D01*
X0052725Y0065331D01*
X0052667Y0065386D01*
X0052611Y0065443D01*
X0052558Y0065503D01*
X0052509Y0065565D01*
X0052462Y0065630D01*
X0052419Y0065697D01*
X0052379Y0065766D01*
X0052342Y0065837D01*
X0052310Y0065910D01*
X0052280Y0065984D01*
X0052255Y0066059D01*
X0052233Y0066136D01*
X0052216Y0066214D01*
X0052202Y0066293D01*
X0052192Y0066372D01*
X0052186Y0066451D01*
X0052184Y0066531D01*
X0052184Y0065744D02*
X0052186Y0065824D01*
X0052192Y0065903D01*
X0052202Y0065982D01*
X0052216Y0066061D01*
X0052233Y0066139D01*
X0052255Y0066216D01*
X0052280Y0066291D01*
X0052310Y0066365D01*
X0052342Y0066438D01*
X0052379Y0066509D01*
X0052419Y0066578D01*
X0052462Y0066645D01*
X0052509Y0066710D01*
X0052558Y0066772D01*
X0052611Y0066832D01*
X0052667Y0066889D01*
X0052725Y0066944D01*
X0052786Y0066995D01*
X0052850Y0067043D01*
X0052916Y0067088D01*
X0052984Y0067130D01*
X0053054Y0067168D01*
X0053126Y0067202D01*
X0053199Y0067233D01*
X0053274Y0067261D01*
X0053351Y0067284D01*
X0053428Y0067304D01*
X0053506Y0067320D01*
X0053585Y0067332D01*
X0053664Y0067340D01*
X0053744Y0067344D01*
X0053824Y0067344D01*
X0053904Y0067340D01*
X0053983Y0067332D01*
X0054062Y0067320D01*
X0054140Y0067304D01*
X0054217Y0067284D01*
X0054294Y0067261D01*
X0054369Y0067233D01*
X0054442Y0067202D01*
X0054514Y0067168D01*
X0054584Y0067130D01*
X0054652Y0067088D01*
X0054718Y0067043D01*
X0054782Y0066995D01*
X0054843Y0066944D01*
X0054901Y0066889D01*
X0054957Y0066832D01*
X0055010Y0066772D01*
X0055059Y0066710D01*
X0055106Y0066645D01*
X0055149Y0066578D01*
X0055189Y0066509D01*
X0055226Y0066438D01*
X0055258Y0066365D01*
X0055288Y0066291D01*
X0055313Y0066216D01*
X0055335Y0066139D01*
X0055352Y0066061D01*
X0055366Y0065982D01*
X0055376Y0065903D01*
X0055382Y0065824D01*
X0055384Y0065744D01*
X0055382Y0065664D01*
X0055376Y0065585D01*
X0055366Y0065506D01*
X0055352Y0065427D01*
X0055335Y0065349D01*
X0055313Y0065272D01*
X0055288Y0065197D01*
X0055258Y0065123D01*
X0055226Y0065050D01*
X0055189Y0064979D01*
X0055149Y0064910D01*
X0055106Y0064843D01*
X0055059Y0064778D01*
X0055010Y0064716D01*
X0054957Y0064656D01*
X0054901Y0064599D01*
X0054843Y0064544D01*
X0054782Y0064493D01*
X0054718Y0064445D01*
X0054652Y0064400D01*
X0054584Y0064358D01*
X0054514Y0064320D01*
X0054442Y0064286D01*
X0054369Y0064255D01*
X0054294Y0064227D01*
X0054217Y0064204D01*
X0054140Y0064184D01*
X0054062Y0064168D01*
X0053983Y0064156D01*
X0053904Y0064148D01*
X0053824Y0064144D01*
X0053744Y0064144D01*
X0053664Y0064148D01*
X0053585Y0064156D01*
X0053506Y0064168D01*
X0053428Y0064184D01*
X0053351Y0064204D01*
X0053274Y0064227D01*
X0053199Y0064255D01*
X0053126Y0064286D01*
X0053054Y0064320D01*
X0052984Y0064358D01*
X0052916Y0064400D01*
X0052850Y0064445D01*
X0052786Y0064493D01*
X0052725Y0064544D01*
X0052667Y0064599D01*
X0052611Y0064656D01*
X0052558Y0064716D01*
X0052509Y0064778D01*
X0052462Y0064843D01*
X0052419Y0064910D01*
X0052379Y0064979D01*
X0052342Y0065050D01*
X0052310Y0065123D01*
X0052280Y0065197D01*
X0052255Y0065272D01*
X0052233Y0065349D01*
X0052216Y0065427D01*
X0052202Y0065506D01*
X0052192Y0065585D01*
X0052186Y0065664D01*
X0052184Y0065744D01*
X0058483Y0052358D02*
X0058485Y0052438D01*
X0058491Y0052517D01*
X0058501Y0052596D01*
X0058515Y0052675D01*
X0058532Y0052753D01*
X0058554Y0052830D01*
X0058579Y0052905D01*
X0058609Y0052979D01*
X0058641Y0053052D01*
X0058678Y0053123D01*
X0058718Y0053192D01*
X0058761Y0053259D01*
X0058808Y0053324D01*
X0058857Y0053386D01*
X0058910Y0053446D01*
X0058966Y0053503D01*
X0059024Y0053558D01*
X0059085Y0053609D01*
X0059149Y0053657D01*
X0059215Y0053702D01*
X0059283Y0053744D01*
X0059353Y0053782D01*
X0059425Y0053816D01*
X0059498Y0053847D01*
X0059573Y0053875D01*
X0059650Y0053898D01*
X0059727Y0053918D01*
X0059805Y0053934D01*
X0059884Y0053946D01*
X0059963Y0053954D01*
X0060043Y0053958D01*
X0060123Y0053958D01*
X0060203Y0053954D01*
X0060282Y0053946D01*
X0060361Y0053934D01*
X0060439Y0053918D01*
X0060516Y0053898D01*
X0060593Y0053875D01*
X0060668Y0053847D01*
X0060741Y0053816D01*
X0060813Y0053782D01*
X0060883Y0053744D01*
X0060951Y0053702D01*
X0061017Y0053657D01*
X0061081Y0053609D01*
X0061142Y0053558D01*
X0061200Y0053503D01*
X0061256Y0053446D01*
X0061309Y0053386D01*
X0061358Y0053324D01*
X0061405Y0053259D01*
X0061448Y0053192D01*
X0061488Y0053123D01*
X0061525Y0053052D01*
X0061557Y0052979D01*
X0061587Y0052905D01*
X0061612Y0052830D01*
X0061634Y0052753D01*
X0061651Y0052675D01*
X0061665Y0052596D01*
X0061675Y0052517D01*
X0061681Y0052438D01*
X0061683Y0052358D01*
X0061681Y0052278D01*
X0061675Y0052199D01*
X0061665Y0052120D01*
X0061651Y0052041D01*
X0061634Y0051963D01*
X0061612Y0051886D01*
X0061587Y0051811D01*
X0061557Y0051737D01*
X0061525Y0051664D01*
X0061488Y0051593D01*
X0061448Y0051524D01*
X0061405Y0051457D01*
X0061358Y0051392D01*
X0061309Y0051330D01*
X0061256Y0051270D01*
X0061200Y0051213D01*
X0061142Y0051158D01*
X0061081Y0051107D01*
X0061017Y0051059D01*
X0060951Y0051014D01*
X0060883Y0050972D01*
X0060813Y0050934D01*
X0060741Y0050900D01*
X0060668Y0050869D01*
X0060593Y0050841D01*
X0060516Y0050818D01*
X0060439Y0050798D01*
X0060361Y0050782D01*
X0060282Y0050770D01*
X0060203Y0050762D01*
X0060123Y0050758D01*
X0060043Y0050758D01*
X0059963Y0050762D01*
X0059884Y0050770D01*
X0059805Y0050782D01*
X0059727Y0050798D01*
X0059650Y0050818D01*
X0059573Y0050841D01*
X0059498Y0050869D01*
X0059425Y0050900D01*
X0059353Y0050934D01*
X0059283Y0050972D01*
X0059215Y0051014D01*
X0059149Y0051059D01*
X0059085Y0051107D01*
X0059024Y0051158D01*
X0058966Y0051213D01*
X0058910Y0051270D01*
X0058857Y0051330D01*
X0058808Y0051392D01*
X0058761Y0051457D01*
X0058718Y0051524D01*
X0058678Y0051593D01*
X0058641Y0051664D01*
X0058609Y0051737D01*
X0058579Y0051811D01*
X0058554Y0051886D01*
X0058532Y0051963D01*
X0058515Y0052041D01*
X0058501Y0052120D01*
X0058491Y0052199D01*
X0058485Y0052278D01*
X0058483Y0052358D01*
X0059271Y0052358D02*
X0059273Y0052438D01*
X0059279Y0052517D01*
X0059289Y0052596D01*
X0059303Y0052675D01*
X0059320Y0052753D01*
X0059342Y0052830D01*
X0059367Y0052905D01*
X0059397Y0052979D01*
X0059429Y0053052D01*
X0059466Y0053123D01*
X0059506Y0053192D01*
X0059549Y0053259D01*
X0059596Y0053324D01*
X0059645Y0053386D01*
X0059698Y0053446D01*
X0059754Y0053503D01*
X0059812Y0053558D01*
X0059873Y0053609D01*
X0059937Y0053657D01*
X0060003Y0053702D01*
X0060071Y0053744D01*
X0060141Y0053782D01*
X0060213Y0053816D01*
X0060286Y0053847D01*
X0060361Y0053875D01*
X0060438Y0053898D01*
X0060515Y0053918D01*
X0060593Y0053934D01*
X0060672Y0053946D01*
X0060751Y0053954D01*
X0060831Y0053958D01*
X0060911Y0053958D01*
X0060991Y0053954D01*
X0061070Y0053946D01*
X0061149Y0053934D01*
X0061227Y0053918D01*
X0061304Y0053898D01*
X0061381Y0053875D01*
X0061456Y0053847D01*
X0061529Y0053816D01*
X0061601Y0053782D01*
X0061671Y0053744D01*
X0061739Y0053702D01*
X0061805Y0053657D01*
X0061869Y0053609D01*
X0061930Y0053558D01*
X0061988Y0053503D01*
X0062044Y0053446D01*
X0062097Y0053386D01*
X0062146Y0053324D01*
X0062193Y0053259D01*
X0062236Y0053192D01*
X0062276Y0053123D01*
X0062313Y0053052D01*
X0062345Y0052979D01*
X0062375Y0052905D01*
X0062400Y0052830D01*
X0062422Y0052753D01*
X0062439Y0052675D01*
X0062453Y0052596D01*
X0062463Y0052517D01*
X0062469Y0052438D01*
X0062471Y0052358D01*
X0062469Y0052278D01*
X0062463Y0052199D01*
X0062453Y0052120D01*
X0062439Y0052041D01*
X0062422Y0051963D01*
X0062400Y0051886D01*
X0062375Y0051811D01*
X0062345Y0051737D01*
X0062313Y0051664D01*
X0062276Y0051593D01*
X0062236Y0051524D01*
X0062193Y0051457D01*
X0062146Y0051392D01*
X0062097Y0051330D01*
X0062044Y0051270D01*
X0061988Y0051213D01*
X0061930Y0051158D01*
X0061869Y0051107D01*
X0061805Y0051059D01*
X0061739Y0051014D01*
X0061671Y0050972D01*
X0061601Y0050934D01*
X0061529Y0050900D01*
X0061456Y0050869D01*
X0061381Y0050841D01*
X0061304Y0050818D01*
X0061227Y0050798D01*
X0061149Y0050782D01*
X0061070Y0050770D01*
X0060991Y0050762D01*
X0060911Y0050758D01*
X0060831Y0050758D01*
X0060751Y0050762D01*
X0060672Y0050770D01*
X0060593Y0050782D01*
X0060515Y0050798D01*
X0060438Y0050818D01*
X0060361Y0050841D01*
X0060286Y0050869D01*
X0060213Y0050900D01*
X0060141Y0050934D01*
X0060071Y0050972D01*
X0060003Y0051014D01*
X0059937Y0051059D01*
X0059873Y0051107D01*
X0059812Y0051158D01*
X0059754Y0051213D01*
X0059698Y0051270D01*
X0059645Y0051330D01*
X0059596Y0051392D01*
X0059549Y0051457D01*
X0059506Y0051524D01*
X0059466Y0051593D01*
X0059429Y0051664D01*
X0059397Y0051737D01*
X0059367Y0051811D01*
X0059342Y0051886D01*
X0059320Y0051963D01*
X0059303Y0052041D01*
X0059289Y0052120D01*
X0059279Y0052199D01*
X0059273Y0052278D01*
X0059271Y0052358D01*
X0060058Y0052358D02*
X0060060Y0052438D01*
X0060066Y0052517D01*
X0060076Y0052596D01*
X0060090Y0052675D01*
X0060107Y0052753D01*
X0060129Y0052830D01*
X0060154Y0052905D01*
X0060184Y0052979D01*
X0060216Y0053052D01*
X0060253Y0053123D01*
X0060293Y0053192D01*
X0060336Y0053259D01*
X0060383Y0053324D01*
X0060432Y0053386D01*
X0060485Y0053446D01*
X0060541Y0053503D01*
X0060599Y0053558D01*
X0060660Y0053609D01*
X0060724Y0053657D01*
X0060790Y0053702D01*
X0060858Y0053744D01*
X0060928Y0053782D01*
X0061000Y0053816D01*
X0061073Y0053847D01*
X0061148Y0053875D01*
X0061225Y0053898D01*
X0061302Y0053918D01*
X0061380Y0053934D01*
X0061459Y0053946D01*
X0061538Y0053954D01*
X0061618Y0053958D01*
X0061698Y0053958D01*
X0061778Y0053954D01*
X0061857Y0053946D01*
X0061936Y0053934D01*
X0062014Y0053918D01*
X0062091Y0053898D01*
X0062168Y0053875D01*
X0062243Y0053847D01*
X0062316Y0053816D01*
X0062388Y0053782D01*
X0062458Y0053744D01*
X0062526Y0053702D01*
X0062592Y0053657D01*
X0062656Y0053609D01*
X0062717Y0053558D01*
X0062775Y0053503D01*
X0062831Y0053446D01*
X0062884Y0053386D01*
X0062933Y0053324D01*
X0062980Y0053259D01*
X0063023Y0053192D01*
X0063063Y0053123D01*
X0063100Y0053052D01*
X0063132Y0052979D01*
X0063162Y0052905D01*
X0063187Y0052830D01*
X0063209Y0052753D01*
X0063226Y0052675D01*
X0063240Y0052596D01*
X0063250Y0052517D01*
X0063256Y0052438D01*
X0063258Y0052358D01*
X0063256Y0052278D01*
X0063250Y0052199D01*
X0063240Y0052120D01*
X0063226Y0052041D01*
X0063209Y0051963D01*
X0063187Y0051886D01*
X0063162Y0051811D01*
X0063132Y0051737D01*
X0063100Y0051664D01*
X0063063Y0051593D01*
X0063023Y0051524D01*
X0062980Y0051457D01*
X0062933Y0051392D01*
X0062884Y0051330D01*
X0062831Y0051270D01*
X0062775Y0051213D01*
X0062717Y0051158D01*
X0062656Y0051107D01*
X0062592Y0051059D01*
X0062526Y0051014D01*
X0062458Y0050972D01*
X0062388Y0050934D01*
X0062316Y0050900D01*
X0062243Y0050869D01*
X0062168Y0050841D01*
X0062091Y0050818D01*
X0062014Y0050798D01*
X0061936Y0050782D01*
X0061857Y0050770D01*
X0061778Y0050762D01*
X0061698Y0050758D01*
X0061618Y0050758D01*
X0061538Y0050762D01*
X0061459Y0050770D01*
X0061380Y0050782D01*
X0061302Y0050798D01*
X0061225Y0050818D01*
X0061148Y0050841D01*
X0061073Y0050869D01*
X0061000Y0050900D01*
X0060928Y0050934D01*
X0060858Y0050972D01*
X0060790Y0051014D01*
X0060724Y0051059D01*
X0060660Y0051107D01*
X0060599Y0051158D01*
X0060541Y0051213D01*
X0060485Y0051270D01*
X0060432Y0051330D01*
X0060383Y0051392D01*
X0060336Y0051457D01*
X0060293Y0051524D01*
X0060253Y0051593D01*
X0060216Y0051664D01*
X0060184Y0051737D01*
X0060154Y0051811D01*
X0060129Y0051886D01*
X0060107Y0051963D01*
X0060090Y0052041D01*
X0060076Y0052120D01*
X0060066Y0052199D01*
X0060060Y0052278D01*
X0060058Y0052358D01*
X0060846Y0052358D02*
X0060848Y0052438D01*
X0060854Y0052517D01*
X0060864Y0052596D01*
X0060878Y0052675D01*
X0060895Y0052753D01*
X0060917Y0052830D01*
X0060942Y0052905D01*
X0060972Y0052979D01*
X0061004Y0053052D01*
X0061041Y0053123D01*
X0061081Y0053192D01*
X0061124Y0053259D01*
X0061171Y0053324D01*
X0061220Y0053386D01*
X0061273Y0053446D01*
X0061329Y0053503D01*
X0061387Y0053558D01*
X0061448Y0053609D01*
X0061512Y0053657D01*
X0061578Y0053702D01*
X0061646Y0053744D01*
X0061716Y0053782D01*
X0061788Y0053816D01*
X0061861Y0053847D01*
X0061936Y0053875D01*
X0062013Y0053898D01*
X0062090Y0053918D01*
X0062168Y0053934D01*
X0062247Y0053946D01*
X0062326Y0053954D01*
X0062406Y0053958D01*
X0062486Y0053958D01*
X0062566Y0053954D01*
X0062645Y0053946D01*
X0062724Y0053934D01*
X0062802Y0053918D01*
X0062879Y0053898D01*
X0062956Y0053875D01*
X0063031Y0053847D01*
X0063104Y0053816D01*
X0063176Y0053782D01*
X0063246Y0053744D01*
X0063314Y0053702D01*
X0063380Y0053657D01*
X0063444Y0053609D01*
X0063505Y0053558D01*
X0063563Y0053503D01*
X0063619Y0053446D01*
X0063672Y0053386D01*
X0063721Y0053324D01*
X0063768Y0053259D01*
X0063811Y0053192D01*
X0063851Y0053123D01*
X0063888Y0053052D01*
X0063920Y0052979D01*
X0063950Y0052905D01*
X0063975Y0052830D01*
X0063997Y0052753D01*
X0064014Y0052675D01*
X0064028Y0052596D01*
X0064038Y0052517D01*
X0064044Y0052438D01*
X0064046Y0052358D01*
X0064044Y0052278D01*
X0064038Y0052199D01*
X0064028Y0052120D01*
X0064014Y0052041D01*
X0063997Y0051963D01*
X0063975Y0051886D01*
X0063950Y0051811D01*
X0063920Y0051737D01*
X0063888Y0051664D01*
X0063851Y0051593D01*
X0063811Y0051524D01*
X0063768Y0051457D01*
X0063721Y0051392D01*
X0063672Y0051330D01*
X0063619Y0051270D01*
X0063563Y0051213D01*
X0063505Y0051158D01*
X0063444Y0051107D01*
X0063380Y0051059D01*
X0063314Y0051014D01*
X0063246Y0050972D01*
X0063176Y0050934D01*
X0063104Y0050900D01*
X0063031Y0050869D01*
X0062956Y0050841D01*
X0062879Y0050818D01*
X0062802Y0050798D01*
X0062724Y0050782D01*
X0062645Y0050770D01*
X0062566Y0050762D01*
X0062486Y0050758D01*
X0062406Y0050758D01*
X0062326Y0050762D01*
X0062247Y0050770D01*
X0062168Y0050782D01*
X0062090Y0050798D01*
X0062013Y0050818D01*
X0061936Y0050841D01*
X0061861Y0050869D01*
X0061788Y0050900D01*
X0061716Y0050934D01*
X0061646Y0050972D01*
X0061578Y0051014D01*
X0061512Y0051059D01*
X0061448Y0051107D01*
X0061387Y0051158D01*
X0061329Y0051213D01*
X0061273Y0051270D01*
X0061220Y0051330D01*
X0061171Y0051392D01*
X0061124Y0051457D01*
X0061081Y0051524D01*
X0061041Y0051593D01*
X0061004Y0051664D01*
X0060972Y0051737D01*
X0060942Y0051811D01*
X0060917Y0051886D01*
X0060895Y0051963D01*
X0060878Y0052041D01*
X0060864Y0052120D01*
X0060854Y0052199D01*
X0060848Y0052278D01*
X0060846Y0052358D01*
X0061633Y0052358D02*
X0061635Y0052438D01*
X0061641Y0052517D01*
X0061651Y0052596D01*
X0061665Y0052675D01*
X0061682Y0052753D01*
X0061704Y0052830D01*
X0061729Y0052905D01*
X0061759Y0052979D01*
X0061791Y0053052D01*
X0061828Y0053123D01*
X0061868Y0053192D01*
X0061911Y0053259D01*
X0061958Y0053324D01*
X0062007Y0053386D01*
X0062060Y0053446D01*
X0062116Y0053503D01*
X0062174Y0053558D01*
X0062235Y0053609D01*
X0062299Y0053657D01*
X0062365Y0053702D01*
X0062433Y0053744D01*
X0062503Y0053782D01*
X0062575Y0053816D01*
X0062648Y0053847D01*
X0062723Y0053875D01*
X0062800Y0053898D01*
X0062877Y0053918D01*
X0062955Y0053934D01*
X0063034Y0053946D01*
X0063113Y0053954D01*
X0063193Y0053958D01*
X0063273Y0053958D01*
X0063353Y0053954D01*
X0063432Y0053946D01*
X0063511Y0053934D01*
X0063589Y0053918D01*
X0063666Y0053898D01*
X0063743Y0053875D01*
X0063818Y0053847D01*
X0063891Y0053816D01*
X0063963Y0053782D01*
X0064033Y0053744D01*
X0064101Y0053702D01*
X0064167Y0053657D01*
X0064231Y0053609D01*
X0064292Y0053558D01*
X0064350Y0053503D01*
X0064406Y0053446D01*
X0064459Y0053386D01*
X0064508Y0053324D01*
X0064555Y0053259D01*
X0064598Y0053192D01*
X0064638Y0053123D01*
X0064675Y0053052D01*
X0064707Y0052979D01*
X0064737Y0052905D01*
X0064762Y0052830D01*
X0064784Y0052753D01*
X0064801Y0052675D01*
X0064815Y0052596D01*
X0064825Y0052517D01*
X0064831Y0052438D01*
X0064833Y0052358D01*
X0064831Y0052278D01*
X0064825Y0052199D01*
X0064815Y0052120D01*
X0064801Y0052041D01*
X0064784Y0051963D01*
X0064762Y0051886D01*
X0064737Y0051811D01*
X0064707Y0051737D01*
X0064675Y0051664D01*
X0064638Y0051593D01*
X0064598Y0051524D01*
X0064555Y0051457D01*
X0064508Y0051392D01*
X0064459Y0051330D01*
X0064406Y0051270D01*
X0064350Y0051213D01*
X0064292Y0051158D01*
X0064231Y0051107D01*
X0064167Y0051059D01*
X0064101Y0051014D01*
X0064033Y0050972D01*
X0063963Y0050934D01*
X0063891Y0050900D01*
X0063818Y0050869D01*
X0063743Y0050841D01*
X0063666Y0050818D01*
X0063589Y0050798D01*
X0063511Y0050782D01*
X0063432Y0050770D01*
X0063353Y0050762D01*
X0063273Y0050758D01*
X0063193Y0050758D01*
X0063113Y0050762D01*
X0063034Y0050770D01*
X0062955Y0050782D01*
X0062877Y0050798D01*
X0062800Y0050818D01*
X0062723Y0050841D01*
X0062648Y0050869D01*
X0062575Y0050900D01*
X0062503Y0050934D01*
X0062433Y0050972D01*
X0062365Y0051014D01*
X0062299Y0051059D01*
X0062235Y0051107D01*
X0062174Y0051158D01*
X0062116Y0051213D01*
X0062060Y0051270D01*
X0062007Y0051330D01*
X0061958Y0051392D01*
X0061911Y0051457D01*
X0061868Y0051524D01*
X0061828Y0051593D01*
X0061791Y0051664D01*
X0061759Y0051737D01*
X0061729Y0051811D01*
X0061704Y0051886D01*
X0061682Y0051963D01*
X0061665Y0052041D01*
X0061651Y0052120D01*
X0061641Y0052199D01*
X0061635Y0052278D01*
X0061633Y0052358D01*
X0062420Y0052358D02*
X0062422Y0052438D01*
X0062428Y0052517D01*
X0062438Y0052596D01*
X0062452Y0052675D01*
X0062469Y0052753D01*
X0062491Y0052830D01*
X0062516Y0052905D01*
X0062546Y0052979D01*
X0062578Y0053052D01*
X0062615Y0053123D01*
X0062655Y0053192D01*
X0062698Y0053259D01*
X0062745Y0053324D01*
X0062794Y0053386D01*
X0062847Y0053446D01*
X0062903Y0053503D01*
X0062961Y0053558D01*
X0063022Y0053609D01*
X0063086Y0053657D01*
X0063152Y0053702D01*
X0063220Y0053744D01*
X0063290Y0053782D01*
X0063362Y0053816D01*
X0063435Y0053847D01*
X0063510Y0053875D01*
X0063587Y0053898D01*
X0063664Y0053918D01*
X0063742Y0053934D01*
X0063821Y0053946D01*
X0063900Y0053954D01*
X0063980Y0053958D01*
X0064060Y0053958D01*
X0064140Y0053954D01*
X0064219Y0053946D01*
X0064298Y0053934D01*
X0064376Y0053918D01*
X0064453Y0053898D01*
X0064530Y0053875D01*
X0064605Y0053847D01*
X0064678Y0053816D01*
X0064750Y0053782D01*
X0064820Y0053744D01*
X0064888Y0053702D01*
X0064954Y0053657D01*
X0065018Y0053609D01*
X0065079Y0053558D01*
X0065137Y0053503D01*
X0065193Y0053446D01*
X0065246Y0053386D01*
X0065295Y0053324D01*
X0065342Y0053259D01*
X0065385Y0053192D01*
X0065425Y0053123D01*
X0065462Y0053052D01*
X0065494Y0052979D01*
X0065524Y0052905D01*
X0065549Y0052830D01*
X0065571Y0052753D01*
X0065588Y0052675D01*
X0065602Y0052596D01*
X0065612Y0052517D01*
X0065618Y0052438D01*
X0065620Y0052358D01*
X0065618Y0052278D01*
X0065612Y0052199D01*
X0065602Y0052120D01*
X0065588Y0052041D01*
X0065571Y0051963D01*
X0065549Y0051886D01*
X0065524Y0051811D01*
X0065494Y0051737D01*
X0065462Y0051664D01*
X0065425Y0051593D01*
X0065385Y0051524D01*
X0065342Y0051457D01*
X0065295Y0051392D01*
X0065246Y0051330D01*
X0065193Y0051270D01*
X0065137Y0051213D01*
X0065079Y0051158D01*
X0065018Y0051107D01*
X0064954Y0051059D01*
X0064888Y0051014D01*
X0064820Y0050972D01*
X0064750Y0050934D01*
X0064678Y0050900D01*
X0064605Y0050869D01*
X0064530Y0050841D01*
X0064453Y0050818D01*
X0064376Y0050798D01*
X0064298Y0050782D01*
X0064219Y0050770D01*
X0064140Y0050762D01*
X0064060Y0050758D01*
X0063980Y0050758D01*
X0063900Y0050762D01*
X0063821Y0050770D01*
X0063742Y0050782D01*
X0063664Y0050798D01*
X0063587Y0050818D01*
X0063510Y0050841D01*
X0063435Y0050869D01*
X0063362Y0050900D01*
X0063290Y0050934D01*
X0063220Y0050972D01*
X0063152Y0051014D01*
X0063086Y0051059D01*
X0063022Y0051107D01*
X0062961Y0051158D01*
X0062903Y0051213D01*
X0062847Y0051270D01*
X0062794Y0051330D01*
X0062745Y0051392D01*
X0062698Y0051457D01*
X0062655Y0051524D01*
X0062615Y0051593D01*
X0062578Y0051664D01*
X0062546Y0051737D01*
X0062516Y0051811D01*
X0062491Y0051886D01*
X0062469Y0051963D01*
X0062452Y0052041D01*
X0062438Y0052120D01*
X0062428Y0052199D01*
X0062422Y0052278D01*
X0062420Y0052358D01*
X0063208Y0052358D02*
X0063210Y0052438D01*
X0063216Y0052517D01*
X0063226Y0052596D01*
X0063240Y0052675D01*
X0063257Y0052753D01*
X0063279Y0052830D01*
X0063304Y0052905D01*
X0063334Y0052979D01*
X0063366Y0053052D01*
X0063403Y0053123D01*
X0063443Y0053192D01*
X0063486Y0053259D01*
X0063533Y0053324D01*
X0063582Y0053386D01*
X0063635Y0053446D01*
X0063691Y0053503D01*
X0063749Y0053558D01*
X0063810Y0053609D01*
X0063874Y0053657D01*
X0063940Y0053702D01*
X0064008Y0053744D01*
X0064078Y0053782D01*
X0064150Y0053816D01*
X0064223Y0053847D01*
X0064298Y0053875D01*
X0064375Y0053898D01*
X0064452Y0053918D01*
X0064530Y0053934D01*
X0064609Y0053946D01*
X0064688Y0053954D01*
X0064768Y0053958D01*
X0064848Y0053958D01*
X0064928Y0053954D01*
X0065007Y0053946D01*
X0065086Y0053934D01*
X0065164Y0053918D01*
X0065241Y0053898D01*
X0065318Y0053875D01*
X0065393Y0053847D01*
X0065466Y0053816D01*
X0065538Y0053782D01*
X0065608Y0053744D01*
X0065676Y0053702D01*
X0065742Y0053657D01*
X0065806Y0053609D01*
X0065867Y0053558D01*
X0065925Y0053503D01*
X0065981Y0053446D01*
X0066034Y0053386D01*
X0066083Y0053324D01*
X0066130Y0053259D01*
X0066173Y0053192D01*
X0066213Y0053123D01*
X0066250Y0053052D01*
X0066282Y0052979D01*
X0066312Y0052905D01*
X0066337Y0052830D01*
X0066359Y0052753D01*
X0066376Y0052675D01*
X0066390Y0052596D01*
X0066400Y0052517D01*
X0066406Y0052438D01*
X0066408Y0052358D01*
X0066406Y0052278D01*
X0066400Y0052199D01*
X0066390Y0052120D01*
X0066376Y0052041D01*
X0066359Y0051963D01*
X0066337Y0051886D01*
X0066312Y0051811D01*
X0066282Y0051737D01*
X0066250Y0051664D01*
X0066213Y0051593D01*
X0066173Y0051524D01*
X0066130Y0051457D01*
X0066083Y0051392D01*
X0066034Y0051330D01*
X0065981Y0051270D01*
X0065925Y0051213D01*
X0065867Y0051158D01*
X0065806Y0051107D01*
X0065742Y0051059D01*
X0065676Y0051014D01*
X0065608Y0050972D01*
X0065538Y0050934D01*
X0065466Y0050900D01*
X0065393Y0050869D01*
X0065318Y0050841D01*
X0065241Y0050818D01*
X0065164Y0050798D01*
X0065086Y0050782D01*
X0065007Y0050770D01*
X0064928Y0050762D01*
X0064848Y0050758D01*
X0064768Y0050758D01*
X0064688Y0050762D01*
X0064609Y0050770D01*
X0064530Y0050782D01*
X0064452Y0050798D01*
X0064375Y0050818D01*
X0064298Y0050841D01*
X0064223Y0050869D01*
X0064150Y0050900D01*
X0064078Y0050934D01*
X0064008Y0050972D01*
X0063940Y0051014D01*
X0063874Y0051059D01*
X0063810Y0051107D01*
X0063749Y0051158D01*
X0063691Y0051213D01*
X0063635Y0051270D01*
X0063582Y0051330D01*
X0063533Y0051392D01*
X0063486Y0051457D01*
X0063443Y0051524D01*
X0063403Y0051593D01*
X0063366Y0051664D01*
X0063334Y0051737D01*
X0063304Y0051811D01*
X0063279Y0051886D01*
X0063257Y0051963D01*
X0063240Y0052041D01*
X0063226Y0052120D01*
X0063216Y0052199D01*
X0063210Y0052278D01*
X0063208Y0052358D01*
X0064783Y0052358D02*
X0064785Y0052438D01*
X0064791Y0052517D01*
X0064801Y0052596D01*
X0064815Y0052675D01*
X0064832Y0052753D01*
X0064854Y0052830D01*
X0064879Y0052905D01*
X0064909Y0052979D01*
X0064941Y0053052D01*
X0064978Y0053123D01*
X0065018Y0053192D01*
X0065061Y0053259D01*
X0065108Y0053324D01*
X0065157Y0053386D01*
X0065210Y0053446D01*
X0065266Y0053503D01*
X0065324Y0053558D01*
X0065385Y0053609D01*
X0065449Y0053657D01*
X0065515Y0053702D01*
X0065583Y0053744D01*
X0065653Y0053782D01*
X0065725Y0053816D01*
X0065798Y0053847D01*
X0065873Y0053875D01*
X0065950Y0053898D01*
X0066027Y0053918D01*
X0066105Y0053934D01*
X0066184Y0053946D01*
X0066263Y0053954D01*
X0066343Y0053958D01*
X0066423Y0053958D01*
X0066503Y0053954D01*
X0066582Y0053946D01*
X0066661Y0053934D01*
X0066739Y0053918D01*
X0066816Y0053898D01*
X0066893Y0053875D01*
X0066968Y0053847D01*
X0067041Y0053816D01*
X0067113Y0053782D01*
X0067183Y0053744D01*
X0067251Y0053702D01*
X0067317Y0053657D01*
X0067381Y0053609D01*
X0067442Y0053558D01*
X0067500Y0053503D01*
X0067556Y0053446D01*
X0067609Y0053386D01*
X0067658Y0053324D01*
X0067705Y0053259D01*
X0067748Y0053192D01*
X0067788Y0053123D01*
X0067825Y0053052D01*
X0067857Y0052979D01*
X0067887Y0052905D01*
X0067912Y0052830D01*
X0067934Y0052753D01*
X0067951Y0052675D01*
X0067965Y0052596D01*
X0067975Y0052517D01*
X0067981Y0052438D01*
X0067983Y0052358D01*
X0067981Y0052278D01*
X0067975Y0052199D01*
X0067965Y0052120D01*
X0067951Y0052041D01*
X0067934Y0051963D01*
X0067912Y0051886D01*
X0067887Y0051811D01*
X0067857Y0051737D01*
X0067825Y0051664D01*
X0067788Y0051593D01*
X0067748Y0051524D01*
X0067705Y0051457D01*
X0067658Y0051392D01*
X0067609Y0051330D01*
X0067556Y0051270D01*
X0067500Y0051213D01*
X0067442Y0051158D01*
X0067381Y0051107D01*
X0067317Y0051059D01*
X0067251Y0051014D01*
X0067183Y0050972D01*
X0067113Y0050934D01*
X0067041Y0050900D01*
X0066968Y0050869D01*
X0066893Y0050841D01*
X0066816Y0050818D01*
X0066739Y0050798D01*
X0066661Y0050782D01*
X0066582Y0050770D01*
X0066503Y0050762D01*
X0066423Y0050758D01*
X0066343Y0050758D01*
X0066263Y0050762D01*
X0066184Y0050770D01*
X0066105Y0050782D01*
X0066027Y0050798D01*
X0065950Y0050818D01*
X0065873Y0050841D01*
X0065798Y0050869D01*
X0065725Y0050900D01*
X0065653Y0050934D01*
X0065583Y0050972D01*
X0065515Y0051014D01*
X0065449Y0051059D01*
X0065385Y0051107D01*
X0065324Y0051158D01*
X0065266Y0051213D01*
X0065210Y0051270D01*
X0065157Y0051330D01*
X0065108Y0051392D01*
X0065061Y0051457D01*
X0065018Y0051524D01*
X0064978Y0051593D01*
X0064941Y0051664D01*
X0064909Y0051737D01*
X0064879Y0051811D01*
X0064854Y0051886D01*
X0064832Y0051963D01*
X0064815Y0052041D01*
X0064801Y0052120D01*
X0064791Y0052199D01*
X0064785Y0052278D01*
X0064783Y0052358D01*
X0065570Y0052358D02*
X0065572Y0052438D01*
X0065578Y0052517D01*
X0065588Y0052596D01*
X0065602Y0052675D01*
X0065619Y0052753D01*
X0065641Y0052830D01*
X0065666Y0052905D01*
X0065696Y0052979D01*
X0065728Y0053052D01*
X0065765Y0053123D01*
X0065805Y0053192D01*
X0065848Y0053259D01*
X0065895Y0053324D01*
X0065944Y0053386D01*
X0065997Y0053446D01*
X0066053Y0053503D01*
X0066111Y0053558D01*
X0066172Y0053609D01*
X0066236Y0053657D01*
X0066302Y0053702D01*
X0066370Y0053744D01*
X0066440Y0053782D01*
X0066512Y0053816D01*
X0066585Y0053847D01*
X0066660Y0053875D01*
X0066737Y0053898D01*
X0066814Y0053918D01*
X0066892Y0053934D01*
X0066971Y0053946D01*
X0067050Y0053954D01*
X0067130Y0053958D01*
X0067210Y0053958D01*
X0067290Y0053954D01*
X0067369Y0053946D01*
X0067448Y0053934D01*
X0067526Y0053918D01*
X0067603Y0053898D01*
X0067680Y0053875D01*
X0067755Y0053847D01*
X0067828Y0053816D01*
X0067900Y0053782D01*
X0067970Y0053744D01*
X0068038Y0053702D01*
X0068104Y0053657D01*
X0068168Y0053609D01*
X0068229Y0053558D01*
X0068287Y0053503D01*
X0068343Y0053446D01*
X0068396Y0053386D01*
X0068445Y0053324D01*
X0068492Y0053259D01*
X0068535Y0053192D01*
X0068575Y0053123D01*
X0068612Y0053052D01*
X0068644Y0052979D01*
X0068674Y0052905D01*
X0068699Y0052830D01*
X0068721Y0052753D01*
X0068738Y0052675D01*
X0068752Y0052596D01*
X0068762Y0052517D01*
X0068768Y0052438D01*
X0068770Y0052358D01*
X0068768Y0052278D01*
X0068762Y0052199D01*
X0068752Y0052120D01*
X0068738Y0052041D01*
X0068721Y0051963D01*
X0068699Y0051886D01*
X0068674Y0051811D01*
X0068644Y0051737D01*
X0068612Y0051664D01*
X0068575Y0051593D01*
X0068535Y0051524D01*
X0068492Y0051457D01*
X0068445Y0051392D01*
X0068396Y0051330D01*
X0068343Y0051270D01*
X0068287Y0051213D01*
X0068229Y0051158D01*
X0068168Y0051107D01*
X0068104Y0051059D01*
X0068038Y0051014D01*
X0067970Y0050972D01*
X0067900Y0050934D01*
X0067828Y0050900D01*
X0067755Y0050869D01*
X0067680Y0050841D01*
X0067603Y0050818D01*
X0067526Y0050798D01*
X0067448Y0050782D01*
X0067369Y0050770D01*
X0067290Y0050762D01*
X0067210Y0050758D01*
X0067130Y0050758D01*
X0067050Y0050762D01*
X0066971Y0050770D01*
X0066892Y0050782D01*
X0066814Y0050798D01*
X0066737Y0050818D01*
X0066660Y0050841D01*
X0066585Y0050869D01*
X0066512Y0050900D01*
X0066440Y0050934D01*
X0066370Y0050972D01*
X0066302Y0051014D01*
X0066236Y0051059D01*
X0066172Y0051107D01*
X0066111Y0051158D01*
X0066053Y0051213D01*
X0065997Y0051270D01*
X0065944Y0051330D01*
X0065895Y0051392D01*
X0065848Y0051457D01*
X0065805Y0051524D01*
X0065765Y0051593D01*
X0065728Y0051664D01*
X0065696Y0051737D01*
X0065666Y0051811D01*
X0065641Y0051886D01*
X0065619Y0051963D01*
X0065602Y0052041D01*
X0065588Y0052120D01*
X0065578Y0052199D01*
X0065572Y0052278D01*
X0065570Y0052358D01*
X0066357Y0052358D02*
X0066359Y0052438D01*
X0066365Y0052517D01*
X0066375Y0052596D01*
X0066389Y0052675D01*
X0066406Y0052753D01*
X0066428Y0052830D01*
X0066453Y0052905D01*
X0066483Y0052979D01*
X0066515Y0053052D01*
X0066552Y0053123D01*
X0066592Y0053192D01*
X0066635Y0053259D01*
X0066682Y0053324D01*
X0066731Y0053386D01*
X0066784Y0053446D01*
X0066840Y0053503D01*
X0066898Y0053558D01*
X0066959Y0053609D01*
X0067023Y0053657D01*
X0067089Y0053702D01*
X0067157Y0053744D01*
X0067227Y0053782D01*
X0067299Y0053816D01*
X0067372Y0053847D01*
X0067447Y0053875D01*
X0067524Y0053898D01*
X0067601Y0053918D01*
X0067679Y0053934D01*
X0067758Y0053946D01*
X0067837Y0053954D01*
X0067917Y0053958D01*
X0067997Y0053958D01*
X0068077Y0053954D01*
X0068156Y0053946D01*
X0068235Y0053934D01*
X0068313Y0053918D01*
X0068390Y0053898D01*
X0068467Y0053875D01*
X0068542Y0053847D01*
X0068615Y0053816D01*
X0068687Y0053782D01*
X0068757Y0053744D01*
X0068825Y0053702D01*
X0068891Y0053657D01*
X0068955Y0053609D01*
X0069016Y0053558D01*
X0069074Y0053503D01*
X0069130Y0053446D01*
X0069183Y0053386D01*
X0069232Y0053324D01*
X0069279Y0053259D01*
X0069322Y0053192D01*
X0069362Y0053123D01*
X0069399Y0053052D01*
X0069431Y0052979D01*
X0069461Y0052905D01*
X0069486Y0052830D01*
X0069508Y0052753D01*
X0069525Y0052675D01*
X0069539Y0052596D01*
X0069549Y0052517D01*
X0069555Y0052438D01*
X0069557Y0052358D01*
X0069555Y0052278D01*
X0069549Y0052199D01*
X0069539Y0052120D01*
X0069525Y0052041D01*
X0069508Y0051963D01*
X0069486Y0051886D01*
X0069461Y0051811D01*
X0069431Y0051737D01*
X0069399Y0051664D01*
X0069362Y0051593D01*
X0069322Y0051524D01*
X0069279Y0051457D01*
X0069232Y0051392D01*
X0069183Y0051330D01*
X0069130Y0051270D01*
X0069074Y0051213D01*
X0069016Y0051158D01*
X0068955Y0051107D01*
X0068891Y0051059D01*
X0068825Y0051014D01*
X0068757Y0050972D01*
X0068687Y0050934D01*
X0068615Y0050900D01*
X0068542Y0050869D01*
X0068467Y0050841D01*
X0068390Y0050818D01*
X0068313Y0050798D01*
X0068235Y0050782D01*
X0068156Y0050770D01*
X0068077Y0050762D01*
X0067997Y0050758D01*
X0067917Y0050758D01*
X0067837Y0050762D01*
X0067758Y0050770D01*
X0067679Y0050782D01*
X0067601Y0050798D01*
X0067524Y0050818D01*
X0067447Y0050841D01*
X0067372Y0050869D01*
X0067299Y0050900D01*
X0067227Y0050934D01*
X0067157Y0050972D01*
X0067089Y0051014D01*
X0067023Y0051059D01*
X0066959Y0051107D01*
X0066898Y0051158D01*
X0066840Y0051213D01*
X0066784Y0051270D01*
X0066731Y0051330D01*
X0066682Y0051392D01*
X0066635Y0051457D01*
X0066592Y0051524D01*
X0066552Y0051593D01*
X0066515Y0051664D01*
X0066483Y0051737D01*
X0066453Y0051811D01*
X0066428Y0051886D01*
X0066406Y0051963D01*
X0066389Y0052041D01*
X0066375Y0052120D01*
X0066365Y0052199D01*
X0066359Y0052278D01*
X0066357Y0052358D01*
X0067145Y0052358D02*
X0067147Y0052438D01*
X0067153Y0052517D01*
X0067163Y0052596D01*
X0067177Y0052675D01*
X0067194Y0052753D01*
X0067216Y0052830D01*
X0067241Y0052905D01*
X0067271Y0052979D01*
X0067303Y0053052D01*
X0067340Y0053123D01*
X0067380Y0053192D01*
X0067423Y0053259D01*
X0067470Y0053324D01*
X0067519Y0053386D01*
X0067572Y0053446D01*
X0067628Y0053503D01*
X0067686Y0053558D01*
X0067747Y0053609D01*
X0067811Y0053657D01*
X0067877Y0053702D01*
X0067945Y0053744D01*
X0068015Y0053782D01*
X0068087Y0053816D01*
X0068160Y0053847D01*
X0068235Y0053875D01*
X0068312Y0053898D01*
X0068389Y0053918D01*
X0068467Y0053934D01*
X0068546Y0053946D01*
X0068625Y0053954D01*
X0068705Y0053958D01*
X0068785Y0053958D01*
X0068865Y0053954D01*
X0068944Y0053946D01*
X0069023Y0053934D01*
X0069101Y0053918D01*
X0069178Y0053898D01*
X0069255Y0053875D01*
X0069330Y0053847D01*
X0069403Y0053816D01*
X0069475Y0053782D01*
X0069545Y0053744D01*
X0069613Y0053702D01*
X0069679Y0053657D01*
X0069743Y0053609D01*
X0069804Y0053558D01*
X0069862Y0053503D01*
X0069918Y0053446D01*
X0069971Y0053386D01*
X0070020Y0053324D01*
X0070067Y0053259D01*
X0070110Y0053192D01*
X0070150Y0053123D01*
X0070187Y0053052D01*
X0070219Y0052979D01*
X0070249Y0052905D01*
X0070274Y0052830D01*
X0070296Y0052753D01*
X0070313Y0052675D01*
X0070327Y0052596D01*
X0070337Y0052517D01*
X0070343Y0052438D01*
X0070345Y0052358D01*
X0070343Y0052278D01*
X0070337Y0052199D01*
X0070327Y0052120D01*
X0070313Y0052041D01*
X0070296Y0051963D01*
X0070274Y0051886D01*
X0070249Y0051811D01*
X0070219Y0051737D01*
X0070187Y0051664D01*
X0070150Y0051593D01*
X0070110Y0051524D01*
X0070067Y0051457D01*
X0070020Y0051392D01*
X0069971Y0051330D01*
X0069918Y0051270D01*
X0069862Y0051213D01*
X0069804Y0051158D01*
X0069743Y0051107D01*
X0069679Y0051059D01*
X0069613Y0051014D01*
X0069545Y0050972D01*
X0069475Y0050934D01*
X0069403Y0050900D01*
X0069330Y0050869D01*
X0069255Y0050841D01*
X0069178Y0050818D01*
X0069101Y0050798D01*
X0069023Y0050782D01*
X0068944Y0050770D01*
X0068865Y0050762D01*
X0068785Y0050758D01*
X0068705Y0050758D01*
X0068625Y0050762D01*
X0068546Y0050770D01*
X0068467Y0050782D01*
X0068389Y0050798D01*
X0068312Y0050818D01*
X0068235Y0050841D01*
X0068160Y0050869D01*
X0068087Y0050900D01*
X0068015Y0050934D01*
X0067945Y0050972D01*
X0067877Y0051014D01*
X0067811Y0051059D01*
X0067747Y0051107D01*
X0067686Y0051158D01*
X0067628Y0051213D01*
X0067572Y0051270D01*
X0067519Y0051330D01*
X0067470Y0051392D01*
X0067423Y0051457D01*
X0067380Y0051524D01*
X0067340Y0051593D01*
X0067303Y0051664D01*
X0067271Y0051737D01*
X0067241Y0051811D01*
X0067216Y0051886D01*
X0067194Y0051963D01*
X0067177Y0052041D01*
X0067163Y0052120D01*
X0067153Y0052199D01*
X0067147Y0052278D01*
X0067145Y0052358D01*
X0067932Y0052358D02*
X0067934Y0052438D01*
X0067940Y0052517D01*
X0067950Y0052596D01*
X0067964Y0052675D01*
X0067981Y0052753D01*
X0068003Y0052830D01*
X0068028Y0052905D01*
X0068058Y0052979D01*
X0068090Y0053052D01*
X0068127Y0053123D01*
X0068167Y0053192D01*
X0068210Y0053259D01*
X0068257Y0053324D01*
X0068306Y0053386D01*
X0068359Y0053446D01*
X0068415Y0053503D01*
X0068473Y0053558D01*
X0068534Y0053609D01*
X0068598Y0053657D01*
X0068664Y0053702D01*
X0068732Y0053744D01*
X0068802Y0053782D01*
X0068874Y0053816D01*
X0068947Y0053847D01*
X0069022Y0053875D01*
X0069099Y0053898D01*
X0069176Y0053918D01*
X0069254Y0053934D01*
X0069333Y0053946D01*
X0069412Y0053954D01*
X0069492Y0053958D01*
X0069572Y0053958D01*
X0069652Y0053954D01*
X0069731Y0053946D01*
X0069810Y0053934D01*
X0069888Y0053918D01*
X0069965Y0053898D01*
X0070042Y0053875D01*
X0070117Y0053847D01*
X0070190Y0053816D01*
X0070262Y0053782D01*
X0070332Y0053744D01*
X0070400Y0053702D01*
X0070466Y0053657D01*
X0070530Y0053609D01*
X0070591Y0053558D01*
X0070649Y0053503D01*
X0070705Y0053446D01*
X0070758Y0053386D01*
X0070807Y0053324D01*
X0070854Y0053259D01*
X0070897Y0053192D01*
X0070937Y0053123D01*
X0070974Y0053052D01*
X0071006Y0052979D01*
X0071036Y0052905D01*
X0071061Y0052830D01*
X0071083Y0052753D01*
X0071100Y0052675D01*
X0071114Y0052596D01*
X0071124Y0052517D01*
X0071130Y0052438D01*
X0071132Y0052358D01*
X0071130Y0052278D01*
X0071124Y0052199D01*
X0071114Y0052120D01*
X0071100Y0052041D01*
X0071083Y0051963D01*
X0071061Y0051886D01*
X0071036Y0051811D01*
X0071006Y0051737D01*
X0070974Y0051664D01*
X0070937Y0051593D01*
X0070897Y0051524D01*
X0070854Y0051457D01*
X0070807Y0051392D01*
X0070758Y0051330D01*
X0070705Y0051270D01*
X0070649Y0051213D01*
X0070591Y0051158D01*
X0070530Y0051107D01*
X0070466Y0051059D01*
X0070400Y0051014D01*
X0070332Y0050972D01*
X0070262Y0050934D01*
X0070190Y0050900D01*
X0070117Y0050869D01*
X0070042Y0050841D01*
X0069965Y0050818D01*
X0069888Y0050798D01*
X0069810Y0050782D01*
X0069731Y0050770D01*
X0069652Y0050762D01*
X0069572Y0050758D01*
X0069492Y0050758D01*
X0069412Y0050762D01*
X0069333Y0050770D01*
X0069254Y0050782D01*
X0069176Y0050798D01*
X0069099Y0050818D01*
X0069022Y0050841D01*
X0068947Y0050869D01*
X0068874Y0050900D01*
X0068802Y0050934D01*
X0068732Y0050972D01*
X0068664Y0051014D01*
X0068598Y0051059D01*
X0068534Y0051107D01*
X0068473Y0051158D01*
X0068415Y0051213D01*
X0068359Y0051270D01*
X0068306Y0051330D01*
X0068257Y0051392D01*
X0068210Y0051457D01*
X0068167Y0051524D01*
X0068127Y0051593D01*
X0068090Y0051664D01*
X0068058Y0051737D01*
X0068028Y0051811D01*
X0068003Y0051886D01*
X0067981Y0051963D01*
X0067964Y0052041D01*
X0067950Y0052120D01*
X0067940Y0052199D01*
X0067934Y0052278D01*
X0067932Y0052358D01*
X0068720Y0052358D02*
X0068722Y0052438D01*
X0068728Y0052517D01*
X0068738Y0052596D01*
X0068752Y0052675D01*
X0068769Y0052753D01*
X0068791Y0052830D01*
X0068816Y0052905D01*
X0068846Y0052979D01*
X0068878Y0053052D01*
X0068915Y0053123D01*
X0068955Y0053192D01*
X0068998Y0053259D01*
X0069045Y0053324D01*
X0069094Y0053386D01*
X0069147Y0053446D01*
X0069203Y0053503D01*
X0069261Y0053558D01*
X0069322Y0053609D01*
X0069386Y0053657D01*
X0069452Y0053702D01*
X0069520Y0053744D01*
X0069590Y0053782D01*
X0069662Y0053816D01*
X0069735Y0053847D01*
X0069810Y0053875D01*
X0069887Y0053898D01*
X0069964Y0053918D01*
X0070042Y0053934D01*
X0070121Y0053946D01*
X0070200Y0053954D01*
X0070280Y0053958D01*
X0070360Y0053958D01*
X0070440Y0053954D01*
X0070519Y0053946D01*
X0070598Y0053934D01*
X0070676Y0053918D01*
X0070753Y0053898D01*
X0070830Y0053875D01*
X0070905Y0053847D01*
X0070978Y0053816D01*
X0071050Y0053782D01*
X0071120Y0053744D01*
X0071188Y0053702D01*
X0071254Y0053657D01*
X0071318Y0053609D01*
X0071379Y0053558D01*
X0071437Y0053503D01*
X0071493Y0053446D01*
X0071546Y0053386D01*
X0071595Y0053324D01*
X0071642Y0053259D01*
X0071685Y0053192D01*
X0071725Y0053123D01*
X0071762Y0053052D01*
X0071794Y0052979D01*
X0071824Y0052905D01*
X0071849Y0052830D01*
X0071871Y0052753D01*
X0071888Y0052675D01*
X0071902Y0052596D01*
X0071912Y0052517D01*
X0071918Y0052438D01*
X0071920Y0052358D01*
X0071918Y0052278D01*
X0071912Y0052199D01*
X0071902Y0052120D01*
X0071888Y0052041D01*
X0071871Y0051963D01*
X0071849Y0051886D01*
X0071824Y0051811D01*
X0071794Y0051737D01*
X0071762Y0051664D01*
X0071725Y0051593D01*
X0071685Y0051524D01*
X0071642Y0051457D01*
X0071595Y0051392D01*
X0071546Y0051330D01*
X0071493Y0051270D01*
X0071437Y0051213D01*
X0071379Y0051158D01*
X0071318Y0051107D01*
X0071254Y0051059D01*
X0071188Y0051014D01*
X0071120Y0050972D01*
X0071050Y0050934D01*
X0070978Y0050900D01*
X0070905Y0050869D01*
X0070830Y0050841D01*
X0070753Y0050818D01*
X0070676Y0050798D01*
X0070598Y0050782D01*
X0070519Y0050770D01*
X0070440Y0050762D01*
X0070360Y0050758D01*
X0070280Y0050758D01*
X0070200Y0050762D01*
X0070121Y0050770D01*
X0070042Y0050782D01*
X0069964Y0050798D01*
X0069887Y0050818D01*
X0069810Y0050841D01*
X0069735Y0050869D01*
X0069662Y0050900D01*
X0069590Y0050934D01*
X0069520Y0050972D01*
X0069452Y0051014D01*
X0069386Y0051059D01*
X0069322Y0051107D01*
X0069261Y0051158D01*
X0069203Y0051213D01*
X0069147Y0051270D01*
X0069094Y0051330D01*
X0069045Y0051392D01*
X0068998Y0051457D01*
X0068955Y0051524D01*
X0068915Y0051593D01*
X0068878Y0051664D01*
X0068846Y0051737D01*
X0068816Y0051811D01*
X0068791Y0051886D01*
X0068769Y0051963D01*
X0068752Y0052041D01*
X0068738Y0052120D01*
X0068728Y0052199D01*
X0068722Y0052278D01*
X0068720Y0052358D01*
X0069507Y0052358D02*
X0069509Y0052438D01*
X0069515Y0052517D01*
X0069525Y0052596D01*
X0069539Y0052675D01*
X0069556Y0052753D01*
X0069578Y0052830D01*
X0069603Y0052905D01*
X0069633Y0052979D01*
X0069665Y0053052D01*
X0069702Y0053123D01*
X0069742Y0053192D01*
X0069785Y0053259D01*
X0069832Y0053324D01*
X0069881Y0053386D01*
X0069934Y0053446D01*
X0069990Y0053503D01*
X0070048Y0053558D01*
X0070109Y0053609D01*
X0070173Y0053657D01*
X0070239Y0053702D01*
X0070307Y0053744D01*
X0070377Y0053782D01*
X0070449Y0053816D01*
X0070522Y0053847D01*
X0070597Y0053875D01*
X0070674Y0053898D01*
X0070751Y0053918D01*
X0070829Y0053934D01*
X0070908Y0053946D01*
X0070987Y0053954D01*
X0071067Y0053958D01*
X0071147Y0053958D01*
X0071227Y0053954D01*
X0071306Y0053946D01*
X0071385Y0053934D01*
X0071463Y0053918D01*
X0071540Y0053898D01*
X0071617Y0053875D01*
X0071692Y0053847D01*
X0071765Y0053816D01*
X0071837Y0053782D01*
X0071907Y0053744D01*
X0071975Y0053702D01*
X0072041Y0053657D01*
X0072105Y0053609D01*
X0072166Y0053558D01*
X0072224Y0053503D01*
X0072280Y0053446D01*
X0072333Y0053386D01*
X0072382Y0053324D01*
X0072429Y0053259D01*
X0072472Y0053192D01*
X0072512Y0053123D01*
X0072549Y0053052D01*
X0072581Y0052979D01*
X0072611Y0052905D01*
X0072636Y0052830D01*
X0072658Y0052753D01*
X0072675Y0052675D01*
X0072689Y0052596D01*
X0072699Y0052517D01*
X0072705Y0052438D01*
X0072707Y0052358D01*
X0072705Y0052278D01*
X0072699Y0052199D01*
X0072689Y0052120D01*
X0072675Y0052041D01*
X0072658Y0051963D01*
X0072636Y0051886D01*
X0072611Y0051811D01*
X0072581Y0051737D01*
X0072549Y0051664D01*
X0072512Y0051593D01*
X0072472Y0051524D01*
X0072429Y0051457D01*
X0072382Y0051392D01*
X0072333Y0051330D01*
X0072280Y0051270D01*
X0072224Y0051213D01*
X0072166Y0051158D01*
X0072105Y0051107D01*
X0072041Y0051059D01*
X0071975Y0051014D01*
X0071907Y0050972D01*
X0071837Y0050934D01*
X0071765Y0050900D01*
X0071692Y0050869D01*
X0071617Y0050841D01*
X0071540Y0050818D01*
X0071463Y0050798D01*
X0071385Y0050782D01*
X0071306Y0050770D01*
X0071227Y0050762D01*
X0071147Y0050758D01*
X0071067Y0050758D01*
X0070987Y0050762D01*
X0070908Y0050770D01*
X0070829Y0050782D01*
X0070751Y0050798D01*
X0070674Y0050818D01*
X0070597Y0050841D01*
X0070522Y0050869D01*
X0070449Y0050900D01*
X0070377Y0050934D01*
X0070307Y0050972D01*
X0070239Y0051014D01*
X0070173Y0051059D01*
X0070109Y0051107D01*
X0070048Y0051158D01*
X0069990Y0051213D01*
X0069934Y0051270D01*
X0069881Y0051330D01*
X0069832Y0051392D01*
X0069785Y0051457D01*
X0069742Y0051524D01*
X0069702Y0051593D01*
X0069665Y0051664D01*
X0069633Y0051737D01*
X0069603Y0051811D01*
X0069578Y0051886D01*
X0069556Y0051963D01*
X0069539Y0052041D01*
X0069525Y0052120D01*
X0069515Y0052199D01*
X0069509Y0052278D01*
X0069507Y0052358D01*
X0030296Y0039256D02*
X0030298Y0039414D01*
X0030304Y0039572D01*
X0030314Y0039730D01*
X0030328Y0039888D01*
X0030346Y0040045D01*
X0030367Y0040202D01*
X0030393Y0040358D01*
X0030423Y0040514D01*
X0030456Y0040669D01*
X0030494Y0040822D01*
X0030535Y0040975D01*
X0030580Y0041127D01*
X0030629Y0041278D01*
X0030682Y0041427D01*
X0030738Y0041575D01*
X0030798Y0041721D01*
X0030862Y0041866D01*
X0030930Y0042009D01*
X0031001Y0042151D01*
X0031075Y0042291D01*
X0031153Y0042428D01*
X0031235Y0042564D01*
X0031319Y0042698D01*
X0031408Y0042829D01*
X0031499Y0042958D01*
X0031594Y0043085D01*
X0031691Y0043210D01*
X0031792Y0043332D01*
X0031896Y0043451D01*
X0032003Y0043568D01*
X0032113Y0043682D01*
X0032226Y0043793D01*
X0032341Y0043902D01*
X0032459Y0044007D01*
X0032580Y0044109D01*
X0032703Y0044209D01*
X0032829Y0044305D01*
X0032957Y0044398D01*
X0033087Y0044488D01*
X0033220Y0044574D01*
X0033355Y0044658D01*
X0033491Y0044737D01*
X0033630Y0044814D01*
X0033771Y0044886D01*
X0033913Y0044956D01*
X0034057Y0045021D01*
X0034203Y0045083D01*
X0034350Y0045141D01*
X0034499Y0045196D01*
X0034649Y0045247D01*
X0034800Y0045294D01*
X0034952Y0045337D01*
X0035105Y0045376D01*
X0035260Y0045412D01*
X0035415Y0045443D01*
X0035571Y0045471D01*
X0035727Y0045495D01*
X0035884Y0045515D01*
X0036042Y0045531D01*
X0036199Y0045543D01*
X0036358Y0045551D01*
X0036516Y0045555D01*
X0036674Y0045555D01*
X0036832Y0045551D01*
X0036991Y0045543D01*
X0037148Y0045531D01*
X0037306Y0045515D01*
X0037463Y0045495D01*
X0037619Y0045471D01*
X0037775Y0045443D01*
X0037930Y0045412D01*
X0038085Y0045376D01*
X0038238Y0045337D01*
X0038390Y0045294D01*
X0038541Y0045247D01*
X0038691Y0045196D01*
X0038840Y0045141D01*
X0038987Y0045083D01*
X0039133Y0045021D01*
X0039277Y0044956D01*
X0039419Y0044886D01*
X0039560Y0044814D01*
X0039699Y0044737D01*
X0039835Y0044658D01*
X0039970Y0044574D01*
X0040103Y0044488D01*
X0040233Y0044398D01*
X0040361Y0044305D01*
X0040487Y0044209D01*
X0040610Y0044109D01*
X0040731Y0044007D01*
X0040849Y0043902D01*
X0040964Y0043793D01*
X0041077Y0043682D01*
X0041187Y0043568D01*
X0041294Y0043451D01*
X0041398Y0043332D01*
X0041499Y0043210D01*
X0041596Y0043085D01*
X0041691Y0042958D01*
X0041782Y0042829D01*
X0041871Y0042698D01*
X0041955Y0042564D01*
X0042037Y0042428D01*
X0042115Y0042291D01*
X0042189Y0042151D01*
X0042260Y0042009D01*
X0042328Y0041866D01*
X0042392Y0041721D01*
X0042452Y0041575D01*
X0042508Y0041427D01*
X0042561Y0041278D01*
X0042610Y0041127D01*
X0042655Y0040975D01*
X0042696Y0040822D01*
X0042734Y0040669D01*
X0042767Y0040514D01*
X0042797Y0040358D01*
X0042823Y0040202D01*
X0042844Y0040045D01*
X0042862Y0039888D01*
X0042876Y0039730D01*
X0042886Y0039572D01*
X0042892Y0039414D01*
X0042894Y0039256D01*
X0042892Y0039098D01*
X0042886Y0038940D01*
X0042876Y0038782D01*
X0042862Y0038624D01*
X0042844Y0038467D01*
X0042823Y0038310D01*
X0042797Y0038154D01*
X0042767Y0037998D01*
X0042734Y0037843D01*
X0042696Y0037690D01*
X0042655Y0037537D01*
X0042610Y0037385D01*
X0042561Y0037234D01*
X0042508Y0037085D01*
X0042452Y0036937D01*
X0042392Y0036791D01*
X0042328Y0036646D01*
X0042260Y0036503D01*
X0042189Y0036361D01*
X0042115Y0036221D01*
X0042037Y0036084D01*
X0041955Y0035948D01*
X0041871Y0035814D01*
X0041782Y0035683D01*
X0041691Y0035554D01*
X0041596Y0035427D01*
X0041499Y0035302D01*
X0041398Y0035180D01*
X0041294Y0035061D01*
X0041187Y0034944D01*
X0041077Y0034830D01*
X0040964Y0034719D01*
X0040849Y0034610D01*
X0040731Y0034505D01*
X0040610Y0034403D01*
X0040487Y0034303D01*
X0040361Y0034207D01*
X0040233Y0034114D01*
X0040103Y0034024D01*
X0039970Y0033938D01*
X0039835Y0033854D01*
X0039699Y0033775D01*
X0039560Y0033698D01*
X0039419Y0033626D01*
X0039277Y0033556D01*
X0039133Y0033491D01*
X0038987Y0033429D01*
X0038840Y0033371D01*
X0038691Y0033316D01*
X0038541Y0033265D01*
X0038390Y0033218D01*
X0038238Y0033175D01*
X0038085Y0033136D01*
X0037930Y0033100D01*
X0037775Y0033069D01*
X0037619Y0033041D01*
X0037463Y0033017D01*
X0037306Y0032997D01*
X0037148Y0032981D01*
X0036991Y0032969D01*
X0036832Y0032961D01*
X0036674Y0032957D01*
X0036516Y0032957D01*
X0036358Y0032961D01*
X0036199Y0032969D01*
X0036042Y0032981D01*
X0035884Y0032997D01*
X0035727Y0033017D01*
X0035571Y0033041D01*
X0035415Y0033069D01*
X0035260Y0033100D01*
X0035105Y0033136D01*
X0034952Y0033175D01*
X0034800Y0033218D01*
X0034649Y0033265D01*
X0034499Y0033316D01*
X0034350Y0033371D01*
X0034203Y0033429D01*
X0034057Y0033491D01*
X0033913Y0033556D01*
X0033771Y0033626D01*
X0033630Y0033698D01*
X0033491Y0033775D01*
X0033355Y0033854D01*
X0033220Y0033938D01*
X0033087Y0034024D01*
X0032957Y0034114D01*
X0032829Y0034207D01*
X0032703Y0034303D01*
X0032580Y0034403D01*
X0032459Y0034505D01*
X0032341Y0034610D01*
X0032226Y0034719D01*
X0032113Y0034830D01*
X0032003Y0034944D01*
X0031896Y0035061D01*
X0031792Y0035180D01*
X0031691Y0035302D01*
X0031594Y0035427D01*
X0031499Y0035554D01*
X0031408Y0035683D01*
X0031319Y0035814D01*
X0031235Y0035948D01*
X0031153Y0036084D01*
X0031075Y0036221D01*
X0031001Y0036361D01*
X0030930Y0036503D01*
X0030862Y0036646D01*
X0030798Y0036791D01*
X0030738Y0036937D01*
X0030682Y0037085D01*
X0030629Y0037234D01*
X0030580Y0037385D01*
X0030535Y0037537D01*
X0030494Y0037690D01*
X0030456Y0037843D01*
X0030423Y0037998D01*
X0030393Y0038154D01*
X0030367Y0038310D01*
X0030346Y0038467D01*
X0030328Y0038624D01*
X0030314Y0038782D01*
X0030304Y0038940D01*
X0030298Y0039098D01*
X0030296Y0039256D01*
X0030296Y0196217D02*
X0030298Y0196375D01*
X0030304Y0196533D01*
X0030314Y0196691D01*
X0030328Y0196849D01*
X0030346Y0197006D01*
X0030367Y0197163D01*
X0030393Y0197319D01*
X0030423Y0197475D01*
X0030456Y0197630D01*
X0030494Y0197783D01*
X0030535Y0197936D01*
X0030580Y0198088D01*
X0030629Y0198239D01*
X0030682Y0198388D01*
X0030738Y0198536D01*
X0030798Y0198682D01*
X0030862Y0198827D01*
X0030930Y0198970D01*
X0031001Y0199112D01*
X0031075Y0199252D01*
X0031153Y0199389D01*
X0031235Y0199525D01*
X0031319Y0199659D01*
X0031408Y0199790D01*
X0031499Y0199919D01*
X0031594Y0200046D01*
X0031691Y0200171D01*
X0031792Y0200293D01*
X0031896Y0200412D01*
X0032003Y0200529D01*
X0032113Y0200643D01*
X0032226Y0200754D01*
X0032341Y0200863D01*
X0032459Y0200968D01*
X0032580Y0201070D01*
X0032703Y0201170D01*
X0032829Y0201266D01*
X0032957Y0201359D01*
X0033087Y0201449D01*
X0033220Y0201535D01*
X0033355Y0201619D01*
X0033491Y0201698D01*
X0033630Y0201775D01*
X0033771Y0201847D01*
X0033913Y0201917D01*
X0034057Y0201982D01*
X0034203Y0202044D01*
X0034350Y0202102D01*
X0034499Y0202157D01*
X0034649Y0202208D01*
X0034800Y0202255D01*
X0034952Y0202298D01*
X0035105Y0202337D01*
X0035260Y0202373D01*
X0035415Y0202404D01*
X0035571Y0202432D01*
X0035727Y0202456D01*
X0035884Y0202476D01*
X0036042Y0202492D01*
X0036199Y0202504D01*
X0036358Y0202512D01*
X0036516Y0202516D01*
X0036674Y0202516D01*
X0036832Y0202512D01*
X0036991Y0202504D01*
X0037148Y0202492D01*
X0037306Y0202476D01*
X0037463Y0202456D01*
X0037619Y0202432D01*
X0037775Y0202404D01*
X0037930Y0202373D01*
X0038085Y0202337D01*
X0038238Y0202298D01*
X0038390Y0202255D01*
X0038541Y0202208D01*
X0038691Y0202157D01*
X0038840Y0202102D01*
X0038987Y0202044D01*
X0039133Y0201982D01*
X0039277Y0201917D01*
X0039419Y0201847D01*
X0039560Y0201775D01*
X0039699Y0201698D01*
X0039835Y0201619D01*
X0039970Y0201535D01*
X0040103Y0201449D01*
X0040233Y0201359D01*
X0040361Y0201266D01*
X0040487Y0201170D01*
X0040610Y0201070D01*
X0040731Y0200968D01*
X0040849Y0200863D01*
X0040964Y0200754D01*
X0041077Y0200643D01*
X0041187Y0200529D01*
X0041294Y0200412D01*
X0041398Y0200293D01*
X0041499Y0200171D01*
X0041596Y0200046D01*
X0041691Y0199919D01*
X0041782Y0199790D01*
X0041871Y0199659D01*
X0041955Y0199525D01*
X0042037Y0199389D01*
X0042115Y0199252D01*
X0042189Y0199112D01*
X0042260Y0198970D01*
X0042328Y0198827D01*
X0042392Y0198682D01*
X0042452Y0198536D01*
X0042508Y0198388D01*
X0042561Y0198239D01*
X0042610Y0198088D01*
X0042655Y0197936D01*
X0042696Y0197783D01*
X0042734Y0197630D01*
X0042767Y0197475D01*
X0042797Y0197319D01*
X0042823Y0197163D01*
X0042844Y0197006D01*
X0042862Y0196849D01*
X0042876Y0196691D01*
X0042886Y0196533D01*
X0042892Y0196375D01*
X0042894Y0196217D01*
X0042892Y0196059D01*
X0042886Y0195901D01*
X0042876Y0195743D01*
X0042862Y0195585D01*
X0042844Y0195428D01*
X0042823Y0195271D01*
X0042797Y0195115D01*
X0042767Y0194959D01*
X0042734Y0194804D01*
X0042696Y0194651D01*
X0042655Y0194498D01*
X0042610Y0194346D01*
X0042561Y0194195D01*
X0042508Y0194046D01*
X0042452Y0193898D01*
X0042392Y0193752D01*
X0042328Y0193607D01*
X0042260Y0193464D01*
X0042189Y0193322D01*
X0042115Y0193182D01*
X0042037Y0193045D01*
X0041955Y0192909D01*
X0041871Y0192775D01*
X0041782Y0192644D01*
X0041691Y0192515D01*
X0041596Y0192388D01*
X0041499Y0192263D01*
X0041398Y0192141D01*
X0041294Y0192022D01*
X0041187Y0191905D01*
X0041077Y0191791D01*
X0040964Y0191680D01*
X0040849Y0191571D01*
X0040731Y0191466D01*
X0040610Y0191364D01*
X0040487Y0191264D01*
X0040361Y0191168D01*
X0040233Y0191075D01*
X0040103Y0190985D01*
X0039970Y0190899D01*
X0039835Y0190815D01*
X0039699Y0190736D01*
X0039560Y0190659D01*
X0039419Y0190587D01*
X0039277Y0190517D01*
X0039133Y0190452D01*
X0038987Y0190390D01*
X0038840Y0190332D01*
X0038691Y0190277D01*
X0038541Y0190226D01*
X0038390Y0190179D01*
X0038238Y0190136D01*
X0038085Y0190097D01*
X0037930Y0190061D01*
X0037775Y0190030D01*
X0037619Y0190002D01*
X0037463Y0189978D01*
X0037306Y0189958D01*
X0037148Y0189942D01*
X0036991Y0189930D01*
X0036832Y0189922D01*
X0036674Y0189918D01*
X0036516Y0189918D01*
X0036358Y0189922D01*
X0036199Y0189930D01*
X0036042Y0189942D01*
X0035884Y0189958D01*
X0035727Y0189978D01*
X0035571Y0190002D01*
X0035415Y0190030D01*
X0035260Y0190061D01*
X0035105Y0190097D01*
X0034952Y0190136D01*
X0034800Y0190179D01*
X0034649Y0190226D01*
X0034499Y0190277D01*
X0034350Y0190332D01*
X0034203Y0190390D01*
X0034057Y0190452D01*
X0033913Y0190517D01*
X0033771Y0190587D01*
X0033630Y0190659D01*
X0033491Y0190736D01*
X0033355Y0190815D01*
X0033220Y0190899D01*
X0033087Y0190985D01*
X0032957Y0191075D01*
X0032829Y0191168D01*
X0032703Y0191264D01*
X0032580Y0191364D01*
X0032459Y0191466D01*
X0032341Y0191571D01*
X0032226Y0191680D01*
X0032113Y0191791D01*
X0032003Y0191905D01*
X0031896Y0192022D01*
X0031792Y0192141D01*
X0031691Y0192263D01*
X0031594Y0192388D01*
X0031499Y0192515D01*
X0031408Y0192644D01*
X0031319Y0192775D01*
X0031235Y0192909D01*
X0031153Y0193045D01*
X0031075Y0193182D01*
X0031001Y0193322D01*
X0030930Y0193464D01*
X0030862Y0193607D01*
X0030798Y0193752D01*
X0030738Y0193898D01*
X0030682Y0194046D01*
X0030629Y0194195D01*
X0030580Y0194346D01*
X0030535Y0194498D01*
X0030494Y0194651D01*
X0030456Y0194804D01*
X0030423Y0194959D01*
X0030393Y0195115D01*
X0030367Y0195271D01*
X0030346Y0195428D01*
X0030328Y0195585D01*
X0030314Y0195743D01*
X0030304Y0195901D01*
X0030298Y0196059D01*
X0030296Y0196217D01*
D12*
X0091845Y0162404D02*
X0098151Y0162404D01*
X0094998Y0159251D01*
X0094998Y0163455D01*
X0094998Y0157009D02*
X0093947Y0155959D01*
X0093947Y0152806D01*
X0093947Y0154908D02*
X0091845Y0157009D01*
X0094998Y0157009D02*
X0097100Y0157009D01*
X0098151Y0155959D01*
X0098151Y0152806D01*
X0091845Y0152806D01*
X0071945Y0137364D02*
X0071945Y0133160D01*
X0071945Y0135262D02*
X0078251Y0135262D01*
X0076149Y0133160D01*
X0077200Y0130918D02*
X0072996Y0130918D01*
X0071945Y0129868D01*
X0071945Y0126715D01*
X0078251Y0126715D01*
X0078251Y0129868D01*
X0077200Y0130918D01*
X0077200Y0124473D02*
X0078251Y0123422D01*
X0078251Y0121320D01*
X0077200Y0120269D01*
X0076149Y0120269D01*
X0075098Y0121320D01*
X0075098Y0123422D01*
X0074047Y0124473D01*
X0072996Y0124473D01*
X0071945Y0123422D01*
X0071945Y0121320D01*
X0072996Y0120269D01*
X0082445Y0112813D02*
X0083496Y0113864D01*
X0084547Y0113864D01*
X0085598Y0112813D01*
X0085598Y0109660D01*
X0083496Y0109660D01*
X0082445Y0110711D01*
X0082445Y0112813D01*
X0085598Y0109660D02*
X0087700Y0111762D01*
X0088751Y0113864D01*
X0087700Y0107418D02*
X0088751Y0106368D01*
X0088751Y0104266D01*
X0087700Y0103215D01*
X0083496Y0103215D01*
X0082445Y0104266D01*
X0082445Y0106368D01*
X0083496Y0107418D01*
X0120945Y0106657D02*
X0120945Y0108759D01*
X0121996Y0109809D01*
X0121996Y0112051D02*
X0120945Y0112051D01*
X0121996Y0112051D02*
X0126200Y0116255D01*
X0127251Y0116255D01*
X0127251Y0112051D01*
X0126200Y0109809D02*
X0127251Y0108759D01*
X0127251Y0106657D01*
X0126200Y0105606D01*
X0121996Y0105606D01*
X0120945Y0106657D01*
X0173945Y0105657D02*
X0174996Y0104606D01*
X0179200Y0104606D01*
X0180251Y0105657D01*
X0180251Y0107759D01*
X0179200Y0108809D01*
X0179200Y0111051D02*
X0178149Y0111051D01*
X0177098Y0112102D01*
X0177098Y0115255D01*
X0179200Y0115255D02*
X0180251Y0114204D01*
X0180251Y0112102D01*
X0179200Y0111051D01*
X0174996Y0111051D02*
X0173945Y0112102D01*
X0173945Y0114204D01*
X0174996Y0115255D01*
X0179200Y0115255D01*
X0174996Y0108809D02*
X0173945Y0107759D01*
X0173945Y0105657D01*
X0146399Y0170865D02*
X0144297Y0170865D01*
X0145348Y0170865D02*
X0145348Y0177170D01*
X0146399Y0177170D02*
X0144297Y0177170D01*
X0142102Y0176119D02*
X0142102Y0171916D01*
X0141051Y0170865D01*
X0138949Y0170865D01*
X0137898Y0171916D01*
X0135657Y0171916D02*
X0134606Y0170865D01*
X0132504Y0170865D01*
X0131453Y0171916D01*
X0131453Y0172967D01*
X0132504Y0174018D01*
X0133555Y0174018D01*
X0132504Y0174018D02*
X0131453Y0175069D01*
X0131453Y0176119D01*
X0132504Y0177170D01*
X0134606Y0177170D01*
X0135657Y0176119D01*
X0137898Y0176119D02*
X0138949Y0177170D01*
X0141051Y0177170D01*
X0142102Y0176119D01*
X0055082Y0147911D02*
X0055082Y0142657D01*
X0054031Y0141606D01*
X0051929Y0141606D01*
X0050878Y0142657D01*
X0050878Y0147911D01*
X0048636Y0146860D02*
X0047585Y0147911D01*
X0045483Y0147911D01*
X0044433Y0146860D01*
X0045483Y0144759D02*
X0044433Y0143708D01*
X0044433Y0142657D01*
X0045483Y0141606D01*
X0047585Y0141606D01*
X0048636Y0142657D01*
X0047585Y0144759D02*
X0045483Y0144759D01*
X0047585Y0144759D02*
X0048636Y0145809D01*
X0048636Y0146860D01*
X0042191Y0147911D02*
X0042191Y0141606D01*
X0039038Y0141606D01*
X0037987Y0142657D01*
X0037987Y0143708D01*
X0039038Y0144759D01*
X0042191Y0144759D01*
X0039038Y0144759D02*
X0037987Y0145809D01*
X0037987Y0146860D01*
X0039038Y0147911D01*
X0042191Y0147911D01*
X0292096Y0167860D02*
X0296300Y0163657D01*
X0296300Y0162606D01*
X0298542Y0162606D02*
X0300643Y0164708D01*
X0299592Y0164708D02*
X0302745Y0164708D01*
X0302745Y0162606D02*
X0302745Y0168911D01*
X0299592Y0168911D01*
X0298542Y0167860D01*
X0298542Y0165759D01*
X0299592Y0164708D01*
X0296300Y0168911D02*
X0292096Y0168911D01*
X0292096Y0167860D01*
X0310096Y0168911D02*
X0314300Y0168911D01*
X0314300Y0165759D01*
X0312198Y0166809D01*
X0311147Y0166809D01*
X0310096Y0165759D01*
X0310096Y0163657D01*
X0311147Y0162606D01*
X0313249Y0162606D01*
X0314300Y0163657D01*
X0316542Y0162606D02*
X0318643Y0164708D01*
X0317592Y0164708D02*
X0320745Y0164708D01*
X0320745Y0162606D02*
X0320745Y0168911D01*
X0317592Y0168911D01*
X0316542Y0167860D01*
X0316542Y0165759D01*
X0317592Y0164708D01*
X0327803Y0164465D02*
X0327803Y0163414D01*
X0328854Y0162363D01*
X0330956Y0162363D01*
X0332007Y0163414D01*
X0332007Y0165516D01*
X0328854Y0165516D01*
X0327803Y0164465D01*
X0329905Y0167618D02*
X0332007Y0165516D01*
X0334249Y0165516D02*
X0335300Y0164465D01*
X0338452Y0164465D01*
X0336350Y0164465D02*
X0334249Y0162363D01*
X0334249Y0165516D02*
X0334249Y0167618D01*
X0335300Y0168669D01*
X0338452Y0168669D01*
X0338452Y0162363D01*
X0345096Y0163657D02*
X0345096Y0167860D01*
X0346147Y0168911D01*
X0348249Y0168911D01*
X0349300Y0167860D01*
X0349300Y0166809D01*
X0348249Y0165759D01*
X0345096Y0165759D01*
X0345096Y0163657D02*
X0346147Y0162606D01*
X0348249Y0162606D01*
X0349300Y0163657D01*
X0351542Y0162606D02*
X0353643Y0164708D01*
X0352592Y0164708D02*
X0355745Y0164708D01*
X0355745Y0162606D02*
X0355745Y0168911D01*
X0352592Y0168911D01*
X0351542Y0167860D01*
X0351542Y0165759D01*
X0352592Y0164708D01*
X0329905Y0167618D02*
X0327803Y0168669D01*
X0329599Y0137861D02*
X0329599Y0133658D01*
X0333802Y0137861D01*
X0334853Y0137861D01*
X0335904Y0136810D01*
X0335904Y0134709D01*
X0334853Y0133658D01*
X0334853Y0131416D02*
X0330650Y0131416D01*
X0329599Y0130365D01*
X0329599Y0127212D01*
X0335904Y0127212D01*
X0335904Y0130365D01*
X0334853Y0131416D01*
D13*
X0343595Y0137177D03*
D14*
X0058238Y0130876D02*
X0058238Y0128385D01*
X0053720Y0128385D01*
X0053720Y0130843D01*
X0050864Y0132902D02*
X0040284Y0132902D01*
X0039441Y0129405D02*
X0039441Y0128587D01*
X0030040Y0127566D01*
X0030040Y0125522D01*
X0039441Y0124500D01*
X0039441Y0123682D01*
X0028609Y0124704D01*
X0028543Y0124711D01*
X0028478Y0124722D01*
X0028413Y0124736D01*
X0028350Y0124754D01*
X0028287Y0124776D01*
X0028226Y0124801D01*
X0028166Y0124829D01*
X0028108Y0124861D01*
X0028052Y0124897D01*
X0027998Y0124935D01*
X0027947Y0124976D01*
X0027898Y0125020D01*
X0027851Y0125067D01*
X0027807Y0125117D01*
X0027766Y0125169D01*
X0027728Y0125223D01*
X0027693Y0125279D01*
X0027662Y0125337D01*
X0027634Y0125397D01*
X0027609Y0125459D01*
X0027588Y0125521D01*
X0027588Y0127770D02*
X0027609Y0127832D01*
X0027634Y0127894D01*
X0027662Y0127954D01*
X0027693Y0128012D01*
X0027728Y0128068D01*
X0027766Y0128122D01*
X0027807Y0128174D01*
X0027851Y0128224D01*
X0027898Y0128271D01*
X0027947Y0128315D01*
X0027998Y0128356D01*
X0028052Y0128394D01*
X0028108Y0128430D01*
X0028166Y0128462D01*
X0028226Y0128490D01*
X0028287Y0128515D01*
X0028350Y0128537D01*
X0028413Y0128555D01*
X0028478Y0128569D01*
X0028543Y0128580D01*
X0028609Y0128587D01*
X0039441Y0129405D01*
X0027588Y0127770D02*
X0027554Y0127655D01*
X0027524Y0127538D01*
X0027498Y0127421D01*
X0027476Y0127303D01*
X0027457Y0127185D01*
X0027442Y0127065D01*
X0027431Y0126946D01*
X0027423Y0126826D01*
X0027419Y0126706D01*
X0027419Y0126586D01*
X0027423Y0126466D01*
X0027431Y0126346D01*
X0027442Y0126227D01*
X0027457Y0126107D01*
X0027476Y0125989D01*
X0027498Y0125871D01*
X0027524Y0125754D01*
X0027554Y0125637D01*
X0027588Y0125522D01*
X0028609Y0122660D02*
X0044551Y0121843D01*
X0044608Y0121838D01*
X0044665Y0121829D01*
X0044721Y0121816D01*
X0044776Y0121800D01*
X0044830Y0121780D01*
X0044882Y0121756D01*
X0044933Y0121730D01*
X0044982Y0121699D01*
X0045029Y0121666D01*
X0045074Y0121630D01*
X0045116Y0121590D01*
X0045155Y0121548D01*
X0045191Y0121504D01*
X0045225Y0121457D01*
X0045255Y0121408D01*
X0045282Y0121357D01*
X0045305Y0121305D01*
X0045325Y0121251D01*
X0045341Y0121195D01*
X0045354Y0121139D01*
X0045363Y0121082D01*
X0045368Y0121025D01*
X0045368Y0114485D01*
X0045369Y0114486D02*
X0045364Y0114429D01*
X0045355Y0114372D01*
X0045342Y0114316D01*
X0045326Y0114261D01*
X0045306Y0114207D01*
X0045283Y0114154D01*
X0045256Y0114103D01*
X0045226Y0114054D01*
X0045192Y0114007D01*
X0045156Y0113963D01*
X0045117Y0113921D01*
X0045074Y0113881D01*
X0045030Y0113845D01*
X0044983Y0113812D01*
X0044934Y0113781D01*
X0044883Y0113754D01*
X0044831Y0113731D01*
X0044777Y0113711D01*
X0044722Y0113695D01*
X0044665Y0113682D01*
X0044609Y0113673D01*
X0044551Y0113668D01*
X0028609Y0112851D01*
X0028553Y0112853D01*
X0028498Y0112859D01*
X0028443Y0112868D01*
X0028389Y0112881D01*
X0028335Y0112898D01*
X0028284Y0112919D01*
X0028233Y0112943D01*
X0028184Y0112970D01*
X0028138Y0113001D01*
X0028093Y0113034D01*
X0028051Y0113071D01*
X0028012Y0113110D01*
X0027975Y0113152D01*
X0027942Y0113197D01*
X0027911Y0113243D01*
X0027884Y0113292D01*
X0027860Y0113343D01*
X0027839Y0113394D01*
X0027822Y0113448D01*
X0027809Y0113502D01*
X0027800Y0113557D01*
X0027794Y0113612D01*
X0027792Y0113668D01*
X0027792Y0113669D01*
X0027794Y0113725D01*
X0027800Y0113780D01*
X0027809Y0113835D01*
X0027822Y0113889D01*
X0027839Y0113943D01*
X0027860Y0113994D01*
X0027884Y0114045D01*
X0027911Y0114094D01*
X0027942Y0114140D01*
X0027975Y0114185D01*
X0028012Y0114227D01*
X0028051Y0114266D01*
X0028093Y0114303D01*
X0028138Y0114336D01*
X0028184Y0114367D01*
X0028233Y0114394D01*
X0028284Y0114418D01*
X0028335Y0114439D01*
X0028389Y0114456D01*
X0028443Y0114469D01*
X0028498Y0114478D01*
X0028553Y0114484D01*
X0028609Y0114486D01*
X0042098Y0115303D01*
X0042098Y0115302D02*
X0042098Y0120208D01*
X0028609Y0121025D01*
X0028609Y0121026D02*
X0028553Y0121028D01*
X0028498Y0121034D01*
X0028443Y0121043D01*
X0028389Y0121056D01*
X0028335Y0121073D01*
X0028284Y0121094D01*
X0028233Y0121118D01*
X0028184Y0121145D01*
X0028138Y0121176D01*
X0028093Y0121209D01*
X0028051Y0121246D01*
X0028012Y0121285D01*
X0027975Y0121327D01*
X0027942Y0121372D01*
X0027911Y0121418D01*
X0027884Y0121467D01*
X0027860Y0121518D01*
X0027839Y0121569D01*
X0027822Y0121623D01*
X0027809Y0121677D01*
X0027800Y0121732D01*
X0027794Y0121787D01*
X0027792Y0121843D01*
X0027794Y0121899D01*
X0027800Y0121954D01*
X0027809Y0122009D01*
X0027822Y0122063D01*
X0027839Y0122117D01*
X0027860Y0122168D01*
X0027884Y0122219D01*
X0027911Y0122268D01*
X0027942Y0122314D01*
X0027975Y0122359D01*
X0028012Y0122401D01*
X0028051Y0122440D01*
X0028093Y0122477D01*
X0028138Y0122510D01*
X0028184Y0122541D01*
X0028233Y0122568D01*
X0028284Y0122592D01*
X0028335Y0122613D01*
X0028389Y0122630D01*
X0028443Y0122643D01*
X0028498Y0122652D01*
X0028553Y0122658D01*
X0028609Y0122660D01*
X0029215Y0132880D02*
X0023295Y0132880D01*
X0023295Y0132880D01*
X0023295Y0102631D01*
X0029214Y0102632D01*
X0023277Y0102609D02*
X0023277Y0132903D01*
X0028609Y0110807D02*
X0039441Y0111829D01*
X0039441Y0111011D01*
X0030040Y0109989D01*
X0030040Y0107945D01*
X0039441Y0106924D01*
X0039441Y0106106D01*
X0028609Y0106924D01*
X0028543Y0106931D01*
X0028478Y0106942D01*
X0028413Y0106956D01*
X0028350Y0106974D01*
X0028287Y0106996D01*
X0028226Y0107021D01*
X0028166Y0107049D01*
X0028108Y0107081D01*
X0028052Y0107117D01*
X0027998Y0107155D01*
X0027947Y0107196D01*
X0027898Y0107240D01*
X0027851Y0107287D01*
X0027807Y0107337D01*
X0027766Y0107389D01*
X0027728Y0107443D01*
X0027693Y0107499D01*
X0027662Y0107557D01*
X0027634Y0107617D01*
X0027609Y0107679D01*
X0027588Y0107741D01*
X0027588Y0109990D02*
X0027609Y0110052D01*
X0027634Y0110114D01*
X0027662Y0110174D01*
X0027693Y0110232D01*
X0027728Y0110288D01*
X0027766Y0110342D01*
X0027807Y0110394D01*
X0027851Y0110444D01*
X0027898Y0110491D01*
X0027947Y0110535D01*
X0027998Y0110576D01*
X0028052Y0110614D01*
X0028108Y0110650D01*
X0028166Y0110682D01*
X0028226Y0110710D01*
X0028287Y0110735D01*
X0028350Y0110757D01*
X0028413Y0110775D01*
X0028478Y0110789D01*
X0028543Y0110800D01*
X0028609Y0110807D01*
X0027588Y0109989D02*
X0027554Y0109874D01*
X0027524Y0109757D01*
X0027498Y0109640D01*
X0027476Y0109522D01*
X0027457Y0109404D01*
X0027442Y0109284D01*
X0027431Y0109165D01*
X0027423Y0109045D01*
X0027419Y0108925D01*
X0027419Y0108805D01*
X0027423Y0108685D01*
X0027431Y0108565D01*
X0027442Y0108446D01*
X0027457Y0108326D01*
X0027476Y0108208D01*
X0027498Y0108090D01*
X0027524Y0107973D01*
X0027554Y0107856D01*
X0027588Y0107741D01*
X0040484Y0102609D02*
X0050466Y0102609D01*
X0053721Y0104668D02*
X0053720Y0107525D01*
X0058172Y0107525D01*
X0058172Y0104668D01*
D15*
X0082045Y0123256D02*
X0083595Y0123256D01*
X0082045Y0123256D02*
X0082045Y0135256D01*
X0083595Y0135256D01*
X0087595Y0135256D02*
X0089145Y0135256D01*
X0089145Y0123256D01*
X0087595Y0123256D01*
D16*
X0085595Y0132406D03*
D17*
X0116359Y0129100D02*
X0116359Y0165627D01*
X0116361Y0165708D01*
X0116367Y0165789D01*
X0116376Y0165870D01*
X0116390Y0165950D01*
X0116407Y0166030D01*
X0116428Y0166108D01*
X0116453Y0166186D01*
X0116481Y0166262D01*
X0116513Y0166337D01*
X0116549Y0166410D01*
X0116588Y0166481D01*
X0116630Y0166550D01*
X0116676Y0166618D01*
X0116724Y0166683D01*
X0116776Y0166746D01*
X0116831Y0166806D01*
X0116888Y0166863D01*
X0116948Y0166918D01*
X0117011Y0166970D01*
X0117076Y0167018D01*
X0117144Y0167064D01*
X0117213Y0167106D01*
X0117284Y0167145D01*
X0117357Y0167181D01*
X0117432Y0167213D01*
X0117508Y0167241D01*
X0117586Y0167266D01*
X0117664Y0167287D01*
X0117744Y0167304D01*
X0117824Y0167318D01*
X0117905Y0167327D01*
X0117986Y0167333D01*
X0118067Y0167335D01*
X0124595Y0167335D01*
X0124597Y0167247D01*
X0124603Y0167158D01*
X0124613Y0167070D01*
X0124626Y0166983D01*
X0124644Y0166896D01*
X0124665Y0166810D01*
X0124690Y0166725D01*
X0124719Y0166642D01*
X0124752Y0166559D01*
X0124788Y0166479D01*
X0124827Y0166400D01*
X0124870Y0166322D01*
X0124917Y0166247D01*
X0124967Y0166174D01*
X0125020Y0166103D01*
X0125076Y0166034D01*
X0125135Y0165968D01*
X0125197Y0165905D01*
X0125261Y0165845D01*
X0125328Y0165787D01*
X0125398Y0165733D01*
X0125470Y0165681D01*
X0125544Y0165633D01*
X0125621Y0165588D01*
X0125699Y0165547D01*
X0125779Y0165509D01*
X0125860Y0165475D01*
X0125943Y0165444D01*
X0126028Y0165417D01*
X0126113Y0165394D01*
X0126199Y0165375D01*
X0126287Y0165359D01*
X0126374Y0165347D01*
X0126462Y0165339D01*
X0126551Y0165335D01*
X0126639Y0165335D01*
X0126728Y0165339D01*
X0126816Y0165347D01*
X0126903Y0165359D01*
X0126991Y0165375D01*
X0127077Y0165394D01*
X0127162Y0165417D01*
X0127247Y0165444D01*
X0127330Y0165475D01*
X0127411Y0165509D01*
X0127491Y0165547D01*
X0127569Y0165588D01*
X0127646Y0165633D01*
X0127720Y0165681D01*
X0127792Y0165733D01*
X0127862Y0165787D01*
X0127929Y0165845D01*
X0127993Y0165905D01*
X0128055Y0165968D01*
X0128114Y0166034D01*
X0128170Y0166103D01*
X0128223Y0166174D01*
X0128273Y0166247D01*
X0128320Y0166322D01*
X0128363Y0166400D01*
X0128402Y0166479D01*
X0128438Y0166559D01*
X0128471Y0166642D01*
X0128500Y0166725D01*
X0128525Y0166810D01*
X0128546Y0166896D01*
X0128564Y0166983D01*
X0128577Y0167070D01*
X0128587Y0167158D01*
X0128593Y0167247D01*
X0128595Y0167335D01*
X0135165Y0167335D01*
X0135244Y0167333D01*
X0135323Y0167327D01*
X0135402Y0167318D01*
X0135480Y0167305D01*
X0135558Y0167288D01*
X0135635Y0167267D01*
X0135710Y0167243D01*
X0135785Y0167216D01*
X0135857Y0167184D01*
X0135929Y0167150D01*
X0135999Y0167112D01*
X0136066Y0167070D01*
X0136132Y0167026D01*
X0136195Y0166978D01*
X0136257Y0166928D01*
X0136315Y0166874D01*
X0136371Y0166818D01*
X0136425Y0166760D01*
X0136475Y0166698D01*
X0136523Y0166635D01*
X0136567Y0166569D01*
X0136609Y0166502D01*
X0136647Y0166432D01*
X0136681Y0166360D01*
X0136713Y0166288D01*
X0136740Y0166213D01*
X0136764Y0166138D01*
X0136785Y0166061D01*
X0136802Y0165983D01*
X0136815Y0165905D01*
X0136824Y0165826D01*
X0136830Y0165747D01*
X0136832Y0165668D01*
X0136831Y0165668D02*
X0136831Y0128999D01*
X0136832Y0128999D02*
X0136830Y0128915D01*
X0136824Y0128831D01*
X0136815Y0128747D01*
X0136801Y0128664D01*
X0136784Y0128582D01*
X0136762Y0128500D01*
X0136738Y0128420D01*
X0136709Y0128341D01*
X0136677Y0128263D01*
X0136641Y0128187D01*
X0136602Y0128112D01*
X0136559Y0128040D01*
X0136513Y0127969D01*
X0136464Y0127901D01*
X0136412Y0127835D01*
X0136356Y0127772D01*
X0136298Y0127711D01*
X0136237Y0127653D01*
X0136174Y0127597D01*
X0136108Y0127545D01*
X0136040Y0127496D01*
X0135969Y0127450D01*
X0135897Y0127407D01*
X0135822Y0127368D01*
X0135746Y0127332D01*
X0135668Y0127300D01*
X0135589Y0127271D01*
X0135509Y0127247D01*
X0135427Y0127225D01*
X0135345Y0127208D01*
X0135262Y0127194D01*
X0135178Y0127185D01*
X0135094Y0127179D01*
X0135010Y0127177D01*
X0118282Y0127177D01*
X0118196Y0127179D01*
X0118110Y0127185D01*
X0118024Y0127194D01*
X0117939Y0127208D01*
X0117854Y0127225D01*
X0117770Y0127246D01*
X0117688Y0127271D01*
X0117606Y0127300D01*
X0117526Y0127332D01*
X0117448Y0127367D01*
X0117371Y0127407D01*
X0117296Y0127449D01*
X0117223Y0127495D01*
X0117152Y0127544D01*
X0117083Y0127597D01*
X0117017Y0127652D01*
X0116953Y0127710D01*
X0116892Y0127771D01*
X0116834Y0127835D01*
X0116779Y0127901D01*
X0116726Y0127970D01*
X0116677Y0128041D01*
X0116631Y0128114D01*
X0116589Y0128189D01*
X0116549Y0128266D01*
X0116514Y0128344D01*
X0116482Y0128424D01*
X0116453Y0128506D01*
X0116428Y0128588D01*
X0116407Y0128672D01*
X0116390Y0128757D01*
X0116376Y0128842D01*
X0116367Y0128928D01*
X0116361Y0129014D01*
X0116359Y0129100D01*
D18*
X0135395Y0127256D02*
X0135395Y0167056D01*
M02*
