G75*
%MOIN*%
%OFA0B0*%
%FSLAX25Y25*%
%IPPOS*%
%LPD*%
%AMOC8*
5,1,8,0,0,1.08239X$1,22.5*
%
%ADD10R,0.10249X0.07099*%
%ADD11R,0.05131X0.04737*%
%ADD12R,0.09461X0.07887*%
%ADD13C,0.10800*%
%ADD14C,0.04000*%
%ADD15R,0.02375X0.06706*%
%ADD16R,0.08800X0.03400*%
%ADD17OC8,0.07800*%
%ADD18C,0.07800*%
%ADD19OC8,0.07099*%
%ADD20C,0.07099*%
%ADD21C,0.17398*%
%ADD22C,0.07099*%
%ADD23R,0.04737X0.06312*%
%ADD24R,0.04737X0.05131*%
%ADD25R,0.02800X0.04000*%
%ADD26R,0.04400X0.05600*%
%ADD27OC8,0.10800*%
%ADD28C,0.06800*%
%ADD29R,0.10643X0.08674*%
%ADD30R,0.13792X0.08674*%
%ADD31R,0.13005X0.02769*%
%ADD32C,0.05200*%
%ADD33R,0.07099X0.06312*%
%ADD34C,0.03900*%
D10*
X0073333Y0156226D03*
X0073333Y0168037D03*
D11*
X0071987Y0177632D03*
X0078680Y0177632D03*
X0058680Y0190632D03*
X0051987Y0190632D03*
D12*
X0370333Y0088671D03*
X0370333Y0068592D03*
D13*
X0057144Y0065632D02*
X0057144Y0075632D01*
X0033522Y0075632D02*
X0033522Y0065632D01*
X0040333Y0051734D02*
X0050333Y0051734D01*
D14*
X0039822Y0051734D03*
X0040609Y0051734D03*
X0041396Y0051734D03*
X0042184Y0051734D03*
X0042971Y0051734D03*
X0043759Y0051734D03*
X0044546Y0051734D03*
X0046121Y0051734D03*
X0046908Y0051734D03*
X0047696Y0051734D03*
X0048483Y0051734D03*
X0049270Y0051734D03*
X0050058Y0051734D03*
X0050845Y0051734D03*
X0057144Y0065120D03*
X0057144Y0065907D03*
X0057144Y0066695D03*
X0057144Y0067482D03*
X0057144Y0068269D03*
X0057144Y0069057D03*
X0057144Y0069844D03*
X0057144Y0071419D03*
X0057144Y0072206D03*
X0057144Y0072994D03*
X0057144Y0073781D03*
X0057144Y0074569D03*
X0057144Y0075356D03*
X0057144Y0076143D03*
X0033522Y0076143D03*
X0033522Y0075356D03*
X0033522Y0074569D03*
X0033522Y0073781D03*
X0033522Y0072994D03*
X0033522Y0072206D03*
X0033522Y0071419D03*
X0033522Y0069844D03*
X0033522Y0069057D03*
X0033522Y0068269D03*
X0033522Y0067482D03*
X0033522Y0066695D03*
X0033522Y0065907D03*
X0033522Y0065120D03*
D15*
X0088699Y0148360D03*
X0091259Y0148360D03*
X0093818Y0148360D03*
X0096377Y0148360D03*
X0098936Y0148360D03*
X0101495Y0148360D03*
X0104054Y0148360D03*
X0106613Y0148360D03*
X0109172Y0148360D03*
X0111731Y0148360D03*
X0114290Y0148360D03*
X0116849Y0148360D03*
X0119408Y0148360D03*
X0121967Y0148360D03*
X0121967Y0176903D03*
X0119408Y0176903D03*
X0116849Y0176903D03*
X0114290Y0176903D03*
X0111731Y0176903D03*
X0109172Y0176903D03*
X0106613Y0176903D03*
X0104054Y0176903D03*
X0101495Y0176903D03*
X0098936Y0176903D03*
X0096377Y0176903D03*
X0093818Y0176903D03*
X0091259Y0176903D03*
X0088699Y0176903D03*
D16*
X0226033Y0177132D03*
X0226033Y0182132D03*
X0226033Y0187132D03*
X0226033Y0192132D03*
X0226033Y0197132D03*
X0226033Y0202132D03*
X0264633Y0202132D03*
X0264633Y0197132D03*
X0264633Y0192132D03*
X0264633Y0187132D03*
X0264633Y0182132D03*
X0264633Y0177132D03*
X0264633Y0172132D03*
X0264633Y0167132D03*
X0226033Y0167132D03*
X0226033Y0172132D03*
X0308233Y0174132D03*
X0308233Y0179132D03*
X0308233Y0184132D03*
X0332433Y0184132D03*
X0332433Y0179132D03*
X0332433Y0174132D03*
X0332433Y0169132D03*
X0332433Y0164132D03*
X0332433Y0159132D03*
X0332433Y0154132D03*
X0332433Y0149132D03*
X0308233Y0149132D03*
X0308233Y0154132D03*
X0308233Y0159132D03*
X0308233Y0164132D03*
X0308233Y0169132D03*
D17*
X0014333Y0101632D03*
D18*
X0024333Y0101632D03*
X0034333Y0101632D03*
X0034333Y0111632D03*
X0024333Y0111632D03*
X0014333Y0111632D03*
D19*
X0110333Y0078632D03*
D20*
X0110333Y0068632D03*
X0110333Y0058632D03*
D21*
X0051514Y0106427D03*
X0051514Y0230836D03*
X0349152Y0230836D03*
X0349152Y0106427D03*
D22*
X0224349Y0229655D02*
X0224349Y0235954D01*
X0214349Y0235954D02*
X0214349Y0229655D01*
X0204349Y0229655D02*
X0204349Y0235954D01*
X0194349Y0235954D02*
X0194349Y0229655D01*
X0184349Y0229655D02*
X0184349Y0235954D01*
X0174349Y0235954D02*
X0174349Y0229655D01*
X0164349Y0229655D02*
X0164349Y0235954D01*
X0154349Y0235954D02*
X0154349Y0229655D01*
X0144349Y0229655D02*
X0144349Y0235954D01*
X0134349Y0235954D02*
X0134349Y0229655D01*
X0124349Y0229655D02*
X0124349Y0235954D01*
X0114349Y0235954D02*
X0114349Y0229655D01*
X0104349Y0229655D02*
X0104349Y0235954D01*
X0094349Y0235954D02*
X0094349Y0229655D01*
X0084349Y0229655D02*
X0084349Y0235954D01*
X0074349Y0235954D02*
X0074349Y0229655D01*
D23*
X0165593Y0209301D03*
X0173073Y0209301D03*
X0169333Y0217962D03*
D24*
X0065680Y0181632D03*
X0058987Y0181632D03*
X0351987Y0078632D03*
X0358680Y0078632D03*
D25*
X0203058Y0178332D03*
X0199908Y0178332D03*
X0196759Y0178332D03*
X0193609Y0178332D03*
X0193609Y0184932D03*
X0196759Y0184932D03*
X0199908Y0184932D03*
X0203058Y0184932D03*
X0314609Y0193332D03*
X0317759Y0193332D03*
X0320908Y0193332D03*
X0324058Y0193332D03*
X0324058Y0199932D03*
X0320908Y0199932D03*
X0317759Y0199932D03*
X0314609Y0199932D03*
D26*
X0062333Y0168582D03*
X0062333Y0155682D03*
D27*
X0385333Y0093632D03*
X0385333Y0063632D03*
D28*
X0368727Y0128710D02*
X0362727Y0128710D01*
X0362727Y0138553D02*
X0368727Y0138553D01*
X0368727Y0168710D02*
X0362727Y0168710D01*
X0362727Y0178553D02*
X0368727Y0178553D01*
X0368727Y0217710D02*
X0362727Y0217710D01*
X0362727Y0227553D02*
X0368727Y0227553D01*
D29*
X0017522Y0181151D03*
X0017522Y0146112D03*
D30*
X0040751Y0146112D03*
X0040751Y0181151D03*
D31*
X0041144Y0169931D03*
X0041144Y0166781D03*
X0041144Y0163632D03*
X0041144Y0160482D03*
X0041144Y0157332D03*
D32*
X0253333Y0219632D03*
X0253333Y0229632D03*
X0253333Y0239632D03*
X0280333Y0239632D03*
X0280333Y0229632D03*
X0280333Y0219632D03*
D33*
X0074239Y0145632D03*
X0062428Y0145632D03*
D34*
X0090333Y0136632D03*
X0100333Y0123632D03*
X0124333Y0142632D03*
X0128333Y0136632D03*
X0132333Y0145632D03*
X0101333Y0163632D03*
X0129333Y0175632D03*
X0132333Y0172632D03*
X0136333Y0175632D03*
X0158908Y0190206D03*
X0178333Y0202132D03*
X0185333Y0209632D03*
X0214333Y0202132D03*
X0185333Y0180632D03*
X0195601Y0170364D03*
X0185333Y0166632D03*
X0189333Y0162632D03*
X0185333Y0158632D03*
X0197333Y0152632D03*
X0237333Y0172132D03*
X0237333Y0177132D03*
X0273333Y0177132D03*
X0291333Y0185632D03*
X0252333Y0208132D03*
X0304333Y0224632D03*
X0326333Y0224632D03*
X0348333Y0206632D03*
X0385333Y0222632D03*
X0348333Y0185632D03*
X0261333Y0143632D03*
X0216333Y0120632D03*
X0189333Y0120632D03*
X0189333Y0104632D03*
X0174333Y0104632D03*
X0144333Y0120632D03*
X0135333Y0090632D03*
X0222333Y0096932D03*
X0279333Y0104632D03*
X0329333Y0105632D03*
X0348333Y0124632D03*
X0369333Y0058632D03*
X0123333Y0192632D03*
X0096333Y0215632D03*
X0066333Y0214632D03*
X0060333Y0212632D03*
X0060333Y0206632D03*
X0036333Y0199632D03*
X0029333Y0184632D03*
X0064333Y0225632D03*
X0031333Y0228632D03*
M02*
