G75*
%MOIN*%
%OFA0B0*%
%FSLAX25Y25*%
%IPPOS*%
%LPD*%
%AMOC8*
5,1,8,0,0,1.08239X$1,22.5*
%
%ADD10R,0.09843X0.13780*%
%ADD11R,0.05906X0.05118*%
%ADD12R,0.09449X0.09449*%
%ADD13R,0.04331X0.03937*%
%ADD14R,0.03937X0.04331*%
%ADD15R,0.07087X0.09449*%
%ADD16C,0.10000*%
%ADD17R,0.24409X0.21260*%
%ADD18R,0.06299X0.03937*%
%ADD19R,0.01969X0.05906*%
%ADD20R,0.05906X0.01969*%
%ADD21OC8,0.07000*%
%ADD22C,0.07000*%
%ADD23OC8,0.06299*%
%ADD24C,0.06299*%
%ADD25C,0.16598*%
%ADD26C,0.06299*%
%ADD27R,0.05906X0.05906*%
%ADD28R,0.02362X0.07874*%
%ADD29R,0.02000X0.03200*%
%ADD30R,0.03600X0.04800*%
%ADD31OC8,0.10000*%
%ADD32C,0.06000*%
%ADD33R,0.09449X0.04724*%
%ADD34R,0.04724X0.09449*%
%ADD35C,0.04400*%
%ADD36C,0.01600*%
%ADD37C,0.04000*%
%ADD38C,0.03100*%
%ADD39C,0.01000*%
%ADD40C,0.01200*%
%ADD41C,0.02400*%
D10*
X0085333Y0060836D03*
X0085333Y0086427D03*
D11*
X0070333Y0124891D03*
X0070333Y0132372D03*
X0085333Y0183891D03*
X0085333Y0191372D03*
D12*
X0070333Y0197474D03*
X0070333Y0177789D03*
X0070333Y0162474D03*
X0070333Y0142789D03*
D13*
X0153987Y0127632D03*
X0160680Y0127632D03*
X0189333Y0134285D03*
X0196333Y0134285D03*
X0196333Y0140978D03*
X0189333Y0140978D03*
D14*
X0197333Y0158285D03*
X0197333Y0164978D03*
X0160680Y0120632D03*
X0153987Y0120632D03*
X0046680Y0191632D03*
X0039987Y0191632D03*
X0039987Y0206632D03*
X0046680Y0206632D03*
X0046680Y0212632D03*
X0039987Y0212632D03*
X0039987Y0218632D03*
X0046680Y0218632D03*
D15*
X0068361Y0107632D03*
X0084306Y0107632D03*
D16*
X0057144Y0075632D02*
X0057144Y0065632D01*
X0050333Y0051734D02*
X0040333Y0051734D01*
X0033522Y0065632D02*
X0033522Y0075632D01*
D17*
X0025491Y0133632D03*
X0025491Y0168632D03*
D18*
X0054231Y0177608D03*
X0054231Y0159655D03*
X0054231Y0142608D03*
X0054231Y0124655D03*
D19*
X0146310Y0136899D03*
X0149459Y0136899D03*
X0152609Y0136899D03*
X0155759Y0136899D03*
X0158908Y0136899D03*
X0162058Y0136899D03*
X0165207Y0136899D03*
X0168357Y0136899D03*
X0168357Y0170364D03*
X0165207Y0170364D03*
X0162058Y0170364D03*
X0158908Y0170364D03*
X0155759Y0170364D03*
X0152609Y0170364D03*
X0149459Y0170364D03*
X0146310Y0170364D03*
D20*
X0140601Y0164655D03*
X0140601Y0161506D03*
X0140601Y0158356D03*
X0140601Y0155206D03*
X0140601Y0152057D03*
X0140601Y0148907D03*
X0140601Y0145758D03*
X0140601Y0142608D03*
X0174066Y0142608D03*
X0174066Y0145758D03*
X0174066Y0148907D03*
X0174066Y0152057D03*
X0174066Y0155206D03*
X0174066Y0158356D03*
X0174066Y0161506D03*
X0174066Y0164655D03*
D21*
X0014333Y0101632D03*
D22*
X0024333Y0101632D03*
X0034333Y0101632D03*
X0034333Y0111632D03*
X0024333Y0111632D03*
X0014333Y0111632D03*
D23*
X0110333Y0078632D03*
D24*
X0110333Y0068632D03*
X0110333Y0058632D03*
D25*
X0051514Y0106427D03*
X0051514Y0230836D03*
X0349152Y0230836D03*
X0349152Y0106427D03*
D26*
X0224349Y0229655D02*
X0224349Y0235954D01*
X0214349Y0235954D02*
X0214349Y0229655D01*
X0204349Y0229655D02*
X0204349Y0235954D01*
X0194349Y0235954D02*
X0194349Y0229655D01*
X0184349Y0229655D02*
X0184349Y0235954D01*
X0174349Y0235954D02*
X0174349Y0229655D01*
X0164349Y0229655D02*
X0164349Y0235954D01*
X0154349Y0235954D02*
X0154349Y0229655D01*
X0144349Y0229655D02*
X0144349Y0235954D01*
X0134349Y0235954D02*
X0134349Y0229655D01*
X0124349Y0229655D02*
X0124349Y0235954D01*
X0114349Y0235954D02*
X0114349Y0229655D01*
X0104349Y0229655D02*
X0104349Y0235954D01*
X0094349Y0235954D02*
X0094349Y0229655D01*
X0084349Y0229655D02*
X0084349Y0235954D01*
X0074349Y0235954D02*
X0074349Y0229655D01*
D27*
X0031223Y0236632D03*
X0017444Y0236632D03*
X0017444Y0221632D03*
X0031223Y0221632D03*
X0031223Y0206632D03*
X0017444Y0206632D03*
X0017444Y0191632D03*
X0031223Y0191632D03*
D28*
X0143109Y0182632D03*
X0147833Y0182632D03*
X0152558Y0182632D03*
D29*
X0245609Y0096932D03*
X0248759Y0096932D03*
X0251908Y0096932D03*
X0255058Y0096932D03*
X0255058Y0090332D03*
X0251908Y0090332D03*
X0248759Y0090332D03*
X0245609Y0090332D03*
D30*
X0054333Y0189182D03*
X0054333Y0202082D03*
D31*
X0385333Y0093632D03*
X0385333Y0063632D03*
D32*
X0368727Y0128710D02*
X0362727Y0128710D01*
X0362727Y0138553D02*
X0368727Y0138553D01*
X0368727Y0168710D02*
X0362727Y0168710D01*
X0362727Y0178553D02*
X0368727Y0178553D01*
X0368727Y0217710D02*
X0362727Y0217710D01*
X0362727Y0227553D02*
X0368727Y0227553D01*
D33*
X0341509Y0077632D03*
X0341509Y0059632D03*
X0309158Y0059632D03*
X0291509Y0059632D03*
X0291509Y0077632D03*
X0309158Y0077632D03*
X0259158Y0077632D03*
X0241509Y0077632D03*
X0241509Y0059632D03*
X0259158Y0059632D03*
X0209158Y0059632D03*
X0191509Y0059632D03*
X0191509Y0077632D03*
X0209158Y0077632D03*
X0159158Y0077632D03*
X0159158Y0059632D03*
D34*
X0135845Y0056521D03*
X0124822Y0056521D03*
X0124822Y0080743D03*
X0135845Y0080743D03*
D35*
X0253333Y0219632D03*
X0253333Y0229632D03*
X0253333Y0239632D03*
X0280333Y0239632D03*
X0280333Y0229632D03*
X0280333Y0219632D03*
D36*
X0253333Y0219632D01*
X0158908Y0190206D02*
X0158908Y0170364D01*
X0147833Y0182632D02*
X0147833Y0191132D01*
X0141491Y0197474D01*
X0070333Y0197474D01*
X0046522Y0197474D01*
X0046680Y0191632D01*
X0046680Y0169285D01*
X0047333Y0168632D01*
X0064176Y0168632D01*
X0070333Y0162474D01*
X0070491Y0162632D02*
X0078333Y0162632D01*
X0081333Y0159632D01*
X0081333Y0136632D01*
X0090333Y0136632D01*
X0081333Y0136632D02*
X0081333Y0135632D01*
X0078073Y0132372D01*
X0070333Y0132372D01*
X0100333Y0123632D02*
X0141333Y0123632D01*
X0144333Y0120632D01*
X0153987Y0120632D01*
X0189333Y0134285D02*
X0196333Y0134285D01*
X0222333Y0096932D02*
X0245609Y0096932D01*
X0241509Y0059632D02*
X0259158Y0059632D01*
X0291509Y0059632D02*
X0309158Y0059632D01*
X0209158Y0059632D02*
X0191509Y0059632D01*
X0159158Y0059632D02*
X0159158Y0063632D01*
X0124333Y0063632D01*
X0124333Y0056632D01*
X0124822Y0056632D01*
X0124822Y0056521D01*
X0124333Y0056632D02*
X0118333Y0056632D01*
X0118333Y0051632D01*
X0085333Y0051632D01*
X0085333Y0060836D01*
X0085333Y0051734D01*
X0045333Y0051734D01*
X0041333Y0070632D02*
X0033522Y0070632D01*
X0041333Y0070632D02*
X0041333Y0111632D01*
X0034333Y0111632D01*
X0025491Y0120474D01*
X0025491Y0133632D01*
X0025491Y0168632D01*
X0025491Y0184632D01*
X0029333Y0184632D01*
X0031223Y0191632D02*
X0039987Y0191632D01*
X0039987Y0206632D02*
X0031223Y0206632D01*
X0037333Y0212632D02*
X0039987Y0212632D01*
X0037333Y0212632D02*
X0031223Y0218742D01*
X0031223Y0221632D01*
X0039987Y0218632D02*
X0039987Y0227868D01*
X0031223Y0236632D01*
X0017444Y0236632D02*
X0011333Y0236632D01*
X0011333Y0168632D01*
X0025491Y0168632D01*
X0047333Y0168632D01*
X0064333Y0225632D02*
X0064333Y0227632D01*
X0066357Y0229655D01*
X0074349Y0229655D01*
X0158759Y0190206D02*
X0158908Y0190206D01*
D37*
X0085333Y0191372D02*
X0079231Y0197474D01*
X0070333Y0197474D01*
X0054333Y0189182D02*
X0054333Y0177710D01*
X0054231Y0177608D01*
X0070152Y0177608D01*
X0070333Y0177789D01*
X0071491Y0177789D01*
X0072333Y0178632D01*
X0080073Y0178632D01*
X0085333Y0183891D01*
X0070491Y0162632D02*
X0070333Y0162474D01*
X0054231Y0159655D02*
X0054231Y0142608D01*
X0044333Y0132710D01*
X0044333Y0121632D01*
X0048333Y0117632D01*
X0072333Y0117632D01*
X0076333Y0113632D01*
X0076333Y0076632D01*
X0080333Y0072632D01*
X0096333Y0072632D01*
X0110333Y0058632D01*
X0110333Y0078632D02*
X0102538Y0086427D01*
X0087333Y0086427D01*
X0084306Y0089454D01*
X0084306Y0107632D01*
X0084333Y0108659D01*
X0084333Y0114632D01*
X0074073Y0124891D01*
X0070333Y0124891D01*
X0070097Y0124655D01*
X0054231Y0124655D01*
X0068361Y0107632D02*
X0068361Y0081848D01*
X0057144Y0070632D01*
X0085333Y0086427D02*
X0087333Y0086427D01*
X0070152Y0142608D02*
X0054231Y0142608D01*
X0070152Y0142608D02*
X0070333Y0142789D01*
D38*
X0090333Y0136632D03*
X0100333Y0123632D03*
X0124333Y0142632D03*
X0128333Y0136632D03*
X0132333Y0145632D03*
X0101333Y0163632D03*
X0129333Y0175632D03*
X0132333Y0172632D03*
X0136333Y0175632D03*
X0158908Y0190206D03*
X0178333Y0202132D03*
X0185333Y0209632D03*
X0214333Y0202132D03*
X0185333Y0180632D03*
X0195601Y0170364D03*
X0185333Y0166632D03*
X0189333Y0162632D03*
X0185333Y0158632D03*
X0197333Y0152632D03*
X0237333Y0172132D03*
X0237333Y0177132D03*
X0273333Y0177132D03*
X0291333Y0185632D03*
X0252333Y0208132D03*
X0304333Y0224632D03*
X0326333Y0224632D03*
X0348333Y0206632D03*
X0385333Y0222632D03*
X0348333Y0185632D03*
X0261333Y0143632D03*
X0216333Y0120632D03*
X0189333Y0120632D03*
X0189333Y0104632D03*
X0174333Y0104632D03*
X0144333Y0120632D03*
X0135333Y0090632D03*
X0222333Y0096932D03*
X0279333Y0104632D03*
X0329333Y0105632D03*
X0348333Y0124632D03*
X0369333Y0058632D03*
X0123333Y0192632D03*
X0096333Y0215632D03*
X0066333Y0214632D03*
X0060333Y0212632D03*
X0060333Y0206632D03*
X0036333Y0199632D03*
X0029333Y0184632D03*
X0064333Y0225632D03*
X0031333Y0228632D03*
D39*
X0012540Y0048736D02*
X0015116Y0047249D01*
X0017988Y0046479D01*
X0019475Y0046382D01*
X0036631Y0046382D01*
X0036038Y0046836D01*
X0035436Y0047439D01*
X0034917Y0048115D01*
X0034491Y0048853D01*
X0034165Y0049640D01*
X0033945Y0050463D01*
X0033833Y0051308D01*
X0033833Y0051434D01*
X0035722Y0051434D01*
X0035722Y0052034D01*
X0033833Y0052034D01*
X0033833Y0052160D01*
X0033945Y0053005D01*
X0034165Y0053828D01*
X0034491Y0054615D01*
X0034917Y0055353D01*
X0035436Y0056029D01*
X0036038Y0056631D01*
X0036714Y0057150D01*
X0037452Y0057576D01*
X0038239Y0057902D01*
X0039063Y0058123D01*
X0039907Y0058234D01*
X0045033Y0058234D01*
X0045033Y0055834D01*
X0045633Y0055834D01*
X0045633Y0058234D01*
X0050759Y0058234D01*
X0051604Y0058123D01*
X0052427Y0057902D01*
X0053214Y0057576D01*
X0053952Y0057150D01*
X0054628Y0056631D01*
X0055231Y0056029D01*
X0055749Y0055353D01*
X0056176Y0054615D01*
X0056502Y0053828D01*
X0056722Y0053005D01*
X0056833Y0052160D01*
X0056833Y0052034D01*
X0054945Y0052034D01*
X0054945Y0051434D01*
X0056833Y0051434D01*
X0056833Y0051308D01*
X0056722Y0050463D01*
X0056502Y0049640D01*
X0056176Y0048853D01*
X0055749Y0048115D01*
X0055231Y0047439D01*
X0054628Y0046836D01*
X0054035Y0046382D01*
X0388371Y0046382D01*
X0389609Y0046479D01*
X0391964Y0047244D01*
X0393966Y0048699D01*
X0395422Y0050702D01*
X0396187Y0053057D01*
X0396284Y0054294D01*
X0396284Y0242709D01*
X0396221Y0243512D01*
X0395725Y0245039D01*
X0394781Y0246339D01*
X0393481Y0247283D01*
X0391954Y0247779D01*
X0391151Y0247842D01*
X0017517Y0247842D01*
X0016286Y0247762D01*
X0013907Y0247124D01*
X0011774Y0245893D01*
X0010033Y0244151D01*
X0008801Y0242018D01*
X0008164Y0239640D01*
X0008083Y0238408D01*
X0008083Y0057774D01*
X0008181Y0056287D01*
X0008950Y0053414D01*
X0010437Y0050839D01*
X0012540Y0048736D01*
X0012734Y0048624D02*
X0034623Y0048624D01*
X0034172Y0049623D02*
X0011653Y0049623D01*
X0010655Y0050621D02*
X0033924Y0050621D01*
X0033894Y0052618D02*
X0009410Y0052618D01*
X0008896Y0053617D02*
X0034109Y0053617D01*
X0034491Y0054615D02*
X0008629Y0054615D01*
X0008361Y0055614D02*
X0035117Y0055614D01*
X0036019Y0056612D02*
X0008159Y0056612D01*
X0008094Y0057611D02*
X0037536Y0057611D01*
X0036403Y0059789D02*
X0037141Y0060215D01*
X0037817Y0060734D01*
X0038420Y0061337D01*
X0038938Y0062013D01*
X0039364Y0062751D01*
X0039691Y0063538D01*
X0039911Y0064361D01*
X0040022Y0065206D01*
X0040022Y0070332D01*
X0037622Y0070332D01*
X0037622Y0070932D01*
X0040022Y0070932D01*
X0040022Y0076058D01*
X0039911Y0076902D01*
X0039691Y0077725D01*
X0039364Y0078513D01*
X0038938Y0079251D01*
X0038420Y0079927D01*
X0037817Y0080529D01*
X0037141Y0081048D01*
X0036403Y0081474D01*
X0035616Y0081800D01*
X0034793Y0082020D01*
X0033948Y0082132D01*
X0033822Y0082132D01*
X0033822Y0080243D01*
X0033222Y0080243D01*
X0033222Y0082132D01*
X0033096Y0082132D01*
X0032251Y0082020D01*
X0031428Y0081800D01*
X0030641Y0081474D01*
X0029903Y0081048D01*
X0029227Y0080529D01*
X0028625Y0079927D01*
X0028106Y0079251D01*
X0027680Y0078513D01*
X0027354Y0077725D01*
X0027134Y0076902D01*
X0027022Y0076058D01*
X0027022Y0070932D01*
X0029422Y0070932D01*
X0029422Y0070332D01*
X0027022Y0070332D01*
X0027022Y0065206D01*
X0027134Y0064361D01*
X0027354Y0063538D01*
X0027680Y0062751D01*
X0028106Y0062013D01*
X0028625Y0061337D01*
X0029227Y0060734D01*
X0029903Y0060215D01*
X0030641Y0059789D01*
X0031428Y0059463D01*
X0032251Y0059243D01*
X0033096Y0059132D01*
X0033222Y0059132D01*
X0033222Y0061020D01*
X0033822Y0061020D01*
X0033822Y0059132D01*
X0033948Y0059132D01*
X0034793Y0059243D01*
X0035616Y0059463D01*
X0036403Y0059789D01*
X0035965Y0059608D02*
X0054702Y0059608D01*
X0055851Y0059132D02*
X0058437Y0059132D01*
X0060826Y0060121D01*
X0062655Y0061950D01*
X0063644Y0064339D01*
X0063644Y0072182D01*
X0071328Y0079866D01*
X0071861Y0081152D01*
X0071861Y0101407D01*
X0072526Y0101407D01*
X0072833Y0101715D01*
X0072833Y0075935D01*
X0073366Y0074649D01*
X0074351Y0073664D01*
X0078351Y0069664D01*
X0079637Y0069132D01*
X0079862Y0069132D01*
X0079833Y0069124D01*
X0079491Y0068926D01*
X0079212Y0068647D01*
X0079014Y0068305D01*
X0078912Y0067924D01*
X0078912Y0061336D01*
X0084833Y0061336D01*
X0084833Y0060336D01*
X0078912Y0060336D01*
X0078912Y0053749D01*
X0079014Y0053368D01*
X0079212Y0053026D01*
X0079491Y0052746D01*
X0079833Y0052549D01*
X0080215Y0052447D01*
X0084833Y0052447D01*
X0084833Y0060336D01*
X0085833Y0060336D01*
X0085833Y0052447D01*
X0090452Y0052447D01*
X0090834Y0052549D01*
X0091176Y0052746D01*
X0091455Y0053026D01*
X0091652Y0053368D01*
X0091755Y0053749D01*
X0091755Y0060336D01*
X0085833Y0060336D01*
X0085833Y0061336D01*
X0091755Y0061336D01*
X0091755Y0067924D01*
X0091652Y0068305D01*
X0091455Y0068647D01*
X0091176Y0068926D01*
X0090834Y0069124D01*
X0090805Y0069132D01*
X0094884Y0069132D01*
X0105684Y0058331D01*
X0105684Y0057707D01*
X0106392Y0055998D01*
X0107700Y0054690D01*
X0109408Y0053982D01*
X0111258Y0053982D01*
X0112967Y0054690D01*
X0114275Y0055998D01*
X0114983Y0057707D01*
X0114983Y0059556D01*
X0114275Y0061265D01*
X0112967Y0062573D01*
X0111258Y0063281D01*
X0110633Y0063281D01*
X0109933Y0063982D01*
X0111258Y0063982D01*
X0112967Y0064690D01*
X0114209Y0065932D01*
X0345870Y0065932D01*
X0346863Y0066343D01*
X0380863Y0100343D01*
X0381622Y0101102D01*
X0382033Y0102095D01*
X0382033Y0173169D01*
X0381622Y0174161D01*
X0380863Y0174921D01*
X0374941Y0180842D01*
X0373949Y0181253D01*
X0372391Y0181253D01*
X0371276Y0182368D01*
X0369622Y0183053D01*
X0361832Y0183053D01*
X0360178Y0182368D01*
X0358912Y0181102D01*
X0358227Y0179448D01*
X0358227Y0177658D01*
X0358912Y0176004D01*
X0360178Y0174738D01*
X0361832Y0174053D01*
X0369622Y0174053D01*
X0371276Y0174738D01*
X0372342Y0175804D01*
X0376633Y0171513D01*
X0376633Y0139150D01*
X0375622Y0140161D01*
X0374863Y0140921D01*
X0373870Y0141332D01*
X0372312Y0141332D01*
X0371276Y0142368D01*
X0369622Y0143053D01*
X0361832Y0143053D01*
X0360178Y0142368D01*
X0358912Y0141102D01*
X0358227Y0139448D01*
X0358227Y0137658D01*
X0358912Y0136004D01*
X0360178Y0134738D01*
X0361832Y0134053D01*
X0369622Y0134053D01*
X0371276Y0134738D01*
X0372342Y0135804D01*
X0376633Y0131513D01*
X0376633Y0103750D01*
X0347733Y0074850D01*
X0347733Y0080615D01*
X0346855Y0081494D01*
X0336163Y0081494D01*
X0335285Y0080615D01*
X0335285Y0074648D01*
X0336163Y0073769D01*
X0346653Y0073769D01*
X0344215Y0071332D01*
X0202862Y0071332D01*
X0203333Y0071803D01*
X0205300Y0073769D01*
X0214503Y0073769D01*
X0215382Y0074648D01*
X0215382Y0080615D01*
X0214503Y0081494D01*
X0203812Y0081494D01*
X0202933Y0080615D01*
X0202933Y0077060D01*
X0200505Y0074632D01*
X0197717Y0074632D01*
X0197733Y0074648D01*
X0197733Y0080615D01*
X0197527Y0080821D01*
X0205037Y0088332D01*
X0243109Y0088332D01*
X0243109Y0088110D01*
X0243988Y0087232D01*
X0246759Y0087232D01*
X0246759Y0085710D01*
X0242543Y0081494D01*
X0236163Y0081494D01*
X0235285Y0080615D01*
X0235285Y0074648D01*
X0236163Y0073769D01*
X0246855Y0073769D01*
X0247733Y0074648D01*
X0247733Y0080615D01*
X0247527Y0080821D01*
X0250333Y0083628D01*
X0253140Y0080821D01*
X0252933Y0080615D01*
X0252933Y0074648D01*
X0253812Y0073769D01*
X0264503Y0073769D01*
X0265382Y0074648D01*
X0265382Y0080615D01*
X0264503Y0081494D01*
X0258124Y0081494D01*
X0253908Y0085710D01*
X0253908Y0087232D01*
X0256679Y0087232D01*
X0257558Y0088110D01*
X0257558Y0088332D01*
X0295629Y0088332D01*
X0303140Y0080821D01*
X0302933Y0080615D01*
X0302933Y0074648D01*
X0303812Y0073769D01*
X0314503Y0073769D01*
X0315382Y0074648D01*
X0315382Y0080615D01*
X0314503Y0081494D01*
X0308124Y0081494D01*
X0297286Y0092332D01*
X0261333Y0092332D01*
X0261333Y0099460D01*
X0260162Y0100632D01*
X0257162Y0103632D01*
X0201162Y0103632D01*
X0186333Y0118460D01*
X0186333Y0119904D01*
X0186748Y0118904D01*
X0187606Y0118046D01*
X0188727Y0117582D01*
X0189940Y0117582D01*
X0191061Y0118046D01*
X0191919Y0118904D01*
X0192383Y0120025D01*
X0192383Y0121238D01*
X0191919Y0122359D01*
X0191433Y0122845D01*
X0191433Y0130817D01*
X0192120Y0130817D01*
X0192833Y0131530D01*
X0193547Y0130817D01*
X0199120Y0130817D01*
X0199999Y0131695D01*
X0199999Y0135632D01*
X0200162Y0135632D01*
X0201333Y0136803D01*
X0234662Y0170132D01*
X0235020Y0170132D01*
X0235606Y0169546D01*
X0236727Y0169082D01*
X0237940Y0169082D01*
X0239061Y0169546D01*
X0239919Y0170404D01*
X0240383Y0171525D01*
X0240383Y0172738D01*
X0239919Y0173859D01*
X0239147Y0174632D01*
X0239919Y0175404D01*
X0240383Y0176525D01*
X0240383Y0177738D01*
X0239919Y0178859D01*
X0239061Y0179717D01*
X0237940Y0180182D01*
X0236727Y0180182D01*
X0235606Y0179717D01*
X0235020Y0179132D01*
X0232005Y0179132D01*
X0230833Y0177960D01*
X0197320Y0144447D01*
X0195693Y0144447D01*
X0186933Y0153206D01*
X0188737Y0153206D01*
X0191815Y0156285D01*
X0193865Y0156285D01*
X0193865Y0155498D01*
X0194743Y0154620D01*
X0195008Y0154620D01*
X0194748Y0154359D01*
X0194283Y0153238D01*
X0194283Y0152025D01*
X0194748Y0150904D01*
X0195606Y0150046D01*
X0196727Y0149582D01*
X0197940Y0149582D01*
X0199061Y0150046D01*
X0199919Y0150904D01*
X0200383Y0152025D01*
X0200383Y0153238D01*
X0199919Y0154359D01*
X0199658Y0154620D01*
X0199923Y0154620D01*
X0200802Y0155498D01*
X0200802Y0161072D01*
X0200242Y0161632D01*
X0200802Y0162191D01*
X0200802Y0167765D01*
X0199923Y0168643D01*
X0198190Y0168643D01*
X0198651Y0169757D01*
X0198651Y0170971D01*
X0198187Y0172092D01*
X0197329Y0172950D01*
X0196208Y0173414D01*
X0194994Y0173414D01*
X0193873Y0172950D01*
X0193288Y0172364D01*
X0170841Y0172364D01*
X0170841Y0173938D01*
X0169963Y0174817D01*
X0163602Y0174817D01*
X0163525Y0174740D01*
X0163239Y0174817D01*
X0162058Y0174817D01*
X0162058Y0170364D01*
X0162058Y0170364D01*
X0162058Y0152356D01*
X0158908Y0149206D01*
X0158908Y0136899D01*
X0158908Y0136899D01*
X0158908Y0132447D01*
X0157726Y0132447D01*
X0157441Y0132523D01*
X0157364Y0132447D01*
X0152000Y0132447D01*
X0153347Y0131100D01*
X0156774Y0131100D01*
X0157333Y0130540D01*
X0157593Y0130800D01*
X0157935Y0130998D01*
X0158317Y0131100D01*
X0160196Y0131100D01*
X0160196Y0128116D01*
X0161164Y0128116D01*
X0161164Y0131100D01*
X0163043Y0131100D01*
X0163207Y0131056D01*
X0163207Y0132447D01*
X0160452Y0132447D01*
X0160376Y0132523D01*
X0160090Y0132447D01*
X0158908Y0132447D01*
X0158908Y0136899D01*
X0158908Y0129403D01*
X0158908Y0125206D01*
X0157333Y0123632D01*
X0157333Y0116632D01*
X0135333Y0094632D01*
X0131333Y0094632D01*
X0124822Y0088120D01*
X0124822Y0080743D01*
X0125322Y0080577D02*
X0131983Y0080577D01*
X0131983Y0081575D02*
X0128684Y0081575D01*
X0128684Y0081243D02*
X0125322Y0081243D01*
X0125322Y0080243D01*
X0128684Y0080243D01*
X0128684Y0075821D01*
X0128581Y0075439D01*
X0128384Y0075097D01*
X0128105Y0074818D01*
X0127763Y0074620D01*
X0127381Y0074518D01*
X0125321Y0074518D01*
X0125321Y0080243D01*
X0124322Y0080243D01*
X0124322Y0074518D01*
X0122262Y0074518D01*
X0121880Y0074620D01*
X0121538Y0074818D01*
X0121259Y0075097D01*
X0121062Y0075439D01*
X0120959Y0075821D01*
X0120959Y0080243D01*
X0124321Y0080243D01*
X0124321Y0081243D01*
X0120959Y0081243D01*
X0120959Y0085664D01*
X0121062Y0086046D01*
X0121259Y0086388D01*
X0121538Y0086667D01*
X0121880Y0086865D01*
X0122262Y0086967D01*
X0124322Y0086967D01*
X0124322Y0081243D01*
X0125321Y0081243D01*
X0125321Y0086967D01*
X0127381Y0086967D01*
X0127763Y0086865D01*
X0128105Y0086667D01*
X0128384Y0086388D01*
X0128581Y0086046D01*
X0128684Y0085664D01*
X0128684Y0081243D01*
X0128684Y0082574D02*
X0131983Y0082574D01*
X0131983Y0083572D02*
X0128684Y0083572D01*
X0128684Y0084571D02*
X0131983Y0084571D01*
X0131983Y0085569D02*
X0128684Y0085569D01*
X0128204Y0086568D02*
X0132462Y0086568D01*
X0132862Y0086967D02*
X0131983Y0086088D01*
X0131983Y0075397D01*
X0132862Y0074518D01*
X0138829Y0074518D01*
X0139707Y0075397D01*
X0139707Y0086088D01*
X0138829Y0086967D01*
X0137333Y0086967D01*
X0137333Y0088318D01*
X0137919Y0088904D01*
X0138383Y0090025D01*
X0138383Y0090853D01*
X0162680Y0115150D01*
X0162680Y0116966D01*
X0163207Y0116966D01*
X0163207Y0084510D01*
X0160192Y0081494D01*
X0153812Y0081494D01*
X0152933Y0080615D01*
X0152933Y0074648D01*
X0153812Y0073769D01*
X0164503Y0073769D01*
X0165382Y0074648D01*
X0165382Y0080615D01*
X0165176Y0080821D01*
X0167207Y0082853D01*
X0167207Y0088929D01*
X0167505Y0088632D01*
X0184805Y0071332D01*
X0114209Y0071332D01*
X0112967Y0072573D01*
X0111258Y0073281D01*
X0109408Y0073281D01*
X0107700Y0072573D01*
X0106392Y0071265D01*
X0105684Y0069556D01*
X0105684Y0068231D01*
X0099300Y0074614D01*
X0098316Y0075599D01*
X0097030Y0076132D01*
X0081783Y0076132D01*
X0079878Y0078037D01*
X0090876Y0078037D01*
X0091755Y0078916D01*
X0091755Y0082927D01*
X0101088Y0082927D01*
X0105684Y0078331D01*
X0105684Y0076706D01*
X0108407Y0073982D01*
X0112259Y0073982D01*
X0114983Y0076706D01*
X0114983Y0080558D01*
X0112259Y0083281D01*
X0110633Y0083281D01*
X0104521Y0089394D01*
X0103234Y0089927D01*
X0091755Y0089927D01*
X0091755Y0093938D01*
X0090876Y0094817D01*
X0087806Y0094817D01*
X0087806Y0101407D01*
X0088470Y0101407D01*
X0089349Y0102286D01*
X0089349Y0112977D01*
X0088470Y0113856D01*
X0087833Y0113856D01*
X0087833Y0115328D01*
X0087300Y0116614D01*
X0076056Y0127859D01*
X0074770Y0128391D01*
X0074466Y0128391D01*
X0074226Y0128632D01*
X0074486Y0128892D01*
X0074684Y0129234D01*
X0074786Y0129615D01*
X0074786Y0131872D01*
X0070833Y0131872D01*
X0070833Y0132872D01*
X0069833Y0132872D01*
X0069833Y0131872D01*
X0065881Y0131872D01*
X0065881Y0129615D01*
X0065983Y0129234D01*
X0066180Y0128892D01*
X0066440Y0128632D01*
X0065964Y0128155D01*
X0053535Y0128155D01*
X0053459Y0128124D01*
X0050460Y0128124D01*
X0049581Y0127245D01*
X0049581Y0122065D01*
X0050460Y0121187D01*
X0053459Y0121187D01*
X0053535Y0121155D01*
X0066436Y0121155D01*
X0066460Y0121132D01*
X0049783Y0121132D01*
X0047833Y0123081D01*
X0047833Y0131261D01*
X0055681Y0139108D01*
X0064109Y0139108D01*
X0064109Y0137443D01*
X0064988Y0136565D01*
X0075679Y0136565D01*
X0076558Y0137443D01*
X0076558Y0148135D01*
X0075679Y0149013D01*
X0064988Y0149013D01*
X0064109Y0148135D01*
X0064109Y0146108D01*
X0057731Y0146108D01*
X0057731Y0156187D01*
X0058002Y0156187D01*
X0058881Y0157065D01*
X0058881Y0162245D01*
X0058002Y0163124D01*
X0055003Y0163124D01*
X0054927Y0163155D01*
X0053535Y0163155D01*
X0053459Y0163124D01*
X0050460Y0163124D01*
X0049581Y0162245D01*
X0049581Y0157065D01*
X0050460Y0156187D01*
X0050731Y0156187D01*
X0050731Y0146076D01*
X0050460Y0146076D01*
X0049581Y0145198D01*
X0049581Y0142908D01*
X0041366Y0134693D01*
X0040833Y0133407D01*
X0040833Y0120935D01*
X0041366Y0119649D01*
X0042351Y0118664D01*
X0046188Y0114827D01*
X0045964Y0114734D01*
X0043207Y0111978D01*
X0041715Y0108376D01*
X0041715Y0104478D01*
X0043207Y0100876D01*
X0045964Y0098119D01*
X0049565Y0096628D01*
X0053464Y0096628D01*
X0057065Y0098119D01*
X0059822Y0100876D01*
X0061314Y0104478D01*
X0061314Y0108376D01*
X0059822Y0111978D01*
X0057668Y0114132D01*
X0070884Y0114132D01*
X0071159Y0113856D01*
X0064196Y0113856D01*
X0063318Y0112977D01*
X0063318Y0102286D01*
X0064196Y0101407D01*
X0064861Y0101407D01*
X0064861Y0083298D01*
X0061766Y0080203D01*
X0060826Y0081142D01*
X0058437Y0082132D01*
X0055851Y0082132D01*
X0053462Y0081142D01*
X0051634Y0079314D01*
X0050644Y0076925D01*
X0050644Y0064339D01*
X0051634Y0061950D01*
X0053462Y0060121D01*
X0055851Y0059132D01*
X0054647Y0056612D02*
X0078912Y0056612D01*
X0078912Y0055614D02*
X0055549Y0055614D01*
X0056175Y0054615D02*
X0078912Y0054615D01*
X0078948Y0053617D02*
X0056558Y0053617D01*
X0056773Y0052618D02*
X0079713Y0052618D01*
X0084833Y0052618D02*
X0085833Y0052618D01*
X0085833Y0053617D02*
X0084833Y0053617D01*
X0084833Y0054615D02*
X0085833Y0054615D01*
X0085833Y0055614D02*
X0084833Y0055614D01*
X0084833Y0056612D02*
X0085833Y0056612D01*
X0085833Y0057611D02*
X0084833Y0057611D01*
X0084833Y0058609D02*
X0085833Y0058609D01*
X0085833Y0059608D02*
X0084833Y0059608D01*
X0084833Y0060606D02*
X0061311Y0060606D01*
X0062310Y0061605D02*
X0078912Y0061605D01*
X0078912Y0062603D02*
X0062926Y0062603D01*
X0063339Y0063602D02*
X0078912Y0063602D01*
X0078912Y0064600D02*
X0063644Y0064600D01*
X0063644Y0065599D02*
X0078912Y0065599D01*
X0078912Y0066597D02*
X0063644Y0066597D01*
X0063644Y0067596D02*
X0078912Y0067596D01*
X0079181Y0068594D02*
X0063644Y0068594D01*
X0063644Y0069593D02*
X0078523Y0069593D01*
X0077424Y0070591D02*
X0063644Y0070591D01*
X0063644Y0071590D02*
X0076425Y0071590D01*
X0075427Y0072588D02*
X0064051Y0072588D01*
X0065049Y0073587D02*
X0074428Y0073587D01*
X0073430Y0074585D02*
X0066048Y0074585D01*
X0067046Y0075584D02*
X0072979Y0075584D01*
X0072833Y0076582D02*
X0068045Y0076582D01*
X0069043Y0077581D02*
X0072833Y0077581D01*
X0072833Y0078579D02*
X0070042Y0078579D01*
X0071041Y0079578D02*
X0072833Y0079578D01*
X0072833Y0080577D02*
X0071623Y0080577D01*
X0071861Y0081575D02*
X0072833Y0081575D01*
X0072833Y0082574D02*
X0071861Y0082574D01*
X0071861Y0083572D02*
X0072833Y0083572D01*
X0072833Y0084571D02*
X0071861Y0084571D01*
X0071861Y0085569D02*
X0072833Y0085569D01*
X0072833Y0086568D02*
X0071861Y0086568D01*
X0071861Y0087566D02*
X0072833Y0087566D01*
X0072833Y0088565D02*
X0071861Y0088565D01*
X0071861Y0089563D02*
X0072833Y0089563D01*
X0072833Y0090562D02*
X0071861Y0090562D01*
X0071861Y0091560D02*
X0072833Y0091560D01*
X0072833Y0092559D02*
X0071861Y0092559D01*
X0071861Y0093557D02*
X0072833Y0093557D01*
X0072833Y0094556D02*
X0071861Y0094556D01*
X0071861Y0095554D02*
X0072833Y0095554D01*
X0072833Y0096553D02*
X0071861Y0096553D01*
X0071861Y0097551D02*
X0072833Y0097551D01*
X0072833Y0098550D02*
X0071861Y0098550D01*
X0071861Y0099548D02*
X0072833Y0099548D01*
X0072833Y0100547D02*
X0071861Y0100547D01*
X0072664Y0101545D02*
X0072833Y0101545D01*
X0079833Y0101545D02*
X0080003Y0101545D01*
X0080141Y0101407D02*
X0079833Y0101715D01*
X0079833Y0094817D01*
X0080806Y0094817D01*
X0080806Y0101407D01*
X0080141Y0101407D01*
X0079833Y0100547D02*
X0080806Y0100547D01*
X0080806Y0099548D02*
X0079833Y0099548D01*
X0079833Y0098550D02*
X0080806Y0098550D01*
X0080806Y0097551D02*
X0079833Y0097551D01*
X0079833Y0096553D02*
X0080806Y0096553D01*
X0080806Y0095554D02*
X0079833Y0095554D01*
X0087806Y0095554D02*
X0137427Y0095554D01*
X0136429Y0094556D02*
X0091137Y0094556D01*
X0091755Y0093557D02*
X0134426Y0093557D01*
X0134727Y0093682D02*
X0133606Y0093217D01*
X0132748Y0092359D01*
X0132283Y0091238D01*
X0132283Y0090025D01*
X0132748Y0088904D01*
X0133333Y0088318D01*
X0133333Y0086967D01*
X0132862Y0086967D01*
X0133333Y0087566D02*
X0106349Y0087566D01*
X0107347Y0086568D02*
X0121439Y0086568D01*
X0120959Y0085569D02*
X0108346Y0085569D01*
X0109344Y0084571D02*
X0120959Y0084571D01*
X0120959Y0083572D02*
X0110343Y0083572D01*
X0112967Y0082574D02*
X0120959Y0082574D01*
X0120959Y0081575D02*
X0113965Y0081575D01*
X0114964Y0080577D02*
X0124321Y0080577D01*
X0124322Y0081575D02*
X0125321Y0081575D01*
X0125321Y0082574D02*
X0124322Y0082574D01*
X0124322Y0083572D02*
X0125321Y0083572D01*
X0125321Y0084571D02*
X0124322Y0084571D01*
X0124322Y0085569D02*
X0125321Y0085569D01*
X0125321Y0086568D02*
X0124322Y0086568D01*
X0124322Y0079578D02*
X0125321Y0079578D01*
X0125321Y0078579D02*
X0124322Y0078579D01*
X0124322Y0077581D02*
X0125321Y0077581D01*
X0125321Y0076582D02*
X0124322Y0076582D01*
X0124322Y0075584D02*
X0125321Y0075584D01*
X0125321Y0074585D02*
X0124322Y0074585D01*
X0122011Y0074585D02*
X0112863Y0074585D01*
X0113861Y0075584D02*
X0121023Y0075584D01*
X0120959Y0076582D02*
X0114860Y0076582D01*
X0114983Y0077581D02*
X0120959Y0077581D01*
X0120959Y0078579D02*
X0114983Y0078579D01*
X0114983Y0079578D02*
X0120959Y0079578D01*
X0128684Y0079578D02*
X0131983Y0079578D01*
X0131983Y0078579D02*
X0128684Y0078579D01*
X0128684Y0077581D02*
X0131983Y0077581D01*
X0131983Y0076582D02*
X0128684Y0076582D01*
X0128620Y0075584D02*
X0131983Y0075584D01*
X0132794Y0074585D02*
X0127632Y0074585D01*
X0135333Y0081254D02*
X0135845Y0080743D01*
X0135956Y0080632D01*
X0135333Y0081254D02*
X0135333Y0090632D01*
X0160680Y0115978D01*
X0160680Y0120632D01*
X0157535Y0117521D02*
X0157132Y0117521D01*
X0157333Y0117723D02*
X0158090Y0116966D01*
X0158680Y0116966D01*
X0158680Y0116806D01*
X0135555Y0093682D01*
X0134727Y0093682D01*
X0132947Y0092559D02*
X0091755Y0092559D01*
X0091755Y0091560D02*
X0132417Y0091560D01*
X0132283Y0090562D02*
X0091755Y0090562D01*
X0087806Y0096553D02*
X0138426Y0096553D01*
X0139425Y0097551D02*
X0087806Y0097551D01*
X0087806Y0098550D02*
X0140423Y0098550D01*
X0141422Y0099548D02*
X0087806Y0099548D01*
X0087806Y0100547D02*
X0142420Y0100547D01*
X0143419Y0101545D02*
X0088608Y0101545D01*
X0089349Y0102544D02*
X0144417Y0102544D01*
X0145416Y0103542D02*
X0089349Y0103542D01*
X0089349Y0104541D02*
X0146414Y0104541D01*
X0147413Y0105539D02*
X0089349Y0105539D01*
X0089349Y0106538D02*
X0148411Y0106538D01*
X0149410Y0107536D02*
X0089349Y0107536D01*
X0089349Y0108535D02*
X0150408Y0108535D01*
X0151407Y0109533D02*
X0089349Y0109533D01*
X0089349Y0110532D02*
X0152405Y0110532D01*
X0153404Y0111530D02*
X0089349Y0111530D01*
X0089349Y0112529D02*
X0154402Y0112529D01*
X0155401Y0113527D02*
X0088799Y0113527D01*
X0087833Y0114526D02*
X0156399Y0114526D01*
X0157398Y0115524D02*
X0087752Y0115524D01*
X0087338Y0116523D02*
X0158396Y0116523D01*
X0157333Y0117723D02*
X0156577Y0116966D01*
X0151397Y0116966D01*
X0150518Y0117845D01*
X0150518Y0118332D01*
X0146347Y0118332D01*
X0146061Y0118046D01*
X0144940Y0117582D01*
X0143727Y0117582D01*
X0142606Y0118046D01*
X0141748Y0118904D01*
X0141283Y0120025D01*
X0141283Y0120429D01*
X0140381Y0121332D01*
X0102347Y0121332D01*
X0102061Y0121046D01*
X0100940Y0120582D01*
X0099727Y0120582D01*
X0098606Y0121046D01*
X0097748Y0121904D01*
X0097283Y0123025D01*
X0097283Y0124238D01*
X0097748Y0125359D01*
X0098606Y0126217D01*
X0099727Y0126682D01*
X0100940Y0126682D01*
X0102061Y0126217D01*
X0102347Y0125932D01*
X0142286Y0125932D01*
X0144536Y0123682D01*
X0144940Y0123682D01*
X0146061Y0123217D01*
X0146347Y0122932D01*
X0150518Y0122932D01*
X0150518Y0123418D01*
X0151263Y0124163D01*
X0151200Y0124163D01*
X0150322Y0125042D01*
X0150322Y0128469D01*
X0148631Y0130159D01*
X0148631Y0130159D01*
X0147459Y0131331D01*
X0147459Y0132447D01*
X0144704Y0132447D01*
X0143825Y0133325D01*
X0143825Y0134632D01*
X0130647Y0134632D01*
X0130061Y0134046D01*
X0128940Y0133582D01*
X0127727Y0133582D01*
X0126606Y0134046D01*
X0125748Y0134904D01*
X0125283Y0136025D01*
X0125283Y0137238D01*
X0125748Y0138359D01*
X0126606Y0139217D01*
X0127727Y0139682D01*
X0128940Y0139682D01*
X0130061Y0139217D01*
X0130647Y0138632D01*
X0143825Y0138632D01*
X0143825Y0140124D01*
X0137027Y0140124D01*
X0136519Y0140632D01*
X0126647Y0140632D01*
X0126061Y0140046D01*
X0124940Y0139582D01*
X0123727Y0139582D01*
X0122606Y0140046D01*
X0121748Y0140904D01*
X0121283Y0142025D01*
X0121283Y0143238D01*
X0121748Y0144359D01*
X0122606Y0145217D01*
X0123727Y0145682D01*
X0124940Y0145682D01*
X0126061Y0145217D01*
X0126647Y0144632D01*
X0129446Y0144632D01*
X0129283Y0145025D01*
X0129283Y0146238D01*
X0129748Y0147359D01*
X0130606Y0148217D01*
X0131727Y0148682D01*
X0132940Y0148682D01*
X0134061Y0148217D01*
X0134647Y0147632D01*
X0136148Y0147632D01*
X0136148Y0149957D01*
X0135038Y0149957D01*
X0128463Y0156532D01*
X0127233Y0157762D01*
X0127233Y0173418D01*
X0126748Y0173904D01*
X0126283Y0175025D01*
X0126283Y0176238D01*
X0126748Y0177359D01*
X0127606Y0178217D01*
X0128727Y0178682D01*
X0129940Y0178682D01*
X0131061Y0178217D01*
X0131919Y0177359D01*
X0132383Y0176238D01*
X0132383Y0175682D01*
X0132940Y0175682D01*
X0133283Y0175539D01*
X0133283Y0176238D01*
X0133748Y0177359D01*
X0134606Y0178217D01*
X0135727Y0178682D01*
X0136940Y0178682D01*
X0138061Y0178217D01*
X0138919Y0177359D01*
X0139383Y0176238D01*
X0139383Y0175941D01*
X0141313Y0174464D01*
X0141471Y0174464D01*
X0141988Y0173947D01*
X0142568Y0173502D01*
X0142589Y0173346D01*
X0142701Y0173234D01*
X0142701Y0172503D01*
X0142797Y0171778D01*
X0142701Y0171652D01*
X0142701Y0167139D01*
X0143825Y0167139D01*
X0143825Y0173938D01*
X0144333Y0174446D01*
X0144333Y0174803D01*
X0141942Y0177195D01*
X0141306Y0177195D01*
X0140428Y0178073D01*
X0140428Y0187190D01*
X0141306Y0188069D01*
X0144911Y0188069D01*
X0145471Y0187509D01*
X0145731Y0187769D01*
X0146073Y0187966D01*
X0146455Y0188069D01*
X0147743Y0188069D01*
X0147743Y0182722D01*
X0147924Y0182722D01*
X0147924Y0188069D01*
X0149212Y0188069D01*
X0149593Y0187966D01*
X0149935Y0187769D01*
X0150196Y0187509D01*
X0150755Y0188069D01*
X0154360Y0188069D01*
X0155239Y0187190D01*
X0155239Y0178073D01*
X0154360Y0177195D01*
X0153725Y0177195D01*
X0151347Y0174817D01*
X0154214Y0174817D01*
X0154291Y0174740D01*
X0154577Y0174817D01*
X0155758Y0174817D01*
X0155758Y0170364D01*
X0155759Y0170364D01*
X0155759Y0174817D01*
X0156608Y0174817D01*
X0156608Y0188193D01*
X0156322Y0188479D01*
X0156078Y0189068D01*
X0143215Y0201932D01*
X0076558Y0201932D01*
X0076558Y0197974D01*
X0070833Y0197974D01*
X0070833Y0196974D01*
X0070833Y0191250D01*
X0075255Y0191250D01*
X0075637Y0191352D01*
X0075979Y0191549D01*
X0076258Y0191829D01*
X0076455Y0192171D01*
X0076558Y0192552D01*
X0076558Y0196974D01*
X0070833Y0196974D01*
X0069833Y0196974D01*
X0064109Y0196974D01*
X0064109Y0192552D01*
X0064211Y0192171D01*
X0064409Y0191829D01*
X0064688Y0191549D01*
X0065030Y0191352D01*
X0065411Y0191250D01*
X0069833Y0191250D01*
X0069833Y0196974D01*
X0069833Y0197974D01*
X0064109Y0197974D01*
X0064109Y0200589D01*
X0063363Y0199843D01*
X0062370Y0199432D01*
X0057633Y0199432D01*
X0057633Y0199060D01*
X0056755Y0198182D01*
X0051912Y0198182D01*
X0051033Y0199060D01*
X0051033Y0199382D01*
X0039902Y0199382D01*
X0039269Y0198749D01*
X0038919Y0197904D01*
X0038061Y0197046D01*
X0036940Y0196582D01*
X0035727Y0196582D01*
X0034882Y0196932D01*
X0020144Y0196932D01*
X0020144Y0196084D01*
X0021018Y0196084D01*
X0021896Y0195206D01*
X0021896Y0188057D01*
X0021018Y0187179D01*
X0013869Y0187179D01*
X0012991Y0188057D01*
X0012991Y0195206D01*
X0013869Y0196084D01*
X0014744Y0196084D01*
X0014744Y0202179D01*
X0013869Y0202179D01*
X0012991Y0203057D01*
X0012991Y0210206D01*
X0013869Y0211084D01*
X0014744Y0211084D01*
X0014744Y0217179D01*
X0013869Y0217179D01*
X0012991Y0218057D01*
X0012991Y0225206D01*
X0013869Y0226084D01*
X0018078Y0226084D01*
X0021633Y0229640D01*
X0021633Y0232821D01*
X0021597Y0232758D01*
X0021317Y0232479D01*
X0020975Y0232281D01*
X0020594Y0232179D01*
X0017944Y0232179D01*
X0017944Y0236132D01*
X0016944Y0236132D01*
X0016944Y0232179D01*
X0014293Y0232179D01*
X0013912Y0232281D01*
X0013570Y0232479D01*
X0013291Y0232758D01*
X0013093Y0233100D01*
X0012991Y0233481D01*
X0012991Y0236132D01*
X0016944Y0236132D01*
X0016944Y0237132D01*
X0016944Y0241084D01*
X0014293Y0241084D01*
X0013912Y0240982D01*
X0013570Y0240785D01*
X0013291Y0240505D01*
X0013093Y0240163D01*
X0012991Y0239782D01*
X0012991Y0237132D01*
X0016944Y0237132D01*
X0017944Y0237132D01*
X0017944Y0241084D01*
X0020594Y0241084D01*
X0020975Y0240982D01*
X0021317Y0240785D01*
X0021597Y0240505D01*
X0021699Y0240328D01*
X0022044Y0241161D01*
X0025044Y0244161D01*
X0025804Y0244921D01*
X0026796Y0245332D01*
X0250870Y0245332D01*
X0251863Y0244921D01*
X0252622Y0244161D01*
X0253452Y0243332D01*
X0254069Y0243332D01*
X0255429Y0242768D01*
X0255866Y0242332D01*
X0277801Y0242332D01*
X0278237Y0242768D01*
X0279597Y0243332D01*
X0280215Y0243332D01*
X0280804Y0243921D01*
X0281796Y0244332D01*
X0356870Y0244332D01*
X0357863Y0243921D01*
X0358622Y0243161D01*
X0368016Y0233767D01*
X0368427Y0232775D01*
X0368427Y0232053D01*
X0369622Y0232053D01*
X0371276Y0231368D01*
X0372542Y0230102D01*
X0373227Y0228448D01*
X0373227Y0226658D01*
X0372542Y0225004D01*
X0371276Y0223738D01*
X0369622Y0223053D01*
X0361832Y0223053D01*
X0360178Y0223738D01*
X0358912Y0225004D01*
X0358227Y0226658D01*
X0358227Y0227138D01*
X0357460Y0225285D01*
X0354703Y0222529D01*
X0351101Y0221037D01*
X0347203Y0221037D01*
X0343601Y0222529D01*
X0340845Y0225285D01*
X0339353Y0228887D01*
X0339353Y0232785D01*
X0340845Y0236387D01*
X0343389Y0238932D01*
X0284033Y0238932D01*
X0284033Y0238896D01*
X0283470Y0237536D01*
X0282429Y0236495D01*
X0281069Y0235932D01*
X0279597Y0235932D01*
X0278237Y0236495D01*
X0277801Y0236932D01*
X0255866Y0236932D01*
X0255429Y0236495D01*
X0254069Y0235932D01*
X0252597Y0235932D01*
X0251237Y0236495D01*
X0250197Y0237536D01*
X0249633Y0238896D01*
X0249633Y0239513D01*
X0249215Y0239932D01*
X0226897Y0239932D01*
X0226983Y0239896D01*
X0228291Y0238588D01*
X0228999Y0236879D01*
X0228999Y0235632D01*
X0277162Y0235632D01*
X0278333Y0234460D01*
X0279501Y0233292D01*
X0279597Y0233332D01*
X0281069Y0233332D01*
X0282429Y0232768D01*
X0283470Y0231727D01*
X0284033Y0230368D01*
X0284033Y0228896D01*
X0283470Y0227536D01*
X0282429Y0226495D01*
X0281069Y0225932D01*
X0279597Y0225932D01*
X0278237Y0226495D01*
X0277197Y0227536D01*
X0276633Y0228896D01*
X0276633Y0230368D01*
X0276673Y0230463D01*
X0275505Y0231632D01*
X0256510Y0231632D01*
X0257033Y0230368D01*
X0257033Y0228896D01*
X0256470Y0227536D01*
X0255429Y0226495D01*
X0254069Y0225932D01*
X0252597Y0225932D01*
X0251237Y0226495D01*
X0250197Y0227536D01*
X0250157Y0227632D01*
X0235162Y0227632D01*
X0231333Y0223803D01*
X0230162Y0222632D01*
X0098544Y0222632D01*
X0095908Y0225268D01*
X0095274Y0225006D01*
X0093424Y0225006D01*
X0091715Y0225713D01*
X0090407Y0227021D01*
X0089699Y0228730D01*
X0089699Y0236879D01*
X0090407Y0238588D01*
X0091715Y0239896D01*
X0091801Y0239932D01*
X0087033Y0239932D01*
X0087033Y0239846D01*
X0088291Y0238588D01*
X0088999Y0236879D01*
X0088999Y0228730D01*
X0088291Y0227021D01*
X0086983Y0225713D01*
X0085274Y0225006D01*
X0083424Y0225006D01*
X0081715Y0225713D01*
X0080407Y0227021D01*
X0079699Y0228730D01*
X0079699Y0236879D01*
X0080407Y0238588D01*
X0081633Y0239814D01*
X0081633Y0239932D01*
X0076785Y0239932D01*
X0076786Y0239931D01*
X0077378Y0239501D01*
X0077896Y0238983D01*
X0078326Y0238391D01*
X0078658Y0237739D01*
X0078884Y0237043D01*
X0078999Y0236320D01*
X0078999Y0230139D01*
X0074833Y0230139D01*
X0074833Y0229171D01*
X0074833Y0225024D01*
X0075438Y0225120D01*
X0076134Y0225346D01*
X0076786Y0225679D01*
X0077378Y0226109D01*
X0077896Y0226626D01*
X0078326Y0227218D01*
X0078658Y0227870D01*
X0078884Y0228566D01*
X0078980Y0229171D01*
X0074833Y0229171D01*
X0073865Y0229171D01*
X0073865Y0225024D01*
X0073260Y0225120D01*
X0072564Y0225346D01*
X0071912Y0225679D01*
X0071320Y0226109D01*
X0070803Y0226626D01*
X0070372Y0227218D01*
X0070040Y0227870D01*
X0069814Y0228566D01*
X0069718Y0229171D01*
X0073865Y0229171D01*
X0073865Y0230139D01*
X0069699Y0230139D01*
X0069699Y0236320D01*
X0069814Y0237043D01*
X0070040Y0237739D01*
X0070372Y0238391D01*
X0070803Y0238983D01*
X0071320Y0239501D01*
X0071912Y0239931D01*
X0071913Y0239932D01*
X0055163Y0239932D01*
X0057065Y0239144D01*
X0059822Y0236387D01*
X0061314Y0232785D01*
X0061314Y0228887D01*
X0059822Y0225285D01*
X0057065Y0222529D01*
X0053464Y0221037D01*
X0050148Y0221037D01*
X0050148Y0220732D01*
X0063203Y0220732D01*
X0066253Y0217682D01*
X0066940Y0217682D01*
X0068061Y0217217D01*
X0068919Y0216359D01*
X0069383Y0215238D01*
X0069383Y0214025D01*
X0068919Y0212904D01*
X0068061Y0212046D01*
X0066940Y0211582D01*
X0065727Y0211582D01*
X0064606Y0212046D01*
X0063748Y0212904D01*
X0063283Y0214025D01*
X0063283Y0214712D01*
X0061463Y0216532D01*
X0050148Y0216532D01*
X0050148Y0215845D01*
X0049935Y0215632D01*
X0050148Y0215418D01*
X0050148Y0214732D01*
X0058120Y0214732D01*
X0058606Y0215217D01*
X0059727Y0215682D01*
X0060940Y0215682D01*
X0062061Y0215217D01*
X0062919Y0214359D01*
X0063383Y0213238D01*
X0063383Y0212025D01*
X0062919Y0210904D01*
X0062061Y0210046D01*
X0061061Y0209632D01*
X0062061Y0209217D01*
X0062919Y0208359D01*
X0063383Y0207238D01*
X0063383Y0207161D01*
X0063796Y0207332D01*
X0144870Y0207332D01*
X0145863Y0206921D01*
X0146622Y0206161D01*
X0159535Y0193248D01*
X0160636Y0192792D01*
X0161494Y0191934D01*
X0161958Y0190813D01*
X0161958Y0189600D01*
X0161494Y0188479D01*
X0161208Y0188193D01*
X0161208Y0174817D01*
X0162058Y0174817D01*
X0162058Y0170364D01*
X0162058Y0165911D01*
X0163239Y0165911D01*
X0163525Y0165988D01*
X0163602Y0165911D01*
X0169613Y0165911D01*
X0169613Y0141352D01*
X0160452Y0141352D01*
X0160376Y0141275D01*
X0160090Y0141352D01*
X0158908Y0141352D01*
X0157726Y0141352D01*
X0157441Y0141275D01*
X0157364Y0141352D01*
X0151459Y0141352D01*
X0151459Y0148929D01*
X0154609Y0152079D01*
X0154609Y0165911D01*
X0155758Y0165911D01*
X0155758Y0170364D01*
X0155759Y0170364D01*
X0155759Y0164206D01*
X0156333Y0163632D01*
X0162333Y0163632D01*
X0162058Y0165911D02*
X0162058Y0170364D01*
X0162058Y0170364D01*
X0162058Y0170443D02*
X0162058Y0170443D01*
X0162058Y0171441D02*
X0162058Y0171441D01*
X0162058Y0172440D02*
X0162058Y0172440D01*
X0162058Y0173438D02*
X0162058Y0173438D01*
X0162058Y0174437D02*
X0162058Y0174437D01*
X0161208Y0175435D02*
X0228308Y0175435D01*
X0227310Y0174437D02*
X0170343Y0174437D01*
X0170841Y0173438D02*
X0226311Y0173438D01*
X0225313Y0172440D02*
X0197839Y0172440D01*
X0198456Y0171441D02*
X0224314Y0171441D01*
X0223316Y0170443D02*
X0198651Y0170443D01*
X0198521Y0169444D02*
X0222317Y0169444D01*
X0221319Y0168445D02*
X0200121Y0168445D01*
X0200802Y0167447D02*
X0220320Y0167447D01*
X0219322Y0166448D02*
X0200802Y0166448D01*
X0200802Y0165450D02*
X0218323Y0165450D01*
X0217325Y0164451D02*
X0200802Y0164451D01*
X0200802Y0163453D02*
X0216326Y0163453D01*
X0215328Y0162454D02*
X0200802Y0162454D01*
X0200418Y0161456D02*
X0214329Y0161456D01*
X0213331Y0160457D02*
X0200802Y0160457D01*
X0200802Y0159459D02*
X0212332Y0159459D01*
X0211334Y0158460D02*
X0200802Y0158460D01*
X0200802Y0157462D02*
X0210335Y0157462D01*
X0209337Y0156463D02*
X0200802Y0156463D01*
X0200768Y0155465D02*
X0208338Y0155465D01*
X0207340Y0154466D02*
X0199812Y0154466D01*
X0200288Y0153468D02*
X0206341Y0153468D01*
X0205343Y0152469D02*
X0200383Y0152469D01*
X0200154Y0151471D02*
X0204344Y0151471D01*
X0203346Y0150472D02*
X0199487Y0150472D01*
X0201349Y0148475D02*
X0191664Y0148475D01*
X0190666Y0149474D02*
X0202347Y0149474D01*
X0200350Y0147477D02*
X0192663Y0147477D01*
X0193662Y0146478D02*
X0199352Y0146478D01*
X0198353Y0145480D02*
X0194660Y0145480D01*
X0195659Y0144481D02*
X0197355Y0144481D01*
X0196680Y0140978D02*
X0232833Y0177132D01*
X0237333Y0177132D01*
X0240097Y0178431D02*
X0358227Y0178431D01*
X0358227Y0179429D02*
X0239349Y0179429D01*
X0240383Y0177432D02*
X0358320Y0177432D01*
X0358734Y0176434D02*
X0240345Y0176434D01*
X0239932Y0175435D02*
X0359481Y0175435D01*
X0360906Y0174437D02*
X0239342Y0174437D01*
X0240093Y0173438D02*
X0374708Y0173438D01*
X0373710Y0174437D02*
X0370549Y0174437D01*
X0369622Y0173210D02*
X0371276Y0172525D01*
X0372542Y0171259D01*
X0373227Y0169605D01*
X0373227Y0167815D01*
X0372542Y0166161D01*
X0371276Y0164895D01*
X0369622Y0164210D01*
X0361832Y0164210D01*
X0360178Y0164895D01*
X0358912Y0166161D01*
X0358227Y0167815D01*
X0358227Y0169605D01*
X0358912Y0171259D01*
X0360178Y0172525D01*
X0361832Y0173210D01*
X0369622Y0173210D01*
X0371362Y0172440D02*
X0375707Y0172440D01*
X0376633Y0171441D02*
X0372360Y0171441D01*
X0372880Y0170443D02*
X0376633Y0170443D01*
X0376633Y0169444D02*
X0373227Y0169444D01*
X0373227Y0168445D02*
X0376633Y0168445D01*
X0376633Y0167447D02*
X0373074Y0167447D01*
X0372661Y0166448D02*
X0376633Y0166448D01*
X0376633Y0165450D02*
X0371831Y0165450D01*
X0370204Y0164451D02*
X0376633Y0164451D01*
X0376633Y0163453D02*
X0227983Y0163453D01*
X0226985Y0162454D02*
X0376633Y0162454D01*
X0376633Y0161456D02*
X0225986Y0161456D01*
X0224988Y0160457D02*
X0376633Y0160457D01*
X0376633Y0159459D02*
X0223989Y0159459D01*
X0222991Y0158460D02*
X0376633Y0158460D01*
X0376633Y0157462D02*
X0221992Y0157462D01*
X0220994Y0156463D02*
X0376633Y0156463D01*
X0376633Y0155465D02*
X0219995Y0155465D01*
X0218997Y0154466D02*
X0376633Y0154466D01*
X0376633Y0153468D02*
X0217998Y0153468D01*
X0216999Y0152469D02*
X0376633Y0152469D01*
X0376633Y0151471D02*
X0216001Y0151471D01*
X0215002Y0150472D02*
X0376633Y0150472D01*
X0376633Y0149474D02*
X0214004Y0149474D01*
X0213005Y0148475D02*
X0376633Y0148475D01*
X0376633Y0147477D02*
X0212007Y0147477D01*
X0211008Y0146478D02*
X0376633Y0146478D01*
X0376633Y0145480D02*
X0210010Y0145480D01*
X0209011Y0144481D02*
X0376633Y0144481D01*
X0376633Y0143483D02*
X0208013Y0143483D01*
X0207014Y0142484D02*
X0360459Y0142484D01*
X0359296Y0141486D02*
X0206016Y0141486D01*
X0205017Y0140487D02*
X0358657Y0140487D01*
X0358244Y0139489D02*
X0204019Y0139489D01*
X0203020Y0138490D02*
X0358227Y0138490D01*
X0358296Y0137492D02*
X0202022Y0137492D01*
X0201023Y0136493D02*
X0358709Y0136493D01*
X0359421Y0135495D02*
X0199999Y0135495D01*
X0199999Y0134496D02*
X0360762Y0134496D01*
X0361832Y0133210D02*
X0360178Y0132525D01*
X0358912Y0131259D01*
X0358227Y0129605D01*
X0358227Y0127815D01*
X0358912Y0126161D01*
X0360178Y0124895D01*
X0361832Y0124210D01*
X0369622Y0124210D01*
X0371276Y0124895D01*
X0372542Y0126161D01*
X0373227Y0127815D01*
X0373227Y0129605D01*
X0372542Y0131259D01*
X0371276Y0132525D01*
X0369622Y0133210D01*
X0361832Y0133210D01*
X0360152Y0132499D02*
X0199999Y0132499D01*
X0199999Y0133498D02*
X0374649Y0133498D01*
X0373650Y0134496D02*
X0370692Y0134496D01*
X0372033Y0135495D02*
X0372652Y0135495D01*
X0371302Y0132499D02*
X0375647Y0132499D01*
X0376633Y0131501D02*
X0372301Y0131501D01*
X0372856Y0130502D02*
X0376633Y0130502D01*
X0376633Y0129504D02*
X0373227Y0129504D01*
X0373227Y0128505D02*
X0376633Y0128505D01*
X0376633Y0127507D02*
X0373099Y0127507D01*
X0372686Y0126508D02*
X0376633Y0126508D01*
X0376633Y0125510D02*
X0371890Y0125510D01*
X0370348Y0124511D02*
X0376633Y0124511D01*
X0376633Y0123512D02*
X0191433Y0123512D01*
X0191433Y0124511D02*
X0361106Y0124511D01*
X0359564Y0125510D02*
X0191433Y0125510D01*
X0191433Y0126508D02*
X0358768Y0126508D01*
X0358355Y0127507D02*
X0191433Y0127507D01*
X0191433Y0128505D02*
X0358227Y0128505D01*
X0358227Y0129504D02*
X0191433Y0129504D01*
X0191433Y0130502D02*
X0358598Y0130502D01*
X0359153Y0131501D02*
X0199804Y0131501D01*
X0192863Y0131501D02*
X0192804Y0131501D01*
X0187233Y0130817D02*
X0187233Y0122845D01*
X0186748Y0122359D01*
X0186333Y0121359D01*
X0186333Y0131030D01*
X0186547Y0130817D01*
X0187233Y0130817D01*
X0187233Y0130502D02*
X0186333Y0130502D01*
X0186333Y0129504D02*
X0187233Y0129504D01*
X0187233Y0128505D02*
X0186333Y0128505D01*
X0186333Y0127507D02*
X0187233Y0127507D01*
X0187233Y0126508D02*
X0186333Y0126508D01*
X0186333Y0125510D02*
X0187233Y0125510D01*
X0187233Y0124511D02*
X0186333Y0124511D01*
X0186333Y0123512D02*
X0187233Y0123512D01*
X0186902Y0122514D02*
X0186333Y0122514D01*
X0186333Y0121515D02*
X0186398Y0121515D01*
X0186333Y0119518D02*
X0186493Y0119518D01*
X0186333Y0118520D02*
X0187132Y0118520D01*
X0187272Y0117521D02*
X0376633Y0117521D01*
X0376633Y0116523D02*
X0188270Y0116523D01*
X0189269Y0115524D02*
X0345509Y0115524D01*
X0347203Y0116226D02*
X0343601Y0114734D01*
X0340845Y0111978D01*
X0339353Y0108376D01*
X0339353Y0104478D01*
X0340845Y0100876D01*
X0343601Y0098119D01*
X0347203Y0096628D01*
X0351101Y0096628D01*
X0354703Y0098119D01*
X0357460Y0100876D01*
X0358951Y0104478D01*
X0358951Y0108376D01*
X0357460Y0111978D01*
X0354703Y0114734D01*
X0351101Y0116226D01*
X0347203Y0116226D01*
X0343393Y0114526D02*
X0190267Y0114526D01*
X0191266Y0113527D02*
X0342395Y0113527D01*
X0341396Y0112529D02*
X0192264Y0112529D01*
X0193263Y0111530D02*
X0340660Y0111530D01*
X0340246Y0110532D02*
X0194261Y0110532D01*
X0195260Y0109533D02*
X0339832Y0109533D01*
X0339419Y0108535D02*
X0196259Y0108535D01*
X0197257Y0107536D02*
X0339353Y0107536D01*
X0339353Y0106538D02*
X0198256Y0106538D01*
X0199254Y0105539D02*
X0339353Y0105539D01*
X0339353Y0104541D02*
X0200253Y0104541D01*
X0196593Y0102544D02*
X0187250Y0102544D01*
X0188248Y0101545D02*
X0197591Y0101545D01*
X0198590Y0100547D02*
X0189247Y0100547D01*
X0190245Y0099548D02*
X0220680Y0099548D01*
X0220606Y0099517D02*
X0219748Y0098659D01*
X0219283Y0097538D01*
X0219283Y0096325D01*
X0219571Y0095632D01*
X0194162Y0095632D01*
X0176066Y0113728D01*
X0176066Y0140124D01*
X0177640Y0140124D01*
X0178518Y0141002D01*
X0178518Y0142618D01*
X0182333Y0138803D01*
X0182333Y0116803D01*
X0199505Y0099632D01*
X0220882Y0099632D01*
X0220606Y0099517D01*
X0219702Y0098550D02*
X0191244Y0098550D01*
X0192242Y0097551D02*
X0219289Y0097551D01*
X0219283Y0096553D02*
X0193241Y0096553D01*
X0193333Y0093632D02*
X0174066Y0112899D01*
X0174066Y0142608D01*
X0172066Y0140124D02*
X0172066Y0112071D01*
X0192505Y0091632D01*
X0202681Y0091632D01*
X0192543Y0081494D01*
X0186163Y0081494D01*
X0185285Y0080615D01*
X0185285Y0076509D01*
X0170333Y0091460D01*
X0170333Y0132817D01*
X0170841Y0133325D01*
X0170841Y0140124D01*
X0172066Y0140124D01*
X0172066Y0139489D02*
X0170841Y0139489D01*
X0170841Y0138490D02*
X0172066Y0138490D01*
X0172066Y0137492D02*
X0170841Y0137492D01*
X0170841Y0136493D02*
X0172066Y0136493D01*
X0172066Y0135495D02*
X0170841Y0135495D01*
X0170841Y0134496D02*
X0172066Y0134496D01*
X0172066Y0133498D02*
X0170841Y0133498D01*
X0170333Y0132499D02*
X0172066Y0132499D01*
X0172066Y0131501D02*
X0170333Y0131501D01*
X0170333Y0130502D02*
X0172066Y0130502D01*
X0172066Y0129504D02*
X0170333Y0129504D01*
X0170333Y0128505D02*
X0172066Y0128505D01*
X0172066Y0127507D02*
X0170333Y0127507D01*
X0170333Y0126508D02*
X0172066Y0126508D01*
X0172066Y0125510D02*
X0170333Y0125510D01*
X0170333Y0124511D02*
X0172066Y0124511D01*
X0172066Y0123512D02*
X0170333Y0123512D01*
X0170333Y0122514D02*
X0172066Y0122514D01*
X0172066Y0121515D02*
X0170333Y0121515D01*
X0170333Y0120517D02*
X0172066Y0120517D01*
X0172066Y0119518D02*
X0170333Y0119518D01*
X0170333Y0118520D02*
X0172066Y0118520D01*
X0172066Y0117521D02*
X0170333Y0117521D01*
X0170333Y0116523D02*
X0172066Y0116523D01*
X0172066Y0115524D02*
X0170333Y0115524D01*
X0170333Y0114526D02*
X0172066Y0114526D01*
X0172066Y0113527D02*
X0170333Y0113527D01*
X0170333Y0112529D02*
X0172066Y0112529D01*
X0172606Y0111530D02*
X0170333Y0111530D01*
X0170333Y0110532D02*
X0173605Y0110532D01*
X0174603Y0109533D02*
X0170333Y0109533D01*
X0170333Y0108535D02*
X0175602Y0108535D01*
X0176600Y0107536D02*
X0170333Y0107536D01*
X0170333Y0106538D02*
X0177599Y0106538D01*
X0178597Y0105539D02*
X0170333Y0105539D01*
X0170333Y0104541D02*
X0179596Y0104541D01*
X0180594Y0103542D02*
X0170333Y0103542D01*
X0170333Y0102544D02*
X0181593Y0102544D01*
X0182591Y0101545D02*
X0170333Y0101545D01*
X0170333Y0100547D02*
X0183590Y0100547D01*
X0184588Y0099548D02*
X0170333Y0099548D01*
X0170333Y0098550D02*
X0185587Y0098550D01*
X0186585Y0097551D02*
X0170333Y0097551D01*
X0170333Y0096553D02*
X0187584Y0096553D01*
X0188582Y0095554D02*
X0170333Y0095554D01*
X0170333Y0094556D02*
X0189581Y0094556D01*
X0190579Y0093557D02*
X0170333Y0093557D01*
X0170333Y0092559D02*
X0191578Y0092559D01*
X0193333Y0093632D02*
X0250333Y0093632D01*
X0251908Y0092057D01*
X0251908Y0090332D01*
X0251908Y0084881D01*
X0259158Y0077632D01*
X0252933Y0077581D02*
X0247733Y0077581D01*
X0247733Y0078579D02*
X0252933Y0078579D01*
X0252933Y0079578D02*
X0247733Y0079578D01*
X0247733Y0080577D02*
X0252933Y0080577D01*
X0252386Y0081575D02*
X0248281Y0081575D01*
X0249279Y0082574D02*
X0251387Y0082574D01*
X0250389Y0083572D02*
X0250278Y0083572D01*
X0248759Y0084881D02*
X0241509Y0077632D01*
X0235285Y0077581D02*
X0215382Y0077581D01*
X0215382Y0078579D02*
X0235285Y0078579D01*
X0235285Y0079578D02*
X0215382Y0079578D01*
X0215382Y0080577D02*
X0235285Y0080577D01*
X0235285Y0076582D02*
X0215382Y0076582D01*
X0215382Y0075584D02*
X0235285Y0075584D01*
X0235347Y0074585D02*
X0215320Y0074585D01*
X0209158Y0077632D02*
X0206333Y0077632D01*
X0201333Y0072632D01*
X0186333Y0072632D01*
X0168333Y0090632D01*
X0168333Y0136876D01*
X0168357Y0136899D01*
X0165207Y0136899D02*
X0165207Y0083681D01*
X0159158Y0077632D01*
X0165382Y0077581D02*
X0178556Y0077581D01*
X0179554Y0076582D02*
X0165382Y0076582D01*
X0165382Y0075584D02*
X0180553Y0075584D01*
X0181551Y0074585D02*
X0165320Y0074585D01*
X0165382Y0078579D02*
X0177557Y0078579D01*
X0176558Y0079578D02*
X0165382Y0079578D01*
X0165382Y0080577D02*
X0175560Y0080577D01*
X0174561Y0081575D02*
X0165930Y0081575D01*
X0166928Y0082574D02*
X0173563Y0082574D01*
X0172564Y0083572D02*
X0167207Y0083572D01*
X0167207Y0084571D02*
X0171566Y0084571D01*
X0170567Y0085569D02*
X0167207Y0085569D01*
X0167207Y0086568D02*
X0169569Y0086568D01*
X0168570Y0087566D02*
X0167207Y0087566D01*
X0167207Y0088565D02*
X0167572Y0088565D01*
X0170333Y0091560D02*
X0202609Y0091560D01*
X0201611Y0090562D02*
X0171232Y0090562D01*
X0172230Y0089563D02*
X0200612Y0089563D01*
X0199614Y0088565D02*
X0173229Y0088565D01*
X0174227Y0087566D02*
X0198615Y0087566D01*
X0197616Y0086568D02*
X0175226Y0086568D01*
X0176224Y0085569D02*
X0196618Y0085569D01*
X0195619Y0084571D02*
X0177223Y0084571D01*
X0178221Y0083572D02*
X0194621Y0083572D01*
X0193622Y0082574D02*
X0179220Y0082574D01*
X0180218Y0081575D02*
X0192624Y0081575D01*
X0197733Y0080577D02*
X0202933Y0080577D01*
X0202933Y0079578D02*
X0197733Y0079578D01*
X0197733Y0078579D02*
X0202933Y0078579D01*
X0202933Y0077581D02*
X0197733Y0077581D01*
X0197733Y0076582D02*
X0202456Y0076582D01*
X0201457Y0075584D02*
X0197733Y0075584D01*
X0191509Y0077632D02*
X0204209Y0090332D01*
X0245609Y0090332D01*
X0248759Y0090332D02*
X0248759Y0084881D01*
X0246618Y0085569D02*
X0202275Y0085569D01*
X0203273Y0086568D02*
X0246759Y0086568D01*
X0245619Y0084571D02*
X0201276Y0084571D01*
X0200278Y0083572D02*
X0244621Y0083572D01*
X0243622Y0082574D02*
X0199279Y0082574D01*
X0198281Y0081575D02*
X0242624Y0081575D01*
X0243653Y0087566D02*
X0204272Y0087566D01*
X0185285Y0080577D02*
X0181217Y0080577D01*
X0182215Y0079578D02*
X0185285Y0079578D01*
X0185285Y0078579D02*
X0183214Y0078579D01*
X0184212Y0077581D02*
X0185285Y0077581D01*
X0185285Y0076582D02*
X0185211Y0076582D01*
X0182550Y0073587D02*
X0100328Y0073587D01*
X0101326Y0072588D02*
X0107736Y0072588D01*
X0106716Y0071590D02*
X0102325Y0071590D01*
X0103323Y0070591D02*
X0106112Y0070591D01*
X0105699Y0069593D02*
X0104322Y0069593D01*
X0105320Y0068594D02*
X0105684Y0068594D01*
X0112751Y0064600D02*
X0378833Y0064600D01*
X0378833Y0063602D02*
X0110313Y0063602D01*
X0112895Y0062603D02*
X0121812Y0062603D01*
X0121880Y0062643D02*
X0121538Y0062445D01*
X0121259Y0062166D01*
X0121062Y0061824D01*
X0120959Y0061442D01*
X0120959Y0057021D01*
X0124321Y0057021D01*
X0124321Y0056021D01*
X0120959Y0056021D01*
X0120959Y0051599D01*
X0121062Y0051217D01*
X0121259Y0050875D01*
X0121538Y0050596D01*
X0121880Y0050398D01*
X0122262Y0050296D01*
X0124322Y0050296D01*
X0124322Y0056021D01*
X0125321Y0056021D01*
X0125321Y0050296D01*
X0127381Y0050296D01*
X0127763Y0050398D01*
X0128105Y0050596D01*
X0128384Y0050875D01*
X0128581Y0051217D01*
X0128684Y0051599D01*
X0128684Y0056021D01*
X0125322Y0056021D01*
X0125322Y0057021D01*
X0125321Y0057021D02*
X0124322Y0057021D01*
X0124322Y0062745D01*
X0122262Y0062745D01*
X0121880Y0062643D01*
X0121003Y0061605D02*
X0113936Y0061605D01*
X0114548Y0060606D02*
X0120959Y0060606D01*
X0120959Y0059608D02*
X0114962Y0059608D01*
X0114983Y0058609D02*
X0120959Y0058609D01*
X0120959Y0057611D02*
X0114943Y0057611D01*
X0114530Y0056612D02*
X0124321Y0056612D01*
X0124322Y0055614D02*
X0125321Y0055614D01*
X0125322Y0056612D02*
X0131983Y0056612D01*
X0131983Y0055614D02*
X0128684Y0055614D01*
X0128684Y0054615D02*
X0131983Y0054615D01*
X0131983Y0053617D02*
X0128684Y0053617D01*
X0128684Y0052618D02*
X0131983Y0052618D01*
X0131983Y0051620D02*
X0128684Y0051620D01*
X0128130Y0050621D02*
X0132537Y0050621D01*
X0132862Y0050296D02*
X0131983Y0051175D01*
X0131983Y0061866D01*
X0132862Y0062745D01*
X0138829Y0062745D01*
X0139707Y0061866D01*
X0139707Y0051175D01*
X0138829Y0050296D01*
X0132862Y0050296D01*
X0139154Y0050621D02*
X0395363Y0050621D01*
X0395720Y0051620D02*
X0139707Y0051620D01*
X0139707Y0052618D02*
X0396044Y0052618D01*
X0396231Y0053617D02*
X0139707Y0053617D01*
X0139707Y0054615D02*
X0396284Y0054615D01*
X0396284Y0055614D02*
X0139707Y0055614D01*
X0139707Y0056612D02*
X0153081Y0056612D01*
X0153036Y0056690D02*
X0153233Y0056348D01*
X0153512Y0056069D01*
X0153854Y0055872D01*
X0154236Y0055769D01*
X0158658Y0055769D01*
X0158658Y0059132D01*
X0152933Y0059132D01*
X0152933Y0057072D01*
X0153036Y0056690D01*
X0152933Y0057611D02*
X0139707Y0057611D01*
X0139707Y0058609D02*
X0152933Y0058609D01*
X0152933Y0060132D02*
X0158658Y0060132D01*
X0158658Y0063494D01*
X0154236Y0063494D01*
X0153854Y0063392D01*
X0153512Y0063194D01*
X0153233Y0062915D01*
X0153036Y0062573D01*
X0152933Y0062191D01*
X0152933Y0060132D01*
X0152933Y0060606D02*
X0139707Y0060606D01*
X0139707Y0059608D02*
X0158658Y0059608D01*
X0158658Y0059132D02*
X0158658Y0060132D01*
X0159658Y0060132D01*
X0159658Y0063494D01*
X0164080Y0063494D01*
X0164461Y0063392D01*
X0164803Y0063194D01*
X0165082Y0062915D01*
X0165280Y0062573D01*
X0165382Y0062191D01*
X0165382Y0060132D01*
X0159658Y0060132D01*
X0159658Y0059132D01*
X0165382Y0059132D01*
X0165382Y0057072D01*
X0165280Y0056690D01*
X0165082Y0056348D01*
X0164803Y0056069D01*
X0164461Y0055872D01*
X0164080Y0055769D01*
X0159658Y0055769D01*
X0159658Y0059132D01*
X0158658Y0059132D01*
X0158658Y0058609D02*
X0159658Y0058609D01*
X0159658Y0057611D02*
X0158658Y0057611D01*
X0158658Y0056612D02*
X0159658Y0056612D01*
X0159658Y0059608D02*
X0191009Y0059608D01*
X0191009Y0059132D02*
X0185285Y0059132D01*
X0185285Y0057072D01*
X0185387Y0056690D01*
X0185584Y0056348D01*
X0185863Y0056069D01*
X0186206Y0055872D01*
X0186587Y0055769D01*
X0191009Y0055769D01*
X0191009Y0059132D01*
X0191009Y0060132D01*
X0191009Y0063494D01*
X0186587Y0063494D01*
X0186206Y0063392D01*
X0185863Y0063194D01*
X0185584Y0062915D01*
X0185387Y0062573D01*
X0185285Y0062191D01*
X0185284Y0060132D01*
X0191009Y0060132D01*
X0192009Y0060132D01*
X0192009Y0063494D01*
X0196431Y0063494D01*
X0196812Y0063392D01*
X0197154Y0063194D01*
X0197434Y0062915D01*
X0197631Y0062573D01*
X0197733Y0062191D01*
X0197733Y0060132D01*
X0192009Y0060132D01*
X0192009Y0059132D01*
X0197733Y0059132D01*
X0197733Y0057072D01*
X0197631Y0056690D01*
X0197434Y0056348D01*
X0197154Y0056069D01*
X0196812Y0055872D01*
X0196431Y0055769D01*
X0192009Y0055769D01*
X0192009Y0059132D01*
X0191009Y0059132D01*
X0191009Y0058609D02*
X0192009Y0058609D01*
X0192009Y0057611D02*
X0191009Y0057611D01*
X0191009Y0056612D02*
X0192009Y0056612D01*
X0192009Y0059608D02*
X0208658Y0059608D01*
X0208658Y0059132D02*
X0202933Y0059132D01*
X0202933Y0057072D01*
X0203036Y0056690D01*
X0203233Y0056348D01*
X0203512Y0056069D01*
X0203854Y0055872D01*
X0204236Y0055769D01*
X0208658Y0055769D01*
X0208658Y0059132D01*
X0208658Y0060132D01*
X0208658Y0063494D01*
X0204236Y0063494D01*
X0203854Y0063392D01*
X0203512Y0063194D01*
X0203233Y0062915D01*
X0203036Y0062573D01*
X0202933Y0062191D01*
X0202933Y0060132D01*
X0208658Y0060132D01*
X0209658Y0060132D01*
X0209658Y0063494D01*
X0214080Y0063494D01*
X0214461Y0063392D01*
X0214803Y0063194D01*
X0215082Y0062915D01*
X0215280Y0062573D01*
X0215382Y0062191D01*
X0215382Y0060132D01*
X0209658Y0060132D01*
X0209658Y0059132D01*
X0215382Y0059132D01*
X0215382Y0057072D01*
X0215280Y0056690D01*
X0215082Y0056348D01*
X0214803Y0056069D01*
X0214461Y0055872D01*
X0214080Y0055769D01*
X0209658Y0055769D01*
X0209658Y0059132D01*
X0208658Y0059132D01*
X0208658Y0058609D02*
X0209658Y0058609D01*
X0209658Y0057611D02*
X0208658Y0057611D01*
X0208658Y0056612D02*
X0209658Y0056612D01*
X0209658Y0059608D02*
X0241009Y0059608D01*
X0241009Y0059132D02*
X0235285Y0059132D01*
X0235285Y0057072D01*
X0235387Y0056690D01*
X0235584Y0056348D01*
X0235863Y0056069D01*
X0236206Y0055872D01*
X0236587Y0055769D01*
X0241009Y0055769D01*
X0241009Y0059132D01*
X0241009Y0060132D01*
X0241009Y0063494D01*
X0236587Y0063494D01*
X0236206Y0063392D01*
X0235863Y0063194D01*
X0235584Y0062915D01*
X0235387Y0062573D01*
X0235285Y0062191D01*
X0235284Y0060132D01*
X0241009Y0060132D01*
X0242009Y0060132D01*
X0242009Y0063494D01*
X0246431Y0063494D01*
X0246812Y0063392D01*
X0247154Y0063194D01*
X0247434Y0062915D01*
X0247631Y0062573D01*
X0247733Y0062191D01*
X0247733Y0060132D01*
X0242009Y0060132D01*
X0242009Y0059132D01*
X0247733Y0059132D01*
X0247733Y0057072D01*
X0247631Y0056690D01*
X0247434Y0056348D01*
X0247154Y0056069D01*
X0246812Y0055872D01*
X0246431Y0055769D01*
X0242009Y0055769D01*
X0242009Y0059132D01*
X0241009Y0059132D01*
X0241009Y0058609D02*
X0242009Y0058609D01*
X0242009Y0057611D02*
X0241009Y0057611D01*
X0241009Y0056612D02*
X0242009Y0056612D01*
X0242009Y0059608D02*
X0258658Y0059608D01*
X0258658Y0059132D02*
X0252933Y0059132D01*
X0252933Y0057072D01*
X0253036Y0056690D01*
X0253233Y0056348D01*
X0253512Y0056069D01*
X0253854Y0055872D01*
X0254236Y0055769D01*
X0258658Y0055769D01*
X0258658Y0059132D01*
X0258658Y0060132D01*
X0258658Y0063494D01*
X0254236Y0063494D01*
X0253854Y0063392D01*
X0253512Y0063194D01*
X0253233Y0062915D01*
X0253036Y0062573D01*
X0252933Y0062191D01*
X0252933Y0060132D01*
X0258658Y0060132D01*
X0259658Y0060132D01*
X0259658Y0063494D01*
X0264080Y0063494D01*
X0264461Y0063392D01*
X0264803Y0063194D01*
X0265082Y0062915D01*
X0265280Y0062573D01*
X0265382Y0062191D01*
X0265382Y0060132D01*
X0259658Y0060132D01*
X0259658Y0059132D01*
X0265382Y0059132D01*
X0265382Y0057072D01*
X0265280Y0056690D01*
X0265082Y0056348D01*
X0264803Y0056069D01*
X0264461Y0055872D01*
X0264080Y0055769D01*
X0259658Y0055769D01*
X0259658Y0059132D01*
X0258658Y0059132D01*
X0258658Y0058609D02*
X0259658Y0058609D01*
X0259658Y0057611D02*
X0258658Y0057611D01*
X0258658Y0056612D02*
X0259658Y0056612D01*
X0259658Y0059608D02*
X0291009Y0059608D01*
X0291009Y0059132D02*
X0285285Y0059132D01*
X0285285Y0057072D01*
X0285387Y0056690D01*
X0285584Y0056348D01*
X0285863Y0056069D01*
X0286206Y0055872D01*
X0286587Y0055769D01*
X0291009Y0055769D01*
X0291009Y0059132D01*
X0291009Y0060132D01*
X0291009Y0063494D01*
X0286587Y0063494D01*
X0286206Y0063392D01*
X0285863Y0063194D01*
X0285584Y0062915D01*
X0285387Y0062573D01*
X0285285Y0062191D01*
X0285284Y0060132D01*
X0291009Y0060132D01*
X0292009Y0060132D01*
X0292009Y0063494D01*
X0296431Y0063494D01*
X0296812Y0063392D01*
X0297154Y0063194D01*
X0297434Y0062915D01*
X0297631Y0062573D01*
X0297733Y0062191D01*
X0297733Y0060132D01*
X0292009Y0060132D01*
X0292009Y0059132D01*
X0297733Y0059132D01*
X0297733Y0057072D01*
X0297631Y0056690D01*
X0297434Y0056348D01*
X0297154Y0056069D01*
X0296812Y0055872D01*
X0296431Y0055769D01*
X0292009Y0055769D01*
X0292009Y0059132D01*
X0291009Y0059132D01*
X0291009Y0058609D02*
X0292009Y0058609D01*
X0292009Y0057611D02*
X0291009Y0057611D01*
X0291009Y0056612D02*
X0292009Y0056612D01*
X0292009Y0059608D02*
X0308658Y0059608D01*
X0308658Y0059132D02*
X0302933Y0059132D01*
X0302933Y0057072D01*
X0303036Y0056690D01*
X0303233Y0056348D01*
X0303512Y0056069D01*
X0303854Y0055872D01*
X0304236Y0055769D01*
X0308658Y0055769D01*
X0308658Y0059132D01*
X0308658Y0060132D01*
X0308658Y0063494D01*
X0304236Y0063494D01*
X0303854Y0063392D01*
X0303512Y0063194D01*
X0303233Y0062915D01*
X0303036Y0062573D01*
X0302933Y0062191D01*
X0302933Y0060132D01*
X0308658Y0060132D01*
X0309658Y0060132D01*
X0309658Y0063494D01*
X0314080Y0063494D01*
X0314461Y0063392D01*
X0314803Y0063194D01*
X0315082Y0062915D01*
X0315280Y0062573D01*
X0315382Y0062191D01*
X0315382Y0060132D01*
X0309658Y0060132D01*
X0309658Y0059132D01*
X0315382Y0059132D01*
X0315382Y0057072D01*
X0315280Y0056690D01*
X0315082Y0056348D01*
X0314803Y0056069D01*
X0314461Y0055872D01*
X0314080Y0055769D01*
X0309658Y0055769D01*
X0309658Y0059132D01*
X0308658Y0059132D01*
X0308658Y0058609D02*
X0309658Y0058609D01*
X0309658Y0057611D02*
X0308658Y0057611D01*
X0308658Y0056612D02*
X0309658Y0056612D01*
X0309658Y0059608D02*
X0341009Y0059608D01*
X0341009Y0059132D02*
X0335285Y0059132D01*
X0335285Y0057072D01*
X0335387Y0056690D01*
X0335584Y0056348D01*
X0335863Y0056069D01*
X0336206Y0055872D01*
X0336587Y0055769D01*
X0341009Y0055769D01*
X0341009Y0059132D01*
X0341009Y0060132D01*
X0341009Y0063494D01*
X0336587Y0063494D01*
X0336206Y0063392D01*
X0335863Y0063194D01*
X0335584Y0062915D01*
X0335387Y0062573D01*
X0335285Y0062191D01*
X0335284Y0060132D01*
X0341009Y0060132D01*
X0342009Y0060132D01*
X0342009Y0063494D01*
X0346431Y0063494D01*
X0346812Y0063392D01*
X0347154Y0063194D01*
X0347434Y0062915D01*
X0347631Y0062573D01*
X0347733Y0062191D01*
X0347733Y0060132D01*
X0342009Y0060132D01*
X0342009Y0059132D01*
X0347733Y0059132D01*
X0347733Y0057072D01*
X0347631Y0056690D01*
X0347434Y0056348D01*
X0347154Y0056069D01*
X0346812Y0055872D01*
X0346431Y0055769D01*
X0342009Y0055769D01*
X0342009Y0059132D01*
X0341009Y0059132D01*
X0341009Y0058609D02*
X0342009Y0058609D01*
X0342009Y0057611D02*
X0341009Y0057611D01*
X0341009Y0056612D02*
X0342009Y0056612D01*
X0342009Y0059608D02*
X0380165Y0059608D01*
X0379166Y0060606D02*
X0347733Y0060606D01*
X0347733Y0061605D02*
X0378833Y0061605D01*
X0378833Y0060939D02*
X0382641Y0057132D01*
X0388026Y0057132D01*
X0391833Y0060939D01*
X0391833Y0066324D01*
X0388026Y0070132D01*
X0382641Y0070132D01*
X0378833Y0066324D01*
X0378833Y0060939D01*
X0378833Y0062603D02*
X0347613Y0062603D01*
X0347733Y0058609D02*
X0381163Y0058609D01*
X0382162Y0057611D02*
X0347733Y0057611D01*
X0347586Y0056612D02*
X0396284Y0056612D01*
X0396284Y0057611D02*
X0388505Y0057611D01*
X0389503Y0058609D02*
X0396284Y0058609D01*
X0396284Y0059608D02*
X0390502Y0059608D01*
X0391500Y0060606D02*
X0396284Y0060606D01*
X0396284Y0061605D02*
X0391833Y0061605D01*
X0391833Y0062603D02*
X0396284Y0062603D01*
X0396284Y0063602D02*
X0391833Y0063602D01*
X0391833Y0064600D02*
X0396284Y0064600D01*
X0396284Y0065599D02*
X0391833Y0065599D01*
X0391560Y0066597D02*
X0396284Y0066597D01*
X0396284Y0067596D02*
X0390561Y0067596D01*
X0389563Y0068594D02*
X0396284Y0068594D01*
X0396284Y0069593D02*
X0388564Y0069593D01*
X0382102Y0069593D02*
X0350113Y0069593D01*
X0351112Y0070591D02*
X0396284Y0070591D01*
X0396284Y0071590D02*
X0352110Y0071590D01*
X0353109Y0072588D02*
X0396284Y0072588D01*
X0396284Y0073587D02*
X0354107Y0073587D01*
X0355106Y0074585D02*
X0396284Y0074585D01*
X0396284Y0075584D02*
X0356104Y0075584D01*
X0357103Y0076582D02*
X0396284Y0076582D01*
X0396284Y0077581D02*
X0358101Y0077581D01*
X0359100Y0078579D02*
X0396284Y0078579D01*
X0396284Y0079578D02*
X0360098Y0079578D01*
X0361097Y0080577D02*
X0396284Y0080577D01*
X0396284Y0081575D02*
X0362095Y0081575D01*
X0363094Y0082574D02*
X0396284Y0082574D01*
X0396284Y0083572D02*
X0364092Y0083572D01*
X0365091Y0084571D02*
X0396284Y0084571D01*
X0396284Y0085569D02*
X0366089Y0085569D01*
X0367088Y0086568D02*
X0396284Y0086568D01*
X0396284Y0087566D02*
X0388460Y0087566D01*
X0388026Y0087132D02*
X0391833Y0090939D01*
X0391833Y0096324D01*
X0388026Y0100132D01*
X0382641Y0100132D01*
X0378833Y0096324D01*
X0378833Y0090939D01*
X0382641Y0087132D01*
X0388026Y0087132D01*
X0389459Y0088565D02*
X0396284Y0088565D01*
X0396284Y0089563D02*
X0390457Y0089563D01*
X0391456Y0090562D02*
X0396284Y0090562D01*
X0396284Y0091560D02*
X0391833Y0091560D01*
X0391833Y0092559D02*
X0396284Y0092559D01*
X0396284Y0093557D02*
X0391833Y0093557D01*
X0391833Y0094556D02*
X0396284Y0094556D01*
X0396284Y0095554D02*
X0391833Y0095554D01*
X0391605Y0096553D02*
X0396284Y0096553D01*
X0396284Y0097551D02*
X0390606Y0097551D01*
X0389608Y0098550D02*
X0396284Y0098550D01*
X0396284Y0099548D02*
X0388609Y0099548D01*
X0382058Y0099548D02*
X0380068Y0099548D01*
X0381059Y0098550D02*
X0379070Y0098550D01*
X0380061Y0097551D02*
X0378071Y0097551D01*
X0379062Y0096553D02*
X0377073Y0096553D01*
X0376074Y0095554D02*
X0378833Y0095554D01*
X0378833Y0094556D02*
X0375076Y0094556D01*
X0374077Y0093557D02*
X0378833Y0093557D01*
X0378833Y0092559D02*
X0373079Y0092559D01*
X0372080Y0091560D02*
X0378833Y0091560D01*
X0379211Y0090562D02*
X0371082Y0090562D01*
X0370083Y0089563D02*
X0380209Y0089563D01*
X0381208Y0088565D02*
X0369085Y0088565D01*
X0368086Y0087566D02*
X0382206Y0087566D01*
X0369436Y0096553D02*
X0261333Y0096553D01*
X0261333Y0097551D02*
X0344973Y0097551D01*
X0343171Y0098550D02*
X0261333Y0098550D01*
X0261245Y0099548D02*
X0342173Y0099548D01*
X0341174Y0100547D02*
X0260247Y0100547D01*
X0259248Y0101545D02*
X0340568Y0101545D01*
X0340154Y0102544D02*
X0258250Y0102544D01*
X0257251Y0103542D02*
X0339740Y0103542D01*
X0353331Y0097551D02*
X0370435Y0097551D01*
X0371433Y0098550D02*
X0355133Y0098550D01*
X0356132Y0099548D02*
X0372432Y0099548D01*
X0373430Y0100547D02*
X0357130Y0100547D01*
X0357737Y0101545D02*
X0374429Y0101545D01*
X0375427Y0102544D02*
X0358150Y0102544D01*
X0358564Y0103542D02*
X0376426Y0103542D01*
X0376633Y0104541D02*
X0358951Y0104541D01*
X0358951Y0105539D02*
X0376633Y0105539D01*
X0376633Y0106538D02*
X0358951Y0106538D01*
X0358951Y0107536D02*
X0376633Y0107536D01*
X0376633Y0108535D02*
X0358886Y0108535D01*
X0358472Y0109533D02*
X0376633Y0109533D01*
X0376633Y0110532D02*
X0358058Y0110532D01*
X0357645Y0111530D02*
X0376633Y0111530D01*
X0376633Y0112529D02*
X0356908Y0112529D01*
X0355910Y0113527D02*
X0376633Y0113527D01*
X0376633Y0114526D02*
X0354911Y0114526D01*
X0352795Y0115524D02*
X0376633Y0115524D01*
X0376633Y0118520D02*
X0191535Y0118520D01*
X0192174Y0119518D02*
X0376633Y0119518D01*
X0376633Y0120517D02*
X0192383Y0120517D01*
X0192269Y0121515D02*
X0376633Y0121515D01*
X0376633Y0122514D02*
X0191764Y0122514D01*
X0184333Y0117632D02*
X0200333Y0101632D01*
X0256333Y0101632D01*
X0259333Y0098632D01*
X0259333Y0090332D01*
X0296458Y0090332D01*
X0309158Y0077632D01*
X0315382Y0077581D02*
X0335285Y0077581D01*
X0335285Y0078579D02*
X0315382Y0078579D01*
X0315382Y0079578D02*
X0335285Y0079578D01*
X0335285Y0080577D02*
X0315382Y0080577D01*
X0315382Y0076582D02*
X0335285Y0076582D01*
X0335285Y0075584D02*
X0315382Y0075584D01*
X0315320Y0074585D02*
X0335347Y0074585D01*
X0344473Y0071590D02*
X0203120Y0071590D01*
X0204119Y0072588D02*
X0345472Y0072588D01*
X0346470Y0073587D02*
X0205117Y0073587D01*
X0203053Y0062603D02*
X0197613Y0062603D01*
X0197733Y0061605D02*
X0202933Y0061605D01*
X0202933Y0060606D02*
X0197733Y0060606D01*
X0197733Y0058609D02*
X0202933Y0058609D01*
X0202933Y0057611D02*
X0197733Y0057611D01*
X0197586Y0056612D02*
X0203081Y0056612D01*
X0208658Y0060606D02*
X0209658Y0060606D01*
X0209658Y0061605D02*
X0208658Y0061605D01*
X0208658Y0062603D02*
X0209658Y0062603D01*
X0215262Y0062603D02*
X0235404Y0062603D01*
X0235285Y0061605D02*
X0215382Y0061605D01*
X0215382Y0060606D02*
X0235285Y0060606D01*
X0235285Y0058609D02*
X0215382Y0058609D01*
X0215382Y0057611D02*
X0235285Y0057611D01*
X0235432Y0056612D02*
X0215235Y0056612D01*
X0192009Y0060606D02*
X0191009Y0060606D01*
X0191009Y0061605D02*
X0192009Y0061605D01*
X0192009Y0062603D02*
X0191009Y0062603D01*
X0185404Y0062603D02*
X0165262Y0062603D01*
X0165382Y0061605D02*
X0185285Y0061605D01*
X0185285Y0060606D02*
X0165382Y0060606D01*
X0165382Y0058609D02*
X0185285Y0058609D01*
X0185285Y0057611D02*
X0165382Y0057611D01*
X0165235Y0056612D02*
X0185432Y0056612D01*
X0184547Y0071590D02*
X0113951Y0071590D01*
X0112931Y0072588D02*
X0183548Y0072588D01*
X0163207Y0084571D02*
X0139707Y0084571D01*
X0139707Y0085569D02*
X0163207Y0085569D01*
X0163207Y0086568D02*
X0139228Y0086568D01*
X0137333Y0087566D02*
X0163207Y0087566D01*
X0163207Y0088565D02*
X0137580Y0088565D01*
X0138192Y0089563D02*
X0163207Y0089563D01*
X0163207Y0090562D02*
X0138383Y0090562D01*
X0139090Y0091560D02*
X0163207Y0091560D01*
X0163207Y0092559D02*
X0140089Y0092559D01*
X0141087Y0093557D02*
X0163207Y0093557D01*
X0163207Y0094556D02*
X0142086Y0094556D01*
X0143084Y0095554D02*
X0163207Y0095554D01*
X0163207Y0096553D02*
X0144083Y0096553D01*
X0145081Y0097551D02*
X0163207Y0097551D01*
X0163207Y0098550D02*
X0146080Y0098550D01*
X0147078Y0099548D02*
X0163207Y0099548D01*
X0163207Y0100547D02*
X0148077Y0100547D01*
X0149075Y0101545D02*
X0163207Y0101545D01*
X0163207Y0102544D02*
X0150074Y0102544D01*
X0151072Y0103542D02*
X0163207Y0103542D01*
X0163207Y0104541D02*
X0152071Y0104541D01*
X0153069Y0105539D02*
X0163207Y0105539D01*
X0163207Y0106538D02*
X0154068Y0106538D01*
X0155066Y0107536D02*
X0163207Y0107536D01*
X0163207Y0108535D02*
X0156065Y0108535D01*
X0157063Y0109533D02*
X0163207Y0109533D01*
X0163207Y0110532D02*
X0158062Y0110532D01*
X0159061Y0111530D02*
X0163207Y0111530D01*
X0163207Y0112529D02*
X0160059Y0112529D01*
X0161058Y0113527D02*
X0163207Y0113527D01*
X0163207Y0114526D02*
X0162056Y0114526D01*
X0162680Y0115524D02*
X0163207Y0115524D01*
X0163207Y0116523D02*
X0162680Y0116523D01*
X0153987Y0120632D02*
X0153987Y0127632D01*
X0149459Y0132159D01*
X0149459Y0136899D01*
X0149459Y0149758D01*
X0152609Y0152907D01*
X0152609Y0170364D01*
X0155759Y0170364D02*
X0155759Y0165911D01*
X0156940Y0165911D01*
X0157226Y0165988D01*
X0157303Y0165911D01*
X0160514Y0165911D01*
X0160590Y0165988D01*
X0160876Y0165911D01*
X0162058Y0165911D01*
X0162058Y0166448D02*
X0162058Y0166448D01*
X0162058Y0167447D02*
X0162058Y0167447D01*
X0162058Y0168445D02*
X0162058Y0168445D01*
X0162058Y0169444D02*
X0162058Y0169444D01*
X0155759Y0169444D02*
X0155758Y0169444D01*
X0155758Y0168445D02*
X0155759Y0168445D01*
X0155758Y0167447D02*
X0155759Y0167447D01*
X0155758Y0166448D02*
X0155759Y0166448D01*
X0154609Y0165450D02*
X0169613Y0165450D01*
X0169613Y0164451D02*
X0154609Y0164451D01*
X0154609Y0163453D02*
X0169613Y0163453D01*
X0169613Y0162454D02*
X0154609Y0162454D01*
X0154609Y0161456D02*
X0169613Y0161456D01*
X0169613Y0160457D02*
X0154609Y0160457D01*
X0154609Y0159459D02*
X0169613Y0159459D01*
X0169613Y0158460D02*
X0154609Y0158460D01*
X0154609Y0157462D02*
X0169613Y0157462D01*
X0169613Y0156463D02*
X0154609Y0156463D01*
X0154609Y0155465D02*
X0169613Y0155465D01*
X0169613Y0154466D02*
X0154609Y0154466D01*
X0154609Y0153468D02*
X0169613Y0153468D01*
X0169613Y0152469D02*
X0154609Y0152469D01*
X0154001Y0151471D02*
X0169613Y0151471D01*
X0169613Y0150472D02*
X0153002Y0150472D01*
X0152004Y0149474D02*
X0169613Y0149474D01*
X0169613Y0148475D02*
X0151459Y0148475D01*
X0151459Y0147477D02*
X0169613Y0147477D01*
X0169613Y0146478D02*
X0151459Y0146478D01*
X0151459Y0145480D02*
X0169613Y0145480D01*
X0169613Y0144481D02*
X0151459Y0144481D01*
X0151459Y0143483D02*
X0169613Y0143483D01*
X0169613Y0142484D02*
X0151459Y0142484D01*
X0151459Y0141486D02*
X0169613Y0141486D01*
X0176066Y0139489D02*
X0181648Y0139489D01*
X0182333Y0138490D02*
X0176066Y0138490D01*
X0176066Y0137492D02*
X0182333Y0137492D01*
X0182333Y0136493D02*
X0176066Y0136493D01*
X0176066Y0135495D02*
X0182333Y0135495D01*
X0182333Y0134496D02*
X0176066Y0134496D01*
X0176066Y0133498D02*
X0182333Y0133498D01*
X0182333Y0132499D02*
X0176066Y0132499D01*
X0176066Y0131501D02*
X0182333Y0131501D01*
X0182333Y0130502D02*
X0176066Y0130502D01*
X0176066Y0129504D02*
X0182333Y0129504D01*
X0182333Y0128505D02*
X0176066Y0128505D01*
X0176066Y0127507D02*
X0182333Y0127507D01*
X0182333Y0126508D02*
X0176066Y0126508D01*
X0176066Y0125510D02*
X0182333Y0125510D01*
X0182333Y0124511D02*
X0176066Y0124511D01*
X0176066Y0123512D02*
X0182333Y0123512D01*
X0182333Y0122514D02*
X0176066Y0122514D01*
X0176066Y0121515D02*
X0182333Y0121515D01*
X0182333Y0120517D02*
X0176066Y0120517D01*
X0176066Y0119518D02*
X0182333Y0119518D01*
X0182333Y0118520D02*
X0176066Y0118520D01*
X0176066Y0117521D02*
X0182333Y0117521D01*
X0182614Y0116523D02*
X0176066Y0116523D01*
X0176066Y0115524D02*
X0183612Y0115524D01*
X0184611Y0114526D02*
X0176066Y0114526D01*
X0176266Y0113527D02*
X0185609Y0113527D01*
X0186608Y0112529D02*
X0177264Y0112529D01*
X0178263Y0111530D02*
X0187606Y0111530D01*
X0188605Y0110532D02*
X0179261Y0110532D01*
X0180260Y0109533D02*
X0189603Y0109533D01*
X0190602Y0108535D02*
X0181259Y0108535D01*
X0182257Y0107536D02*
X0191600Y0107536D01*
X0192599Y0106538D02*
X0183256Y0106538D01*
X0184254Y0105539D02*
X0193597Y0105539D01*
X0194596Y0104541D02*
X0185253Y0104541D01*
X0186251Y0103542D02*
X0195594Y0103542D01*
X0184333Y0117632D02*
X0184333Y0139632D01*
X0178207Y0145758D01*
X0174066Y0145758D01*
X0174066Y0148907D02*
X0181404Y0148907D01*
X0189333Y0140978D01*
X0192680Y0137632D01*
X0199333Y0137632D01*
X0233833Y0172132D01*
X0237333Y0172132D01*
X0235325Y0174437D02*
X0232967Y0174437D01*
X0233005Y0174132D02*
X0199999Y0141125D01*
X0199999Y0141469D01*
X0233662Y0175132D01*
X0235020Y0175132D01*
X0235520Y0174632D01*
X0235020Y0174132D01*
X0233005Y0174132D01*
X0232311Y0173438D02*
X0231968Y0173438D01*
X0231313Y0172440D02*
X0230970Y0172440D01*
X0230314Y0171441D02*
X0229971Y0171441D01*
X0229316Y0170443D02*
X0228973Y0170443D01*
X0228317Y0169444D02*
X0227974Y0169444D01*
X0227319Y0168445D02*
X0226976Y0168445D01*
X0226320Y0167447D02*
X0225977Y0167447D01*
X0225322Y0166448D02*
X0224979Y0166448D01*
X0224323Y0165450D02*
X0223980Y0165450D01*
X0223325Y0164451D02*
X0222982Y0164451D01*
X0222326Y0163453D02*
X0221983Y0163453D01*
X0221328Y0162454D02*
X0220985Y0162454D01*
X0220329Y0161456D02*
X0219986Y0161456D01*
X0219331Y0160457D02*
X0218988Y0160457D01*
X0218332Y0159459D02*
X0217989Y0159459D01*
X0217334Y0158460D02*
X0216991Y0158460D01*
X0216335Y0157462D02*
X0215992Y0157462D01*
X0215337Y0156463D02*
X0214994Y0156463D01*
X0214338Y0155465D02*
X0213995Y0155465D01*
X0213340Y0154466D02*
X0212996Y0154466D01*
X0212341Y0153468D02*
X0211998Y0153468D01*
X0211343Y0152469D02*
X0210999Y0152469D01*
X0210344Y0151471D02*
X0210001Y0151471D01*
X0209346Y0150472D02*
X0209002Y0150472D01*
X0208347Y0149474D02*
X0208004Y0149474D01*
X0207349Y0148475D02*
X0207005Y0148475D01*
X0206350Y0147477D02*
X0206007Y0147477D01*
X0205352Y0146478D02*
X0205008Y0146478D01*
X0204353Y0145480D02*
X0204010Y0145480D01*
X0203355Y0144481D02*
X0203011Y0144481D01*
X0202356Y0143483D02*
X0202013Y0143483D01*
X0201358Y0142484D02*
X0201014Y0142484D01*
X0200359Y0141486D02*
X0200016Y0141486D01*
X0196680Y0140978D02*
X0196333Y0140978D01*
X0185255Y0152057D01*
X0174066Y0152057D01*
X0174066Y0155206D02*
X0187908Y0155206D01*
X0190987Y0158285D01*
X0197333Y0158285D01*
X0197333Y0157632D01*
X0197333Y0158285D02*
X0197333Y0152632D01*
X0194513Y0151471D02*
X0188669Y0151471D01*
X0187670Y0152469D02*
X0194283Y0152469D01*
X0194378Y0153468D02*
X0188998Y0153468D01*
X0189997Y0154466D02*
X0194855Y0154466D01*
X0193898Y0155465D02*
X0190995Y0155465D01*
X0188383Y0158510D02*
X0189455Y0159582D01*
X0188727Y0159582D01*
X0188141Y0159824D01*
X0188383Y0159238D01*
X0188383Y0158510D01*
X0188292Y0159459D02*
X0189332Y0159459D01*
X0191300Y0160285D02*
X0191919Y0160904D01*
X0192383Y0162025D01*
X0192383Y0162853D01*
X0192508Y0162978D01*
X0193865Y0162978D01*
X0193865Y0162191D01*
X0194425Y0161632D01*
X0193865Y0161072D01*
X0193865Y0160285D01*
X0191300Y0160285D01*
X0191472Y0160457D02*
X0193865Y0160457D01*
X0194249Y0161456D02*
X0192148Y0161456D01*
X0192383Y0162454D02*
X0193865Y0162454D01*
X0191680Y0164978D02*
X0189333Y0162632D01*
X0188168Y0165450D02*
X0188145Y0165450D01*
X0188141Y0165439D02*
X0188383Y0166025D01*
X0188383Y0167238D01*
X0187919Y0168359D01*
X0187914Y0168364D01*
X0193288Y0168364D01*
X0193873Y0167778D01*
X0193877Y0167777D01*
X0193865Y0167765D01*
X0193865Y0166978D01*
X0190851Y0166978D01*
X0189555Y0165682D01*
X0188727Y0165682D01*
X0188141Y0165439D01*
X0188383Y0166448D02*
X0190322Y0166448D01*
X0191680Y0164978D02*
X0197333Y0164978D01*
X0193865Y0167447D02*
X0188297Y0167447D01*
X0185333Y0166632D02*
X0180207Y0161506D01*
X0174066Y0161506D01*
X0174341Y0158632D02*
X0174066Y0158356D01*
X0174341Y0158632D02*
X0185333Y0158632D01*
X0184182Y0161456D02*
X0182986Y0161456D01*
X0183606Y0161217D02*
X0183020Y0160632D01*
X0182162Y0160632D01*
X0185112Y0163582D01*
X0185940Y0163582D01*
X0186526Y0163824D01*
X0186283Y0163238D01*
X0186283Y0162025D01*
X0186526Y0161439D01*
X0185940Y0161682D01*
X0184727Y0161682D01*
X0183606Y0161217D01*
X0183985Y0162454D02*
X0186283Y0162454D01*
X0186372Y0163453D02*
X0184983Y0163453D01*
X0186485Y0161456D02*
X0186519Y0161456D01*
X0181323Y0165450D02*
X0178518Y0165450D01*
X0178518Y0166261D02*
X0178518Y0163506D01*
X0179379Y0163506D01*
X0182283Y0166410D01*
X0182283Y0167238D01*
X0182748Y0168359D01*
X0182752Y0168364D01*
X0170841Y0168364D01*
X0170841Y0167139D01*
X0177640Y0167139D01*
X0178518Y0166261D01*
X0178331Y0166448D02*
X0182283Y0166448D01*
X0182370Y0167447D02*
X0170841Y0167447D01*
X0168357Y0170364D02*
X0195601Y0170364D01*
X0193363Y0172440D02*
X0170841Y0172440D01*
X0161208Y0176434D02*
X0229307Y0176434D01*
X0230305Y0177432D02*
X0161208Y0177432D01*
X0161208Y0178431D02*
X0183221Y0178431D01*
X0183606Y0178046D02*
X0182748Y0178904D01*
X0182283Y0180025D01*
X0182283Y0181238D01*
X0182748Y0182359D01*
X0183333Y0182945D01*
X0183333Y0207318D01*
X0182748Y0207904D01*
X0182283Y0209025D01*
X0182283Y0210238D01*
X0182748Y0211359D01*
X0183606Y0212217D01*
X0184727Y0212682D01*
X0185940Y0212682D01*
X0187061Y0212217D01*
X0187919Y0211359D01*
X0188383Y0210238D01*
X0188383Y0209025D01*
X0187919Y0207904D01*
X0187333Y0207318D01*
X0187333Y0182945D01*
X0187919Y0182359D01*
X0188383Y0181238D01*
X0188383Y0180025D01*
X0187919Y0178904D01*
X0187061Y0178046D01*
X0185940Y0177582D01*
X0184727Y0177582D01*
X0183606Y0178046D01*
X0182530Y0179429D02*
X0161208Y0179429D01*
X0161208Y0180428D02*
X0182283Y0180428D01*
X0182361Y0181426D02*
X0161208Y0181426D01*
X0161208Y0182425D02*
X0182813Y0182425D01*
X0183333Y0183423D02*
X0161208Y0183423D01*
X0161208Y0184422D02*
X0183333Y0184422D01*
X0183333Y0185420D02*
X0161208Y0185420D01*
X0161208Y0186419D02*
X0183333Y0186419D01*
X0183333Y0187417D02*
X0161208Y0187417D01*
X0161431Y0188416D02*
X0183333Y0188416D01*
X0183333Y0189414D02*
X0161881Y0189414D01*
X0161958Y0190413D02*
X0183333Y0190413D01*
X0183333Y0191411D02*
X0161710Y0191411D01*
X0161018Y0192410D02*
X0183333Y0192410D01*
X0183333Y0193408D02*
X0159375Y0193408D01*
X0158376Y0194407D02*
X0183333Y0194407D01*
X0183333Y0195405D02*
X0157378Y0195405D01*
X0156379Y0196404D02*
X0183333Y0196404D01*
X0183333Y0197402D02*
X0155381Y0197402D01*
X0154382Y0198401D02*
X0183333Y0198401D01*
X0183333Y0199399D02*
X0153384Y0199399D01*
X0152385Y0200398D02*
X0183333Y0200398D01*
X0183333Y0201396D02*
X0151387Y0201396D01*
X0150388Y0202395D02*
X0183333Y0202395D01*
X0183333Y0203393D02*
X0149390Y0203393D01*
X0148391Y0204392D02*
X0183333Y0204392D01*
X0183333Y0205390D02*
X0147393Y0205390D01*
X0146394Y0206389D02*
X0183333Y0206389D01*
X0183264Y0207387D02*
X0063322Y0207387D01*
X0062892Y0208386D02*
X0182548Y0208386D01*
X0182283Y0209384D02*
X0061657Y0209384D01*
X0062398Y0210383D02*
X0182343Y0210383D01*
X0182770Y0211381D02*
X0063117Y0211381D01*
X0063383Y0212380D02*
X0064272Y0212380D01*
X0063551Y0213379D02*
X0063325Y0213379D01*
X0063283Y0214377D02*
X0062901Y0214377D01*
X0062620Y0215376D02*
X0061679Y0215376D01*
X0061621Y0216374D02*
X0050148Y0216374D01*
X0050148Y0215376D02*
X0058988Y0215376D01*
X0065564Y0218371D02*
X0249851Y0218371D01*
X0249776Y0218552D02*
X0250054Y0217879D01*
X0250459Y0217273D01*
X0250975Y0216758D01*
X0251581Y0216353D01*
X0252254Y0216074D01*
X0252969Y0215932D01*
X0253233Y0215932D01*
X0253233Y0219531D01*
X0253433Y0219531D01*
X0253433Y0215932D01*
X0253698Y0215932D01*
X0254413Y0216074D01*
X0255086Y0216353D01*
X0255692Y0216758D01*
X0256207Y0217273D01*
X0256612Y0217879D01*
X0256891Y0218552D01*
X0257033Y0219267D01*
X0257033Y0219532D01*
X0253433Y0219532D01*
X0253433Y0219732D01*
X0253233Y0219732D01*
X0253233Y0223332D01*
X0252969Y0223332D01*
X0252254Y0223189D01*
X0251581Y0222910D01*
X0250975Y0222506D01*
X0250459Y0221990D01*
X0250054Y0221384D01*
X0249776Y0220711D01*
X0249633Y0219996D01*
X0249633Y0219732D01*
X0253233Y0219732D01*
X0253233Y0219532D01*
X0249633Y0219532D01*
X0249633Y0219267D01*
X0249776Y0218552D01*
X0249633Y0219370D02*
X0064565Y0219370D01*
X0063567Y0220368D02*
X0249707Y0220368D01*
X0250047Y0221367D02*
X0054259Y0221367D01*
X0056670Y0222365D02*
X0250834Y0222365D01*
X0253233Y0222365D02*
X0253433Y0222365D01*
X0253433Y0223332D02*
X0253698Y0223332D01*
X0254413Y0223189D01*
X0255086Y0222910D01*
X0255692Y0222506D01*
X0256207Y0221990D01*
X0256612Y0221384D01*
X0256891Y0220711D01*
X0257033Y0219996D01*
X0257033Y0219732D01*
X0253433Y0219732D01*
X0253433Y0223332D01*
X0253433Y0221367D02*
X0253233Y0221367D01*
X0253233Y0220368D02*
X0253433Y0220368D01*
X0253433Y0219370D02*
X0253233Y0219370D01*
X0253233Y0218371D02*
X0253433Y0218371D01*
X0253433Y0217373D02*
X0253233Y0217373D01*
X0253233Y0216374D02*
X0253433Y0216374D01*
X0255118Y0216374D02*
X0278549Y0216374D01*
X0278581Y0216353D02*
X0279254Y0216074D01*
X0279969Y0215932D01*
X0280233Y0215932D01*
X0280233Y0219531D01*
X0280433Y0219531D01*
X0280433Y0215932D01*
X0280698Y0215932D01*
X0281413Y0216074D01*
X0282086Y0216353D01*
X0282692Y0216758D01*
X0283207Y0217273D01*
X0283612Y0217879D01*
X0283891Y0218552D01*
X0284033Y0219267D01*
X0284033Y0219532D01*
X0280433Y0219532D01*
X0280433Y0219732D01*
X0280233Y0219732D01*
X0280233Y0223332D01*
X0279969Y0223332D01*
X0279254Y0223189D01*
X0278581Y0222910D01*
X0277975Y0222506D01*
X0277459Y0221990D01*
X0277054Y0221384D01*
X0276776Y0220711D01*
X0276633Y0219996D01*
X0276633Y0219732D01*
X0280233Y0219732D01*
X0280233Y0219532D01*
X0276633Y0219532D01*
X0276633Y0219267D01*
X0276776Y0218552D01*
X0277054Y0217879D01*
X0277459Y0217273D01*
X0277975Y0216758D01*
X0278581Y0216353D01*
X0277393Y0217373D02*
X0256274Y0217373D01*
X0256816Y0218371D02*
X0276851Y0218371D01*
X0276633Y0219370D02*
X0257033Y0219370D01*
X0256959Y0220368D02*
X0276707Y0220368D01*
X0277047Y0221367D02*
X0256620Y0221367D01*
X0255832Y0222365D02*
X0277834Y0222365D01*
X0280233Y0222365D02*
X0280433Y0222365D01*
X0280433Y0223332D02*
X0280698Y0223332D01*
X0281413Y0223189D01*
X0282086Y0222910D01*
X0282692Y0222506D01*
X0283207Y0221990D01*
X0283612Y0221384D01*
X0283891Y0220711D01*
X0284033Y0219996D01*
X0284033Y0219732D01*
X0280433Y0219732D01*
X0280433Y0223332D01*
X0280433Y0221367D02*
X0280233Y0221367D01*
X0280233Y0220368D02*
X0280433Y0220368D01*
X0280433Y0219370D02*
X0280233Y0219370D01*
X0280233Y0218371D02*
X0280433Y0218371D01*
X0280433Y0217373D02*
X0280233Y0217373D01*
X0280233Y0216374D02*
X0280433Y0216374D01*
X0282118Y0216374D02*
X0358430Y0216374D01*
X0358338Y0216657D02*
X0358557Y0215983D01*
X0358878Y0215352D01*
X0359295Y0214779D01*
X0359795Y0214278D01*
X0360369Y0213862D01*
X0361000Y0213540D01*
X0361673Y0213321D01*
X0362373Y0213210D01*
X0365227Y0213210D01*
X0365227Y0217210D01*
X0366227Y0217210D01*
X0366227Y0213210D01*
X0369081Y0213210D01*
X0369781Y0213321D01*
X0370454Y0213540D01*
X0371086Y0213862D01*
X0371659Y0214278D01*
X0372159Y0214779D01*
X0372576Y0215352D01*
X0372897Y0215983D01*
X0373116Y0216657D01*
X0373204Y0217210D01*
X0366227Y0217210D01*
X0366227Y0218210D01*
X0373204Y0218210D01*
X0373116Y0218764D01*
X0372897Y0219438D01*
X0372576Y0220069D01*
X0372159Y0220642D01*
X0371659Y0221143D01*
X0371086Y0221559D01*
X0370454Y0221881D01*
X0369781Y0222100D01*
X0369081Y0222210D01*
X0366227Y0222210D01*
X0366227Y0218210D01*
X0365227Y0218210D01*
X0365227Y0217210D01*
X0358250Y0217210D01*
X0358338Y0216657D01*
X0358866Y0215376D02*
X0069326Y0215376D01*
X0069383Y0214377D02*
X0359696Y0214377D01*
X0361497Y0213379D02*
X0069116Y0213379D01*
X0068395Y0212380D02*
X0183999Y0212380D01*
X0186668Y0212380D02*
X0396284Y0212380D01*
X0396284Y0213379D02*
X0369957Y0213379D01*
X0371758Y0214377D02*
X0396284Y0214377D01*
X0396284Y0215376D02*
X0372588Y0215376D01*
X0373024Y0216374D02*
X0396284Y0216374D01*
X0396284Y0217373D02*
X0366227Y0217373D01*
X0366227Y0218371D02*
X0365227Y0218371D01*
X0365227Y0218210D02*
X0365227Y0222210D01*
X0362373Y0222210D01*
X0361673Y0222100D01*
X0361000Y0221881D01*
X0360369Y0221559D01*
X0359795Y0221143D01*
X0359295Y0220642D01*
X0358878Y0220069D01*
X0358557Y0219438D01*
X0358338Y0218764D01*
X0358250Y0218210D01*
X0365227Y0218210D01*
X0365227Y0217373D02*
X0283274Y0217373D01*
X0283816Y0218371D02*
X0358276Y0218371D01*
X0358535Y0219370D02*
X0284033Y0219370D01*
X0283959Y0220368D02*
X0359096Y0220368D01*
X0360104Y0221367D02*
X0351897Y0221367D01*
X0354308Y0222365D02*
X0396284Y0222365D01*
X0396284Y0221367D02*
X0371350Y0221367D01*
X0372358Y0220368D02*
X0396284Y0220368D01*
X0396284Y0219370D02*
X0372919Y0219370D01*
X0373178Y0218371D02*
X0396284Y0218371D01*
X0396284Y0223364D02*
X0370372Y0223364D01*
X0371900Y0224362D02*
X0396284Y0224362D01*
X0396284Y0225361D02*
X0372690Y0225361D01*
X0373103Y0226359D02*
X0396284Y0226359D01*
X0396284Y0227358D02*
X0373227Y0227358D01*
X0373227Y0228356D02*
X0396284Y0228356D01*
X0396284Y0229355D02*
X0372851Y0229355D01*
X0372291Y0230353D02*
X0396284Y0230353D01*
X0396284Y0231352D02*
X0371292Y0231352D01*
X0368427Y0232350D02*
X0396284Y0232350D01*
X0396284Y0233349D02*
X0368189Y0233349D01*
X0367436Y0234347D02*
X0396284Y0234347D01*
X0396284Y0235346D02*
X0366438Y0235346D01*
X0365439Y0236344D02*
X0396284Y0236344D01*
X0396284Y0237343D02*
X0364440Y0237343D01*
X0363442Y0238341D02*
X0396284Y0238341D01*
X0396284Y0239340D02*
X0362443Y0239340D01*
X0361445Y0240338D02*
X0396284Y0240338D01*
X0396284Y0241337D02*
X0360446Y0241337D01*
X0359448Y0242335D02*
X0396284Y0242335D01*
X0396235Y0243334D02*
X0358449Y0243334D01*
X0355215Y0238932D02*
X0362094Y0232053D01*
X0361832Y0232053D01*
X0360178Y0231368D01*
X0358951Y0230141D01*
X0358951Y0232785D01*
X0357460Y0236387D01*
X0354915Y0238932D01*
X0355215Y0238932D01*
X0355505Y0238341D02*
X0355805Y0238341D01*
X0356504Y0237343D02*
X0356804Y0237343D01*
X0357477Y0236344D02*
X0357802Y0236344D01*
X0357891Y0235346D02*
X0358801Y0235346D01*
X0358305Y0234347D02*
X0359799Y0234347D01*
X0360798Y0233349D02*
X0358718Y0233349D01*
X0358951Y0232350D02*
X0361796Y0232350D01*
X0360162Y0231352D02*
X0358951Y0231352D01*
X0358951Y0230353D02*
X0359163Y0230353D01*
X0358351Y0226359D02*
X0357904Y0226359D01*
X0357491Y0225361D02*
X0358764Y0225361D01*
X0359554Y0224362D02*
X0356536Y0224362D01*
X0355538Y0223364D02*
X0361082Y0223364D01*
X0365227Y0221367D02*
X0366227Y0221367D01*
X0366227Y0220368D02*
X0365227Y0220368D01*
X0365227Y0219370D02*
X0366227Y0219370D01*
X0366227Y0216374D02*
X0365227Y0216374D01*
X0365227Y0215376D02*
X0366227Y0215376D01*
X0366227Y0214377D02*
X0365227Y0214377D01*
X0365227Y0213379D02*
X0366227Y0213379D01*
X0346408Y0221367D02*
X0283620Y0221367D01*
X0282832Y0222365D02*
X0343997Y0222365D01*
X0342767Y0223364D02*
X0230894Y0223364D01*
X0231892Y0224362D02*
X0341768Y0224362D01*
X0340814Y0225361D02*
X0232891Y0225361D01*
X0233889Y0226359D02*
X0251565Y0226359D01*
X0250375Y0227358D02*
X0234888Y0227358D01*
X0234333Y0229632D02*
X0229333Y0224632D01*
X0099373Y0224632D01*
X0094349Y0229655D01*
X0098736Y0228097D02*
X0098999Y0228730D01*
X0098999Y0236879D01*
X0098291Y0238588D01*
X0096983Y0239896D01*
X0096897Y0239932D01*
X0101801Y0239932D01*
X0101715Y0239896D01*
X0100407Y0238588D01*
X0099699Y0236879D01*
X0099699Y0228730D01*
X0100407Y0227021D01*
X0100797Y0226632D01*
X0100201Y0226632D01*
X0098736Y0228097D01*
X0098844Y0228356D02*
X0099854Y0228356D01*
X0099699Y0229355D02*
X0098999Y0229355D01*
X0098999Y0230353D02*
X0099699Y0230353D01*
X0099699Y0231352D02*
X0098999Y0231352D01*
X0098999Y0232350D02*
X0099699Y0232350D01*
X0099699Y0233349D02*
X0098999Y0233349D01*
X0098999Y0234347D02*
X0099699Y0234347D01*
X0099699Y0235346D02*
X0098999Y0235346D01*
X0098999Y0236344D02*
X0099699Y0236344D01*
X0099891Y0237343D02*
X0098807Y0237343D01*
X0098393Y0238341D02*
X0100305Y0238341D01*
X0101159Y0239340D02*
X0097539Y0239340D01*
X0091159Y0239340D02*
X0087539Y0239340D01*
X0088393Y0238341D02*
X0090305Y0238341D01*
X0089891Y0237343D02*
X0088807Y0237343D01*
X0088999Y0236344D02*
X0089699Y0236344D01*
X0089699Y0235346D02*
X0088999Y0235346D01*
X0088999Y0234347D02*
X0089699Y0234347D01*
X0089699Y0233349D02*
X0088999Y0233349D01*
X0088999Y0232350D02*
X0089699Y0232350D01*
X0089699Y0231352D02*
X0088999Y0231352D01*
X0088999Y0230353D02*
X0089699Y0230353D01*
X0089699Y0229355D02*
X0088999Y0229355D01*
X0088844Y0228356D02*
X0089854Y0228356D01*
X0090268Y0227358D02*
X0088430Y0227358D01*
X0087629Y0226359D02*
X0091070Y0226359D01*
X0092567Y0225361D02*
X0086131Y0225361D01*
X0082567Y0225361D02*
X0076162Y0225361D01*
X0074833Y0225361D02*
X0073865Y0225361D01*
X0073865Y0226359D02*
X0074833Y0226359D01*
X0074833Y0227358D02*
X0073865Y0227358D01*
X0073865Y0228356D02*
X0074833Y0228356D01*
X0074833Y0229355D02*
X0079699Y0229355D01*
X0079699Y0230353D02*
X0078999Y0230353D01*
X0078999Y0231352D02*
X0079699Y0231352D01*
X0079699Y0232350D02*
X0078999Y0232350D01*
X0078999Y0233349D02*
X0079699Y0233349D01*
X0079699Y0234347D02*
X0078999Y0234347D01*
X0078999Y0235346D02*
X0079699Y0235346D01*
X0079699Y0236344D02*
X0078995Y0236344D01*
X0078787Y0237343D02*
X0079891Y0237343D01*
X0080305Y0238341D02*
X0078351Y0238341D01*
X0077539Y0239340D02*
X0081159Y0239340D01*
X0071159Y0239340D02*
X0056592Y0239340D01*
X0057868Y0238341D02*
X0070347Y0238341D01*
X0069911Y0237343D02*
X0058866Y0237343D01*
X0059840Y0236344D02*
X0069703Y0236344D01*
X0069699Y0235346D02*
X0060253Y0235346D01*
X0060667Y0234347D02*
X0069699Y0234347D01*
X0069699Y0233349D02*
X0061080Y0233349D01*
X0061314Y0232350D02*
X0069699Y0232350D01*
X0069699Y0231352D02*
X0061314Y0231352D01*
X0061314Y0230353D02*
X0069699Y0230353D01*
X0069882Y0228356D02*
X0061094Y0228356D01*
X0061314Y0229355D02*
X0073865Y0229355D01*
X0070301Y0227358D02*
X0060680Y0227358D01*
X0060267Y0226359D02*
X0071070Y0226359D01*
X0072536Y0225361D02*
X0059853Y0225361D01*
X0058898Y0224362D02*
X0096814Y0224362D01*
X0097812Y0223364D02*
X0057900Y0223364D01*
X0067686Y0217373D02*
X0250393Y0217373D01*
X0251549Y0216374D02*
X0068904Y0216374D01*
X0059606Y0209632D02*
X0058606Y0209217D01*
X0058120Y0208732D01*
X0050148Y0208732D01*
X0050148Y0209418D01*
X0049935Y0209632D01*
X0050148Y0209845D01*
X0050148Y0210532D01*
X0058120Y0210532D01*
X0058606Y0210046D01*
X0059606Y0209632D01*
X0059009Y0209384D02*
X0050148Y0209384D01*
X0050148Y0210383D02*
X0058269Y0210383D01*
X0057633Y0199399D02*
X0064109Y0199399D01*
X0064109Y0198401D02*
X0056974Y0198401D01*
X0051693Y0198401D02*
X0039125Y0198401D01*
X0038417Y0197402D02*
X0069833Y0197402D01*
X0069833Y0196404D02*
X0070833Y0196404D01*
X0070833Y0197402D02*
X0147744Y0197402D01*
X0148743Y0196404D02*
X0076558Y0196404D01*
X0076558Y0195405D02*
X0082088Y0195405D01*
X0082183Y0195431D02*
X0081802Y0195329D01*
X0081460Y0195131D01*
X0081180Y0194852D01*
X0080983Y0194510D01*
X0080881Y0194128D01*
X0080881Y0191872D01*
X0084833Y0191872D01*
X0084833Y0190872D01*
X0080881Y0190872D01*
X0080881Y0188615D01*
X0080983Y0188234D01*
X0081180Y0187892D01*
X0081440Y0187632D01*
X0080881Y0187072D01*
X0080881Y0184388D01*
X0078624Y0182132D01*
X0076558Y0182132D01*
X0076558Y0183135D01*
X0075679Y0184013D01*
X0064988Y0184013D01*
X0064109Y0183135D01*
X0064109Y0181108D01*
X0057833Y0181108D01*
X0057833Y0189878D01*
X0057633Y0190361D01*
X0057633Y0192203D01*
X0056755Y0193082D01*
X0051912Y0193082D01*
X0051033Y0192203D01*
X0051033Y0190361D01*
X0050833Y0189878D01*
X0050833Y0181076D01*
X0050460Y0181076D01*
X0049581Y0180198D01*
X0049581Y0175018D01*
X0050460Y0174139D01*
X0053459Y0174139D01*
X0053535Y0174108D01*
X0064109Y0174108D01*
X0064109Y0172443D01*
X0064988Y0171565D01*
X0075679Y0171565D01*
X0076558Y0172443D01*
X0076558Y0175132D01*
X0080770Y0175132D01*
X0082056Y0175664D01*
X0086224Y0179832D01*
X0088907Y0179832D01*
X0089786Y0180711D01*
X0089786Y0187072D01*
X0089226Y0187632D01*
X0089486Y0187892D01*
X0089684Y0188234D01*
X0089786Y0188615D01*
X0089786Y0190872D01*
X0085833Y0190872D01*
X0085833Y0191872D01*
X0084833Y0191872D01*
X0084833Y0195431D01*
X0082183Y0195431D01*
X0080955Y0194407D02*
X0076558Y0194407D01*
X0076558Y0193408D02*
X0080881Y0193408D01*
X0080881Y0192410D02*
X0076520Y0192410D01*
X0075739Y0191411D02*
X0084833Y0191411D01*
X0084833Y0192410D02*
X0085833Y0192410D01*
X0085833Y0191872D02*
X0085833Y0195431D01*
X0088484Y0195431D01*
X0088865Y0195329D01*
X0089207Y0195131D01*
X0089486Y0194852D01*
X0089684Y0194510D01*
X0089786Y0194128D01*
X0089786Y0191872D01*
X0085833Y0191872D01*
X0085833Y0191411D02*
X0153735Y0191411D01*
X0152737Y0192410D02*
X0089786Y0192410D01*
X0089786Y0193408D02*
X0151738Y0193408D01*
X0150740Y0194407D02*
X0089711Y0194407D01*
X0088579Y0195405D02*
X0149741Y0195405D01*
X0146746Y0198401D02*
X0076558Y0198401D01*
X0076558Y0199399D02*
X0145747Y0199399D01*
X0144749Y0200398D02*
X0076558Y0200398D01*
X0076558Y0201396D02*
X0143750Y0201396D01*
X0154734Y0190413D02*
X0089786Y0190413D01*
X0089786Y0189414D02*
X0155732Y0189414D01*
X0156385Y0188416D02*
X0089733Y0188416D01*
X0089441Y0187417D02*
X0140655Y0187417D01*
X0140428Y0186419D02*
X0089786Y0186419D01*
X0089786Y0185420D02*
X0140428Y0185420D01*
X0140428Y0184422D02*
X0089786Y0184422D01*
X0089786Y0183423D02*
X0140428Y0183423D01*
X0140428Y0182425D02*
X0089786Y0182425D01*
X0089786Y0181426D02*
X0140428Y0181426D01*
X0140428Y0180428D02*
X0089503Y0180428D01*
X0085821Y0179429D02*
X0140428Y0179429D01*
X0140428Y0178431D02*
X0137546Y0178431D01*
X0138846Y0177432D02*
X0141069Y0177432D01*
X0142703Y0176434D02*
X0139302Y0176434D01*
X0140044Y0175435D02*
X0143701Y0175435D01*
X0144324Y0174437D02*
X0141498Y0174437D01*
X0142577Y0173438D02*
X0143825Y0173438D01*
X0143825Y0172440D02*
X0142709Y0172440D01*
X0142701Y0171441D02*
X0143825Y0171441D01*
X0143825Y0170443D02*
X0142701Y0170443D01*
X0142701Y0169444D02*
X0143825Y0169444D01*
X0143825Y0168445D02*
X0142701Y0168445D01*
X0142701Y0167447D02*
X0143825Y0167447D01*
X0145054Y0165911D02*
X0150609Y0165911D01*
X0150609Y0153736D01*
X0148631Y0151758D01*
X0147459Y0150586D01*
X0147459Y0141352D01*
X0145054Y0141352D01*
X0145054Y0165911D01*
X0145054Y0165450D02*
X0150609Y0165450D01*
X0150609Y0164451D02*
X0145054Y0164451D01*
X0145054Y0163453D02*
X0150609Y0163453D01*
X0150609Y0162454D02*
X0145054Y0162454D01*
X0145054Y0161456D02*
X0150609Y0161456D01*
X0150609Y0160457D02*
X0145054Y0160457D01*
X0145054Y0159459D02*
X0150609Y0159459D01*
X0150609Y0158460D02*
X0145054Y0158460D01*
X0145054Y0157462D02*
X0150609Y0157462D01*
X0150609Y0156463D02*
X0145054Y0156463D01*
X0145054Y0155465D02*
X0150609Y0155465D01*
X0150609Y0154466D02*
X0145054Y0154466D01*
X0145054Y0153468D02*
X0150341Y0153468D01*
X0149343Y0152469D02*
X0145054Y0152469D01*
X0145054Y0151471D02*
X0148344Y0151471D01*
X0147459Y0150472D02*
X0145054Y0150472D01*
X0145054Y0149474D02*
X0147459Y0149474D01*
X0147459Y0148475D02*
X0145054Y0148475D01*
X0145054Y0147477D02*
X0147459Y0147477D01*
X0147459Y0146478D02*
X0145054Y0146478D01*
X0145054Y0145480D02*
X0147459Y0145480D01*
X0147459Y0144481D02*
X0145054Y0144481D01*
X0145054Y0143483D02*
X0147459Y0143483D01*
X0147459Y0142484D02*
X0145054Y0142484D01*
X0145054Y0141486D02*
X0147459Y0141486D01*
X0143825Y0139489D02*
X0129406Y0139489D01*
X0127261Y0139489D02*
X0076558Y0139489D01*
X0076558Y0140487D02*
X0122164Y0140487D01*
X0121507Y0141486D02*
X0076558Y0141486D01*
X0076558Y0142484D02*
X0121283Y0142484D01*
X0121385Y0143483D02*
X0076558Y0143483D01*
X0076558Y0144481D02*
X0121870Y0144481D01*
X0123239Y0145480D02*
X0076558Y0145480D01*
X0076558Y0146478D02*
X0129383Y0146478D01*
X0129283Y0145480D02*
X0125427Y0145480D01*
X0129865Y0147477D02*
X0076558Y0147477D01*
X0076217Y0148475D02*
X0131229Y0148475D01*
X0133438Y0148475D02*
X0136148Y0148475D01*
X0136148Y0149474D02*
X0057731Y0149474D01*
X0057731Y0150472D02*
X0134523Y0150472D01*
X0133524Y0151471D02*
X0057731Y0151471D01*
X0057731Y0152469D02*
X0132526Y0152469D01*
X0131527Y0153468D02*
X0057731Y0153468D01*
X0057731Y0154466D02*
X0130529Y0154466D01*
X0129530Y0155465D02*
X0057731Y0155465D01*
X0058279Y0156463D02*
X0064837Y0156463D01*
X0064688Y0156549D02*
X0065030Y0156352D01*
X0065411Y0156250D01*
X0069833Y0156250D01*
X0069833Y0161974D01*
X0064109Y0161974D01*
X0064109Y0157552D01*
X0064211Y0157171D01*
X0064409Y0156829D01*
X0064688Y0156549D01*
X0064133Y0157462D02*
X0058881Y0157462D01*
X0058881Y0158460D02*
X0064109Y0158460D01*
X0064109Y0159459D02*
X0058881Y0159459D01*
X0058881Y0160457D02*
X0064109Y0160457D01*
X0064109Y0161456D02*
X0058881Y0161456D01*
X0058671Y0162454D02*
X0069833Y0162454D01*
X0069833Y0161974D02*
X0069833Y0162974D01*
X0064109Y0162974D01*
X0064109Y0167396D01*
X0064211Y0167777D01*
X0064409Y0168120D01*
X0064688Y0168399D01*
X0065030Y0168596D01*
X0065411Y0168698D01*
X0069833Y0168698D01*
X0069833Y0162974D01*
X0070833Y0162974D01*
X0070833Y0168698D01*
X0075255Y0168698D01*
X0075637Y0168596D01*
X0075979Y0168399D01*
X0076258Y0168120D01*
X0076455Y0167777D01*
X0076558Y0167396D01*
X0076558Y0162974D01*
X0070833Y0162974D01*
X0070833Y0161974D01*
X0070833Y0156250D01*
X0075255Y0156250D01*
X0075637Y0156352D01*
X0075979Y0156549D01*
X0076258Y0156829D01*
X0076455Y0157171D01*
X0076558Y0157552D01*
X0076558Y0161974D01*
X0070833Y0161974D01*
X0069833Y0161974D01*
X0069833Y0161456D02*
X0070833Y0161456D01*
X0070833Y0162454D02*
X0127233Y0162454D01*
X0127233Y0161456D02*
X0076558Y0161456D01*
X0076558Y0160457D02*
X0127233Y0160457D01*
X0127233Y0159459D02*
X0076558Y0159459D01*
X0076558Y0158460D02*
X0127233Y0158460D01*
X0127533Y0157462D02*
X0076534Y0157462D01*
X0075830Y0156463D02*
X0128532Y0156463D01*
X0131476Y0159459D02*
X0135536Y0159459D01*
X0135589Y0159406D02*
X0136148Y0159406D01*
X0136148Y0154786D01*
X0131433Y0159501D01*
X0131433Y0163562D01*
X0131463Y0163532D01*
X0135589Y0159406D01*
X0136148Y0158460D02*
X0132474Y0158460D01*
X0133473Y0157462D02*
X0136148Y0157462D01*
X0136148Y0156463D02*
X0134471Y0156463D01*
X0135470Y0155465D02*
X0136148Y0155465D01*
X0134538Y0160457D02*
X0131433Y0160457D01*
X0131433Y0161456D02*
X0133539Y0161456D01*
X0132541Y0162454D02*
X0131433Y0162454D01*
X0131433Y0163453D02*
X0131542Y0163453D01*
X0134486Y0166448D02*
X0136336Y0166448D01*
X0136148Y0166261D02*
X0136148Y0164786D01*
X0134433Y0166501D01*
X0134433Y0170418D01*
X0134919Y0170904D01*
X0135383Y0172025D01*
X0135383Y0172724D01*
X0135727Y0172582D01*
X0136862Y0172582D01*
X0138501Y0171327D01*
X0138501Y0167139D01*
X0137027Y0167139D01*
X0136148Y0166261D01*
X0136148Y0165450D02*
X0135485Y0165450D01*
X0134433Y0167447D02*
X0138501Y0167447D01*
X0138501Y0168445D02*
X0134433Y0168445D01*
X0134433Y0169444D02*
X0138501Y0169444D01*
X0138501Y0170443D02*
X0134458Y0170443D01*
X0135141Y0171441D02*
X0138352Y0171441D01*
X0137048Y0172440D02*
X0135383Y0172440D01*
X0133364Y0176434D02*
X0132302Y0176434D01*
X0131846Y0177432D02*
X0133820Y0177432D01*
X0135121Y0178431D02*
X0130546Y0178431D01*
X0128121Y0178431D02*
X0084822Y0178431D01*
X0083824Y0177432D02*
X0126820Y0177432D01*
X0126364Y0176434D02*
X0082825Y0176434D01*
X0081502Y0175435D02*
X0126283Y0175435D01*
X0126527Y0174437D02*
X0076558Y0174437D01*
X0076558Y0173438D02*
X0127213Y0173438D01*
X0127233Y0172440D02*
X0076554Y0172440D01*
X0075898Y0168445D02*
X0127233Y0168445D01*
X0127233Y0167447D02*
X0076544Y0167447D01*
X0076558Y0166448D02*
X0127233Y0166448D01*
X0127233Y0165450D02*
X0076558Y0165450D01*
X0076558Y0164451D02*
X0127233Y0164451D01*
X0127233Y0163453D02*
X0076558Y0163453D01*
X0070833Y0163453D02*
X0069833Y0163453D01*
X0069833Y0164451D02*
X0070833Y0164451D01*
X0070833Y0165450D02*
X0069833Y0165450D01*
X0069833Y0166448D02*
X0070833Y0166448D01*
X0070833Y0167447D02*
X0069833Y0167447D01*
X0069833Y0168445D02*
X0070833Y0168445D01*
X0064769Y0168445D02*
X0025991Y0168445D01*
X0025991Y0168132D02*
X0025991Y0169132D01*
X0024991Y0169132D01*
X0024991Y0180761D01*
X0013089Y0180761D01*
X0012707Y0180659D01*
X0012365Y0180462D01*
X0012086Y0180183D01*
X0011888Y0179840D01*
X0011786Y0179459D01*
X0011786Y0169132D01*
X0024991Y0169132D01*
X0024991Y0168132D01*
X0011786Y0168132D01*
X0011786Y0157804D01*
X0011888Y0157423D01*
X0012086Y0157081D01*
X0012365Y0156801D01*
X0012707Y0156604D01*
X0013089Y0156502D01*
X0024991Y0156502D01*
X0024991Y0168132D01*
X0025991Y0168132D01*
X0039196Y0168132D01*
X0039196Y0157804D01*
X0039093Y0157423D01*
X0038896Y0157081D01*
X0038617Y0156801D01*
X0038275Y0156604D01*
X0037893Y0156502D01*
X0025991Y0156502D01*
X0025991Y0168132D01*
X0025991Y0167447D02*
X0024991Y0167447D01*
X0024991Y0168445D02*
X0008083Y0168445D01*
X0008083Y0167447D02*
X0011786Y0167447D01*
X0011786Y0166448D02*
X0008083Y0166448D01*
X0008083Y0165450D02*
X0011786Y0165450D01*
X0011786Y0164451D02*
X0008083Y0164451D01*
X0008083Y0163453D02*
X0011786Y0163453D01*
X0011786Y0162454D02*
X0008083Y0162454D01*
X0008083Y0161456D02*
X0011786Y0161456D01*
X0011786Y0160457D02*
X0008083Y0160457D01*
X0008083Y0159459D02*
X0011786Y0159459D01*
X0011786Y0158460D02*
X0008083Y0158460D01*
X0008083Y0157462D02*
X0011878Y0157462D01*
X0008083Y0156463D02*
X0050183Y0156463D01*
X0050731Y0155465D02*
X0008083Y0155465D01*
X0008083Y0154466D02*
X0050731Y0154466D01*
X0050731Y0153468D02*
X0008083Y0153468D01*
X0008083Y0152469D02*
X0050731Y0152469D01*
X0050731Y0151471D02*
X0008083Y0151471D01*
X0008083Y0150472D02*
X0050731Y0150472D01*
X0050731Y0149474D02*
X0008083Y0149474D01*
X0008083Y0148475D02*
X0050731Y0148475D01*
X0050731Y0147477D02*
X0008083Y0147477D01*
X0008083Y0146478D02*
X0050731Y0146478D01*
X0049863Y0145480D02*
X0038585Y0145480D01*
X0038617Y0145462D02*
X0038275Y0145659D01*
X0037893Y0145761D01*
X0025991Y0145761D01*
X0025991Y0134132D01*
X0024991Y0134132D01*
X0024991Y0145761D01*
X0013089Y0145761D01*
X0012707Y0145659D01*
X0012365Y0145462D01*
X0012086Y0145183D01*
X0011888Y0144840D01*
X0011786Y0144459D01*
X0011786Y0134132D01*
X0024991Y0134132D01*
X0024991Y0133132D01*
X0011786Y0133132D01*
X0011786Y0122804D01*
X0011888Y0122423D01*
X0012086Y0122081D01*
X0012365Y0121801D01*
X0012707Y0121604D01*
X0013089Y0121502D01*
X0024991Y0121502D01*
X0024991Y0133132D01*
X0025991Y0133132D01*
X0025991Y0134132D01*
X0039196Y0134132D01*
X0039196Y0144459D01*
X0039093Y0144840D01*
X0038896Y0145183D01*
X0038617Y0145462D01*
X0039190Y0144481D02*
X0049581Y0144481D01*
X0049581Y0143483D02*
X0039196Y0143483D01*
X0039196Y0142484D02*
X0049157Y0142484D01*
X0048159Y0141486D02*
X0039196Y0141486D01*
X0039196Y0140487D02*
X0047160Y0140487D01*
X0046162Y0139489D02*
X0039196Y0139489D01*
X0039196Y0138490D02*
X0045163Y0138490D01*
X0044165Y0137492D02*
X0039196Y0137492D01*
X0039196Y0136493D02*
X0043166Y0136493D01*
X0042168Y0135495D02*
X0039196Y0135495D01*
X0039196Y0134496D02*
X0041285Y0134496D01*
X0040871Y0133498D02*
X0025991Y0133498D01*
X0025991Y0133132D02*
X0039196Y0133132D01*
X0039196Y0122804D01*
X0039093Y0122423D01*
X0038896Y0122081D01*
X0038617Y0121801D01*
X0038275Y0121604D01*
X0037893Y0121502D01*
X0025991Y0121502D01*
X0025991Y0133132D01*
X0025991Y0132499D02*
X0024991Y0132499D01*
X0024991Y0131501D02*
X0025991Y0131501D01*
X0025991Y0130502D02*
X0024991Y0130502D01*
X0024991Y0129504D02*
X0025991Y0129504D01*
X0025991Y0128505D02*
X0024991Y0128505D01*
X0024991Y0127507D02*
X0025991Y0127507D01*
X0025991Y0126508D02*
X0024991Y0126508D01*
X0024991Y0125510D02*
X0025991Y0125510D01*
X0025991Y0124511D02*
X0024991Y0124511D01*
X0024991Y0123512D02*
X0025991Y0123512D01*
X0025991Y0122514D02*
X0024991Y0122514D01*
X0024991Y0121515D02*
X0025991Y0121515D01*
X0025328Y0116632D02*
X0023339Y0116632D01*
X0021501Y0115870D01*
X0020095Y0114464D01*
X0019333Y0112626D01*
X0018572Y0114464D01*
X0017166Y0115870D01*
X0015328Y0116632D01*
X0013339Y0116632D01*
X0011501Y0115870D01*
X0010095Y0114464D01*
X0009333Y0112626D01*
X0009333Y0110637D01*
X0010095Y0108799D01*
X0011501Y0107393D01*
X0013339Y0106632D01*
X0015328Y0106632D01*
X0017166Y0107393D01*
X0018572Y0108799D01*
X0019333Y0110637D01*
X0019333Y0112626D01*
X0019333Y0110637D01*
X0020095Y0108799D01*
X0021501Y0107393D01*
X0023339Y0106632D01*
X0025328Y0106632D01*
X0027166Y0107393D01*
X0028572Y0108799D01*
X0029333Y0110637D01*
X0029333Y0112626D01*
X0028572Y0114464D01*
X0027166Y0115870D01*
X0025328Y0116632D01*
X0025590Y0116523D02*
X0033254Y0116523D01*
X0033162Y0116508D02*
X0032414Y0116265D01*
X0031713Y0115908D01*
X0031076Y0115445D01*
X0030520Y0114889D01*
X0030057Y0114252D01*
X0029700Y0113551D01*
X0029456Y0112802D01*
X0029333Y0112025D01*
X0029333Y0111939D01*
X0034026Y0111939D01*
X0034026Y0116632D01*
X0033940Y0116632D01*
X0033162Y0116508D01*
X0034026Y0116523D02*
X0034640Y0116523D01*
X0034640Y0116632D02*
X0034727Y0116632D01*
X0035504Y0116508D01*
X0036253Y0116265D01*
X0036954Y0115908D01*
X0037591Y0115445D01*
X0038147Y0114889D01*
X0038610Y0114252D01*
X0038967Y0113551D01*
X0039210Y0112802D01*
X0039333Y0112025D01*
X0039333Y0111939D01*
X0034640Y0111939D01*
X0034026Y0111939D01*
X0034026Y0111324D01*
X0034640Y0111324D01*
X0034640Y0106632D01*
X0034727Y0106632D01*
X0035504Y0106755D01*
X0036253Y0106998D01*
X0036954Y0107355D01*
X0037591Y0107818D01*
X0038147Y0108374D01*
X0038610Y0109011D01*
X0038967Y0109712D01*
X0039210Y0110461D01*
X0039333Y0111238D01*
X0039333Y0111324D01*
X0034640Y0111324D01*
X0034640Y0111939D01*
X0034640Y0116632D01*
X0035413Y0116523D02*
X0044492Y0116523D01*
X0043494Y0117521D02*
X0008083Y0117521D01*
X0008083Y0116523D02*
X0013076Y0116523D01*
X0011155Y0115524D02*
X0008083Y0115524D01*
X0008083Y0114526D02*
X0010157Y0114526D01*
X0009707Y0113527D02*
X0008083Y0113527D01*
X0008083Y0112529D02*
X0009333Y0112529D01*
X0009333Y0111530D02*
X0008083Y0111530D01*
X0008083Y0110532D02*
X0009377Y0110532D01*
X0009790Y0109533D02*
X0008083Y0109533D01*
X0008083Y0108535D02*
X0010359Y0108535D01*
X0011358Y0107536D02*
X0008083Y0107536D01*
X0008083Y0106538D02*
X0012168Y0106538D01*
X0012262Y0106632D02*
X0009333Y0103703D01*
X0009333Y0099561D01*
X0012262Y0096632D01*
X0016404Y0096632D01*
X0019333Y0099561D01*
X0019333Y0103703D01*
X0016404Y0106632D01*
X0012262Y0106632D01*
X0011170Y0105539D02*
X0008083Y0105539D01*
X0008083Y0104541D02*
X0010171Y0104541D01*
X0009333Y0103542D02*
X0008083Y0103542D01*
X0008083Y0102544D02*
X0009333Y0102544D01*
X0009333Y0101545D02*
X0008083Y0101545D01*
X0008083Y0100547D02*
X0009333Y0100547D01*
X0009346Y0099548D02*
X0008083Y0099548D01*
X0008083Y0098550D02*
X0010344Y0098550D01*
X0011343Y0097551D02*
X0008083Y0097551D01*
X0008083Y0096553D02*
X0064861Y0096553D01*
X0064861Y0097551D02*
X0055693Y0097551D01*
X0057495Y0098550D02*
X0064861Y0098550D01*
X0064861Y0099548D02*
X0058494Y0099548D01*
X0059492Y0100547D02*
X0064861Y0100547D01*
X0064058Y0101545D02*
X0060099Y0101545D01*
X0060513Y0102544D02*
X0063318Y0102544D01*
X0063318Y0103542D02*
X0060926Y0103542D01*
X0061314Y0104541D02*
X0063318Y0104541D01*
X0063318Y0105539D02*
X0061314Y0105539D01*
X0061314Y0106538D02*
X0063318Y0106538D01*
X0063318Y0107536D02*
X0061314Y0107536D01*
X0061248Y0108535D02*
X0063318Y0108535D01*
X0063318Y0109533D02*
X0060834Y0109533D01*
X0060421Y0110532D02*
X0063318Y0110532D01*
X0063318Y0111530D02*
X0060007Y0111530D01*
X0059271Y0112529D02*
X0063318Y0112529D01*
X0063868Y0113527D02*
X0058272Y0113527D01*
X0050131Y0121515D02*
X0049399Y0121515D01*
X0049581Y0122514D02*
X0048401Y0122514D01*
X0047833Y0123512D02*
X0049581Y0123512D01*
X0049581Y0124511D02*
X0047833Y0124511D01*
X0047833Y0125510D02*
X0049581Y0125510D01*
X0049581Y0126508D02*
X0047833Y0126508D01*
X0047833Y0127507D02*
X0049843Y0127507D01*
X0047833Y0128505D02*
X0066314Y0128505D01*
X0065910Y0129504D02*
X0047833Y0129504D01*
X0047833Y0130502D02*
X0065881Y0130502D01*
X0065881Y0131501D02*
X0048073Y0131501D01*
X0049072Y0132499D02*
X0069833Y0132499D01*
X0069833Y0132872D02*
X0065881Y0132872D01*
X0065881Y0135128D01*
X0065983Y0135510D01*
X0066180Y0135852D01*
X0066460Y0136131D01*
X0066802Y0136329D01*
X0067183Y0136431D01*
X0069833Y0136431D01*
X0069833Y0132872D01*
X0069833Y0133498D02*
X0070833Y0133498D01*
X0070833Y0132872D02*
X0070833Y0136431D01*
X0073484Y0136431D01*
X0073865Y0136329D01*
X0074207Y0136131D01*
X0074486Y0135852D01*
X0074684Y0135510D01*
X0074786Y0135128D01*
X0074786Y0132872D01*
X0070833Y0132872D01*
X0070833Y0132499D02*
X0144652Y0132499D01*
X0143825Y0133498D02*
X0074786Y0133498D01*
X0074786Y0134496D02*
X0126155Y0134496D01*
X0125503Y0135495D02*
X0074688Y0135495D01*
X0076558Y0137492D02*
X0125388Y0137492D01*
X0125283Y0136493D02*
X0053066Y0136493D01*
X0052067Y0135495D02*
X0065979Y0135495D01*
X0065881Y0134496D02*
X0051069Y0134496D01*
X0050070Y0133498D02*
X0065881Y0133498D01*
X0069833Y0134496D02*
X0070833Y0134496D01*
X0070833Y0135495D02*
X0069833Y0135495D01*
X0064109Y0137492D02*
X0054064Y0137492D01*
X0055063Y0138490D02*
X0064109Y0138490D01*
X0064109Y0146478D02*
X0057731Y0146478D01*
X0057731Y0147477D02*
X0064109Y0147477D01*
X0064449Y0148475D02*
X0057731Y0148475D01*
X0049581Y0157462D02*
X0039104Y0157462D01*
X0039196Y0158460D02*
X0049581Y0158460D01*
X0049581Y0159459D02*
X0039196Y0159459D01*
X0039196Y0160457D02*
X0049581Y0160457D01*
X0049581Y0161456D02*
X0039196Y0161456D01*
X0039196Y0162454D02*
X0049791Y0162454D01*
X0039196Y0163453D02*
X0064109Y0163453D01*
X0064109Y0164451D02*
X0039196Y0164451D01*
X0039196Y0165450D02*
X0064109Y0165450D01*
X0064109Y0166448D02*
X0039196Y0166448D01*
X0039196Y0167447D02*
X0064123Y0167447D01*
X0064113Y0172440D02*
X0039196Y0172440D01*
X0039196Y0173438D02*
X0064109Y0173438D01*
X0064109Y0181426D02*
X0057833Y0181426D01*
X0057833Y0182425D02*
X0064109Y0182425D01*
X0064397Y0183423D02*
X0057833Y0183423D01*
X0057833Y0184422D02*
X0080881Y0184422D01*
X0080881Y0185420D02*
X0057833Y0185420D01*
X0057833Y0186419D02*
X0080881Y0186419D01*
X0081226Y0187417D02*
X0057833Y0187417D01*
X0057833Y0188416D02*
X0080934Y0188416D01*
X0080881Y0189414D02*
X0057833Y0189414D01*
X0057633Y0190413D02*
X0080881Y0190413D01*
X0084833Y0193408D02*
X0085833Y0193408D01*
X0085833Y0194407D02*
X0084833Y0194407D01*
X0084833Y0195405D02*
X0085833Y0195405D01*
X0070833Y0195405D02*
X0069833Y0195405D01*
X0069833Y0194407D02*
X0070833Y0194407D01*
X0070833Y0193408D02*
X0069833Y0193408D01*
X0069833Y0192410D02*
X0070833Y0192410D01*
X0070833Y0191411D02*
X0069833Y0191411D01*
X0064927Y0191411D02*
X0057633Y0191411D01*
X0057426Y0192410D02*
X0064147Y0192410D01*
X0064109Y0193408D02*
X0050148Y0193408D01*
X0050148Y0193994D02*
X0050148Y0192116D01*
X0047164Y0192116D01*
X0046196Y0192116D01*
X0046196Y0195297D01*
X0044514Y0195297D01*
X0044132Y0195195D01*
X0043790Y0194997D01*
X0043511Y0194718D01*
X0043381Y0194493D01*
X0042577Y0195297D01*
X0037397Y0195297D01*
X0036518Y0194418D01*
X0036518Y0193932D01*
X0035676Y0193932D01*
X0035676Y0195206D01*
X0034797Y0196084D01*
X0027649Y0196084D01*
X0026770Y0195206D01*
X0026770Y0188057D01*
X0027649Y0187179D01*
X0034797Y0187179D01*
X0035676Y0188057D01*
X0035676Y0189332D01*
X0036518Y0189332D01*
X0036518Y0188845D01*
X0037397Y0187966D01*
X0042577Y0187966D01*
X0043381Y0188770D01*
X0043511Y0188545D01*
X0043790Y0188266D01*
X0044132Y0188068D01*
X0044514Y0187966D01*
X0046196Y0187966D01*
X0046196Y0191147D01*
X0047164Y0191147D01*
X0047164Y0187966D01*
X0048846Y0187966D01*
X0049227Y0188068D01*
X0049569Y0188266D01*
X0049849Y0188545D01*
X0050046Y0188887D01*
X0050148Y0189269D01*
X0050148Y0191147D01*
X0047164Y0191147D01*
X0047164Y0192116D01*
X0047164Y0195297D01*
X0048846Y0195297D01*
X0049227Y0195195D01*
X0049569Y0194997D01*
X0049849Y0194718D01*
X0050046Y0194376D01*
X0050148Y0193994D01*
X0050028Y0194407D02*
X0064109Y0194407D01*
X0064109Y0195405D02*
X0035476Y0195405D01*
X0035676Y0194407D02*
X0036518Y0194407D01*
X0026970Y0195405D02*
X0021697Y0195405D01*
X0021896Y0194407D02*
X0026770Y0194407D01*
X0026770Y0193408D02*
X0021896Y0193408D01*
X0021896Y0192410D02*
X0026770Y0192410D01*
X0026770Y0191411D02*
X0021896Y0191411D01*
X0021896Y0190413D02*
X0026770Y0190413D01*
X0026770Y0189414D02*
X0021896Y0189414D01*
X0021896Y0188416D02*
X0026770Y0188416D01*
X0027411Y0187417D02*
X0021256Y0187417D01*
X0013631Y0187417D02*
X0008083Y0187417D01*
X0008083Y0186419D02*
X0050833Y0186419D01*
X0050833Y0187417D02*
X0035036Y0187417D01*
X0035676Y0188416D02*
X0036948Y0188416D01*
X0043026Y0188416D02*
X0043640Y0188416D01*
X0046196Y0188416D02*
X0047164Y0188416D01*
X0047164Y0189414D02*
X0046196Y0189414D01*
X0046196Y0190413D02*
X0047164Y0190413D01*
X0047164Y0191411D02*
X0051033Y0191411D01*
X0051033Y0190413D02*
X0050148Y0190413D01*
X0050148Y0189414D02*
X0050833Y0189414D01*
X0050833Y0188416D02*
X0049719Y0188416D01*
X0050833Y0185420D02*
X0008083Y0185420D01*
X0008083Y0184422D02*
X0050833Y0184422D01*
X0050833Y0183423D02*
X0008083Y0183423D01*
X0008083Y0182425D02*
X0050833Y0182425D01*
X0050833Y0181426D02*
X0008083Y0181426D01*
X0008083Y0180428D02*
X0012331Y0180428D01*
X0011786Y0179429D02*
X0008083Y0179429D01*
X0008083Y0178431D02*
X0011786Y0178431D01*
X0011786Y0177432D02*
X0008083Y0177432D01*
X0008083Y0176434D02*
X0011786Y0176434D01*
X0011786Y0175435D02*
X0008083Y0175435D01*
X0008083Y0174437D02*
X0011786Y0174437D01*
X0011786Y0173438D02*
X0008083Y0173438D01*
X0008083Y0172440D02*
X0011786Y0172440D01*
X0011786Y0171441D02*
X0008083Y0171441D01*
X0008083Y0170443D02*
X0011786Y0170443D01*
X0011786Y0169444D02*
X0008083Y0169444D01*
X0024991Y0169444D02*
X0025991Y0169444D01*
X0025991Y0169132D02*
X0025991Y0180761D01*
X0037893Y0180761D01*
X0038275Y0180659D01*
X0038617Y0180462D01*
X0038896Y0180183D01*
X0039093Y0179840D01*
X0039196Y0179459D01*
X0039196Y0169132D01*
X0025991Y0169132D01*
X0025991Y0170443D02*
X0024991Y0170443D01*
X0024991Y0171441D02*
X0025991Y0171441D01*
X0025991Y0172440D02*
X0024991Y0172440D01*
X0024991Y0173438D02*
X0025991Y0173438D01*
X0025991Y0174437D02*
X0024991Y0174437D01*
X0024991Y0175435D02*
X0025991Y0175435D01*
X0025991Y0176434D02*
X0024991Y0176434D01*
X0024991Y0177432D02*
X0025991Y0177432D01*
X0025991Y0178431D02*
X0024991Y0178431D01*
X0024991Y0179429D02*
X0025991Y0179429D01*
X0025991Y0180428D02*
X0024991Y0180428D01*
X0038651Y0180428D02*
X0049811Y0180428D01*
X0049581Y0179429D02*
X0039196Y0179429D01*
X0039196Y0178431D02*
X0049581Y0178431D01*
X0049581Y0177432D02*
X0039196Y0177432D01*
X0039196Y0176434D02*
X0049581Y0176434D01*
X0049581Y0175435D02*
X0039196Y0175435D01*
X0039196Y0174437D02*
X0050163Y0174437D01*
X0039196Y0171441D02*
X0127233Y0171441D01*
X0127233Y0170443D02*
X0039196Y0170443D01*
X0039196Y0169444D02*
X0127233Y0169444D01*
X0143109Y0178856D02*
X0146333Y0175632D01*
X0146333Y0170387D01*
X0146310Y0170364D01*
X0149333Y0170490D02*
X0149459Y0170364D01*
X0149333Y0170490D02*
X0149333Y0175632D01*
X0152558Y0178856D01*
X0152558Y0182632D01*
X0155239Y0182425D02*
X0156608Y0182425D01*
X0156608Y0183423D02*
X0155239Y0183423D01*
X0155239Y0184422D02*
X0156608Y0184422D01*
X0156608Y0185420D02*
X0155239Y0185420D01*
X0155239Y0186419D02*
X0156608Y0186419D01*
X0156608Y0187417D02*
X0155012Y0187417D01*
X0155239Y0181426D02*
X0156608Y0181426D01*
X0156608Y0180428D02*
X0155239Y0180428D01*
X0155239Y0179429D02*
X0156608Y0179429D01*
X0156608Y0178431D02*
X0155239Y0178431D01*
X0154598Y0177432D02*
X0156608Y0177432D01*
X0156608Y0176434D02*
X0152964Y0176434D01*
X0151965Y0175435D02*
X0156608Y0175435D01*
X0155758Y0174437D02*
X0155759Y0174437D01*
X0155758Y0173438D02*
X0155759Y0173438D01*
X0155758Y0172440D02*
X0155759Y0172440D01*
X0155758Y0171441D02*
X0155759Y0171441D01*
X0155758Y0170443D02*
X0155759Y0170443D01*
X0148068Y0177195D02*
X0147833Y0176960D01*
X0147599Y0177195D01*
X0147743Y0177195D01*
X0147743Y0182541D01*
X0147924Y0182541D01*
X0147924Y0177195D01*
X0148068Y0177195D01*
X0147924Y0177432D02*
X0147743Y0177432D01*
X0147743Y0178431D02*
X0147924Y0178431D01*
X0147924Y0179429D02*
X0147743Y0179429D01*
X0147743Y0180428D02*
X0147924Y0180428D01*
X0147924Y0181426D02*
X0147743Y0181426D01*
X0147743Y0182425D02*
X0147924Y0182425D01*
X0147924Y0183423D02*
X0147743Y0183423D01*
X0147743Y0184422D02*
X0147924Y0184422D01*
X0147924Y0185420D02*
X0147743Y0185420D01*
X0147743Y0186419D02*
X0147924Y0186419D01*
X0147924Y0187417D02*
X0147743Y0187417D01*
X0143109Y0182632D02*
X0143109Y0178856D01*
X0178518Y0164451D02*
X0180325Y0164451D01*
X0189667Y0150472D02*
X0195179Y0150472D01*
X0189003Y0145480D02*
X0187660Y0145480D01*
X0188005Y0146478D02*
X0186662Y0146478D01*
X0187006Y0147477D02*
X0185663Y0147477D01*
X0186008Y0148475D02*
X0184665Y0148475D01*
X0185009Y0149474D02*
X0183666Y0149474D01*
X0183083Y0150057D02*
X0184426Y0150057D01*
X0190036Y0144447D01*
X0188693Y0144447D01*
X0183083Y0150057D01*
X0180576Y0146907D02*
X0179886Y0146907D01*
X0185162Y0141632D01*
X0185162Y0141632D01*
X0185668Y0141125D01*
X0185668Y0141815D01*
X0180576Y0146907D01*
X0180315Y0146478D02*
X0181005Y0146478D01*
X0181314Y0145480D02*
X0182003Y0145480D01*
X0182312Y0144481D02*
X0183002Y0144481D01*
X0183311Y0143483D02*
X0184000Y0143483D01*
X0184309Y0142484D02*
X0184999Y0142484D01*
X0185308Y0141486D02*
X0185668Y0141486D01*
X0186333Y0137723D02*
X0186425Y0137632D01*
X0186333Y0137540D01*
X0186333Y0137723D01*
X0180649Y0140487D02*
X0178003Y0140487D01*
X0178518Y0141486D02*
X0179651Y0141486D01*
X0178652Y0142484D02*
X0178518Y0142484D01*
X0188659Y0144481D02*
X0190002Y0144481D01*
X0163207Y0131501D02*
X0152946Y0131501D01*
X0150285Y0128505D02*
X0074353Y0128505D01*
X0074756Y0129504D02*
X0149286Y0129504D01*
X0148288Y0130502D02*
X0074786Y0130502D01*
X0074786Y0131501D02*
X0147459Y0131501D01*
X0143825Y0134496D02*
X0130511Y0134496D01*
X0128333Y0136632D02*
X0146042Y0136632D01*
X0146310Y0136899D01*
X0146333Y0136876D01*
X0140601Y0142608D02*
X0140577Y0142632D01*
X0124333Y0142632D01*
X0126502Y0140487D02*
X0136663Y0140487D01*
X0140475Y0145632D02*
X0132333Y0145632D01*
X0140475Y0145632D02*
X0140601Y0145758D01*
X0125879Y0138490D02*
X0076558Y0138490D01*
X0076408Y0127507D02*
X0150322Y0127507D01*
X0150322Y0126508D02*
X0101359Y0126508D01*
X0099308Y0126508D02*
X0077407Y0126508D01*
X0078405Y0125510D02*
X0097898Y0125510D01*
X0097396Y0124511D02*
X0079404Y0124511D01*
X0080402Y0123512D02*
X0097283Y0123512D01*
X0097495Y0122514D02*
X0081401Y0122514D01*
X0082399Y0121515D02*
X0098136Y0121515D01*
X0086393Y0117521D02*
X0150842Y0117521D01*
X0150613Y0123512D02*
X0145348Y0123512D01*
X0143707Y0124511D02*
X0150852Y0124511D01*
X0150322Y0125510D02*
X0142708Y0125510D01*
X0141195Y0120517D02*
X0083398Y0120517D01*
X0084396Y0119518D02*
X0141493Y0119518D01*
X0142132Y0118520D02*
X0085395Y0118520D01*
X0080159Y0113856D02*
X0079833Y0114182D01*
X0079833Y0113548D01*
X0080141Y0113856D01*
X0080159Y0113856D01*
X0064861Y0095554D02*
X0008083Y0095554D01*
X0008083Y0094556D02*
X0064861Y0094556D01*
X0064861Y0093557D02*
X0008083Y0093557D01*
X0008083Y0092559D02*
X0064861Y0092559D01*
X0064861Y0091560D02*
X0008083Y0091560D01*
X0008083Y0090562D02*
X0064861Y0090562D01*
X0064861Y0089563D02*
X0008083Y0089563D01*
X0008083Y0088565D02*
X0064861Y0088565D01*
X0064861Y0087566D02*
X0008083Y0087566D01*
X0008083Y0086568D02*
X0064861Y0086568D01*
X0064861Y0085569D02*
X0008083Y0085569D01*
X0008083Y0084571D02*
X0064861Y0084571D01*
X0064861Y0083572D02*
X0008083Y0083572D01*
X0008083Y0082574D02*
X0064137Y0082574D01*
X0063138Y0081575D02*
X0059781Y0081575D01*
X0061392Y0080577D02*
X0062140Y0080577D01*
X0054508Y0081575D02*
X0036159Y0081575D01*
X0037755Y0080577D02*
X0052897Y0080577D01*
X0051898Y0079578D02*
X0038687Y0079578D01*
X0039326Y0078579D02*
X0051330Y0078579D01*
X0050916Y0077581D02*
X0039729Y0077581D01*
X0039953Y0076582D02*
X0050644Y0076582D01*
X0050644Y0075584D02*
X0040022Y0075584D01*
X0040022Y0074585D02*
X0050644Y0074585D01*
X0050644Y0073587D02*
X0040022Y0073587D01*
X0040022Y0072588D02*
X0050644Y0072588D01*
X0050644Y0071590D02*
X0040022Y0071590D01*
X0040022Y0069593D02*
X0050644Y0069593D01*
X0050644Y0070591D02*
X0037622Y0070591D01*
X0040022Y0068594D02*
X0050644Y0068594D01*
X0050644Y0067596D02*
X0040022Y0067596D01*
X0040022Y0066597D02*
X0050644Y0066597D01*
X0050644Y0065599D02*
X0040022Y0065599D01*
X0039943Y0064600D02*
X0050644Y0064600D01*
X0050950Y0063602D02*
X0039708Y0063602D01*
X0039279Y0062603D02*
X0051363Y0062603D01*
X0051979Y0061605D02*
X0038625Y0061605D01*
X0037651Y0060606D02*
X0052977Y0060606D01*
X0053131Y0057611D02*
X0078912Y0057611D01*
X0078912Y0058609D02*
X0008083Y0058609D01*
X0008083Y0059608D02*
X0031080Y0059608D01*
X0029394Y0060606D02*
X0008083Y0060606D01*
X0008083Y0061605D02*
X0028419Y0061605D01*
X0027765Y0062603D02*
X0008083Y0062603D01*
X0008083Y0063602D02*
X0027337Y0063602D01*
X0027102Y0064600D02*
X0008083Y0064600D01*
X0008083Y0065599D02*
X0027022Y0065599D01*
X0027022Y0066597D02*
X0008083Y0066597D01*
X0008083Y0067596D02*
X0027022Y0067596D01*
X0027022Y0068594D02*
X0008083Y0068594D01*
X0008083Y0069593D02*
X0027022Y0069593D01*
X0027022Y0071590D02*
X0008083Y0071590D01*
X0008083Y0072588D02*
X0027022Y0072588D01*
X0027022Y0073587D02*
X0008083Y0073587D01*
X0008083Y0074585D02*
X0027022Y0074585D01*
X0027022Y0075584D02*
X0008083Y0075584D01*
X0008083Y0076582D02*
X0027091Y0076582D01*
X0027315Y0077581D02*
X0008083Y0077581D01*
X0008083Y0078579D02*
X0027719Y0078579D01*
X0028357Y0079578D02*
X0008083Y0079578D01*
X0008083Y0080577D02*
X0029289Y0080577D01*
X0030886Y0081575D02*
X0008083Y0081575D01*
X0008083Y0070591D02*
X0029422Y0070591D01*
X0033222Y0060606D02*
X0033822Y0060606D01*
X0033822Y0059608D02*
X0033222Y0059608D01*
X0035722Y0051620D02*
X0009987Y0051620D01*
X0014463Y0047626D02*
X0035293Y0047626D01*
X0036311Y0046627D02*
X0017436Y0046627D01*
X0045033Y0056612D02*
X0045633Y0056612D01*
X0045633Y0057611D02*
X0045033Y0057611D01*
X0054945Y0051620D02*
X0120959Y0051620D01*
X0120959Y0052618D02*
X0090954Y0052618D01*
X0091719Y0053617D02*
X0120959Y0053617D01*
X0120959Y0054615D02*
X0112787Y0054615D01*
X0113891Y0055614D02*
X0120959Y0055614D01*
X0124322Y0054615D02*
X0125321Y0054615D01*
X0125321Y0053617D02*
X0124322Y0053617D01*
X0124322Y0052618D02*
X0125321Y0052618D01*
X0125321Y0051620D02*
X0124322Y0051620D01*
X0124322Y0050621D02*
X0125321Y0050621D01*
X0121513Y0050621D02*
X0056743Y0050621D01*
X0056494Y0049623D02*
X0394637Y0049623D01*
X0393863Y0048624D02*
X0056043Y0048624D01*
X0055374Y0047626D02*
X0392489Y0047626D01*
X0390065Y0046627D02*
X0054355Y0046627D01*
X0059587Y0059608D02*
X0078912Y0059608D01*
X0085833Y0060606D02*
X0103409Y0060606D01*
X0104407Y0059608D02*
X0091755Y0059608D01*
X0091755Y0058609D02*
X0105406Y0058609D01*
X0105723Y0057611D02*
X0091755Y0057611D01*
X0091755Y0056612D02*
X0106137Y0056612D01*
X0106776Y0055614D02*
X0091755Y0055614D01*
X0091755Y0054615D02*
X0107880Y0054615D01*
X0102410Y0061605D02*
X0091755Y0061605D01*
X0091755Y0062603D02*
X0101412Y0062603D01*
X0100413Y0063602D02*
X0091755Y0063602D01*
X0091755Y0064600D02*
X0099415Y0064600D01*
X0098416Y0065599D02*
X0091755Y0065599D01*
X0091755Y0066597D02*
X0097418Y0066597D01*
X0096419Y0067596D02*
X0091755Y0067596D01*
X0091485Y0068594D02*
X0095421Y0068594D01*
X0099329Y0074585D02*
X0107804Y0074585D01*
X0106805Y0075584D02*
X0098331Y0075584D01*
X0091418Y0078579D02*
X0105436Y0078579D01*
X0105684Y0077581D02*
X0080334Y0077581D01*
X0081332Y0076582D02*
X0105807Y0076582D01*
X0104437Y0079578D02*
X0091755Y0079578D01*
X0091755Y0080577D02*
X0103439Y0080577D01*
X0102440Y0081575D02*
X0091755Y0081575D01*
X0091755Y0082574D02*
X0101442Y0082574D01*
X0105350Y0088565D02*
X0133087Y0088565D01*
X0132475Y0089563D02*
X0104112Y0089563D01*
X0139707Y0083572D02*
X0162270Y0083572D01*
X0161271Y0082574D02*
X0139707Y0082574D01*
X0139707Y0081575D02*
X0160273Y0081575D01*
X0152933Y0080577D02*
X0139707Y0080577D01*
X0139707Y0079578D02*
X0152933Y0079578D01*
X0152933Y0078579D02*
X0139707Y0078579D01*
X0139707Y0077581D02*
X0152933Y0077581D01*
X0152933Y0076582D02*
X0139707Y0076582D01*
X0139707Y0075584D02*
X0152933Y0075584D01*
X0152996Y0074585D02*
X0138896Y0074585D01*
X0138970Y0062603D02*
X0153053Y0062603D01*
X0152933Y0061605D02*
X0139707Y0061605D01*
X0132720Y0062603D02*
X0127831Y0062603D01*
X0127763Y0062643D02*
X0127381Y0062745D01*
X0125321Y0062745D01*
X0125321Y0057021D01*
X0125322Y0057021D02*
X0128684Y0057021D01*
X0128684Y0061442D01*
X0128581Y0061824D01*
X0128384Y0062166D01*
X0128105Y0062445D01*
X0127763Y0062643D01*
X0128640Y0061605D02*
X0131983Y0061605D01*
X0131983Y0060606D02*
X0128684Y0060606D01*
X0128684Y0059608D02*
X0131983Y0059608D01*
X0131983Y0058609D02*
X0128684Y0058609D01*
X0128684Y0057611D02*
X0131983Y0057611D01*
X0125321Y0057611D02*
X0124322Y0057611D01*
X0124322Y0058609D02*
X0125321Y0058609D01*
X0125321Y0059608D02*
X0124322Y0059608D01*
X0124322Y0060606D02*
X0125321Y0060606D01*
X0125321Y0061605D02*
X0124322Y0061605D01*
X0124322Y0062603D02*
X0125321Y0062603D01*
X0113876Y0065599D02*
X0378833Y0065599D01*
X0379107Y0066597D02*
X0347117Y0066597D01*
X0348116Y0067596D02*
X0380105Y0067596D01*
X0381104Y0068594D02*
X0349114Y0068594D01*
X0342009Y0062603D02*
X0341009Y0062603D01*
X0341009Y0061605D02*
X0342009Y0061605D01*
X0342009Y0060606D02*
X0341009Y0060606D01*
X0335285Y0060606D02*
X0315382Y0060606D01*
X0315382Y0061605D02*
X0335285Y0061605D01*
X0335404Y0062603D02*
X0315262Y0062603D01*
X0315382Y0058609D02*
X0335285Y0058609D01*
X0335285Y0057611D02*
X0315382Y0057611D01*
X0315235Y0056612D02*
X0335432Y0056612D01*
X0309658Y0060606D02*
X0308658Y0060606D01*
X0308658Y0061605D02*
X0309658Y0061605D01*
X0309658Y0062603D02*
X0308658Y0062603D01*
X0303053Y0062603D02*
X0297613Y0062603D01*
X0297733Y0061605D02*
X0302933Y0061605D01*
X0302933Y0060606D02*
X0297733Y0060606D01*
X0297733Y0058609D02*
X0302933Y0058609D01*
X0302933Y0057611D02*
X0297733Y0057611D01*
X0297586Y0056612D02*
X0303081Y0056612D01*
X0292009Y0060606D02*
X0291009Y0060606D01*
X0291009Y0061605D02*
X0292009Y0061605D01*
X0292009Y0062603D02*
X0291009Y0062603D01*
X0285404Y0062603D02*
X0265262Y0062603D01*
X0265382Y0061605D02*
X0285285Y0061605D01*
X0285285Y0060606D02*
X0265382Y0060606D01*
X0265382Y0058609D02*
X0285285Y0058609D01*
X0285285Y0057611D02*
X0265382Y0057611D01*
X0265235Y0056612D02*
X0285432Y0056612D01*
X0286163Y0073769D02*
X0296855Y0073769D01*
X0297733Y0074648D01*
X0297733Y0080615D01*
X0296855Y0081494D01*
X0286163Y0081494D01*
X0285285Y0080615D01*
X0285285Y0074648D01*
X0286163Y0073769D01*
X0285347Y0074585D02*
X0265320Y0074585D01*
X0265382Y0075584D02*
X0285285Y0075584D01*
X0285285Y0076582D02*
X0265382Y0076582D01*
X0265382Y0077581D02*
X0285285Y0077581D01*
X0285285Y0078579D02*
X0265382Y0078579D01*
X0265382Y0079578D02*
X0285285Y0079578D01*
X0285285Y0080577D02*
X0265382Y0080577D01*
X0258043Y0081575D02*
X0302386Y0081575D01*
X0302933Y0080577D02*
X0297733Y0080577D01*
X0297733Y0079578D02*
X0302933Y0079578D01*
X0302933Y0078579D02*
X0297733Y0078579D01*
X0297733Y0077581D02*
X0302933Y0077581D01*
X0302933Y0076582D02*
X0297733Y0076582D01*
X0297733Y0075584D02*
X0302933Y0075584D01*
X0302996Y0074585D02*
X0297671Y0074585D01*
X0301387Y0082574D02*
X0257044Y0082574D01*
X0256046Y0083572D02*
X0300389Y0083572D01*
X0299390Y0084571D02*
X0255047Y0084571D01*
X0254049Y0085569D02*
X0298392Y0085569D01*
X0297393Y0086568D02*
X0253908Y0086568D01*
X0257014Y0087566D02*
X0296395Y0087566D01*
X0299056Y0090562D02*
X0363445Y0090562D01*
X0364444Y0091560D02*
X0298058Y0091560D01*
X0300055Y0089563D02*
X0362446Y0089563D01*
X0361448Y0088565D02*
X0301053Y0088565D01*
X0302052Y0087566D02*
X0360449Y0087566D01*
X0359451Y0086568D02*
X0303050Y0086568D01*
X0304049Y0085569D02*
X0358452Y0085569D01*
X0357454Y0084571D02*
X0305047Y0084571D01*
X0306046Y0083572D02*
X0356455Y0083572D01*
X0355457Y0082574D02*
X0307044Y0082574D01*
X0308043Y0081575D02*
X0354458Y0081575D01*
X0353460Y0080577D02*
X0347733Y0080577D01*
X0347733Y0079578D02*
X0352461Y0079578D01*
X0351463Y0078579D02*
X0347733Y0078579D01*
X0347733Y0077581D02*
X0350464Y0077581D01*
X0349466Y0076582D02*
X0347733Y0076582D01*
X0347733Y0075584D02*
X0348467Y0075584D01*
X0365442Y0092559D02*
X0261333Y0092559D01*
X0261333Y0093557D02*
X0366441Y0093557D01*
X0367439Y0094556D02*
X0261333Y0094556D01*
X0261333Y0095554D02*
X0368438Y0095554D01*
X0381067Y0100547D02*
X0396284Y0100547D01*
X0396284Y0101545D02*
X0381806Y0101545D01*
X0382033Y0102544D02*
X0396284Y0102544D01*
X0396284Y0103542D02*
X0382033Y0103542D01*
X0382033Y0104541D02*
X0396284Y0104541D01*
X0396284Y0105539D02*
X0382033Y0105539D01*
X0382033Y0106538D02*
X0396284Y0106538D01*
X0396284Y0107536D02*
X0382033Y0107536D01*
X0382033Y0108535D02*
X0396284Y0108535D01*
X0396284Y0109533D02*
X0382033Y0109533D01*
X0382033Y0110532D02*
X0396284Y0110532D01*
X0396284Y0111530D02*
X0382033Y0111530D01*
X0382033Y0112529D02*
X0396284Y0112529D01*
X0396284Y0113527D02*
X0382033Y0113527D01*
X0382033Y0114526D02*
X0396284Y0114526D01*
X0396284Y0115524D02*
X0382033Y0115524D01*
X0382033Y0116523D02*
X0396284Y0116523D01*
X0396284Y0117521D02*
X0382033Y0117521D01*
X0382033Y0118520D02*
X0396284Y0118520D01*
X0396284Y0119518D02*
X0382033Y0119518D01*
X0382033Y0120517D02*
X0396284Y0120517D01*
X0396284Y0121515D02*
X0382033Y0121515D01*
X0382033Y0122514D02*
X0396284Y0122514D01*
X0396284Y0123512D02*
X0382033Y0123512D01*
X0382033Y0124511D02*
X0396284Y0124511D01*
X0396284Y0125510D02*
X0382033Y0125510D01*
X0382033Y0126508D02*
X0396284Y0126508D01*
X0396284Y0127507D02*
X0382033Y0127507D01*
X0382033Y0128505D02*
X0396284Y0128505D01*
X0396284Y0129504D02*
X0382033Y0129504D01*
X0382033Y0130502D02*
X0396284Y0130502D01*
X0396284Y0131501D02*
X0382033Y0131501D01*
X0382033Y0132499D02*
X0396284Y0132499D01*
X0396284Y0133498D02*
X0382033Y0133498D01*
X0382033Y0134496D02*
X0396284Y0134496D01*
X0396284Y0135495D02*
X0382033Y0135495D01*
X0382033Y0136493D02*
X0396284Y0136493D01*
X0396284Y0137492D02*
X0382033Y0137492D01*
X0382033Y0138490D02*
X0396284Y0138490D01*
X0396284Y0139489D02*
X0382033Y0139489D01*
X0382033Y0140487D02*
X0396284Y0140487D01*
X0396284Y0141486D02*
X0382033Y0141486D01*
X0382033Y0142484D02*
X0396284Y0142484D01*
X0396284Y0143483D02*
X0382033Y0143483D01*
X0382033Y0144481D02*
X0396284Y0144481D01*
X0396284Y0145480D02*
X0382033Y0145480D01*
X0382033Y0146478D02*
X0396284Y0146478D01*
X0396284Y0147477D02*
X0382033Y0147477D01*
X0382033Y0148475D02*
X0396284Y0148475D01*
X0396284Y0149474D02*
X0382033Y0149474D01*
X0382033Y0150472D02*
X0396284Y0150472D01*
X0396284Y0151471D02*
X0382033Y0151471D01*
X0382033Y0152469D02*
X0396284Y0152469D01*
X0396284Y0153468D02*
X0382033Y0153468D01*
X0382033Y0154466D02*
X0396284Y0154466D01*
X0396284Y0155465D02*
X0382033Y0155465D01*
X0382033Y0156463D02*
X0396284Y0156463D01*
X0396284Y0157462D02*
X0382033Y0157462D01*
X0382033Y0158460D02*
X0396284Y0158460D01*
X0396284Y0159459D02*
X0382033Y0159459D01*
X0382033Y0160457D02*
X0396284Y0160457D01*
X0396284Y0161456D02*
X0382033Y0161456D01*
X0382033Y0162454D02*
X0396284Y0162454D01*
X0396284Y0163453D02*
X0382033Y0163453D01*
X0382033Y0164451D02*
X0396284Y0164451D01*
X0396284Y0165450D02*
X0382033Y0165450D01*
X0382033Y0166448D02*
X0396284Y0166448D01*
X0396284Y0167447D02*
X0382033Y0167447D01*
X0382033Y0168445D02*
X0396284Y0168445D01*
X0396284Y0169444D02*
X0382033Y0169444D01*
X0382033Y0170443D02*
X0396284Y0170443D01*
X0396284Y0171441D02*
X0382033Y0171441D01*
X0382033Y0172440D02*
X0396284Y0172440D01*
X0396284Y0173438D02*
X0381922Y0173438D01*
X0381347Y0174437D02*
X0396284Y0174437D01*
X0396284Y0175435D02*
X0380348Y0175435D01*
X0379350Y0176434D02*
X0396284Y0176434D01*
X0396284Y0177432D02*
X0378351Y0177432D01*
X0377353Y0178431D02*
X0396284Y0178431D01*
X0396284Y0179429D02*
X0376354Y0179429D01*
X0375356Y0180428D02*
X0396284Y0180428D01*
X0396284Y0181426D02*
X0372218Y0181426D01*
X0371139Y0182425D02*
X0396284Y0182425D01*
X0396284Y0183423D02*
X0187333Y0183423D01*
X0187333Y0184422D02*
X0396284Y0184422D01*
X0396284Y0185420D02*
X0187333Y0185420D01*
X0187333Y0186419D02*
X0396284Y0186419D01*
X0396284Y0187417D02*
X0187333Y0187417D01*
X0187333Y0188416D02*
X0396284Y0188416D01*
X0396284Y0189414D02*
X0187333Y0189414D01*
X0187333Y0190413D02*
X0396284Y0190413D01*
X0396284Y0191411D02*
X0187333Y0191411D01*
X0187333Y0192410D02*
X0396284Y0192410D01*
X0396284Y0193408D02*
X0187333Y0193408D01*
X0187333Y0194407D02*
X0396284Y0194407D01*
X0396284Y0195405D02*
X0187333Y0195405D01*
X0187333Y0196404D02*
X0396284Y0196404D01*
X0396284Y0197402D02*
X0187333Y0197402D01*
X0187333Y0198401D02*
X0396284Y0198401D01*
X0396284Y0199399D02*
X0187333Y0199399D01*
X0187333Y0200398D02*
X0396284Y0200398D01*
X0396284Y0201396D02*
X0187333Y0201396D01*
X0187333Y0202395D02*
X0396284Y0202395D01*
X0396284Y0203393D02*
X0187333Y0203393D01*
X0187333Y0204392D02*
X0396284Y0204392D01*
X0396284Y0205390D02*
X0187333Y0205390D01*
X0187333Y0206389D02*
X0396284Y0206389D01*
X0396284Y0207387D02*
X0187403Y0207387D01*
X0188119Y0208386D02*
X0396284Y0208386D01*
X0396284Y0209384D02*
X0188383Y0209384D01*
X0188323Y0210383D02*
X0396284Y0210383D01*
X0396284Y0211381D02*
X0187897Y0211381D01*
X0185333Y0209632D02*
X0185333Y0180632D01*
X0188137Y0179429D02*
X0235318Y0179429D01*
X0231304Y0178431D02*
X0187446Y0178431D01*
X0188383Y0180428D02*
X0358633Y0180428D01*
X0359236Y0181426D02*
X0188305Y0181426D01*
X0187854Y0182425D02*
X0360315Y0182425D01*
X0371973Y0175435D02*
X0372711Y0175435D01*
X0360092Y0172440D02*
X0240383Y0172440D01*
X0240349Y0171441D02*
X0359094Y0171441D01*
X0358574Y0170443D02*
X0239935Y0170443D01*
X0238815Y0169444D02*
X0358227Y0169444D01*
X0358227Y0168445D02*
X0232976Y0168445D01*
X0231977Y0167447D02*
X0358380Y0167447D01*
X0358793Y0166448D02*
X0230979Y0166448D01*
X0229980Y0165450D02*
X0359623Y0165450D01*
X0361250Y0164451D02*
X0228982Y0164451D01*
X0233974Y0169444D02*
X0235852Y0169444D01*
X0230833Y0177960D02*
X0230833Y0177960D01*
X0158908Y0141352D02*
X0158908Y0136899D01*
X0158908Y0141352D01*
X0158908Y0140487D02*
X0158908Y0140487D01*
X0158908Y0139489D02*
X0158908Y0139489D01*
X0158908Y0138490D02*
X0158908Y0138490D01*
X0158908Y0137492D02*
X0158908Y0137492D01*
X0158908Y0136899D02*
X0158908Y0136899D01*
X0158908Y0136493D02*
X0158908Y0136493D01*
X0158908Y0135495D02*
X0158908Y0135495D01*
X0158908Y0134496D02*
X0158908Y0134496D01*
X0158908Y0133498D02*
X0158908Y0133498D01*
X0158908Y0132499D02*
X0158908Y0132499D01*
X0157530Y0132499D02*
X0157417Y0132499D01*
X0160286Y0132499D02*
X0160400Y0132499D01*
X0160196Y0130502D02*
X0161164Y0130502D01*
X0161164Y0129504D02*
X0160196Y0129504D01*
X0160196Y0128505D02*
X0161164Y0128505D01*
X0160680Y0127632D02*
X0158908Y0129403D01*
X0157333Y0124723D02*
X0157593Y0124463D01*
X0157935Y0124265D01*
X0158032Y0124239D01*
X0157333Y0123540D01*
X0156711Y0124163D01*
X0156774Y0124163D01*
X0157333Y0124723D01*
X0157121Y0124511D02*
X0157545Y0124511D01*
X0223785Y0099632D02*
X0243588Y0099632D01*
X0243188Y0099232D01*
X0224347Y0099232D01*
X0224061Y0099517D01*
X0223785Y0099632D01*
X0223986Y0099548D02*
X0243504Y0099548D01*
X0245609Y0096932D02*
X0248759Y0096932D01*
X0251908Y0096932D01*
X0255058Y0096932D01*
X0257333Y0094486D02*
X0257333Y0092777D01*
X0256679Y0093432D01*
X0253362Y0093432D01*
X0252962Y0093832D01*
X0256679Y0093832D01*
X0257333Y0094486D01*
X0257333Y0093557D02*
X0253236Y0093557D01*
X0255058Y0090332D02*
X0259333Y0090332D01*
X0252933Y0076582D02*
X0247733Y0076582D01*
X0247733Y0075584D02*
X0252933Y0075584D01*
X0252996Y0074585D02*
X0247671Y0074585D01*
X0247613Y0062603D02*
X0253053Y0062603D01*
X0252933Y0061605D02*
X0247733Y0061605D01*
X0247733Y0060606D02*
X0252933Y0060606D01*
X0252933Y0058609D02*
X0247733Y0058609D01*
X0247733Y0057611D02*
X0252933Y0057611D01*
X0253081Y0056612D02*
X0247586Y0056612D01*
X0242009Y0060606D02*
X0241009Y0060606D01*
X0241009Y0061605D02*
X0242009Y0061605D01*
X0242009Y0062603D02*
X0241009Y0062603D01*
X0258658Y0062603D02*
X0259658Y0062603D01*
X0259658Y0061605D02*
X0258658Y0061605D01*
X0258658Y0060606D02*
X0259658Y0060606D01*
X0159658Y0060606D02*
X0158658Y0060606D01*
X0158658Y0061605D02*
X0159658Y0061605D01*
X0159658Y0062603D02*
X0158658Y0062603D01*
X0047336Y0097551D02*
X0037324Y0097551D01*
X0037166Y0097393D02*
X0038572Y0098799D01*
X0039333Y0100637D01*
X0039333Y0102626D01*
X0038572Y0104464D01*
X0037166Y0105870D01*
X0035328Y0106632D01*
X0033339Y0106632D01*
X0031501Y0105870D01*
X0030095Y0104464D01*
X0029333Y0102626D01*
X0028572Y0104464D01*
X0027166Y0105870D01*
X0025328Y0106632D01*
X0023339Y0106632D01*
X0021501Y0105870D01*
X0020095Y0104464D01*
X0019333Y0102626D01*
X0019333Y0100637D01*
X0020095Y0098799D01*
X0021501Y0097393D01*
X0023339Y0096632D01*
X0025328Y0096632D01*
X0027166Y0097393D01*
X0028572Y0098799D01*
X0029333Y0100637D01*
X0029333Y0102626D01*
X0029333Y0100637D01*
X0030095Y0098799D01*
X0031501Y0097393D01*
X0033339Y0096632D01*
X0035328Y0096632D01*
X0037166Y0097393D01*
X0038323Y0098550D02*
X0045533Y0098550D01*
X0044535Y0099548D02*
X0038882Y0099548D01*
X0039296Y0100547D02*
X0043536Y0100547D01*
X0042930Y0101545D02*
X0039333Y0101545D01*
X0039333Y0102544D02*
X0042516Y0102544D01*
X0042103Y0103542D02*
X0038954Y0103542D01*
X0038495Y0104541D02*
X0041715Y0104541D01*
X0041715Y0105539D02*
X0037497Y0105539D01*
X0037203Y0107536D02*
X0041715Y0107536D01*
X0041715Y0106538D02*
X0035554Y0106538D01*
X0034640Y0107536D02*
X0034026Y0107536D01*
X0034026Y0106632D02*
X0034026Y0111324D01*
X0029333Y0111324D01*
X0029333Y0111238D01*
X0029456Y0110461D01*
X0029700Y0109712D01*
X0030057Y0109011D01*
X0030520Y0108374D01*
X0031076Y0107818D01*
X0031713Y0107355D01*
X0032414Y0106998D01*
X0033162Y0106755D01*
X0033940Y0106632D01*
X0034026Y0106632D01*
X0033112Y0106538D02*
X0025554Y0106538D01*
X0027309Y0107536D02*
X0031463Y0107536D01*
X0030403Y0108535D02*
X0028308Y0108535D01*
X0028876Y0109533D02*
X0029791Y0109533D01*
X0029445Y0110532D02*
X0029290Y0110532D01*
X0029333Y0111530D02*
X0034026Y0111530D01*
X0034640Y0111530D02*
X0043022Y0111530D01*
X0042608Y0110532D02*
X0039221Y0110532D01*
X0038876Y0109533D02*
X0042195Y0109533D01*
X0041781Y0108535D02*
X0038264Y0108535D01*
X0034640Y0108535D02*
X0034026Y0108535D01*
X0034026Y0109533D02*
X0034640Y0109533D01*
X0034640Y0110532D02*
X0034026Y0110532D01*
X0034026Y0112529D02*
X0034640Y0112529D01*
X0034640Y0113527D02*
X0034026Y0113527D01*
X0034026Y0114526D02*
X0034640Y0114526D01*
X0034640Y0115524D02*
X0034026Y0115524D01*
X0031185Y0115524D02*
X0027512Y0115524D01*
X0028510Y0114526D02*
X0030256Y0114526D01*
X0029692Y0113527D02*
X0028960Y0113527D01*
X0029333Y0112529D02*
X0029413Y0112529D01*
X0023076Y0116523D02*
X0015590Y0116523D01*
X0017512Y0115524D02*
X0021155Y0115524D01*
X0020157Y0114526D02*
X0018510Y0114526D01*
X0018960Y0113527D02*
X0019707Y0113527D01*
X0019333Y0112529D02*
X0019333Y0112529D01*
X0019333Y0111530D02*
X0019333Y0111530D01*
X0019290Y0110532D02*
X0019377Y0110532D01*
X0019790Y0109533D02*
X0018876Y0109533D01*
X0018308Y0108535D02*
X0020359Y0108535D01*
X0021358Y0107536D02*
X0017309Y0107536D01*
X0016498Y0106538D02*
X0023112Y0106538D01*
X0021170Y0105539D02*
X0017497Y0105539D01*
X0018495Y0104541D02*
X0020171Y0104541D01*
X0019713Y0103542D02*
X0019333Y0103542D01*
X0019333Y0102544D02*
X0019333Y0102544D01*
X0019333Y0101545D02*
X0019333Y0101545D01*
X0019333Y0100547D02*
X0019371Y0100547D01*
X0019321Y0099548D02*
X0019784Y0099548D01*
X0020344Y0098550D02*
X0018323Y0098550D01*
X0017324Y0097551D02*
X0021343Y0097551D01*
X0027324Y0097551D02*
X0031343Y0097551D01*
X0030344Y0098550D02*
X0028323Y0098550D01*
X0028882Y0099548D02*
X0029784Y0099548D01*
X0029371Y0100547D02*
X0029296Y0100547D01*
X0029333Y0101545D02*
X0029333Y0101545D01*
X0029333Y0102544D02*
X0029333Y0102544D01*
X0028954Y0103542D02*
X0029713Y0103542D01*
X0030171Y0104541D02*
X0028495Y0104541D01*
X0027497Y0105539D02*
X0031170Y0105539D01*
X0039254Y0112529D02*
X0043758Y0112529D01*
X0044757Y0113527D02*
X0038975Y0113527D01*
X0038411Y0114526D02*
X0045755Y0114526D01*
X0045491Y0115524D02*
X0037482Y0115524D01*
X0041497Y0119518D02*
X0008083Y0119518D01*
X0008083Y0118520D02*
X0042495Y0118520D01*
X0041007Y0120517D02*
X0008083Y0120517D01*
X0008083Y0121515D02*
X0013037Y0121515D01*
X0011864Y0122514D02*
X0008083Y0122514D01*
X0008083Y0123512D02*
X0011786Y0123512D01*
X0011786Y0124511D02*
X0008083Y0124511D01*
X0008083Y0125510D02*
X0011786Y0125510D01*
X0011786Y0126508D02*
X0008083Y0126508D01*
X0008083Y0127507D02*
X0011786Y0127507D01*
X0011786Y0128505D02*
X0008083Y0128505D01*
X0008083Y0129504D02*
X0011786Y0129504D01*
X0011786Y0130502D02*
X0008083Y0130502D01*
X0008083Y0131501D02*
X0011786Y0131501D01*
X0011786Y0132499D02*
X0008083Y0132499D01*
X0008083Y0133498D02*
X0024991Y0133498D01*
X0024991Y0134496D02*
X0025991Y0134496D01*
X0025991Y0135495D02*
X0024991Y0135495D01*
X0024991Y0136493D02*
X0025991Y0136493D01*
X0025991Y0137492D02*
X0024991Y0137492D01*
X0024991Y0138490D02*
X0025991Y0138490D01*
X0025991Y0139489D02*
X0024991Y0139489D01*
X0024991Y0140487D02*
X0025991Y0140487D01*
X0025991Y0141486D02*
X0024991Y0141486D01*
X0024991Y0142484D02*
X0025991Y0142484D01*
X0025991Y0143483D02*
X0024991Y0143483D01*
X0024991Y0144481D02*
X0025991Y0144481D01*
X0025991Y0145480D02*
X0024991Y0145480D01*
X0012396Y0145480D02*
X0008083Y0145480D01*
X0008083Y0144481D02*
X0011792Y0144481D01*
X0011786Y0143483D02*
X0008083Y0143483D01*
X0008083Y0142484D02*
X0011786Y0142484D01*
X0011786Y0141486D02*
X0008083Y0141486D01*
X0008083Y0140487D02*
X0011786Y0140487D01*
X0011786Y0139489D02*
X0008083Y0139489D01*
X0008083Y0138490D02*
X0011786Y0138490D01*
X0011786Y0137492D02*
X0008083Y0137492D01*
X0008083Y0136493D02*
X0011786Y0136493D01*
X0011786Y0135495D02*
X0008083Y0135495D01*
X0008083Y0134496D02*
X0011786Y0134496D01*
X0039196Y0132499D02*
X0040833Y0132499D01*
X0040833Y0131501D02*
X0039196Y0131501D01*
X0039196Y0130502D02*
X0040833Y0130502D01*
X0040833Y0129504D02*
X0039196Y0129504D01*
X0039196Y0128505D02*
X0040833Y0128505D01*
X0040833Y0127507D02*
X0039196Y0127507D01*
X0039196Y0126508D02*
X0040833Y0126508D01*
X0040833Y0125510D02*
X0039196Y0125510D01*
X0039196Y0124511D02*
X0040833Y0124511D01*
X0040833Y0123512D02*
X0039196Y0123512D01*
X0039118Y0122514D02*
X0040833Y0122514D01*
X0040833Y0121515D02*
X0037945Y0121515D01*
X0025991Y0157462D02*
X0024991Y0157462D01*
X0024991Y0158460D02*
X0025991Y0158460D01*
X0025991Y0159459D02*
X0024991Y0159459D01*
X0024991Y0160457D02*
X0025991Y0160457D01*
X0025991Y0161456D02*
X0024991Y0161456D01*
X0024991Y0162454D02*
X0025991Y0162454D01*
X0025991Y0163453D02*
X0024991Y0163453D01*
X0024991Y0164451D02*
X0025991Y0164451D01*
X0025991Y0165450D02*
X0024991Y0165450D01*
X0024991Y0166448D02*
X0025991Y0166448D01*
X0012991Y0188416D02*
X0008083Y0188416D01*
X0008083Y0189414D02*
X0012991Y0189414D01*
X0012991Y0190413D02*
X0008083Y0190413D01*
X0008083Y0191411D02*
X0012991Y0191411D01*
X0012991Y0192410D02*
X0008083Y0192410D01*
X0008083Y0193408D02*
X0012991Y0193408D01*
X0012991Y0194407D02*
X0008083Y0194407D01*
X0008083Y0195405D02*
X0013190Y0195405D01*
X0014744Y0196404D02*
X0008083Y0196404D01*
X0008083Y0197402D02*
X0014744Y0197402D01*
X0014744Y0198401D02*
X0008083Y0198401D01*
X0008083Y0199399D02*
X0014744Y0199399D01*
X0014744Y0200398D02*
X0008083Y0200398D01*
X0008083Y0201396D02*
X0014744Y0201396D01*
X0013653Y0202395D02*
X0008083Y0202395D01*
X0008083Y0203393D02*
X0012991Y0203393D01*
X0012991Y0204392D02*
X0008083Y0204392D01*
X0008083Y0205390D02*
X0012991Y0205390D01*
X0012991Y0206389D02*
X0008083Y0206389D01*
X0008083Y0207387D02*
X0012991Y0207387D01*
X0012991Y0208386D02*
X0008083Y0208386D01*
X0008083Y0209384D02*
X0012991Y0209384D01*
X0013168Y0210383D02*
X0008083Y0210383D01*
X0008083Y0211381D02*
X0014744Y0211381D01*
X0014744Y0212380D02*
X0008083Y0212380D01*
X0008083Y0213379D02*
X0014744Y0213379D01*
X0014744Y0214377D02*
X0008083Y0214377D01*
X0008083Y0215376D02*
X0014744Y0215376D01*
X0014744Y0216374D02*
X0008083Y0216374D01*
X0008083Y0217373D02*
X0013676Y0217373D01*
X0012991Y0218371D02*
X0008083Y0218371D01*
X0008083Y0219370D02*
X0012991Y0219370D01*
X0012991Y0220368D02*
X0008083Y0220368D01*
X0008083Y0221367D02*
X0012991Y0221367D01*
X0012991Y0222365D02*
X0008083Y0222365D01*
X0008083Y0223364D02*
X0012991Y0223364D01*
X0012991Y0224362D02*
X0008083Y0224362D01*
X0008083Y0225361D02*
X0013146Y0225361D01*
X0008083Y0226359D02*
X0018353Y0226359D01*
X0019351Y0227358D02*
X0008083Y0227358D01*
X0008083Y0228356D02*
X0020350Y0228356D01*
X0021348Y0229355D02*
X0008083Y0229355D01*
X0008083Y0230353D02*
X0021633Y0230353D01*
X0021633Y0231352D02*
X0008083Y0231352D01*
X0008083Y0232350D02*
X0013792Y0232350D01*
X0013026Y0233349D02*
X0008083Y0233349D01*
X0008083Y0234347D02*
X0012991Y0234347D01*
X0012991Y0235346D02*
X0008083Y0235346D01*
X0008083Y0236344D02*
X0016944Y0236344D01*
X0016944Y0235346D02*
X0017944Y0235346D01*
X0017944Y0234347D02*
X0016944Y0234347D01*
X0016944Y0233349D02*
X0017944Y0233349D01*
X0017944Y0232350D02*
X0016944Y0232350D01*
X0021095Y0232350D02*
X0021633Y0232350D01*
X0027033Y0232350D02*
X0027478Y0232350D01*
X0027649Y0232179D02*
X0032423Y0232179D01*
X0037687Y0226915D01*
X0037687Y0222297D01*
X0037397Y0222297D01*
X0036518Y0221418D01*
X0036518Y0216699D01*
X0035418Y0217800D01*
X0035676Y0218057D01*
X0035676Y0225206D01*
X0034797Y0226084D01*
X0027649Y0226084D01*
X0026770Y0225206D01*
X0026770Y0218057D01*
X0027649Y0217179D01*
X0029533Y0217179D01*
X0036381Y0210332D01*
X0036518Y0210332D01*
X0036518Y0209845D01*
X0036732Y0209632D01*
X0036518Y0209418D01*
X0036518Y0208932D01*
X0035676Y0208932D01*
X0035676Y0210206D01*
X0034797Y0211084D01*
X0027649Y0211084D01*
X0026770Y0210206D01*
X0026770Y0203057D01*
X0027496Y0202332D01*
X0021170Y0202332D01*
X0021896Y0203057D01*
X0021896Y0210206D01*
X0021018Y0211084D01*
X0020144Y0211084D01*
X0020144Y0217179D01*
X0021018Y0217179D01*
X0021896Y0218057D01*
X0021896Y0222266D01*
X0026622Y0226992D01*
X0027033Y0227984D01*
X0027033Y0232795D01*
X0027649Y0232179D01*
X0027033Y0231352D02*
X0033250Y0231352D01*
X0034249Y0230353D02*
X0027033Y0230353D01*
X0027033Y0229355D02*
X0035247Y0229355D01*
X0036246Y0228356D02*
X0027033Y0228356D01*
X0026774Y0227358D02*
X0037244Y0227358D01*
X0037687Y0226359D02*
X0025990Y0226359D01*
X0026925Y0225361D02*
X0024991Y0225361D01*
X0023992Y0224362D02*
X0026770Y0224362D01*
X0026770Y0223364D02*
X0022994Y0223364D01*
X0021995Y0222365D02*
X0026770Y0222365D01*
X0026770Y0221367D02*
X0021896Y0221367D01*
X0021896Y0220368D02*
X0026770Y0220368D01*
X0026770Y0219370D02*
X0021896Y0219370D01*
X0021896Y0218371D02*
X0026770Y0218371D01*
X0027455Y0217373D02*
X0021211Y0217373D01*
X0020144Y0216374D02*
X0030338Y0216374D01*
X0031337Y0215376D02*
X0020144Y0215376D01*
X0020144Y0214377D02*
X0032335Y0214377D01*
X0033334Y0213379D02*
X0020144Y0213379D01*
X0020144Y0212380D02*
X0034332Y0212380D01*
X0035331Y0211381D02*
X0020144Y0211381D01*
X0021719Y0210383D02*
X0026948Y0210383D01*
X0026770Y0209384D02*
X0021896Y0209384D01*
X0021896Y0208386D02*
X0026770Y0208386D01*
X0026770Y0207387D02*
X0021896Y0207387D01*
X0021896Y0206389D02*
X0026770Y0206389D01*
X0026770Y0205390D02*
X0021896Y0205390D01*
X0021896Y0204392D02*
X0026770Y0204392D01*
X0026770Y0203393D02*
X0021896Y0203393D01*
X0021234Y0202395D02*
X0027433Y0202395D01*
X0034998Y0202380D02*
X0035676Y0203057D01*
X0035676Y0204332D01*
X0036518Y0204332D01*
X0036518Y0203845D01*
X0036623Y0203740D01*
X0035451Y0202567D01*
X0034998Y0202380D01*
X0035013Y0202395D02*
X0035035Y0202395D01*
X0035676Y0203393D02*
X0036277Y0203393D01*
X0036518Y0209384D02*
X0035676Y0209384D01*
X0035499Y0210383D02*
X0036329Y0210383D01*
X0043242Y0209632D02*
X0043333Y0209723D01*
X0043425Y0209632D01*
X0043333Y0209540D01*
X0043242Y0209632D01*
X0043333Y0215540D02*
X0043242Y0215632D01*
X0043333Y0215723D01*
X0043425Y0215632D01*
X0043333Y0215540D01*
X0036518Y0217373D02*
X0035845Y0217373D01*
X0035676Y0218371D02*
X0036518Y0218371D01*
X0036518Y0219370D02*
X0035676Y0219370D01*
X0035676Y0220368D02*
X0036518Y0220368D01*
X0036518Y0221367D02*
X0035676Y0221367D01*
X0035676Y0222365D02*
X0037687Y0222365D01*
X0037687Y0223364D02*
X0035676Y0223364D01*
X0035676Y0224362D02*
X0037687Y0224362D01*
X0037687Y0225361D02*
X0035521Y0225361D01*
X0042287Y0225361D02*
X0043176Y0225361D01*
X0043207Y0225285D02*
X0042287Y0227507D01*
X0042287Y0222297D01*
X0042577Y0222297D01*
X0043333Y0221540D01*
X0044090Y0222297D01*
X0046524Y0222297D01*
X0045964Y0222529D01*
X0043207Y0225285D01*
X0042762Y0226359D02*
X0042287Y0226359D01*
X0042287Y0227358D02*
X0042349Y0227358D01*
X0041715Y0229392D02*
X0035676Y0235431D01*
X0035676Y0239932D01*
X0047866Y0239932D01*
X0045964Y0239144D01*
X0043207Y0236387D01*
X0041715Y0232785D01*
X0041715Y0229392D01*
X0041715Y0230353D02*
X0040754Y0230353D01*
X0041715Y0231352D02*
X0039756Y0231352D01*
X0038757Y0232350D02*
X0041715Y0232350D01*
X0041949Y0233349D02*
X0037759Y0233349D01*
X0036760Y0234347D02*
X0042362Y0234347D01*
X0042776Y0235346D02*
X0035762Y0235346D01*
X0035676Y0236344D02*
X0043189Y0236344D01*
X0044163Y0237343D02*
X0035676Y0237343D01*
X0035676Y0238341D02*
X0045161Y0238341D01*
X0046437Y0239340D02*
X0035676Y0239340D01*
X0026795Y0245331D02*
X0011212Y0245331D01*
X0010214Y0244332D02*
X0025216Y0244332D01*
X0024217Y0243334D02*
X0009561Y0243334D01*
X0008984Y0242335D02*
X0023219Y0242335D01*
X0022220Y0241337D02*
X0008619Y0241337D01*
X0008351Y0240338D02*
X0013194Y0240338D01*
X0012991Y0239340D02*
X0008144Y0239340D01*
X0008083Y0238341D02*
X0012991Y0238341D01*
X0012991Y0237343D02*
X0008083Y0237343D01*
X0016944Y0237343D02*
X0017944Y0237343D01*
X0017944Y0238341D02*
X0016944Y0238341D01*
X0016944Y0239340D02*
X0017944Y0239340D01*
X0017944Y0240338D02*
X0016944Y0240338D01*
X0021693Y0240338D02*
X0021704Y0240338D01*
X0012531Y0246329D02*
X0394787Y0246329D01*
X0395513Y0245331D02*
X0250872Y0245331D01*
X0252451Y0244332D02*
X0395954Y0244332D01*
X0393342Y0247328D02*
X0014668Y0247328D01*
X0042287Y0224362D02*
X0044130Y0224362D01*
X0045129Y0223364D02*
X0042287Y0223364D01*
X0042287Y0222365D02*
X0046359Y0222365D01*
X0077629Y0226359D02*
X0081070Y0226359D01*
X0080268Y0227358D02*
X0078397Y0227358D01*
X0078816Y0228356D02*
X0079854Y0228356D01*
X0099475Y0227358D02*
X0100268Y0227358D01*
X0107901Y0226632D02*
X0108291Y0227021D01*
X0108999Y0228730D01*
X0108999Y0236879D01*
X0108291Y0238588D01*
X0106983Y0239896D01*
X0106897Y0239932D01*
X0111801Y0239932D01*
X0111715Y0239896D01*
X0110407Y0238588D01*
X0109699Y0236879D01*
X0109699Y0228730D01*
X0110407Y0227021D01*
X0110797Y0226632D01*
X0107901Y0226632D01*
X0108430Y0227358D02*
X0110268Y0227358D01*
X0109854Y0228356D02*
X0108844Y0228356D01*
X0108999Y0229355D02*
X0109699Y0229355D01*
X0109699Y0230353D02*
X0108999Y0230353D01*
X0108999Y0231352D02*
X0109699Y0231352D01*
X0109699Y0232350D02*
X0108999Y0232350D01*
X0108999Y0233349D02*
X0109699Y0233349D01*
X0109699Y0234347D02*
X0108999Y0234347D01*
X0108999Y0235346D02*
X0109699Y0235346D01*
X0109699Y0236344D02*
X0108999Y0236344D01*
X0108807Y0237343D02*
X0109891Y0237343D01*
X0110305Y0238341D02*
X0108393Y0238341D01*
X0107539Y0239340D02*
X0111159Y0239340D01*
X0116897Y0239932D02*
X0121801Y0239932D01*
X0121715Y0239896D01*
X0120407Y0238588D01*
X0119699Y0236879D01*
X0119699Y0228730D01*
X0120407Y0227021D01*
X0120797Y0226632D01*
X0117901Y0226632D01*
X0118291Y0227021D01*
X0118999Y0228730D01*
X0118999Y0236879D01*
X0118291Y0238588D01*
X0116983Y0239896D01*
X0116897Y0239932D01*
X0117539Y0239340D02*
X0121159Y0239340D01*
X0120305Y0238341D02*
X0118393Y0238341D01*
X0118807Y0237343D02*
X0119891Y0237343D01*
X0119699Y0236344D02*
X0118999Y0236344D01*
X0118999Y0235346D02*
X0119699Y0235346D01*
X0119699Y0234347D02*
X0118999Y0234347D01*
X0118999Y0233349D02*
X0119699Y0233349D01*
X0119699Y0232350D02*
X0118999Y0232350D01*
X0118999Y0231352D02*
X0119699Y0231352D01*
X0119699Y0230353D02*
X0118999Y0230353D01*
X0118999Y0229355D02*
X0119699Y0229355D01*
X0119854Y0228356D02*
X0118844Y0228356D01*
X0118430Y0227358D02*
X0120268Y0227358D01*
X0127901Y0226632D02*
X0128291Y0227021D01*
X0128999Y0228730D01*
X0128999Y0236879D01*
X0128291Y0238588D01*
X0126983Y0239896D01*
X0126897Y0239932D01*
X0131801Y0239932D01*
X0131715Y0239896D01*
X0130407Y0238588D01*
X0129699Y0236879D01*
X0129699Y0228730D01*
X0130407Y0227021D01*
X0130797Y0226632D01*
X0127901Y0226632D01*
X0128430Y0227358D02*
X0130268Y0227358D01*
X0129854Y0228356D02*
X0128844Y0228356D01*
X0128999Y0229355D02*
X0129699Y0229355D01*
X0129699Y0230353D02*
X0128999Y0230353D01*
X0128999Y0231352D02*
X0129699Y0231352D01*
X0129699Y0232350D02*
X0128999Y0232350D01*
X0128999Y0233349D02*
X0129699Y0233349D01*
X0129699Y0234347D02*
X0128999Y0234347D01*
X0128999Y0235346D02*
X0129699Y0235346D01*
X0129699Y0236344D02*
X0128999Y0236344D01*
X0128807Y0237343D02*
X0129891Y0237343D01*
X0130305Y0238341D02*
X0128393Y0238341D01*
X0127539Y0239340D02*
X0131159Y0239340D01*
X0136897Y0239932D02*
X0141801Y0239932D01*
X0141715Y0239896D01*
X0140407Y0238588D01*
X0139699Y0236879D01*
X0139699Y0228730D01*
X0140407Y0227021D01*
X0140797Y0226632D01*
X0137901Y0226632D01*
X0138291Y0227021D01*
X0138999Y0228730D01*
X0138999Y0236879D01*
X0138291Y0238588D01*
X0136983Y0239896D01*
X0136897Y0239932D01*
X0137539Y0239340D02*
X0141159Y0239340D01*
X0140305Y0238341D02*
X0138393Y0238341D01*
X0138807Y0237343D02*
X0139891Y0237343D01*
X0139699Y0236344D02*
X0138999Y0236344D01*
X0138999Y0235346D02*
X0139699Y0235346D01*
X0139699Y0234347D02*
X0138999Y0234347D01*
X0138999Y0233349D02*
X0139699Y0233349D01*
X0139699Y0232350D02*
X0138999Y0232350D01*
X0138999Y0231352D02*
X0139699Y0231352D01*
X0139699Y0230353D02*
X0138999Y0230353D01*
X0138999Y0229355D02*
X0139699Y0229355D01*
X0139854Y0228356D02*
X0138844Y0228356D01*
X0138430Y0227358D02*
X0140268Y0227358D01*
X0147901Y0226632D02*
X0148291Y0227021D01*
X0148999Y0228730D01*
X0148999Y0236879D01*
X0148291Y0238588D01*
X0146983Y0239896D01*
X0146897Y0239932D01*
X0151801Y0239932D01*
X0151715Y0239896D01*
X0150407Y0238588D01*
X0149699Y0236879D01*
X0149699Y0228730D01*
X0150407Y0227021D01*
X0150797Y0226632D01*
X0147901Y0226632D01*
X0148430Y0227358D02*
X0150268Y0227358D01*
X0149854Y0228356D02*
X0148844Y0228356D01*
X0148999Y0229355D02*
X0149699Y0229355D01*
X0149699Y0230353D02*
X0148999Y0230353D01*
X0148999Y0231352D02*
X0149699Y0231352D01*
X0149699Y0232350D02*
X0148999Y0232350D01*
X0148999Y0233349D02*
X0149699Y0233349D01*
X0149699Y0234347D02*
X0148999Y0234347D01*
X0148999Y0235346D02*
X0149699Y0235346D01*
X0149699Y0236344D02*
X0148999Y0236344D01*
X0148807Y0237343D02*
X0149891Y0237343D01*
X0150305Y0238341D02*
X0148393Y0238341D01*
X0147539Y0239340D02*
X0151159Y0239340D01*
X0156897Y0239932D02*
X0161801Y0239932D01*
X0161715Y0239896D01*
X0160407Y0238588D01*
X0159699Y0236879D01*
X0159699Y0228730D01*
X0160407Y0227021D01*
X0160797Y0226632D01*
X0157901Y0226632D01*
X0158291Y0227021D01*
X0158999Y0228730D01*
X0158999Y0236879D01*
X0158291Y0238588D01*
X0156983Y0239896D01*
X0156897Y0239932D01*
X0157539Y0239340D02*
X0161159Y0239340D01*
X0160305Y0238341D02*
X0158393Y0238341D01*
X0158807Y0237343D02*
X0159891Y0237343D01*
X0159699Y0236344D02*
X0158999Y0236344D01*
X0158999Y0235346D02*
X0159699Y0235346D01*
X0159699Y0234347D02*
X0158999Y0234347D01*
X0158999Y0233349D02*
X0159699Y0233349D01*
X0159699Y0232350D02*
X0158999Y0232350D01*
X0158999Y0231352D02*
X0159699Y0231352D01*
X0159699Y0230353D02*
X0158999Y0230353D01*
X0158999Y0229355D02*
X0159699Y0229355D01*
X0159854Y0228356D02*
X0158844Y0228356D01*
X0158430Y0227358D02*
X0160268Y0227358D01*
X0167901Y0226632D02*
X0168291Y0227021D01*
X0168999Y0228730D01*
X0168999Y0236879D01*
X0168291Y0238588D01*
X0166983Y0239896D01*
X0166897Y0239932D01*
X0171801Y0239932D01*
X0171715Y0239896D01*
X0170407Y0238588D01*
X0169699Y0236879D01*
X0169699Y0228730D01*
X0170407Y0227021D01*
X0170797Y0226632D01*
X0167901Y0226632D01*
X0168430Y0227358D02*
X0170268Y0227358D01*
X0169854Y0228356D02*
X0168844Y0228356D01*
X0168999Y0229355D02*
X0169699Y0229355D01*
X0169699Y0230353D02*
X0168999Y0230353D01*
X0168999Y0231352D02*
X0169699Y0231352D01*
X0169699Y0232350D02*
X0168999Y0232350D01*
X0168999Y0233349D02*
X0169699Y0233349D01*
X0169699Y0234347D02*
X0168999Y0234347D01*
X0168999Y0235346D02*
X0169699Y0235346D01*
X0169699Y0236344D02*
X0168999Y0236344D01*
X0168807Y0237343D02*
X0169891Y0237343D01*
X0170305Y0238341D02*
X0168393Y0238341D01*
X0167539Y0239340D02*
X0171159Y0239340D01*
X0176897Y0239932D02*
X0181801Y0239932D01*
X0181715Y0239896D01*
X0180407Y0238588D01*
X0179699Y0236879D01*
X0179699Y0228730D01*
X0180407Y0227021D01*
X0180797Y0226632D01*
X0177901Y0226632D01*
X0178291Y0227021D01*
X0178999Y0228730D01*
X0178999Y0236879D01*
X0178291Y0238588D01*
X0176983Y0239896D01*
X0176897Y0239932D01*
X0177539Y0239340D02*
X0181159Y0239340D01*
X0180305Y0238341D02*
X0178393Y0238341D01*
X0178807Y0237343D02*
X0179891Y0237343D01*
X0179699Y0236344D02*
X0178999Y0236344D01*
X0178999Y0235346D02*
X0179699Y0235346D01*
X0179699Y0234347D02*
X0178999Y0234347D01*
X0178999Y0233349D02*
X0179699Y0233349D01*
X0179699Y0232350D02*
X0178999Y0232350D01*
X0178999Y0231352D02*
X0179699Y0231352D01*
X0179699Y0230353D02*
X0178999Y0230353D01*
X0178999Y0229355D02*
X0179699Y0229355D01*
X0179854Y0228356D02*
X0178844Y0228356D01*
X0178430Y0227358D02*
X0180268Y0227358D01*
X0187901Y0226632D02*
X0188291Y0227021D01*
X0188999Y0228730D01*
X0188999Y0236879D01*
X0188291Y0238588D01*
X0186983Y0239896D01*
X0186897Y0239932D01*
X0191801Y0239932D01*
X0191715Y0239896D01*
X0190407Y0238588D01*
X0189699Y0236879D01*
X0189699Y0228730D01*
X0190407Y0227021D01*
X0190797Y0226632D01*
X0187901Y0226632D01*
X0188430Y0227358D02*
X0190268Y0227358D01*
X0189854Y0228356D02*
X0188844Y0228356D01*
X0188999Y0229355D02*
X0189699Y0229355D01*
X0189699Y0230353D02*
X0188999Y0230353D01*
X0188999Y0231352D02*
X0189699Y0231352D01*
X0189699Y0232350D02*
X0188999Y0232350D01*
X0188999Y0233349D02*
X0189699Y0233349D01*
X0189699Y0234347D02*
X0188999Y0234347D01*
X0188999Y0235346D02*
X0189699Y0235346D01*
X0189699Y0236344D02*
X0188999Y0236344D01*
X0188807Y0237343D02*
X0189891Y0237343D01*
X0190305Y0238341D02*
X0188393Y0238341D01*
X0187539Y0239340D02*
X0191159Y0239340D01*
X0196897Y0239932D02*
X0201801Y0239932D01*
X0201715Y0239896D01*
X0200407Y0238588D01*
X0199699Y0236879D01*
X0199699Y0228730D01*
X0200407Y0227021D01*
X0200797Y0226632D01*
X0197901Y0226632D01*
X0198291Y0227021D01*
X0198999Y0228730D01*
X0198999Y0236879D01*
X0198291Y0238588D01*
X0196983Y0239896D01*
X0196897Y0239932D01*
X0197539Y0239340D02*
X0201159Y0239340D01*
X0200305Y0238341D02*
X0198393Y0238341D01*
X0198807Y0237343D02*
X0199891Y0237343D01*
X0199699Y0236344D02*
X0198999Y0236344D01*
X0198999Y0235346D02*
X0199699Y0235346D01*
X0199699Y0234347D02*
X0198999Y0234347D01*
X0198999Y0233349D02*
X0199699Y0233349D01*
X0199699Y0232350D02*
X0198999Y0232350D01*
X0198999Y0231352D02*
X0199699Y0231352D01*
X0199699Y0230353D02*
X0198999Y0230353D01*
X0198999Y0229355D02*
X0199699Y0229355D01*
X0199854Y0228356D02*
X0198844Y0228356D01*
X0198430Y0227358D02*
X0200268Y0227358D01*
X0207901Y0226632D02*
X0208291Y0227021D01*
X0208999Y0228730D01*
X0208999Y0236879D01*
X0208291Y0238588D01*
X0206983Y0239896D01*
X0206897Y0239932D01*
X0211801Y0239932D01*
X0211715Y0239896D01*
X0210407Y0238588D01*
X0209699Y0236879D01*
X0209699Y0228730D01*
X0210407Y0227021D01*
X0210797Y0226632D01*
X0207901Y0226632D01*
X0208430Y0227358D02*
X0210268Y0227358D01*
X0209854Y0228356D02*
X0208844Y0228356D01*
X0208999Y0229355D02*
X0209699Y0229355D01*
X0209699Y0230353D02*
X0208999Y0230353D01*
X0208999Y0231352D02*
X0209699Y0231352D01*
X0209699Y0232350D02*
X0208999Y0232350D01*
X0208999Y0233349D02*
X0209699Y0233349D01*
X0209699Y0234347D02*
X0208999Y0234347D01*
X0208999Y0235346D02*
X0209699Y0235346D01*
X0209699Y0236344D02*
X0208999Y0236344D01*
X0208807Y0237343D02*
X0209891Y0237343D01*
X0210305Y0238341D02*
X0208393Y0238341D01*
X0207539Y0239340D02*
X0211159Y0239340D01*
X0216897Y0239932D02*
X0221801Y0239932D01*
X0221715Y0239896D01*
X0220407Y0238588D01*
X0219699Y0236879D01*
X0219699Y0228730D01*
X0220407Y0227021D01*
X0220797Y0226632D01*
X0217901Y0226632D01*
X0218291Y0227021D01*
X0218999Y0228730D01*
X0218999Y0236879D01*
X0218291Y0238588D01*
X0216983Y0239896D01*
X0216897Y0239932D01*
X0217539Y0239340D02*
X0221159Y0239340D01*
X0220305Y0238341D02*
X0218393Y0238341D01*
X0218807Y0237343D02*
X0219891Y0237343D01*
X0219699Y0236344D02*
X0218999Y0236344D01*
X0218999Y0235346D02*
X0219699Y0235346D01*
X0219699Y0234347D02*
X0218999Y0234347D01*
X0218999Y0233349D02*
X0219699Y0233349D01*
X0219699Y0232350D02*
X0218999Y0232350D01*
X0218999Y0231352D02*
X0219699Y0231352D01*
X0219699Y0230353D02*
X0218999Y0230353D01*
X0218999Y0229355D02*
X0219699Y0229355D01*
X0219854Y0228356D02*
X0218844Y0228356D01*
X0218430Y0227358D02*
X0220268Y0227358D01*
X0224349Y0229655D02*
X0228325Y0233632D01*
X0276333Y0233632D01*
X0280333Y0229632D01*
X0282847Y0232350D02*
X0339353Y0232350D01*
X0339353Y0231352D02*
X0283626Y0231352D01*
X0284033Y0230353D02*
X0339353Y0230353D01*
X0339353Y0229355D02*
X0284033Y0229355D01*
X0283810Y0228356D02*
X0339573Y0228356D01*
X0339987Y0227358D02*
X0283292Y0227358D01*
X0282102Y0226359D02*
X0340400Y0226359D01*
X0339586Y0233349D02*
X0279445Y0233349D01*
X0278446Y0234347D02*
X0340000Y0234347D01*
X0340414Y0235346D02*
X0277448Y0235346D01*
X0278601Y0236344D02*
X0255066Y0236344D01*
X0251601Y0236344D02*
X0228999Y0236344D01*
X0228807Y0237343D02*
X0250390Y0237343D01*
X0249863Y0238341D02*
X0228393Y0238341D01*
X0227539Y0239340D02*
X0249633Y0239340D01*
X0253449Y0243334D02*
X0280217Y0243334D01*
X0277804Y0242335D02*
X0255862Y0242335D01*
X0256626Y0231352D02*
X0275785Y0231352D01*
X0276633Y0230353D02*
X0257033Y0230353D01*
X0257033Y0229355D02*
X0276633Y0229355D01*
X0276857Y0228356D02*
X0256810Y0228356D01*
X0256292Y0227358D02*
X0277375Y0227358D01*
X0278565Y0226359D02*
X0255102Y0226359D01*
X0253333Y0229632D02*
X0234333Y0229632D01*
X0233225Y0231352D02*
X0228999Y0231352D01*
X0228999Y0231476D02*
X0229154Y0231632D01*
X0250157Y0231632D01*
X0250157Y0231632D01*
X0233505Y0231632D01*
X0228505Y0226632D01*
X0227901Y0226632D01*
X0228291Y0227021D01*
X0228999Y0228730D01*
X0228999Y0231476D01*
X0228999Y0230353D02*
X0232227Y0230353D01*
X0231228Y0229355D02*
X0228999Y0229355D01*
X0228844Y0228356D02*
X0230230Y0228356D01*
X0229231Y0227358D02*
X0228430Y0227358D01*
X0282066Y0236344D02*
X0340827Y0236344D01*
X0341801Y0237343D02*
X0283277Y0237343D01*
X0283804Y0238341D02*
X0342799Y0238341D01*
X0370995Y0142484D02*
X0376633Y0142484D01*
X0376633Y0141486D02*
X0372158Y0141486D01*
X0375296Y0140487D02*
X0376633Y0140487D01*
X0376633Y0139489D02*
X0376295Y0139489D01*
X0079915Y0183423D02*
X0076269Y0183423D01*
X0076558Y0182425D02*
X0078917Y0182425D01*
X0064109Y0196404D02*
X0020144Y0196404D01*
X0046196Y0194407D02*
X0047164Y0194407D01*
X0047164Y0193408D02*
X0046196Y0193408D01*
X0046196Y0192410D02*
X0047164Y0192410D01*
X0050148Y0192410D02*
X0051240Y0192410D01*
X0063918Y0200398D02*
X0064109Y0200398D01*
X0069833Y0160457D02*
X0070833Y0160457D01*
X0070833Y0159459D02*
X0069833Y0159459D01*
X0069833Y0158460D02*
X0070833Y0158460D01*
X0070833Y0157462D02*
X0069833Y0157462D01*
X0069833Y0156463D02*
X0070833Y0156463D01*
X0033822Y0081575D02*
X0033222Y0081575D01*
X0033222Y0080577D02*
X0033822Y0080577D01*
D40*
X0129333Y0158632D02*
X0135908Y0152057D01*
X0140601Y0152057D01*
X0129333Y0158632D02*
X0129333Y0175632D01*
X0132333Y0172632D02*
X0132333Y0165632D01*
X0136459Y0161506D01*
X0140601Y0161506D01*
X0140601Y0164655D02*
X0140601Y0172364D01*
X0136333Y0175632D01*
X0162058Y0179356D02*
X0162058Y0170364D01*
X0162058Y0179356D02*
X0178333Y0195632D01*
X0178333Y0202132D01*
X0214333Y0202132D02*
X0235833Y0202132D01*
X0253333Y0219632D01*
X0189333Y0134285D02*
X0189333Y0120632D01*
X0060333Y0206632D02*
X0046680Y0206632D01*
X0046680Y0212632D02*
X0060333Y0212632D01*
X0062333Y0218632D02*
X0066333Y0214632D01*
X0062333Y0218632D02*
X0046680Y0218632D01*
D41*
X0061833Y0202132D02*
X0064333Y0204632D01*
X0144333Y0204632D01*
X0158759Y0190206D01*
X0084349Y0229647D02*
X0084333Y0229632D01*
X0084333Y0242632D01*
X0250333Y0242632D01*
X0253333Y0239632D01*
X0280333Y0239632D01*
X0282333Y0241632D01*
X0356333Y0241632D01*
X0365727Y0232238D01*
X0365727Y0227553D01*
X0365727Y0178553D02*
X0373412Y0178553D01*
X0379333Y0172632D01*
X0379333Y0132632D01*
X0373333Y0138632D01*
X0365806Y0138632D01*
X0365727Y0138553D01*
X0379333Y0132632D02*
X0379333Y0102632D01*
X0345333Y0068632D01*
X0110333Y0068632D01*
X0017444Y0191632D02*
X0017444Y0199632D01*
X0017444Y0206632D01*
X0017444Y0221632D01*
X0024333Y0228521D01*
X0024333Y0239632D01*
X0027333Y0242632D01*
X0084333Y0242632D01*
X0084349Y0229655D02*
X0084349Y0229647D01*
X0061833Y0202132D02*
X0054833Y0202132D01*
X0054333Y0202082D02*
X0038783Y0202082D01*
X0036333Y0199632D01*
X0017444Y0199632D01*
M02*
