G75*
%MOIN*%
%OFA0B0*%
%FSLAX25Y25*%
%IPPOS*%
%LPD*%
%AMOC8*
5,1,8,0,0,1.08239X$1,22.5*
%
%ADD10C,0.00500*%
%ADD11C,0.01200*%
%ADD12C,0.00600*%
%ADD13C,0.00400*%
%ADD14C,0.01000*%
%ADD15R,0.08268X0.01181*%
%ADD16C,0.00000*%
%ADD17C,0.00300*%
%ADD18C,0.00200*%
%ADD19R,0.06600X0.01300*%
%ADD20R,0.20472X0.00157*%
%ADD21R,0.03465X0.00157*%
%ADD22R,0.14803X0.00157*%
%ADD23R,0.02835X0.00157*%
%ADD24R,0.14016X0.00157*%
%ADD25R,0.02362X0.00157*%
%ADD26R,0.13543X0.00157*%
%ADD27R,0.02205X0.00157*%
%ADD28R,0.13071X0.00157*%
%ADD29R,0.02047X0.00157*%
%ADD30R,0.12756X0.00157*%
%ADD31R,0.01890X0.00157*%
%ADD32R,0.12441X0.00157*%
%ADD33R,0.12283X0.00157*%
%ADD34R,0.01732X0.00157*%
%ADD35R,0.11969X0.00157*%
%ADD36R,0.11811X0.00157*%
%ADD37R,0.11654X0.00157*%
%ADD38R,0.11496X0.00157*%
%ADD39R,0.11339X0.00157*%
%ADD40R,0.11181X0.00157*%
%ADD41R,0.11024X0.00157*%
%ADD42R,0.10866X0.00157*%
%ADD43R,0.10709X0.00157*%
%ADD44R,0.10551X0.00157*%
%ADD45R,0.02520X0.00157*%
%ADD46R,0.10394X0.00157*%
%ADD47R,0.02992X0.00157*%
%ADD48R,0.10236X0.00157*%
%ADD49R,0.04882X0.00157*%
%ADD50R,0.05512X0.00157*%
%ADD51R,0.10079X0.00157*%
%ADD52R,0.05827X0.00157*%
%ADD53R,0.05984X0.00157*%
%ADD54R,0.09921X0.00157*%
%ADD55R,0.06299X0.00157*%
%ADD56R,0.06457X0.00157*%
%ADD57R,0.09764X0.00157*%
%ADD58R,0.06614X0.00157*%
%ADD59R,0.09606X0.00157*%
%ADD60R,0.06772X0.00157*%
%ADD61R,0.06929X0.00157*%
%ADD62R,0.09449X0.00157*%
%ADD63R,0.07087X0.00157*%
%ADD64R,0.07244X0.00157*%
%ADD65R,0.09291X0.00157*%
%ADD66R,0.07402X0.00157*%
%ADD67R,0.09134X0.00157*%
%ADD68R,0.07559X0.00157*%
%ADD69R,0.07717X0.00157*%
%ADD70R,0.08976X0.00157*%
%ADD71R,0.04567X0.00157*%
%ADD72R,0.04094X0.00157*%
%ADD73R,0.03937X0.00157*%
%ADD74R,0.03780X0.00157*%
%ADD75R,0.03622X0.00157*%
%ADD76R,0.02677X0.00157*%
%ADD77R,0.01575X0.00157*%
D10*
X0019475Y0043632D02*
X0388371Y0043632D01*
X0388371Y0043631D02*
X0388629Y0043634D01*
X0388886Y0043643D01*
X0389143Y0043659D01*
X0389400Y0043681D01*
X0389656Y0043709D01*
X0389912Y0043743D01*
X0390166Y0043783D01*
X0390420Y0043830D01*
X0390672Y0043882D01*
X0390923Y0043941D01*
X0391172Y0044006D01*
X0391420Y0044076D01*
X0391666Y0044153D01*
X0391910Y0044235D01*
X0392152Y0044324D01*
X0392392Y0044418D01*
X0392629Y0044518D01*
X0392864Y0044624D01*
X0393097Y0044735D01*
X0393326Y0044852D01*
X0393553Y0044975D01*
X0393777Y0045103D01*
X0393997Y0045236D01*
X0394214Y0045375D01*
X0394428Y0045519D01*
X0394639Y0045667D01*
X0394845Y0045821D01*
X0395048Y0045980D01*
X0395247Y0046144D01*
X0395442Y0046313D01*
X0395633Y0046486D01*
X0395819Y0046664D01*
X0396001Y0046846D01*
X0396179Y0047032D01*
X0396352Y0047223D01*
X0396521Y0047418D01*
X0396685Y0047617D01*
X0396844Y0047820D01*
X0396998Y0048026D01*
X0397146Y0048237D01*
X0397290Y0048451D01*
X0397429Y0048668D01*
X0397562Y0048888D01*
X0397690Y0049112D01*
X0397813Y0049339D01*
X0397930Y0049568D01*
X0398041Y0049801D01*
X0398147Y0050036D01*
X0398247Y0050273D01*
X0398341Y0050513D01*
X0398430Y0050755D01*
X0398512Y0050999D01*
X0398589Y0051245D01*
X0398659Y0051493D01*
X0398724Y0051742D01*
X0398783Y0051993D01*
X0398835Y0052245D01*
X0398882Y0052499D01*
X0398922Y0052753D01*
X0398956Y0053009D01*
X0398984Y0053265D01*
X0399006Y0053522D01*
X0399022Y0053779D01*
X0399031Y0054036D01*
X0399034Y0054294D01*
X0399034Y0242709D01*
X0399032Y0242899D01*
X0399025Y0243090D01*
X0399013Y0243280D01*
X0398997Y0243470D01*
X0398977Y0243659D01*
X0398951Y0243848D01*
X0398921Y0244036D01*
X0398887Y0244224D01*
X0398848Y0244410D01*
X0398805Y0244596D01*
X0398757Y0244780D01*
X0398705Y0244963D01*
X0398648Y0245145D01*
X0398587Y0245325D01*
X0398522Y0245504D01*
X0398452Y0245682D01*
X0398378Y0245857D01*
X0398300Y0246031D01*
X0398218Y0246203D01*
X0398131Y0246372D01*
X0398040Y0246540D01*
X0397946Y0246705D01*
X0397847Y0246868D01*
X0397745Y0247029D01*
X0397639Y0247187D01*
X0397528Y0247343D01*
X0397415Y0247495D01*
X0397297Y0247645D01*
X0397176Y0247792D01*
X0397052Y0247936D01*
X0396923Y0248077D01*
X0396792Y0248215D01*
X0396657Y0248350D01*
X0396519Y0248481D01*
X0396378Y0248610D01*
X0396234Y0248734D01*
X0396087Y0248855D01*
X0395937Y0248973D01*
X0395785Y0249086D01*
X0395629Y0249197D01*
X0395471Y0249303D01*
X0395310Y0249405D01*
X0395147Y0249504D01*
X0394982Y0249598D01*
X0394814Y0249689D01*
X0394645Y0249776D01*
X0394473Y0249858D01*
X0394299Y0249936D01*
X0394124Y0250010D01*
X0393946Y0250080D01*
X0393767Y0250145D01*
X0393587Y0250206D01*
X0393405Y0250263D01*
X0393222Y0250315D01*
X0393038Y0250363D01*
X0392852Y0250406D01*
X0392666Y0250445D01*
X0392478Y0250479D01*
X0392290Y0250509D01*
X0392101Y0250535D01*
X0391912Y0250555D01*
X0391722Y0250571D01*
X0391532Y0250583D01*
X0391341Y0250590D01*
X0391151Y0250592D01*
X0017517Y0250592D01*
X0017223Y0250588D01*
X0016928Y0250578D01*
X0016634Y0250560D01*
X0016341Y0250535D01*
X0016048Y0250503D01*
X0015757Y0250464D01*
X0015466Y0250418D01*
X0015176Y0250365D01*
X0014888Y0250305D01*
X0014601Y0250238D01*
X0014316Y0250164D01*
X0014033Y0250083D01*
X0013752Y0249996D01*
X0013473Y0249901D01*
X0013196Y0249800D01*
X0012922Y0249693D01*
X0012651Y0249578D01*
X0012383Y0249457D01*
X0012117Y0249330D01*
X0011855Y0249196D01*
X0011596Y0249056D01*
X0011340Y0248910D01*
X0011088Y0248758D01*
X0010840Y0248600D01*
X0010596Y0248435D01*
X0010355Y0248265D01*
X0010119Y0248089D01*
X0009888Y0247908D01*
X0009660Y0247720D01*
X0009438Y0247528D01*
X0009220Y0247330D01*
X0009006Y0247127D01*
X0008798Y0246919D01*
X0008595Y0246705D01*
X0008397Y0246487D01*
X0008205Y0246265D01*
X0008017Y0246037D01*
X0007836Y0245806D01*
X0007660Y0245570D01*
X0007490Y0245329D01*
X0007325Y0245085D01*
X0007167Y0244837D01*
X0007015Y0244585D01*
X0006869Y0244329D01*
X0006729Y0244070D01*
X0006595Y0243808D01*
X0006468Y0243542D01*
X0006347Y0243274D01*
X0006232Y0243003D01*
X0006125Y0242729D01*
X0006024Y0242452D01*
X0005929Y0242173D01*
X0005842Y0241892D01*
X0005761Y0241609D01*
X0005687Y0241324D01*
X0005620Y0241037D01*
X0005560Y0240749D01*
X0005507Y0240459D01*
X0005461Y0240168D01*
X0005422Y0239877D01*
X0005390Y0239584D01*
X0005365Y0239291D01*
X0005347Y0238997D01*
X0005337Y0238702D01*
X0005333Y0238408D01*
X0005333Y0057774D01*
X0005337Y0057432D01*
X0005350Y0057091D01*
X0005370Y0056750D01*
X0005399Y0056409D01*
X0005436Y0056069D01*
X0005481Y0055731D01*
X0005535Y0055393D01*
X0005596Y0055057D01*
X0005666Y0054722D01*
X0005744Y0054390D01*
X0005830Y0054059D01*
X0005923Y0053730D01*
X0006025Y0053404D01*
X0006135Y0053080D01*
X0006252Y0052759D01*
X0006377Y0052441D01*
X0006510Y0052126D01*
X0006650Y0051815D01*
X0006798Y0051506D01*
X0006953Y0051202D01*
X0007115Y0050901D01*
X0007285Y0050605D01*
X0007462Y0050312D01*
X0007646Y0050024D01*
X0007836Y0049740D01*
X0008034Y0049462D01*
X0008238Y0049188D01*
X0008449Y0048918D01*
X0008666Y0048655D01*
X0008890Y0048396D01*
X0009119Y0048143D01*
X0009355Y0047896D01*
X0009597Y0047654D01*
X0009844Y0047418D01*
X0010097Y0047189D01*
X0010356Y0046965D01*
X0010619Y0046748D01*
X0010889Y0046537D01*
X0011163Y0046333D01*
X0011441Y0046135D01*
X0011725Y0045945D01*
X0012013Y0045761D01*
X0012306Y0045584D01*
X0012602Y0045414D01*
X0012903Y0045252D01*
X0013207Y0045097D01*
X0013516Y0044949D01*
X0013827Y0044809D01*
X0014142Y0044676D01*
X0014460Y0044551D01*
X0014781Y0044434D01*
X0015105Y0044324D01*
X0015431Y0044222D01*
X0015760Y0044129D01*
X0016091Y0044043D01*
X0016423Y0043965D01*
X0016758Y0043895D01*
X0017094Y0043834D01*
X0017432Y0043780D01*
X0017770Y0043735D01*
X0018110Y0043698D01*
X0018451Y0043669D01*
X0018792Y0043649D01*
X0019133Y0043636D01*
X0019475Y0043632D01*
X0127942Y0154628D02*
X0132446Y0154628D01*
X0132446Y0157630D01*
X0132446Y0159232D02*
X0132446Y0162234D01*
X0132446Y0160733D02*
X0127942Y0160733D01*
X0127942Y0163835D02*
X0127942Y0166087D01*
X0128693Y0166838D01*
X0131696Y0166838D01*
X0132446Y0166087D01*
X0132446Y0163835D01*
X0127942Y0163835D01*
X0127942Y0168439D02*
X0127942Y0169941D01*
X0127942Y0169190D02*
X0132446Y0169190D01*
X0132446Y0168439D02*
X0132446Y0169941D01*
X0130194Y0156129D02*
X0130194Y0154628D01*
X0192373Y0188632D02*
X0193124Y0187882D01*
X0194625Y0187882D01*
X0195375Y0188632D01*
X0196977Y0187882D02*
X0196977Y0192385D01*
X0195375Y0191635D02*
X0194625Y0192385D01*
X0193124Y0192385D01*
X0192373Y0191635D01*
X0192373Y0190884D01*
X0193124Y0190134D01*
X0192373Y0189383D01*
X0192373Y0188632D01*
X0193124Y0190134D02*
X0193874Y0190134D01*
X0196977Y0187882D02*
X0199979Y0192385D01*
X0199979Y0187882D01*
X0201581Y0187882D02*
X0203082Y0189383D01*
X0202331Y0189383D02*
X0204583Y0189383D01*
X0204583Y0187882D02*
X0204583Y0192385D01*
X0202331Y0192385D01*
X0201581Y0191635D01*
X0201581Y0190134D01*
X0202331Y0189383D01*
X0240085Y0161535D02*
X0240835Y0162285D01*
X0242337Y0162285D01*
X0243087Y0161535D01*
X0244689Y0161535D02*
X0245439Y0162285D01*
X0246941Y0162285D01*
X0247691Y0161535D01*
X0247691Y0158532D01*
X0246941Y0157782D01*
X0245439Y0157782D01*
X0244689Y0158532D01*
X0243087Y0157782D02*
X0240085Y0157782D01*
X0243087Y0157782D02*
X0240085Y0160784D01*
X0240085Y0161535D01*
X0249259Y0162285D02*
X0250760Y0162285D01*
X0250010Y0162285D02*
X0250010Y0157782D01*
X0250760Y0157782D02*
X0249259Y0157782D01*
X0314485Y0141182D02*
X0317487Y0141182D01*
X0315986Y0141182D02*
X0315986Y0145685D01*
X0317487Y0144184D01*
X0319089Y0144935D02*
X0319839Y0145685D01*
X0321341Y0145685D01*
X0322091Y0144935D01*
X0322091Y0141932D01*
X0321341Y0141182D01*
X0319839Y0141182D01*
X0319089Y0141932D01*
X0323659Y0141182D02*
X0325160Y0141182D01*
X0324410Y0141182D02*
X0324410Y0145685D01*
X0325160Y0145685D02*
X0323659Y0145685D01*
X0322581Y0202882D02*
X0324082Y0204383D01*
X0323331Y0204383D02*
X0325583Y0204383D01*
X0325583Y0202882D02*
X0325583Y0207385D01*
X0323331Y0207385D01*
X0322581Y0206635D01*
X0322581Y0205134D01*
X0323331Y0204383D01*
X0320979Y0202882D02*
X0320979Y0207385D01*
X0317977Y0202882D01*
X0317977Y0207385D01*
X0316375Y0206635D02*
X0315625Y0207385D01*
X0314124Y0207385D01*
X0313373Y0206635D01*
X0313373Y0205884D01*
X0316375Y0202882D01*
X0313373Y0202882D01*
X0375930Y0081674D02*
X0375930Y0078671D01*
X0378932Y0081674D01*
X0379683Y0081674D01*
X0380434Y0080923D01*
X0380434Y0079422D01*
X0379683Y0078671D01*
X0379683Y0077070D02*
X0380434Y0076319D01*
X0380434Y0074067D01*
X0375930Y0074067D01*
X0375930Y0076319D01*
X0376680Y0077070D01*
X0379683Y0077070D01*
X0065883Y0156132D02*
X0064333Y0156132D01*
X0065883Y0156132D02*
X0065883Y0168132D01*
X0064333Y0168132D01*
X0060333Y0168132D02*
X0058783Y0168132D01*
X0058783Y0156132D01*
X0060333Y0156132D01*
D11*
X0223333Y0133632D02*
X0223333Y0107632D01*
X0302333Y0107632D01*
X0302333Y0133632D01*
X0223333Y0133632D01*
X0302333Y0133632D02*
X0322333Y0133632D01*
X0322333Y0107632D01*
X0302333Y0107632D01*
D12*
X0299033Y0113932D02*
X0295697Y0117268D01*
X0295697Y0118102D01*
X0296531Y0118936D01*
X0298199Y0118936D01*
X0299033Y0118102D01*
X0293877Y0118102D02*
X0293877Y0114766D01*
X0290541Y0118102D01*
X0290541Y0114766D01*
X0291375Y0113932D01*
X0293043Y0113932D01*
X0293877Y0114766D01*
X0295697Y0113932D02*
X0299033Y0113932D01*
X0293877Y0118102D02*
X0293043Y0118936D01*
X0291375Y0118936D01*
X0290541Y0118102D01*
X0288721Y0117268D02*
X0287052Y0118936D01*
X0287052Y0113932D01*
X0285384Y0113932D02*
X0288721Y0113932D01*
X0283564Y0114766D02*
X0282730Y0113932D01*
X0281062Y0113932D01*
X0280228Y0114766D01*
X0280228Y0115600D01*
X0281062Y0116434D01*
X0283564Y0116434D01*
X0283564Y0114766D01*
X0283564Y0116434D02*
X0281896Y0118102D01*
X0280228Y0118936D01*
X0275072Y0118936D02*
X0278408Y0113932D01*
X0273251Y0114766D02*
X0269915Y0118102D01*
X0269915Y0114766D01*
X0270749Y0113932D01*
X0272417Y0113932D01*
X0273251Y0114766D01*
X0273251Y0118102D01*
X0272417Y0118936D01*
X0270749Y0118936D01*
X0269915Y0118102D01*
X0268095Y0118936D02*
X0264759Y0118936D01*
X0264759Y0118102D01*
X0268095Y0114766D01*
X0268095Y0113932D01*
X0262939Y0113932D02*
X0259602Y0118936D01*
X0257782Y0118102D02*
X0256948Y0118936D01*
X0255280Y0118936D01*
X0254446Y0118102D01*
X0254446Y0117268D01*
X0257782Y0113932D01*
X0254446Y0113932D01*
X0252626Y0113932D02*
X0249290Y0113932D01*
X0250958Y0113932D02*
X0250958Y0118936D01*
X0252626Y0117268D01*
X0254446Y0122332D02*
X0257782Y0122332D01*
X0254446Y0125668D01*
X0254446Y0126502D01*
X0255280Y0127336D01*
X0256948Y0127336D01*
X0257782Y0126502D01*
X0259602Y0125668D02*
X0261270Y0122332D01*
X0262939Y0125668D01*
X0269915Y0125668D02*
X0273251Y0122332D01*
X0275072Y0123166D02*
X0275072Y0124834D01*
X0275906Y0125668D01*
X0277574Y0125668D01*
X0278408Y0124834D01*
X0278408Y0123166D01*
X0277574Y0122332D01*
X0275906Y0122332D01*
X0275072Y0123166D01*
X0273251Y0125668D02*
X0269915Y0122332D01*
X0280228Y0123166D02*
X0281062Y0122332D01*
X0283564Y0122332D01*
X0283564Y0127336D01*
X0281062Y0127336D01*
X0280228Y0126502D01*
X0280228Y0125668D01*
X0281062Y0124834D01*
X0283564Y0124834D01*
X0281062Y0124834D02*
X0280228Y0124000D01*
X0280228Y0123166D01*
X0290541Y0124000D02*
X0290541Y0127336D01*
X0293877Y0127336D02*
X0293877Y0124000D01*
X0292209Y0122332D01*
X0290541Y0124000D01*
X0295697Y0123166D02*
X0295697Y0127336D01*
X0299033Y0127336D02*
X0299033Y0123166D01*
X0298199Y0122332D01*
X0296531Y0122332D01*
X0295697Y0123166D01*
X0314133Y0146632D02*
X0318333Y0146632D01*
X0318335Y0146720D01*
X0318341Y0146809D01*
X0318351Y0146897D01*
X0318364Y0146984D01*
X0318382Y0147071D01*
X0318403Y0147157D01*
X0318428Y0147242D01*
X0318457Y0147325D01*
X0318490Y0147408D01*
X0318526Y0147488D01*
X0318565Y0147567D01*
X0318608Y0147645D01*
X0318655Y0147720D01*
X0318705Y0147793D01*
X0318758Y0147864D01*
X0318814Y0147933D01*
X0318873Y0147999D01*
X0318935Y0148062D01*
X0318999Y0148122D01*
X0319066Y0148180D01*
X0319136Y0148234D01*
X0319208Y0148286D01*
X0319282Y0148334D01*
X0319359Y0148379D01*
X0319437Y0148420D01*
X0319517Y0148458D01*
X0319598Y0148492D01*
X0319681Y0148523D01*
X0319766Y0148550D01*
X0319851Y0148573D01*
X0319937Y0148592D01*
X0320025Y0148608D01*
X0320112Y0148620D01*
X0320200Y0148628D01*
X0320289Y0148632D01*
X0320377Y0148632D01*
X0320466Y0148628D01*
X0320554Y0148620D01*
X0320641Y0148608D01*
X0320729Y0148592D01*
X0320815Y0148573D01*
X0320900Y0148550D01*
X0320985Y0148523D01*
X0321068Y0148492D01*
X0321149Y0148458D01*
X0321229Y0148420D01*
X0321307Y0148379D01*
X0321384Y0148334D01*
X0321458Y0148286D01*
X0321530Y0148234D01*
X0321600Y0148180D01*
X0321667Y0148122D01*
X0321731Y0148062D01*
X0321793Y0147999D01*
X0321852Y0147933D01*
X0321908Y0147864D01*
X0321961Y0147793D01*
X0322011Y0147720D01*
X0322058Y0147645D01*
X0322101Y0147567D01*
X0322140Y0147488D01*
X0322176Y0147408D01*
X0322209Y0147325D01*
X0322238Y0147242D01*
X0322263Y0147157D01*
X0322284Y0147071D01*
X0322302Y0146984D01*
X0322315Y0146897D01*
X0322325Y0146809D01*
X0322331Y0146720D01*
X0322333Y0146632D01*
X0326533Y0146632D01*
X0326609Y0146634D01*
X0326685Y0146640D01*
X0326760Y0146649D01*
X0326835Y0146663D01*
X0326909Y0146680D01*
X0326982Y0146701D01*
X0327054Y0146725D01*
X0327125Y0146754D01*
X0327194Y0146785D01*
X0327261Y0146820D01*
X0327326Y0146859D01*
X0327390Y0146901D01*
X0327451Y0146946D01*
X0327510Y0146994D01*
X0327566Y0147045D01*
X0327620Y0147099D01*
X0327671Y0147155D01*
X0327719Y0147214D01*
X0327764Y0147275D01*
X0327806Y0147339D01*
X0327845Y0147404D01*
X0327880Y0147471D01*
X0327911Y0147540D01*
X0327940Y0147611D01*
X0327964Y0147683D01*
X0327985Y0147756D01*
X0328002Y0147830D01*
X0328016Y0147905D01*
X0328025Y0147980D01*
X0328031Y0148056D01*
X0328033Y0148132D01*
X0328033Y0185132D01*
X0328031Y0185208D01*
X0328025Y0185284D01*
X0328016Y0185359D01*
X0328002Y0185434D01*
X0327985Y0185508D01*
X0327964Y0185581D01*
X0327940Y0185653D01*
X0327911Y0185724D01*
X0327880Y0185793D01*
X0327845Y0185860D01*
X0327806Y0185925D01*
X0327764Y0185989D01*
X0327719Y0186050D01*
X0327671Y0186109D01*
X0327620Y0186165D01*
X0327566Y0186219D01*
X0327510Y0186270D01*
X0327451Y0186318D01*
X0327390Y0186363D01*
X0327326Y0186405D01*
X0327261Y0186444D01*
X0327194Y0186479D01*
X0327125Y0186510D01*
X0327054Y0186539D01*
X0326982Y0186563D01*
X0326909Y0186584D01*
X0326835Y0186601D01*
X0326760Y0186615D01*
X0326685Y0186624D01*
X0326609Y0186630D01*
X0326533Y0186632D01*
X0314133Y0186632D01*
X0314057Y0186630D01*
X0313981Y0186624D01*
X0313906Y0186615D01*
X0313831Y0186601D01*
X0313757Y0186584D01*
X0313684Y0186563D01*
X0313612Y0186539D01*
X0313541Y0186510D01*
X0313472Y0186479D01*
X0313405Y0186444D01*
X0313340Y0186405D01*
X0313276Y0186363D01*
X0313215Y0186318D01*
X0313156Y0186270D01*
X0313100Y0186219D01*
X0313046Y0186165D01*
X0312995Y0186109D01*
X0312947Y0186050D01*
X0312902Y0185989D01*
X0312860Y0185925D01*
X0312821Y0185860D01*
X0312786Y0185793D01*
X0312755Y0185724D01*
X0312726Y0185653D01*
X0312702Y0185581D01*
X0312681Y0185508D01*
X0312664Y0185434D01*
X0312650Y0185359D01*
X0312641Y0185284D01*
X0312635Y0185208D01*
X0312633Y0185132D01*
X0312633Y0148132D01*
X0312635Y0148056D01*
X0312641Y0147980D01*
X0312650Y0147905D01*
X0312664Y0147830D01*
X0312681Y0147756D01*
X0312702Y0147683D01*
X0312726Y0147611D01*
X0312755Y0147540D01*
X0312786Y0147471D01*
X0312821Y0147404D01*
X0312860Y0147339D01*
X0312902Y0147275D01*
X0312947Y0147214D01*
X0312995Y0147155D01*
X0313046Y0147099D01*
X0313100Y0147045D01*
X0313156Y0146994D01*
X0313215Y0146946D01*
X0313276Y0146901D01*
X0313340Y0146859D01*
X0313405Y0146820D01*
X0313472Y0146785D01*
X0313541Y0146754D01*
X0313612Y0146725D01*
X0313684Y0146701D01*
X0313757Y0146680D01*
X0313831Y0146663D01*
X0313906Y0146649D01*
X0313981Y0146640D01*
X0314057Y0146634D01*
X0314133Y0146632D01*
X0260033Y0165432D02*
X0260033Y0203832D01*
X0260031Y0203908D01*
X0260025Y0203984D01*
X0260016Y0204059D01*
X0260002Y0204134D01*
X0259985Y0204208D01*
X0259964Y0204281D01*
X0259940Y0204353D01*
X0259911Y0204424D01*
X0259880Y0204493D01*
X0259845Y0204560D01*
X0259806Y0204625D01*
X0259764Y0204689D01*
X0259719Y0204750D01*
X0259671Y0204809D01*
X0259620Y0204865D01*
X0259566Y0204919D01*
X0259510Y0204970D01*
X0259451Y0205018D01*
X0259390Y0205063D01*
X0259326Y0205105D01*
X0259261Y0205144D01*
X0259194Y0205179D01*
X0259125Y0205210D01*
X0259054Y0205239D01*
X0258982Y0205263D01*
X0258909Y0205284D01*
X0258835Y0205301D01*
X0258760Y0205315D01*
X0258685Y0205324D01*
X0258609Y0205330D01*
X0258533Y0205332D01*
X0232133Y0205332D01*
X0232057Y0205330D01*
X0231981Y0205324D01*
X0231906Y0205315D01*
X0231831Y0205301D01*
X0231757Y0205284D01*
X0231684Y0205263D01*
X0231612Y0205239D01*
X0231541Y0205210D01*
X0231472Y0205179D01*
X0231405Y0205144D01*
X0231340Y0205105D01*
X0231276Y0205063D01*
X0231215Y0205018D01*
X0231156Y0204970D01*
X0231100Y0204919D01*
X0231046Y0204865D01*
X0230995Y0204809D01*
X0230947Y0204750D01*
X0230902Y0204689D01*
X0230860Y0204625D01*
X0230821Y0204560D01*
X0230786Y0204493D01*
X0230755Y0204424D01*
X0230726Y0204353D01*
X0230702Y0204281D01*
X0230681Y0204208D01*
X0230664Y0204134D01*
X0230650Y0204059D01*
X0230641Y0203984D01*
X0230635Y0203908D01*
X0230633Y0203832D01*
X0230633Y0165432D01*
X0230635Y0165356D01*
X0230641Y0165280D01*
X0230650Y0165205D01*
X0230664Y0165130D01*
X0230681Y0165056D01*
X0230702Y0164983D01*
X0230726Y0164911D01*
X0230755Y0164840D01*
X0230786Y0164771D01*
X0230821Y0164704D01*
X0230860Y0164639D01*
X0230902Y0164575D01*
X0230947Y0164514D01*
X0230995Y0164455D01*
X0231046Y0164399D01*
X0231100Y0164345D01*
X0231156Y0164294D01*
X0231215Y0164246D01*
X0231276Y0164201D01*
X0231340Y0164159D01*
X0231405Y0164120D01*
X0231472Y0164085D01*
X0231541Y0164054D01*
X0231612Y0164025D01*
X0231684Y0164001D01*
X0231757Y0163980D01*
X0231831Y0163963D01*
X0231906Y0163949D01*
X0231981Y0163940D01*
X0232057Y0163934D01*
X0232133Y0163932D01*
X0242333Y0163932D01*
X0242335Y0164040D01*
X0242341Y0164148D01*
X0242351Y0164256D01*
X0242364Y0164364D01*
X0242382Y0164471D01*
X0242403Y0164577D01*
X0242428Y0164682D01*
X0242457Y0164787D01*
X0242490Y0164890D01*
X0242526Y0164992D01*
X0242567Y0165093D01*
X0242610Y0165192D01*
X0242658Y0165289D01*
X0242708Y0165385D01*
X0242762Y0165479D01*
X0242820Y0165570D01*
X0242881Y0165660D01*
X0242945Y0165748D01*
X0243012Y0165833D01*
X0243082Y0165915D01*
X0243155Y0165995D01*
X0243231Y0166072D01*
X0243310Y0166147D01*
X0243391Y0166218D01*
X0243475Y0166287D01*
X0243561Y0166353D01*
X0243649Y0166415D01*
X0243740Y0166474D01*
X0243833Y0166530D01*
X0243928Y0166583D01*
X0244024Y0166632D01*
X0244123Y0166677D01*
X0244223Y0166719D01*
X0244324Y0166757D01*
X0244427Y0166792D01*
X0244530Y0166823D01*
X0244635Y0166850D01*
X0244741Y0166873D01*
X0244848Y0166892D01*
X0244955Y0166908D01*
X0245063Y0166920D01*
X0245171Y0166928D01*
X0245279Y0166932D01*
X0245387Y0166932D01*
X0245495Y0166928D01*
X0245603Y0166920D01*
X0245711Y0166908D01*
X0245818Y0166892D01*
X0245925Y0166873D01*
X0246031Y0166850D01*
X0246136Y0166823D01*
X0246239Y0166792D01*
X0246342Y0166757D01*
X0246443Y0166719D01*
X0246543Y0166677D01*
X0246642Y0166632D01*
X0246738Y0166583D01*
X0246833Y0166530D01*
X0246926Y0166474D01*
X0247017Y0166415D01*
X0247105Y0166353D01*
X0247191Y0166287D01*
X0247275Y0166218D01*
X0247356Y0166147D01*
X0247435Y0166072D01*
X0247511Y0165995D01*
X0247584Y0165915D01*
X0247654Y0165833D01*
X0247721Y0165748D01*
X0247785Y0165660D01*
X0247846Y0165570D01*
X0247904Y0165479D01*
X0247958Y0165385D01*
X0248008Y0165289D01*
X0248056Y0165192D01*
X0248099Y0165093D01*
X0248140Y0164992D01*
X0248176Y0164890D01*
X0248209Y0164787D01*
X0248238Y0164682D01*
X0248263Y0164577D01*
X0248284Y0164471D01*
X0248302Y0164364D01*
X0248315Y0164256D01*
X0248325Y0164148D01*
X0248331Y0164040D01*
X0248333Y0163932D01*
X0258533Y0163932D01*
X0258609Y0163934D01*
X0258685Y0163940D01*
X0258760Y0163949D01*
X0258835Y0163963D01*
X0258909Y0163980D01*
X0258982Y0164001D01*
X0259054Y0164025D01*
X0259125Y0164054D01*
X0259194Y0164085D01*
X0259261Y0164120D01*
X0259326Y0164159D01*
X0259390Y0164201D01*
X0259451Y0164246D01*
X0259510Y0164294D01*
X0259566Y0164345D01*
X0259620Y0164399D01*
X0259671Y0164455D01*
X0259719Y0164514D01*
X0259764Y0164575D01*
X0259806Y0164639D01*
X0259845Y0164704D01*
X0259880Y0164771D01*
X0259911Y0164840D01*
X0259940Y0164911D01*
X0259964Y0164983D01*
X0259985Y0165056D01*
X0260002Y0165130D01*
X0260016Y0165205D01*
X0260025Y0165280D01*
X0260031Y0165356D01*
X0260033Y0165432D01*
X0247469Y0127336D02*
X0244967Y0127336D01*
X0244133Y0126502D01*
X0244133Y0124834D01*
X0244967Y0124000D01*
X0247469Y0124000D01*
X0245801Y0124000D02*
X0244133Y0122332D01*
X0242313Y0123166D02*
X0242313Y0124834D01*
X0241479Y0125668D01*
X0239811Y0125668D01*
X0238977Y0124834D01*
X0238977Y0124000D01*
X0242313Y0124000D01*
X0242313Y0123166D02*
X0241479Y0122332D01*
X0239811Y0122332D01*
X0237157Y0125668D02*
X0235488Y0122332D01*
X0233820Y0125668D01*
X0232000Y0125668D02*
X0232000Y0124834D01*
X0231166Y0124834D01*
X0231166Y0125668D01*
X0232000Y0125668D01*
X0232000Y0123166D02*
X0232000Y0122332D01*
X0231166Y0122332D01*
X0231166Y0123166D01*
X0232000Y0123166D01*
X0229422Y0123166D02*
X0228588Y0122332D01*
X0226920Y0122332D01*
X0226086Y0123166D01*
X0226086Y0126502D02*
X0226920Y0127336D01*
X0228588Y0127336D01*
X0229422Y0126502D01*
X0229422Y0123166D01*
X0247469Y0122332D02*
X0247469Y0127336D01*
X0125412Y0154062D02*
X0125412Y0160632D01*
X0125324Y0160634D01*
X0125235Y0160640D01*
X0125147Y0160650D01*
X0125060Y0160663D01*
X0124973Y0160681D01*
X0124887Y0160702D01*
X0124802Y0160727D01*
X0124719Y0160756D01*
X0124636Y0160789D01*
X0124556Y0160825D01*
X0124477Y0160864D01*
X0124399Y0160907D01*
X0124324Y0160954D01*
X0124251Y0161004D01*
X0124180Y0161057D01*
X0124111Y0161113D01*
X0124045Y0161172D01*
X0123982Y0161234D01*
X0123922Y0161298D01*
X0123864Y0161365D01*
X0123810Y0161435D01*
X0123758Y0161507D01*
X0123710Y0161581D01*
X0123665Y0161658D01*
X0123624Y0161736D01*
X0123586Y0161816D01*
X0123552Y0161897D01*
X0123521Y0161980D01*
X0123494Y0162065D01*
X0123471Y0162150D01*
X0123452Y0162236D01*
X0123436Y0162324D01*
X0123424Y0162411D01*
X0123416Y0162499D01*
X0123412Y0162588D01*
X0123412Y0162676D01*
X0123416Y0162765D01*
X0123424Y0162853D01*
X0123436Y0162940D01*
X0123452Y0163028D01*
X0123471Y0163114D01*
X0123494Y0163199D01*
X0123521Y0163284D01*
X0123552Y0163367D01*
X0123586Y0163448D01*
X0123624Y0163528D01*
X0123665Y0163606D01*
X0123710Y0163683D01*
X0123758Y0163757D01*
X0123810Y0163829D01*
X0123864Y0163899D01*
X0123922Y0163966D01*
X0123982Y0164030D01*
X0124045Y0164092D01*
X0124111Y0164151D01*
X0124180Y0164207D01*
X0124251Y0164260D01*
X0124324Y0164310D01*
X0124399Y0164357D01*
X0124477Y0164400D01*
X0124556Y0164439D01*
X0124636Y0164475D01*
X0124719Y0164508D01*
X0124802Y0164537D01*
X0124887Y0164562D01*
X0124973Y0164583D01*
X0125060Y0164601D01*
X0125147Y0164614D01*
X0125235Y0164624D01*
X0125324Y0164630D01*
X0125412Y0164632D01*
X0125412Y0171160D01*
X0125410Y0171241D01*
X0125404Y0171322D01*
X0125395Y0171403D01*
X0125381Y0171483D01*
X0125364Y0171563D01*
X0125343Y0171641D01*
X0125318Y0171719D01*
X0125290Y0171795D01*
X0125258Y0171870D01*
X0125222Y0171943D01*
X0125183Y0172014D01*
X0125141Y0172083D01*
X0125095Y0172151D01*
X0125047Y0172216D01*
X0124995Y0172279D01*
X0124940Y0172339D01*
X0124883Y0172396D01*
X0124823Y0172451D01*
X0124760Y0172503D01*
X0124695Y0172551D01*
X0124627Y0172597D01*
X0124558Y0172639D01*
X0124487Y0172678D01*
X0124414Y0172714D01*
X0124339Y0172746D01*
X0124263Y0172774D01*
X0124185Y0172799D01*
X0124107Y0172820D01*
X0124027Y0172837D01*
X0123947Y0172851D01*
X0123866Y0172860D01*
X0123785Y0172866D01*
X0123704Y0172868D01*
X0087178Y0172868D01*
X0087092Y0172866D01*
X0087006Y0172860D01*
X0086920Y0172851D01*
X0086835Y0172837D01*
X0086750Y0172820D01*
X0086666Y0172799D01*
X0086584Y0172774D01*
X0086502Y0172745D01*
X0086422Y0172713D01*
X0086344Y0172678D01*
X0086267Y0172638D01*
X0086192Y0172596D01*
X0086119Y0172550D01*
X0086048Y0172501D01*
X0085979Y0172448D01*
X0085913Y0172393D01*
X0085849Y0172335D01*
X0085788Y0172274D01*
X0085730Y0172210D01*
X0085675Y0172144D01*
X0085622Y0172075D01*
X0085573Y0172004D01*
X0085527Y0171931D01*
X0085485Y0171856D01*
X0085445Y0171779D01*
X0085410Y0171701D01*
X0085378Y0171621D01*
X0085349Y0171539D01*
X0085324Y0171457D01*
X0085303Y0171373D01*
X0085286Y0171288D01*
X0085272Y0171203D01*
X0085263Y0171117D01*
X0085257Y0171031D01*
X0085255Y0170945D01*
X0085255Y0154217D01*
X0085254Y0154217D02*
X0085256Y0154133D01*
X0085262Y0154049D01*
X0085271Y0153965D01*
X0085285Y0153882D01*
X0085302Y0153800D01*
X0085324Y0153718D01*
X0085348Y0153638D01*
X0085377Y0153559D01*
X0085409Y0153481D01*
X0085445Y0153405D01*
X0085484Y0153330D01*
X0085527Y0153258D01*
X0085573Y0153187D01*
X0085622Y0153119D01*
X0085674Y0153053D01*
X0085730Y0152990D01*
X0085788Y0152929D01*
X0085849Y0152871D01*
X0085912Y0152815D01*
X0085978Y0152763D01*
X0086046Y0152714D01*
X0086117Y0152668D01*
X0086189Y0152625D01*
X0086264Y0152586D01*
X0086340Y0152550D01*
X0086418Y0152518D01*
X0086497Y0152489D01*
X0086577Y0152465D01*
X0086659Y0152443D01*
X0086741Y0152426D01*
X0086824Y0152412D01*
X0086908Y0152403D01*
X0086992Y0152397D01*
X0087076Y0152395D01*
X0123746Y0152395D01*
X0123825Y0152397D01*
X0123904Y0152403D01*
X0123983Y0152412D01*
X0124061Y0152425D01*
X0124139Y0152442D01*
X0124216Y0152463D01*
X0124291Y0152487D01*
X0124366Y0152514D01*
X0124438Y0152546D01*
X0124510Y0152580D01*
X0124580Y0152618D01*
X0124647Y0152660D01*
X0124713Y0152704D01*
X0124776Y0152752D01*
X0124838Y0152802D01*
X0124896Y0152856D01*
X0124952Y0152912D01*
X0125006Y0152970D01*
X0125056Y0153032D01*
X0125104Y0153095D01*
X0125148Y0153161D01*
X0125190Y0153229D01*
X0125228Y0153298D01*
X0125262Y0153370D01*
X0125294Y0153442D01*
X0125321Y0153517D01*
X0125345Y0153592D01*
X0125366Y0153669D01*
X0125383Y0153747D01*
X0125396Y0153825D01*
X0125405Y0153904D01*
X0125411Y0153983D01*
X0125413Y0154062D01*
D13*
X0084637Y0158391D02*
X0083870Y0157624D01*
X0080801Y0157624D01*
X0080033Y0158391D01*
X0080033Y0159926D01*
X0080801Y0160693D01*
X0080801Y0162228D02*
X0080033Y0162995D01*
X0080033Y0164530D01*
X0080801Y0165297D01*
X0081568Y0165297D01*
X0082335Y0164530D01*
X0082335Y0162228D01*
X0080801Y0162228D01*
X0082335Y0162228D02*
X0083870Y0163762D01*
X0084637Y0165297D01*
X0083870Y0160693D02*
X0084637Y0159926D01*
X0084637Y0158391D01*
X0066633Y0173332D02*
X0066633Y0177936D01*
X0064331Y0177936D01*
X0063564Y0177168D01*
X0063564Y0175634D01*
X0064331Y0174866D01*
X0066633Y0174866D01*
X0065099Y0174866D02*
X0063564Y0173332D01*
X0062029Y0175634D02*
X0058960Y0175634D01*
X0059727Y0173332D02*
X0059727Y0177936D01*
X0062029Y0175634D01*
X0069356Y0182099D02*
X0070124Y0181332D01*
X0071658Y0181332D01*
X0072425Y0182099D01*
X0069356Y0185168D01*
X0069356Y0182099D01*
X0069356Y0185168D02*
X0070124Y0185936D01*
X0071658Y0185936D01*
X0072425Y0185168D01*
X0072425Y0182099D01*
X0073960Y0181332D02*
X0077029Y0181332D01*
X0075495Y0181332D02*
X0075495Y0185936D01*
X0077029Y0184401D01*
X0078564Y0185168D02*
X0079331Y0185936D01*
X0080866Y0185936D01*
X0081633Y0185168D01*
X0081633Y0182099D01*
X0080866Y0181332D01*
X0079331Y0181332D01*
X0078564Y0182099D01*
X0059133Y0194599D02*
X0058366Y0193832D01*
X0056831Y0193832D01*
X0056064Y0194599D01*
X0054529Y0194599D02*
X0054529Y0193832D01*
X0054529Y0194599D02*
X0051460Y0197668D01*
X0051460Y0198436D01*
X0054529Y0198436D01*
X0056064Y0197668D02*
X0056831Y0198436D01*
X0058366Y0198436D01*
X0059133Y0197668D01*
X0059133Y0194599D01*
X0033602Y0178778D02*
X0023022Y0178778D01*
X0022179Y0175281D02*
X0022179Y0174463D01*
X0012778Y0173441D01*
X0012778Y0171397D01*
X0022179Y0170376D01*
X0022179Y0169558D01*
X0011347Y0170580D01*
X0011281Y0170587D01*
X0011216Y0170598D01*
X0011151Y0170612D01*
X0011088Y0170630D01*
X0011025Y0170652D01*
X0010964Y0170677D01*
X0010904Y0170705D01*
X0010846Y0170737D01*
X0010790Y0170773D01*
X0010736Y0170811D01*
X0010685Y0170852D01*
X0010636Y0170896D01*
X0010589Y0170943D01*
X0010545Y0170993D01*
X0010504Y0171045D01*
X0010466Y0171099D01*
X0010431Y0171155D01*
X0010400Y0171213D01*
X0010372Y0171273D01*
X0010347Y0171335D01*
X0010326Y0171397D01*
X0010326Y0173646D02*
X0010347Y0173708D01*
X0010372Y0173770D01*
X0010400Y0173830D01*
X0010431Y0173888D01*
X0010466Y0173944D01*
X0010504Y0173998D01*
X0010545Y0174050D01*
X0010589Y0174100D01*
X0010636Y0174147D01*
X0010685Y0174191D01*
X0010736Y0174232D01*
X0010790Y0174270D01*
X0010846Y0174306D01*
X0010904Y0174338D01*
X0010964Y0174366D01*
X0011025Y0174391D01*
X0011088Y0174413D01*
X0011151Y0174431D01*
X0011216Y0174445D01*
X0011281Y0174456D01*
X0011347Y0174463D01*
X0022179Y0175281D01*
X0010326Y0173646D02*
X0010292Y0173531D01*
X0010262Y0173414D01*
X0010236Y0173297D01*
X0010214Y0173179D01*
X0010195Y0173061D01*
X0010180Y0172941D01*
X0010169Y0172822D01*
X0010161Y0172702D01*
X0010157Y0172582D01*
X0010157Y0172462D01*
X0010161Y0172342D01*
X0010169Y0172222D01*
X0010180Y0172103D01*
X0010195Y0171983D01*
X0010214Y0171865D01*
X0010236Y0171747D01*
X0010262Y0171630D01*
X0010292Y0171513D01*
X0010326Y0171398D01*
X0011348Y0168536D02*
X0027289Y0167719D01*
X0027290Y0167719D02*
X0027347Y0167714D01*
X0027404Y0167705D01*
X0027460Y0167692D01*
X0027515Y0167676D01*
X0027569Y0167656D01*
X0027621Y0167632D01*
X0027672Y0167606D01*
X0027721Y0167575D01*
X0027768Y0167542D01*
X0027813Y0167506D01*
X0027855Y0167466D01*
X0027894Y0167424D01*
X0027930Y0167380D01*
X0027964Y0167333D01*
X0027994Y0167284D01*
X0028021Y0167233D01*
X0028044Y0167181D01*
X0028064Y0167127D01*
X0028080Y0167071D01*
X0028093Y0167015D01*
X0028102Y0166958D01*
X0028107Y0166901D01*
X0028107Y0160361D01*
X0028102Y0160304D01*
X0028093Y0160247D01*
X0028080Y0160191D01*
X0028064Y0160136D01*
X0028044Y0160082D01*
X0028021Y0160029D01*
X0027994Y0159978D01*
X0027964Y0159929D01*
X0027930Y0159882D01*
X0027894Y0159838D01*
X0027855Y0159796D01*
X0027812Y0159756D01*
X0027768Y0159720D01*
X0027721Y0159687D01*
X0027672Y0159656D01*
X0027621Y0159629D01*
X0027569Y0159606D01*
X0027515Y0159586D01*
X0027460Y0159570D01*
X0027403Y0159557D01*
X0027347Y0159548D01*
X0027289Y0159543D01*
X0027289Y0159544D02*
X0011348Y0158726D01*
X0011347Y0158727D02*
X0011291Y0158729D01*
X0011236Y0158735D01*
X0011181Y0158744D01*
X0011127Y0158757D01*
X0011073Y0158774D01*
X0011022Y0158795D01*
X0010971Y0158819D01*
X0010922Y0158846D01*
X0010876Y0158877D01*
X0010831Y0158910D01*
X0010789Y0158947D01*
X0010750Y0158986D01*
X0010713Y0159028D01*
X0010680Y0159073D01*
X0010649Y0159119D01*
X0010622Y0159168D01*
X0010598Y0159219D01*
X0010577Y0159270D01*
X0010560Y0159324D01*
X0010547Y0159378D01*
X0010538Y0159433D01*
X0010532Y0159488D01*
X0010530Y0159544D01*
X0010530Y0159544D01*
X0010532Y0159600D01*
X0010538Y0159655D01*
X0010547Y0159710D01*
X0010560Y0159764D01*
X0010577Y0159818D01*
X0010598Y0159869D01*
X0010622Y0159920D01*
X0010649Y0159969D01*
X0010680Y0160015D01*
X0010713Y0160060D01*
X0010750Y0160102D01*
X0010789Y0160141D01*
X0010831Y0160178D01*
X0010876Y0160211D01*
X0010922Y0160242D01*
X0010971Y0160269D01*
X0011022Y0160293D01*
X0011073Y0160314D01*
X0011127Y0160331D01*
X0011181Y0160344D01*
X0011236Y0160353D01*
X0011291Y0160359D01*
X0011347Y0160361D01*
X0011347Y0160362D02*
X0024836Y0161179D01*
X0024836Y0161178D02*
X0024836Y0166084D01*
X0011347Y0166901D01*
X0011291Y0166903D01*
X0011236Y0166909D01*
X0011181Y0166918D01*
X0011127Y0166931D01*
X0011073Y0166948D01*
X0011022Y0166969D01*
X0010971Y0166993D01*
X0010922Y0167020D01*
X0010876Y0167051D01*
X0010831Y0167084D01*
X0010789Y0167121D01*
X0010750Y0167160D01*
X0010713Y0167202D01*
X0010680Y0167247D01*
X0010649Y0167293D01*
X0010622Y0167342D01*
X0010598Y0167393D01*
X0010577Y0167444D01*
X0010560Y0167498D01*
X0010547Y0167552D01*
X0010538Y0167607D01*
X0010532Y0167662D01*
X0010530Y0167718D01*
X0010530Y0167719D02*
X0010532Y0167775D01*
X0010538Y0167830D01*
X0010547Y0167885D01*
X0010560Y0167939D01*
X0010577Y0167993D01*
X0010598Y0168044D01*
X0010622Y0168095D01*
X0010649Y0168144D01*
X0010680Y0168190D01*
X0010713Y0168235D01*
X0010750Y0168277D01*
X0010789Y0168316D01*
X0010831Y0168353D01*
X0010876Y0168386D01*
X0010922Y0168417D01*
X0010971Y0168444D01*
X0011022Y0168468D01*
X0011073Y0168489D01*
X0011127Y0168506D01*
X0011181Y0168519D01*
X0011236Y0168528D01*
X0011291Y0168534D01*
X0011347Y0168536D01*
X0011953Y0178755D02*
X0006033Y0178755D01*
X0006033Y0148507D01*
X0011953Y0148508D01*
X0011347Y0152799D02*
X0022179Y0151982D01*
X0022179Y0152799D01*
X0012778Y0153821D01*
X0012778Y0155865D01*
X0022179Y0156887D01*
X0022179Y0157704D01*
X0011347Y0156682D01*
X0011281Y0156675D01*
X0011216Y0156664D01*
X0011151Y0156650D01*
X0011088Y0156632D01*
X0011025Y0156610D01*
X0010964Y0156585D01*
X0010904Y0156557D01*
X0010846Y0156525D01*
X0010790Y0156489D01*
X0010736Y0156451D01*
X0010685Y0156410D01*
X0010636Y0156366D01*
X0010589Y0156319D01*
X0010545Y0156269D01*
X0010504Y0156217D01*
X0010466Y0156163D01*
X0010431Y0156107D01*
X0010400Y0156049D01*
X0010372Y0155989D01*
X0010347Y0155927D01*
X0010326Y0155865D01*
X0010326Y0153616D02*
X0010347Y0153554D01*
X0010372Y0153492D01*
X0010400Y0153432D01*
X0010431Y0153374D01*
X0010466Y0153318D01*
X0010504Y0153264D01*
X0010545Y0153212D01*
X0010589Y0153162D01*
X0010636Y0153115D01*
X0010685Y0153071D01*
X0010736Y0153030D01*
X0010790Y0152992D01*
X0010846Y0152956D01*
X0010904Y0152924D01*
X0010964Y0152896D01*
X0011025Y0152871D01*
X0011088Y0152849D01*
X0011151Y0152831D01*
X0011216Y0152817D01*
X0011281Y0152806D01*
X0011347Y0152799D01*
X0010326Y0153617D02*
X0010292Y0153732D01*
X0010262Y0153849D01*
X0010236Y0153966D01*
X0010214Y0154084D01*
X0010195Y0154202D01*
X0010180Y0154322D01*
X0010169Y0154441D01*
X0010161Y0154561D01*
X0010157Y0154681D01*
X0010157Y0154801D01*
X0010161Y0154921D01*
X0010169Y0155041D01*
X0010180Y0155160D01*
X0010195Y0155280D01*
X0010214Y0155398D01*
X0010236Y0155516D01*
X0010262Y0155633D01*
X0010292Y0155750D01*
X0010326Y0155865D01*
X0006015Y0148485D02*
X0006015Y0178778D01*
X0006033Y0178756D02*
X0006033Y0178755D01*
X0036459Y0176719D02*
X0036459Y0174261D01*
X0040976Y0174261D01*
X0040976Y0176751D01*
X0052533Y0168609D02*
X0052533Y0165539D01*
X0052533Y0167074D02*
X0057137Y0167074D01*
X0055603Y0165539D01*
X0056370Y0164005D02*
X0057137Y0163237D01*
X0057137Y0160936D01*
X0052533Y0160936D01*
X0052533Y0163237D01*
X0053301Y0164005D01*
X0056370Y0164005D01*
X0056370Y0159401D02*
X0057137Y0158634D01*
X0057137Y0157099D01*
X0056370Y0156332D01*
X0055603Y0156332D01*
X0054835Y0157099D01*
X0054835Y0158634D01*
X0054068Y0159401D01*
X0053301Y0159401D01*
X0052533Y0158634D01*
X0052533Y0157099D01*
X0053301Y0156332D01*
X0040910Y0153401D02*
X0040910Y0150544D01*
X0040910Y0153401D02*
X0036459Y0153401D01*
X0036459Y0150544D01*
X0033204Y0148485D02*
X0023222Y0148485D01*
X0022376Y0139936D02*
X0022376Y0136099D01*
X0023143Y0135332D01*
X0024678Y0135332D01*
X0025445Y0136099D01*
X0025445Y0139936D01*
X0020841Y0139168D02*
X0020841Y0138401D01*
X0020074Y0137634D01*
X0018539Y0137634D01*
X0017772Y0136866D01*
X0017772Y0136099D01*
X0018539Y0135332D01*
X0020074Y0135332D01*
X0020841Y0136099D01*
X0020841Y0139168D02*
X0020074Y0139936D01*
X0018539Y0139936D01*
X0017772Y0139168D01*
X0016237Y0139936D02*
X0016237Y0135332D01*
X0013935Y0135332D01*
X0013168Y0136099D01*
X0013168Y0136866D01*
X0013935Y0137634D01*
X0016237Y0137634D01*
X0016237Y0139936D02*
X0013935Y0139936D01*
X0013168Y0139168D01*
X0013168Y0138401D01*
X0013935Y0137634D01*
X0165960Y0200332D02*
X0169029Y0200332D01*
X0165960Y0203401D01*
X0165960Y0204168D01*
X0166727Y0204936D01*
X0168262Y0204936D01*
X0169029Y0204168D01*
X0170564Y0204168D02*
X0170564Y0201099D01*
X0171331Y0200332D01*
X0172866Y0200332D01*
X0173633Y0201099D01*
X0173633Y0204168D01*
X0172866Y0204936D01*
X0171331Y0204936D01*
X0170564Y0204168D01*
X0172099Y0201866D02*
X0170564Y0200332D01*
X0351960Y0086168D02*
X0352727Y0086936D01*
X0354262Y0086936D01*
X0355029Y0086168D01*
X0355029Y0085401D01*
X0354262Y0084634D01*
X0351960Y0084634D01*
X0351960Y0086168D02*
X0351960Y0083099D01*
X0352727Y0082332D01*
X0354262Y0082332D01*
X0355029Y0083099D01*
X0356564Y0082332D02*
X0358099Y0083866D01*
X0357331Y0083866D02*
X0359633Y0083866D01*
X0359633Y0082332D02*
X0359633Y0086936D01*
X0357331Y0086936D01*
X0356564Y0086168D01*
X0356564Y0084634D01*
X0357331Y0083866D01*
D14*
X0367577Y0078435D02*
X0373089Y0078435D01*
X0370333Y0083356D01*
X0367577Y0078435D01*
D15*
X0370333Y0083553D03*
D16*
X0055544Y0076143D02*
X0055546Y0076223D01*
X0055552Y0076302D01*
X0055562Y0076381D01*
X0055576Y0076460D01*
X0055593Y0076538D01*
X0055615Y0076615D01*
X0055640Y0076690D01*
X0055670Y0076764D01*
X0055702Y0076837D01*
X0055739Y0076908D01*
X0055779Y0076977D01*
X0055822Y0077044D01*
X0055869Y0077109D01*
X0055918Y0077171D01*
X0055971Y0077231D01*
X0056027Y0077288D01*
X0056085Y0077343D01*
X0056146Y0077394D01*
X0056210Y0077442D01*
X0056276Y0077487D01*
X0056344Y0077529D01*
X0056414Y0077567D01*
X0056486Y0077601D01*
X0056559Y0077632D01*
X0056634Y0077660D01*
X0056711Y0077683D01*
X0056788Y0077703D01*
X0056866Y0077719D01*
X0056945Y0077731D01*
X0057024Y0077739D01*
X0057104Y0077743D01*
X0057184Y0077743D01*
X0057264Y0077739D01*
X0057343Y0077731D01*
X0057422Y0077719D01*
X0057500Y0077703D01*
X0057577Y0077683D01*
X0057654Y0077660D01*
X0057729Y0077632D01*
X0057802Y0077601D01*
X0057874Y0077567D01*
X0057944Y0077529D01*
X0058012Y0077487D01*
X0058078Y0077442D01*
X0058142Y0077394D01*
X0058203Y0077343D01*
X0058261Y0077288D01*
X0058317Y0077231D01*
X0058370Y0077171D01*
X0058419Y0077109D01*
X0058466Y0077044D01*
X0058509Y0076977D01*
X0058549Y0076908D01*
X0058586Y0076837D01*
X0058618Y0076764D01*
X0058648Y0076690D01*
X0058673Y0076615D01*
X0058695Y0076538D01*
X0058712Y0076460D01*
X0058726Y0076381D01*
X0058736Y0076302D01*
X0058742Y0076223D01*
X0058744Y0076143D01*
X0058742Y0076063D01*
X0058736Y0075984D01*
X0058726Y0075905D01*
X0058712Y0075826D01*
X0058695Y0075748D01*
X0058673Y0075671D01*
X0058648Y0075596D01*
X0058618Y0075522D01*
X0058586Y0075449D01*
X0058549Y0075378D01*
X0058509Y0075309D01*
X0058466Y0075242D01*
X0058419Y0075177D01*
X0058370Y0075115D01*
X0058317Y0075055D01*
X0058261Y0074998D01*
X0058203Y0074943D01*
X0058142Y0074892D01*
X0058078Y0074844D01*
X0058012Y0074799D01*
X0057944Y0074757D01*
X0057874Y0074719D01*
X0057802Y0074685D01*
X0057729Y0074654D01*
X0057654Y0074626D01*
X0057577Y0074603D01*
X0057500Y0074583D01*
X0057422Y0074567D01*
X0057343Y0074555D01*
X0057264Y0074547D01*
X0057184Y0074543D01*
X0057104Y0074543D01*
X0057024Y0074547D01*
X0056945Y0074555D01*
X0056866Y0074567D01*
X0056788Y0074583D01*
X0056711Y0074603D01*
X0056634Y0074626D01*
X0056559Y0074654D01*
X0056486Y0074685D01*
X0056414Y0074719D01*
X0056344Y0074757D01*
X0056276Y0074799D01*
X0056210Y0074844D01*
X0056146Y0074892D01*
X0056085Y0074943D01*
X0056027Y0074998D01*
X0055971Y0075055D01*
X0055918Y0075115D01*
X0055869Y0075177D01*
X0055822Y0075242D01*
X0055779Y0075309D01*
X0055739Y0075378D01*
X0055702Y0075449D01*
X0055670Y0075522D01*
X0055640Y0075596D01*
X0055615Y0075671D01*
X0055593Y0075748D01*
X0055576Y0075826D01*
X0055562Y0075905D01*
X0055552Y0075984D01*
X0055546Y0076063D01*
X0055544Y0076143D01*
X0055544Y0075356D02*
X0055546Y0075436D01*
X0055552Y0075515D01*
X0055562Y0075594D01*
X0055576Y0075673D01*
X0055593Y0075751D01*
X0055615Y0075828D01*
X0055640Y0075903D01*
X0055670Y0075977D01*
X0055702Y0076050D01*
X0055739Y0076121D01*
X0055779Y0076190D01*
X0055822Y0076257D01*
X0055869Y0076322D01*
X0055918Y0076384D01*
X0055971Y0076444D01*
X0056027Y0076501D01*
X0056085Y0076556D01*
X0056146Y0076607D01*
X0056210Y0076655D01*
X0056276Y0076700D01*
X0056344Y0076742D01*
X0056414Y0076780D01*
X0056486Y0076814D01*
X0056559Y0076845D01*
X0056634Y0076873D01*
X0056711Y0076896D01*
X0056788Y0076916D01*
X0056866Y0076932D01*
X0056945Y0076944D01*
X0057024Y0076952D01*
X0057104Y0076956D01*
X0057184Y0076956D01*
X0057264Y0076952D01*
X0057343Y0076944D01*
X0057422Y0076932D01*
X0057500Y0076916D01*
X0057577Y0076896D01*
X0057654Y0076873D01*
X0057729Y0076845D01*
X0057802Y0076814D01*
X0057874Y0076780D01*
X0057944Y0076742D01*
X0058012Y0076700D01*
X0058078Y0076655D01*
X0058142Y0076607D01*
X0058203Y0076556D01*
X0058261Y0076501D01*
X0058317Y0076444D01*
X0058370Y0076384D01*
X0058419Y0076322D01*
X0058466Y0076257D01*
X0058509Y0076190D01*
X0058549Y0076121D01*
X0058586Y0076050D01*
X0058618Y0075977D01*
X0058648Y0075903D01*
X0058673Y0075828D01*
X0058695Y0075751D01*
X0058712Y0075673D01*
X0058726Y0075594D01*
X0058736Y0075515D01*
X0058742Y0075436D01*
X0058744Y0075356D01*
X0058742Y0075276D01*
X0058736Y0075197D01*
X0058726Y0075118D01*
X0058712Y0075039D01*
X0058695Y0074961D01*
X0058673Y0074884D01*
X0058648Y0074809D01*
X0058618Y0074735D01*
X0058586Y0074662D01*
X0058549Y0074591D01*
X0058509Y0074522D01*
X0058466Y0074455D01*
X0058419Y0074390D01*
X0058370Y0074328D01*
X0058317Y0074268D01*
X0058261Y0074211D01*
X0058203Y0074156D01*
X0058142Y0074105D01*
X0058078Y0074057D01*
X0058012Y0074012D01*
X0057944Y0073970D01*
X0057874Y0073932D01*
X0057802Y0073898D01*
X0057729Y0073867D01*
X0057654Y0073839D01*
X0057577Y0073816D01*
X0057500Y0073796D01*
X0057422Y0073780D01*
X0057343Y0073768D01*
X0057264Y0073760D01*
X0057184Y0073756D01*
X0057104Y0073756D01*
X0057024Y0073760D01*
X0056945Y0073768D01*
X0056866Y0073780D01*
X0056788Y0073796D01*
X0056711Y0073816D01*
X0056634Y0073839D01*
X0056559Y0073867D01*
X0056486Y0073898D01*
X0056414Y0073932D01*
X0056344Y0073970D01*
X0056276Y0074012D01*
X0056210Y0074057D01*
X0056146Y0074105D01*
X0056085Y0074156D01*
X0056027Y0074211D01*
X0055971Y0074268D01*
X0055918Y0074328D01*
X0055869Y0074390D01*
X0055822Y0074455D01*
X0055779Y0074522D01*
X0055739Y0074591D01*
X0055702Y0074662D01*
X0055670Y0074735D01*
X0055640Y0074809D01*
X0055615Y0074884D01*
X0055593Y0074961D01*
X0055576Y0075039D01*
X0055562Y0075118D01*
X0055552Y0075197D01*
X0055546Y0075276D01*
X0055544Y0075356D01*
X0055544Y0074569D02*
X0055546Y0074649D01*
X0055552Y0074728D01*
X0055562Y0074807D01*
X0055576Y0074886D01*
X0055593Y0074964D01*
X0055615Y0075041D01*
X0055640Y0075116D01*
X0055670Y0075190D01*
X0055702Y0075263D01*
X0055739Y0075334D01*
X0055779Y0075403D01*
X0055822Y0075470D01*
X0055869Y0075535D01*
X0055918Y0075597D01*
X0055971Y0075657D01*
X0056027Y0075714D01*
X0056085Y0075769D01*
X0056146Y0075820D01*
X0056210Y0075868D01*
X0056276Y0075913D01*
X0056344Y0075955D01*
X0056414Y0075993D01*
X0056486Y0076027D01*
X0056559Y0076058D01*
X0056634Y0076086D01*
X0056711Y0076109D01*
X0056788Y0076129D01*
X0056866Y0076145D01*
X0056945Y0076157D01*
X0057024Y0076165D01*
X0057104Y0076169D01*
X0057184Y0076169D01*
X0057264Y0076165D01*
X0057343Y0076157D01*
X0057422Y0076145D01*
X0057500Y0076129D01*
X0057577Y0076109D01*
X0057654Y0076086D01*
X0057729Y0076058D01*
X0057802Y0076027D01*
X0057874Y0075993D01*
X0057944Y0075955D01*
X0058012Y0075913D01*
X0058078Y0075868D01*
X0058142Y0075820D01*
X0058203Y0075769D01*
X0058261Y0075714D01*
X0058317Y0075657D01*
X0058370Y0075597D01*
X0058419Y0075535D01*
X0058466Y0075470D01*
X0058509Y0075403D01*
X0058549Y0075334D01*
X0058586Y0075263D01*
X0058618Y0075190D01*
X0058648Y0075116D01*
X0058673Y0075041D01*
X0058695Y0074964D01*
X0058712Y0074886D01*
X0058726Y0074807D01*
X0058736Y0074728D01*
X0058742Y0074649D01*
X0058744Y0074569D01*
X0058742Y0074489D01*
X0058736Y0074410D01*
X0058726Y0074331D01*
X0058712Y0074252D01*
X0058695Y0074174D01*
X0058673Y0074097D01*
X0058648Y0074022D01*
X0058618Y0073948D01*
X0058586Y0073875D01*
X0058549Y0073804D01*
X0058509Y0073735D01*
X0058466Y0073668D01*
X0058419Y0073603D01*
X0058370Y0073541D01*
X0058317Y0073481D01*
X0058261Y0073424D01*
X0058203Y0073369D01*
X0058142Y0073318D01*
X0058078Y0073270D01*
X0058012Y0073225D01*
X0057944Y0073183D01*
X0057874Y0073145D01*
X0057802Y0073111D01*
X0057729Y0073080D01*
X0057654Y0073052D01*
X0057577Y0073029D01*
X0057500Y0073009D01*
X0057422Y0072993D01*
X0057343Y0072981D01*
X0057264Y0072973D01*
X0057184Y0072969D01*
X0057104Y0072969D01*
X0057024Y0072973D01*
X0056945Y0072981D01*
X0056866Y0072993D01*
X0056788Y0073009D01*
X0056711Y0073029D01*
X0056634Y0073052D01*
X0056559Y0073080D01*
X0056486Y0073111D01*
X0056414Y0073145D01*
X0056344Y0073183D01*
X0056276Y0073225D01*
X0056210Y0073270D01*
X0056146Y0073318D01*
X0056085Y0073369D01*
X0056027Y0073424D01*
X0055971Y0073481D01*
X0055918Y0073541D01*
X0055869Y0073603D01*
X0055822Y0073668D01*
X0055779Y0073735D01*
X0055739Y0073804D01*
X0055702Y0073875D01*
X0055670Y0073948D01*
X0055640Y0074022D01*
X0055615Y0074097D01*
X0055593Y0074174D01*
X0055576Y0074252D01*
X0055562Y0074331D01*
X0055552Y0074410D01*
X0055546Y0074489D01*
X0055544Y0074569D01*
X0055544Y0073781D02*
X0055546Y0073861D01*
X0055552Y0073940D01*
X0055562Y0074019D01*
X0055576Y0074098D01*
X0055593Y0074176D01*
X0055615Y0074253D01*
X0055640Y0074328D01*
X0055670Y0074402D01*
X0055702Y0074475D01*
X0055739Y0074546D01*
X0055779Y0074615D01*
X0055822Y0074682D01*
X0055869Y0074747D01*
X0055918Y0074809D01*
X0055971Y0074869D01*
X0056027Y0074926D01*
X0056085Y0074981D01*
X0056146Y0075032D01*
X0056210Y0075080D01*
X0056276Y0075125D01*
X0056344Y0075167D01*
X0056414Y0075205D01*
X0056486Y0075239D01*
X0056559Y0075270D01*
X0056634Y0075298D01*
X0056711Y0075321D01*
X0056788Y0075341D01*
X0056866Y0075357D01*
X0056945Y0075369D01*
X0057024Y0075377D01*
X0057104Y0075381D01*
X0057184Y0075381D01*
X0057264Y0075377D01*
X0057343Y0075369D01*
X0057422Y0075357D01*
X0057500Y0075341D01*
X0057577Y0075321D01*
X0057654Y0075298D01*
X0057729Y0075270D01*
X0057802Y0075239D01*
X0057874Y0075205D01*
X0057944Y0075167D01*
X0058012Y0075125D01*
X0058078Y0075080D01*
X0058142Y0075032D01*
X0058203Y0074981D01*
X0058261Y0074926D01*
X0058317Y0074869D01*
X0058370Y0074809D01*
X0058419Y0074747D01*
X0058466Y0074682D01*
X0058509Y0074615D01*
X0058549Y0074546D01*
X0058586Y0074475D01*
X0058618Y0074402D01*
X0058648Y0074328D01*
X0058673Y0074253D01*
X0058695Y0074176D01*
X0058712Y0074098D01*
X0058726Y0074019D01*
X0058736Y0073940D01*
X0058742Y0073861D01*
X0058744Y0073781D01*
X0058742Y0073701D01*
X0058736Y0073622D01*
X0058726Y0073543D01*
X0058712Y0073464D01*
X0058695Y0073386D01*
X0058673Y0073309D01*
X0058648Y0073234D01*
X0058618Y0073160D01*
X0058586Y0073087D01*
X0058549Y0073016D01*
X0058509Y0072947D01*
X0058466Y0072880D01*
X0058419Y0072815D01*
X0058370Y0072753D01*
X0058317Y0072693D01*
X0058261Y0072636D01*
X0058203Y0072581D01*
X0058142Y0072530D01*
X0058078Y0072482D01*
X0058012Y0072437D01*
X0057944Y0072395D01*
X0057874Y0072357D01*
X0057802Y0072323D01*
X0057729Y0072292D01*
X0057654Y0072264D01*
X0057577Y0072241D01*
X0057500Y0072221D01*
X0057422Y0072205D01*
X0057343Y0072193D01*
X0057264Y0072185D01*
X0057184Y0072181D01*
X0057104Y0072181D01*
X0057024Y0072185D01*
X0056945Y0072193D01*
X0056866Y0072205D01*
X0056788Y0072221D01*
X0056711Y0072241D01*
X0056634Y0072264D01*
X0056559Y0072292D01*
X0056486Y0072323D01*
X0056414Y0072357D01*
X0056344Y0072395D01*
X0056276Y0072437D01*
X0056210Y0072482D01*
X0056146Y0072530D01*
X0056085Y0072581D01*
X0056027Y0072636D01*
X0055971Y0072693D01*
X0055918Y0072753D01*
X0055869Y0072815D01*
X0055822Y0072880D01*
X0055779Y0072947D01*
X0055739Y0073016D01*
X0055702Y0073087D01*
X0055670Y0073160D01*
X0055640Y0073234D01*
X0055615Y0073309D01*
X0055593Y0073386D01*
X0055576Y0073464D01*
X0055562Y0073543D01*
X0055552Y0073622D01*
X0055546Y0073701D01*
X0055544Y0073781D01*
X0055544Y0072994D02*
X0055546Y0073074D01*
X0055552Y0073153D01*
X0055562Y0073232D01*
X0055576Y0073311D01*
X0055593Y0073389D01*
X0055615Y0073466D01*
X0055640Y0073541D01*
X0055670Y0073615D01*
X0055702Y0073688D01*
X0055739Y0073759D01*
X0055779Y0073828D01*
X0055822Y0073895D01*
X0055869Y0073960D01*
X0055918Y0074022D01*
X0055971Y0074082D01*
X0056027Y0074139D01*
X0056085Y0074194D01*
X0056146Y0074245D01*
X0056210Y0074293D01*
X0056276Y0074338D01*
X0056344Y0074380D01*
X0056414Y0074418D01*
X0056486Y0074452D01*
X0056559Y0074483D01*
X0056634Y0074511D01*
X0056711Y0074534D01*
X0056788Y0074554D01*
X0056866Y0074570D01*
X0056945Y0074582D01*
X0057024Y0074590D01*
X0057104Y0074594D01*
X0057184Y0074594D01*
X0057264Y0074590D01*
X0057343Y0074582D01*
X0057422Y0074570D01*
X0057500Y0074554D01*
X0057577Y0074534D01*
X0057654Y0074511D01*
X0057729Y0074483D01*
X0057802Y0074452D01*
X0057874Y0074418D01*
X0057944Y0074380D01*
X0058012Y0074338D01*
X0058078Y0074293D01*
X0058142Y0074245D01*
X0058203Y0074194D01*
X0058261Y0074139D01*
X0058317Y0074082D01*
X0058370Y0074022D01*
X0058419Y0073960D01*
X0058466Y0073895D01*
X0058509Y0073828D01*
X0058549Y0073759D01*
X0058586Y0073688D01*
X0058618Y0073615D01*
X0058648Y0073541D01*
X0058673Y0073466D01*
X0058695Y0073389D01*
X0058712Y0073311D01*
X0058726Y0073232D01*
X0058736Y0073153D01*
X0058742Y0073074D01*
X0058744Y0072994D01*
X0058742Y0072914D01*
X0058736Y0072835D01*
X0058726Y0072756D01*
X0058712Y0072677D01*
X0058695Y0072599D01*
X0058673Y0072522D01*
X0058648Y0072447D01*
X0058618Y0072373D01*
X0058586Y0072300D01*
X0058549Y0072229D01*
X0058509Y0072160D01*
X0058466Y0072093D01*
X0058419Y0072028D01*
X0058370Y0071966D01*
X0058317Y0071906D01*
X0058261Y0071849D01*
X0058203Y0071794D01*
X0058142Y0071743D01*
X0058078Y0071695D01*
X0058012Y0071650D01*
X0057944Y0071608D01*
X0057874Y0071570D01*
X0057802Y0071536D01*
X0057729Y0071505D01*
X0057654Y0071477D01*
X0057577Y0071454D01*
X0057500Y0071434D01*
X0057422Y0071418D01*
X0057343Y0071406D01*
X0057264Y0071398D01*
X0057184Y0071394D01*
X0057104Y0071394D01*
X0057024Y0071398D01*
X0056945Y0071406D01*
X0056866Y0071418D01*
X0056788Y0071434D01*
X0056711Y0071454D01*
X0056634Y0071477D01*
X0056559Y0071505D01*
X0056486Y0071536D01*
X0056414Y0071570D01*
X0056344Y0071608D01*
X0056276Y0071650D01*
X0056210Y0071695D01*
X0056146Y0071743D01*
X0056085Y0071794D01*
X0056027Y0071849D01*
X0055971Y0071906D01*
X0055918Y0071966D01*
X0055869Y0072028D01*
X0055822Y0072093D01*
X0055779Y0072160D01*
X0055739Y0072229D01*
X0055702Y0072300D01*
X0055670Y0072373D01*
X0055640Y0072447D01*
X0055615Y0072522D01*
X0055593Y0072599D01*
X0055576Y0072677D01*
X0055562Y0072756D01*
X0055552Y0072835D01*
X0055546Y0072914D01*
X0055544Y0072994D01*
X0055544Y0072206D02*
X0055546Y0072286D01*
X0055552Y0072365D01*
X0055562Y0072444D01*
X0055576Y0072523D01*
X0055593Y0072601D01*
X0055615Y0072678D01*
X0055640Y0072753D01*
X0055670Y0072827D01*
X0055702Y0072900D01*
X0055739Y0072971D01*
X0055779Y0073040D01*
X0055822Y0073107D01*
X0055869Y0073172D01*
X0055918Y0073234D01*
X0055971Y0073294D01*
X0056027Y0073351D01*
X0056085Y0073406D01*
X0056146Y0073457D01*
X0056210Y0073505D01*
X0056276Y0073550D01*
X0056344Y0073592D01*
X0056414Y0073630D01*
X0056486Y0073664D01*
X0056559Y0073695D01*
X0056634Y0073723D01*
X0056711Y0073746D01*
X0056788Y0073766D01*
X0056866Y0073782D01*
X0056945Y0073794D01*
X0057024Y0073802D01*
X0057104Y0073806D01*
X0057184Y0073806D01*
X0057264Y0073802D01*
X0057343Y0073794D01*
X0057422Y0073782D01*
X0057500Y0073766D01*
X0057577Y0073746D01*
X0057654Y0073723D01*
X0057729Y0073695D01*
X0057802Y0073664D01*
X0057874Y0073630D01*
X0057944Y0073592D01*
X0058012Y0073550D01*
X0058078Y0073505D01*
X0058142Y0073457D01*
X0058203Y0073406D01*
X0058261Y0073351D01*
X0058317Y0073294D01*
X0058370Y0073234D01*
X0058419Y0073172D01*
X0058466Y0073107D01*
X0058509Y0073040D01*
X0058549Y0072971D01*
X0058586Y0072900D01*
X0058618Y0072827D01*
X0058648Y0072753D01*
X0058673Y0072678D01*
X0058695Y0072601D01*
X0058712Y0072523D01*
X0058726Y0072444D01*
X0058736Y0072365D01*
X0058742Y0072286D01*
X0058744Y0072206D01*
X0058742Y0072126D01*
X0058736Y0072047D01*
X0058726Y0071968D01*
X0058712Y0071889D01*
X0058695Y0071811D01*
X0058673Y0071734D01*
X0058648Y0071659D01*
X0058618Y0071585D01*
X0058586Y0071512D01*
X0058549Y0071441D01*
X0058509Y0071372D01*
X0058466Y0071305D01*
X0058419Y0071240D01*
X0058370Y0071178D01*
X0058317Y0071118D01*
X0058261Y0071061D01*
X0058203Y0071006D01*
X0058142Y0070955D01*
X0058078Y0070907D01*
X0058012Y0070862D01*
X0057944Y0070820D01*
X0057874Y0070782D01*
X0057802Y0070748D01*
X0057729Y0070717D01*
X0057654Y0070689D01*
X0057577Y0070666D01*
X0057500Y0070646D01*
X0057422Y0070630D01*
X0057343Y0070618D01*
X0057264Y0070610D01*
X0057184Y0070606D01*
X0057104Y0070606D01*
X0057024Y0070610D01*
X0056945Y0070618D01*
X0056866Y0070630D01*
X0056788Y0070646D01*
X0056711Y0070666D01*
X0056634Y0070689D01*
X0056559Y0070717D01*
X0056486Y0070748D01*
X0056414Y0070782D01*
X0056344Y0070820D01*
X0056276Y0070862D01*
X0056210Y0070907D01*
X0056146Y0070955D01*
X0056085Y0071006D01*
X0056027Y0071061D01*
X0055971Y0071118D01*
X0055918Y0071178D01*
X0055869Y0071240D01*
X0055822Y0071305D01*
X0055779Y0071372D01*
X0055739Y0071441D01*
X0055702Y0071512D01*
X0055670Y0071585D01*
X0055640Y0071659D01*
X0055615Y0071734D01*
X0055593Y0071811D01*
X0055576Y0071889D01*
X0055562Y0071968D01*
X0055552Y0072047D01*
X0055546Y0072126D01*
X0055544Y0072206D01*
X0055544Y0071419D02*
X0055546Y0071499D01*
X0055552Y0071578D01*
X0055562Y0071657D01*
X0055576Y0071736D01*
X0055593Y0071814D01*
X0055615Y0071891D01*
X0055640Y0071966D01*
X0055670Y0072040D01*
X0055702Y0072113D01*
X0055739Y0072184D01*
X0055779Y0072253D01*
X0055822Y0072320D01*
X0055869Y0072385D01*
X0055918Y0072447D01*
X0055971Y0072507D01*
X0056027Y0072564D01*
X0056085Y0072619D01*
X0056146Y0072670D01*
X0056210Y0072718D01*
X0056276Y0072763D01*
X0056344Y0072805D01*
X0056414Y0072843D01*
X0056486Y0072877D01*
X0056559Y0072908D01*
X0056634Y0072936D01*
X0056711Y0072959D01*
X0056788Y0072979D01*
X0056866Y0072995D01*
X0056945Y0073007D01*
X0057024Y0073015D01*
X0057104Y0073019D01*
X0057184Y0073019D01*
X0057264Y0073015D01*
X0057343Y0073007D01*
X0057422Y0072995D01*
X0057500Y0072979D01*
X0057577Y0072959D01*
X0057654Y0072936D01*
X0057729Y0072908D01*
X0057802Y0072877D01*
X0057874Y0072843D01*
X0057944Y0072805D01*
X0058012Y0072763D01*
X0058078Y0072718D01*
X0058142Y0072670D01*
X0058203Y0072619D01*
X0058261Y0072564D01*
X0058317Y0072507D01*
X0058370Y0072447D01*
X0058419Y0072385D01*
X0058466Y0072320D01*
X0058509Y0072253D01*
X0058549Y0072184D01*
X0058586Y0072113D01*
X0058618Y0072040D01*
X0058648Y0071966D01*
X0058673Y0071891D01*
X0058695Y0071814D01*
X0058712Y0071736D01*
X0058726Y0071657D01*
X0058736Y0071578D01*
X0058742Y0071499D01*
X0058744Y0071419D01*
X0058742Y0071339D01*
X0058736Y0071260D01*
X0058726Y0071181D01*
X0058712Y0071102D01*
X0058695Y0071024D01*
X0058673Y0070947D01*
X0058648Y0070872D01*
X0058618Y0070798D01*
X0058586Y0070725D01*
X0058549Y0070654D01*
X0058509Y0070585D01*
X0058466Y0070518D01*
X0058419Y0070453D01*
X0058370Y0070391D01*
X0058317Y0070331D01*
X0058261Y0070274D01*
X0058203Y0070219D01*
X0058142Y0070168D01*
X0058078Y0070120D01*
X0058012Y0070075D01*
X0057944Y0070033D01*
X0057874Y0069995D01*
X0057802Y0069961D01*
X0057729Y0069930D01*
X0057654Y0069902D01*
X0057577Y0069879D01*
X0057500Y0069859D01*
X0057422Y0069843D01*
X0057343Y0069831D01*
X0057264Y0069823D01*
X0057184Y0069819D01*
X0057104Y0069819D01*
X0057024Y0069823D01*
X0056945Y0069831D01*
X0056866Y0069843D01*
X0056788Y0069859D01*
X0056711Y0069879D01*
X0056634Y0069902D01*
X0056559Y0069930D01*
X0056486Y0069961D01*
X0056414Y0069995D01*
X0056344Y0070033D01*
X0056276Y0070075D01*
X0056210Y0070120D01*
X0056146Y0070168D01*
X0056085Y0070219D01*
X0056027Y0070274D01*
X0055971Y0070331D01*
X0055918Y0070391D01*
X0055869Y0070453D01*
X0055822Y0070518D01*
X0055779Y0070585D01*
X0055739Y0070654D01*
X0055702Y0070725D01*
X0055670Y0070798D01*
X0055640Y0070872D01*
X0055615Y0070947D01*
X0055593Y0071024D01*
X0055576Y0071102D01*
X0055562Y0071181D01*
X0055552Y0071260D01*
X0055546Y0071339D01*
X0055544Y0071419D01*
X0055544Y0069844D02*
X0055546Y0069924D01*
X0055552Y0070003D01*
X0055562Y0070082D01*
X0055576Y0070161D01*
X0055593Y0070239D01*
X0055615Y0070316D01*
X0055640Y0070391D01*
X0055670Y0070465D01*
X0055702Y0070538D01*
X0055739Y0070609D01*
X0055779Y0070678D01*
X0055822Y0070745D01*
X0055869Y0070810D01*
X0055918Y0070872D01*
X0055971Y0070932D01*
X0056027Y0070989D01*
X0056085Y0071044D01*
X0056146Y0071095D01*
X0056210Y0071143D01*
X0056276Y0071188D01*
X0056344Y0071230D01*
X0056414Y0071268D01*
X0056486Y0071302D01*
X0056559Y0071333D01*
X0056634Y0071361D01*
X0056711Y0071384D01*
X0056788Y0071404D01*
X0056866Y0071420D01*
X0056945Y0071432D01*
X0057024Y0071440D01*
X0057104Y0071444D01*
X0057184Y0071444D01*
X0057264Y0071440D01*
X0057343Y0071432D01*
X0057422Y0071420D01*
X0057500Y0071404D01*
X0057577Y0071384D01*
X0057654Y0071361D01*
X0057729Y0071333D01*
X0057802Y0071302D01*
X0057874Y0071268D01*
X0057944Y0071230D01*
X0058012Y0071188D01*
X0058078Y0071143D01*
X0058142Y0071095D01*
X0058203Y0071044D01*
X0058261Y0070989D01*
X0058317Y0070932D01*
X0058370Y0070872D01*
X0058419Y0070810D01*
X0058466Y0070745D01*
X0058509Y0070678D01*
X0058549Y0070609D01*
X0058586Y0070538D01*
X0058618Y0070465D01*
X0058648Y0070391D01*
X0058673Y0070316D01*
X0058695Y0070239D01*
X0058712Y0070161D01*
X0058726Y0070082D01*
X0058736Y0070003D01*
X0058742Y0069924D01*
X0058744Y0069844D01*
X0058742Y0069764D01*
X0058736Y0069685D01*
X0058726Y0069606D01*
X0058712Y0069527D01*
X0058695Y0069449D01*
X0058673Y0069372D01*
X0058648Y0069297D01*
X0058618Y0069223D01*
X0058586Y0069150D01*
X0058549Y0069079D01*
X0058509Y0069010D01*
X0058466Y0068943D01*
X0058419Y0068878D01*
X0058370Y0068816D01*
X0058317Y0068756D01*
X0058261Y0068699D01*
X0058203Y0068644D01*
X0058142Y0068593D01*
X0058078Y0068545D01*
X0058012Y0068500D01*
X0057944Y0068458D01*
X0057874Y0068420D01*
X0057802Y0068386D01*
X0057729Y0068355D01*
X0057654Y0068327D01*
X0057577Y0068304D01*
X0057500Y0068284D01*
X0057422Y0068268D01*
X0057343Y0068256D01*
X0057264Y0068248D01*
X0057184Y0068244D01*
X0057104Y0068244D01*
X0057024Y0068248D01*
X0056945Y0068256D01*
X0056866Y0068268D01*
X0056788Y0068284D01*
X0056711Y0068304D01*
X0056634Y0068327D01*
X0056559Y0068355D01*
X0056486Y0068386D01*
X0056414Y0068420D01*
X0056344Y0068458D01*
X0056276Y0068500D01*
X0056210Y0068545D01*
X0056146Y0068593D01*
X0056085Y0068644D01*
X0056027Y0068699D01*
X0055971Y0068756D01*
X0055918Y0068816D01*
X0055869Y0068878D01*
X0055822Y0068943D01*
X0055779Y0069010D01*
X0055739Y0069079D01*
X0055702Y0069150D01*
X0055670Y0069223D01*
X0055640Y0069297D01*
X0055615Y0069372D01*
X0055593Y0069449D01*
X0055576Y0069527D01*
X0055562Y0069606D01*
X0055552Y0069685D01*
X0055546Y0069764D01*
X0055544Y0069844D01*
X0055544Y0069057D02*
X0055546Y0069137D01*
X0055552Y0069216D01*
X0055562Y0069295D01*
X0055576Y0069374D01*
X0055593Y0069452D01*
X0055615Y0069529D01*
X0055640Y0069604D01*
X0055670Y0069678D01*
X0055702Y0069751D01*
X0055739Y0069822D01*
X0055779Y0069891D01*
X0055822Y0069958D01*
X0055869Y0070023D01*
X0055918Y0070085D01*
X0055971Y0070145D01*
X0056027Y0070202D01*
X0056085Y0070257D01*
X0056146Y0070308D01*
X0056210Y0070356D01*
X0056276Y0070401D01*
X0056344Y0070443D01*
X0056414Y0070481D01*
X0056486Y0070515D01*
X0056559Y0070546D01*
X0056634Y0070574D01*
X0056711Y0070597D01*
X0056788Y0070617D01*
X0056866Y0070633D01*
X0056945Y0070645D01*
X0057024Y0070653D01*
X0057104Y0070657D01*
X0057184Y0070657D01*
X0057264Y0070653D01*
X0057343Y0070645D01*
X0057422Y0070633D01*
X0057500Y0070617D01*
X0057577Y0070597D01*
X0057654Y0070574D01*
X0057729Y0070546D01*
X0057802Y0070515D01*
X0057874Y0070481D01*
X0057944Y0070443D01*
X0058012Y0070401D01*
X0058078Y0070356D01*
X0058142Y0070308D01*
X0058203Y0070257D01*
X0058261Y0070202D01*
X0058317Y0070145D01*
X0058370Y0070085D01*
X0058419Y0070023D01*
X0058466Y0069958D01*
X0058509Y0069891D01*
X0058549Y0069822D01*
X0058586Y0069751D01*
X0058618Y0069678D01*
X0058648Y0069604D01*
X0058673Y0069529D01*
X0058695Y0069452D01*
X0058712Y0069374D01*
X0058726Y0069295D01*
X0058736Y0069216D01*
X0058742Y0069137D01*
X0058744Y0069057D01*
X0058742Y0068977D01*
X0058736Y0068898D01*
X0058726Y0068819D01*
X0058712Y0068740D01*
X0058695Y0068662D01*
X0058673Y0068585D01*
X0058648Y0068510D01*
X0058618Y0068436D01*
X0058586Y0068363D01*
X0058549Y0068292D01*
X0058509Y0068223D01*
X0058466Y0068156D01*
X0058419Y0068091D01*
X0058370Y0068029D01*
X0058317Y0067969D01*
X0058261Y0067912D01*
X0058203Y0067857D01*
X0058142Y0067806D01*
X0058078Y0067758D01*
X0058012Y0067713D01*
X0057944Y0067671D01*
X0057874Y0067633D01*
X0057802Y0067599D01*
X0057729Y0067568D01*
X0057654Y0067540D01*
X0057577Y0067517D01*
X0057500Y0067497D01*
X0057422Y0067481D01*
X0057343Y0067469D01*
X0057264Y0067461D01*
X0057184Y0067457D01*
X0057104Y0067457D01*
X0057024Y0067461D01*
X0056945Y0067469D01*
X0056866Y0067481D01*
X0056788Y0067497D01*
X0056711Y0067517D01*
X0056634Y0067540D01*
X0056559Y0067568D01*
X0056486Y0067599D01*
X0056414Y0067633D01*
X0056344Y0067671D01*
X0056276Y0067713D01*
X0056210Y0067758D01*
X0056146Y0067806D01*
X0056085Y0067857D01*
X0056027Y0067912D01*
X0055971Y0067969D01*
X0055918Y0068029D01*
X0055869Y0068091D01*
X0055822Y0068156D01*
X0055779Y0068223D01*
X0055739Y0068292D01*
X0055702Y0068363D01*
X0055670Y0068436D01*
X0055640Y0068510D01*
X0055615Y0068585D01*
X0055593Y0068662D01*
X0055576Y0068740D01*
X0055562Y0068819D01*
X0055552Y0068898D01*
X0055546Y0068977D01*
X0055544Y0069057D01*
X0055544Y0068269D02*
X0055546Y0068349D01*
X0055552Y0068428D01*
X0055562Y0068507D01*
X0055576Y0068586D01*
X0055593Y0068664D01*
X0055615Y0068741D01*
X0055640Y0068816D01*
X0055670Y0068890D01*
X0055702Y0068963D01*
X0055739Y0069034D01*
X0055779Y0069103D01*
X0055822Y0069170D01*
X0055869Y0069235D01*
X0055918Y0069297D01*
X0055971Y0069357D01*
X0056027Y0069414D01*
X0056085Y0069469D01*
X0056146Y0069520D01*
X0056210Y0069568D01*
X0056276Y0069613D01*
X0056344Y0069655D01*
X0056414Y0069693D01*
X0056486Y0069727D01*
X0056559Y0069758D01*
X0056634Y0069786D01*
X0056711Y0069809D01*
X0056788Y0069829D01*
X0056866Y0069845D01*
X0056945Y0069857D01*
X0057024Y0069865D01*
X0057104Y0069869D01*
X0057184Y0069869D01*
X0057264Y0069865D01*
X0057343Y0069857D01*
X0057422Y0069845D01*
X0057500Y0069829D01*
X0057577Y0069809D01*
X0057654Y0069786D01*
X0057729Y0069758D01*
X0057802Y0069727D01*
X0057874Y0069693D01*
X0057944Y0069655D01*
X0058012Y0069613D01*
X0058078Y0069568D01*
X0058142Y0069520D01*
X0058203Y0069469D01*
X0058261Y0069414D01*
X0058317Y0069357D01*
X0058370Y0069297D01*
X0058419Y0069235D01*
X0058466Y0069170D01*
X0058509Y0069103D01*
X0058549Y0069034D01*
X0058586Y0068963D01*
X0058618Y0068890D01*
X0058648Y0068816D01*
X0058673Y0068741D01*
X0058695Y0068664D01*
X0058712Y0068586D01*
X0058726Y0068507D01*
X0058736Y0068428D01*
X0058742Y0068349D01*
X0058744Y0068269D01*
X0058742Y0068189D01*
X0058736Y0068110D01*
X0058726Y0068031D01*
X0058712Y0067952D01*
X0058695Y0067874D01*
X0058673Y0067797D01*
X0058648Y0067722D01*
X0058618Y0067648D01*
X0058586Y0067575D01*
X0058549Y0067504D01*
X0058509Y0067435D01*
X0058466Y0067368D01*
X0058419Y0067303D01*
X0058370Y0067241D01*
X0058317Y0067181D01*
X0058261Y0067124D01*
X0058203Y0067069D01*
X0058142Y0067018D01*
X0058078Y0066970D01*
X0058012Y0066925D01*
X0057944Y0066883D01*
X0057874Y0066845D01*
X0057802Y0066811D01*
X0057729Y0066780D01*
X0057654Y0066752D01*
X0057577Y0066729D01*
X0057500Y0066709D01*
X0057422Y0066693D01*
X0057343Y0066681D01*
X0057264Y0066673D01*
X0057184Y0066669D01*
X0057104Y0066669D01*
X0057024Y0066673D01*
X0056945Y0066681D01*
X0056866Y0066693D01*
X0056788Y0066709D01*
X0056711Y0066729D01*
X0056634Y0066752D01*
X0056559Y0066780D01*
X0056486Y0066811D01*
X0056414Y0066845D01*
X0056344Y0066883D01*
X0056276Y0066925D01*
X0056210Y0066970D01*
X0056146Y0067018D01*
X0056085Y0067069D01*
X0056027Y0067124D01*
X0055971Y0067181D01*
X0055918Y0067241D01*
X0055869Y0067303D01*
X0055822Y0067368D01*
X0055779Y0067435D01*
X0055739Y0067504D01*
X0055702Y0067575D01*
X0055670Y0067648D01*
X0055640Y0067722D01*
X0055615Y0067797D01*
X0055593Y0067874D01*
X0055576Y0067952D01*
X0055562Y0068031D01*
X0055552Y0068110D01*
X0055546Y0068189D01*
X0055544Y0068269D01*
X0055544Y0067482D02*
X0055546Y0067562D01*
X0055552Y0067641D01*
X0055562Y0067720D01*
X0055576Y0067799D01*
X0055593Y0067877D01*
X0055615Y0067954D01*
X0055640Y0068029D01*
X0055670Y0068103D01*
X0055702Y0068176D01*
X0055739Y0068247D01*
X0055779Y0068316D01*
X0055822Y0068383D01*
X0055869Y0068448D01*
X0055918Y0068510D01*
X0055971Y0068570D01*
X0056027Y0068627D01*
X0056085Y0068682D01*
X0056146Y0068733D01*
X0056210Y0068781D01*
X0056276Y0068826D01*
X0056344Y0068868D01*
X0056414Y0068906D01*
X0056486Y0068940D01*
X0056559Y0068971D01*
X0056634Y0068999D01*
X0056711Y0069022D01*
X0056788Y0069042D01*
X0056866Y0069058D01*
X0056945Y0069070D01*
X0057024Y0069078D01*
X0057104Y0069082D01*
X0057184Y0069082D01*
X0057264Y0069078D01*
X0057343Y0069070D01*
X0057422Y0069058D01*
X0057500Y0069042D01*
X0057577Y0069022D01*
X0057654Y0068999D01*
X0057729Y0068971D01*
X0057802Y0068940D01*
X0057874Y0068906D01*
X0057944Y0068868D01*
X0058012Y0068826D01*
X0058078Y0068781D01*
X0058142Y0068733D01*
X0058203Y0068682D01*
X0058261Y0068627D01*
X0058317Y0068570D01*
X0058370Y0068510D01*
X0058419Y0068448D01*
X0058466Y0068383D01*
X0058509Y0068316D01*
X0058549Y0068247D01*
X0058586Y0068176D01*
X0058618Y0068103D01*
X0058648Y0068029D01*
X0058673Y0067954D01*
X0058695Y0067877D01*
X0058712Y0067799D01*
X0058726Y0067720D01*
X0058736Y0067641D01*
X0058742Y0067562D01*
X0058744Y0067482D01*
X0058742Y0067402D01*
X0058736Y0067323D01*
X0058726Y0067244D01*
X0058712Y0067165D01*
X0058695Y0067087D01*
X0058673Y0067010D01*
X0058648Y0066935D01*
X0058618Y0066861D01*
X0058586Y0066788D01*
X0058549Y0066717D01*
X0058509Y0066648D01*
X0058466Y0066581D01*
X0058419Y0066516D01*
X0058370Y0066454D01*
X0058317Y0066394D01*
X0058261Y0066337D01*
X0058203Y0066282D01*
X0058142Y0066231D01*
X0058078Y0066183D01*
X0058012Y0066138D01*
X0057944Y0066096D01*
X0057874Y0066058D01*
X0057802Y0066024D01*
X0057729Y0065993D01*
X0057654Y0065965D01*
X0057577Y0065942D01*
X0057500Y0065922D01*
X0057422Y0065906D01*
X0057343Y0065894D01*
X0057264Y0065886D01*
X0057184Y0065882D01*
X0057104Y0065882D01*
X0057024Y0065886D01*
X0056945Y0065894D01*
X0056866Y0065906D01*
X0056788Y0065922D01*
X0056711Y0065942D01*
X0056634Y0065965D01*
X0056559Y0065993D01*
X0056486Y0066024D01*
X0056414Y0066058D01*
X0056344Y0066096D01*
X0056276Y0066138D01*
X0056210Y0066183D01*
X0056146Y0066231D01*
X0056085Y0066282D01*
X0056027Y0066337D01*
X0055971Y0066394D01*
X0055918Y0066454D01*
X0055869Y0066516D01*
X0055822Y0066581D01*
X0055779Y0066648D01*
X0055739Y0066717D01*
X0055702Y0066788D01*
X0055670Y0066861D01*
X0055640Y0066935D01*
X0055615Y0067010D01*
X0055593Y0067087D01*
X0055576Y0067165D01*
X0055562Y0067244D01*
X0055552Y0067323D01*
X0055546Y0067402D01*
X0055544Y0067482D01*
X0055544Y0066695D02*
X0055546Y0066775D01*
X0055552Y0066854D01*
X0055562Y0066933D01*
X0055576Y0067012D01*
X0055593Y0067090D01*
X0055615Y0067167D01*
X0055640Y0067242D01*
X0055670Y0067316D01*
X0055702Y0067389D01*
X0055739Y0067460D01*
X0055779Y0067529D01*
X0055822Y0067596D01*
X0055869Y0067661D01*
X0055918Y0067723D01*
X0055971Y0067783D01*
X0056027Y0067840D01*
X0056085Y0067895D01*
X0056146Y0067946D01*
X0056210Y0067994D01*
X0056276Y0068039D01*
X0056344Y0068081D01*
X0056414Y0068119D01*
X0056486Y0068153D01*
X0056559Y0068184D01*
X0056634Y0068212D01*
X0056711Y0068235D01*
X0056788Y0068255D01*
X0056866Y0068271D01*
X0056945Y0068283D01*
X0057024Y0068291D01*
X0057104Y0068295D01*
X0057184Y0068295D01*
X0057264Y0068291D01*
X0057343Y0068283D01*
X0057422Y0068271D01*
X0057500Y0068255D01*
X0057577Y0068235D01*
X0057654Y0068212D01*
X0057729Y0068184D01*
X0057802Y0068153D01*
X0057874Y0068119D01*
X0057944Y0068081D01*
X0058012Y0068039D01*
X0058078Y0067994D01*
X0058142Y0067946D01*
X0058203Y0067895D01*
X0058261Y0067840D01*
X0058317Y0067783D01*
X0058370Y0067723D01*
X0058419Y0067661D01*
X0058466Y0067596D01*
X0058509Y0067529D01*
X0058549Y0067460D01*
X0058586Y0067389D01*
X0058618Y0067316D01*
X0058648Y0067242D01*
X0058673Y0067167D01*
X0058695Y0067090D01*
X0058712Y0067012D01*
X0058726Y0066933D01*
X0058736Y0066854D01*
X0058742Y0066775D01*
X0058744Y0066695D01*
X0058742Y0066615D01*
X0058736Y0066536D01*
X0058726Y0066457D01*
X0058712Y0066378D01*
X0058695Y0066300D01*
X0058673Y0066223D01*
X0058648Y0066148D01*
X0058618Y0066074D01*
X0058586Y0066001D01*
X0058549Y0065930D01*
X0058509Y0065861D01*
X0058466Y0065794D01*
X0058419Y0065729D01*
X0058370Y0065667D01*
X0058317Y0065607D01*
X0058261Y0065550D01*
X0058203Y0065495D01*
X0058142Y0065444D01*
X0058078Y0065396D01*
X0058012Y0065351D01*
X0057944Y0065309D01*
X0057874Y0065271D01*
X0057802Y0065237D01*
X0057729Y0065206D01*
X0057654Y0065178D01*
X0057577Y0065155D01*
X0057500Y0065135D01*
X0057422Y0065119D01*
X0057343Y0065107D01*
X0057264Y0065099D01*
X0057184Y0065095D01*
X0057104Y0065095D01*
X0057024Y0065099D01*
X0056945Y0065107D01*
X0056866Y0065119D01*
X0056788Y0065135D01*
X0056711Y0065155D01*
X0056634Y0065178D01*
X0056559Y0065206D01*
X0056486Y0065237D01*
X0056414Y0065271D01*
X0056344Y0065309D01*
X0056276Y0065351D01*
X0056210Y0065396D01*
X0056146Y0065444D01*
X0056085Y0065495D01*
X0056027Y0065550D01*
X0055971Y0065607D01*
X0055918Y0065667D01*
X0055869Y0065729D01*
X0055822Y0065794D01*
X0055779Y0065861D01*
X0055739Y0065930D01*
X0055702Y0066001D01*
X0055670Y0066074D01*
X0055640Y0066148D01*
X0055615Y0066223D01*
X0055593Y0066300D01*
X0055576Y0066378D01*
X0055562Y0066457D01*
X0055552Y0066536D01*
X0055546Y0066615D01*
X0055544Y0066695D01*
X0055544Y0065907D02*
X0055546Y0065987D01*
X0055552Y0066066D01*
X0055562Y0066145D01*
X0055576Y0066224D01*
X0055593Y0066302D01*
X0055615Y0066379D01*
X0055640Y0066454D01*
X0055670Y0066528D01*
X0055702Y0066601D01*
X0055739Y0066672D01*
X0055779Y0066741D01*
X0055822Y0066808D01*
X0055869Y0066873D01*
X0055918Y0066935D01*
X0055971Y0066995D01*
X0056027Y0067052D01*
X0056085Y0067107D01*
X0056146Y0067158D01*
X0056210Y0067206D01*
X0056276Y0067251D01*
X0056344Y0067293D01*
X0056414Y0067331D01*
X0056486Y0067365D01*
X0056559Y0067396D01*
X0056634Y0067424D01*
X0056711Y0067447D01*
X0056788Y0067467D01*
X0056866Y0067483D01*
X0056945Y0067495D01*
X0057024Y0067503D01*
X0057104Y0067507D01*
X0057184Y0067507D01*
X0057264Y0067503D01*
X0057343Y0067495D01*
X0057422Y0067483D01*
X0057500Y0067467D01*
X0057577Y0067447D01*
X0057654Y0067424D01*
X0057729Y0067396D01*
X0057802Y0067365D01*
X0057874Y0067331D01*
X0057944Y0067293D01*
X0058012Y0067251D01*
X0058078Y0067206D01*
X0058142Y0067158D01*
X0058203Y0067107D01*
X0058261Y0067052D01*
X0058317Y0066995D01*
X0058370Y0066935D01*
X0058419Y0066873D01*
X0058466Y0066808D01*
X0058509Y0066741D01*
X0058549Y0066672D01*
X0058586Y0066601D01*
X0058618Y0066528D01*
X0058648Y0066454D01*
X0058673Y0066379D01*
X0058695Y0066302D01*
X0058712Y0066224D01*
X0058726Y0066145D01*
X0058736Y0066066D01*
X0058742Y0065987D01*
X0058744Y0065907D01*
X0058742Y0065827D01*
X0058736Y0065748D01*
X0058726Y0065669D01*
X0058712Y0065590D01*
X0058695Y0065512D01*
X0058673Y0065435D01*
X0058648Y0065360D01*
X0058618Y0065286D01*
X0058586Y0065213D01*
X0058549Y0065142D01*
X0058509Y0065073D01*
X0058466Y0065006D01*
X0058419Y0064941D01*
X0058370Y0064879D01*
X0058317Y0064819D01*
X0058261Y0064762D01*
X0058203Y0064707D01*
X0058142Y0064656D01*
X0058078Y0064608D01*
X0058012Y0064563D01*
X0057944Y0064521D01*
X0057874Y0064483D01*
X0057802Y0064449D01*
X0057729Y0064418D01*
X0057654Y0064390D01*
X0057577Y0064367D01*
X0057500Y0064347D01*
X0057422Y0064331D01*
X0057343Y0064319D01*
X0057264Y0064311D01*
X0057184Y0064307D01*
X0057104Y0064307D01*
X0057024Y0064311D01*
X0056945Y0064319D01*
X0056866Y0064331D01*
X0056788Y0064347D01*
X0056711Y0064367D01*
X0056634Y0064390D01*
X0056559Y0064418D01*
X0056486Y0064449D01*
X0056414Y0064483D01*
X0056344Y0064521D01*
X0056276Y0064563D01*
X0056210Y0064608D01*
X0056146Y0064656D01*
X0056085Y0064707D01*
X0056027Y0064762D01*
X0055971Y0064819D01*
X0055918Y0064879D01*
X0055869Y0064941D01*
X0055822Y0065006D01*
X0055779Y0065073D01*
X0055739Y0065142D01*
X0055702Y0065213D01*
X0055670Y0065286D01*
X0055640Y0065360D01*
X0055615Y0065435D01*
X0055593Y0065512D01*
X0055576Y0065590D01*
X0055562Y0065669D01*
X0055552Y0065748D01*
X0055546Y0065827D01*
X0055544Y0065907D01*
X0055544Y0065120D02*
X0055546Y0065200D01*
X0055552Y0065279D01*
X0055562Y0065358D01*
X0055576Y0065437D01*
X0055593Y0065515D01*
X0055615Y0065592D01*
X0055640Y0065667D01*
X0055670Y0065741D01*
X0055702Y0065814D01*
X0055739Y0065885D01*
X0055779Y0065954D01*
X0055822Y0066021D01*
X0055869Y0066086D01*
X0055918Y0066148D01*
X0055971Y0066208D01*
X0056027Y0066265D01*
X0056085Y0066320D01*
X0056146Y0066371D01*
X0056210Y0066419D01*
X0056276Y0066464D01*
X0056344Y0066506D01*
X0056414Y0066544D01*
X0056486Y0066578D01*
X0056559Y0066609D01*
X0056634Y0066637D01*
X0056711Y0066660D01*
X0056788Y0066680D01*
X0056866Y0066696D01*
X0056945Y0066708D01*
X0057024Y0066716D01*
X0057104Y0066720D01*
X0057184Y0066720D01*
X0057264Y0066716D01*
X0057343Y0066708D01*
X0057422Y0066696D01*
X0057500Y0066680D01*
X0057577Y0066660D01*
X0057654Y0066637D01*
X0057729Y0066609D01*
X0057802Y0066578D01*
X0057874Y0066544D01*
X0057944Y0066506D01*
X0058012Y0066464D01*
X0058078Y0066419D01*
X0058142Y0066371D01*
X0058203Y0066320D01*
X0058261Y0066265D01*
X0058317Y0066208D01*
X0058370Y0066148D01*
X0058419Y0066086D01*
X0058466Y0066021D01*
X0058509Y0065954D01*
X0058549Y0065885D01*
X0058586Y0065814D01*
X0058618Y0065741D01*
X0058648Y0065667D01*
X0058673Y0065592D01*
X0058695Y0065515D01*
X0058712Y0065437D01*
X0058726Y0065358D01*
X0058736Y0065279D01*
X0058742Y0065200D01*
X0058744Y0065120D01*
X0058742Y0065040D01*
X0058736Y0064961D01*
X0058726Y0064882D01*
X0058712Y0064803D01*
X0058695Y0064725D01*
X0058673Y0064648D01*
X0058648Y0064573D01*
X0058618Y0064499D01*
X0058586Y0064426D01*
X0058549Y0064355D01*
X0058509Y0064286D01*
X0058466Y0064219D01*
X0058419Y0064154D01*
X0058370Y0064092D01*
X0058317Y0064032D01*
X0058261Y0063975D01*
X0058203Y0063920D01*
X0058142Y0063869D01*
X0058078Y0063821D01*
X0058012Y0063776D01*
X0057944Y0063734D01*
X0057874Y0063696D01*
X0057802Y0063662D01*
X0057729Y0063631D01*
X0057654Y0063603D01*
X0057577Y0063580D01*
X0057500Y0063560D01*
X0057422Y0063544D01*
X0057343Y0063532D01*
X0057264Y0063524D01*
X0057184Y0063520D01*
X0057104Y0063520D01*
X0057024Y0063524D01*
X0056945Y0063532D01*
X0056866Y0063544D01*
X0056788Y0063560D01*
X0056711Y0063580D01*
X0056634Y0063603D01*
X0056559Y0063631D01*
X0056486Y0063662D01*
X0056414Y0063696D01*
X0056344Y0063734D01*
X0056276Y0063776D01*
X0056210Y0063821D01*
X0056146Y0063869D01*
X0056085Y0063920D01*
X0056027Y0063975D01*
X0055971Y0064032D01*
X0055918Y0064092D01*
X0055869Y0064154D01*
X0055822Y0064219D01*
X0055779Y0064286D01*
X0055739Y0064355D01*
X0055702Y0064426D01*
X0055670Y0064499D01*
X0055640Y0064573D01*
X0055615Y0064648D01*
X0055593Y0064725D01*
X0055576Y0064803D01*
X0055562Y0064882D01*
X0055552Y0064961D01*
X0055546Y0065040D01*
X0055544Y0065120D01*
X0049245Y0051734D02*
X0049247Y0051814D01*
X0049253Y0051893D01*
X0049263Y0051972D01*
X0049277Y0052051D01*
X0049294Y0052129D01*
X0049316Y0052206D01*
X0049341Y0052281D01*
X0049371Y0052355D01*
X0049403Y0052428D01*
X0049440Y0052499D01*
X0049480Y0052568D01*
X0049523Y0052635D01*
X0049570Y0052700D01*
X0049619Y0052762D01*
X0049672Y0052822D01*
X0049728Y0052879D01*
X0049786Y0052934D01*
X0049847Y0052985D01*
X0049911Y0053033D01*
X0049977Y0053078D01*
X0050045Y0053120D01*
X0050115Y0053158D01*
X0050187Y0053192D01*
X0050260Y0053223D01*
X0050335Y0053251D01*
X0050412Y0053274D01*
X0050489Y0053294D01*
X0050567Y0053310D01*
X0050646Y0053322D01*
X0050725Y0053330D01*
X0050805Y0053334D01*
X0050885Y0053334D01*
X0050965Y0053330D01*
X0051044Y0053322D01*
X0051123Y0053310D01*
X0051201Y0053294D01*
X0051278Y0053274D01*
X0051355Y0053251D01*
X0051430Y0053223D01*
X0051503Y0053192D01*
X0051575Y0053158D01*
X0051645Y0053120D01*
X0051713Y0053078D01*
X0051779Y0053033D01*
X0051843Y0052985D01*
X0051904Y0052934D01*
X0051962Y0052879D01*
X0052018Y0052822D01*
X0052071Y0052762D01*
X0052120Y0052700D01*
X0052167Y0052635D01*
X0052210Y0052568D01*
X0052250Y0052499D01*
X0052287Y0052428D01*
X0052319Y0052355D01*
X0052349Y0052281D01*
X0052374Y0052206D01*
X0052396Y0052129D01*
X0052413Y0052051D01*
X0052427Y0051972D01*
X0052437Y0051893D01*
X0052443Y0051814D01*
X0052445Y0051734D01*
X0052443Y0051654D01*
X0052437Y0051575D01*
X0052427Y0051496D01*
X0052413Y0051417D01*
X0052396Y0051339D01*
X0052374Y0051262D01*
X0052349Y0051187D01*
X0052319Y0051113D01*
X0052287Y0051040D01*
X0052250Y0050969D01*
X0052210Y0050900D01*
X0052167Y0050833D01*
X0052120Y0050768D01*
X0052071Y0050706D01*
X0052018Y0050646D01*
X0051962Y0050589D01*
X0051904Y0050534D01*
X0051843Y0050483D01*
X0051779Y0050435D01*
X0051713Y0050390D01*
X0051645Y0050348D01*
X0051575Y0050310D01*
X0051503Y0050276D01*
X0051430Y0050245D01*
X0051355Y0050217D01*
X0051278Y0050194D01*
X0051201Y0050174D01*
X0051123Y0050158D01*
X0051044Y0050146D01*
X0050965Y0050138D01*
X0050885Y0050134D01*
X0050805Y0050134D01*
X0050725Y0050138D01*
X0050646Y0050146D01*
X0050567Y0050158D01*
X0050489Y0050174D01*
X0050412Y0050194D01*
X0050335Y0050217D01*
X0050260Y0050245D01*
X0050187Y0050276D01*
X0050115Y0050310D01*
X0050045Y0050348D01*
X0049977Y0050390D01*
X0049911Y0050435D01*
X0049847Y0050483D01*
X0049786Y0050534D01*
X0049728Y0050589D01*
X0049672Y0050646D01*
X0049619Y0050706D01*
X0049570Y0050768D01*
X0049523Y0050833D01*
X0049480Y0050900D01*
X0049440Y0050969D01*
X0049403Y0051040D01*
X0049371Y0051113D01*
X0049341Y0051187D01*
X0049316Y0051262D01*
X0049294Y0051339D01*
X0049277Y0051417D01*
X0049263Y0051496D01*
X0049253Y0051575D01*
X0049247Y0051654D01*
X0049245Y0051734D01*
X0047670Y0051734D02*
X0047672Y0051814D01*
X0047678Y0051893D01*
X0047688Y0051972D01*
X0047702Y0052051D01*
X0047719Y0052129D01*
X0047741Y0052206D01*
X0047766Y0052281D01*
X0047796Y0052355D01*
X0047828Y0052428D01*
X0047865Y0052499D01*
X0047905Y0052568D01*
X0047948Y0052635D01*
X0047995Y0052700D01*
X0048044Y0052762D01*
X0048097Y0052822D01*
X0048153Y0052879D01*
X0048211Y0052934D01*
X0048272Y0052985D01*
X0048336Y0053033D01*
X0048402Y0053078D01*
X0048470Y0053120D01*
X0048540Y0053158D01*
X0048612Y0053192D01*
X0048685Y0053223D01*
X0048760Y0053251D01*
X0048837Y0053274D01*
X0048914Y0053294D01*
X0048992Y0053310D01*
X0049071Y0053322D01*
X0049150Y0053330D01*
X0049230Y0053334D01*
X0049310Y0053334D01*
X0049390Y0053330D01*
X0049469Y0053322D01*
X0049548Y0053310D01*
X0049626Y0053294D01*
X0049703Y0053274D01*
X0049780Y0053251D01*
X0049855Y0053223D01*
X0049928Y0053192D01*
X0050000Y0053158D01*
X0050070Y0053120D01*
X0050138Y0053078D01*
X0050204Y0053033D01*
X0050268Y0052985D01*
X0050329Y0052934D01*
X0050387Y0052879D01*
X0050443Y0052822D01*
X0050496Y0052762D01*
X0050545Y0052700D01*
X0050592Y0052635D01*
X0050635Y0052568D01*
X0050675Y0052499D01*
X0050712Y0052428D01*
X0050744Y0052355D01*
X0050774Y0052281D01*
X0050799Y0052206D01*
X0050821Y0052129D01*
X0050838Y0052051D01*
X0050852Y0051972D01*
X0050862Y0051893D01*
X0050868Y0051814D01*
X0050870Y0051734D01*
X0050868Y0051654D01*
X0050862Y0051575D01*
X0050852Y0051496D01*
X0050838Y0051417D01*
X0050821Y0051339D01*
X0050799Y0051262D01*
X0050774Y0051187D01*
X0050744Y0051113D01*
X0050712Y0051040D01*
X0050675Y0050969D01*
X0050635Y0050900D01*
X0050592Y0050833D01*
X0050545Y0050768D01*
X0050496Y0050706D01*
X0050443Y0050646D01*
X0050387Y0050589D01*
X0050329Y0050534D01*
X0050268Y0050483D01*
X0050204Y0050435D01*
X0050138Y0050390D01*
X0050070Y0050348D01*
X0050000Y0050310D01*
X0049928Y0050276D01*
X0049855Y0050245D01*
X0049780Y0050217D01*
X0049703Y0050194D01*
X0049626Y0050174D01*
X0049548Y0050158D01*
X0049469Y0050146D01*
X0049390Y0050138D01*
X0049310Y0050134D01*
X0049230Y0050134D01*
X0049150Y0050138D01*
X0049071Y0050146D01*
X0048992Y0050158D01*
X0048914Y0050174D01*
X0048837Y0050194D01*
X0048760Y0050217D01*
X0048685Y0050245D01*
X0048612Y0050276D01*
X0048540Y0050310D01*
X0048470Y0050348D01*
X0048402Y0050390D01*
X0048336Y0050435D01*
X0048272Y0050483D01*
X0048211Y0050534D01*
X0048153Y0050589D01*
X0048097Y0050646D01*
X0048044Y0050706D01*
X0047995Y0050768D01*
X0047948Y0050833D01*
X0047905Y0050900D01*
X0047865Y0050969D01*
X0047828Y0051040D01*
X0047796Y0051113D01*
X0047766Y0051187D01*
X0047741Y0051262D01*
X0047719Y0051339D01*
X0047702Y0051417D01*
X0047688Y0051496D01*
X0047678Y0051575D01*
X0047672Y0051654D01*
X0047670Y0051734D01*
X0046096Y0051734D02*
X0046098Y0051814D01*
X0046104Y0051893D01*
X0046114Y0051972D01*
X0046128Y0052051D01*
X0046145Y0052129D01*
X0046167Y0052206D01*
X0046192Y0052281D01*
X0046222Y0052355D01*
X0046254Y0052428D01*
X0046291Y0052499D01*
X0046331Y0052568D01*
X0046374Y0052635D01*
X0046421Y0052700D01*
X0046470Y0052762D01*
X0046523Y0052822D01*
X0046579Y0052879D01*
X0046637Y0052934D01*
X0046698Y0052985D01*
X0046762Y0053033D01*
X0046828Y0053078D01*
X0046896Y0053120D01*
X0046966Y0053158D01*
X0047038Y0053192D01*
X0047111Y0053223D01*
X0047186Y0053251D01*
X0047263Y0053274D01*
X0047340Y0053294D01*
X0047418Y0053310D01*
X0047497Y0053322D01*
X0047576Y0053330D01*
X0047656Y0053334D01*
X0047736Y0053334D01*
X0047816Y0053330D01*
X0047895Y0053322D01*
X0047974Y0053310D01*
X0048052Y0053294D01*
X0048129Y0053274D01*
X0048206Y0053251D01*
X0048281Y0053223D01*
X0048354Y0053192D01*
X0048426Y0053158D01*
X0048496Y0053120D01*
X0048564Y0053078D01*
X0048630Y0053033D01*
X0048694Y0052985D01*
X0048755Y0052934D01*
X0048813Y0052879D01*
X0048869Y0052822D01*
X0048922Y0052762D01*
X0048971Y0052700D01*
X0049018Y0052635D01*
X0049061Y0052568D01*
X0049101Y0052499D01*
X0049138Y0052428D01*
X0049170Y0052355D01*
X0049200Y0052281D01*
X0049225Y0052206D01*
X0049247Y0052129D01*
X0049264Y0052051D01*
X0049278Y0051972D01*
X0049288Y0051893D01*
X0049294Y0051814D01*
X0049296Y0051734D01*
X0049294Y0051654D01*
X0049288Y0051575D01*
X0049278Y0051496D01*
X0049264Y0051417D01*
X0049247Y0051339D01*
X0049225Y0051262D01*
X0049200Y0051187D01*
X0049170Y0051113D01*
X0049138Y0051040D01*
X0049101Y0050969D01*
X0049061Y0050900D01*
X0049018Y0050833D01*
X0048971Y0050768D01*
X0048922Y0050706D01*
X0048869Y0050646D01*
X0048813Y0050589D01*
X0048755Y0050534D01*
X0048694Y0050483D01*
X0048630Y0050435D01*
X0048564Y0050390D01*
X0048496Y0050348D01*
X0048426Y0050310D01*
X0048354Y0050276D01*
X0048281Y0050245D01*
X0048206Y0050217D01*
X0048129Y0050194D01*
X0048052Y0050174D01*
X0047974Y0050158D01*
X0047895Y0050146D01*
X0047816Y0050138D01*
X0047736Y0050134D01*
X0047656Y0050134D01*
X0047576Y0050138D01*
X0047497Y0050146D01*
X0047418Y0050158D01*
X0047340Y0050174D01*
X0047263Y0050194D01*
X0047186Y0050217D01*
X0047111Y0050245D01*
X0047038Y0050276D01*
X0046966Y0050310D01*
X0046896Y0050348D01*
X0046828Y0050390D01*
X0046762Y0050435D01*
X0046698Y0050483D01*
X0046637Y0050534D01*
X0046579Y0050589D01*
X0046523Y0050646D01*
X0046470Y0050706D01*
X0046421Y0050768D01*
X0046374Y0050833D01*
X0046331Y0050900D01*
X0046291Y0050969D01*
X0046254Y0051040D01*
X0046222Y0051113D01*
X0046192Y0051187D01*
X0046167Y0051262D01*
X0046145Y0051339D01*
X0046128Y0051417D01*
X0046114Y0051496D01*
X0046104Y0051575D01*
X0046098Y0051654D01*
X0046096Y0051734D01*
X0044521Y0051734D02*
X0044523Y0051814D01*
X0044529Y0051893D01*
X0044539Y0051972D01*
X0044553Y0052051D01*
X0044570Y0052129D01*
X0044592Y0052206D01*
X0044617Y0052281D01*
X0044647Y0052355D01*
X0044679Y0052428D01*
X0044716Y0052499D01*
X0044756Y0052568D01*
X0044799Y0052635D01*
X0044846Y0052700D01*
X0044895Y0052762D01*
X0044948Y0052822D01*
X0045004Y0052879D01*
X0045062Y0052934D01*
X0045123Y0052985D01*
X0045187Y0053033D01*
X0045253Y0053078D01*
X0045321Y0053120D01*
X0045391Y0053158D01*
X0045463Y0053192D01*
X0045536Y0053223D01*
X0045611Y0053251D01*
X0045688Y0053274D01*
X0045765Y0053294D01*
X0045843Y0053310D01*
X0045922Y0053322D01*
X0046001Y0053330D01*
X0046081Y0053334D01*
X0046161Y0053334D01*
X0046241Y0053330D01*
X0046320Y0053322D01*
X0046399Y0053310D01*
X0046477Y0053294D01*
X0046554Y0053274D01*
X0046631Y0053251D01*
X0046706Y0053223D01*
X0046779Y0053192D01*
X0046851Y0053158D01*
X0046921Y0053120D01*
X0046989Y0053078D01*
X0047055Y0053033D01*
X0047119Y0052985D01*
X0047180Y0052934D01*
X0047238Y0052879D01*
X0047294Y0052822D01*
X0047347Y0052762D01*
X0047396Y0052700D01*
X0047443Y0052635D01*
X0047486Y0052568D01*
X0047526Y0052499D01*
X0047563Y0052428D01*
X0047595Y0052355D01*
X0047625Y0052281D01*
X0047650Y0052206D01*
X0047672Y0052129D01*
X0047689Y0052051D01*
X0047703Y0051972D01*
X0047713Y0051893D01*
X0047719Y0051814D01*
X0047721Y0051734D01*
X0047719Y0051654D01*
X0047713Y0051575D01*
X0047703Y0051496D01*
X0047689Y0051417D01*
X0047672Y0051339D01*
X0047650Y0051262D01*
X0047625Y0051187D01*
X0047595Y0051113D01*
X0047563Y0051040D01*
X0047526Y0050969D01*
X0047486Y0050900D01*
X0047443Y0050833D01*
X0047396Y0050768D01*
X0047347Y0050706D01*
X0047294Y0050646D01*
X0047238Y0050589D01*
X0047180Y0050534D01*
X0047119Y0050483D01*
X0047055Y0050435D01*
X0046989Y0050390D01*
X0046921Y0050348D01*
X0046851Y0050310D01*
X0046779Y0050276D01*
X0046706Y0050245D01*
X0046631Y0050217D01*
X0046554Y0050194D01*
X0046477Y0050174D01*
X0046399Y0050158D01*
X0046320Y0050146D01*
X0046241Y0050138D01*
X0046161Y0050134D01*
X0046081Y0050134D01*
X0046001Y0050138D01*
X0045922Y0050146D01*
X0045843Y0050158D01*
X0045765Y0050174D01*
X0045688Y0050194D01*
X0045611Y0050217D01*
X0045536Y0050245D01*
X0045463Y0050276D01*
X0045391Y0050310D01*
X0045321Y0050348D01*
X0045253Y0050390D01*
X0045187Y0050435D01*
X0045123Y0050483D01*
X0045062Y0050534D01*
X0045004Y0050589D01*
X0044948Y0050646D01*
X0044895Y0050706D01*
X0044846Y0050768D01*
X0044799Y0050833D01*
X0044756Y0050900D01*
X0044716Y0050969D01*
X0044679Y0051040D01*
X0044647Y0051113D01*
X0044617Y0051187D01*
X0044592Y0051262D01*
X0044570Y0051339D01*
X0044553Y0051417D01*
X0044539Y0051496D01*
X0044529Y0051575D01*
X0044523Y0051654D01*
X0044521Y0051734D01*
X0042946Y0051734D02*
X0042948Y0051814D01*
X0042954Y0051893D01*
X0042964Y0051972D01*
X0042978Y0052051D01*
X0042995Y0052129D01*
X0043017Y0052206D01*
X0043042Y0052281D01*
X0043072Y0052355D01*
X0043104Y0052428D01*
X0043141Y0052499D01*
X0043181Y0052568D01*
X0043224Y0052635D01*
X0043271Y0052700D01*
X0043320Y0052762D01*
X0043373Y0052822D01*
X0043429Y0052879D01*
X0043487Y0052934D01*
X0043548Y0052985D01*
X0043612Y0053033D01*
X0043678Y0053078D01*
X0043746Y0053120D01*
X0043816Y0053158D01*
X0043888Y0053192D01*
X0043961Y0053223D01*
X0044036Y0053251D01*
X0044113Y0053274D01*
X0044190Y0053294D01*
X0044268Y0053310D01*
X0044347Y0053322D01*
X0044426Y0053330D01*
X0044506Y0053334D01*
X0044586Y0053334D01*
X0044666Y0053330D01*
X0044745Y0053322D01*
X0044824Y0053310D01*
X0044902Y0053294D01*
X0044979Y0053274D01*
X0045056Y0053251D01*
X0045131Y0053223D01*
X0045204Y0053192D01*
X0045276Y0053158D01*
X0045346Y0053120D01*
X0045414Y0053078D01*
X0045480Y0053033D01*
X0045544Y0052985D01*
X0045605Y0052934D01*
X0045663Y0052879D01*
X0045719Y0052822D01*
X0045772Y0052762D01*
X0045821Y0052700D01*
X0045868Y0052635D01*
X0045911Y0052568D01*
X0045951Y0052499D01*
X0045988Y0052428D01*
X0046020Y0052355D01*
X0046050Y0052281D01*
X0046075Y0052206D01*
X0046097Y0052129D01*
X0046114Y0052051D01*
X0046128Y0051972D01*
X0046138Y0051893D01*
X0046144Y0051814D01*
X0046146Y0051734D01*
X0046144Y0051654D01*
X0046138Y0051575D01*
X0046128Y0051496D01*
X0046114Y0051417D01*
X0046097Y0051339D01*
X0046075Y0051262D01*
X0046050Y0051187D01*
X0046020Y0051113D01*
X0045988Y0051040D01*
X0045951Y0050969D01*
X0045911Y0050900D01*
X0045868Y0050833D01*
X0045821Y0050768D01*
X0045772Y0050706D01*
X0045719Y0050646D01*
X0045663Y0050589D01*
X0045605Y0050534D01*
X0045544Y0050483D01*
X0045480Y0050435D01*
X0045414Y0050390D01*
X0045346Y0050348D01*
X0045276Y0050310D01*
X0045204Y0050276D01*
X0045131Y0050245D01*
X0045056Y0050217D01*
X0044979Y0050194D01*
X0044902Y0050174D01*
X0044824Y0050158D01*
X0044745Y0050146D01*
X0044666Y0050138D01*
X0044586Y0050134D01*
X0044506Y0050134D01*
X0044426Y0050138D01*
X0044347Y0050146D01*
X0044268Y0050158D01*
X0044190Y0050174D01*
X0044113Y0050194D01*
X0044036Y0050217D01*
X0043961Y0050245D01*
X0043888Y0050276D01*
X0043816Y0050310D01*
X0043746Y0050348D01*
X0043678Y0050390D01*
X0043612Y0050435D01*
X0043548Y0050483D01*
X0043487Y0050534D01*
X0043429Y0050589D01*
X0043373Y0050646D01*
X0043320Y0050706D01*
X0043271Y0050768D01*
X0043224Y0050833D01*
X0043181Y0050900D01*
X0043141Y0050969D01*
X0043104Y0051040D01*
X0043072Y0051113D01*
X0043042Y0051187D01*
X0043017Y0051262D01*
X0042995Y0051339D01*
X0042978Y0051417D01*
X0042964Y0051496D01*
X0042954Y0051575D01*
X0042948Y0051654D01*
X0042946Y0051734D01*
X0041371Y0051734D02*
X0041373Y0051814D01*
X0041379Y0051893D01*
X0041389Y0051972D01*
X0041403Y0052051D01*
X0041420Y0052129D01*
X0041442Y0052206D01*
X0041467Y0052281D01*
X0041497Y0052355D01*
X0041529Y0052428D01*
X0041566Y0052499D01*
X0041606Y0052568D01*
X0041649Y0052635D01*
X0041696Y0052700D01*
X0041745Y0052762D01*
X0041798Y0052822D01*
X0041854Y0052879D01*
X0041912Y0052934D01*
X0041973Y0052985D01*
X0042037Y0053033D01*
X0042103Y0053078D01*
X0042171Y0053120D01*
X0042241Y0053158D01*
X0042313Y0053192D01*
X0042386Y0053223D01*
X0042461Y0053251D01*
X0042538Y0053274D01*
X0042615Y0053294D01*
X0042693Y0053310D01*
X0042772Y0053322D01*
X0042851Y0053330D01*
X0042931Y0053334D01*
X0043011Y0053334D01*
X0043091Y0053330D01*
X0043170Y0053322D01*
X0043249Y0053310D01*
X0043327Y0053294D01*
X0043404Y0053274D01*
X0043481Y0053251D01*
X0043556Y0053223D01*
X0043629Y0053192D01*
X0043701Y0053158D01*
X0043771Y0053120D01*
X0043839Y0053078D01*
X0043905Y0053033D01*
X0043969Y0052985D01*
X0044030Y0052934D01*
X0044088Y0052879D01*
X0044144Y0052822D01*
X0044197Y0052762D01*
X0044246Y0052700D01*
X0044293Y0052635D01*
X0044336Y0052568D01*
X0044376Y0052499D01*
X0044413Y0052428D01*
X0044445Y0052355D01*
X0044475Y0052281D01*
X0044500Y0052206D01*
X0044522Y0052129D01*
X0044539Y0052051D01*
X0044553Y0051972D01*
X0044563Y0051893D01*
X0044569Y0051814D01*
X0044571Y0051734D01*
X0044569Y0051654D01*
X0044563Y0051575D01*
X0044553Y0051496D01*
X0044539Y0051417D01*
X0044522Y0051339D01*
X0044500Y0051262D01*
X0044475Y0051187D01*
X0044445Y0051113D01*
X0044413Y0051040D01*
X0044376Y0050969D01*
X0044336Y0050900D01*
X0044293Y0050833D01*
X0044246Y0050768D01*
X0044197Y0050706D01*
X0044144Y0050646D01*
X0044088Y0050589D01*
X0044030Y0050534D01*
X0043969Y0050483D01*
X0043905Y0050435D01*
X0043839Y0050390D01*
X0043771Y0050348D01*
X0043701Y0050310D01*
X0043629Y0050276D01*
X0043556Y0050245D01*
X0043481Y0050217D01*
X0043404Y0050194D01*
X0043327Y0050174D01*
X0043249Y0050158D01*
X0043170Y0050146D01*
X0043091Y0050138D01*
X0043011Y0050134D01*
X0042931Y0050134D01*
X0042851Y0050138D01*
X0042772Y0050146D01*
X0042693Y0050158D01*
X0042615Y0050174D01*
X0042538Y0050194D01*
X0042461Y0050217D01*
X0042386Y0050245D01*
X0042313Y0050276D01*
X0042241Y0050310D01*
X0042171Y0050348D01*
X0042103Y0050390D01*
X0042037Y0050435D01*
X0041973Y0050483D01*
X0041912Y0050534D01*
X0041854Y0050589D01*
X0041798Y0050646D01*
X0041745Y0050706D01*
X0041696Y0050768D01*
X0041649Y0050833D01*
X0041606Y0050900D01*
X0041566Y0050969D01*
X0041529Y0051040D01*
X0041497Y0051113D01*
X0041467Y0051187D01*
X0041442Y0051262D01*
X0041420Y0051339D01*
X0041403Y0051417D01*
X0041389Y0051496D01*
X0041379Y0051575D01*
X0041373Y0051654D01*
X0041371Y0051734D01*
X0039796Y0051734D02*
X0039798Y0051814D01*
X0039804Y0051893D01*
X0039814Y0051972D01*
X0039828Y0052051D01*
X0039845Y0052129D01*
X0039867Y0052206D01*
X0039892Y0052281D01*
X0039922Y0052355D01*
X0039954Y0052428D01*
X0039991Y0052499D01*
X0040031Y0052568D01*
X0040074Y0052635D01*
X0040121Y0052700D01*
X0040170Y0052762D01*
X0040223Y0052822D01*
X0040279Y0052879D01*
X0040337Y0052934D01*
X0040398Y0052985D01*
X0040462Y0053033D01*
X0040528Y0053078D01*
X0040596Y0053120D01*
X0040666Y0053158D01*
X0040738Y0053192D01*
X0040811Y0053223D01*
X0040886Y0053251D01*
X0040963Y0053274D01*
X0041040Y0053294D01*
X0041118Y0053310D01*
X0041197Y0053322D01*
X0041276Y0053330D01*
X0041356Y0053334D01*
X0041436Y0053334D01*
X0041516Y0053330D01*
X0041595Y0053322D01*
X0041674Y0053310D01*
X0041752Y0053294D01*
X0041829Y0053274D01*
X0041906Y0053251D01*
X0041981Y0053223D01*
X0042054Y0053192D01*
X0042126Y0053158D01*
X0042196Y0053120D01*
X0042264Y0053078D01*
X0042330Y0053033D01*
X0042394Y0052985D01*
X0042455Y0052934D01*
X0042513Y0052879D01*
X0042569Y0052822D01*
X0042622Y0052762D01*
X0042671Y0052700D01*
X0042718Y0052635D01*
X0042761Y0052568D01*
X0042801Y0052499D01*
X0042838Y0052428D01*
X0042870Y0052355D01*
X0042900Y0052281D01*
X0042925Y0052206D01*
X0042947Y0052129D01*
X0042964Y0052051D01*
X0042978Y0051972D01*
X0042988Y0051893D01*
X0042994Y0051814D01*
X0042996Y0051734D01*
X0042994Y0051654D01*
X0042988Y0051575D01*
X0042978Y0051496D01*
X0042964Y0051417D01*
X0042947Y0051339D01*
X0042925Y0051262D01*
X0042900Y0051187D01*
X0042870Y0051113D01*
X0042838Y0051040D01*
X0042801Y0050969D01*
X0042761Y0050900D01*
X0042718Y0050833D01*
X0042671Y0050768D01*
X0042622Y0050706D01*
X0042569Y0050646D01*
X0042513Y0050589D01*
X0042455Y0050534D01*
X0042394Y0050483D01*
X0042330Y0050435D01*
X0042264Y0050390D01*
X0042196Y0050348D01*
X0042126Y0050310D01*
X0042054Y0050276D01*
X0041981Y0050245D01*
X0041906Y0050217D01*
X0041829Y0050194D01*
X0041752Y0050174D01*
X0041674Y0050158D01*
X0041595Y0050146D01*
X0041516Y0050138D01*
X0041436Y0050134D01*
X0041356Y0050134D01*
X0041276Y0050138D01*
X0041197Y0050146D01*
X0041118Y0050158D01*
X0041040Y0050174D01*
X0040963Y0050194D01*
X0040886Y0050217D01*
X0040811Y0050245D01*
X0040738Y0050276D01*
X0040666Y0050310D01*
X0040596Y0050348D01*
X0040528Y0050390D01*
X0040462Y0050435D01*
X0040398Y0050483D01*
X0040337Y0050534D01*
X0040279Y0050589D01*
X0040223Y0050646D01*
X0040170Y0050706D01*
X0040121Y0050768D01*
X0040074Y0050833D01*
X0040031Y0050900D01*
X0039991Y0050969D01*
X0039954Y0051040D01*
X0039922Y0051113D01*
X0039892Y0051187D01*
X0039867Y0051262D01*
X0039845Y0051339D01*
X0039828Y0051417D01*
X0039814Y0051496D01*
X0039804Y0051575D01*
X0039798Y0051654D01*
X0039796Y0051734D01*
X0038222Y0051734D02*
X0038224Y0051814D01*
X0038230Y0051893D01*
X0038240Y0051972D01*
X0038254Y0052051D01*
X0038271Y0052129D01*
X0038293Y0052206D01*
X0038318Y0052281D01*
X0038348Y0052355D01*
X0038380Y0052428D01*
X0038417Y0052499D01*
X0038457Y0052568D01*
X0038500Y0052635D01*
X0038547Y0052700D01*
X0038596Y0052762D01*
X0038649Y0052822D01*
X0038705Y0052879D01*
X0038763Y0052934D01*
X0038824Y0052985D01*
X0038888Y0053033D01*
X0038954Y0053078D01*
X0039022Y0053120D01*
X0039092Y0053158D01*
X0039164Y0053192D01*
X0039237Y0053223D01*
X0039312Y0053251D01*
X0039389Y0053274D01*
X0039466Y0053294D01*
X0039544Y0053310D01*
X0039623Y0053322D01*
X0039702Y0053330D01*
X0039782Y0053334D01*
X0039862Y0053334D01*
X0039942Y0053330D01*
X0040021Y0053322D01*
X0040100Y0053310D01*
X0040178Y0053294D01*
X0040255Y0053274D01*
X0040332Y0053251D01*
X0040407Y0053223D01*
X0040480Y0053192D01*
X0040552Y0053158D01*
X0040622Y0053120D01*
X0040690Y0053078D01*
X0040756Y0053033D01*
X0040820Y0052985D01*
X0040881Y0052934D01*
X0040939Y0052879D01*
X0040995Y0052822D01*
X0041048Y0052762D01*
X0041097Y0052700D01*
X0041144Y0052635D01*
X0041187Y0052568D01*
X0041227Y0052499D01*
X0041264Y0052428D01*
X0041296Y0052355D01*
X0041326Y0052281D01*
X0041351Y0052206D01*
X0041373Y0052129D01*
X0041390Y0052051D01*
X0041404Y0051972D01*
X0041414Y0051893D01*
X0041420Y0051814D01*
X0041422Y0051734D01*
X0041420Y0051654D01*
X0041414Y0051575D01*
X0041404Y0051496D01*
X0041390Y0051417D01*
X0041373Y0051339D01*
X0041351Y0051262D01*
X0041326Y0051187D01*
X0041296Y0051113D01*
X0041264Y0051040D01*
X0041227Y0050969D01*
X0041187Y0050900D01*
X0041144Y0050833D01*
X0041097Y0050768D01*
X0041048Y0050706D01*
X0040995Y0050646D01*
X0040939Y0050589D01*
X0040881Y0050534D01*
X0040820Y0050483D01*
X0040756Y0050435D01*
X0040690Y0050390D01*
X0040622Y0050348D01*
X0040552Y0050310D01*
X0040480Y0050276D01*
X0040407Y0050245D01*
X0040332Y0050217D01*
X0040255Y0050194D01*
X0040178Y0050174D01*
X0040100Y0050158D01*
X0040021Y0050146D01*
X0039942Y0050138D01*
X0039862Y0050134D01*
X0039782Y0050134D01*
X0039702Y0050138D01*
X0039623Y0050146D01*
X0039544Y0050158D01*
X0039466Y0050174D01*
X0039389Y0050194D01*
X0039312Y0050217D01*
X0039237Y0050245D01*
X0039164Y0050276D01*
X0039092Y0050310D01*
X0039022Y0050348D01*
X0038954Y0050390D01*
X0038888Y0050435D01*
X0038824Y0050483D01*
X0038763Y0050534D01*
X0038705Y0050589D01*
X0038649Y0050646D01*
X0038596Y0050706D01*
X0038547Y0050768D01*
X0038500Y0050833D01*
X0038457Y0050900D01*
X0038417Y0050969D01*
X0038380Y0051040D01*
X0038348Y0051113D01*
X0038318Y0051187D01*
X0038293Y0051262D01*
X0038271Y0051339D01*
X0038254Y0051417D01*
X0038240Y0051496D01*
X0038230Y0051575D01*
X0038224Y0051654D01*
X0038222Y0051734D01*
X0039009Y0051734D02*
X0039011Y0051814D01*
X0039017Y0051893D01*
X0039027Y0051972D01*
X0039041Y0052051D01*
X0039058Y0052129D01*
X0039080Y0052206D01*
X0039105Y0052281D01*
X0039135Y0052355D01*
X0039167Y0052428D01*
X0039204Y0052499D01*
X0039244Y0052568D01*
X0039287Y0052635D01*
X0039334Y0052700D01*
X0039383Y0052762D01*
X0039436Y0052822D01*
X0039492Y0052879D01*
X0039550Y0052934D01*
X0039611Y0052985D01*
X0039675Y0053033D01*
X0039741Y0053078D01*
X0039809Y0053120D01*
X0039879Y0053158D01*
X0039951Y0053192D01*
X0040024Y0053223D01*
X0040099Y0053251D01*
X0040176Y0053274D01*
X0040253Y0053294D01*
X0040331Y0053310D01*
X0040410Y0053322D01*
X0040489Y0053330D01*
X0040569Y0053334D01*
X0040649Y0053334D01*
X0040729Y0053330D01*
X0040808Y0053322D01*
X0040887Y0053310D01*
X0040965Y0053294D01*
X0041042Y0053274D01*
X0041119Y0053251D01*
X0041194Y0053223D01*
X0041267Y0053192D01*
X0041339Y0053158D01*
X0041409Y0053120D01*
X0041477Y0053078D01*
X0041543Y0053033D01*
X0041607Y0052985D01*
X0041668Y0052934D01*
X0041726Y0052879D01*
X0041782Y0052822D01*
X0041835Y0052762D01*
X0041884Y0052700D01*
X0041931Y0052635D01*
X0041974Y0052568D01*
X0042014Y0052499D01*
X0042051Y0052428D01*
X0042083Y0052355D01*
X0042113Y0052281D01*
X0042138Y0052206D01*
X0042160Y0052129D01*
X0042177Y0052051D01*
X0042191Y0051972D01*
X0042201Y0051893D01*
X0042207Y0051814D01*
X0042209Y0051734D01*
X0042207Y0051654D01*
X0042201Y0051575D01*
X0042191Y0051496D01*
X0042177Y0051417D01*
X0042160Y0051339D01*
X0042138Y0051262D01*
X0042113Y0051187D01*
X0042083Y0051113D01*
X0042051Y0051040D01*
X0042014Y0050969D01*
X0041974Y0050900D01*
X0041931Y0050833D01*
X0041884Y0050768D01*
X0041835Y0050706D01*
X0041782Y0050646D01*
X0041726Y0050589D01*
X0041668Y0050534D01*
X0041607Y0050483D01*
X0041543Y0050435D01*
X0041477Y0050390D01*
X0041409Y0050348D01*
X0041339Y0050310D01*
X0041267Y0050276D01*
X0041194Y0050245D01*
X0041119Y0050217D01*
X0041042Y0050194D01*
X0040965Y0050174D01*
X0040887Y0050158D01*
X0040808Y0050146D01*
X0040729Y0050138D01*
X0040649Y0050134D01*
X0040569Y0050134D01*
X0040489Y0050138D01*
X0040410Y0050146D01*
X0040331Y0050158D01*
X0040253Y0050174D01*
X0040176Y0050194D01*
X0040099Y0050217D01*
X0040024Y0050245D01*
X0039951Y0050276D01*
X0039879Y0050310D01*
X0039809Y0050348D01*
X0039741Y0050390D01*
X0039675Y0050435D01*
X0039611Y0050483D01*
X0039550Y0050534D01*
X0039492Y0050589D01*
X0039436Y0050646D01*
X0039383Y0050706D01*
X0039334Y0050768D01*
X0039287Y0050833D01*
X0039244Y0050900D01*
X0039204Y0050969D01*
X0039167Y0051040D01*
X0039135Y0051113D01*
X0039105Y0051187D01*
X0039080Y0051262D01*
X0039058Y0051339D01*
X0039041Y0051417D01*
X0039027Y0051496D01*
X0039017Y0051575D01*
X0039011Y0051654D01*
X0039009Y0051734D01*
X0040584Y0051734D02*
X0040586Y0051814D01*
X0040592Y0051893D01*
X0040602Y0051972D01*
X0040616Y0052051D01*
X0040633Y0052129D01*
X0040655Y0052206D01*
X0040680Y0052281D01*
X0040710Y0052355D01*
X0040742Y0052428D01*
X0040779Y0052499D01*
X0040819Y0052568D01*
X0040862Y0052635D01*
X0040909Y0052700D01*
X0040958Y0052762D01*
X0041011Y0052822D01*
X0041067Y0052879D01*
X0041125Y0052934D01*
X0041186Y0052985D01*
X0041250Y0053033D01*
X0041316Y0053078D01*
X0041384Y0053120D01*
X0041454Y0053158D01*
X0041526Y0053192D01*
X0041599Y0053223D01*
X0041674Y0053251D01*
X0041751Y0053274D01*
X0041828Y0053294D01*
X0041906Y0053310D01*
X0041985Y0053322D01*
X0042064Y0053330D01*
X0042144Y0053334D01*
X0042224Y0053334D01*
X0042304Y0053330D01*
X0042383Y0053322D01*
X0042462Y0053310D01*
X0042540Y0053294D01*
X0042617Y0053274D01*
X0042694Y0053251D01*
X0042769Y0053223D01*
X0042842Y0053192D01*
X0042914Y0053158D01*
X0042984Y0053120D01*
X0043052Y0053078D01*
X0043118Y0053033D01*
X0043182Y0052985D01*
X0043243Y0052934D01*
X0043301Y0052879D01*
X0043357Y0052822D01*
X0043410Y0052762D01*
X0043459Y0052700D01*
X0043506Y0052635D01*
X0043549Y0052568D01*
X0043589Y0052499D01*
X0043626Y0052428D01*
X0043658Y0052355D01*
X0043688Y0052281D01*
X0043713Y0052206D01*
X0043735Y0052129D01*
X0043752Y0052051D01*
X0043766Y0051972D01*
X0043776Y0051893D01*
X0043782Y0051814D01*
X0043784Y0051734D01*
X0043782Y0051654D01*
X0043776Y0051575D01*
X0043766Y0051496D01*
X0043752Y0051417D01*
X0043735Y0051339D01*
X0043713Y0051262D01*
X0043688Y0051187D01*
X0043658Y0051113D01*
X0043626Y0051040D01*
X0043589Y0050969D01*
X0043549Y0050900D01*
X0043506Y0050833D01*
X0043459Y0050768D01*
X0043410Y0050706D01*
X0043357Y0050646D01*
X0043301Y0050589D01*
X0043243Y0050534D01*
X0043182Y0050483D01*
X0043118Y0050435D01*
X0043052Y0050390D01*
X0042984Y0050348D01*
X0042914Y0050310D01*
X0042842Y0050276D01*
X0042769Y0050245D01*
X0042694Y0050217D01*
X0042617Y0050194D01*
X0042540Y0050174D01*
X0042462Y0050158D01*
X0042383Y0050146D01*
X0042304Y0050138D01*
X0042224Y0050134D01*
X0042144Y0050134D01*
X0042064Y0050138D01*
X0041985Y0050146D01*
X0041906Y0050158D01*
X0041828Y0050174D01*
X0041751Y0050194D01*
X0041674Y0050217D01*
X0041599Y0050245D01*
X0041526Y0050276D01*
X0041454Y0050310D01*
X0041384Y0050348D01*
X0041316Y0050390D01*
X0041250Y0050435D01*
X0041186Y0050483D01*
X0041125Y0050534D01*
X0041067Y0050589D01*
X0041011Y0050646D01*
X0040958Y0050706D01*
X0040909Y0050768D01*
X0040862Y0050833D01*
X0040819Y0050900D01*
X0040779Y0050969D01*
X0040742Y0051040D01*
X0040710Y0051113D01*
X0040680Y0051187D01*
X0040655Y0051262D01*
X0040633Y0051339D01*
X0040616Y0051417D01*
X0040602Y0051496D01*
X0040592Y0051575D01*
X0040586Y0051654D01*
X0040584Y0051734D01*
X0042159Y0051734D02*
X0042161Y0051814D01*
X0042167Y0051893D01*
X0042177Y0051972D01*
X0042191Y0052051D01*
X0042208Y0052129D01*
X0042230Y0052206D01*
X0042255Y0052281D01*
X0042285Y0052355D01*
X0042317Y0052428D01*
X0042354Y0052499D01*
X0042394Y0052568D01*
X0042437Y0052635D01*
X0042484Y0052700D01*
X0042533Y0052762D01*
X0042586Y0052822D01*
X0042642Y0052879D01*
X0042700Y0052934D01*
X0042761Y0052985D01*
X0042825Y0053033D01*
X0042891Y0053078D01*
X0042959Y0053120D01*
X0043029Y0053158D01*
X0043101Y0053192D01*
X0043174Y0053223D01*
X0043249Y0053251D01*
X0043326Y0053274D01*
X0043403Y0053294D01*
X0043481Y0053310D01*
X0043560Y0053322D01*
X0043639Y0053330D01*
X0043719Y0053334D01*
X0043799Y0053334D01*
X0043879Y0053330D01*
X0043958Y0053322D01*
X0044037Y0053310D01*
X0044115Y0053294D01*
X0044192Y0053274D01*
X0044269Y0053251D01*
X0044344Y0053223D01*
X0044417Y0053192D01*
X0044489Y0053158D01*
X0044559Y0053120D01*
X0044627Y0053078D01*
X0044693Y0053033D01*
X0044757Y0052985D01*
X0044818Y0052934D01*
X0044876Y0052879D01*
X0044932Y0052822D01*
X0044985Y0052762D01*
X0045034Y0052700D01*
X0045081Y0052635D01*
X0045124Y0052568D01*
X0045164Y0052499D01*
X0045201Y0052428D01*
X0045233Y0052355D01*
X0045263Y0052281D01*
X0045288Y0052206D01*
X0045310Y0052129D01*
X0045327Y0052051D01*
X0045341Y0051972D01*
X0045351Y0051893D01*
X0045357Y0051814D01*
X0045359Y0051734D01*
X0045357Y0051654D01*
X0045351Y0051575D01*
X0045341Y0051496D01*
X0045327Y0051417D01*
X0045310Y0051339D01*
X0045288Y0051262D01*
X0045263Y0051187D01*
X0045233Y0051113D01*
X0045201Y0051040D01*
X0045164Y0050969D01*
X0045124Y0050900D01*
X0045081Y0050833D01*
X0045034Y0050768D01*
X0044985Y0050706D01*
X0044932Y0050646D01*
X0044876Y0050589D01*
X0044818Y0050534D01*
X0044757Y0050483D01*
X0044693Y0050435D01*
X0044627Y0050390D01*
X0044559Y0050348D01*
X0044489Y0050310D01*
X0044417Y0050276D01*
X0044344Y0050245D01*
X0044269Y0050217D01*
X0044192Y0050194D01*
X0044115Y0050174D01*
X0044037Y0050158D01*
X0043958Y0050146D01*
X0043879Y0050138D01*
X0043799Y0050134D01*
X0043719Y0050134D01*
X0043639Y0050138D01*
X0043560Y0050146D01*
X0043481Y0050158D01*
X0043403Y0050174D01*
X0043326Y0050194D01*
X0043249Y0050217D01*
X0043174Y0050245D01*
X0043101Y0050276D01*
X0043029Y0050310D01*
X0042959Y0050348D01*
X0042891Y0050390D01*
X0042825Y0050435D01*
X0042761Y0050483D01*
X0042700Y0050534D01*
X0042642Y0050589D01*
X0042586Y0050646D01*
X0042533Y0050706D01*
X0042484Y0050768D01*
X0042437Y0050833D01*
X0042394Y0050900D01*
X0042354Y0050969D01*
X0042317Y0051040D01*
X0042285Y0051113D01*
X0042255Y0051187D01*
X0042230Y0051262D01*
X0042208Y0051339D01*
X0042191Y0051417D01*
X0042177Y0051496D01*
X0042167Y0051575D01*
X0042161Y0051654D01*
X0042159Y0051734D01*
X0045308Y0051734D02*
X0045310Y0051814D01*
X0045316Y0051893D01*
X0045326Y0051972D01*
X0045340Y0052051D01*
X0045357Y0052129D01*
X0045379Y0052206D01*
X0045404Y0052281D01*
X0045434Y0052355D01*
X0045466Y0052428D01*
X0045503Y0052499D01*
X0045543Y0052568D01*
X0045586Y0052635D01*
X0045633Y0052700D01*
X0045682Y0052762D01*
X0045735Y0052822D01*
X0045791Y0052879D01*
X0045849Y0052934D01*
X0045910Y0052985D01*
X0045974Y0053033D01*
X0046040Y0053078D01*
X0046108Y0053120D01*
X0046178Y0053158D01*
X0046250Y0053192D01*
X0046323Y0053223D01*
X0046398Y0053251D01*
X0046475Y0053274D01*
X0046552Y0053294D01*
X0046630Y0053310D01*
X0046709Y0053322D01*
X0046788Y0053330D01*
X0046868Y0053334D01*
X0046948Y0053334D01*
X0047028Y0053330D01*
X0047107Y0053322D01*
X0047186Y0053310D01*
X0047264Y0053294D01*
X0047341Y0053274D01*
X0047418Y0053251D01*
X0047493Y0053223D01*
X0047566Y0053192D01*
X0047638Y0053158D01*
X0047708Y0053120D01*
X0047776Y0053078D01*
X0047842Y0053033D01*
X0047906Y0052985D01*
X0047967Y0052934D01*
X0048025Y0052879D01*
X0048081Y0052822D01*
X0048134Y0052762D01*
X0048183Y0052700D01*
X0048230Y0052635D01*
X0048273Y0052568D01*
X0048313Y0052499D01*
X0048350Y0052428D01*
X0048382Y0052355D01*
X0048412Y0052281D01*
X0048437Y0052206D01*
X0048459Y0052129D01*
X0048476Y0052051D01*
X0048490Y0051972D01*
X0048500Y0051893D01*
X0048506Y0051814D01*
X0048508Y0051734D01*
X0048506Y0051654D01*
X0048500Y0051575D01*
X0048490Y0051496D01*
X0048476Y0051417D01*
X0048459Y0051339D01*
X0048437Y0051262D01*
X0048412Y0051187D01*
X0048382Y0051113D01*
X0048350Y0051040D01*
X0048313Y0050969D01*
X0048273Y0050900D01*
X0048230Y0050833D01*
X0048183Y0050768D01*
X0048134Y0050706D01*
X0048081Y0050646D01*
X0048025Y0050589D01*
X0047967Y0050534D01*
X0047906Y0050483D01*
X0047842Y0050435D01*
X0047776Y0050390D01*
X0047708Y0050348D01*
X0047638Y0050310D01*
X0047566Y0050276D01*
X0047493Y0050245D01*
X0047418Y0050217D01*
X0047341Y0050194D01*
X0047264Y0050174D01*
X0047186Y0050158D01*
X0047107Y0050146D01*
X0047028Y0050138D01*
X0046948Y0050134D01*
X0046868Y0050134D01*
X0046788Y0050138D01*
X0046709Y0050146D01*
X0046630Y0050158D01*
X0046552Y0050174D01*
X0046475Y0050194D01*
X0046398Y0050217D01*
X0046323Y0050245D01*
X0046250Y0050276D01*
X0046178Y0050310D01*
X0046108Y0050348D01*
X0046040Y0050390D01*
X0045974Y0050435D01*
X0045910Y0050483D01*
X0045849Y0050534D01*
X0045791Y0050589D01*
X0045735Y0050646D01*
X0045682Y0050706D01*
X0045633Y0050768D01*
X0045586Y0050833D01*
X0045543Y0050900D01*
X0045503Y0050969D01*
X0045466Y0051040D01*
X0045434Y0051113D01*
X0045404Y0051187D01*
X0045379Y0051262D01*
X0045357Y0051339D01*
X0045340Y0051417D01*
X0045326Y0051496D01*
X0045316Y0051575D01*
X0045310Y0051654D01*
X0045308Y0051734D01*
X0046883Y0051734D02*
X0046885Y0051814D01*
X0046891Y0051893D01*
X0046901Y0051972D01*
X0046915Y0052051D01*
X0046932Y0052129D01*
X0046954Y0052206D01*
X0046979Y0052281D01*
X0047009Y0052355D01*
X0047041Y0052428D01*
X0047078Y0052499D01*
X0047118Y0052568D01*
X0047161Y0052635D01*
X0047208Y0052700D01*
X0047257Y0052762D01*
X0047310Y0052822D01*
X0047366Y0052879D01*
X0047424Y0052934D01*
X0047485Y0052985D01*
X0047549Y0053033D01*
X0047615Y0053078D01*
X0047683Y0053120D01*
X0047753Y0053158D01*
X0047825Y0053192D01*
X0047898Y0053223D01*
X0047973Y0053251D01*
X0048050Y0053274D01*
X0048127Y0053294D01*
X0048205Y0053310D01*
X0048284Y0053322D01*
X0048363Y0053330D01*
X0048443Y0053334D01*
X0048523Y0053334D01*
X0048603Y0053330D01*
X0048682Y0053322D01*
X0048761Y0053310D01*
X0048839Y0053294D01*
X0048916Y0053274D01*
X0048993Y0053251D01*
X0049068Y0053223D01*
X0049141Y0053192D01*
X0049213Y0053158D01*
X0049283Y0053120D01*
X0049351Y0053078D01*
X0049417Y0053033D01*
X0049481Y0052985D01*
X0049542Y0052934D01*
X0049600Y0052879D01*
X0049656Y0052822D01*
X0049709Y0052762D01*
X0049758Y0052700D01*
X0049805Y0052635D01*
X0049848Y0052568D01*
X0049888Y0052499D01*
X0049925Y0052428D01*
X0049957Y0052355D01*
X0049987Y0052281D01*
X0050012Y0052206D01*
X0050034Y0052129D01*
X0050051Y0052051D01*
X0050065Y0051972D01*
X0050075Y0051893D01*
X0050081Y0051814D01*
X0050083Y0051734D01*
X0050081Y0051654D01*
X0050075Y0051575D01*
X0050065Y0051496D01*
X0050051Y0051417D01*
X0050034Y0051339D01*
X0050012Y0051262D01*
X0049987Y0051187D01*
X0049957Y0051113D01*
X0049925Y0051040D01*
X0049888Y0050969D01*
X0049848Y0050900D01*
X0049805Y0050833D01*
X0049758Y0050768D01*
X0049709Y0050706D01*
X0049656Y0050646D01*
X0049600Y0050589D01*
X0049542Y0050534D01*
X0049481Y0050483D01*
X0049417Y0050435D01*
X0049351Y0050390D01*
X0049283Y0050348D01*
X0049213Y0050310D01*
X0049141Y0050276D01*
X0049068Y0050245D01*
X0048993Y0050217D01*
X0048916Y0050194D01*
X0048839Y0050174D01*
X0048761Y0050158D01*
X0048682Y0050146D01*
X0048603Y0050138D01*
X0048523Y0050134D01*
X0048443Y0050134D01*
X0048363Y0050138D01*
X0048284Y0050146D01*
X0048205Y0050158D01*
X0048127Y0050174D01*
X0048050Y0050194D01*
X0047973Y0050217D01*
X0047898Y0050245D01*
X0047825Y0050276D01*
X0047753Y0050310D01*
X0047683Y0050348D01*
X0047615Y0050390D01*
X0047549Y0050435D01*
X0047485Y0050483D01*
X0047424Y0050534D01*
X0047366Y0050589D01*
X0047310Y0050646D01*
X0047257Y0050706D01*
X0047208Y0050768D01*
X0047161Y0050833D01*
X0047118Y0050900D01*
X0047078Y0050969D01*
X0047041Y0051040D01*
X0047009Y0051113D01*
X0046979Y0051187D01*
X0046954Y0051262D01*
X0046932Y0051339D01*
X0046915Y0051417D01*
X0046901Y0051496D01*
X0046891Y0051575D01*
X0046885Y0051654D01*
X0046883Y0051734D01*
X0048458Y0051734D02*
X0048460Y0051814D01*
X0048466Y0051893D01*
X0048476Y0051972D01*
X0048490Y0052051D01*
X0048507Y0052129D01*
X0048529Y0052206D01*
X0048554Y0052281D01*
X0048584Y0052355D01*
X0048616Y0052428D01*
X0048653Y0052499D01*
X0048693Y0052568D01*
X0048736Y0052635D01*
X0048783Y0052700D01*
X0048832Y0052762D01*
X0048885Y0052822D01*
X0048941Y0052879D01*
X0048999Y0052934D01*
X0049060Y0052985D01*
X0049124Y0053033D01*
X0049190Y0053078D01*
X0049258Y0053120D01*
X0049328Y0053158D01*
X0049400Y0053192D01*
X0049473Y0053223D01*
X0049548Y0053251D01*
X0049625Y0053274D01*
X0049702Y0053294D01*
X0049780Y0053310D01*
X0049859Y0053322D01*
X0049938Y0053330D01*
X0050018Y0053334D01*
X0050098Y0053334D01*
X0050178Y0053330D01*
X0050257Y0053322D01*
X0050336Y0053310D01*
X0050414Y0053294D01*
X0050491Y0053274D01*
X0050568Y0053251D01*
X0050643Y0053223D01*
X0050716Y0053192D01*
X0050788Y0053158D01*
X0050858Y0053120D01*
X0050926Y0053078D01*
X0050992Y0053033D01*
X0051056Y0052985D01*
X0051117Y0052934D01*
X0051175Y0052879D01*
X0051231Y0052822D01*
X0051284Y0052762D01*
X0051333Y0052700D01*
X0051380Y0052635D01*
X0051423Y0052568D01*
X0051463Y0052499D01*
X0051500Y0052428D01*
X0051532Y0052355D01*
X0051562Y0052281D01*
X0051587Y0052206D01*
X0051609Y0052129D01*
X0051626Y0052051D01*
X0051640Y0051972D01*
X0051650Y0051893D01*
X0051656Y0051814D01*
X0051658Y0051734D01*
X0051656Y0051654D01*
X0051650Y0051575D01*
X0051640Y0051496D01*
X0051626Y0051417D01*
X0051609Y0051339D01*
X0051587Y0051262D01*
X0051562Y0051187D01*
X0051532Y0051113D01*
X0051500Y0051040D01*
X0051463Y0050969D01*
X0051423Y0050900D01*
X0051380Y0050833D01*
X0051333Y0050768D01*
X0051284Y0050706D01*
X0051231Y0050646D01*
X0051175Y0050589D01*
X0051117Y0050534D01*
X0051056Y0050483D01*
X0050992Y0050435D01*
X0050926Y0050390D01*
X0050858Y0050348D01*
X0050788Y0050310D01*
X0050716Y0050276D01*
X0050643Y0050245D01*
X0050568Y0050217D01*
X0050491Y0050194D01*
X0050414Y0050174D01*
X0050336Y0050158D01*
X0050257Y0050146D01*
X0050178Y0050138D01*
X0050098Y0050134D01*
X0050018Y0050134D01*
X0049938Y0050138D01*
X0049859Y0050146D01*
X0049780Y0050158D01*
X0049702Y0050174D01*
X0049625Y0050194D01*
X0049548Y0050217D01*
X0049473Y0050245D01*
X0049400Y0050276D01*
X0049328Y0050310D01*
X0049258Y0050348D01*
X0049190Y0050390D01*
X0049124Y0050435D01*
X0049060Y0050483D01*
X0048999Y0050534D01*
X0048941Y0050589D01*
X0048885Y0050646D01*
X0048832Y0050706D01*
X0048783Y0050768D01*
X0048736Y0050833D01*
X0048693Y0050900D01*
X0048653Y0050969D01*
X0048616Y0051040D01*
X0048584Y0051113D01*
X0048554Y0051187D01*
X0048529Y0051262D01*
X0048507Y0051339D01*
X0048490Y0051417D01*
X0048476Y0051496D01*
X0048466Y0051575D01*
X0048460Y0051654D01*
X0048458Y0051734D01*
X0031922Y0065120D02*
X0031924Y0065200D01*
X0031930Y0065279D01*
X0031940Y0065358D01*
X0031954Y0065437D01*
X0031971Y0065515D01*
X0031993Y0065592D01*
X0032018Y0065667D01*
X0032048Y0065741D01*
X0032080Y0065814D01*
X0032117Y0065885D01*
X0032157Y0065954D01*
X0032200Y0066021D01*
X0032247Y0066086D01*
X0032296Y0066148D01*
X0032349Y0066208D01*
X0032405Y0066265D01*
X0032463Y0066320D01*
X0032524Y0066371D01*
X0032588Y0066419D01*
X0032654Y0066464D01*
X0032722Y0066506D01*
X0032792Y0066544D01*
X0032864Y0066578D01*
X0032937Y0066609D01*
X0033012Y0066637D01*
X0033089Y0066660D01*
X0033166Y0066680D01*
X0033244Y0066696D01*
X0033323Y0066708D01*
X0033402Y0066716D01*
X0033482Y0066720D01*
X0033562Y0066720D01*
X0033642Y0066716D01*
X0033721Y0066708D01*
X0033800Y0066696D01*
X0033878Y0066680D01*
X0033955Y0066660D01*
X0034032Y0066637D01*
X0034107Y0066609D01*
X0034180Y0066578D01*
X0034252Y0066544D01*
X0034322Y0066506D01*
X0034390Y0066464D01*
X0034456Y0066419D01*
X0034520Y0066371D01*
X0034581Y0066320D01*
X0034639Y0066265D01*
X0034695Y0066208D01*
X0034748Y0066148D01*
X0034797Y0066086D01*
X0034844Y0066021D01*
X0034887Y0065954D01*
X0034927Y0065885D01*
X0034964Y0065814D01*
X0034996Y0065741D01*
X0035026Y0065667D01*
X0035051Y0065592D01*
X0035073Y0065515D01*
X0035090Y0065437D01*
X0035104Y0065358D01*
X0035114Y0065279D01*
X0035120Y0065200D01*
X0035122Y0065120D01*
X0035120Y0065040D01*
X0035114Y0064961D01*
X0035104Y0064882D01*
X0035090Y0064803D01*
X0035073Y0064725D01*
X0035051Y0064648D01*
X0035026Y0064573D01*
X0034996Y0064499D01*
X0034964Y0064426D01*
X0034927Y0064355D01*
X0034887Y0064286D01*
X0034844Y0064219D01*
X0034797Y0064154D01*
X0034748Y0064092D01*
X0034695Y0064032D01*
X0034639Y0063975D01*
X0034581Y0063920D01*
X0034520Y0063869D01*
X0034456Y0063821D01*
X0034390Y0063776D01*
X0034322Y0063734D01*
X0034252Y0063696D01*
X0034180Y0063662D01*
X0034107Y0063631D01*
X0034032Y0063603D01*
X0033955Y0063580D01*
X0033878Y0063560D01*
X0033800Y0063544D01*
X0033721Y0063532D01*
X0033642Y0063524D01*
X0033562Y0063520D01*
X0033482Y0063520D01*
X0033402Y0063524D01*
X0033323Y0063532D01*
X0033244Y0063544D01*
X0033166Y0063560D01*
X0033089Y0063580D01*
X0033012Y0063603D01*
X0032937Y0063631D01*
X0032864Y0063662D01*
X0032792Y0063696D01*
X0032722Y0063734D01*
X0032654Y0063776D01*
X0032588Y0063821D01*
X0032524Y0063869D01*
X0032463Y0063920D01*
X0032405Y0063975D01*
X0032349Y0064032D01*
X0032296Y0064092D01*
X0032247Y0064154D01*
X0032200Y0064219D01*
X0032157Y0064286D01*
X0032117Y0064355D01*
X0032080Y0064426D01*
X0032048Y0064499D01*
X0032018Y0064573D01*
X0031993Y0064648D01*
X0031971Y0064725D01*
X0031954Y0064803D01*
X0031940Y0064882D01*
X0031930Y0064961D01*
X0031924Y0065040D01*
X0031922Y0065120D01*
X0031922Y0065907D02*
X0031924Y0065987D01*
X0031930Y0066066D01*
X0031940Y0066145D01*
X0031954Y0066224D01*
X0031971Y0066302D01*
X0031993Y0066379D01*
X0032018Y0066454D01*
X0032048Y0066528D01*
X0032080Y0066601D01*
X0032117Y0066672D01*
X0032157Y0066741D01*
X0032200Y0066808D01*
X0032247Y0066873D01*
X0032296Y0066935D01*
X0032349Y0066995D01*
X0032405Y0067052D01*
X0032463Y0067107D01*
X0032524Y0067158D01*
X0032588Y0067206D01*
X0032654Y0067251D01*
X0032722Y0067293D01*
X0032792Y0067331D01*
X0032864Y0067365D01*
X0032937Y0067396D01*
X0033012Y0067424D01*
X0033089Y0067447D01*
X0033166Y0067467D01*
X0033244Y0067483D01*
X0033323Y0067495D01*
X0033402Y0067503D01*
X0033482Y0067507D01*
X0033562Y0067507D01*
X0033642Y0067503D01*
X0033721Y0067495D01*
X0033800Y0067483D01*
X0033878Y0067467D01*
X0033955Y0067447D01*
X0034032Y0067424D01*
X0034107Y0067396D01*
X0034180Y0067365D01*
X0034252Y0067331D01*
X0034322Y0067293D01*
X0034390Y0067251D01*
X0034456Y0067206D01*
X0034520Y0067158D01*
X0034581Y0067107D01*
X0034639Y0067052D01*
X0034695Y0066995D01*
X0034748Y0066935D01*
X0034797Y0066873D01*
X0034844Y0066808D01*
X0034887Y0066741D01*
X0034927Y0066672D01*
X0034964Y0066601D01*
X0034996Y0066528D01*
X0035026Y0066454D01*
X0035051Y0066379D01*
X0035073Y0066302D01*
X0035090Y0066224D01*
X0035104Y0066145D01*
X0035114Y0066066D01*
X0035120Y0065987D01*
X0035122Y0065907D01*
X0035120Y0065827D01*
X0035114Y0065748D01*
X0035104Y0065669D01*
X0035090Y0065590D01*
X0035073Y0065512D01*
X0035051Y0065435D01*
X0035026Y0065360D01*
X0034996Y0065286D01*
X0034964Y0065213D01*
X0034927Y0065142D01*
X0034887Y0065073D01*
X0034844Y0065006D01*
X0034797Y0064941D01*
X0034748Y0064879D01*
X0034695Y0064819D01*
X0034639Y0064762D01*
X0034581Y0064707D01*
X0034520Y0064656D01*
X0034456Y0064608D01*
X0034390Y0064563D01*
X0034322Y0064521D01*
X0034252Y0064483D01*
X0034180Y0064449D01*
X0034107Y0064418D01*
X0034032Y0064390D01*
X0033955Y0064367D01*
X0033878Y0064347D01*
X0033800Y0064331D01*
X0033721Y0064319D01*
X0033642Y0064311D01*
X0033562Y0064307D01*
X0033482Y0064307D01*
X0033402Y0064311D01*
X0033323Y0064319D01*
X0033244Y0064331D01*
X0033166Y0064347D01*
X0033089Y0064367D01*
X0033012Y0064390D01*
X0032937Y0064418D01*
X0032864Y0064449D01*
X0032792Y0064483D01*
X0032722Y0064521D01*
X0032654Y0064563D01*
X0032588Y0064608D01*
X0032524Y0064656D01*
X0032463Y0064707D01*
X0032405Y0064762D01*
X0032349Y0064819D01*
X0032296Y0064879D01*
X0032247Y0064941D01*
X0032200Y0065006D01*
X0032157Y0065073D01*
X0032117Y0065142D01*
X0032080Y0065213D01*
X0032048Y0065286D01*
X0032018Y0065360D01*
X0031993Y0065435D01*
X0031971Y0065512D01*
X0031954Y0065590D01*
X0031940Y0065669D01*
X0031930Y0065748D01*
X0031924Y0065827D01*
X0031922Y0065907D01*
X0031922Y0066695D02*
X0031924Y0066775D01*
X0031930Y0066854D01*
X0031940Y0066933D01*
X0031954Y0067012D01*
X0031971Y0067090D01*
X0031993Y0067167D01*
X0032018Y0067242D01*
X0032048Y0067316D01*
X0032080Y0067389D01*
X0032117Y0067460D01*
X0032157Y0067529D01*
X0032200Y0067596D01*
X0032247Y0067661D01*
X0032296Y0067723D01*
X0032349Y0067783D01*
X0032405Y0067840D01*
X0032463Y0067895D01*
X0032524Y0067946D01*
X0032588Y0067994D01*
X0032654Y0068039D01*
X0032722Y0068081D01*
X0032792Y0068119D01*
X0032864Y0068153D01*
X0032937Y0068184D01*
X0033012Y0068212D01*
X0033089Y0068235D01*
X0033166Y0068255D01*
X0033244Y0068271D01*
X0033323Y0068283D01*
X0033402Y0068291D01*
X0033482Y0068295D01*
X0033562Y0068295D01*
X0033642Y0068291D01*
X0033721Y0068283D01*
X0033800Y0068271D01*
X0033878Y0068255D01*
X0033955Y0068235D01*
X0034032Y0068212D01*
X0034107Y0068184D01*
X0034180Y0068153D01*
X0034252Y0068119D01*
X0034322Y0068081D01*
X0034390Y0068039D01*
X0034456Y0067994D01*
X0034520Y0067946D01*
X0034581Y0067895D01*
X0034639Y0067840D01*
X0034695Y0067783D01*
X0034748Y0067723D01*
X0034797Y0067661D01*
X0034844Y0067596D01*
X0034887Y0067529D01*
X0034927Y0067460D01*
X0034964Y0067389D01*
X0034996Y0067316D01*
X0035026Y0067242D01*
X0035051Y0067167D01*
X0035073Y0067090D01*
X0035090Y0067012D01*
X0035104Y0066933D01*
X0035114Y0066854D01*
X0035120Y0066775D01*
X0035122Y0066695D01*
X0035120Y0066615D01*
X0035114Y0066536D01*
X0035104Y0066457D01*
X0035090Y0066378D01*
X0035073Y0066300D01*
X0035051Y0066223D01*
X0035026Y0066148D01*
X0034996Y0066074D01*
X0034964Y0066001D01*
X0034927Y0065930D01*
X0034887Y0065861D01*
X0034844Y0065794D01*
X0034797Y0065729D01*
X0034748Y0065667D01*
X0034695Y0065607D01*
X0034639Y0065550D01*
X0034581Y0065495D01*
X0034520Y0065444D01*
X0034456Y0065396D01*
X0034390Y0065351D01*
X0034322Y0065309D01*
X0034252Y0065271D01*
X0034180Y0065237D01*
X0034107Y0065206D01*
X0034032Y0065178D01*
X0033955Y0065155D01*
X0033878Y0065135D01*
X0033800Y0065119D01*
X0033721Y0065107D01*
X0033642Y0065099D01*
X0033562Y0065095D01*
X0033482Y0065095D01*
X0033402Y0065099D01*
X0033323Y0065107D01*
X0033244Y0065119D01*
X0033166Y0065135D01*
X0033089Y0065155D01*
X0033012Y0065178D01*
X0032937Y0065206D01*
X0032864Y0065237D01*
X0032792Y0065271D01*
X0032722Y0065309D01*
X0032654Y0065351D01*
X0032588Y0065396D01*
X0032524Y0065444D01*
X0032463Y0065495D01*
X0032405Y0065550D01*
X0032349Y0065607D01*
X0032296Y0065667D01*
X0032247Y0065729D01*
X0032200Y0065794D01*
X0032157Y0065861D01*
X0032117Y0065930D01*
X0032080Y0066001D01*
X0032048Y0066074D01*
X0032018Y0066148D01*
X0031993Y0066223D01*
X0031971Y0066300D01*
X0031954Y0066378D01*
X0031940Y0066457D01*
X0031930Y0066536D01*
X0031924Y0066615D01*
X0031922Y0066695D01*
X0031922Y0067482D02*
X0031924Y0067562D01*
X0031930Y0067641D01*
X0031940Y0067720D01*
X0031954Y0067799D01*
X0031971Y0067877D01*
X0031993Y0067954D01*
X0032018Y0068029D01*
X0032048Y0068103D01*
X0032080Y0068176D01*
X0032117Y0068247D01*
X0032157Y0068316D01*
X0032200Y0068383D01*
X0032247Y0068448D01*
X0032296Y0068510D01*
X0032349Y0068570D01*
X0032405Y0068627D01*
X0032463Y0068682D01*
X0032524Y0068733D01*
X0032588Y0068781D01*
X0032654Y0068826D01*
X0032722Y0068868D01*
X0032792Y0068906D01*
X0032864Y0068940D01*
X0032937Y0068971D01*
X0033012Y0068999D01*
X0033089Y0069022D01*
X0033166Y0069042D01*
X0033244Y0069058D01*
X0033323Y0069070D01*
X0033402Y0069078D01*
X0033482Y0069082D01*
X0033562Y0069082D01*
X0033642Y0069078D01*
X0033721Y0069070D01*
X0033800Y0069058D01*
X0033878Y0069042D01*
X0033955Y0069022D01*
X0034032Y0068999D01*
X0034107Y0068971D01*
X0034180Y0068940D01*
X0034252Y0068906D01*
X0034322Y0068868D01*
X0034390Y0068826D01*
X0034456Y0068781D01*
X0034520Y0068733D01*
X0034581Y0068682D01*
X0034639Y0068627D01*
X0034695Y0068570D01*
X0034748Y0068510D01*
X0034797Y0068448D01*
X0034844Y0068383D01*
X0034887Y0068316D01*
X0034927Y0068247D01*
X0034964Y0068176D01*
X0034996Y0068103D01*
X0035026Y0068029D01*
X0035051Y0067954D01*
X0035073Y0067877D01*
X0035090Y0067799D01*
X0035104Y0067720D01*
X0035114Y0067641D01*
X0035120Y0067562D01*
X0035122Y0067482D01*
X0035120Y0067402D01*
X0035114Y0067323D01*
X0035104Y0067244D01*
X0035090Y0067165D01*
X0035073Y0067087D01*
X0035051Y0067010D01*
X0035026Y0066935D01*
X0034996Y0066861D01*
X0034964Y0066788D01*
X0034927Y0066717D01*
X0034887Y0066648D01*
X0034844Y0066581D01*
X0034797Y0066516D01*
X0034748Y0066454D01*
X0034695Y0066394D01*
X0034639Y0066337D01*
X0034581Y0066282D01*
X0034520Y0066231D01*
X0034456Y0066183D01*
X0034390Y0066138D01*
X0034322Y0066096D01*
X0034252Y0066058D01*
X0034180Y0066024D01*
X0034107Y0065993D01*
X0034032Y0065965D01*
X0033955Y0065942D01*
X0033878Y0065922D01*
X0033800Y0065906D01*
X0033721Y0065894D01*
X0033642Y0065886D01*
X0033562Y0065882D01*
X0033482Y0065882D01*
X0033402Y0065886D01*
X0033323Y0065894D01*
X0033244Y0065906D01*
X0033166Y0065922D01*
X0033089Y0065942D01*
X0033012Y0065965D01*
X0032937Y0065993D01*
X0032864Y0066024D01*
X0032792Y0066058D01*
X0032722Y0066096D01*
X0032654Y0066138D01*
X0032588Y0066183D01*
X0032524Y0066231D01*
X0032463Y0066282D01*
X0032405Y0066337D01*
X0032349Y0066394D01*
X0032296Y0066454D01*
X0032247Y0066516D01*
X0032200Y0066581D01*
X0032157Y0066648D01*
X0032117Y0066717D01*
X0032080Y0066788D01*
X0032048Y0066861D01*
X0032018Y0066935D01*
X0031993Y0067010D01*
X0031971Y0067087D01*
X0031954Y0067165D01*
X0031940Y0067244D01*
X0031930Y0067323D01*
X0031924Y0067402D01*
X0031922Y0067482D01*
X0031922Y0068269D02*
X0031924Y0068349D01*
X0031930Y0068428D01*
X0031940Y0068507D01*
X0031954Y0068586D01*
X0031971Y0068664D01*
X0031993Y0068741D01*
X0032018Y0068816D01*
X0032048Y0068890D01*
X0032080Y0068963D01*
X0032117Y0069034D01*
X0032157Y0069103D01*
X0032200Y0069170D01*
X0032247Y0069235D01*
X0032296Y0069297D01*
X0032349Y0069357D01*
X0032405Y0069414D01*
X0032463Y0069469D01*
X0032524Y0069520D01*
X0032588Y0069568D01*
X0032654Y0069613D01*
X0032722Y0069655D01*
X0032792Y0069693D01*
X0032864Y0069727D01*
X0032937Y0069758D01*
X0033012Y0069786D01*
X0033089Y0069809D01*
X0033166Y0069829D01*
X0033244Y0069845D01*
X0033323Y0069857D01*
X0033402Y0069865D01*
X0033482Y0069869D01*
X0033562Y0069869D01*
X0033642Y0069865D01*
X0033721Y0069857D01*
X0033800Y0069845D01*
X0033878Y0069829D01*
X0033955Y0069809D01*
X0034032Y0069786D01*
X0034107Y0069758D01*
X0034180Y0069727D01*
X0034252Y0069693D01*
X0034322Y0069655D01*
X0034390Y0069613D01*
X0034456Y0069568D01*
X0034520Y0069520D01*
X0034581Y0069469D01*
X0034639Y0069414D01*
X0034695Y0069357D01*
X0034748Y0069297D01*
X0034797Y0069235D01*
X0034844Y0069170D01*
X0034887Y0069103D01*
X0034927Y0069034D01*
X0034964Y0068963D01*
X0034996Y0068890D01*
X0035026Y0068816D01*
X0035051Y0068741D01*
X0035073Y0068664D01*
X0035090Y0068586D01*
X0035104Y0068507D01*
X0035114Y0068428D01*
X0035120Y0068349D01*
X0035122Y0068269D01*
X0035120Y0068189D01*
X0035114Y0068110D01*
X0035104Y0068031D01*
X0035090Y0067952D01*
X0035073Y0067874D01*
X0035051Y0067797D01*
X0035026Y0067722D01*
X0034996Y0067648D01*
X0034964Y0067575D01*
X0034927Y0067504D01*
X0034887Y0067435D01*
X0034844Y0067368D01*
X0034797Y0067303D01*
X0034748Y0067241D01*
X0034695Y0067181D01*
X0034639Y0067124D01*
X0034581Y0067069D01*
X0034520Y0067018D01*
X0034456Y0066970D01*
X0034390Y0066925D01*
X0034322Y0066883D01*
X0034252Y0066845D01*
X0034180Y0066811D01*
X0034107Y0066780D01*
X0034032Y0066752D01*
X0033955Y0066729D01*
X0033878Y0066709D01*
X0033800Y0066693D01*
X0033721Y0066681D01*
X0033642Y0066673D01*
X0033562Y0066669D01*
X0033482Y0066669D01*
X0033402Y0066673D01*
X0033323Y0066681D01*
X0033244Y0066693D01*
X0033166Y0066709D01*
X0033089Y0066729D01*
X0033012Y0066752D01*
X0032937Y0066780D01*
X0032864Y0066811D01*
X0032792Y0066845D01*
X0032722Y0066883D01*
X0032654Y0066925D01*
X0032588Y0066970D01*
X0032524Y0067018D01*
X0032463Y0067069D01*
X0032405Y0067124D01*
X0032349Y0067181D01*
X0032296Y0067241D01*
X0032247Y0067303D01*
X0032200Y0067368D01*
X0032157Y0067435D01*
X0032117Y0067504D01*
X0032080Y0067575D01*
X0032048Y0067648D01*
X0032018Y0067722D01*
X0031993Y0067797D01*
X0031971Y0067874D01*
X0031954Y0067952D01*
X0031940Y0068031D01*
X0031930Y0068110D01*
X0031924Y0068189D01*
X0031922Y0068269D01*
X0031922Y0069057D02*
X0031924Y0069137D01*
X0031930Y0069216D01*
X0031940Y0069295D01*
X0031954Y0069374D01*
X0031971Y0069452D01*
X0031993Y0069529D01*
X0032018Y0069604D01*
X0032048Y0069678D01*
X0032080Y0069751D01*
X0032117Y0069822D01*
X0032157Y0069891D01*
X0032200Y0069958D01*
X0032247Y0070023D01*
X0032296Y0070085D01*
X0032349Y0070145D01*
X0032405Y0070202D01*
X0032463Y0070257D01*
X0032524Y0070308D01*
X0032588Y0070356D01*
X0032654Y0070401D01*
X0032722Y0070443D01*
X0032792Y0070481D01*
X0032864Y0070515D01*
X0032937Y0070546D01*
X0033012Y0070574D01*
X0033089Y0070597D01*
X0033166Y0070617D01*
X0033244Y0070633D01*
X0033323Y0070645D01*
X0033402Y0070653D01*
X0033482Y0070657D01*
X0033562Y0070657D01*
X0033642Y0070653D01*
X0033721Y0070645D01*
X0033800Y0070633D01*
X0033878Y0070617D01*
X0033955Y0070597D01*
X0034032Y0070574D01*
X0034107Y0070546D01*
X0034180Y0070515D01*
X0034252Y0070481D01*
X0034322Y0070443D01*
X0034390Y0070401D01*
X0034456Y0070356D01*
X0034520Y0070308D01*
X0034581Y0070257D01*
X0034639Y0070202D01*
X0034695Y0070145D01*
X0034748Y0070085D01*
X0034797Y0070023D01*
X0034844Y0069958D01*
X0034887Y0069891D01*
X0034927Y0069822D01*
X0034964Y0069751D01*
X0034996Y0069678D01*
X0035026Y0069604D01*
X0035051Y0069529D01*
X0035073Y0069452D01*
X0035090Y0069374D01*
X0035104Y0069295D01*
X0035114Y0069216D01*
X0035120Y0069137D01*
X0035122Y0069057D01*
X0035120Y0068977D01*
X0035114Y0068898D01*
X0035104Y0068819D01*
X0035090Y0068740D01*
X0035073Y0068662D01*
X0035051Y0068585D01*
X0035026Y0068510D01*
X0034996Y0068436D01*
X0034964Y0068363D01*
X0034927Y0068292D01*
X0034887Y0068223D01*
X0034844Y0068156D01*
X0034797Y0068091D01*
X0034748Y0068029D01*
X0034695Y0067969D01*
X0034639Y0067912D01*
X0034581Y0067857D01*
X0034520Y0067806D01*
X0034456Y0067758D01*
X0034390Y0067713D01*
X0034322Y0067671D01*
X0034252Y0067633D01*
X0034180Y0067599D01*
X0034107Y0067568D01*
X0034032Y0067540D01*
X0033955Y0067517D01*
X0033878Y0067497D01*
X0033800Y0067481D01*
X0033721Y0067469D01*
X0033642Y0067461D01*
X0033562Y0067457D01*
X0033482Y0067457D01*
X0033402Y0067461D01*
X0033323Y0067469D01*
X0033244Y0067481D01*
X0033166Y0067497D01*
X0033089Y0067517D01*
X0033012Y0067540D01*
X0032937Y0067568D01*
X0032864Y0067599D01*
X0032792Y0067633D01*
X0032722Y0067671D01*
X0032654Y0067713D01*
X0032588Y0067758D01*
X0032524Y0067806D01*
X0032463Y0067857D01*
X0032405Y0067912D01*
X0032349Y0067969D01*
X0032296Y0068029D01*
X0032247Y0068091D01*
X0032200Y0068156D01*
X0032157Y0068223D01*
X0032117Y0068292D01*
X0032080Y0068363D01*
X0032048Y0068436D01*
X0032018Y0068510D01*
X0031993Y0068585D01*
X0031971Y0068662D01*
X0031954Y0068740D01*
X0031940Y0068819D01*
X0031930Y0068898D01*
X0031924Y0068977D01*
X0031922Y0069057D01*
X0031922Y0069844D02*
X0031924Y0069924D01*
X0031930Y0070003D01*
X0031940Y0070082D01*
X0031954Y0070161D01*
X0031971Y0070239D01*
X0031993Y0070316D01*
X0032018Y0070391D01*
X0032048Y0070465D01*
X0032080Y0070538D01*
X0032117Y0070609D01*
X0032157Y0070678D01*
X0032200Y0070745D01*
X0032247Y0070810D01*
X0032296Y0070872D01*
X0032349Y0070932D01*
X0032405Y0070989D01*
X0032463Y0071044D01*
X0032524Y0071095D01*
X0032588Y0071143D01*
X0032654Y0071188D01*
X0032722Y0071230D01*
X0032792Y0071268D01*
X0032864Y0071302D01*
X0032937Y0071333D01*
X0033012Y0071361D01*
X0033089Y0071384D01*
X0033166Y0071404D01*
X0033244Y0071420D01*
X0033323Y0071432D01*
X0033402Y0071440D01*
X0033482Y0071444D01*
X0033562Y0071444D01*
X0033642Y0071440D01*
X0033721Y0071432D01*
X0033800Y0071420D01*
X0033878Y0071404D01*
X0033955Y0071384D01*
X0034032Y0071361D01*
X0034107Y0071333D01*
X0034180Y0071302D01*
X0034252Y0071268D01*
X0034322Y0071230D01*
X0034390Y0071188D01*
X0034456Y0071143D01*
X0034520Y0071095D01*
X0034581Y0071044D01*
X0034639Y0070989D01*
X0034695Y0070932D01*
X0034748Y0070872D01*
X0034797Y0070810D01*
X0034844Y0070745D01*
X0034887Y0070678D01*
X0034927Y0070609D01*
X0034964Y0070538D01*
X0034996Y0070465D01*
X0035026Y0070391D01*
X0035051Y0070316D01*
X0035073Y0070239D01*
X0035090Y0070161D01*
X0035104Y0070082D01*
X0035114Y0070003D01*
X0035120Y0069924D01*
X0035122Y0069844D01*
X0035120Y0069764D01*
X0035114Y0069685D01*
X0035104Y0069606D01*
X0035090Y0069527D01*
X0035073Y0069449D01*
X0035051Y0069372D01*
X0035026Y0069297D01*
X0034996Y0069223D01*
X0034964Y0069150D01*
X0034927Y0069079D01*
X0034887Y0069010D01*
X0034844Y0068943D01*
X0034797Y0068878D01*
X0034748Y0068816D01*
X0034695Y0068756D01*
X0034639Y0068699D01*
X0034581Y0068644D01*
X0034520Y0068593D01*
X0034456Y0068545D01*
X0034390Y0068500D01*
X0034322Y0068458D01*
X0034252Y0068420D01*
X0034180Y0068386D01*
X0034107Y0068355D01*
X0034032Y0068327D01*
X0033955Y0068304D01*
X0033878Y0068284D01*
X0033800Y0068268D01*
X0033721Y0068256D01*
X0033642Y0068248D01*
X0033562Y0068244D01*
X0033482Y0068244D01*
X0033402Y0068248D01*
X0033323Y0068256D01*
X0033244Y0068268D01*
X0033166Y0068284D01*
X0033089Y0068304D01*
X0033012Y0068327D01*
X0032937Y0068355D01*
X0032864Y0068386D01*
X0032792Y0068420D01*
X0032722Y0068458D01*
X0032654Y0068500D01*
X0032588Y0068545D01*
X0032524Y0068593D01*
X0032463Y0068644D01*
X0032405Y0068699D01*
X0032349Y0068756D01*
X0032296Y0068816D01*
X0032247Y0068878D01*
X0032200Y0068943D01*
X0032157Y0069010D01*
X0032117Y0069079D01*
X0032080Y0069150D01*
X0032048Y0069223D01*
X0032018Y0069297D01*
X0031993Y0069372D01*
X0031971Y0069449D01*
X0031954Y0069527D01*
X0031940Y0069606D01*
X0031930Y0069685D01*
X0031924Y0069764D01*
X0031922Y0069844D01*
X0031922Y0071419D02*
X0031924Y0071499D01*
X0031930Y0071578D01*
X0031940Y0071657D01*
X0031954Y0071736D01*
X0031971Y0071814D01*
X0031993Y0071891D01*
X0032018Y0071966D01*
X0032048Y0072040D01*
X0032080Y0072113D01*
X0032117Y0072184D01*
X0032157Y0072253D01*
X0032200Y0072320D01*
X0032247Y0072385D01*
X0032296Y0072447D01*
X0032349Y0072507D01*
X0032405Y0072564D01*
X0032463Y0072619D01*
X0032524Y0072670D01*
X0032588Y0072718D01*
X0032654Y0072763D01*
X0032722Y0072805D01*
X0032792Y0072843D01*
X0032864Y0072877D01*
X0032937Y0072908D01*
X0033012Y0072936D01*
X0033089Y0072959D01*
X0033166Y0072979D01*
X0033244Y0072995D01*
X0033323Y0073007D01*
X0033402Y0073015D01*
X0033482Y0073019D01*
X0033562Y0073019D01*
X0033642Y0073015D01*
X0033721Y0073007D01*
X0033800Y0072995D01*
X0033878Y0072979D01*
X0033955Y0072959D01*
X0034032Y0072936D01*
X0034107Y0072908D01*
X0034180Y0072877D01*
X0034252Y0072843D01*
X0034322Y0072805D01*
X0034390Y0072763D01*
X0034456Y0072718D01*
X0034520Y0072670D01*
X0034581Y0072619D01*
X0034639Y0072564D01*
X0034695Y0072507D01*
X0034748Y0072447D01*
X0034797Y0072385D01*
X0034844Y0072320D01*
X0034887Y0072253D01*
X0034927Y0072184D01*
X0034964Y0072113D01*
X0034996Y0072040D01*
X0035026Y0071966D01*
X0035051Y0071891D01*
X0035073Y0071814D01*
X0035090Y0071736D01*
X0035104Y0071657D01*
X0035114Y0071578D01*
X0035120Y0071499D01*
X0035122Y0071419D01*
X0035120Y0071339D01*
X0035114Y0071260D01*
X0035104Y0071181D01*
X0035090Y0071102D01*
X0035073Y0071024D01*
X0035051Y0070947D01*
X0035026Y0070872D01*
X0034996Y0070798D01*
X0034964Y0070725D01*
X0034927Y0070654D01*
X0034887Y0070585D01*
X0034844Y0070518D01*
X0034797Y0070453D01*
X0034748Y0070391D01*
X0034695Y0070331D01*
X0034639Y0070274D01*
X0034581Y0070219D01*
X0034520Y0070168D01*
X0034456Y0070120D01*
X0034390Y0070075D01*
X0034322Y0070033D01*
X0034252Y0069995D01*
X0034180Y0069961D01*
X0034107Y0069930D01*
X0034032Y0069902D01*
X0033955Y0069879D01*
X0033878Y0069859D01*
X0033800Y0069843D01*
X0033721Y0069831D01*
X0033642Y0069823D01*
X0033562Y0069819D01*
X0033482Y0069819D01*
X0033402Y0069823D01*
X0033323Y0069831D01*
X0033244Y0069843D01*
X0033166Y0069859D01*
X0033089Y0069879D01*
X0033012Y0069902D01*
X0032937Y0069930D01*
X0032864Y0069961D01*
X0032792Y0069995D01*
X0032722Y0070033D01*
X0032654Y0070075D01*
X0032588Y0070120D01*
X0032524Y0070168D01*
X0032463Y0070219D01*
X0032405Y0070274D01*
X0032349Y0070331D01*
X0032296Y0070391D01*
X0032247Y0070453D01*
X0032200Y0070518D01*
X0032157Y0070585D01*
X0032117Y0070654D01*
X0032080Y0070725D01*
X0032048Y0070798D01*
X0032018Y0070872D01*
X0031993Y0070947D01*
X0031971Y0071024D01*
X0031954Y0071102D01*
X0031940Y0071181D01*
X0031930Y0071260D01*
X0031924Y0071339D01*
X0031922Y0071419D01*
X0031922Y0072206D02*
X0031924Y0072286D01*
X0031930Y0072365D01*
X0031940Y0072444D01*
X0031954Y0072523D01*
X0031971Y0072601D01*
X0031993Y0072678D01*
X0032018Y0072753D01*
X0032048Y0072827D01*
X0032080Y0072900D01*
X0032117Y0072971D01*
X0032157Y0073040D01*
X0032200Y0073107D01*
X0032247Y0073172D01*
X0032296Y0073234D01*
X0032349Y0073294D01*
X0032405Y0073351D01*
X0032463Y0073406D01*
X0032524Y0073457D01*
X0032588Y0073505D01*
X0032654Y0073550D01*
X0032722Y0073592D01*
X0032792Y0073630D01*
X0032864Y0073664D01*
X0032937Y0073695D01*
X0033012Y0073723D01*
X0033089Y0073746D01*
X0033166Y0073766D01*
X0033244Y0073782D01*
X0033323Y0073794D01*
X0033402Y0073802D01*
X0033482Y0073806D01*
X0033562Y0073806D01*
X0033642Y0073802D01*
X0033721Y0073794D01*
X0033800Y0073782D01*
X0033878Y0073766D01*
X0033955Y0073746D01*
X0034032Y0073723D01*
X0034107Y0073695D01*
X0034180Y0073664D01*
X0034252Y0073630D01*
X0034322Y0073592D01*
X0034390Y0073550D01*
X0034456Y0073505D01*
X0034520Y0073457D01*
X0034581Y0073406D01*
X0034639Y0073351D01*
X0034695Y0073294D01*
X0034748Y0073234D01*
X0034797Y0073172D01*
X0034844Y0073107D01*
X0034887Y0073040D01*
X0034927Y0072971D01*
X0034964Y0072900D01*
X0034996Y0072827D01*
X0035026Y0072753D01*
X0035051Y0072678D01*
X0035073Y0072601D01*
X0035090Y0072523D01*
X0035104Y0072444D01*
X0035114Y0072365D01*
X0035120Y0072286D01*
X0035122Y0072206D01*
X0035120Y0072126D01*
X0035114Y0072047D01*
X0035104Y0071968D01*
X0035090Y0071889D01*
X0035073Y0071811D01*
X0035051Y0071734D01*
X0035026Y0071659D01*
X0034996Y0071585D01*
X0034964Y0071512D01*
X0034927Y0071441D01*
X0034887Y0071372D01*
X0034844Y0071305D01*
X0034797Y0071240D01*
X0034748Y0071178D01*
X0034695Y0071118D01*
X0034639Y0071061D01*
X0034581Y0071006D01*
X0034520Y0070955D01*
X0034456Y0070907D01*
X0034390Y0070862D01*
X0034322Y0070820D01*
X0034252Y0070782D01*
X0034180Y0070748D01*
X0034107Y0070717D01*
X0034032Y0070689D01*
X0033955Y0070666D01*
X0033878Y0070646D01*
X0033800Y0070630D01*
X0033721Y0070618D01*
X0033642Y0070610D01*
X0033562Y0070606D01*
X0033482Y0070606D01*
X0033402Y0070610D01*
X0033323Y0070618D01*
X0033244Y0070630D01*
X0033166Y0070646D01*
X0033089Y0070666D01*
X0033012Y0070689D01*
X0032937Y0070717D01*
X0032864Y0070748D01*
X0032792Y0070782D01*
X0032722Y0070820D01*
X0032654Y0070862D01*
X0032588Y0070907D01*
X0032524Y0070955D01*
X0032463Y0071006D01*
X0032405Y0071061D01*
X0032349Y0071118D01*
X0032296Y0071178D01*
X0032247Y0071240D01*
X0032200Y0071305D01*
X0032157Y0071372D01*
X0032117Y0071441D01*
X0032080Y0071512D01*
X0032048Y0071585D01*
X0032018Y0071659D01*
X0031993Y0071734D01*
X0031971Y0071811D01*
X0031954Y0071889D01*
X0031940Y0071968D01*
X0031930Y0072047D01*
X0031924Y0072126D01*
X0031922Y0072206D01*
X0031922Y0072994D02*
X0031924Y0073074D01*
X0031930Y0073153D01*
X0031940Y0073232D01*
X0031954Y0073311D01*
X0031971Y0073389D01*
X0031993Y0073466D01*
X0032018Y0073541D01*
X0032048Y0073615D01*
X0032080Y0073688D01*
X0032117Y0073759D01*
X0032157Y0073828D01*
X0032200Y0073895D01*
X0032247Y0073960D01*
X0032296Y0074022D01*
X0032349Y0074082D01*
X0032405Y0074139D01*
X0032463Y0074194D01*
X0032524Y0074245D01*
X0032588Y0074293D01*
X0032654Y0074338D01*
X0032722Y0074380D01*
X0032792Y0074418D01*
X0032864Y0074452D01*
X0032937Y0074483D01*
X0033012Y0074511D01*
X0033089Y0074534D01*
X0033166Y0074554D01*
X0033244Y0074570D01*
X0033323Y0074582D01*
X0033402Y0074590D01*
X0033482Y0074594D01*
X0033562Y0074594D01*
X0033642Y0074590D01*
X0033721Y0074582D01*
X0033800Y0074570D01*
X0033878Y0074554D01*
X0033955Y0074534D01*
X0034032Y0074511D01*
X0034107Y0074483D01*
X0034180Y0074452D01*
X0034252Y0074418D01*
X0034322Y0074380D01*
X0034390Y0074338D01*
X0034456Y0074293D01*
X0034520Y0074245D01*
X0034581Y0074194D01*
X0034639Y0074139D01*
X0034695Y0074082D01*
X0034748Y0074022D01*
X0034797Y0073960D01*
X0034844Y0073895D01*
X0034887Y0073828D01*
X0034927Y0073759D01*
X0034964Y0073688D01*
X0034996Y0073615D01*
X0035026Y0073541D01*
X0035051Y0073466D01*
X0035073Y0073389D01*
X0035090Y0073311D01*
X0035104Y0073232D01*
X0035114Y0073153D01*
X0035120Y0073074D01*
X0035122Y0072994D01*
X0035120Y0072914D01*
X0035114Y0072835D01*
X0035104Y0072756D01*
X0035090Y0072677D01*
X0035073Y0072599D01*
X0035051Y0072522D01*
X0035026Y0072447D01*
X0034996Y0072373D01*
X0034964Y0072300D01*
X0034927Y0072229D01*
X0034887Y0072160D01*
X0034844Y0072093D01*
X0034797Y0072028D01*
X0034748Y0071966D01*
X0034695Y0071906D01*
X0034639Y0071849D01*
X0034581Y0071794D01*
X0034520Y0071743D01*
X0034456Y0071695D01*
X0034390Y0071650D01*
X0034322Y0071608D01*
X0034252Y0071570D01*
X0034180Y0071536D01*
X0034107Y0071505D01*
X0034032Y0071477D01*
X0033955Y0071454D01*
X0033878Y0071434D01*
X0033800Y0071418D01*
X0033721Y0071406D01*
X0033642Y0071398D01*
X0033562Y0071394D01*
X0033482Y0071394D01*
X0033402Y0071398D01*
X0033323Y0071406D01*
X0033244Y0071418D01*
X0033166Y0071434D01*
X0033089Y0071454D01*
X0033012Y0071477D01*
X0032937Y0071505D01*
X0032864Y0071536D01*
X0032792Y0071570D01*
X0032722Y0071608D01*
X0032654Y0071650D01*
X0032588Y0071695D01*
X0032524Y0071743D01*
X0032463Y0071794D01*
X0032405Y0071849D01*
X0032349Y0071906D01*
X0032296Y0071966D01*
X0032247Y0072028D01*
X0032200Y0072093D01*
X0032157Y0072160D01*
X0032117Y0072229D01*
X0032080Y0072300D01*
X0032048Y0072373D01*
X0032018Y0072447D01*
X0031993Y0072522D01*
X0031971Y0072599D01*
X0031954Y0072677D01*
X0031940Y0072756D01*
X0031930Y0072835D01*
X0031924Y0072914D01*
X0031922Y0072994D01*
X0031922Y0073781D02*
X0031924Y0073861D01*
X0031930Y0073940D01*
X0031940Y0074019D01*
X0031954Y0074098D01*
X0031971Y0074176D01*
X0031993Y0074253D01*
X0032018Y0074328D01*
X0032048Y0074402D01*
X0032080Y0074475D01*
X0032117Y0074546D01*
X0032157Y0074615D01*
X0032200Y0074682D01*
X0032247Y0074747D01*
X0032296Y0074809D01*
X0032349Y0074869D01*
X0032405Y0074926D01*
X0032463Y0074981D01*
X0032524Y0075032D01*
X0032588Y0075080D01*
X0032654Y0075125D01*
X0032722Y0075167D01*
X0032792Y0075205D01*
X0032864Y0075239D01*
X0032937Y0075270D01*
X0033012Y0075298D01*
X0033089Y0075321D01*
X0033166Y0075341D01*
X0033244Y0075357D01*
X0033323Y0075369D01*
X0033402Y0075377D01*
X0033482Y0075381D01*
X0033562Y0075381D01*
X0033642Y0075377D01*
X0033721Y0075369D01*
X0033800Y0075357D01*
X0033878Y0075341D01*
X0033955Y0075321D01*
X0034032Y0075298D01*
X0034107Y0075270D01*
X0034180Y0075239D01*
X0034252Y0075205D01*
X0034322Y0075167D01*
X0034390Y0075125D01*
X0034456Y0075080D01*
X0034520Y0075032D01*
X0034581Y0074981D01*
X0034639Y0074926D01*
X0034695Y0074869D01*
X0034748Y0074809D01*
X0034797Y0074747D01*
X0034844Y0074682D01*
X0034887Y0074615D01*
X0034927Y0074546D01*
X0034964Y0074475D01*
X0034996Y0074402D01*
X0035026Y0074328D01*
X0035051Y0074253D01*
X0035073Y0074176D01*
X0035090Y0074098D01*
X0035104Y0074019D01*
X0035114Y0073940D01*
X0035120Y0073861D01*
X0035122Y0073781D01*
X0035120Y0073701D01*
X0035114Y0073622D01*
X0035104Y0073543D01*
X0035090Y0073464D01*
X0035073Y0073386D01*
X0035051Y0073309D01*
X0035026Y0073234D01*
X0034996Y0073160D01*
X0034964Y0073087D01*
X0034927Y0073016D01*
X0034887Y0072947D01*
X0034844Y0072880D01*
X0034797Y0072815D01*
X0034748Y0072753D01*
X0034695Y0072693D01*
X0034639Y0072636D01*
X0034581Y0072581D01*
X0034520Y0072530D01*
X0034456Y0072482D01*
X0034390Y0072437D01*
X0034322Y0072395D01*
X0034252Y0072357D01*
X0034180Y0072323D01*
X0034107Y0072292D01*
X0034032Y0072264D01*
X0033955Y0072241D01*
X0033878Y0072221D01*
X0033800Y0072205D01*
X0033721Y0072193D01*
X0033642Y0072185D01*
X0033562Y0072181D01*
X0033482Y0072181D01*
X0033402Y0072185D01*
X0033323Y0072193D01*
X0033244Y0072205D01*
X0033166Y0072221D01*
X0033089Y0072241D01*
X0033012Y0072264D01*
X0032937Y0072292D01*
X0032864Y0072323D01*
X0032792Y0072357D01*
X0032722Y0072395D01*
X0032654Y0072437D01*
X0032588Y0072482D01*
X0032524Y0072530D01*
X0032463Y0072581D01*
X0032405Y0072636D01*
X0032349Y0072693D01*
X0032296Y0072753D01*
X0032247Y0072815D01*
X0032200Y0072880D01*
X0032157Y0072947D01*
X0032117Y0073016D01*
X0032080Y0073087D01*
X0032048Y0073160D01*
X0032018Y0073234D01*
X0031993Y0073309D01*
X0031971Y0073386D01*
X0031954Y0073464D01*
X0031940Y0073543D01*
X0031930Y0073622D01*
X0031924Y0073701D01*
X0031922Y0073781D01*
X0031922Y0074569D02*
X0031924Y0074649D01*
X0031930Y0074728D01*
X0031940Y0074807D01*
X0031954Y0074886D01*
X0031971Y0074964D01*
X0031993Y0075041D01*
X0032018Y0075116D01*
X0032048Y0075190D01*
X0032080Y0075263D01*
X0032117Y0075334D01*
X0032157Y0075403D01*
X0032200Y0075470D01*
X0032247Y0075535D01*
X0032296Y0075597D01*
X0032349Y0075657D01*
X0032405Y0075714D01*
X0032463Y0075769D01*
X0032524Y0075820D01*
X0032588Y0075868D01*
X0032654Y0075913D01*
X0032722Y0075955D01*
X0032792Y0075993D01*
X0032864Y0076027D01*
X0032937Y0076058D01*
X0033012Y0076086D01*
X0033089Y0076109D01*
X0033166Y0076129D01*
X0033244Y0076145D01*
X0033323Y0076157D01*
X0033402Y0076165D01*
X0033482Y0076169D01*
X0033562Y0076169D01*
X0033642Y0076165D01*
X0033721Y0076157D01*
X0033800Y0076145D01*
X0033878Y0076129D01*
X0033955Y0076109D01*
X0034032Y0076086D01*
X0034107Y0076058D01*
X0034180Y0076027D01*
X0034252Y0075993D01*
X0034322Y0075955D01*
X0034390Y0075913D01*
X0034456Y0075868D01*
X0034520Y0075820D01*
X0034581Y0075769D01*
X0034639Y0075714D01*
X0034695Y0075657D01*
X0034748Y0075597D01*
X0034797Y0075535D01*
X0034844Y0075470D01*
X0034887Y0075403D01*
X0034927Y0075334D01*
X0034964Y0075263D01*
X0034996Y0075190D01*
X0035026Y0075116D01*
X0035051Y0075041D01*
X0035073Y0074964D01*
X0035090Y0074886D01*
X0035104Y0074807D01*
X0035114Y0074728D01*
X0035120Y0074649D01*
X0035122Y0074569D01*
X0035120Y0074489D01*
X0035114Y0074410D01*
X0035104Y0074331D01*
X0035090Y0074252D01*
X0035073Y0074174D01*
X0035051Y0074097D01*
X0035026Y0074022D01*
X0034996Y0073948D01*
X0034964Y0073875D01*
X0034927Y0073804D01*
X0034887Y0073735D01*
X0034844Y0073668D01*
X0034797Y0073603D01*
X0034748Y0073541D01*
X0034695Y0073481D01*
X0034639Y0073424D01*
X0034581Y0073369D01*
X0034520Y0073318D01*
X0034456Y0073270D01*
X0034390Y0073225D01*
X0034322Y0073183D01*
X0034252Y0073145D01*
X0034180Y0073111D01*
X0034107Y0073080D01*
X0034032Y0073052D01*
X0033955Y0073029D01*
X0033878Y0073009D01*
X0033800Y0072993D01*
X0033721Y0072981D01*
X0033642Y0072973D01*
X0033562Y0072969D01*
X0033482Y0072969D01*
X0033402Y0072973D01*
X0033323Y0072981D01*
X0033244Y0072993D01*
X0033166Y0073009D01*
X0033089Y0073029D01*
X0033012Y0073052D01*
X0032937Y0073080D01*
X0032864Y0073111D01*
X0032792Y0073145D01*
X0032722Y0073183D01*
X0032654Y0073225D01*
X0032588Y0073270D01*
X0032524Y0073318D01*
X0032463Y0073369D01*
X0032405Y0073424D01*
X0032349Y0073481D01*
X0032296Y0073541D01*
X0032247Y0073603D01*
X0032200Y0073668D01*
X0032157Y0073735D01*
X0032117Y0073804D01*
X0032080Y0073875D01*
X0032048Y0073948D01*
X0032018Y0074022D01*
X0031993Y0074097D01*
X0031971Y0074174D01*
X0031954Y0074252D01*
X0031940Y0074331D01*
X0031930Y0074410D01*
X0031924Y0074489D01*
X0031922Y0074569D01*
X0031922Y0075356D02*
X0031924Y0075436D01*
X0031930Y0075515D01*
X0031940Y0075594D01*
X0031954Y0075673D01*
X0031971Y0075751D01*
X0031993Y0075828D01*
X0032018Y0075903D01*
X0032048Y0075977D01*
X0032080Y0076050D01*
X0032117Y0076121D01*
X0032157Y0076190D01*
X0032200Y0076257D01*
X0032247Y0076322D01*
X0032296Y0076384D01*
X0032349Y0076444D01*
X0032405Y0076501D01*
X0032463Y0076556D01*
X0032524Y0076607D01*
X0032588Y0076655D01*
X0032654Y0076700D01*
X0032722Y0076742D01*
X0032792Y0076780D01*
X0032864Y0076814D01*
X0032937Y0076845D01*
X0033012Y0076873D01*
X0033089Y0076896D01*
X0033166Y0076916D01*
X0033244Y0076932D01*
X0033323Y0076944D01*
X0033402Y0076952D01*
X0033482Y0076956D01*
X0033562Y0076956D01*
X0033642Y0076952D01*
X0033721Y0076944D01*
X0033800Y0076932D01*
X0033878Y0076916D01*
X0033955Y0076896D01*
X0034032Y0076873D01*
X0034107Y0076845D01*
X0034180Y0076814D01*
X0034252Y0076780D01*
X0034322Y0076742D01*
X0034390Y0076700D01*
X0034456Y0076655D01*
X0034520Y0076607D01*
X0034581Y0076556D01*
X0034639Y0076501D01*
X0034695Y0076444D01*
X0034748Y0076384D01*
X0034797Y0076322D01*
X0034844Y0076257D01*
X0034887Y0076190D01*
X0034927Y0076121D01*
X0034964Y0076050D01*
X0034996Y0075977D01*
X0035026Y0075903D01*
X0035051Y0075828D01*
X0035073Y0075751D01*
X0035090Y0075673D01*
X0035104Y0075594D01*
X0035114Y0075515D01*
X0035120Y0075436D01*
X0035122Y0075356D01*
X0035120Y0075276D01*
X0035114Y0075197D01*
X0035104Y0075118D01*
X0035090Y0075039D01*
X0035073Y0074961D01*
X0035051Y0074884D01*
X0035026Y0074809D01*
X0034996Y0074735D01*
X0034964Y0074662D01*
X0034927Y0074591D01*
X0034887Y0074522D01*
X0034844Y0074455D01*
X0034797Y0074390D01*
X0034748Y0074328D01*
X0034695Y0074268D01*
X0034639Y0074211D01*
X0034581Y0074156D01*
X0034520Y0074105D01*
X0034456Y0074057D01*
X0034390Y0074012D01*
X0034322Y0073970D01*
X0034252Y0073932D01*
X0034180Y0073898D01*
X0034107Y0073867D01*
X0034032Y0073839D01*
X0033955Y0073816D01*
X0033878Y0073796D01*
X0033800Y0073780D01*
X0033721Y0073768D01*
X0033642Y0073760D01*
X0033562Y0073756D01*
X0033482Y0073756D01*
X0033402Y0073760D01*
X0033323Y0073768D01*
X0033244Y0073780D01*
X0033166Y0073796D01*
X0033089Y0073816D01*
X0033012Y0073839D01*
X0032937Y0073867D01*
X0032864Y0073898D01*
X0032792Y0073932D01*
X0032722Y0073970D01*
X0032654Y0074012D01*
X0032588Y0074057D01*
X0032524Y0074105D01*
X0032463Y0074156D01*
X0032405Y0074211D01*
X0032349Y0074268D01*
X0032296Y0074328D01*
X0032247Y0074390D01*
X0032200Y0074455D01*
X0032157Y0074522D01*
X0032117Y0074591D01*
X0032080Y0074662D01*
X0032048Y0074735D01*
X0032018Y0074809D01*
X0031993Y0074884D01*
X0031971Y0074961D01*
X0031954Y0075039D01*
X0031940Y0075118D01*
X0031930Y0075197D01*
X0031924Y0075276D01*
X0031922Y0075356D01*
X0031922Y0076143D02*
X0031924Y0076223D01*
X0031930Y0076302D01*
X0031940Y0076381D01*
X0031954Y0076460D01*
X0031971Y0076538D01*
X0031993Y0076615D01*
X0032018Y0076690D01*
X0032048Y0076764D01*
X0032080Y0076837D01*
X0032117Y0076908D01*
X0032157Y0076977D01*
X0032200Y0077044D01*
X0032247Y0077109D01*
X0032296Y0077171D01*
X0032349Y0077231D01*
X0032405Y0077288D01*
X0032463Y0077343D01*
X0032524Y0077394D01*
X0032588Y0077442D01*
X0032654Y0077487D01*
X0032722Y0077529D01*
X0032792Y0077567D01*
X0032864Y0077601D01*
X0032937Y0077632D01*
X0033012Y0077660D01*
X0033089Y0077683D01*
X0033166Y0077703D01*
X0033244Y0077719D01*
X0033323Y0077731D01*
X0033402Y0077739D01*
X0033482Y0077743D01*
X0033562Y0077743D01*
X0033642Y0077739D01*
X0033721Y0077731D01*
X0033800Y0077719D01*
X0033878Y0077703D01*
X0033955Y0077683D01*
X0034032Y0077660D01*
X0034107Y0077632D01*
X0034180Y0077601D01*
X0034252Y0077567D01*
X0034322Y0077529D01*
X0034390Y0077487D01*
X0034456Y0077442D01*
X0034520Y0077394D01*
X0034581Y0077343D01*
X0034639Y0077288D01*
X0034695Y0077231D01*
X0034748Y0077171D01*
X0034797Y0077109D01*
X0034844Y0077044D01*
X0034887Y0076977D01*
X0034927Y0076908D01*
X0034964Y0076837D01*
X0034996Y0076764D01*
X0035026Y0076690D01*
X0035051Y0076615D01*
X0035073Y0076538D01*
X0035090Y0076460D01*
X0035104Y0076381D01*
X0035114Y0076302D01*
X0035120Y0076223D01*
X0035122Y0076143D01*
X0035120Y0076063D01*
X0035114Y0075984D01*
X0035104Y0075905D01*
X0035090Y0075826D01*
X0035073Y0075748D01*
X0035051Y0075671D01*
X0035026Y0075596D01*
X0034996Y0075522D01*
X0034964Y0075449D01*
X0034927Y0075378D01*
X0034887Y0075309D01*
X0034844Y0075242D01*
X0034797Y0075177D01*
X0034748Y0075115D01*
X0034695Y0075055D01*
X0034639Y0074998D01*
X0034581Y0074943D01*
X0034520Y0074892D01*
X0034456Y0074844D01*
X0034390Y0074799D01*
X0034322Y0074757D01*
X0034252Y0074719D01*
X0034180Y0074685D01*
X0034107Y0074654D01*
X0034032Y0074626D01*
X0033955Y0074603D01*
X0033878Y0074583D01*
X0033800Y0074567D01*
X0033721Y0074555D01*
X0033642Y0074547D01*
X0033562Y0074543D01*
X0033482Y0074543D01*
X0033402Y0074547D01*
X0033323Y0074555D01*
X0033244Y0074567D01*
X0033166Y0074583D01*
X0033089Y0074603D01*
X0033012Y0074626D01*
X0032937Y0074654D01*
X0032864Y0074685D01*
X0032792Y0074719D01*
X0032722Y0074757D01*
X0032654Y0074799D01*
X0032588Y0074844D01*
X0032524Y0074892D01*
X0032463Y0074943D01*
X0032405Y0074998D01*
X0032349Y0075055D01*
X0032296Y0075115D01*
X0032247Y0075177D01*
X0032200Y0075242D01*
X0032157Y0075309D01*
X0032117Y0075378D01*
X0032080Y0075449D01*
X0032048Y0075522D01*
X0032018Y0075596D01*
X0031993Y0075671D01*
X0031971Y0075748D01*
X0031954Y0075826D01*
X0031940Y0075905D01*
X0031930Y0075984D01*
X0031924Y0076063D01*
X0031922Y0076143D01*
D17*
X0062647Y0137620D02*
X0065116Y0137620D01*
X0066331Y0137620D02*
X0068799Y0137620D01*
X0067565Y0137620D02*
X0067565Y0141323D01*
X0068799Y0140089D01*
X0070014Y0140706D02*
X0070631Y0141323D01*
X0071865Y0141323D01*
X0072483Y0140706D01*
X0072483Y0138237D01*
X0071865Y0137620D01*
X0070631Y0137620D01*
X0070014Y0138237D01*
X0065116Y0140089D02*
X0063882Y0141323D01*
X0063882Y0137620D01*
X0085333Y0153832D02*
X0125133Y0153832D01*
D18*
X0232033Y0164132D02*
X0232033Y0205232D01*
X0314033Y0186632D02*
X0314033Y0146632D01*
D19*
X0062333Y0165282D03*
D20*
X0312097Y0133490D03*
X0312097Y0133332D03*
X0312097Y0133175D03*
X0312097Y0133017D03*
X0312097Y0132860D03*
X0312097Y0132702D03*
X0312097Y0132545D03*
X0312097Y0132387D03*
X0312097Y0132230D03*
X0312097Y0132073D03*
X0312097Y0108765D03*
X0312097Y0108608D03*
X0312097Y0108450D03*
X0312097Y0108293D03*
X0312097Y0108136D03*
X0312097Y0107978D03*
X0312097Y0107821D03*
X0312097Y0107663D03*
X0312097Y0107506D03*
D21*
X0320601Y0108923D03*
X0303593Y0119947D03*
X0303593Y0120104D03*
X0303593Y0120262D03*
X0303593Y0120419D03*
X0303593Y0120576D03*
X0303593Y0120734D03*
D22*
X0309262Y0108923D03*
D23*
X0320916Y0109080D03*
X0320916Y0128923D03*
X0320916Y0131915D03*
D24*
X0308869Y0109080D03*
D25*
X0321152Y0109238D03*
X0321152Y0129080D03*
X0321152Y0131758D03*
D26*
X0308633Y0109238D03*
D27*
X0321231Y0109395D03*
X0321231Y0111600D03*
X0321231Y0129238D03*
X0321231Y0131600D03*
X0302963Y0131758D03*
X0302963Y0129080D03*
D28*
X0308396Y0109395D03*
D29*
X0321310Y0109553D03*
X0321310Y0111443D03*
X0321310Y0129395D03*
X0321310Y0131443D03*
X0302885Y0131600D03*
X0302885Y0129238D03*
D30*
X0308239Y0109553D03*
D31*
X0321388Y0109710D03*
X0321388Y0109868D03*
X0321388Y0111128D03*
X0321388Y0111285D03*
X0321388Y0129553D03*
X0321388Y0129710D03*
X0321388Y0129868D03*
X0321388Y0130970D03*
X0321388Y0131128D03*
X0321388Y0131285D03*
X0302806Y0131443D03*
X0302806Y0129395D03*
D32*
X0308081Y0109710D03*
D33*
X0308003Y0109868D03*
D34*
X0321467Y0110025D03*
X0321467Y0110183D03*
X0321467Y0110340D03*
X0321467Y0110498D03*
X0321467Y0110655D03*
X0321467Y0110813D03*
X0321467Y0110970D03*
X0302727Y0129553D03*
X0302727Y0129710D03*
X0302727Y0129868D03*
X0302727Y0130970D03*
X0302727Y0131128D03*
X0302727Y0131285D03*
X0321467Y0130813D03*
X0321467Y0130655D03*
X0321467Y0130498D03*
X0321467Y0130340D03*
X0321467Y0130183D03*
X0321467Y0130025D03*
D35*
X0307845Y0110025D03*
D36*
X0307766Y0110183D03*
D37*
X0307688Y0110340D03*
D38*
X0307609Y0110498D03*
D39*
X0307530Y0110655D03*
D40*
X0307451Y0110813D03*
D41*
X0307373Y0110970D03*
D42*
X0307294Y0111128D03*
D43*
X0307215Y0111285D03*
D44*
X0307136Y0111443D03*
X0307136Y0111600D03*
D45*
X0321073Y0111758D03*
D46*
X0307058Y0111758D03*
D47*
X0320837Y0111915D03*
D48*
X0306979Y0111915D03*
X0306979Y0112073D03*
D49*
X0319892Y0112073D03*
D50*
X0319577Y0112230D03*
D51*
X0306900Y0112230D03*
X0306900Y0112387D03*
D52*
X0319420Y0112387D03*
D53*
X0319341Y0112545D03*
D54*
X0306822Y0112545D03*
X0306822Y0112702D03*
D55*
X0319184Y0112702D03*
D56*
X0319105Y0112860D03*
X0319105Y0113017D03*
D57*
X0306743Y0113017D03*
X0306743Y0112860D03*
D58*
X0319026Y0113175D03*
D59*
X0306664Y0113175D03*
X0306664Y0113332D03*
X0306664Y0113490D03*
D60*
X0318948Y0113332D03*
D61*
X0318869Y0113490D03*
X0318869Y0113647D03*
D62*
X0306585Y0113647D03*
X0306585Y0113805D03*
X0306585Y0113962D03*
X0306585Y0114120D03*
D63*
X0318790Y0113962D03*
X0318790Y0113805D03*
D64*
X0318711Y0114120D03*
X0318711Y0114277D03*
X0318711Y0114435D03*
D65*
X0306507Y0114435D03*
X0306507Y0114592D03*
X0306507Y0114750D03*
X0306507Y0114277D03*
D66*
X0318633Y0114592D03*
X0318633Y0114750D03*
X0318633Y0114907D03*
X0318633Y0115065D03*
D67*
X0306428Y0115065D03*
X0306428Y0115222D03*
X0306428Y0115380D03*
X0306428Y0115537D03*
X0306428Y0115695D03*
X0306428Y0115852D03*
X0306428Y0116010D03*
X0306428Y0116167D03*
X0306428Y0116324D03*
X0306428Y0114907D03*
D68*
X0318554Y0115222D03*
X0318554Y0115380D03*
X0318554Y0115537D03*
X0318554Y0115695D03*
X0318554Y0115852D03*
X0318554Y0116010D03*
D69*
X0318475Y0116167D03*
X0318475Y0116324D03*
X0318475Y0116482D03*
X0318475Y0116639D03*
X0318475Y0116797D03*
X0318475Y0116954D03*
X0318475Y0117112D03*
X0318475Y0117269D03*
X0318475Y0117427D03*
X0318475Y0117584D03*
X0318475Y0117742D03*
X0318475Y0117899D03*
X0318475Y0118057D03*
X0318475Y0118214D03*
X0318475Y0118372D03*
X0318475Y0118529D03*
X0318475Y0118687D03*
X0318475Y0118844D03*
X0318475Y0119002D03*
X0318475Y0119159D03*
X0318475Y0119317D03*
X0318475Y0119474D03*
X0318475Y0119632D03*
X0318475Y0119789D03*
X0318475Y0119947D03*
X0318475Y0120104D03*
X0318475Y0120262D03*
X0318475Y0120419D03*
X0318475Y0120576D03*
X0318475Y0120734D03*
X0318475Y0120891D03*
X0318475Y0121049D03*
X0318475Y0121206D03*
X0318475Y0121364D03*
X0318475Y0121521D03*
X0318475Y0121679D03*
X0318475Y0121836D03*
X0318475Y0121994D03*
X0318475Y0122151D03*
X0318475Y0122309D03*
X0318475Y0122466D03*
X0318475Y0122624D03*
X0318475Y0122781D03*
X0318475Y0122939D03*
X0318475Y0123096D03*
X0318475Y0123254D03*
X0318475Y0123411D03*
X0318475Y0123569D03*
X0318475Y0123726D03*
X0318475Y0123884D03*
X0318475Y0124041D03*
X0318475Y0124199D03*
X0318475Y0124356D03*
X0318475Y0124513D03*
X0318475Y0124671D03*
X0318475Y0124828D03*
X0318475Y0124986D03*
X0318475Y0125143D03*
X0318475Y0125301D03*
X0318475Y0125458D03*
X0318475Y0125616D03*
X0318475Y0125773D03*
X0318475Y0125931D03*
X0318475Y0126088D03*
X0318475Y0126246D03*
X0318475Y0126403D03*
X0318475Y0126561D03*
X0318475Y0126718D03*
X0318475Y0126876D03*
X0318475Y0127033D03*
X0318475Y0127191D03*
X0318475Y0127348D03*
X0318475Y0127506D03*
X0318475Y0127663D03*
X0318475Y0127821D03*
X0318475Y0127978D03*
X0318475Y0128136D03*
X0318475Y0128293D03*
X0318475Y0128450D03*
X0318475Y0128608D03*
X0318475Y0128765D03*
D70*
X0306349Y0128765D03*
X0306349Y0128608D03*
X0306349Y0128450D03*
X0306349Y0128293D03*
X0306349Y0128136D03*
X0306349Y0127978D03*
X0306349Y0127821D03*
X0306349Y0127663D03*
X0306349Y0127506D03*
X0306349Y0127348D03*
X0306349Y0127191D03*
X0306349Y0127033D03*
X0306349Y0126876D03*
X0306349Y0126718D03*
X0306349Y0126561D03*
X0306349Y0126403D03*
X0306349Y0126246D03*
X0306349Y0126088D03*
X0306349Y0125931D03*
X0306349Y0125773D03*
X0306349Y0125616D03*
X0306349Y0125458D03*
X0306349Y0125301D03*
X0306349Y0125143D03*
X0306349Y0124986D03*
X0306349Y0124828D03*
X0306349Y0124671D03*
X0306349Y0124513D03*
X0306349Y0124356D03*
X0306349Y0124199D03*
X0306349Y0124041D03*
X0306349Y0123884D03*
X0306349Y0123726D03*
X0306349Y0123569D03*
X0306349Y0123411D03*
X0306349Y0123254D03*
X0306349Y0123096D03*
X0306349Y0122939D03*
X0306349Y0122781D03*
X0306349Y0122624D03*
X0306349Y0122466D03*
X0306349Y0122309D03*
X0306349Y0122151D03*
X0306349Y0121994D03*
X0306349Y0118687D03*
X0306349Y0118529D03*
X0306349Y0118372D03*
X0306349Y0118214D03*
X0306349Y0118057D03*
X0306349Y0117899D03*
X0306349Y0117742D03*
X0306349Y0117584D03*
X0306349Y0117427D03*
X0306349Y0117269D03*
X0306349Y0117112D03*
X0306349Y0116954D03*
X0306349Y0116797D03*
X0306349Y0116639D03*
X0306349Y0116482D03*
D71*
X0304144Y0118844D03*
X0304144Y0121836D03*
D72*
X0303908Y0121679D03*
X0303908Y0119002D03*
D73*
X0303829Y0119159D03*
X0303829Y0121521D03*
D74*
X0303751Y0121364D03*
X0303751Y0119317D03*
D75*
X0303672Y0119474D03*
X0303672Y0119632D03*
X0303672Y0119789D03*
X0303672Y0120891D03*
X0303672Y0121049D03*
X0303672Y0121206D03*
D76*
X0303199Y0128923D03*
X0303199Y0131915D03*
D77*
X0302648Y0130813D03*
X0302648Y0130655D03*
X0302648Y0130498D03*
X0302648Y0130340D03*
X0302648Y0130183D03*
X0302648Y0130025D03*
M02*
