G75*
%MOIN*%
%OFA0B0*%
%FSLAX25Y25*%
%IPPOS*%
%LPD*%
%AMOC8*
5,1,8,0,0,1.08239X$1,22.5*
%
%ADD10R,0.09843X0.13780*%
%ADD11R,0.05906X0.05118*%
%ADD12R,0.09449X0.09449*%
%ADD13R,0.04331X0.03937*%
%ADD14R,0.03937X0.04331*%
%ADD15R,0.07087X0.09449*%
%ADD16C,0.10000*%
%ADD17R,0.24409X0.21260*%
%ADD18R,0.06299X0.03937*%
%ADD19R,0.01969X0.05906*%
%ADD20R,0.05906X0.01969*%
%ADD21OC8,0.07000*%
%ADD22C,0.07000*%
%ADD23OC8,0.06299*%
%ADD24C,0.06299*%
%ADD25C,0.16598*%
%ADD26C,0.06299*%
%ADD27R,0.05906X0.05906*%
%ADD28R,0.02362X0.07874*%
%ADD29R,0.02000X0.03200*%
%ADD30R,0.03600X0.04800*%
%ADD31OC8,0.10000*%
%ADD32C,0.06000*%
%ADD33R,0.09449X0.04724*%
%ADD34R,0.04724X0.09449*%
%ADD35C,0.04400*%
%ADD36C,0.01600*%
%ADD37C,0.04000*%
%ADD38C,0.03100*%
%ADD39C,0.01000*%
%ADD40C,0.01200*%
%ADD41C,0.02400*%
D10*
X0085333Y0060836D03*
X0085333Y0086427D03*
D11*
X0070333Y0124891D03*
X0070333Y0132372D03*
X0085333Y0183891D03*
X0085333Y0191372D03*
D12*
X0070333Y0197474D03*
X0070333Y0177789D03*
X0070333Y0162474D03*
X0070333Y0142789D03*
D13*
X0153987Y0127632D03*
X0160680Y0127632D03*
X0189333Y0134285D03*
X0196333Y0134285D03*
X0196333Y0140978D03*
X0189333Y0140978D03*
D14*
X0197333Y0158285D03*
X0197333Y0164978D03*
X0160680Y0120632D03*
X0153987Y0120632D03*
X0046680Y0191632D03*
X0039987Y0191632D03*
X0039987Y0206632D03*
X0046680Y0206632D03*
X0046680Y0212632D03*
X0039987Y0212632D03*
X0039987Y0218632D03*
X0046680Y0218632D03*
D15*
X0068361Y0107632D03*
X0084306Y0107632D03*
D16*
X0057144Y0075632D02*
X0057144Y0065632D01*
X0050333Y0051734D02*
X0040333Y0051734D01*
X0033522Y0065632D02*
X0033522Y0075632D01*
D17*
X0025491Y0133632D03*
X0025491Y0168632D03*
D18*
X0054231Y0177608D03*
X0054231Y0159655D03*
X0054231Y0142608D03*
X0054231Y0124655D03*
D19*
X0146310Y0136899D03*
X0149459Y0136899D03*
X0152609Y0136899D03*
X0155759Y0136899D03*
X0158908Y0136899D03*
X0162058Y0136899D03*
X0165207Y0136899D03*
X0168357Y0136899D03*
X0168357Y0170364D03*
X0165207Y0170364D03*
X0162058Y0170364D03*
X0158908Y0170364D03*
X0155759Y0170364D03*
X0152609Y0170364D03*
X0149459Y0170364D03*
X0146310Y0170364D03*
D20*
X0140601Y0164655D03*
X0140601Y0161506D03*
X0140601Y0158356D03*
X0140601Y0155206D03*
X0140601Y0152057D03*
X0140601Y0148907D03*
X0140601Y0145758D03*
X0140601Y0142608D03*
X0174066Y0142608D03*
X0174066Y0145758D03*
X0174066Y0148907D03*
X0174066Y0152057D03*
X0174066Y0155206D03*
X0174066Y0158356D03*
X0174066Y0161506D03*
X0174066Y0164655D03*
D21*
X0014333Y0101632D03*
D22*
X0024333Y0101632D03*
X0034333Y0101632D03*
X0034333Y0111632D03*
X0024333Y0111632D03*
X0014333Y0111632D03*
D23*
X0110333Y0078632D03*
D24*
X0110333Y0068632D03*
X0110333Y0058632D03*
D25*
X0051514Y0106427D03*
X0051514Y0230836D03*
X0349152Y0230836D03*
X0349152Y0106427D03*
D26*
X0224349Y0229655D02*
X0224349Y0235954D01*
X0214349Y0235954D02*
X0214349Y0229655D01*
X0204349Y0229655D02*
X0204349Y0235954D01*
X0194349Y0235954D02*
X0194349Y0229655D01*
X0184349Y0229655D02*
X0184349Y0235954D01*
X0174349Y0235954D02*
X0174349Y0229655D01*
X0164349Y0229655D02*
X0164349Y0235954D01*
X0154349Y0235954D02*
X0154349Y0229655D01*
X0144349Y0229655D02*
X0144349Y0235954D01*
X0134349Y0235954D02*
X0134349Y0229655D01*
X0124349Y0229655D02*
X0124349Y0235954D01*
X0114349Y0235954D02*
X0114349Y0229655D01*
X0104349Y0229655D02*
X0104349Y0235954D01*
X0094349Y0235954D02*
X0094349Y0229655D01*
X0084349Y0229655D02*
X0084349Y0235954D01*
X0074349Y0235954D02*
X0074349Y0229655D01*
D27*
X0031223Y0236632D03*
X0017444Y0236632D03*
X0017444Y0221632D03*
X0031223Y0221632D03*
X0031223Y0206632D03*
X0017444Y0206632D03*
X0017444Y0191632D03*
X0031223Y0191632D03*
D28*
X0143109Y0182632D03*
X0147833Y0182632D03*
X0152558Y0182632D03*
D29*
X0245609Y0096932D03*
X0248759Y0096932D03*
X0251908Y0096932D03*
X0255058Y0096932D03*
X0255058Y0090332D03*
X0251908Y0090332D03*
X0248759Y0090332D03*
X0245609Y0090332D03*
D30*
X0054333Y0189182D03*
X0054333Y0202082D03*
D31*
X0385333Y0093632D03*
X0385333Y0063632D03*
D32*
X0368727Y0128710D02*
X0362727Y0128710D01*
X0362727Y0138553D02*
X0368727Y0138553D01*
X0368727Y0168710D02*
X0362727Y0168710D01*
X0362727Y0178553D02*
X0368727Y0178553D01*
X0368727Y0217710D02*
X0362727Y0217710D01*
X0362727Y0227553D02*
X0368727Y0227553D01*
D33*
X0341509Y0077632D03*
X0341509Y0059632D03*
X0309158Y0059632D03*
X0291509Y0059632D03*
X0291509Y0077632D03*
X0309158Y0077632D03*
X0259158Y0077632D03*
X0241509Y0077632D03*
X0241509Y0059632D03*
X0259158Y0059632D03*
X0209158Y0059632D03*
X0191509Y0059632D03*
X0191509Y0077632D03*
X0209158Y0077632D03*
X0159158Y0077632D03*
X0159158Y0059632D03*
D34*
X0135845Y0056521D03*
X0124822Y0056521D03*
X0124822Y0080743D03*
X0135845Y0080743D03*
D35*
X0253333Y0219632D03*
X0253333Y0229632D03*
X0253333Y0239632D03*
X0280333Y0239632D03*
X0280333Y0229632D03*
X0280333Y0219632D03*
D36*
X0253333Y0219632D01*
X0158908Y0190206D02*
X0158908Y0170364D01*
X0147833Y0182632D02*
X0147833Y0191132D01*
X0141491Y0197474D01*
X0070333Y0197474D01*
X0068333Y0195474D01*
X0050522Y0195474D01*
X0046680Y0191632D01*
X0046680Y0169285D01*
X0047333Y0168632D01*
X0064176Y0168632D01*
X0070333Y0162474D01*
X0070491Y0162632D02*
X0078333Y0162632D01*
X0081333Y0159632D01*
X0081333Y0136632D01*
X0090333Y0136632D01*
X0081333Y0136632D02*
X0081333Y0135632D01*
X0078073Y0132372D01*
X0070333Y0132372D01*
X0100333Y0123632D02*
X0141333Y0123632D01*
X0144333Y0120632D01*
X0153987Y0120632D01*
X0189333Y0134285D02*
X0196333Y0134285D01*
X0222333Y0096932D02*
X0245609Y0096932D01*
X0241509Y0059632D02*
X0259158Y0059632D01*
X0291509Y0059632D02*
X0309158Y0059632D01*
X0209158Y0059632D02*
X0191509Y0059632D01*
X0159158Y0059632D02*
X0159158Y0063632D01*
X0124333Y0063632D01*
X0124333Y0056632D01*
X0124822Y0056632D01*
X0124822Y0056521D01*
X0124333Y0056632D02*
X0118333Y0056632D01*
X0118333Y0051632D01*
X0085333Y0051632D01*
X0085333Y0060836D01*
X0085333Y0051734D01*
X0045333Y0051734D01*
X0041333Y0070632D02*
X0033522Y0070632D01*
X0041333Y0070632D02*
X0041333Y0111632D01*
X0034333Y0111632D01*
X0025491Y0120474D01*
X0025491Y0133632D01*
X0025491Y0168632D01*
X0025491Y0184632D01*
X0029333Y0184632D01*
X0031223Y0191632D02*
X0039987Y0191632D01*
X0039987Y0206632D02*
X0031223Y0206632D01*
X0037333Y0212632D02*
X0039987Y0212632D01*
X0037333Y0212632D02*
X0031223Y0218742D01*
X0031223Y0221632D01*
X0039987Y0218632D02*
X0039987Y0227868D01*
X0031223Y0236632D01*
X0017444Y0236632D02*
X0011333Y0236632D01*
X0011333Y0168632D01*
X0025491Y0168632D01*
X0047333Y0168632D01*
X0064333Y0225632D02*
X0064333Y0227632D01*
X0066357Y0229655D01*
X0074349Y0229655D01*
X0158759Y0190206D02*
X0158908Y0190206D01*
D37*
X0085333Y0191372D02*
X0079231Y0197474D01*
X0070333Y0197474D01*
X0054333Y0189182D02*
X0054333Y0177710D01*
X0054231Y0177608D01*
X0070152Y0177608D01*
X0070333Y0177789D01*
X0071491Y0177789D01*
X0072333Y0178632D01*
X0080073Y0178632D01*
X0085333Y0183891D01*
X0070491Y0162632D02*
X0070333Y0162474D01*
X0054231Y0159655D02*
X0054231Y0142608D01*
X0044333Y0132710D01*
X0044333Y0121632D01*
X0048333Y0117632D01*
X0072333Y0117632D01*
X0076333Y0113632D01*
X0076333Y0076632D01*
X0080333Y0072632D01*
X0096333Y0072632D01*
X0110333Y0058632D01*
X0110333Y0078632D02*
X0102538Y0086427D01*
X0087333Y0086427D01*
X0084306Y0089454D01*
X0084306Y0107632D01*
X0084333Y0108659D01*
X0084333Y0114632D01*
X0074073Y0124891D01*
X0070333Y0124891D01*
X0070097Y0124655D01*
X0054231Y0124655D01*
X0068361Y0107632D02*
X0068361Y0081848D01*
X0057144Y0070632D01*
X0085333Y0086427D02*
X0087333Y0086427D01*
X0070152Y0142608D02*
X0054231Y0142608D01*
X0070152Y0142608D02*
X0070333Y0142789D01*
D38*
X0090333Y0136632D03*
X0100333Y0123632D03*
X0124333Y0142632D03*
X0128333Y0136632D03*
X0132333Y0145632D03*
X0101333Y0163632D03*
X0129333Y0175632D03*
X0132333Y0172632D03*
X0136333Y0175632D03*
X0158908Y0190206D03*
X0178333Y0202132D03*
X0185333Y0209632D03*
X0214333Y0202132D03*
X0185333Y0180632D03*
X0195601Y0170364D03*
X0185333Y0166632D03*
X0189333Y0162632D03*
X0185333Y0158632D03*
X0197333Y0152632D03*
X0237333Y0172132D03*
X0237333Y0177132D03*
X0273333Y0177132D03*
X0291333Y0185632D03*
X0252333Y0208132D03*
X0304333Y0224632D03*
X0326333Y0224632D03*
X0348333Y0206632D03*
X0385333Y0222632D03*
X0348333Y0185632D03*
X0261333Y0143632D03*
X0216333Y0120632D03*
X0189333Y0120632D03*
X0189333Y0104632D03*
X0174333Y0104632D03*
X0144333Y0120632D03*
X0135333Y0090632D03*
X0222333Y0096932D03*
X0279333Y0104632D03*
X0329333Y0105632D03*
X0348333Y0124632D03*
X0369333Y0058632D03*
X0123333Y0192632D03*
X0096333Y0215632D03*
X0066333Y0214632D03*
X0060333Y0212632D03*
X0060333Y0206632D03*
X0036333Y0199632D03*
X0029333Y0184632D03*
X0064333Y0225632D03*
X0031333Y0228632D03*
D39*
X0007333Y0248592D02*
X0007333Y0045632D01*
X0038080Y0045632D01*
X0037452Y0045892D01*
X0036714Y0046318D01*
X0036038Y0046836D01*
X0035436Y0047439D01*
X0034917Y0048115D01*
X0034491Y0048853D01*
X0034165Y0049640D01*
X0033945Y0050463D01*
X0033833Y0051308D01*
X0033833Y0051434D01*
X0036722Y0051434D01*
X0036722Y0052034D01*
X0033833Y0052034D01*
X0033833Y0052160D01*
X0033945Y0053005D01*
X0034165Y0053828D01*
X0034491Y0054615D01*
X0034917Y0055353D01*
X0035436Y0056029D01*
X0036038Y0056631D01*
X0036714Y0057150D01*
X0037452Y0057576D01*
X0038239Y0057902D01*
X0039063Y0058123D01*
X0039907Y0058234D01*
X0045033Y0058234D01*
X0045033Y0054834D01*
X0045163Y0054834D01*
X0045333Y0054763D01*
X0045504Y0054834D01*
X0045633Y0054834D01*
X0045633Y0058234D01*
X0050759Y0058234D01*
X0051604Y0058123D01*
X0052427Y0057902D01*
X0053214Y0057576D01*
X0053952Y0057150D01*
X0054628Y0056631D01*
X0055231Y0056029D01*
X0055749Y0055353D01*
X0056176Y0054615D01*
X0056502Y0053828D01*
X0056722Y0053005D01*
X0056833Y0052160D01*
X0056833Y0052034D01*
X0053945Y0052034D01*
X0053945Y0051434D01*
X0056833Y0051434D01*
X0056833Y0051308D01*
X0056722Y0050463D01*
X0056502Y0049640D01*
X0056176Y0048853D01*
X0055749Y0048115D01*
X0055231Y0047439D01*
X0054628Y0046836D01*
X0053952Y0046318D01*
X0053214Y0045892D01*
X0052586Y0045632D01*
X0397034Y0045632D01*
X0397034Y0248592D01*
X0007333Y0248592D01*
X0007333Y0248326D02*
X0397034Y0248326D01*
X0397034Y0247328D02*
X0007333Y0247328D01*
X0007333Y0246329D02*
X0397034Y0246329D01*
X0397034Y0245331D02*
X0007333Y0245331D01*
X0007333Y0244332D02*
X0025489Y0244332D01*
X0025208Y0244052D02*
X0022208Y0241052D01*
X0021826Y0240130D01*
X0021826Y0240043D01*
X0021794Y0240163D01*
X0021597Y0240505D01*
X0021317Y0240785D01*
X0020975Y0240982D01*
X0020594Y0241084D01*
X0017944Y0241084D01*
X0017944Y0237132D01*
X0016944Y0237132D01*
X0016944Y0241084D01*
X0014293Y0241084D01*
X0013912Y0240982D01*
X0013570Y0240785D01*
X0013291Y0240505D01*
X0013093Y0240163D01*
X0012991Y0239782D01*
X0012991Y0237132D01*
X0016944Y0237132D01*
X0016944Y0236132D01*
X0017944Y0236132D01*
X0017944Y0232179D01*
X0020594Y0232179D01*
X0020975Y0232281D01*
X0021317Y0232479D01*
X0021597Y0232758D01*
X0021794Y0233100D01*
X0021826Y0233220D01*
X0021826Y0229560D01*
X0018158Y0225891D01*
X0013949Y0225891D01*
X0013184Y0225126D01*
X0013184Y0218137D01*
X0013949Y0217372D01*
X0014936Y0217372D01*
X0014936Y0210891D01*
X0013949Y0210891D01*
X0013184Y0210126D01*
X0013184Y0203137D01*
X0013949Y0202372D01*
X0014936Y0202372D01*
X0014936Y0195891D01*
X0013949Y0195891D01*
X0013184Y0195126D01*
X0013184Y0188137D01*
X0013949Y0187372D01*
X0020938Y0187372D01*
X0021703Y0188137D01*
X0021703Y0195126D01*
X0020938Y0195891D01*
X0019951Y0195891D01*
X0019951Y0197124D01*
X0034920Y0197124D01*
X0035765Y0196774D01*
X0036902Y0196774D01*
X0037952Y0197209D01*
X0038755Y0198013D01*
X0039105Y0198858D01*
X0039822Y0199574D01*
X0051226Y0199574D01*
X0051226Y0199140D01*
X0051992Y0198374D01*
X0056675Y0198374D01*
X0057440Y0199140D01*
X0057440Y0199624D01*
X0062332Y0199624D01*
X0063253Y0200006D01*
X0063959Y0200711D01*
X0064109Y0200862D01*
X0064109Y0197974D01*
X0069833Y0197974D01*
X0069833Y0196974D01*
X0064109Y0196974D01*
X0064109Y0192552D01*
X0064211Y0192171D01*
X0064409Y0191829D01*
X0064688Y0191549D01*
X0065030Y0191352D01*
X0065411Y0191250D01*
X0069833Y0191250D01*
X0069833Y0196974D01*
X0070833Y0196974D01*
X0070833Y0191250D01*
X0075255Y0191250D01*
X0075637Y0191352D01*
X0075979Y0191549D01*
X0076258Y0191829D01*
X0076455Y0192171D01*
X0076558Y0192552D01*
X0076558Y0196974D01*
X0070833Y0196974D01*
X0070833Y0197974D01*
X0076558Y0197974D01*
X0076558Y0202124D01*
X0143295Y0202124D01*
X0156242Y0189178D01*
X0156486Y0188588D01*
X0156801Y0188273D01*
X0156801Y0174817D01*
X0155759Y0174817D01*
X0155759Y0170364D01*
X0155758Y0170364D01*
X0155758Y0174817D01*
X0154577Y0174817D01*
X0154195Y0174714D01*
X0154038Y0174624D01*
X0151140Y0174624D01*
X0151140Y0174883D01*
X0153645Y0177387D01*
X0154280Y0177387D01*
X0155046Y0178153D01*
X0155046Y0187110D01*
X0154280Y0187876D01*
X0150835Y0187876D01*
X0150301Y0187341D01*
X0150215Y0187490D01*
X0149935Y0187769D01*
X0149593Y0187966D01*
X0149212Y0188069D01*
X0147924Y0188069D01*
X0147924Y0182722D01*
X0147743Y0182722D01*
X0147743Y0188069D01*
X0146455Y0188069D01*
X0146073Y0187966D01*
X0145731Y0187769D01*
X0145452Y0187490D01*
X0145366Y0187341D01*
X0144831Y0187876D01*
X0141386Y0187876D01*
X0140621Y0187110D01*
X0140621Y0178153D01*
X0141386Y0177387D01*
X0142022Y0177387D01*
X0144526Y0174883D01*
X0144526Y0174366D01*
X0144018Y0173858D01*
X0144018Y0166947D01*
X0142508Y0166947D01*
X0142508Y0171718D01*
X0142595Y0171832D01*
X0142508Y0172490D01*
X0142508Y0173154D01*
X0142407Y0173255D01*
X0142388Y0173398D01*
X0141860Y0173801D01*
X0141391Y0174271D01*
X0141247Y0174271D01*
X0139190Y0175846D01*
X0139190Y0176200D01*
X0138755Y0177250D01*
X0137952Y0178054D01*
X0136902Y0178489D01*
X0135765Y0178489D01*
X0134715Y0178054D01*
X0133911Y0177250D01*
X0133476Y0176200D01*
X0133476Y0175251D01*
X0132902Y0175489D01*
X0132190Y0175489D01*
X0132190Y0176200D01*
X0131755Y0177250D01*
X0130952Y0178054D01*
X0129902Y0178489D01*
X0128765Y0178489D01*
X0127715Y0178054D01*
X0126911Y0177250D01*
X0126476Y0176200D01*
X0126476Y0175063D01*
X0126911Y0174013D01*
X0127426Y0173498D01*
X0127426Y0157842D01*
X0128543Y0156724D01*
X0135118Y0150150D01*
X0136341Y0150150D01*
X0136341Y0147439D01*
X0134567Y0147439D01*
X0133952Y0148054D01*
X0132902Y0148489D01*
X0131765Y0148489D01*
X0130715Y0148054D01*
X0129911Y0147250D01*
X0129476Y0146200D01*
X0129476Y0145063D01*
X0129735Y0144439D01*
X0126567Y0144439D01*
X0125952Y0145054D01*
X0124902Y0145489D01*
X0123765Y0145489D01*
X0122715Y0145054D01*
X0121911Y0144250D01*
X0121476Y0143200D01*
X0121476Y0142063D01*
X0121911Y0141013D01*
X0122715Y0140209D01*
X0123765Y0139774D01*
X0124902Y0139774D01*
X0125952Y0140209D01*
X0126567Y0140824D01*
X0136599Y0140824D01*
X0137107Y0140317D01*
X0144018Y0140317D01*
X0144018Y0138439D01*
X0130567Y0138439D01*
X0129952Y0139054D01*
X0128902Y0139489D01*
X0127765Y0139489D01*
X0126715Y0139054D01*
X0125911Y0138250D01*
X0125476Y0137200D01*
X0125476Y0136063D01*
X0125911Y0135013D01*
X0126715Y0134209D01*
X0127765Y0133774D01*
X0128902Y0133774D01*
X0129952Y0134209D01*
X0130567Y0134824D01*
X0144018Y0134824D01*
X0144018Y0133405D01*
X0144784Y0132639D01*
X0147652Y0132639D01*
X0147652Y0131411D01*
X0150514Y0128548D01*
X0150514Y0125122D01*
X0151280Y0124356D01*
X0152180Y0124356D01*
X0152180Y0124104D01*
X0151477Y0124104D01*
X0150711Y0123338D01*
X0150711Y0122739D01*
X0146267Y0122739D01*
X0145952Y0123054D01*
X0144902Y0123489D01*
X0144456Y0123489D01*
X0142206Y0125739D01*
X0102267Y0125739D01*
X0101952Y0126054D01*
X0100902Y0126489D01*
X0099765Y0126489D01*
X0098715Y0126054D01*
X0097911Y0125250D01*
X0097476Y0124200D01*
X0097476Y0123063D01*
X0097911Y0122013D01*
X0098715Y0121209D01*
X0099765Y0120774D01*
X0100902Y0120774D01*
X0101952Y0121209D01*
X0102267Y0121524D01*
X0140461Y0121524D01*
X0141476Y0120509D01*
X0141476Y0120063D01*
X0141911Y0119013D01*
X0142715Y0118209D01*
X0143765Y0117774D01*
X0144902Y0117774D01*
X0145952Y0118209D01*
X0146267Y0118524D01*
X0150711Y0118524D01*
X0150711Y0117925D01*
X0151477Y0117159D01*
X0156497Y0117159D01*
X0157262Y0117925D01*
X0157262Y0123338D01*
X0156497Y0124104D01*
X0155794Y0124104D01*
X0155794Y0124356D01*
X0156694Y0124356D01*
X0157228Y0124891D01*
X0157314Y0124742D01*
X0157593Y0124463D01*
X0157935Y0124265D01*
X0158317Y0124163D01*
X0160196Y0124163D01*
X0160196Y0127147D01*
X0161164Y0127147D01*
X0161164Y0124163D01*
X0163043Y0124163D01*
X0163400Y0124259D01*
X0163400Y0123893D01*
X0163190Y0124104D01*
X0158170Y0124104D01*
X0157404Y0123338D01*
X0157404Y0117925D01*
X0158170Y0117159D01*
X0158873Y0117159D01*
X0158873Y0116727D01*
X0135635Y0093489D01*
X0134765Y0093489D01*
X0133715Y0093054D01*
X0132911Y0092250D01*
X0132476Y0091200D01*
X0132476Y0090063D01*
X0132911Y0089013D01*
X0133526Y0088398D01*
X0133526Y0086774D01*
X0132942Y0086774D01*
X0132176Y0086008D01*
X0132176Y0075477D01*
X0132942Y0074711D01*
X0138749Y0074711D01*
X0139514Y0075477D01*
X0139514Y0086008D01*
X0138749Y0086774D01*
X0137140Y0086774D01*
X0137140Y0088398D01*
X0137755Y0089013D01*
X0138190Y0090063D01*
X0138190Y0090933D01*
X0162487Y0115230D01*
X0162487Y0117159D01*
X0163190Y0117159D01*
X0163400Y0117370D01*
X0163400Y0084430D01*
X0160271Y0081301D01*
X0153892Y0081301D01*
X0153126Y0080535D01*
X0153126Y0074728D01*
X0153892Y0073962D01*
X0164424Y0073962D01*
X0165189Y0074728D01*
X0165189Y0080535D01*
X0164903Y0080821D01*
X0167014Y0082933D01*
X0167014Y0089395D01*
X0167585Y0088824D01*
X0185271Y0071139D01*
X0114119Y0071139D01*
X0114112Y0071156D01*
X0112858Y0072410D01*
X0111220Y0073088D01*
X0109447Y0073088D01*
X0107809Y0072410D01*
X0106555Y0071156D01*
X0105877Y0069518D01*
X0105877Y0067765D01*
X0099137Y0074505D01*
X0098207Y0075435D01*
X0096991Y0075939D01*
X0081703Y0075939D01*
X0079640Y0078001D01*
X0079640Y0078460D01*
X0079871Y0078230D01*
X0090796Y0078230D01*
X0091562Y0078996D01*
X0091562Y0083120D01*
X0101168Y0083120D01*
X0105877Y0078411D01*
X0105877Y0076786D01*
X0108487Y0074175D01*
X0112179Y0074175D01*
X0114790Y0076786D01*
X0114790Y0080478D01*
X0112179Y0083088D01*
X0110554Y0083088D01*
X0104411Y0089230D01*
X0103196Y0089734D01*
X0091562Y0089734D01*
X0091562Y0093858D01*
X0090796Y0094624D01*
X0087613Y0094624D01*
X0087613Y0101600D01*
X0088390Y0101600D01*
X0089156Y0102366D01*
X0089156Y0112897D01*
X0088390Y0113663D01*
X0087640Y0113663D01*
X0087640Y0115289D01*
X0087137Y0116505D01*
X0086207Y0117435D01*
X0086207Y0117435D01*
X0075947Y0127695D01*
X0074731Y0128198D01*
X0074387Y0128198D01*
X0074058Y0128527D01*
X0074207Y0128612D01*
X0074486Y0128892D01*
X0074684Y0129234D01*
X0074786Y0129615D01*
X0074786Y0131872D01*
X0070833Y0131872D01*
X0070833Y0132872D01*
X0069833Y0132872D01*
X0069833Y0131872D01*
X0065881Y0131872D01*
X0065881Y0129615D01*
X0065983Y0129234D01*
X0066180Y0128892D01*
X0066460Y0128612D01*
X0066608Y0128527D01*
X0066073Y0127992D01*
X0066073Y0127962D01*
X0053573Y0127962D01*
X0053497Y0127931D01*
X0050540Y0127931D01*
X0049774Y0127165D01*
X0049774Y0122145D01*
X0050540Y0121380D01*
X0053497Y0121380D01*
X0053573Y0121348D01*
X0066516Y0121348D01*
X0066839Y0121025D01*
X0073263Y0121025D01*
X0073603Y0120685D01*
X0072991Y0120939D01*
X0049703Y0120939D01*
X0047640Y0123001D01*
X0047640Y0131340D01*
X0055601Y0139301D01*
X0064302Y0139301D01*
X0064302Y0137523D01*
X0065067Y0136758D01*
X0075599Y0136758D01*
X0076365Y0137523D01*
X0076365Y0148055D01*
X0075599Y0148821D01*
X0065067Y0148821D01*
X0064302Y0148055D01*
X0064302Y0145915D01*
X0057538Y0145915D01*
X0057538Y0156380D01*
X0057922Y0156380D01*
X0058688Y0157145D01*
X0058688Y0162165D01*
X0057922Y0162931D01*
X0054965Y0162931D01*
X0054889Y0162962D01*
X0053573Y0162962D01*
X0053497Y0162931D01*
X0050540Y0162931D01*
X0049774Y0162165D01*
X0049774Y0157145D01*
X0050540Y0156380D01*
X0050924Y0156380D01*
X0050924Y0145884D01*
X0050540Y0145884D01*
X0049774Y0145118D01*
X0049774Y0142828D01*
X0041530Y0134584D01*
X0041026Y0133368D01*
X0041026Y0120974D01*
X0041530Y0119758D01*
X0042460Y0118828D01*
X0046460Y0114828D01*
X0046577Y0114779D01*
X0046073Y0114571D01*
X0043371Y0111868D01*
X0041908Y0108338D01*
X0041908Y0104516D01*
X0043371Y0100985D01*
X0046073Y0098283D01*
X0049604Y0096821D01*
X0053425Y0096821D01*
X0056956Y0098283D01*
X0059658Y0100985D01*
X0061121Y0104516D01*
X0061121Y0108338D01*
X0059658Y0111868D01*
X0057202Y0114324D01*
X0070963Y0114324D01*
X0071625Y0113663D01*
X0064276Y0113663D01*
X0063510Y0112897D01*
X0063510Y0102366D01*
X0064276Y0101600D01*
X0065054Y0101600D01*
X0065054Y0083218D01*
X0061766Y0079930D01*
X0060717Y0080978D01*
X0058399Y0081939D01*
X0055890Y0081939D01*
X0053572Y0080978D01*
X0051797Y0079204D01*
X0050837Y0076886D01*
X0050837Y0064377D01*
X0051797Y0062059D01*
X0053572Y0060285D01*
X0055890Y0059324D01*
X0058399Y0059324D01*
X0060717Y0060285D01*
X0062491Y0062059D01*
X0063451Y0064377D01*
X0063451Y0072262D01*
X0071164Y0079975D01*
X0071668Y0081190D01*
X0071668Y0101600D01*
X0072446Y0101600D01*
X0073026Y0102181D01*
X0073026Y0075974D01*
X0073530Y0074758D01*
X0074460Y0073828D01*
X0078460Y0069828D01*
X0079676Y0069324D01*
X0094963Y0069324D01*
X0105877Y0058411D01*
X0105877Y0057745D01*
X0106555Y0056107D01*
X0107809Y0054853D01*
X0109447Y0054175D01*
X0111220Y0054175D01*
X0112858Y0054853D01*
X0114112Y0056107D01*
X0114790Y0057745D01*
X0114790Y0059518D01*
X0114112Y0061156D01*
X0112858Y0062410D01*
X0111220Y0063088D01*
X0110554Y0063088D01*
X0109467Y0064175D01*
X0111220Y0064175D01*
X0112858Y0064853D01*
X0114112Y0066107D01*
X0114119Y0066124D01*
X0345832Y0066124D01*
X0346753Y0066506D01*
X0380753Y0100506D01*
X0381459Y0101211D01*
X0381840Y0102133D01*
X0381840Y0173130D01*
X0381459Y0174052D01*
X0380753Y0174757D01*
X0374832Y0180678D01*
X0373911Y0181060D01*
X0372311Y0181060D01*
X0371167Y0182204D01*
X0369584Y0182860D01*
X0361870Y0182860D01*
X0360287Y0182204D01*
X0359076Y0180993D01*
X0358420Y0179410D01*
X0358420Y0177696D01*
X0359076Y0176113D01*
X0360287Y0174901D01*
X0361870Y0174246D01*
X0369584Y0174246D01*
X0371167Y0174901D01*
X0372311Y0176046D01*
X0372374Y0176046D01*
X0376826Y0171593D01*
X0376826Y0138684D01*
X0375459Y0140052D01*
X0374753Y0140757D01*
X0373832Y0141139D01*
X0372232Y0141139D01*
X0371167Y0142204D01*
X0369584Y0142860D01*
X0361870Y0142860D01*
X0360287Y0142204D01*
X0359076Y0140993D01*
X0358420Y0139410D01*
X0358420Y0137696D01*
X0359076Y0136113D01*
X0360287Y0134901D01*
X0361870Y0134246D01*
X0369584Y0134246D01*
X0371167Y0134901D01*
X0372342Y0136077D01*
X0376826Y0131593D01*
X0376826Y0103670D01*
X0344295Y0071139D01*
X0202396Y0071139D01*
X0203140Y0071883D01*
X0205220Y0073962D01*
X0214424Y0073962D01*
X0215189Y0074728D01*
X0215189Y0080535D01*
X0214424Y0081301D01*
X0203892Y0081301D01*
X0203126Y0080535D01*
X0203126Y0076980D01*
X0200585Y0074439D01*
X0197251Y0074439D01*
X0197540Y0074728D01*
X0197540Y0080535D01*
X0197254Y0080821D01*
X0204957Y0088524D01*
X0243302Y0088524D01*
X0243302Y0088190D01*
X0244067Y0087424D01*
X0246951Y0087424D01*
X0246951Y0085630D01*
X0242623Y0081301D01*
X0236243Y0081301D01*
X0235477Y0080535D01*
X0235477Y0074728D01*
X0236243Y0073962D01*
X0246775Y0073962D01*
X0247540Y0074728D01*
X0247540Y0080535D01*
X0247254Y0080821D01*
X0250333Y0083900D01*
X0253412Y0080821D01*
X0253126Y0080535D01*
X0253126Y0074728D01*
X0253892Y0073962D01*
X0264424Y0073962D01*
X0265189Y0074728D01*
X0265189Y0080535D01*
X0264424Y0081301D01*
X0258044Y0081301D01*
X0253715Y0085630D01*
X0253715Y0087424D01*
X0256599Y0087424D01*
X0257365Y0088190D01*
X0257365Y0088524D01*
X0295709Y0088524D01*
X0303412Y0080821D01*
X0303126Y0080535D01*
X0303126Y0074728D01*
X0303892Y0073962D01*
X0314424Y0073962D01*
X0315189Y0074728D01*
X0315189Y0080535D01*
X0314424Y0081301D01*
X0308044Y0081301D01*
X0297206Y0092139D01*
X0261140Y0092139D01*
X0261140Y0099380D01*
X0260082Y0100439D01*
X0257082Y0103439D01*
X0201082Y0103439D01*
X0186140Y0118380D01*
X0186140Y0131496D01*
X0186627Y0131010D01*
X0187426Y0131010D01*
X0187426Y0122765D01*
X0186911Y0122250D01*
X0186476Y0121200D01*
X0186476Y0120063D01*
X0186911Y0119013D01*
X0187715Y0118209D01*
X0188765Y0117774D01*
X0189902Y0117774D01*
X0190952Y0118209D01*
X0191755Y0119013D01*
X0192190Y0120063D01*
X0192190Y0121200D01*
X0191755Y0122250D01*
X0191240Y0122765D01*
X0191240Y0131010D01*
X0192040Y0131010D01*
X0192806Y0131775D01*
X0192806Y0132178D01*
X0192861Y0132178D01*
X0192861Y0131775D01*
X0193627Y0131010D01*
X0199040Y0131010D01*
X0199806Y0131775D01*
X0199806Y0135824D01*
X0200082Y0135824D01*
X0201140Y0136883D01*
X0234582Y0170324D01*
X0235100Y0170324D01*
X0235715Y0169709D01*
X0236765Y0169274D01*
X0237902Y0169274D01*
X0238952Y0169709D01*
X0239755Y0170513D01*
X0240190Y0171563D01*
X0240190Y0172700D01*
X0239755Y0173750D01*
X0238952Y0174554D01*
X0238764Y0174632D01*
X0238952Y0174709D01*
X0239755Y0175513D01*
X0240190Y0176563D01*
X0240190Y0177700D01*
X0239755Y0178750D01*
X0238952Y0179554D01*
X0237902Y0179989D01*
X0236765Y0179989D01*
X0235715Y0179554D01*
X0235100Y0178939D01*
X0232085Y0178939D01*
X0197400Y0144254D01*
X0195613Y0144254D01*
X0186468Y0153399D01*
X0188657Y0153399D01*
X0191735Y0156478D01*
X0194058Y0156478D01*
X0194058Y0155578D01*
X0194823Y0154813D01*
X0195474Y0154813D01*
X0194911Y0154250D01*
X0194476Y0153200D01*
X0194476Y0152063D01*
X0194911Y0151013D01*
X0195715Y0150209D01*
X0196765Y0149774D01*
X0197902Y0149774D01*
X0198952Y0150209D01*
X0199755Y0151013D01*
X0200190Y0152063D01*
X0200190Y0153200D01*
X0199755Y0154250D01*
X0199193Y0154813D01*
X0199843Y0154813D01*
X0200609Y0155578D01*
X0200609Y0160992D01*
X0199969Y0161632D01*
X0200609Y0162271D01*
X0200609Y0167685D01*
X0199843Y0168450D01*
X0197728Y0168450D01*
X0198023Y0168745D01*
X0198458Y0169796D01*
X0198458Y0170932D01*
X0198023Y0171982D01*
X0197219Y0172786D01*
X0196169Y0173221D01*
X0195033Y0173221D01*
X0193983Y0172786D01*
X0193368Y0172171D01*
X0170648Y0172171D01*
X0170648Y0173858D01*
X0169883Y0174624D01*
X0166831Y0174624D01*
X0166782Y0174575D01*
X0166733Y0174624D01*
X0163778Y0174624D01*
X0163621Y0174714D01*
X0163239Y0174817D01*
X0162058Y0174817D01*
X0162058Y0170364D01*
X0162058Y0170364D01*
X0162058Y0152356D01*
X0158908Y0149206D01*
X0158908Y0136899D01*
X0158908Y0136899D01*
X0158908Y0132447D01*
X0157726Y0132447D01*
X0157345Y0132549D01*
X0157188Y0132639D01*
X0154233Y0132639D01*
X0154184Y0132689D01*
X0154135Y0132639D01*
X0151535Y0132639D01*
X0153267Y0130907D01*
X0156694Y0130907D01*
X0157228Y0130372D01*
X0157314Y0130521D01*
X0157593Y0130800D01*
X0157935Y0130998D01*
X0158317Y0131100D01*
X0160196Y0131100D01*
X0160196Y0128116D01*
X0161164Y0128116D01*
X0161164Y0131100D01*
X0163043Y0131100D01*
X0163400Y0131004D01*
X0163400Y0132639D01*
X0160628Y0132639D01*
X0160471Y0132549D01*
X0160090Y0132447D01*
X0158908Y0132447D01*
X0158908Y0136899D01*
X0158908Y0129403D01*
X0158908Y0125206D01*
X0157333Y0123632D01*
X0157333Y0116632D01*
X0135333Y0094632D01*
X0131333Y0094632D01*
X0124822Y0088120D01*
X0124822Y0080743D01*
X0125322Y0080577D02*
X0132176Y0080577D01*
X0132176Y0081575D02*
X0128684Y0081575D01*
X0128684Y0081243D02*
X0125322Y0081243D01*
X0125322Y0080243D01*
X0128684Y0080243D01*
X0128684Y0075821D01*
X0128581Y0075439D01*
X0128384Y0075097D01*
X0128105Y0074818D01*
X0127763Y0074620D01*
X0127381Y0074518D01*
X0125321Y0074518D01*
X0125321Y0080243D01*
X0124322Y0080243D01*
X0124322Y0074518D01*
X0122262Y0074518D01*
X0121880Y0074620D01*
X0121538Y0074818D01*
X0121259Y0075097D01*
X0121062Y0075439D01*
X0120959Y0075821D01*
X0120959Y0080243D01*
X0124321Y0080243D01*
X0124321Y0081243D01*
X0120959Y0081243D01*
X0120959Y0085664D01*
X0121062Y0086046D01*
X0121259Y0086388D01*
X0121538Y0086667D01*
X0121880Y0086865D01*
X0122262Y0086967D01*
X0124322Y0086967D01*
X0124322Y0081243D01*
X0125321Y0081243D01*
X0125321Y0086967D01*
X0127381Y0086967D01*
X0127763Y0086865D01*
X0128105Y0086667D01*
X0128384Y0086388D01*
X0128581Y0086046D01*
X0128684Y0085664D01*
X0128684Y0081243D01*
X0128684Y0082574D02*
X0132176Y0082574D01*
X0132176Y0083572D02*
X0128684Y0083572D01*
X0128684Y0084571D02*
X0132176Y0084571D01*
X0132176Y0085569D02*
X0128684Y0085569D01*
X0128204Y0086568D02*
X0132735Y0086568D01*
X0133526Y0087566D02*
X0106076Y0087566D01*
X0107074Y0086568D02*
X0121439Y0086568D01*
X0120959Y0085569D02*
X0108073Y0085569D01*
X0109071Y0084571D02*
X0120959Y0084571D01*
X0120959Y0083572D02*
X0110070Y0083572D01*
X0112694Y0082574D02*
X0120959Y0082574D01*
X0120959Y0081575D02*
X0113693Y0081575D01*
X0114691Y0080577D02*
X0124321Y0080577D01*
X0124322Y0081575D02*
X0125321Y0081575D01*
X0125321Y0082574D02*
X0124322Y0082574D01*
X0124322Y0083572D02*
X0125321Y0083572D01*
X0125321Y0084571D02*
X0124322Y0084571D01*
X0124322Y0085569D02*
X0125321Y0085569D01*
X0125321Y0086568D02*
X0124322Y0086568D01*
X0124322Y0079578D02*
X0125321Y0079578D01*
X0125321Y0078579D02*
X0124322Y0078579D01*
X0124322Y0077581D02*
X0125321Y0077581D01*
X0125321Y0076582D02*
X0124322Y0076582D01*
X0124322Y0075584D02*
X0125321Y0075584D01*
X0125321Y0074585D02*
X0124322Y0074585D01*
X0122011Y0074585D02*
X0112590Y0074585D01*
X0113588Y0075584D02*
X0121023Y0075584D01*
X0120959Y0076582D02*
X0114587Y0076582D01*
X0114790Y0077581D02*
X0120959Y0077581D01*
X0120959Y0078579D02*
X0114790Y0078579D01*
X0114790Y0079578D02*
X0120959Y0079578D01*
X0128684Y0079578D02*
X0132176Y0079578D01*
X0132176Y0078579D02*
X0128684Y0078579D01*
X0128684Y0077581D02*
X0132176Y0077581D01*
X0132176Y0076582D02*
X0128684Y0076582D01*
X0128620Y0075584D02*
X0132176Y0075584D01*
X0139514Y0075584D02*
X0153126Y0075584D01*
X0153126Y0076582D02*
X0139514Y0076582D01*
X0139514Y0077581D02*
X0153126Y0077581D01*
X0153126Y0078579D02*
X0139514Y0078579D01*
X0139514Y0079578D02*
X0153126Y0079578D01*
X0153168Y0080577D02*
X0139514Y0080577D01*
X0139514Y0081575D02*
X0160546Y0081575D01*
X0161544Y0082574D02*
X0139514Y0082574D01*
X0139514Y0083572D02*
X0162543Y0083572D01*
X0163400Y0084571D02*
X0139514Y0084571D01*
X0139514Y0085569D02*
X0163400Y0085569D01*
X0163400Y0086568D02*
X0138955Y0086568D01*
X0137140Y0087566D02*
X0163400Y0087566D01*
X0163400Y0088565D02*
X0137307Y0088565D01*
X0137983Y0089563D02*
X0163400Y0089563D01*
X0163400Y0090562D02*
X0138190Y0090562D01*
X0138817Y0091560D02*
X0163400Y0091560D01*
X0163400Y0092559D02*
X0139816Y0092559D01*
X0140814Y0093557D02*
X0163400Y0093557D01*
X0163400Y0094556D02*
X0141813Y0094556D01*
X0142812Y0095554D02*
X0163400Y0095554D01*
X0163400Y0096553D02*
X0143810Y0096553D01*
X0144809Y0097551D02*
X0163400Y0097551D01*
X0163400Y0098550D02*
X0145807Y0098550D01*
X0146806Y0099548D02*
X0163400Y0099548D01*
X0163400Y0100547D02*
X0147804Y0100547D01*
X0148803Y0101545D02*
X0163400Y0101545D01*
X0163400Y0102544D02*
X0149801Y0102544D01*
X0150800Y0103542D02*
X0163400Y0103542D01*
X0163400Y0104541D02*
X0151798Y0104541D01*
X0152797Y0105539D02*
X0163400Y0105539D01*
X0163400Y0106538D02*
X0153795Y0106538D01*
X0154794Y0107536D02*
X0163400Y0107536D01*
X0163400Y0108535D02*
X0155792Y0108535D01*
X0156791Y0109533D02*
X0163400Y0109533D01*
X0163400Y0110532D02*
X0157789Y0110532D01*
X0158788Y0111530D02*
X0163400Y0111530D01*
X0163400Y0112529D02*
X0159786Y0112529D01*
X0160785Y0113527D02*
X0163400Y0113527D01*
X0163400Y0114526D02*
X0161783Y0114526D01*
X0162487Y0115524D02*
X0163400Y0115524D01*
X0163400Y0116523D02*
X0162487Y0116523D01*
X0160680Y0115978D02*
X0135333Y0090632D01*
X0135333Y0081254D01*
X0135845Y0080743D01*
X0135956Y0080632D01*
X0127632Y0074585D02*
X0153269Y0074585D01*
X0159158Y0077632D02*
X0165207Y0083681D01*
X0165207Y0136899D01*
X0168333Y0136876D02*
X0168333Y0090632D01*
X0186333Y0072632D01*
X0201333Y0072632D01*
X0206333Y0077632D01*
X0209158Y0077632D01*
X0215189Y0077581D02*
X0235477Y0077581D01*
X0235477Y0078579D02*
X0215189Y0078579D01*
X0215189Y0079578D02*
X0235477Y0079578D01*
X0235519Y0080577D02*
X0215148Y0080577D01*
X0215189Y0076582D02*
X0235477Y0076582D01*
X0235477Y0075584D02*
X0215189Y0075584D01*
X0215047Y0074585D02*
X0235620Y0074585D01*
X0241509Y0077632D02*
X0248759Y0084881D01*
X0248759Y0090332D01*
X0251908Y0090332D02*
X0251908Y0092057D01*
X0250333Y0093632D01*
X0193333Y0093632D01*
X0174066Y0112899D01*
X0174066Y0142608D01*
X0175873Y0140317D02*
X0177560Y0140317D01*
X0178325Y0141082D01*
X0178325Y0143084D01*
X0182526Y0138883D01*
X0182526Y0116883D01*
X0199585Y0099824D01*
X0201082Y0099824D01*
X0244053Y0099824D01*
X0243302Y0099073D01*
X0243302Y0099039D01*
X0224267Y0099039D01*
X0223952Y0099354D01*
X0222902Y0099789D01*
X0221765Y0099789D01*
X0220715Y0099354D01*
X0219911Y0098550D01*
X0219476Y0097500D01*
X0219476Y0096363D01*
X0219859Y0095439D01*
X0194082Y0095439D01*
X0175873Y0113648D01*
X0175873Y0140317D01*
X0175873Y0139489D02*
X0181921Y0139489D01*
X0182526Y0138490D02*
X0175873Y0138490D01*
X0175873Y0137492D02*
X0182526Y0137492D01*
X0182526Y0136493D02*
X0175873Y0136493D01*
X0175873Y0135495D02*
X0182526Y0135495D01*
X0182526Y0134496D02*
X0175873Y0134496D01*
X0175873Y0133498D02*
X0182526Y0133498D01*
X0182526Y0132499D02*
X0175873Y0132499D01*
X0175873Y0131501D02*
X0182526Y0131501D01*
X0182526Y0130502D02*
X0175873Y0130502D01*
X0175873Y0129504D02*
X0182526Y0129504D01*
X0182526Y0128505D02*
X0175873Y0128505D01*
X0175873Y0127507D02*
X0182526Y0127507D01*
X0182526Y0126508D02*
X0175873Y0126508D01*
X0175873Y0125510D02*
X0182526Y0125510D01*
X0182526Y0124511D02*
X0175873Y0124511D01*
X0175873Y0123512D02*
X0182526Y0123512D01*
X0182526Y0122514D02*
X0175873Y0122514D01*
X0175873Y0121515D02*
X0182526Y0121515D01*
X0182526Y0120517D02*
X0175873Y0120517D01*
X0175873Y0119518D02*
X0182526Y0119518D01*
X0182526Y0118520D02*
X0175873Y0118520D01*
X0175873Y0117521D02*
X0182526Y0117521D01*
X0182886Y0116523D02*
X0175873Y0116523D01*
X0175873Y0115524D02*
X0183885Y0115524D01*
X0184883Y0114526D02*
X0175873Y0114526D01*
X0175993Y0113527D02*
X0185882Y0113527D01*
X0186880Y0112529D02*
X0176992Y0112529D01*
X0177990Y0111530D02*
X0187879Y0111530D01*
X0188877Y0110532D02*
X0178989Y0110532D01*
X0179987Y0109533D02*
X0189876Y0109533D01*
X0190874Y0108535D02*
X0180986Y0108535D01*
X0181984Y0107536D02*
X0191873Y0107536D01*
X0192872Y0106538D02*
X0182983Y0106538D01*
X0183981Y0105539D02*
X0193870Y0105539D01*
X0194869Y0104541D02*
X0184980Y0104541D01*
X0185978Y0103542D02*
X0195867Y0103542D01*
X0196866Y0102544D02*
X0186977Y0102544D01*
X0187975Y0101545D02*
X0197864Y0101545D01*
X0198863Y0100547D02*
X0188974Y0100547D01*
X0189972Y0099548D02*
X0221185Y0099548D01*
X0219911Y0098550D02*
X0190971Y0098550D01*
X0191969Y0097551D02*
X0219498Y0097551D01*
X0219476Y0096553D02*
X0192968Y0096553D01*
X0193966Y0095554D02*
X0219811Y0095554D01*
X0223482Y0099548D02*
X0243777Y0099548D01*
X0245609Y0096932D02*
X0248759Y0096932D01*
X0251908Y0096932D01*
X0255058Y0096932D01*
X0257365Y0096553D02*
X0257526Y0096553D01*
X0257526Y0097551D02*
X0257365Y0097551D01*
X0257526Y0097883D02*
X0257526Y0092139D01*
X0257365Y0092139D01*
X0257365Y0092473D01*
X0256599Y0093239D01*
X0253516Y0093239D01*
X0253483Y0093205D01*
X0253450Y0093239D01*
X0253282Y0093239D01*
X0252496Y0094024D01*
X0253450Y0094024D01*
X0253483Y0094058D01*
X0253516Y0094024D01*
X0256599Y0094024D01*
X0257365Y0094790D01*
X0257365Y0098045D01*
X0257526Y0097883D01*
X0259333Y0098632D02*
X0259333Y0090332D01*
X0296458Y0090332D01*
X0309158Y0077632D01*
X0315189Y0077581D02*
X0335477Y0077581D01*
X0335477Y0078579D02*
X0315189Y0078579D01*
X0315189Y0079578D02*
X0335477Y0079578D01*
X0335477Y0080535D02*
X0336243Y0081301D01*
X0346775Y0081301D01*
X0347540Y0080535D01*
X0347540Y0074728D01*
X0346775Y0073962D01*
X0336243Y0073962D01*
X0335477Y0074728D01*
X0335477Y0080535D01*
X0335519Y0080577D02*
X0315148Y0080577D01*
X0315189Y0076582D02*
X0335477Y0076582D01*
X0335477Y0075584D02*
X0315189Y0075584D01*
X0315047Y0074585D02*
X0335620Y0074585D01*
X0344746Y0071590D02*
X0202847Y0071590D01*
X0203846Y0072588D02*
X0345745Y0072588D01*
X0346743Y0073587D02*
X0204844Y0073587D01*
X0201730Y0075584D02*
X0197540Y0075584D01*
X0197540Y0076582D02*
X0202729Y0076582D01*
X0203126Y0077581D02*
X0197540Y0077581D01*
X0197540Y0078579D02*
X0203126Y0078579D01*
X0203126Y0079578D02*
X0197540Y0079578D01*
X0197499Y0080577D02*
X0203168Y0080577D01*
X0200005Y0083572D02*
X0244894Y0083572D01*
X0245892Y0084571D02*
X0201003Y0084571D01*
X0202002Y0085569D02*
X0246891Y0085569D01*
X0246951Y0086568D02*
X0203000Y0086568D01*
X0203999Y0087566D02*
X0243926Y0087566D01*
X0245609Y0090332D02*
X0204209Y0090332D01*
X0191509Y0077632D01*
X0192623Y0081301D02*
X0186243Y0081301D01*
X0185477Y0080535D01*
X0185477Y0076043D01*
X0170140Y0091380D01*
X0170140Y0132897D01*
X0170648Y0133405D01*
X0170648Y0140317D01*
X0172259Y0140317D01*
X0172259Y0112151D01*
X0191526Y0092883D01*
X0191526Y0092883D01*
X0192585Y0091824D01*
X0203146Y0091824D01*
X0192623Y0081301D01*
X0192897Y0081575D02*
X0179945Y0081575D01*
X0178947Y0082574D02*
X0193895Y0082574D01*
X0194894Y0083572D02*
X0177948Y0083572D01*
X0176950Y0084571D02*
X0195892Y0084571D01*
X0196891Y0085569D02*
X0175951Y0085569D01*
X0174953Y0086568D02*
X0197889Y0086568D01*
X0198888Y0087566D02*
X0173954Y0087566D01*
X0172956Y0088565D02*
X0199886Y0088565D01*
X0200885Y0089563D02*
X0171957Y0089563D01*
X0170959Y0090562D02*
X0201883Y0090562D01*
X0202882Y0091560D02*
X0170140Y0091560D01*
X0170140Y0092559D02*
X0191851Y0092559D01*
X0190852Y0093557D02*
X0170140Y0093557D01*
X0170140Y0094556D02*
X0189854Y0094556D01*
X0188855Y0095554D02*
X0170140Y0095554D01*
X0170140Y0096553D02*
X0187857Y0096553D01*
X0186858Y0097551D02*
X0170140Y0097551D01*
X0170140Y0098550D02*
X0185860Y0098550D01*
X0184861Y0099548D02*
X0170140Y0099548D01*
X0170140Y0100547D02*
X0183863Y0100547D01*
X0182864Y0101545D02*
X0170140Y0101545D01*
X0170140Y0102544D02*
X0181866Y0102544D01*
X0180867Y0103542D02*
X0170140Y0103542D01*
X0170140Y0104541D02*
X0179869Y0104541D01*
X0178870Y0105539D02*
X0170140Y0105539D01*
X0170140Y0106538D02*
X0177872Y0106538D01*
X0176873Y0107536D02*
X0170140Y0107536D01*
X0170140Y0108535D02*
X0175874Y0108535D01*
X0174876Y0109533D02*
X0170140Y0109533D01*
X0170140Y0110532D02*
X0173877Y0110532D01*
X0172879Y0111530D02*
X0170140Y0111530D01*
X0170140Y0112529D02*
X0172259Y0112529D01*
X0172259Y0113527D02*
X0170140Y0113527D01*
X0170140Y0114526D02*
X0172259Y0114526D01*
X0172259Y0115524D02*
X0170140Y0115524D01*
X0170140Y0116523D02*
X0172259Y0116523D01*
X0172259Y0117521D02*
X0170140Y0117521D01*
X0170140Y0118520D02*
X0172259Y0118520D01*
X0172259Y0119518D02*
X0170140Y0119518D01*
X0170140Y0120517D02*
X0172259Y0120517D01*
X0172259Y0121515D02*
X0170140Y0121515D01*
X0170140Y0122514D02*
X0172259Y0122514D01*
X0172259Y0123512D02*
X0170140Y0123512D01*
X0170140Y0124511D02*
X0172259Y0124511D01*
X0172259Y0125510D02*
X0170140Y0125510D01*
X0170140Y0126508D02*
X0172259Y0126508D01*
X0172259Y0127507D02*
X0170140Y0127507D01*
X0170140Y0128505D02*
X0172259Y0128505D01*
X0172259Y0129504D02*
X0170140Y0129504D01*
X0170140Y0130502D02*
X0172259Y0130502D01*
X0172259Y0131501D02*
X0170140Y0131501D01*
X0170140Y0132499D02*
X0172259Y0132499D01*
X0172259Y0133498D02*
X0170648Y0133498D01*
X0170648Y0134496D02*
X0172259Y0134496D01*
X0172259Y0135495D02*
X0170648Y0135495D01*
X0170648Y0136493D02*
X0172259Y0136493D01*
X0172259Y0137492D02*
X0170648Y0137492D01*
X0170648Y0138490D02*
X0172259Y0138490D01*
X0172259Y0139489D02*
X0170648Y0139489D01*
X0169806Y0141159D02*
X0166831Y0141159D01*
X0166782Y0141110D01*
X0166733Y0141159D01*
X0163682Y0141159D01*
X0163633Y0141110D01*
X0163583Y0141159D01*
X0160628Y0141159D01*
X0160471Y0141250D01*
X0160090Y0141352D01*
X0158908Y0141352D01*
X0157726Y0141352D01*
X0157345Y0141250D01*
X0157188Y0141159D01*
X0154233Y0141159D01*
X0154184Y0141110D01*
X0154135Y0141159D01*
X0151266Y0141159D01*
X0151266Y0149009D01*
X0154416Y0152159D01*
X0154416Y0165954D01*
X0154577Y0165911D01*
X0155758Y0165911D01*
X0155758Y0170364D01*
X0155759Y0170364D01*
X0155759Y0164206D01*
X0156333Y0163632D01*
X0162333Y0163632D01*
X0162058Y0165911D02*
X0163239Y0165911D01*
X0163621Y0166013D01*
X0163778Y0166104D01*
X0166733Y0166104D01*
X0166782Y0166153D01*
X0166831Y0166104D01*
X0169806Y0166104D01*
X0169806Y0163130D01*
X0169855Y0163080D01*
X0169806Y0163031D01*
X0169806Y0159980D01*
X0169855Y0159931D01*
X0169806Y0159882D01*
X0169806Y0156830D01*
X0169855Y0156781D01*
X0169806Y0156732D01*
X0169806Y0153681D01*
X0169855Y0153632D01*
X0169806Y0153582D01*
X0169806Y0150531D01*
X0169855Y0150482D01*
X0169806Y0150433D01*
X0169806Y0147381D01*
X0169855Y0147332D01*
X0169806Y0147283D01*
X0169806Y0144232D01*
X0169855Y0144183D01*
X0169806Y0144134D01*
X0169806Y0141159D01*
X0169806Y0141486D02*
X0151266Y0141486D01*
X0151266Y0142484D02*
X0169806Y0142484D01*
X0169806Y0143483D02*
X0151266Y0143483D01*
X0151266Y0144481D02*
X0169806Y0144481D01*
X0169806Y0145480D02*
X0151266Y0145480D01*
X0151266Y0146478D02*
X0169806Y0146478D01*
X0169806Y0147477D02*
X0151266Y0147477D01*
X0151266Y0148475D02*
X0169806Y0148475D01*
X0169806Y0149474D02*
X0151731Y0149474D01*
X0152730Y0150472D02*
X0169845Y0150472D01*
X0169806Y0151471D02*
X0153728Y0151471D01*
X0154416Y0152469D02*
X0169806Y0152469D01*
X0169806Y0153468D02*
X0154416Y0153468D01*
X0154416Y0154466D02*
X0169806Y0154466D01*
X0169806Y0155465D02*
X0154416Y0155465D01*
X0154416Y0156463D02*
X0169806Y0156463D01*
X0169806Y0157462D02*
X0154416Y0157462D01*
X0154416Y0158460D02*
X0169806Y0158460D01*
X0169806Y0159459D02*
X0154416Y0159459D01*
X0154416Y0160457D02*
X0169806Y0160457D01*
X0169806Y0161456D02*
X0154416Y0161456D01*
X0154416Y0162454D02*
X0169806Y0162454D01*
X0169806Y0163453D02*
X0154416Y0163453D01*
X0154416Y0164451D02*
X0169806Y0164451D01*
X0169806Y0165450D02*
X0154416Y0165450D01*
X0155759Y0165911D02*
X0156940Y0165911D01*
X0157322Y0166013D01*
X0157479Y0166104D01*
X0160337Y0166104D01*
X0160495Y0166013D01*
X0160876Y0165911D01*
X0162058Y0165911D01*
X0162058Y0170364D01*
X0162058Y0174817D01*
X0161015Y0174817D01*
X0161015Y0188273D01*
X0161330Y0188588D01*
X0161765Y0189638D01*
X0161765Y0190775D01*
X0161330Y0191825D01*
X0160527Y0192628D01*
X0159476Y0193063D01*
X0159447Y0193063D01*
X0146459Y0206052D01*
X0145753Y0206757D01*
X0144832Y0207139D01*
X0063835Y0207139D01*
X0063190Y0206872D01*
X0063190Y0207200D01*
X0062755Y0208250D01*
X0061952Y0209054D01*
X0060902Y0209489D01*
X0059765Y0209489D01*
X0058715Y0209054D01*
X0058200Y0208539D01*
X0049955Y0208539D01*
X0049955Y0209338D01*
X0049662Y0209632D01*
X0049955Y0209925D01*
X0049955Y0210724D01*
X0058200Y0210724D01*
X0058715Y0210209D01*
X0059765Y0209774D01*
X0060902Y0209774D01*
X0061952Y0210209D01*
X0062755Y0211013D01*
X0063190Y0212063D01*
X0063190Y0213200D01*
X0062755Y0214250D01*
X0061952Y0215054D01*
X0060902Y0215489D01*
X0059765Y0215489D01*
X0058715Y0215054D01*
X0058200Y0214539D01*
X0049955Y0214539D01*
X0049955Y0215338D01*
X0049662Y0215632D01*
X0049955Y0215925D01*
X0049955Y0216724D01*
X0061543Y0216724D01*
X0063476Y0214792D01*
X0063476Y0214063D01*
X0063911Y0213013D01*
X0064715Y0212209D01*
X0065765Y0211774D01*
X0066902Y0211774D01*
X0067952Y0212209D01*
X0068755Y0213013D01*
X0069190Y0214063D01*
X0069190Y0215200D01*
X0068755Y0216250D01*
X0067952Y0217054D01*
X0066902Y0217489D01*
X0066173Y0217489D01*
X0063123Y0220539D01*
X0049955Y0220539D01*
X0049955Y0221230D01*
X0053425Y0221230D01*
X0056956Y0222692D01*
X0059658Y0225395D01*
X0061121Y0228925D01*
X0061121Y0232747D01*
X0059658Y0236278D01*
X0056956Y0238980D01*
X0054193Y0240124D01*
X0072292Y0240124D01*
X0071912Y0239931D01*
X0071320Y0239501D01*
X0070803Y0238983D01*
X0070372Y0238391D01*
X0070040Y0237739D01*
X0069814Y0237043D01*
X0069699Y0236320D01*
X0069699Y0230139D01*
X0073865Y0230139D01*
X0073865Y0229171D01*
X0074833Y0229171D01*
X0074833Y0225024D01*
X0075438Y0225120D01*
X0076134Y0225346D01*
X0076786Y0225679D01*
X0077378Y0226109D01*
X0077896Y0226626D01*
X0078326Y0227218D01*
X0078658Y0227870D01*
X0078884Y0228566D01*
X0078980Y0229171D01*
X0074833Y0229171D01*
X0074833Y0230139D01*
X0078999Y0230139D01*
X0078999Y0236320D01*
X0078884Y0237043D01*
X0078658Y0237739D01*
X0078326Y0238391D01*
X0077896Y0238983D01*
X0077378Y0239501D01*
X0076786Y0239931D01*
X0076406Y0240124D01*
X0081826Y0240124D01*
X0081826Y0239733D01*
X0081825Y0239733D01*
X0080571Y0238479D01*
X0079892Y0236841D01*
X0079892Y0228769D01*
X0080571Y0227131D01*
X0081825Y0225877D01*
X0083463Y0225199D01*
X0085236Y0225199D01*
X0086874Y0225877D01*
X0088127Y0227131D01*
X0088806Y0228769D01*
X0088806Y0236841D01*
X0088127Y0238479D01*
X0086874Y0239733D01*
X0086840Y0239746D01*
X0086840Y0240124D01*
X0092771Y0240124D01*
X0091825Y0239733D01*
X0090571Y0238479D01*
X0089892Y0236841D01*
X0089892Y0228769D01*
X0090571Y0227131D01*
X0091825Y0225877D01*
X0093463Y0225199D01*
X0095236Y0225199D01*
X0095953Y0225496D01*
X0098624Y0222824D01*
X0230082Y0222824D01*
X0231140Y0223883D01*
X0235082Y0227824D01*
X0250286Y0227824D01*
X0250360Y0227645D01*
X0251347Y0226658D01*
X0252636Y0226124D01*
X0254031Y0226124D01*
X0255320Y0226658D01*
X0256306Y0227645D01*
X0256840Y0228934D01*
X0256840Y0230329D01*
X0256306Y0231618D01*
X0256100Y0231824D01*
X0275585Y0231824D01*
X0276901Y0230509D01*
X0276826Y0230329D01*
X0276826Y0228934D01*
X0277360Y0227645D01*
X0278347Y0226658D01*
X0279636Y0226124D01*
X0281031Y0226124D01*
X0282320Y0226658D01*
X0283306Y0227645D01*
X0283840Y0228934D01*
X0283840Y0230329D01*
X0283306Y0231618D01*
X0282320Y0232605D01*
X0281031Y0233139D01*
X0279636Y0233139D01*
X0279456Y0233064D01*
X0278140Y0234380D01*
X0277082Y0235439D01*
X0228806Y0235439D01*
X0228806Y0236841D01*
X0228127Y0238479D01*
X0226874Y0239733D01*
X0225927Y0240124D01*
X0249295Y0240124D01*
X0249826Y0239593D01*
X0249826Y0238934D01*
X0250360Y0237645D01*
X0251347Y0236658D01*
X0252636Y0236124D01*
X0254031Y0236124D01*
X0255320Y0236658D01*
X0255786Y0237124D01*
X0277881Y0237124D01*
X0278347Y0236658D01*
X0279636Y0236124D01*
X0281031Y0236124D01*
X0282320Y0236658D01*
X0283306Y0237645D01*
X0283840Y0238934D01*
X0283840Y0239124D01*
X0344059Y0239124D01*
X0343711Y0238980D01*
X0341008Y0236278D01*
X0339546Y0232747D01*
X0339546Y0228925D01*
X0341008Y0225395D01*
X0343711Y0222692D01*
X0347241Y0221230D01*
X0351063Y0221230D01*
X0354594Y0222692D01*
X0357296Y0225395D01*
X0358420Y0228108D01*
X0358420Y0226696D01*
X0359076Y0225113D01*
X0360287Y0223901D01*
X0361870Y0223246D01*
X0369584Y0223246D01*
X0371167Y0223901D01*
X0372378Y0225113D01*
X0373034Y0226696D01*
X0373034Y0228410D01*
X0372378Y0229993D01*
X0371167Y0231204D01*
X0369584Y0231860D01*
X0368234Y0231860D01*
X0368234Y0232737D01*
X0367852Y0233658D01*
X0358459Y0243052D01*
X0357753Y0243757D01*
X0356832Y0244139D01*
X0281835Y0244139D01*
X0280913Y0243757D01*
X0280295Y0243139D01*
X0279636Y0243139D01*
X0278347Y0242605D01*
X0277881Y0242139D01*
X0255786Y0242139D01*
X0255320Y0242605D01*
X0254031Y0243139D01*
X0253372Y0243139D01*
X0252459Y0244052D01*
X0251753Y0244757D01*
X0250832Y0245139D01*
X0026835Y0245139D01*
X0025913Y0244757D01*
X0025208Y0244052D01*
X0024490Y0243334D02*
X0007333Y0243334D01*
X0007333Y0242335D02*
X0023492Y0242335D01*
X0022493Y0241337D02*
X0007333Y0241337D01*
X0007333Y0240338D02*
X0013194Y0240338D01*
X0012991Y0239340D02*
X0007333Y0239340D01*
X0007333Y0238341D02*
X0012991Y0238341D01*
X0012991Y0237343D02*
X0007333Y0237343D01*
X0007333Y0236344D02*
X0016944Y0236344D01*
X0016944Y0236132D02*
X0012991Y0236132D01*
X0012991Y0233481D01*
X0013093Y0233100D01*
X0013291Y0232758D01*
X0013570Y0232479D01*
X0013912Y0232281D01*
X0014293Y0232179D01*
X0016944Y0232179D01*
X0016944Y0236132D01*
X0016944Y0235346D02*
X0017944Y0235346D01*
X0017944Y0234347D02*
X0016944Y0234347D01*
X0016944Y0233349D02*
X0017944Y0233349D01*
X0017944Y0232350D02*
X0016944Y0232350D01*
X0013792Y0232350D02*
X0007333Y0232350D01*
X0007333Y0231352D02*
X0021826Y0231352D01*
X0021826Y0232350D02*
X0021095Y0232350D01*
X0021826Y0230353D02*
X0007333Y0230353D01*
X0007333Y0229355D02*
X0021621Y0229355D01*
X0020623Y0228356D02*
X0007333Y0228356D01*
X0007333Y0227358D02*
X0019624Y0227358D01*
X0018626Y0226359D02*
X0007333Y0226359D01*
X0007333Y0225361D02*
X0013419Y0225361D01*
X0013184Y0224362D02*
X0007333Y0224362D01*
X0007333Y0223364D02*
X0013184Y0223364D01*
X0013184Y0222365D02*
X0007333Y0222365D01*
X0007333Y0221367D02*
X0013184Y0221367D01*
X0013184Y0220368D02*
X0007333Y0220368D01*
X0007333Y0219370D02*
X0013184Y0219370D01*
X0013184Y0218371D02*
X0007333Y0218371D01*
X0007333Y0217373D02*
X0013949Y0217373D01*
X0014936Y0216374D02*
X0007333Y0216374D01*
X0007333Y0215376D02*
X0014936Y0215376D01*
X0014936Y0214377D02*
X0007333Y0214377D01*
X0007333Y0213379D02*
X0014936Y0213379D01*
X0014936Y0212380D02*
X0007333Y0212380D01*
X0007333Y0211381D02*
X0014936Y0211381D01*
X0013441Y0210383D02*
X0007333Y0210383D01*
X0007333Y0209384D02*
X0013184Y0209384D01*
X0013184Y0208386D02*
X0007333Y0208386D01*
X0007333Y0207387D02*
X0013184Y0207387D01*
X0013184Y0206389D02*
X0007333Y0206389D01*
X0007333Y0205390D02*
X0013184Y0205390D01*
X0013184Y0204392D02*
X0007333Y0204392D01*
X0007333Y0203393D02*
X0013184Y0203393D01*
X0013926Y0202395D02*
X0007333Y0202395D01*
X0007333Y0201396D02*
X0014936Y0201396D01*
X0014936Y0200398D02*
X0007333Y0200398D01*
X0007333Y0199399D02*
X0014936Y0199399D01*
X0014936Y0198401D02*
X0007333Y0198401D01*
X0007333Y0197402D02*
X0014936Y0197402D01*
X0014936Y0196404D02*
X0007333Y0196404D01*
X0007333Y0195405D02*
X0013463Y0195405D01*
X0013184Y0194407D02*
X0007333Y0194407D01*
X0007333Y0193408D02*
X0013184Y0193408D01*
X0013184Y0192410D02*
X0007333Y0192410D01*
X0007333Y0191411D02*
X0013184Y0191411D01*
X0013184Y0190413D02*
X0007333Y0190413D01*
X0007333Y0189414D02*
X0013184Y0189414D01*
X0013184Y0188416D02*
X0007333Y0188416D01*
X0007333Y0187417D02*
X0013904Y0187417D01*
X0020983Y0187417D02*
X0027683Y0187417D01*
X0027729Y0187372D02*
X0026963Y0188137D01*
X0026963Y0195126D01*
X0027729Y0195891D01*
X0034717Y0195891D01*
X0035483Y0195126D01*
X0035483Y0193739D01*
X0036711Y0193739D01*
X0036711Y0194338D01*
X0037477Y0195104D01*
X0042497Y0195104D01*
X0043262Y0194338D01*
X0043262Y0194185D01*
X0043314Y0194376D01*
X0043511Y0194718D01*
X0043790Y0194997D01*
X0044132Y0195195D01*
X0044514Y0195297D01*
X0046196Y0195297D01*
X0046196Y0192116D01*
X0047164Y0192116D01*
X0047164Y0195297D01*
X0048846Y0195297D01*
X0049227Y0195195D01*
X0049569Y0194997D01*
X0049849Y0194718D01*
X0050046Y0194376D01*
X0050148Y0193994D01*
X0050148Y0192116D01*
X0047164Y0192116D01*
X0047164Y0191147D01*
X0047164Y0187966D01*
X0048846Y0187966D01*
X0049227Y0188068D01*
X0049569Y0188266D01*
X0049849Y0188545D01*
X0050046Y0188887D01*
X0050148Y0189269D01*
X0050148Y0191147D01*
X0047164Y0191147D01*
X0046196Y0191147D01*
X0046196Y0187966D01*
X0044514Y0187966D01*
X0044132Y0188068D01*
X0043790Y0188266D01*
X0043511Y0188545D01*
X0043314Y0188887D01*
X0043262Y0189078D01*
X0043262Y0188925D01*
X0042497Y0188159D01*
X0037477Y0188159D01*
X0036711Y0188925D01*
X0036711Y0189524D01*
X0035483Y0189524D01*
X0035483Y0188137D01*
X0034717Y0187372D01*
X0027729Y0187372D01*
X0026963Y0188416D02*
X0021703Y0188416D01*
X0021703Y0189414D02*
X0026963Y0189414D01*
X0026963Y0190413D02*
X0021703Y0190413D01*
X0021703Y0191411D02*
X0026963Y0191411D01*
X0026963Y0192410D02*
X0021703Y0192410D01*
X0021703Y0193408D02*
X0026963Y0193408D01*
X0026963Y0194407D02*
X0021703Y0194407D01*
X0021424Y0195405D02*
X0027243Y0195405D01*
X0035203Y0195405D02*
X0064109Y0195405D01*
X0064109Y0194407D02*
X0050028Y0194407D01*
X0050148Y0193408D02*
X0064109Y0193408D01*
X0064147Y0192410D02*
X0057154Y0192410D01*
X0057440Y0192123D02*
X0056675Y0192889D01*
X0051992Y0192889D01*
X0051226Y0192123D01*
X0051226Y0190322D01*
X0051026Y0189839D01*
X0051026Y0180884D01*
X0050540Y0180884D01*
X0049774Y0180118D01*
X0049774Y0175098D01*
X0050540Y0174332D01*
X0053497Y0174332D01*
X0053573Y0174301D01*
X0064302Y0174301D01*
X0064302Y0172523D01*
X0065067Y0171758D01*
X0075599Y0171758D01*
X0076365Y0172523D01*
X0076365Y0175324D01*
X0080731Y0175324D01*
X0081947Y0175828D01*
X0086144Y0180025D01*
X0088827Y0180025D01*
X0089593Y0180791D01*
X0089593Y0186992D01*
X0089058Y0187527D01*
X0089207Y0187612D01*
X0089486Y0187892D01*
X0089684Y0188234D01*
X0089786Y0188615D01*
X0089786Y0190872D01*
X0085833Y0190872D01*
X0085833Y0191872D01*
X0084833Y0191872D01*
X0084833Y0190872D01*
X0080881Y0190872D01*
X0080881Y0188615D01*
X0080983Y0188234D01*
X0081180Y0187892D01*
X0081460Y0187612D01*
X0081608Y0187527D01*
X0081073Y0186992D01*
X0081073Y0184308D01*
X0078704Y0181939D01*
X0076365Y0181939D01*
X0076365Y0183055D01*
X0075599Y0183821D01*
X0065067Y0183821D01*
X0064302Y0183055D01*
X0064302Y0180915D01*
X0057640Y0180915D01*
X0057640Y0189839D01*
X0057440Y0190322D01*
X0057440Y0192123D01*
X0057440Y0191411D02*
X0064927Y0191411D01*
X0069833Y0191411D02*
X0070833Y0191411D01*
X0070833Y0192410D02*
X0069833Y0192410D01*
X0069833Y0193408D02*
X0070833Y0193408D01*
X0070833Y0194407D02*
X0069833Y0194407D01*
X0069833Y0195405D02*
X0070833Y0195405D01*
X0070833Y0196404D02*
X0069833Y0196404D01*
X0069833Y0197402D02*
X0038145Y0197402D01*
X0038916Y0198401D02*
X0051966Y0198401D01*
X0051226Y0199399D02*
X0039647Y0199399D01*
X0036550Y0203393D02*
X0035483Y0203393D01*
X0035483Y0203137D02*
X0035483Y0204524D01*
X0036711Y0204524D01*
X0036711Y0203925D01*
X0036896Y0203740D01*
X0035560Y0202404D01*
X0034920Y0202139D01*
X0019951Y0202139D01*
X0019951Y0202372D01*
X0020938Y0202372D01*
X0021703Y0203137D01*
X0021703Y0210126D01*
X0020938Y0210891D01*
X0019951Y0210891D01*
X0019951Y0217372D01*
X0020938Y0217372D01*
X0021703Y0218137D01*
X0021703Y0222346D01*
X0026459Y0227101D01*
X0026840Y0228023D01*
X0026840Y0238593D01*
X0026963Y0238716D01*
X0026963Y0233137D01*
X0027729Y0232372D01*
X0032503Y0232372D01*
X0037880Y0226995D01*
X0037880Y0222104D01*
X0037477Y0222104D01*
X0036711Y0221338D01*
X0036711Y0216233D01*
X0035145Y0217800D01*
X0035483Y0218137D01*
X0035483Y0225126D01*
X0034717Y0225891D01*
X0027729Y0225891D01*
X0026963Y0225126D01*
X0026963Y0218137D01*
X0027729Y0217372D01*
X0029613Y0217372D01*
X0035226Y0211759D01*
X0035226Y0211759D01*
X0036461Y0210524D01*
X0036711Y0210524D01*
X0036711Y0209925D01*
X0037005Y0209632D01*
X0036711Y0209338D01*
X0036711Y0208739D01*
X0035483Y0208739D01*
X0035483Y0210126D01*
X0034717Y0210891D01*
X0027729Y0210891D01*
X0026963Y0210126D01*
X0026963Y0203137D01*
X0027729Y0202372D01*
X0034717Y0202372D01*
X0035483Y0203137D01*
X0035539Y0202395D02*
X0034740Y0202395D01*
X0035483Y0204392D02*
X0036711Y0204392D01*
X0043262Y0204589D02*
X0043262Y0209338D01*
X0042969Y0209632D01*
X0043262Y0209925D01*
X0043262Y0215338D01*
X0042969Y0215632D01*
X0043262Y0215925D01*
X0043262Y0221338D01*
X0042497Y0222104D01*
X0042094Y0222104D01*
X0042094Y0228477D01*
X0043371Y0225395D01*
X0046073Y0222692D01*
X0047494Y0222104D01*
X0044170Y0222104D01*
X0043404Y0221338D01*
X0043404Y0215925D01*
X0043697Y0215632D01*
X0043404Y0215338D01*
X0043404Y0209925D01*
X0043697Y0209632D01*
X0043404Y0209338D01*
X0043404Y0204589D01*
X0043262Y0204589D01*
X0043262Y0205390D02*
X0043404Y0205390D01*
X0043404Y0206389D02*
X0043262Y0206389D01*
X0043262Y0207387D02*
X0043404Y0207387D01*
X0043404Y0208386D02*
X0043262Y0208386D01*
X0043216Y0209384D02*
X0043450Y0209384D01*
X0043404Y0210383D02*
X0043262Y0210383D01*
X0043262Y0211381D02*
X0043404Y0211381D01*
X0043404Y0212380D02*
X0043262Y0212380D01*
X0043262Y0213379D02*
X0043404Y0213379D01*
X0043404Y0214377D02*
X0043262Y0214377D01*
X0043225Y0215376D02*
X0043441Y0215376D01*
X0043404Y0216374D02*
X0043262Y0216374D01*
X0043262Y0217373D02*
X0043404Y0217373D01*
X0043404Y0218371D02*
X0043262Y0218371D01*
X0043262Y0219370D02*
X0043404Y0219370D01*
X0043404Y0220368D02*
X0043262Y0220368D01*
X0043234Y0221367D02*
X0043432Y0221367D01*
X0042094Y0222365D02*
X0046863Y0222365D01*
X0045402Y0223364D02*
X0042094Y0223364D01*
X0042094Y0224362D02*
X0044403Y0224362D01*
X0043405Y0225361D02*
X0042094Y0225361D01*
X0042094Y0226359D02*
X0042971Y0226359D01*
X0042558Y0227358D02*
X0042094Y0227358D01*
X0042094Y0228356D02*
X0042144Y0228356D01*
X0041908Y0228926D02*
X0035483Y0235352D01*
X0035483Y0240124D01*
X0048836Y0240124D01*
X0046073Y0238980D01*
X0043371Y0236278D01*
X0041908Y0232747D01*
X0041908Y0228926D01*
X0041908Y0229355D02*
X0041480Y0229355D01*
X0041908Y0230353D02*
X0040481Y0230353D01*
X0039483Y0231352D02*
X0041908Y0231352D01*
X0041908Y0232350D02*
X0038484Y0232350D01*
X0037486Y0233349D02*
X0042157Y0233349D01*
X0042571Y0234347D02*
X0036487Y0234347D01*
X0035489Y0235346D02*
X0042985Y0235346D01*
X0043437Y0236344D02*
X0035483Y0236344D01*
X0035483Y0237343D02*
X0044436Y0237343D01*
X0045434Y0238341D02*
X0035483Y0238341D01*
X0035483Y0239340D02*
X0046941Y0239340D01*
X0056088Y0239340D02*
X0071159Y0239340D01*
X0070347Y0238341D02*
X0057595Y0238341D01*
X0058593Y0237343D02*
X0069911Y0237343D01*
X0069703Y0236344D02*
X0059592Y0236344D01*
X0060044Y0235346D02*
X0069699Y0235346D01*
X0069699Y0234347D02*
X0060458Y0234347D01*
X0060872Y0233349D02*
X0069699Y0233349D01*
X0069699Y0232350D02*
X0061121Y0232350D01*
X0061121Y0231352D02*
X0069699Y0231352D01*
X0069699Y0230353D02*
X0061121Y0230353D01*
X0061121Y0229355D02*
X0073865Y0229355D01*
X0073865Y0229171D02*
X0069718Y0229171D01*
X0069814Y0228566D01*
X0070040Y0227870D01*
X0070372Y0227218D01*
X0070803Y0226626D01*
X0071320Y0226109D01*
X0071912Y0225679D01*
X0072564Y0225346D01*
X0073260Y0225120D01*
X0073865Y0225024D01*
X0073865Y0229171D01*
X0073865Y0228356D02*
X0074833Y0228356D01*
X0074833Y0227358D02*
X0073865Y0227358D01*
X0073865Y0226359D02*
X0074833Y0226359D01*
X0074833Y0225361D02*
X0073865Y0225361D01*
X0072536Y0225361D02*
X0059624Y0225361D01*
X0060058Y0226359D02*
X0071070Y0226359D01*
X0070301Y0227358D02*
X0060471Y0227358D01*
X0060885Y0228356D02*
X0069882Y0228356D01*
X0074833Y0229355D02*
X0079892Y0229355D01*
X0079892Y0230353D02*
X0078999Y0230353D01*
X0078999Y0231352D02*
X0079892Y0231352D01*
X0079892Y0232350D02*
X0078999Y0232350D01*
X0078999Y0233349D02*
X0079892Y0233349D01*
X0079892Y0234347D02*
X0078999Y0234347D01*
X0078999Y0235346D02*
X0079892Y0235346D01*
X0079892Y0236344D02*
X0078995Y0236344D01*
X0078787Y0237343D02*
X0080100Y0237343D01*
X0080514Y0238341D02*
X0078351Y0238341D01*
X0077539Y0239340D02*
X0081432Y0239340D01*
X0087266Y0239340D02*
X0091432Y0239340D01*
X0090514Y0238341D02*
X0088184Y0238341D01*
X0088598Y0237343D02*
X0090100Y0237343D01*
X0089892Y0236344D02*
X0088806Y0236344D01*
X0088806Y0235346D02*
X0089892Y0235346D01*
X0089892Y0234347D02*
X0088806Y0234347D01*
X0088806Y0233349D02*
X0089892Y0233349D01*
X0089892Y0232350D02*
X0088806Y0232350D01*
X0088806Y0231352D02*
X0089892Y0231352D01*
X0089892Y0230353D02*
X0088806Y0230353D01*
X0088806Y0229355D02*
X0089892Y0229355D01*
X0090063Y0228356D02*
X0088635Y0228356D01*
X0088221Y0227358D02*
X0090477Y0227358D01*
X0091342Y0226359D02*
X0087356Y0226359D01*
X0085627Y0225361D02*
X0093071Y0225361D01*
X0095627Y0225361D02*
X0096088Y0225361D01*
X0097087Y0224362D02*
X0058626Y0224362D01*
X0057627Y0223364D02*
X0098085Y0223364D01*
X0099373Y0224632D02*
X0094349Y0229655D01*
X0098509Y0228051D02*
X0098806Y0228769D01*
X0098806Y0236841D01*
X0098127Y0238479D01*
X0096874Y0239733D01*
X0095927Y0240124D01*
X0102771Y0240124D01*
X0101825Y0239733D01*
X0100571Y0238479D01*
X0099892Y0236841D01*
X0099892Y0228769D01*
X0100571Y0227131D01*
X0101263Y0226439D01*
X0100121Y0226439D01*
X0098509Y0228051D01*
X0098635Y0228356D02*
X0100063Y0228356D01*
X0099892Y0229355D02*
X0098806Y0229355D01*
X0098806Y0230353D02*
X0099892Y0230353D01*
X0099892Y0231352D02*
X0098806Y0231352D01*
X0098806Y0232350D02*
X0099892Y0232350D01*
X0099892Y0233349D02*
X0098806Y0233349D01*
X0098806Y0234347D02*
X0099892Y0234347D01*
X0099892Y0235346D02*
X0098806Y0235346D01*
X0098806Y0236344D02*
X0099892Y0236344D01*
X0100100Y0237343D02*
X0098598Y0237343D01*
X0098184Y0238341D02*
X0100514Y0238341D01*
X0101432Y0239340D02*
X0097266Y0239340D01*
X0105927Y0240124D02*
X0112771Y0240124D01*
X0111825Y0239733D01*
X0110571Y0238479D01*
X0109892Y0236841D01*
X0109892Y0228769D01*
X0110571Y0227131D01*
X0111263Y0226439D01*
X0107435Y0226439D01*
X0108127Y0227131D01*
X0108806Y0228769D01*
X0108806Y0236841D01*
X0108127Y0238479D01*
X0106874Y0239733D01*
X0105927Y0240124D01*
X0107266Y0239340D02*
X0111432Y0239340D01*
X0110514Y0238341D02*
X0108184Y0238341D01*
X0108598Y0237343D02*
X0110100Y0237343D01*
X0109892Y0236344D02*
X0108806Y0236344D01*
X0108806Y0235346D02*
X0109892Y0235346D01*
X0109892Y0234347D02*
X0108806Y0234347D01*
X0108806Y0233349D02*
X0109892Y0233349D01*
X0109892Y0232350D02*
X0108806Y0232350D01*
X0108806Y0231352D02*
X0109892Y0231352D01*
X0109892Y0230353D02*
X0108806Y0230353D01*
X0108806Y0229355D02*
X0109892Y0229355D01*
X0110063Y0228356D02*
X0108635Y0228356D01*
X0108221Y0227358D02*
X0110477Y0227358D01*
X0117435Y0226439D02*
X0118127Y0227131D01*
X0118806Y0228769D01*
X0118806Y0236841D01*
X0118127Y0238479D01*
X0116874Y0239733D01*
X0115927Y0240124D01*
X0122771Y0240124D01*
X0121825Y0239733D01*
X0120571Y0238479D01*
X0119892Y0236841D01*
X0119892Y0228769D01*
X0120571Y0227131D01*
X0121263Y0226439D01*
X0117435Y0226439D01*
X0118221Y0227358D02*
X0120477Y0227358D01*
X0120063Y0228356D02*
X0118635Y0228356D01*
X0118806Y0229355D02*
X0119892Y0229355D01*
X0119892Y0230353D02*
X0118806Y0230353D01*
X0118806Y0231352D02*
X0119892Y0231352D01*
X0119892Y0232350D02*
X0118806Y0232350D01*
X0118806Y0233349D02*
X0119892Y0233349D01*
X0119892Y0234347D02*
X0118806Y0234347D01*
X0118806Y0235346D02*
X0119892Y0235346D01*
X0119892Y0236344D02*
X0118806Y0236344D01*
X0118598Y0237343D02*
X0120100Y0237343D01*
X0120514Y0238341D02*
X0118184Y0238341D01*
X0117266Y0239340D02*
X0121432Y0239340D01*
X0125927Y0240124D02*
X0132771Y0240124D01*
X0131825Y0239733D01*
X0130571Y0238479D01*
X0129892Y0236841D01*
X0129892Y0228769D01*
X0130571Y0227131D01*
X0131263Y0226439D01*
X0127435Y0226439D01*
X0128127Y0227131D01*
X0128806Y0228769D01*
X0128806Y0236841D01*
X0128127Y0238479D01*
X0126874Y0239733D01*
X0125927Y0240124D01*
X0127266Y0239340D02*
X0131432Y0239340D01*
X0130514Y0238341D02*
X0128184Y0238341D01*
X0128598Y0237343D02*
X0130100Y0237343D01*
X0129892Y0236344D02*
X0128806Y0236344D01*
X0128806Y0235346D02*
X0129892Y0235346D01*
X0129892Y0234347D02*
X0128806Y0234347D01*
X0128806Y0233349D02*
X0129892Y0233349D01*
X0129892Y0232350D02*
X0128806Y0232350D01*
X0128806Y0231352D02*
X0129892Y0231352D01*
X0129892Y0230353D02*
X0128806Y0230353D01*
X0128806Y0229355D02*
X0129892Y0229355D01*
X0130063Y0228356D02*
X0128635Y0228356D01*
X0128221Y0227358D02*
X0130477Y0227358D01*
X0137435Y0226439D02*
X0138127Y0227131D01*
X0138806Y0228769D01*
X0138806Y0236841D01*
X0138127Y0238479D01*
X0136874Y0239733D01*
X0135927Y0240124D01*
X0142771Y0240124D01*
X0141825Y0239733D01*
X0140571Y0238479D01*
X0139892Y0236841D01*
X0139892Y0228769D01*
X0140571Y0227131D01*
X0141263Y0226439D01*
X0137435Y0226439D01*
X0138221Y0227358D02*
X0140477Y0227358D01*
X0140063Y0228356D02*
X0138635Y0228356D01*
X0138806Y0229355D02*
X0139892Y0229355D01*
X0139892Y0230353D02*
X0138806Y0230353D01*
X0138806Y0231352D02*
X0139892Y0231352D01*
X0139892Y0232350D02*
X0138806Y0232350D01*
X0138806Y0233349D02*
X0139892Y0233349D01*
X0139892Y0234347D02*
X0138806Y0234347D01*
X0138806Y0235346D02*
X0139892Y0235346D01*
X0139892Y0236344D02*
X0138806Y0236344D01*
X0138598Y0237343D02*
X0140100Y0237343D01*
X0140514Y0238341D02*
X0138184Y0238341D01*
X0137266Y0239340D02*
X0141432Y0239340D01*
X0145927Y0240124D02*
X0152771Y0240124D01*
X0151825Y0239733D01*
X0150571Y0238479D01*
X0149892Y0236841D01*
X0149892Y0228769D01*
X0150571Y0227131D01*
X0151263Y0226439D01*
X0147435Y0226439D01*
X0148127Y0227131D01*
X0148806Y0228769D01*
X0148806Y0236841D01*
X0148127Y0238479D01*
X0146874Y0239733D01*
X0145927Y0240124D01*
X0147266Y0239340D02*
X0151432Y0239340D01*
X0150514Y0238341D02*
X0148184Y0238341D01*
X0148598Y0237343D02*
X0150100Y0237343D01*
X0149892Y0236344D02*
X0148806Y0236344D01*
X0148806Y0235346D02*
X0149892Y0235346D01*
X0149892Y0234347D02*
X0148806Y0234347D01*
X0148806Y0233349D02*
X0149892Y0233349D01*
X0149892Y0232350D02*
X0148806Y0232350D01*
X0148806Y0231352D02*
X0149892Y0231352D01*
X0149892Y0230353D02*
X0148806Y0230353D01*
X0148806Y0229355D02*
X0149892Y0229355D01*
X0150063Y0228356D02*
X0148635Y0228356D01*
X0148221Y0227358D02*
X0150477Y0227358D01*
X0157435Y0226439D02*
X0158127Y0227131D01*
X0158806Y0228769D01*
X0158806Y0236841D01*
X0158127Y0238479D01*
X0156874Y0239733D01*
X0155927Y0240124D01*
X0162771Y0240124D01*
X0161825Y0239733D01*
X0160571Y0238479D01*
X0159892Y0236841D01*
X0159892Y0228769D01*
X0160571Y0227131D01*
X0161263Y0226439D01*
X0157435Y0226439D01*
X0158221Y0227358D02*
X0160477Y0227358D01*
X0160063Y0228356D02*
X0158635Y0228356D01*
X0158806Y0229355D02*
X0159892Y0229355D01*
X0159892Y0230353D02*
X0158806Y0230353D01*
X0158806Y0231352D02*
X0159892Y0231352D01*
X0159892Y0232350D02*
X0158806Y0232350D01*
X0158806Y0233349D02*
X0159892Y0233349D01*
X0159892Y0234347D02*
X0158806Y0234347D01*
X0158806Y0235346D02*
X0159892Y0235346D01*
X0159892Y0236344D02*
X0158806Y0236344D01*
X0158598Y0237343D02*
X0160100Y0237343D01*
X0160514Y0238341D02*
X0158184Y0238341D01*
X0157266Y0239340D02*
X0161432Y0239340D01*
X0165927Y0240124D02*
X0172771Y0240124D01*
X0171825Y0239733D01*
X0170571Y0238479D01*
X0169892Y0236841D01*
X0169892Y0228769D01*
X0170571Y0227131D01*
X0171263Y0226439D01*
X0167435Y0226439D01*
X0168127Y0227131D01*
X0168806Y0228769D01*
X0168806Y0236841D01*
X0168127Y0238479D01*
X0166874Y0239733D01*
X0165927Y0240124D01*
X0167266Y0239340D02*
X0171432Y0239340D01*
X0170514Y0238341D02*
X0168184Y0238341D01*
X0168598Y0237343D02*
X0170100Y0237343D01*
X0169892Y0236344D02*
X0168806Y0236344D01*
X0168806Y0235346D02*
X0169892Y0235346D01*
X0169892Y0234347D02*
X0168806Y0234347D01*
X0168806Y0233349D02*
X0169892Y0233349D01*
X0169892Y0232350D02*
X0168806Y0232350D01*
X0168806Y0231352D02*
X0169892Y0231352D01*
X0169892Y0230353D02*
X0168806Y0230353D01*
X0168806Y0229355D02*
X0169892Y0229355D01*
X0170063Y0228356D02*
X0168635Y0228356D01*
X0168221Y0227358D02*
X0170477Y0227358D01*
X0177435Y0226439D02*
X0178127Y0227131D01*
X0178806Y0228769D01*
X0178806Y0236841D01*
X0178127Y0238479D01*
X0176874Y0239733D01*
X0175927Y0240124D01*
X0182771Y0240124D01*
X0181825Y0239733D01*
X0180571Y0238479D01*
X0179892Y0236841D01*
X0179892Y0228769D01*
X0180571Y0227131D01*
X0181263Y0226439D01*
X0177435Y0226439D01*
X0178221Y0227358D02*
X0180477Y0227358D01*
X0180063Y0228356D02*
X0178635Y0228356D01*
X0178806Y0229355D02*
X0179892Y0229355D01*
X0179892Y0230353D02*
X0178806Y0230353D01*
X0178806Y0231352D02*
X0179892Y0231352D01*
X0179892Y0232350D02*
X0178806Y0232350D01*
X0178806Y0233349D02*
X0179892Y0233349D01*
X0179892Y0234347D02*
X0178806Y0234347D01*
X0178806Y0235346D02*
X0179892Y0235346D01*
X0179892Y0236344D02*
X0178806Y0236344D01*
X0178598Y0237343D02*
X0180100Y0237343D01*
X0180514Y0238341D02*
X0178184Y0238341D01*
X0177266Y0239340D02*
X0181432Y0239340D01*
X0185927Y0240124D02*
X0192771Y0240124D01*
X0191825Y0239733D01*
X0190571Y0238479D01*
X0189892Y0236841D01*
X0189892Y0228769D01*
X0190571Y0227131D01*
X0191263Y0226439D01*
X0187435Y0226439D01*
X0188127Y0227131D01*
X0188806Y0228769D01*
X0188806Y0236841D01*
X0188127Y0238479D01*
X0186874Y0239733D01*
X0185927Y0240124D01*
X0187266Y0239340D02*
X0191432Y0239340D01*
X0190514Y0238341D02*
X0188184Y0238341D01*
X0188598Y0237343D02*
X0190100Y0237343D01*
X0189892Y0236344D02*
X0188806Y0236344D01*
X0188806Y0235346D02*
X0189892Y0235346D01*
X0189892Y0234347D02*
X0188806Y0234347D01*
X0188806Y0233349D02*
X0189892Y0233349D01*
X0189892Y0232350D02*
X0188806Y0232350D01*
X0188806Y0231352D02*
X0189892Y0231352D01*
X0189892Y0230353D02*
X0188806Y0230353D01*
X0188806Y0229355D02*
X0189892Y0229355D01*
X0190063Y0228356D02*
X0188635Y0228356D01*
X0188221Y0227358D02*
X0190477Y0227358D01*
X0197435Y0226439D02*
X0198127Y0227131D01*
X0198806Y0228769D01*
X0198806Y0236841D01*
X0198127Y0238479D01*
X0196874Y0239733D01*
X0195927Y0240124D01*
X0202771Y0240124D01*
X0201825Y0239733D01*
X0200571Y0238479D01*
X0199892Y0236841D01*
X0199892Y0228769D01*
X0200571Y0227131D01*
X0201263Y0226439D01*
X0197435Y0226439D01*
X0198221Y0227358D02*
X0200477Y0227358D01*
X0200063Y0228356D02*
X0198635Y0228356D01*
X0198806Y0229355D02*
X0199892Y0229355D01*
X0199892Y0230353D02*
X0198806Y0230353D01*
X0198806Y0231352D02*
X0199892Y0231352D01*
X0199892Y0232350D02*
X0198806Y0232350D01*
X0198806Y0233349D02*
X0199892Y0233349D01*
X0199892Y0234347D02*
X0198806Y0234347D01*
X0198806Y0235346D02*
X0199892Y0235346D01*
X0199892Y0236344D02*
X0198806Y0236344D01*
X0198598Y0237343D02*
X0200100Y0237343D01*
X0200514Y0238341D02*
X0198184Y0238341D01*
X0197266Y0239340D02*
X0201432Y0239340D01*
X0205927Y0240124D02*
X0212771Y0240124D01*
X0211825Y0239733D01*
X0210571Y0238479D01*
X0209892Y0236841D01*
X0209892Y0228769D01*
X0210571Y0227131D01*
X0211263Y0226439D01*
X0207435Y0226439D01*
X0208127Y0227131D01*
X0208806Y0228769D01*
X0208806Y0236841D01*
X0208127Y0238479D01*
X0206874Y0239733D01*
X0205927Y0240124D01*
X0207266Y0239340D02*
X0211432Y0239340D01*
X0210514Y0238341D02*
X0208184Y0238341D01*
X0208598Y0237343D02*
X0210100Y0237343D01*
X0209892Y0236344D02*
X0208806Y0236344D01*
X0208806Y0235346D02*
X0209892Y0235346D01*
X0209892Y0234347D02*
X0208806Y0234347D01*
X0208806Y0233349D02*
X0209892Y0233349D01*
X0209892Y0232350D02*
X0208806Y0232350D01*
X0208806Y0231352D02*
X0209892Y0231352D01*
X0209892Y0230353D02*
X0208806Y0230353D01*
X0208806Y0229355D02*
X0209892Y0229355D01*
X0210063Y0228356D02*
X0208635Y0228356D01*
X0208221Y0227358D02*
X0210477Y0227358D01*
X0217435Y0226439D02*
X0218127Y0227131D01*
X0218806Y0228769D01*
X0218806Y0236841D01*
X0218127Y0238479D01*
X0216874Y0239733D01*
X0215927Y0240124D01*
X0222771Y0240124D01*
X0221825Y0239733D01*
X0220571Y0238479D01*
X0219892Y0236841D01*
X0219892Y0228769D01*
X0220571Y0227131D01*
X0221263Y0226439D01*
X0217435Y0226439D01*
X0218221Y0227358D02*
X0220477Y0227358D01*
X0220063Y0228356D02*
X0218635Y0228356D01*
X0218806Y0229355D02*
X0219892Y0229355D01*
X0219892Y0230353D02*
X0218806Y0230353D01*
X0218806Y0231352D02*
X0219892Y0231352D01*
X0219892Y0232350D02*
X0218806Y0232350D01*
X0218806Y0233349D02*
X0219892Y0233349D01*
X0219892Y0234347D02*
X0218806Y0234347D01*
X0218806Y0235346D02*
X0219892Y0235346D01*
X0219892Y0236344D02*
X0218806Y0236344D01*
X0218598Y0237343D02*
X0220100Y0237343D01*
X0220514Y0238341D02*
X0218184Y0238341D01*
X0217266Y0239340D02*
X0221432Y0239340D01*
X0227266Y0239340D02*
X0249826Y0239340D01*
X0250072Y0238341D02*
X0228184Y0238341D01*
X0228598Y0237343D02*
X0250662Y0237343D01*
X0252105Y0236344D02*
X0228806Y0236344D01*
X0228325Y0233632D02*
X0224349Y0229655D01*
X0227435Y0226439D02*
X0228127Y0227131D01*
X0228806Y0228769D01*
X0228806Y0231556D01*
X0229074Y0231824D01*
X0250566Y0231824D01*
X0250360Y0231618D01*
X0250286Y0231439D01*
X0233585Y0231439D01*
X0228585Y0226439D01*
X0227435Y0226439D01*
X0228221Y0227358D02*
X0229504Y0227358D01*
X0228635Y0228356D02*
X0230502Y0228356D01*
X0231501Y0229355D02*
X0228806Y0229355D01*
X0228806Y0230353D02*
X0232499Y0230353D01*
X0233498Y0231352D02*
X0228806Y0231352D01*
X0228325Y0233632D02*
X0276333Y0233632D01*
X0280333Y0229632D01*
X0277066Y0228356D02*
X0256601Y0228356D01*
X0256840Y0229355D02*
X0276826Y0229355D01*
X0276836Y0230353D02*
X0256830Y0230353D01*
X0256417Y0231352D02*
X0276058Y0231352D01*
X0278173Y0234347D02*
X0340209Y0234347D01*
X0339795Y0233349D02*
X0279172Y0233349D01*
X0277175Y0235346D02*
X0340622Y0235346D01*
X0341075Y0236344D02*
X0281562Y0236344D01*
X0283004Y0237343D02*
X0342073Y0237343D01*
X0343072Y0238341D02*
X0283595Y0238341D01*
X0279105Y0236344D02*
X0254562Y0236344D01*
X0253333Y0229632D02*
X0234333Y0229632D01*
X0229333Y0224632D01*
X0099373Y0224632D01*
X0099202Y0227358D02*
X0100477Y0227358D01*
X0083071Y0225361D02*
X0076162Y0225361D01*
X0077629Y0226359D02*
X0081342Y0226359D01*
X0080477Y0227358D02*
X0078397Y0227358D01*
X0078816Y0228356D02*
X0080063Y0228356D01*
X0067182Y0217373D02*
X0250393Y0217373D01*
X0250459Y0217273D02*
X0250975Y0216758D01*
X0251581Y0216353D01*
X0252254Y0216074D01*
X0252969Y0215932D01*
X0253233Y0215932D01*
X0253233Y0219531D01*
X0253433Y0219531D01*
X0253433Y0215932D01*
X0253698Y0215932D01*
X0254413Y0216074D01*
X0255086Y0216353D01*
X0255692Y0216758D01*
X0256207Y0217273D01*
X0256612Y0217879D01*
X0256891Y0218552D01*
X0257033Y0219267D01*
X0257033Y0219532D01*
X0253433Y0219532D01*
X0253433Y0219732D01*
X0253233Y0219732D01*
X0253233Y0223332D01*
X0252969Y0223332D01*
X0252254Y0223189D01*
X0251581Y0222910D01*
X0250975Y0222506D01*
X0250459Y0221990D01*
X0250054Y0221384D01*
X0249776Y0220711D01*
X0249633Y0219996D01*
X0249633Y0219732D01*
X0253233Y0219732D01*
X0253233Y0219532D01*
X0249633Y0219532D01*
X0249633Y0219267D01*
X0249776Y0218552D01*
X0250054Y0217879D01*
X0250459Y0217273D01*
X0249851Y0218371D02*
X0065291Y0218371D01*
X0064292Y0219370D02*
X0249633Y0219370D01*
X0249707Y0220368D02*
X0063294Y0220368D01*
X0061894Y0216374D02*
X0049955Y0216374D01*
X0049918Y0215376D02*
X0059492Y0215376D01*
X0061175Y0215376D02*
X0062892Y0215376D01*
X0062628Y0214377D02*
X0063476Y0214377D01*
X0063760Y0213379D02*
X0063116Y0213379D01*
X0063190Y0212380D02*
X0064544Y0212380D01*
X0062908Y0211381D02*
X0183043Y0211381D01*
X0182911Y0211250D02*
X0182476Y0210200D01*
X0182476Y0209063D01*
X0182911Y0208013D01*
X0183526Y0207398D01*
X0183526Y0182865D01*
X0182911Y0182250D01*
X0182476Y0181200D01*
X0182476Y0180063D01*
X0182911Y0179013D01*
X0183715Y0178209D01*
X0184765Y0177774D01*
X0185902Y0177774D01*
X0186952Y0178209D01*
X0187755Y0179013D01*
X0188190Y0180063D01*
X0188190Y0181200D01*
X0187755Y0182250D01*
X0187140Y0182865D01*
X0187140Y0207398D01*
X0187755Y0208013D01*
X0188190Y0209063D01*
X0188190Y0210200D01*
X0187755Y0211250D01*
X0186952Y0212054D01*
X0185902Y0212489D01*
X0184765Y0212489D01*
X0183715Y0212054D01*
X0182911Y0211250D01*
X0182552Y0210383D02*
X0062125Y0210383D01*
X0061153Y0209384D02*
X0182476Y0209384D01*
X0182757Y0208386D02*
X0062619Y0208386D01*
X0063113Y0207387D02*
X0183526Y0207387D01*
X0183526Y0206389D02*
X0146122Y0206389D01*
X0147120Y0205390D02*
X0183526Y0205390D01*
X0183526Y0204392D02*
X0148119Y0204392D01*
X0149117Y0203393D02*
X0183526Y0203393D01*
X0183526Y0202395D02*
X0150116Y0202395D01*
X0151114Y0201396D02*
X0183526Y0201396D01*
X0183526Y0200398D02*
X0152113Y0200398D01*
X0153111Y0199399D02*
X0183526Y0199399D01*
X0183526Y0198401D02*
X0154110Y0198401D01*
X0155108Y0197402D02*
X0183526Y0197402D01*
X0183526Y0196404D02*
X0156107Y0196404D01*
X0157105Y0195405D02*
X0183526Y0195405D01*
X0183526Y0194407D02*
X0158104Y0194407D01*
X0159102Y0193408D02*
X0183526Y0193408D01*
X0183526Y0192410D02*
X0160745Y0192410D01*
X0161502Y0191411D02*
X0183526Y0191411D01*
X0183526Y0190413D02*
X0161765Y0190413D01*
X0161672Y0189414D02*
X0183526Y0189414D01*
X0183526Y0188416D02*
X0161158Y0188416D01*
X0161015Y0187417D02*
X0183526Y0187417D01*
X0183526Y0186419D02*
X0161015Y0186419D01*
X0161015Y0185420D02*
X0183526Y0185420D01*
X0183526Y0184422D02*
X0161015Y0184422D01*
X0161015Y0183423D02*
X0183526Y0183423D01*
X0183086Y0182425D02*
X0161015Y0182425D01*
X0161015Y0181426D02*
X0182570Y0181426D01*
X0182476Y0180428D02*
X0161015Y0180428D01*
X0161015Y0179429D02*
X0182739Y0179429D01*
X0183494Y0178431D02*
X0161015Y0178431D01*
X0161015Y0177432D02*
X0230578Y0177432D01*
X0229580Y0176434D02*
X0161015Y0176434D01*
X0161015Y0175435D02*
X0228581Y0175435D01*
X0227583Y0174437D02*
X0170070Y0174437D01*
X0170648Y0173438D02*
X0226584Y0173438D01*
X0225586Y0172440D02*
X0197566Y0172440D01*
X0198247Y0171441D02*
X0224587Y0171441D01*
X0223589Y0170443D02*
X0198458Y0170443D01*
X0198312Y0169444D02*
X0222590Y0169444D01*
X0221592Y0168445D02*
X0199848Y0168445D01*
X0200609Y0167447D02*
X0220593Y0167447D01*
X0219595Y0166448D02*
X0200609Y0166448D01*
X0200609Y0165450D02*
X0218596Y0165450D01*
X0217598Y0164451D02*
X0200609Y0164451D01*
X0200609Y0163453D02*
X0216599Y0163453D01*
X0215601Y0162454D02*
X0200609Y0162454D01*
X0200145Y0161456D02*
X0214602Y0161456D01*
X0213604Y0160457D02*
X0200609Y0160457D01*
X0200609Y0159459D02*
X0212605Y0159459D01*
X0211607Y0158460D02*
X0200609Y0158460D01*
X0200609Y0157462D02*
X0210608Y0157462D01*
X0209610Y0156463D02*
X0200609Y0156463D01*
X0200495Y0155465D02*
X0208611Y0155465D01*
X0207612Y0154466D02*
X0199539Y0154466D01*
X0200079Y0153468D02*
X0206614Y0153468D01*
X0205615Y0152469D02*
X0200190Y0152469D01*
X0199945Y0151471D02*
X0204617Y0151471D01*
X0203618Y0150472D02*
X0199215Y0150472D01*
X0197333Y0152632D02*
X0197333Y0158285D01*
X0197333Y0157632D01*
X0197333Y0158285D02*
X0190987Y0158285D01*
X0187908Y0155206D01*
X0174066Y0155206D01*
X0174066Y0152057D02*
X0185255Y0152057D01*
X0196333Y0140978D01*
X0196680Y0140978D01*
X0232833Y0177132D01*
X0237333Y0177132D01*
X0239888Y0178431D02*
X0358420Y0178431D01*
X0358428Y0179429D02*
X0239076Y0179429D01*
X0240190Y0177432D02*
X0358529Y0177432D01*
X0358943Y0176434D02*
X0240137Y0176434D01*
X0239677Y0175435D02*
X0359754Y0175435D01*
X0361410Y0174437D02*
X0239069Y0174437D01*
X0239885Y0173438D02*
X0374981Y0173438D01*
X0373983Y0174437D02*
X0370044Y0174437D01*
X0369584Y0173017D02*
X0371167Y0172362D01*
X0372378Y0171150D01*
X0373034Y0169567D01*
X0373034Y0167854D01*
X0372378Y0166271D01*
X0371167Y0165059D01*
X0369584Y0164403D01*
X0361870Y0164403D01*
X0360287Y0165059D01*
X0359076Y0166271D01*
X0358420Y0167854D01*
X0358420Y0169567D01*
X0359076Y0171150D01*
X0360287Y0172362D01*
X0361870Y0173017D01*
X0369584Y0173017D01*
X0370979Y0172440D02*
X0375980Y0172440D01*
X0376826Y0171441D02*
X0372087Y0171441D01*
X0372671Y0170443D02*
X0376826Y0170443D01*
X0376826Y0169444D02*
X0373034Y0169444D01*
X0373034Y0168445D02*
X0376826Y0168445D01*
X0376826Y0167447D02*
X0372866Y0167447D01*
X0372452Y0166448D02*
X0376826Y0166448D01*
X0376826Y0165450D02*
X0371558Y0165450D01*
X0369700Y0164451D02*
X0376826Y0164451D01*
X0376826Y0163453D02*
X0227710Y0163453D01*
X0226712Y0162454D02*
X0376826Y0162454D01*
X0376826Y0161456D02*
X0225713Y0161456D01*
X0224715Y0160457D02*
X0376826Y0160457D01*
X0376826Y0159459D02*
X0223716Y0159459D01*
X0222718Y0158460D02*
X0376826Y0158460D01*
X0376826Y0157462D02*
X0221719Y0157462D01*
X0220721Y0156463D02*
X0376826Y0156463D01*
X0376826Y0155465D02*
X0219722Y0155465D01*
X0218724Y0154466D02*
X0376826Y0154466D01*
X0376826Y0153468D02*
X0217725Y0153468D01*
X0216727Y0152469D02*
X0376826Y0152469D01*
X0376826Y0151471D02*
X0215728Y0151471D01*
X0214730Y0150472D02*
X0376826Y0150472D01*
X0376826Y0149474D02*
X0213731Y0149474D01*
X0212733Y0148475D02*
X0376826Y0148475D01*
X0376826Y0147477D02*
X0211734Y0147477D01*
X0210736Y0146478D02*
X0376826Y0146478D01*
X0376826Y0145480D02*
X0209737Y0145480D01*
X0208739Y0144481D02*
X0376826Y0144481D01*
X0376826Y0143483D02*
X0207740Y0143483D01*
X0206742Y0142484D02*
X0360963Y0142484D01*
X0359569Y0141486D02*
X0205743Y0141486D01*
X0204745Y0140487D02*
X0358866Y0140487D01*
X0358453Y0139489D02*
X0203746Y0139489D01*
X0202748Y0138490D02*
X0358420Y0138490D01*
X0358505Y0137492D02*
X0201749Y0137492D01*
X0200750Y0136493D02*
X0358918Y0136493D01*
X0359694Y0135495D02*
X0199806Y0135495D01*
X0199806Y0134496D02*
X0361266Y0134496D01*
X0361870Y0133017D02*
X0360287Y0132362D01*
X0359076Y0131150D01*
X0358420Y0129567D01*
X0358420Y0127854D01*
X0359076Y0126271D01*
X0360287Y0125059D01*
X0361870Y0124403D01*
X0369584Y0124403D01*
X0371167Y0125059D01*
X0372378Y0126271D01*
X0373034Y0127854D01*
X0373034Y0129567D01*
X0372378Y0131150D01*
X0371167Y0132362D01*
X0369584Y0133017D01*
X0361870Y0133017D01*
X0360619Y0132499D02*
X0199806Y0132499D01*
X0199806Y0133498D02*
X0374922Y0133498D01*
X0373923Y0134496D02*
X0370188Y0134496D01*
X0371760Y0135495D02*
X0372925Y0135495D01*
X0370835Y0132499D02*
X0375920Y0132499D01*
X0376826Y0131501D02*
X0372028Y0131501D01*
X0372647Y0130502D02*
X0376826Y0130502D01*
X0376826Y0129504D02*
X0373034Y0129504D01*
X0373034Y0128505D02*
X0376826Y0128505D01*
X0376826Y0127507D02*
X0372890Y0127507D01*
X0372477Y0126508D02*
X0376826Y0126508D01*
X0376826Y0125510D02*
X0371617Y0125510D01*
X0369844Y0124511D02*
X0376826Y0124511D01*
X0376826Y0123512D02*
X0191240Y0123512D01*
X0191240Y0124511D02*
X0361610Y0124511D01*
X0359837Y0125510D02*
X0191240Y0125510D01*
X0191240Y0126508D02*
X0358977Y0126508D01*
X0358564Y0127507D02*
X0191240Y0127507D01*
X0191240Y0128505D02*
X0358420Y0128505D01*
X0358420Y0129504D02*
X0191240Y0129504D01*
X0191240Y0130502D02*
X0358807Y0130502D01*
X0359426Y0131501D02*
X0199531Y0131501D01*
X0193136Y0131501D02*
X0192531Y0131501D01*
X0187426Y0130502D02*
X0186140Y0130502D01*
X0186140Y0129504D02*
X0187426Y0129504D01*
X0187426Y0128505D02*
X0186140Y0128505D01*
X0186140Y0127507D02*
X0187426Y0127507D01*
X0187426Y0126508D02*
X0186140Y0126508D01*
X0186140Y0125510D02*
X0187426Y0125510D01*
X0187426Y0124511D02*
X0186140Y0124511D01*
X0186140Y0123512D02*
X0187426Y0123512D01*
X0187175Y0122514D02*
X0186140Y0122514D01*
X0186140Y0121515D02*
X0186607Y0121515D01*
X0186476Y0120517D02*
X0186140Y0120517D01*
X0186140Y0119518D02*
X0186702Y0119518D01*
X0186140Y0118520D02*
X0187404Y0118520D01*
X0186999Y0117521D02*
X0376826Y0117521D01*
X0376826Y0116523D02*
X0187998Y0116523D01*
X0188996Y0115524D02*
X0346013Y0115524D01*
X0347241Y0116033D02*
X0343711Y0114571D01*
X0341008Y0111868D01*
X0339546Y0108338D01*
X0339546Y0104516D01*
X0341008Y0100985D01*
X0343711Y0098283D01*
X0347241Y0096821D01*
X0351063Y0096821D01*
X0354594Y0098283D01*
X0357296Y0100985D01*
X0358759Y0104516D01*
X0358759Y0108338D01*
X0357296Y0111868D01*
X0354594Y0114571D01*
X0351063Y0116033D01*
X0347241Y0116033D01*
X0343666Y0114526D02*
X0189995Y0114526D01*
X0190993Y0113527D02*
X0342667Y0113527D01*
X0341669Y0112529D02*
X0191992Y0112529D01*
X0192990Y0111530D02*
X0340868Y0111530D01*
X0340455Y0110532D02*
X0193989Y0110532D01*
X0194987Y0109533D02*
X0340041Y0109533D01*
X0339628Y0108535D02*
X0195986Y0108535D01*
X0196984Y0107536D02*
X0339546Y0107536D01*
X0339546Y0106538D02*
X0197983Y0106538D01*
X0198981Y0105539D02*
X0339546Y0105539D01*
X0339546Y0104541D02*
X0199980Y0104541D01*
X0200978Y0103542D02*
X0339949Y0103542D01*
X0340363Y0102544D02*
X0257977Y0102544D01*
X0258975Y0101545D02*
X0340776Y0101545D01*
X0341447Y0100547D02*
X0259974Y0100547D01*
X0260972Y0099548D02*
X0342446Y0099548D01*
X0343444Y0098550D02*
X0261140Y0098550D01*
X0261140Y0097551D02*
X0345477Y0097551D01*
X0352827Y0097551D02*
X0370707Y0097551D01*
X0369709Y0096553D02*
X0261140Y0096553D01*
X0261140Y0095554D02*
X0368710Y0095554D01*
X0367712Y0094556D02*
X0261140Y0094556D01*
X0261140Y0093557D02*
X0366713Y0093557D01*
X0365715Y0092559D02*
X0261140Y0092559D01*
X0259333Y0090332D02*
X0255058Y0090332D01*
X0257279Y0092559D02*
X0257526Y0092559D01*
X0257526Y0093557D02*
X0252963Y0093557D01*
X0251908Y0090332D02*
X0251908Y0084881D01*
X0259158Y0077632D01*
X0253126Y0077581D02*
X0247540Y0077581D01*
X0247540Y0078579D02*
X0253126Y0078579D01*
X0253126Y0079578D02*
X0247540Y0079578D01*
X0247499Y0080577D02*
X0253168Y0080577D01*
X0252659Y0081575D02*
X0248008Y0081575D01*
X0249006Y0082574D02*
X0251660Y0082574D01*
X0250662Y0083572D02*
X0250005Y0083572D01*
X0253776Y0085569D02*
X0298665Y0085569D01*
X0299663Y0084571D02*
X0254774Y0084571D01*
X0255773Y0083572D02*
X0300662Y0083572D01*
X0301660Y0082574D02*
X0256771Y0082574D01*
X0257770Y0081575D02*
X0302659Y0081575D01*
X0303168Y0080577D02*
X0297499Y0080577D01*
X0297540Y0080535D02*
X0296775Y0081301D01*
X0286243Y0081301D01*
X0285477Y0080535D01*
X0285477Y0074728D01*
X0286243Y0073962D01*
X0296775Y0073962D01*
X0297540Y0074728D01*
X0297540Y0080535D01*
X0297540Y0079578D02*
X0303126Y0079578D01*
X0303126Y0078579D02*
X0297540Y0078579D01*
X0297540Y0077581D02*
X0303126Y0077581D01*
X0303126Y0076582D02*
X0297540Y0076582D01*
X0297540Y0075584D02*
X0303126Y0075584D01*
X0303269Y0074585D02*
X0297398Y0074585D01*
X0285620Y0074585D02*
X0265047Y0074585D01*
X0265189Y0075584D02*
X0285477Y0075584D01*
X0285477Y0076582D02*
X0265189Y0076582D01*
X0265189Y0077581D02*
X0285477Y0077581D01*
X0285477Y0078579D02*
X0265189Y0078579D01*
X0265189Y0079578D02*
X0285477Y0079578D01*
X0285519Y0080577D02*
X0265148Y0080577D01*
X0256741Y0087566D02*
X0296668Y0087566D01*
X0297666Y0086568D02*
X0253715Y0086568D01*
X0243895Y0082574D02*
X0199006Y0082574D01*
X0198008Y0081575D02*
X0242897Y0081575D01*
X0247540Y0076582D02*
X0253126Y0076582D01*
X0253126Y0075584D02*
X0247540Y0075584D01*
X0247398Y0074585D02*
X0253269Y0074585D01*
X0254236Y0063494D02*
X0253854Y0063392D01*
X0253512Y0063194D01*
X0253233Y0062915D01*
X0253036Y0062573D01*
X0252933Y0062191D01*
X0252933Y0060132D01*
X0258658Y0060132D01*
X0258658Y0063494D01*
X0254236Y0063494D01*
X0253053Y0062603D02*
X0247613Y0062603D01*
X0247631Y0062573D02*
X0247434Y0062915D01*
X0247154Y0063194D01*
X0246812Y0063392D01*
X0246431Y0063494D01*
X0242009Y0063494D01*
X0242009Y0060132D01*
X0241009Y0060132D01*
X0241009Y0063494D01*
X0236587Y0063494D01*
X0236206Y0063392D01*
X0235863Y0063194D01*
X0235584Y0062915D01*
X0235387Y0062573D01*
X0235285Y0062191D01*
X0235284Y0060132D01*
X0241009Y0060132D01*
X0241009Y0059132D01*
X0235285Y0059132D01*
X0235285Y0057072D01*
X0235387Y0056690D01*
X0235584Y0056348D01*
X0235863Y0056069D01*
X0236206Y0055872D01*
X0236587Y0055769D01*
X0241009Y0055769D01*
X0241009Y0059132D01*
X0242009Y0059132D01*
X0242009Y0060132D01*
X0247733Y0060132D01*
X0247733Y0062191D01*
X0247631Y0062573D01*
X0247733Y0061605D02*
X0252933Y0061605D01*
X0252933Y0060606D02*
X0247733Y0060606D01*
X0247733Y0059132D02*
X0242009Y0059132D01*
X0242009Y0055769D01*
X0246431Y0055769D01*
X0246812Y0055872D01*
X0247154Y0056069D01*
X0247434Y0056348D01*
X0247631Y0056690D01*
X0247733Y0057072D01*
X0247733Y0059132D01*
X0247733Y0058609D02*
X0252933Y0058609D01*
X0252933Y0059132D02*
X0252933Y0057072D01*
X0253036Y0056690D01*
X0253233Y0056348D01*
X0253512Y0056069D01*
X0253854Y0055872D01*
X0254236Y0055769D01*
X0258658Y0055769D01*
X0258658Y0059132D01*
X0252933Y0059132D01*
X0252933Y0057611D02*
X0247733Y0057611D01*
X0247586Y0056612D02*
X0253081Y0056612D01*
X0258658Y0056612D02*
X0259658Y0056612D01*
X0259658Y0055769D02*
X0264080Y0055769D01*
X0264461Y0055872D01*
X0264803Y0056069D01*
X0265082Y0056348D01*
X0265280Y0056690D01*
X0265382Y0057072D01*
X0265382Y0059132D01*
X0259658Y0059132D01*
X0259658Y0060132D01*
X0258658Y0060132D01*
X0258658Y0059132D01*
X0259658Y0059132D01*
X0259658Y0055769D01*
X0259658Y0057611D02*
X0258658Y0057611D01*
X0258658Y0058609D02*
X0259658Y0058609D01*
X0259658Y0059608D02*
X0291009Y0059608D01*
X0291009Y0059132D02*
X0285285Y0059132D01*
X0285285Y0057072D01*
X0285387Y0056690D01*
X0285584Y0056348D01*
X0285863Y0056069D01*
X0286206Y0055872D01*
X0286587Y0055769D01*
X0291009Y0055769D01*
X0291009Y0059132D01*
X0291009Y0060132D01*
X0291009Y0063494D01*
X0286587Y0063494D01*
X0286206Y0063392D01*
X0285863Y0063194D01*
X0285584Y0062915D01*
X0285387Y0062573D01*
X0285285Y0062191D01*
X0285284Y0060132D01*
X0291009Y0060132D01*
X0292009Y0060132D01*
X0292009Y0063494D01*
X0296431Y0063494D01*
X0296812Y0063392D01*
X0297154Y0063194D01*
X0297434Y0062915D01*
X0297631Y0062573D01*
X0297733Y0062191D01*
X0297733Y0060132D01*
X0292009Y0060132D01*
X0292009Y0059132D01*
X0297733Y0059132D01*
X0297733Y0057072D01*
X0297631Y0056690D01*
X0297434Y0056348D01*
X0297154Y0056069D01*
X0296812Y0055872D01*
X0296431Y0055769D01*
X0292009Y0055769D01*
X0292009Y0059132D01*
X0291009Y0059132D01*
X0291009Y0058609D02*
X0292009Y0058609D01*
X0292009Y0057611D02*
X0291009Y0057611D01*
X0291009Y0056612D02*
X0292009Y0056612D01*
X0292009Y0059608D02*
X0308658Y0059608D01*
X0308658Y0059132D02*
X0302933Y0059132D01*
X0302933Y0057072D01*
X0303036Y0056690D01*
X0303233Y0056348D01*
X0303512Y0056069D01*
X0303854Y0055872D01*
X0304236Y0055769D01*
X0308658Y0055769D01*
X0308658Y0059132D01*
X0308658Y0060132D01*
X0308658Y0063494D01*
X0304236Y0063494D01*
X0303854Y0063392D01*
X0303512Y0063194D01*
X0303233Y0062915D01*
X0303036Y0062573D01*
X0302933Y0062191D01*
X0302933Y0060132D01*
X0308658Y0060132D01*
X0309658Y0060132D01*
X0309658Y0063494D01*
X0314080Y0063494D01*
X0314461Y0063392D01*
X0314803Y0063194D01*
X0315082Y0062915D01*
X0315280Y0062573D01*
X0315382Y0062191D01*
X0315382Y0060132D01*
X0309658Y0060132D01*
X0309658Y0059132D01*
X0315382Y0059132D01*
X0315382Y0057072D01*
X0315280Y0056690D01*
X0315082Y0056348D01*
X0314803Y0056069D01*
X0314461Y0055872D01*
X0314080Y0055769D01*
X0309658Y0055769D01*
X0309658Y0059132D01*
X0308658Y0059132D01*
X0308658Y0058609D02*
X0309658Y0058609D01*
X0309658Y0057611D02*
X0308658Y0057611D01*
X0308658Y0056612D02*
X0309658Y0056612D01*
X0309658Y0059608D02*
X0341009Y0059608D01*
X0341009Y0059132D02*
X0335285Y0059132D01*
X0335285Y0057072D01*
X0335387Y0056690D01*
X0335584Y0056348D01*
X0335863Y0056069D01*
X0336206Y0055872D01*
X0336587Y0055769D01*
X0341009Y0055769D01*
X0341009Y0059132D01*
X0341009Y0060132D01*
X0341009Y0063494D01*
X0336587Y0063494D01*
X0336206Y0063392D01*
X0335863Y0063194D01*
X0335584Y0062915D01*
X0335387Y0062573D01*
X0335285Y0062191D01*
X0335284Y0060132D01*
X0341009Y0060132D01*
X0342009Y0060132D01*
X0342009Y0063494D01*
X0346431Y0063494D01*
X0346812Y0063392D01*
X0347154Y0063194D01*
X0347434Y0062915D01*
X0347631Y0062573D01*
X0347733Y0062191D01*
X0347733Y0060132D01*
X0342009Y0060132D01*
X0342009Y0059132D01*
X0347733Y0059132D01*
X0347733Y0057072D01*
X0347631Y0056690D01*
X0347434Y0056348D01*
X0347154Y0056069D01*
X0346812Y0055872D01*
X0346431Y0055769D01*
X0342009Y0055769D01*
X0342009Y0059132D01*
X0341009Y0059132D01*
X0341009Y0058609D02*
X0342009Y0058609D01*
X0342009Y0057611D02*
X0341009Y0057611D01*
X0341009Y0056612D02*
X0342009Y0056612D01*
X0342009Y0059608D02*
X0380438Y0059608D01*
X0381436Y0058609D02*
X0347733Y0058609D01*
X0347733Y0057611D02*
X0382435Y0057611D01*
X0382721Y0057324D02*
X0387946Y0057324D01*
X0391640Y0061019D01*
X0391640Y0066244D01*
X0387946Y0069939D01*
X0382721Y0069939D01*
X0379026Y0066244D01*
X0379026Y0061019D01*
X0382721Y0057324D01*
X0379439Y0060606D02*
X0347733Y0060606D01*
X0347733Y0061605D02*
X0379026Y0061605D01*
X0379026Y0062603D02*
X0347613Y0062603D01*
X0342009Y0062603D02*
X0341009Y0062603D01*
X0341009Y0061605D02*
X0342009Y0061605D01*
X0342009Y0060606D02*
X0341009Y0060606D01*
X0335285Y0060606D02*
X0315382Y0060606D01*
X0315382Y0061605D02*
X0335285Y0061605D01*
X0335404Y0062603D02*
X0315262Y0062603D01*
X0315382Y0058609D02*
X0335285Y0058609D01*
X0335285Y0057611D02*
X0315382Y0057611D01*
X0315235Y0056612D02*
X0335432Y0056612D01*
X0347586Y0056612D02*
X0397034Y0056612D01*
X0397034Y0055614D02*
X0139514Y0055614D01*
X0139514Y0056612D02*
X0153081Y0056612D01*
X0153036Y0056690D02*
X0153233Y0056348D01*
X0153512Y0056069D01*
X0153854Y0055872D01*
X0154236Y0055769D01*
X0158658Y0055769D01*
X0158658Y0059132D01*
X0152933Y0059132D01*
X0152933Y0057072D01*
X0153036Y0056690D01*
X0152933Y0057611D02*
X0139514Y0057611D01*
X0139514Y0058609D02*
X0152933Y0058609D01*
X0152933Y0060132D02*
X0158658Y0060132D01*
X0158658Y0063494D01*
X0154236Y0063494D01*
X0153854Y0063392D01*
X0153512Y0063194D01*
X0153233Y0062915D01*
X0153036Y0062573D01*
X0152933Y0062191D01*
X0152933Y0060132D01*
X0152933Y0060606D02*
X0139514Y0060606D01*
X0139514Y0059608D02*
X0158658Y0059608D01*
X0158658Y0059132D02*
X0158658Y0060132D01*
X0159658Y0060132D01*
X0159658Y0063494D01*
X0164080Y0063494D01*
X0164461Y0063392D01*
X0164803Y0063194D01*
X0165082Y0062915D01*
X0165280Y0062573D01*
X0165382Y0062191D01*
X0165382Y0060132D01*
X0159658Y0060132D01*
X0159658Y0059132D01*
X0165382Y0059132D01*
X0165382Y0057072D01*
X0165280Y0056690D01*
X0165082Y0056348D01*
X0164803Y0056069D01*
X0164461Y0055872D01*
X0164080Y0055769D01*
X0159658Y0055769D01*
X0159658Y0059132D01*
X0158658Y0059132D01*
X0158658Y0058609D02*
X0159658Y0058609D01*
X0159658Y0057611D02*
X0158658Y0057611D01*
X0158658Y0056612D02*
X0159658Y0056612D01*
X0159658Y0059608D02*
X0191009Y0059608D01*
X0191009Y0059132D02*
X0185285Y0059132D01*
X0185285Y0057072D01*
X0185387Y0056690D01*
X0185584Y0056348D01*
X0185863Y0056069D01*
X0186206Y0055872D01*
X0186587Y0055769D01*
X0191009Y0055769D01*
X0191009Y0059132D01*
X0191009Y0060132D01*
X0191009Y0063494D01*
X0186587Y0063494D01*
X0186206Y0063392D01*
X0185863Y0063194D01*
X0185584Y0062915D01*
X0185387Y0062573D01*
X0185285Y0062191D01*
X0185284Y0060132D01*
X0191009Y0060132D01*
X0192009Y0060132D01*
X0192009Y0063494D01*
X0196431Y0063494D01*
X0196812Y0063392D01*
X0197154Y0063194D01*
X0197434Y0062915D01*
X0197631Y0062573D01*
X0197733Y0062191D01*
X0197733Y0060132D01*
X0192009Y0060132D01*
X0192009Y0059132D01*
X0197733Y0059132D01*
X0197733Y0057072D01*
X0197631Y0056690D01*
X0197434Y0056348D01*
X0197154Y0056069D01*
X0196812Y0055872D01*
X0196431Y0055769D01*
X0192009Y0055769D01*
X0192009Y0059132D01*
X0191009Y0059132D01*
X0191009Y0058609D02*
X0192009Y0058609D01*
X0192009Y0057611D02*
X0191009Y0057611D01*
X0191009Y0056612D02*
X0192009Y0056612D01*
X0192009Y0059608D02*
X0208658Y0059608D01*
X0208658Y0059132D02*
X0202933Y0059132D01*
X0202933Y0057072D01*
X0203036Y0056690D01*
X0203233Y0056348D01*
X0203512Y0056069D01*
X0203854Y0055872D01*
X0204236Y0055769D01*
X0208658Y0055769D01*
X0208658Y0059132D01*
X0208658Y0060132D01*
X0208658Y0063494D01*
X0204236Y0063494D01*
X0203854Y0063392D01*
X0203512Y0063194D01*
X0203233Y0062915D01*
X0203036Y0062573D01*
X0202933Y0062191D01*
X0202933Y0060132D01*
X0208658Y0060132D01*
X0209658Y0060132D01*
X0209658Y0063494D01*
X0214080Y0063494D01*
X0214461Y0063392D01*
X0214803Y0063194D01*
X0215082Y0062915D01*
X0215280Y0062573D01*
X0215382Y0062191D01*
X0215382Y0060132D01*
X0209658Y0060132D01*
X0209658Y0059132D01*
X0215382Y0059132D01*
X0215382Y0057072D01*
X0215280Y0056690D01*
X0215082Y0056348D01*
X0214803Y0056069D01*
X0214461Y0055872D01*
X0214080Y0055769D01*
X0209658Y0055769D01*
X0209658Y0059132D01*
X0208658Y0059132D01*
X0208658Y0058609D02*
X0209658Y0058609D01*
X0209658Y0057611D02*
X0208658Y0057611D01*
X0208658Y0056612D02*
X0209658Y0056612D01*
X0209658Y0059608D02*
X0241009Y0059608D01*
X0241009Y0060606D02*
X0242009Y0060606D01*
X0242009Y0059608D02*
X0258658Y0059608D01*
X0258658Y0060606D02*
X0259658Y0060606D01*
X0259658Y0060132D02*
X0259658Y0063494D01*
X0264080Y0063494D01*
X0264461Y0063392D01*
X0264803Y0063194D01*
X0265082Y0062915D01*
X0265280Y0062573D01*
X0265382Y0062191D01*
X0265382Y0060132D01*
X0259658Y0060132D01*
X0259658Y0061605D02*
X0258658Y0061605D01*
X0258658Y0062603D02*
X0259658Y0062603D01*
X0265262Y0062603D02*
X0285404Y0062603D01*
X0285285Y0061605D02*
X0265382Y0061605D01*
X0265382Y0060606D02*
X0285285Y0060606D01*
X0285285Y0058609D02*
X0265382Y0058609D01*
X0265382Y0057611D02*
X0285285Y0057611D01*
X0285432Y0056612D02*
X0265235Y0056612D01*
X0242009Y0056612D02*
X0241009Y0056612D01*
X0241009Y0057611D02*
X0242009Y0057611D01*
X0242009Y0058609D02*
X0241009Y0058609D01*
X0241009Y0061605D02*
X0242009Y0061605D01*
X0242009Y0062603D02*
X0241009Y0062603D01*
X0235404Y0062603D02*
X0215262Y0062603D01*
X0215382Y0061605D02*
X0235285Y0061605D01*
X0235285Y0060606D02*
X0215382Y0060606D01*
X0215382Y0058609D02*
X0235285Y0058609D01*
X0235285Y0057611D02*
X0215382Y0057611D01*
X0215235Y0056612D02*
X0235432Y0056612D01*
X0209658Y0060606D02*
X0208658Y0060606D01*
X0208658Y0061605D02*
X0209658Y0061605D01*
X0209658Y0062603D02*
X0208658Y0062603D01*
X0203053Y0062603D02*
X0197613Y0062603D01*
X0197733Y0061605D02*
X0202933Y0061605D01*
X0202933Y0060606D02*
X0197733Y0060606D01*
X0197733Y0058609D02*
X0202933Y0058609D01*
X0202933Y0057611D02*
X0197733Y0057611D01*
X0197586Y0056612D02*
X0203081Y0056612D01*
X0192009Y0060606D02*
X0191009Y0060606D01*
X0191009Y0061605D02*
X0192009Y0061605D01*
X0192009Y0062603D02*
X0191009Y0062603D01*
X0185404Y0062603D02*
X0165262Y0062603D01*
X0165382Y0061605D02*
X0185285Y0061605D01*
X0185285Y0060606D02*
X0165382Y0060606D01*
X0165382Y0058609D02*
X0185285Y0058609D01*
X0185285Y0057611D02*
X0165382Y0057611D01*
X0165235Y0056612D02*
X0185432Y0056612D01*
X0184819Y0071590D02*
X0113678Y0071590D01*
X0112427Y0072588D02*
X0183821Y0072588D01*
X0182822Y0073587D02*
X0100055Y0073587D01*
X0101053Y0072588D02*
X0108240Y0072588D01*
X0106989Y0071590D02*
X0102052Y0071590D01*
X0103050Y0070591D02*
X0106321Y0070591D01*
X0105908Y0069593D02*
X0104049Y0069593D01*
X0105047Y0068594D02*
X0105877Y0068594D01*
X0112247Y0064600D02*
X0379026Y0064600D01*
X0379026Y0063602D02*
X0110040Y0063602D01*
X0112391Y0062603D02*
X0121812Y0062603D01*
X0121880Y0062643D02*
X0121538Y0062445D01*
X0121259Y0062166D01*
X0121062Y0061824D01*
X0120959Y0061442D01*
X0120959Y0057021D01*
X0124321Y0057021D01*
X0124321Y0056021D01*
X0120959Y0056021D01*
X0120959Y0051599D01*
X0121062Y0051217D01*
X0121259Y0050875D01*
X0121538Y0050596D01*
X0121880Y0050398D01*
X0122262Y0050296D01*
X0124322Y0050296D01*
X0124322Y0056021D01*
X0125321Y0056021D01*
X0125321Y0050296D01*
X0127381Y0050296D01*
X0127763Y0050398D01*
X0128105Y0050596D01*
X0128384Y0050875D01*
X0128581Y0051217D01*
X0128684Y0051599D01*
X0128684Y0056021D01*
X0125322Y0056021D01*
X0125322Y0057021D01*
X0125321Y0057021D02*
X0124322Y0057021D01*
X0124322Y0062745D01*
X0122262Y0062745D01*
X0121880Y0062643D01*
X0121003Y0061605D02*
X0113663Y0061605D01*
X0114339Y0060606D02*
X0120959Y0060606D01*
X0120959Y0059608D02*
X0114753Y0059608D01*
X0114790Y0058609D02*
X0120959Y0058609D01*
X0120959Y0057611D02*
X0114734Y0057611D01*
X0114321Y0056612D02*
X0124321Y0056612D01*
X0124322Y0055614D02*
X0125321Y0055614D01*
X0125322Y0056612D02*
X0132176Y0056612D01*
X0132176Y0055614D02*
X0128684Y0055614D01*
X0128684Y0054615D02*
X0132176Y0054615D01*
X0132176Y0053617D02*
X0128684Y0053617D01*
X0128684Y0052618D02*
X0132176Y0052618D01*
X0132176Y0051620D02*
X0128684Y0051620D01*
X0128130Y0050621D02*
X0132809Y0050621D01*
X0132942Y0050489D02*
X0132176Y0051255D01*
X0132176Y0061786D01*
X0132942Y0062552D01*
X0138749Y0062552D01*
X0139514Y0061786D01*
X0139514Y0051255D01*
X0138749Y0050489D01*
X0132942Y0050489D01*
X0138881Y0050621D02*
X0397034Y0050621D01*
X0397034Y0049623D02*
X0056494Y0049623D01*
X0056743Y0050621D02*
X0121513Y0050621D01*
X0120959Y0051620D02*
X0053945Y0051620D01*
X0056773Y0052618D02*
X0079713Y0052618D01*
X0079833Y0052549D02*
X0080215Y0052447D01*
X0084833Y0052447D01*
X0084833Y0060336D01*
X0078912Y0060336D01*
X0078912Y0053749D01*
X0079014Y0053368D01*
X0079212Y0053026D01*
X0079491Y0052746D01*
X0079833Y0052549D01*
X0078948Y0053617D02*
X0056558Y0053617D01*
X0056175Y0054615D02*
X0078912Y0054615D01*
X0078912Y0055614D02*
X0055549Y0055614D01*
X0054647Y0056612D02*
X0078912Y0056612D01*
X0078912Y0057611D02*
X0053131Y0057611D01*
X0055206Y0059608D02*
X0035965Y0059608D01*
X0035616Y0059463D02*
X0036403Y0059789D01*
X0037141Y0060215D01*
X0037817Y0060734D01*
X0038420Y0061337D01*
X0038938Y0062013D01*
X0039364Y0062751D01*
X0039691Y0063538D01*
X0039911Y0064361D01*
X0040022Y0065206D01*
X0040022Y0070332D01*
X0036622Y0070332D01*
X0036622Y0070461D01*
X0036552Y0070632D01*
X0036622Y0070802D01*
X0036622Y0070932D01*
X0040022Y0070932D01*
X0040022Y0076058D01*
X0039911Y0076902D01*
X0039691Y0077725D01*
X0039364Y0078513D01*
X0038938Y0079251D01*
X0038420Y0079927D01*
X0037817Y0080529D01*
X0037141Y0081048D01*
X0036403Y0081474D01*
X0035616Y0081800D01*
X0034793Y0082020D01*
X0033948Y0082132D01*
X0033822Y0082132D01*
X0033822Y0079243D01*
X0033222Y0079243D01*
X0033222Y0082132D01*
X0033096Y0082132D01*
X0032251Y0082020D01*
X0031428Y0081800D01*
X0030641Y0081474D01*
X0029903Y0081048D01*
X0029227Y0080529D01*
X0028625Y0079927D01*
X0028106Y0079251D01*
X0027680Y0078513D01*
X0027354Y0077725D01*
X0027134Y0076902D01*
X0027022Y0076058D01*
X0027022Y0070932D01*
X0030422Y0070932D01*
X0030422Y0070802D01*
X0030493Y0070632D01*
X0030422Y0070461D01*
X0030422Y0070332D01*
X0027022Y0070332D01*
X0027022Y0065206D01*
X0027134Y0064361D01*
X0027354Y0063538D01*
X0027680Y0062751D01*
X0028106Y0062013D01*
X0028625Y0061337D01*
X0029227Y0060734D01*
X0029903Y0060215D01*
X0030641Y0059789D01*
X0031428Y0059463D01*
X0032251Y0059243D01*
X0033096Y0059132D01*
X0033222Y0059132D01*
X0033222Y0062020D01*
X0033822Y0062020D01*
X0033822Y0059132D01*
X0033948Y0059132D01*
X0034793Y0059243D01*
X0035616Y0059463D01*
X0033822Y0059608D02*
X0033222Y0059608D01*
X0033222Y0060606D02*
X0033822Y0060606D01*
X0033822Y0061605D02*
X0033222Y0061605D01*
X0031080Y0059608D02*
X0007333Y0059608D01*
X0007333Y0060606D02*
X0029394Y0060606D01*
X0028419Y0061605D02*
X0007333Y0061605D01*
X0007333Y0062603D02*
X0027765Y0062603D01*
X0027337Y0063602D02*
X0007333Y0063602D01*
X0007333Y0064600D02*
X0027102Y0064600D01*
X0027022Y0065599D02*
X0007333Y0065599D01*
X0007333Y0066597D02*
X0027022Y0066597D01*
X0027022Y0067596D02*
X0007333Y0067596D01*
X0007333Y0068594D02*
X0027022Y0068594D01*
X0027022Y0069593D02*
X0007333Y0069593D01*
X0007333Y0070591D02*
X0030476Y0070591D01*
X0027022Y0071590D02*
X0007333Y0071590D01*
X0007333Y0072588D02*
X0027022Y0072588D01*
X0027022Y0073587D02*
X0007333Y0073587D01*
X0007333Y0074585D02*
X0027022Y0074585D01*
X0027022Y0075584D02*
X0007333Y0075584D01*
X0007333Y0076582D02*
X0027091Y0076582D01*
X0027315Y0077581D02*
X0007333Y0077581D01*
X0007333Y0078579D02*
X0027719Y0078579D01*
X0028357Y0079578D02*
X0007333Y0079578D01*
X0007333Y0080577D02*
X0029289Y0080577D01*
X0030886Y0081575D02*
X0007333Y0081575D01*
X0007333Y0082574D02*
X0064409Y0082574D01*
X0065054Y0083572D02*
X0007333Y0083572D01*
X0007333Y0084571D02*
X0065054Y0084571D01*
X0065054Y0085569D02*
X0007333Y0085569D01*
X0007333Y0086568D02*
X0065054Y0086568D01*
X0065054Y0087566D02*
X0007333Y0087566D01*
X0007333Y0088565D02*
X0065054Y0088565D01*
X0065054Y0089563D02*
X0007333Y0089563D01*
X0007333Y0090562D02*
X0065054Y0090562D01*
X0065054Y0091560D02*
X0007333Y0091560D01*
X0007333Y0092559D02*
X0065054Y0092559D01*
X0065054Y0093557D02*
X0007333Y0093557D01*
X0007333Y0094556D02*
X0065054Y0094556D01*
X0065054Y0095554D02*
X0007333Y0095554D01*
X0007333Y0096553D02*
X0065054Y0096553D01*
X0065054Y0097551D02*
X0055189Y0097551D01*
X0057223Y0098550D02*
X0065054Y0098550D01*
X0065054Y0099548D02*
X0058221Y0099548D01*
X0059220Y0100547D02*
X0065054Y0100547D01*
X0065054Y0101545D02*
X0059890Y0101545D01*
X0060304Y0102544D02*
X0063510Y0102544D01*
X0063510Y0103542D02*
X0060717Y0103542D01*
X0061121Y0104541D02*
X0063510Y0104541D01*
X0063510Y0105539D02*
X0061121Y0105539D01*
X0061121Y0106538D02*
X0063510Y0106538D01*
X0063510Y0107536D02*
X0061121Y0107536D01*
X0061039Y0108535D02*
X0063510Y0108535D01*
X0063510Y0109533D02*
X0060625Y0109533D01*
X0060212Y0110532D02*
X0063510Y0110532D01*
X0063510Y0111530D02*
X0059798Y0111530D01*
X0058998Y0112529D02*
X0063510Y0112529D01*
X0064140Y0113527D02*
X0057999Y0113527D01*
X0050404Y0121515D02*
X0049126Y0121515D01*
X0049774Y0122514D02*
X0048128Y0122514D01*
X0047640Y0123512D02*
X0049774Y0123512D01*
X0049774Y0124511D02*
X0047640Y0124511D01*
X0047640Y0125510D02*
X0049774Y0125510D01*
X0049774Y0126508D02*
X0047640Y0126508D01*
X0047640Y0127507D02*
X0050116Y0127507D01*
X0047640Y0128505D02*
X0066587Y0128505D01*
X0065910Y0129504D02*
X0047640Y0129504D01*
X0047640Y0130502D02*
X0065881Y0130502D01*
X0065881Y0131501D02*
X0047801Y0131501D01*
X0048799Y0132499D02*
X0069833Y0132499D01*
X0069833Y0132872D02*
X0065881Y0132872D01*
X0065881Y0135128D01*
X0065983Y0135510D01*
X0066180Y0135852D01*
X0066460Y0136131D01*
X0066802Y0136329D01*
X0067183Y0136431D01*
X0069833Y0136431D01*
X0069833Y0132872D01*
X0069833Y0133498D02*
X0070833Y0133498D01*
X0070833Y0132872D02*
X0070833Y0136431D01*
X0073484Y0136431D01*
X0073865Y0136329D01*
X0074207Y0136131D01*
X0074486Y0135852D01*
X0074684Y0135510D01*
X0074786Y0135128D01*
X0074786Y0132872D01*
X0070833Y0132872D01*
X0070833Y0132499D02*
X0147652Y0132499D01*
X0147652Y0131501D02*
X0074786Y0131501D01*
X0074786Y0130502D02*
X0148561Y0130502D01*
X0149559Y0129504D02*
X0074756Y0129504D01*
X0074080Y0128505D02*
X0150514Y0128505D01*
X0150514Y0127507D02*
X0076135Y0127507D01*
X0077134Y0126508D02*
X0150514Y0126508D01*
X0150514Y0125510D02*
X0142435Y0125510D01*
X0143434Y0124511D02*
X0151125Y0124511D01*
X0150885Y0123512D02*
X0144432Y0123512D01*
X0141468Y0120517D02*
X0083125Y0120517D01*
X0084123Y0119518D02*
X0141702Y0119518D01*
X0142404Y0118520D02*
X0085122Y0118520D01*
X0086120Y0117521D02*
X0151115Y0117521D01*
X0150711Y0118520D02*
X0146262Y0118520D01*
X0153987Y0120632D02*
X0153987Y0127632D01*
X0149459Y0132159D01*
X0149459Y0136899D01*
X0149459Y0149758D01*
X0152609Y0152907D01*
X0152609Y0170364D01*
X0155759Y0170364D02*
X0155759Y0165911D01*
X0155758Y0166448D02*
X0155759Y0166448D01*
X0155758Y0167447D02*
X0155759Y0167447D01*
X0155758Y0168445D02*
X0155759Y0168445D01*
X0155758Y0169444D02*
X0155759Y0169444D01*
X0155758Y0170443D02*
X0155759Y0170443D01*
X0155758Y0171441D02*
X0155759Y0171441D01*
X0155758Y0172440D02*
X0155759Y0172440D01*
X0155758Y0173438D02*
X0155759Y0173438D01*
X0155758Y0174437D02*
X0155759Y0174437D01*
X0156801Y0175435D02*
X0151692Y0175435D01*
X0152691Y0176434D02*
X0156801Y0176434D01*
X0156801Y0177432D02*
X0154325Y0177432D01*
X0155046Y0178431D02*
X0156801Y0178431D01*
X0156801Y0179429D02*
X0155046Y0179429D01*
X0155046Y0180428D02*
X0156801Y0180428D01*
X0156801Y0181426D02*
X0155046Y0181426D01*
X0155046Y0182425D02*
X0156801Y0182425D01*
X0156801Y0183423D02*
X0155046Y0183423D01*
X0155046Y0184422D02*
X0156801Y0184422D01*
X0156801Y0185420D02*
X0155046Y0185420D01*
X0155046Y0186419D02*
X0156801Y0186419D01*
X0156801Y0187417D02*
X0154739Y0187417D01*
X0156658Y0188416D02*
X0089733Y0188416D01*
X0089786Y0189414D02*
X0156005Y0189414D01*
X0155007Y0190413D02*
X0089786Y0190413D01*
X0089786Y0191872D02*
X0085833Y0191872D01*
X0085833Y0195431D01*
X0088484Y0195431D01*
X0088865Y0195329D01*
X0089207Y0195131D01*
X0089486Y0194852D01*
X0089684Y0194510D01*
X0089786Y0194128D01*
X0089786Y0191872D01*
X0089786Y0192410D02*
X0153010Y0192410D01*
X0154008Y0191411D02*
X0085833Y0191411D01*
X0085833Y0192410D02*
X0084833Y0192410D01*
X0084833Y0191872D02*
X0084833Y0195431D01*
X0082183Y0195431D01*
X0081802Y0195329D01*
X0081460Y0195131D01*
X0081180Y0194852D01*
X0080983Y0194510D01*
X0080881Y0194128D01*
X0080881Y0191872D01*
X0084833Y0191872D01*
X0084833Y0191411D02*
X0075739Y0191411D01*
X0076520Y0192410D02*
X0080881Y0192410D01*
X0080881Y0193408D02*
X0076558Y0193408D01*
X0076558Y0194407D02*
X0080955Y0194407D01*
X0082088Y0195405D02*
X0076558Y0195405D01*
X0076558Y0196404D02*
X0149016Y0196404D01*
X0150014Y0195405D02*
X0088579Y0195405D01*
X0089711Y0194407D02*
X0151013Y0194407D01*
X0152011Y0193408D02*
X0089786Y0193408D01*
X0085833Y0193408D02*
X0084833Y0193408D01*
X0084833Y0194407D02*
X0085833Y0194407D01*
X0085833Y0195405D02*
X0084833Y0195405D01*
X0080881Y0190413D02*
X0057440Y0190413D01*
X0057640Y0189414D02*
X0080881Y0189414D01*
X0080934Y0188416D02*
X0057640Y0188416D01*
X0057640Y0187417D02*
X0081499Y0187417D01*
X0081073Y0186419D02*
X0057640Y0186419D01*
X0057640Y0185420D02*
X0081073Y0185420D01*
X0081073Y0184422D02*
X0057640Y0184422D01*
X0057640Y0183423D02*
X0064670Y0183423D01*
X0064302Y0182425D02*
X0057640Y0182425D01*
X0057640Y0181426D02*
X0064302Y0181426D01*
X0064302Y0173438D02*
X0039196Y0173438D01*
X0039196Y0172440D02*
X0064386Y0172440D01*
X0065411Y0168698D02*
X0065030Y0168596D01*
X0064688Y0168399D01*
X0064409Y0168120D01*
X0064211Y0167777D01*
X0064109Y0167396D01*
X0064109Y0162974D01*
X0069833Y0162974D01*
X0069833Y0161974D01*
X0064109Y0161974D01*
X0064109Y0157552D01*
X0064211Y0157171D01*
X0064409Y0156829D01*
X0064688Y0156549D01*
X0065030Y0156352D01*
X0065411Y0156250D01*
X0069833Y0156250D01*
X0069833Y0161974D01*
X0070833Y0161974D01*
X0070833Y0156250D01*
X0075255Y0156250D01*
X0075637Y0156352D01*
X0075979Y0156549D01*
X0076258Y0156829D01*
X0076455Y0157171D01*
X0076558Y0157552D01*
X0076558Y0161974D01*
X0070833Y0161974D01*
X0070833Y0162974D01*
X0069833Y0162974D01*
X0069833Y0168698D01*
X0065411Y0168698D01*
X0064769Y0168445D02*
X0025991Y0168445D01*
X0025991Y0168132D02*
X0025991Y0169132D01*
X0024991Y0169132D01*
X0024991Y0180761D01*
X0013089Y0180761D01*
X0012707Y0180659D01*
X0012365Y0180462D01*
X0012086Y0180183D01*
X0011888Y0179840D01*
X0011786Y0179459D01*
X0011786Y0169132D01*
X0024991Y0169132D01*
X0024991Y0168132D01*
X0011786Y0168132D01*
X0011786Y0157804D01*
X0011888Y0157423D01*
X0012086Y0157081D01*
X0012365Y0156801D01*
X0012707Y0156604D01*
X0013089Y0156502D01*
X0024991Y0156502D01*
X0024991Y0168132D01*
X0025991Y0168132D01*
X0039196Y0168132D01*
X0039196Y0157804D01*
X0039093Y0157423D01*
X0038896Y0157081D01*
X0038617Y0156801D01*
X0038275Y0156604D01*
X0037893Y0156502D01*
X0025991Y0156502D01*
X0025991Y0168132D01*
X0025991Y0167447D02*
X0024991Y0167447D01*
X0024991Y0168445D02*
X0007333Y0168445D01*
X0007333Y0167447D02*
X0011786Y0167447D01*
X0011786Y0166448D02*
X0007333Y0166448D01*
X0007333Y0165450D02*
X0011786Y0165450D01*
X0011786Y0164451D02*
X0007333Y0164451D01*
X0007333Y0163453D02*
X0011786Y0163453D01*
X0011786Y0162454D02*
X0007333Y0162454D01*
X0007333Y0161456D02*
X0011786Y0161456D01*
X0011786Y0160457D02*
X0007333Y0160457D01*
X0007333Y0159459D02*
X0011786Y0159459D01*
X0011786Y0158460D02*
X0007333Y0158460D01*
X0007333Y0157462D02*
X0011878Y0157462D01*
X0007333Y0156463D02*
X0050456Y0156463D01*
X0050924Y0155465D02*
X0007333Y0155465D01*
X0007333Y0154466D02*
X0050924Y0154466D01*
X0050924Y0153468D02*
X0007333Y0153468D01*
X0007333Y0152469D02*
X0050924Y0152469D01*
X0050924Y0151471D02*
X0007333Y0151471D01*
X0007333Y0150472D02*
X0050924Y0150472D01*
X0050924Y0149474D02*
X0007333Y0149474D01*
X0007333Y0148475D02*
X0050924Y0148475D01*
X0050924Y0147477D02*
X0007333Y0147477D01*
X0007333Y0146478D02*
X0050924Y0146478D01*
X0050136Y0145480D02*
X0038585Y0145480D01*
X0038617Y0145462D02*
X0038275Y0145659D01*
X0037893Y0145761D01*
X0025991Y0145761D01*
X0025991Y0134132D01*
X0024991Y0134132D01*
X0024991Y0145761D01*
X0013089Y0145761D01*
X0012707Y0145659D01*
X0012365Y0145462D01*
X0012086Y0145183D01*
X0011888Y0144840D01*
X0011786Y0144459D01*
X0011786Y0134132D01*
X0024991Y0134132D01*
X0024991Y0133132D01*
X0011786Y0133132D01*
X0011786Y0122804D01*
X0011888Y0122423D01*
X0012086Y0122081D01*
X0012365Y0121801D01*
X0012707Y0121604D01*
X0013089Y0121502D01*
X0024991Y0121502D01*
X0024991Y0133132D01*
X0025991Y0133132D01*
X0025991Y0134132D01*
X0039196Y0134132D01*
X0039196Y0144459D01*
X0039093Y0144840D01*
X0038896Y0145183D01*
X0038617Y0145462D01*
X0039190Y0144481D02*
X0049774Y0144481D01*
X0049774Y0143483D02*
X0039196Y0143483D01*
X0039196Y0142484D02*
X0049430Y0142484D01*
X0048432Y0141486D02*
X0039196Y0141486D01*
X0039196Y0140487D02*
X0047433Y0140487D01*
X0046435Y0139489D02*
X0039196Y0139489D01*
X0039196Y0138490D02*
X0045436Y0138490D01*
X0044438Y0137492D02*
X0039196Y0137492D01*
X0039196Y0136493D02*
X0043439Y0136493D01*
X0042441Y0135495D02*
X0039196Y0135495D01*
X0039196Y0134496D02*
X0041493Y0134496D01*
X0041080Y0133498D02*
X0025991Y0133498D01*
X0025991Y0133132D02*
X0039196Y0133132D01*
X0039196Y0122804D01*
X0039093Y0122423D01*
X0038896Y0122081D01*
X0038617Y0121801D01*
X0038275Y0121604D01*
X0037893Y0121502D01*
X0025991Y0121502D01*
X0025991Y0133132D01*
X0025991Y0132499D02*
X0024991Y0132499D01*
X0024991Y0131501D02*
X0025991Y0131501D01*
X0025991Y0130502D02*
X0024991Y0130502D01*
X0024991Y0129504D02*
X0025991Y0129504D01*
X0025991Y0128505D02*
X0024991Y0128505D01*
X0024991Y0127507D02*
X0025991Y0127507D01*
X0025991Y0126508D02*
X0024991Y0126508D01*
X0024991Y0125510D02*
X0025991Y0125510D01*
X0025991Y0124511D02*
X0024991Y0124511D01*
X0024991Y0123512D02*
X0025991Y0123512D01*
X0025991Y0122514D02*
X0024991Y0122514D01*
X0024991Y0121515D02*
X0025991Y0121515D01*
X0025290Y0116439D02*
X0023377Y0116439D01*
X0021610Y0115707D01*
X0020258Y0114355D01*
X0019526Y0112588D01*
X0019526Y0110675D01*
X0020258Y0108909D01*
X0021610Y0107556D01*
X0023377Y0106824D01*
X0025290Y0106824D01*
X0027056Y0107556D01*
X0028409Y0108909D01*
X0029140Y0110675D01*
X0029140Y0112588D01*
X0028409Y0114355D01*
X0027056Y0115707D01*
X0025290Y0116439D01*
X0027239Y0115524D02*
X0031185Y0115524D01*
X0031076Y0115445D02*
X0030520Y0114889D01*
X0030057Y0114252D01*
X0029700Y0113551D01*
X0029456Y0112802D01*
X0029333Y0112025D01*
X0029333Y0111939D01*
X0034026Y0111939D01*
X0034026Y0116632D01*
X0033940Y0116632D01*
X0033162Y0116508D01*
X0032414Y0116265D01*
X0031713Y0115908D01*
X0031076Y0115445D01*
X0030256Y0114526D02*
X0028237Y0114526D01*
X0028751Y0113527D02*
X0029692Y0113527D01*
X0029413Y0112529D02*
X0029140Y0112529D01*
X0029140Y0111530D02*
X0034026Y0111530D01*
X0034026Y0111324D02*
X0029333Y0111324D01*
X0029333Y0111238D01*
X0029456Y0110461D01*
X0029700Y0109712D01*
X0030057Y0109011D01*
X0030520Y0108374D01*
X0031076Y0107818D01*
X0031713Y0107355D01*
X0032414Y0106998D01*
X0033162Y0106755D01*
X0033940Y0106632D01*
X0034026Y0106632D01*
X0034026Y0111324D01*
X0034640Y0111324D01*
X0034640Y0106632D01*
X0034727Y0106632D01*
X0035504Y0106755D01*
X0036253Y0106998D01*
X0036954Y0107355D01*
X0037591Y0107818D01*
X0038147Y0108374D01*
X0038610Y0109011D01*
X0038967Y0109712D01*
X0039210Y0110461D01*
X0039333Y0111238D01*
X0039333Y0111324D01*
X0034640Y0111324D01*
X0034640Y0111939D01*
X0034026Y0111939D01*
X0034026Y0111324D01*
X0034640Y0111530D02*
X0043231Y0111530D01*
X0042817Y0110532D02*
X0039221Y0110532D01*
X0038876Y0109533D02*
X0042403Y0109533D01*
X0041990Y0108535D02*
X0038264Y0108535D01*
X0037203Y0107536D02*
X0041908Y0107536D01*
X0041908Y0106538D02*
X0007333Y0106538D01*
X0007333Y0107536D02*
X0011659Y0107536D01*
X0011610Y0107556D02*
X0013377Y0106824D01*
X0015290Y0106824D01*
X0017056Y0107556D01*
X0018409Y0108909D01*
X0019140Y0110675D01*
X0019140Y0112588D01*
X0018409Y0114355D01*
X0017056Y0115707D01*
X0015290Y0116439D01*
X0013377Y0116439D01*
X0011610Y0115707D01*
X0010258Y0114355D01*
X0009526Y0112588D01*
X0009526Y0110675D01*
X0010258Y0108909D01*
X0011610Y0107556D01*
X0012342Y0106439D02*
X0009526Y0103623D01*
X0009526Y0099640D01*
X0012342Y0096824D01*
X0016324Y0096824D01*
X0019140Y0099640D01*
X0019140Y0103623D01*
X0016324Y0106439D01*
X0012342Y0106439D01*
X0011443Y0105539D02*
X0007333Y0105539D01*
X0007333Y0104541D02*
X0010444Y0104541D01*
X0009526Y0103542D02*
X0007333Y0103542D01*
X0007333Y0102544D02*
X0009526Y0102544D01*
X0009526Y0101545D02*
X0007333Y0101545D01*
X0007333Y0100547D02*
X0009526Y0100547D01*
X0009618Y0099548D02*
X0007333Y0099548D01*
X0007333Y0098550D02*
X0010617Y0098550D01*
X0011615Y0097551D02*
X0007333Y0097551D01*
X0017051Y0097551D02*
X0021623Y0097551D01*
X0021610Y0097556D02*
X0023377Y0096824D01*
X0025290Y0096824D01*
X0027056Y0097556D01*
X0028409Y0098909D01*
X0029140Y0100675D01*
X0029140Y0102588D01*
X0028409Y0104355D01*
X0027056Y0105707D01*
X0025290Y0106439D01*
X0023377Y0106439D01*
X0021610Y0105707D01*
X0020258Y0104355D01*
X0019526Y0102588D01*
X0019526Y0100675D01*
X0020258Y0098909D01*
X0021610Y0097556D01*
X0020617Y0098550D02*
X0018050Y0098550D01*
X0019048Y0099548D02*
X0019993Y0099548D01*
X0019580Y0100547D02*
X0019140Y0100547D01*
X0019140Y0101545D02*
X0019526Y0101545D01*
X0019526Y0102544D02*
X0019140Y0102544D01*
X0019140Y0103542D02*
X0019922Y0103542D01*
X0020444Y0104541D02*
X0018222Y0104541D01*
X0017224Y0105539D02*
X0021443Y0105539D01*
X0021659Y0107536D02*
X0017008Y0107536D01*
X0018035Y0108535D02*
X0020632Y0108535D01*
X0019999Y0109533D02*
X0018667Y0109533D01*
X0019081Y0110532D02*
X0019586Y0110532D01*
X0019526Y0111530D02*
X0019140Y0111530D01*
X0019140Y0112529D02*
X0019526Y0112529D01*
X0019915Y0113527D02*
X0018751Y0113527D01*
X0018237Y0114526D02*
X0020429Y0114526D01*
X0021428Y0115524D02*
X0017239Y0115524D01*
X0011428Y0115524D02*
X0007333Y0115524D01*
X0007333Y0114526D02*
X0010429Y0114526D01*
X0009915Y0113527D02*
X0007333Y0113527D01*
X0007333Y0112529D02*
X0009526Y0112529D01*
X0009526Y0111530D02*
X0007333Y0111530D01*
X0007333Y0110532D02*
X0009586Y0110532D01*
X0009999Y0109533D02*
X0007333Y0109533D01*
X0007333Y0108535D02*
X0010632Y0108535D01*
X0007333Y0116523D02*
X0033254Y0116523D01*
X0034026Y0116523D02*
X0034640Y0116523D01*
X0034640Y0116632D02*
X0034727Y0116632D01*
X0035504Y0116508D01*
X0036253Y0116265D01*
X0036954Y0115908D01*
X0037591Y0115445D01*
X0038147Y0114889D01*
X0038610Y0114252D01*
X0038967Y0113551D01*
X0039210Y0112802D01*
X0039333Y0112025D01*
X0039333Y0111939D01*
X0034640Y0111939D01*
X0034640Y0116632D01*
X0035413Y0116523D02*
X0044765Y0116523D01*
X0043767Y0117521D02*
X0007333Y0117521D01*
X0007333Y0118520D02*
X0042768Y0118520D01*
X0041770Y0119518D02*
X0007333Y0119518D01*
X0007333Y0120517D02*
X0041215Y0120517D01*
X0041026Y0121515D02*
X0037945Y0121515D01*
X0039118Y0122514D02*
X0041026Y0122514D01*
X0041026Y0123512D02*
X0039196Y0123512D01*
X0039196Y0124511D02*
X0041026Y0124511D01*
X0041026Y0125510D02*
X0039196Y0125510D01*
X0039196Y0126508D02*
X0041026Y0126508D01*
X0041026Y0127507D02*
X0039196Y0127507D01*
X0039196Y0128505D02*
X0041026Y0128505D01*
X0041026Y0129504D02*
X0039196Y0129504D01*
X0039196Y0130502D02*
X0041026Y0130502D01*
X0041026Y0131501D02*
X0039196Y0131501D01*
X0039196Y0132499D02*
X0041026Y0132499D01*
X0049798Y0133498D02*
X0065881Y0133498D01*
X0065881Y0134496D02*
X0050796Y0134496D01*
X0051795Y0135495D02*
X0065979Y0135495D01*
X0064333Y0137492D02*
X0053792Y0137492D01*
X0054790Y0138490D02*
X0064302Y0138490D01*
X0069833Y0135495D02*
X0070833Y0135495D01*
X0070833Y0134496D02*
X0069833Y0134496D01*
X0074786Y0134496D02*
X0126428Y0134496D01*
X0125712Y0135495D02*
X0074688Y0135495D01*
X0074786Y0133498D02*
X0144018Y0133498D01*
X0144018Y0134496D02*
X0130238Y0134496D01*
X0128333Y0136632D02*
X0146042Y0136632D01*
X0146310Y0136899D01*
X0146333Y0136876D01*
X0144018Y0138490D02*
X0130515Y0138490D01*
X0126151Y0138490D02*
X0076365Y0138490D01*
X0076365Y0139489D02*
X0144018Y0139489D01*
X0144861Y0141159D02*
X0147652Y0141159D01*
X0147652Y0150506D01*
X0150802Y0153656D01*
X0150802Y0166104D01*
X0147934Y0166104D01*
X0147885Y0166153D01*
X0147835Y0166104D01*
X0144861Y0166104D01*
X0144861Y0163130D01*
X0144812Y0163080D01*
X0144861Y0163031D01*
X0144861Y0159980D01*
X0144812Y0159931D01*
X0144861Y0159882D01*
X0144861Y0156830D01*
X0144812Y0156781D01*
X0144861Y0156732D01*
X0144861Y0153681D01*
X0144812Y0153632D01*
X0144861Y0153582D01*
X0144861Y0150531D01*
X0144812Y0150482D01*
X0144861Y0150433D01*
X0144861Y0147381D01*
X0144812Y0147332D01*
X0144861Y0147283D01*
X0144861Y0144232D01*
X0144812Y0144183D01*
X0144861Y0144134D01*
X0144861Y0141159D01*
X0144861Y0141486D02*
X0147652Y0141486D01*
X0147652Y0142484D02*
X0144861Y0142484D01*
X0144861Y0143483D02*
X0147652Y0143483D01*
X0147652Y0144481D02*
X0144861Y0144481D01*
X0144861Y0145480D02*
X0147652Y0145480D01*
X0147652Y0146478D02*
X0144861Y0146478D01*
X0144861Y0147477D02*
X0147652Y0147477D01*
X0147652Y0148475D02*
X0144861Y0148475D01*
X0144861Y0149474D02*
X0147652Y0149474D01*
X0147652Y0150472D02*
X0144821Y0150472D01*
X0144861Y0151471D02*
X0148617Y0151471D01*
X0149615Y0152469D02*
X0144861Y0152469D01*
X0144861Y0153468D02*
X0150614Y0153468D01*
X0150802Y0154466D02*
X0144861Y0154466D01*
X0144861Y0155465D02*
X0150802Y0155465D01*
X0150802Y0156463D02*
X0144861Y0156463D01*
X0144861Y0157462D02*
X0150802Y0157462D01*
X0150802Y0158460D02*
X0144861Y0158460D01*
X0144861Y0159459D02*
X0150802Y0159459D01*
X0150802Y0160457D02*
X0144861Y0160457D01*
X0144861Y0161456D02*
X0150802Y0161456D01*
X0150802Y0162454D02*
X0144861Y0162454D01*
X0144861Y0163453D02*
X0150802Y0163453D01*
X0150802Y0164451D02*
X0144861Y0164451D01*
X0144861Y0165450D02*
X0150802Y0165450D01*
X0149459Y0170364D02*
X0149333Y0170490D01*
X0149333Y0175632D01*
X0152558Y0178856D01*
X0152558Y0182632D01*
X0147924Y0182541D02*
X0147924Y0177195D01*
X0148341Y0177195D01*
X0147833Y0176687D01*
X0147326Y0177195D01*
X0147743Y0177195D01*
X0147743Y0182541D01*
X0147924Y0182541D01*
X0147924Y0182425D02*
X0147743Y0182425D01*
X0147743Y0183423D02*
X0147924Y0183423D01*
X0147924Y0184422D02*
X0147743Y0184422D01*
X0147743Y0185420D02*
X0147924Y0185420D01*
X0147924Y0186419D02*
X0147743Y0186419D01*
X0147743Y0187417D02*
X0147924Y0187417D01*
X0150257Y0187417D02*
X0150377Y0187417D01*
X0145410Y0187417D02*
X0145290Y0187417D01*
X0140928Y0187417D02*
X0089168Y0187417D01*
X0089593Y0186419D02*
X0140621Y0186419D01*
X0140621Y0185420D02*
X0089593Y0185420D01*
X0089593Y0184422D02*
X0140621Y0184422D01*
X0140621Y0183423D02*
X0089593Y0183423D01*
X0089593Y0182425D02*
X0140621Y0182425D01*
X0140621Y0181426D02*
X0089593Y0181426D01*
X0089230Y0180428D02*
X0140621Y0180428D01*
X0140621Y0179429D02*
X0085548Y0179429D01*
X0084549Y0178431D02*
X0128625Y0178431D01*
X0130042Y0178431D02*
X0135625Y0178431D01*
X0137042Y0178431D02*
X0140621Y0178431D01*
X0141342Y0177432D02*
X0138573Y0177432D01*
X0139094Y0176434D02*
X0142976Y0176434D01*
X0143974Y0175435D02*
X0139727Y0175435D01*
X0141031Y0174437D02*
X0144526Y0174437D01*
X0144018Y0173438D02*
X0142335Y0173438D01*
X0142515Y0172440D02*
X0144018Y0172440D01*
X0144018Y0171441D02*
X0142508Y0171441D01*
X0142508Y0170443D02*
X0144018Y0170443D01*
X0144018Y0169444D02*
X0142508Y0169444D01*
X0142508Y0168445D02*
X0144018Y0168445D01*
X0144018Y0167447D02*
X0142508Y0167447D01*
X0138694Y0167447D02*
X0134240Y0167447D01*
X0134240Y0168445D02*
X0138694Y0168445D01*
X0138694Y0169444D02*
X0134240Y0169444D01*
X0134240Y0170443D02*
X0138694Y0170443D01*
X0138694Y0171422D02*
X0138694Y0166947D01*
X0137107Y0166947D01*
X0136341Y0166181D01*
X0136341Y0164321D01*
X0134240Y0166422D01*
X0134240Y0170498D01*
X0134755Y0171013D01*
X0135190Y0172063D01*
X0135190Y0173013D01*
X0135765Y0172774D01*
X0136902Y0172774D01*
X0136919Y0172782D01*
X0138694Y0171422D01*
X0138669Y0171441D02*
X0134933Y0171441D01*
X0135190Y0172440D02*
X0137365Y0172440D01*
X0133476Y0175435D02*
X0133031Y0175435D01*
X0133573Y0176434D02*
X0132094Y0176434D01*
X0131573Y0177432D02*
X0134093Y0177432D01*
X0127093Y0177432D02*
X0083551Y0177432D01*
X0082552Y0176434D02*
X0126573Y0176434D01*
X0126476Y0175435D02*
X0080998Y0175435D01*
X0076365Y0174437D02*
X0126736Y0174437D01*
X0127426Y0173438D02*
X0076365Y0173438D01*
X0076281Y0172440D02*
X0127426Y0172440D01*
X0127426Y0171441D02*
X0039196Y0171441D01*
X0039196Y0170443D02*
X0127426Y0170443D01*
X0127426Y0169444D02*
X0039196Y0169444D01*
X0039196Y0169132D02*
X0039196Y0179459D01*
X0039093Y0179840D01*
X0038896Y0180183D01*
X0038617Y0180462D01*
X0038275Y0180659D01*
X0037893Y0180761D01*
X0025991Y0180761D01*
X0025991Y0169132D01*
X0039196Y0169132D01*
X0039196Y0167447D02*
X0064123Y0167447D01*
X0064109Y0166448D02*
X0039196Y0166448D01*
X0039196Y0165450D02*
X0064109Y0165450D01*
X0064109Y0164451D02*
X0039196Y0164451D01*
X0039196Y0163453D02*
X0064109Y0163453D01*
X0064109Y0161456D02*
X0058688Y0161456D01*
X0058688Y0160457D02*
X0064109Y0160457D01*
X0064109Y0159459D02*
X0058688Y0159459D01*
X0058688Y0158460D02*
X0064109Y0158460D01*
X0064133Y0157462D02*
X0058688Y0157462D01*
X0058006Y0156463D02*
X0064837Y0156463D01*
X0069833Y0156463D02*
X0070833Y0156463D01*
X0070833Y0157462D02*
X0069833Y0157462D01*
X0069833Y0158460D02*
X0070833Y0158460D01*
X0070833Y0159459D02*
X0069833Y0159459D01*
X0069833Y0160457D02*
X0070833Y0160457D01*
X0070833Y0161456D02*
X0069833Y0161456D01*
X0069833Y0162454D02*
X0058398Y0162454D01*
X0057538Y0155465D02*
X0129803Y0155465D01*
X0128805Y0156463D02*
X0075830Y0156463D01*
X0076534Y0157462D02*
X0127806Y0157462D01*
X0127426Y0158460D02*
X0076558Y0158460D01*
X0076558Y0159459D02*
X0127426Y0159459D01*
X0127426Y0160457D02*
X0076558Y0160457D01*
X0076558Y0161456D02*
X0127426Y0161456D01*
X0127426Y0162454D02*
X0070833Y0162454D01*
X0070833Y0162974D02*
X0076558Y0162974D01*
X0076558Y0167396D01*
X0076455Y0167777D01*
X0076258Y0168120D01*
X0075979Y0168399D01*
X0075637Y0168596D01*
X0075255Y0168698D01*
X0070833Y0168698D01*
X0070833Y0162974D01*
X0070833Y0163453D02*
X0069833Y0163453D01*
X0069833Y0164451D02*
X0070833Y0164451D01*
X0070833Y0165450D02*
X0069833Y0165450D01*
X0069833Y0166448D02*
X0070833Y0166448D01*
X0070833Y0167447D02*
X0069833Y0167447D01*
X0069833Y0168445D02*
X0070833Y0168445D01*
X0075898Y0168445D02*
X0127426Y0168445D01*
X0127426Y0167447D02*
X0076544Y0167447D01*
X0076558Y0166448D02*
X0127426Y0166448D01*
X0127426Y0165450D02*
X0076558Y0165450D01*
X0076558Y0164451D02*
X0127426Y0164451D01*
X0127426Y0163453D02*
X0076558Y0163453D01*
X0057538Y0154466D02*
X0130802Y0154466D01*
X0131800Y0153468D02*
X0057538Y0153468D01*
X0057538Y0152469D02*
X0132799Y0152469D01*
X0133797Y0151471D02*
X0057538Y0151471D01*
X0057538Y0150472D02*
X0134796Y0150472D01*
X0136341Y0149474D02*
X0057538Y0149474D01*
X0057538Y0148475D02*
X0064722Y0148475D01*
X0064302Y0147477D02*
X0057538Y0147477D01*
X0057538Y0146478D02*
X0064302Y0146478D01*
X0075944Y0148475D02*
X0131733Y0148475D01*
X0132934Y0148475D02*
X0136341Y0148475D01*
X0136341Y0147477D02*
X0134529Y0147477D01*
X0132333Y0145632D02*
X0140475Y0145632D01*
X0140601Y0145758D01*
X0140577Y0142632D02*
X0140601Y0142608D01*
X0140577Y0142632D02*
X0124333Y0142632D01*
X0121715Y0141486D02*
X0076365Y0141486D01*
X0076365Y0142484D02*
X0121476Y0142484D01*
X0121593Y0143483D02*
X0076365Y0143483D01*
X0076365Y0144481D02*
X0122142Y0144481D01*
X0123743Y0145480D02*
X0076365Y0145480D01*
X0076365Y0146478D02*
X0129592Y0146478D01*
X0129476Y0145480D02*
X0124923Y0145480D01*
X0126524Y0144481D02*
X0129717Y0144481D01*
X0130138Y0147477D02*
X0076365Y0147477D01*
X0076365Y0140487D02*
X0122437Y0140487D01*
X0126229Y0140487D02*
X0136936Y0140487D01*
X0125597Y0137492D02*
X0076333Y0137492D01*
X0078132Y0125510D02*
X0098171Y0125510D01*
X0097605Y0124511D02*
X0079131Y0124511D01*
X0080129Y0123512D02*
X0097476Y0123512D01*
X0097704Y0122514D02*
X0081128Y0122514D01*
X0082126Y0121515D02*
X0098409Y0121515D01*
X0102258Y0121515D02*
X0140470Y0121515D01*
X0152673Y0131501D02*
X0163400Y0131501D01*
X0163400Y0132499D02*
X0160286Y0132499D01*
X0158908Y0132499D02*
X0158908Y0132499D01*
X0158908Y0133498D02*
X0158908Y0133498D01*
X0158908Y0134496D02*
X0158908Y0134496D01*
X0158908Y0135495D02*
X0158908Y0135495D01*
X0158908Y0136493D02*
X0158908Y0136493D01*
X0158908Y0136899D02*
X0158908Y0141352D01*
X0158908Y0136899D01*
X0158908Y0136899D01*
X0158908Y0137492D02*
X0158908Y0137492D01*
X0158908Y0138490D02*
X0158908Y0138490D01*
X0158908Y0139489D02*
X0158908Y0139489D01*
X0158908Y0140487D02*
X0158908Y0140487D01*
X0168333Y0136876D02*
X0168357Y0136899D01*
X0161164Y0130502D02*
X0160196Y0130502D01*
X0160196Y0129504D02*
X0161164Y0129504D01*
X0161164Y0128505D02*
X0160196Y0128505D01*
X0160680Y0127632D02*
X0158908Y0129403D01*
X0157303Y0130502D02*
X0157099Y0130502D01*
X0157530Y0132499D02*
X0151675Y0132499D01*
X0160196Y0126508D02*
X0161164Y0126508D01*
X0161164Y0125510D02*
X0160196Y0125510D01*
X0160196Y0124511D02*
X0161164Y0124511D01*
X0157545Y0124511D02*
X0156849Y0124511D01*
X0157088Y0123512D02*
X0157578Y0123512D01*
X0157404Y0122514D02*
X0157262Y0122514D01*
X0157262Y0121515D02*
X0157404Y0121515D01*
X0157404Y0120517D02*
X0157262Y0120517D01*
X0157262Y0119518D02*
X0157404Y0119518D01*
X0157404Y0118520D02*
X0157262Y0118520D01*
X0156859Y0117521D02*
X0157808Y0117521D01*
X0158669Y0116523D02*
X0087119Y0116523D01*
X0087543Y0115524D02*
X0157671Y0115524D01*
X0156672Y0114526D02*
X0087640Y0114526D01*
X0088526Y0113527D02*
X0155674Y0113527D01*
X0154675Y0112529D02*
X0089156Y0112529D01*
X0089156Y0111530D02*
X0153677Y0111530D01*
X0152678Y0110532D02*
X0089156Y0110532D01*
X0089156Y0109533D02*
X0151679Y0109533D01*
X0150681Y0108535D02*
X0089156Y0108535D01*
X0089156Y0107536D02*
X0149682Y0107536D01*
X0148684Y0106538D02*
X0089156Y0106538D01*
X0089156Y0105539D02*
X0147685Y0105539D01*
X0146687Y0104541D02*
X0089156Y0104541D01*
X0089156Y0103542D02*
X0145688Y0103542D01*
X0144690Y0102544D02*
X0089156Y0102544D01*
X0087613Y0101545D02*
X0143691Y0101545D01*
X0142693Y0100547D02*
X0087613Y0100547D01*
X0087613Y0099548D02*
X0141694Y0099548D01*
X0140696Y0098550D02*
X0087613Y0098550D01*
X0087613Y0097551D02*
X0139697Y0097551D01*
X0138699Y0096553D02*
X0087613Y0096553D01*
X0087613Y0095554D02*
X0137700Y0095554D01*
X0136702Y0094556D02*
X0090864Y0094556D01*
X0091562Y0093557D02*
X0135703Y0093557D01*
X0133220Y0092559D02*
X0091562Y0092559D01*
X0091562Y0091560D02*
X0132625Y0091560D01*
X0132476Y0090562D02*
X0091562Y0090562D01*
X0080999Y0094624D02*
X0079871Y0094624D01*
X0079640Y0094393D01*
X0079640Y0102181D01*
X0080221Y0101600D01*
X0080999Y0101600D01*
X0080999Y0094624D01*
X0080999Y0095554D02*
X0079640Y0095554D01*
X0079640Y0094556D02*
X0079803Y0094556D01*
X0079640Y0096553D02*
X0080999Y0096553D01*
X0080999Y0097551D02*
X0079640Y0097551D01*
X0079640Y0098550D02*
X0080999Y0098550D01*
X0080999Y0099548D02*
X0079640Y0099548D01*
X0079640Y0100547D02*
X0080999Y0100547D01*
X0080999Y0101545D02*
X0079640Y0101545D01*
X0073026Y0101545D02*
X0071668Y0101545D01*
X0071668Y0100547D02*
X0073026Y0100547D01*
X0073026Y0099548D02*
X0071668Y0099548D01*
X0071668Y0098550D02*
X0073026Y0098550D01*
X0073026Y0097551D02*
X0071668Y0097551D01*
X0071668Y0096553D02*
X0073026Y0096553D01*
X0073026Y0095554D02*
X0071668Y0095554D01*
X0071668Y0094556D02*
X0073026Y0094556D01*
X0073026Y0093557D02*
X0071668Y0093557D01*
X0071668Y0092559D02*
X0073026Y0092559D01*
X0073026Y0091560D02*
X0071668Y0091560D01*
X0071668Y0090562D02*
X0073026Y0090562D01*
X0073026Y0089563D02*
X0071668Y0089563D01*
X0071668Y0088565D02*
X0073026Y0088565D01*
X0073026Y0087566D02*
X0071668Y0087566D01*
X0071668Y0086568D02*
X0073026Y0086568D01*
X0073026Y0085569D02*
X0071668Y0085569D01*
X0071668Y0084571D02*
X0073026Y0084571D01*
X0073026Y0083572D02*
X0071668Y0083572D01*
X0071668Y0082574D02*
X0073026Y0082574D01*
X0073026Y0081575D02*
X0071668Y0081575D01*
X0071414Y0080577D02*
X0073026Y0080577D01*
X0073026Y0079578D02*
X0070768Y0079578D01*
X0069769Y0078579D02*
X0073026Y0078579D01*
X0073026Y0077581D02*
X0068771Y0077581D01*
X0067772Y0076582D02*
X0073026Y0076582D01*
X0073188Y0075584D02*
X0066774Y0075584D01*
X0065775Y0074585D02*
X0073703Y0074585D01*
X0074701Y0073587D02*
X0064777Y0073587D01*
X0063778Y0072588D02*
X0075700Y0072588D01*
X0076698Y0071590D02*
X0063451Y0071590D01*
X0063451Y0070591D02*
X0077697Y0070591D01*
X0079028Y0069593D02*
X0063451Y0069593D01*
X0063451Y0068594D02*
X0079181Y0068594D01*
X0079212Y0068647D02*
X0079014Y0068305D01*
X0078912Y0067924D01*
X0078912Y0061336D01*
X0084833Y0061336D01*
X0084833Y0060336D01*
X0085833Y0060336D01*
X0085833Y0052447D01*
X0090452Y0052447D01*
X0090834Y0052549D01*
X0091176Y0052746D01*
X0091455Y0053026D01*
X0091652Y0053368D01*
X0091755Y0053749D01*
X0091755Y0060336D01*
X0085833Y0060336D01*
X0085833Y0061336D01*
X0084833Y0061336D01*
X0084833Y0069226D01*
X0080215Y0069226D01*
X0079833Y0069124D01*
X0079491Y0068926D01*
X0079212Y0068647D01*
X0078912Y0067596D02*
X0063451Y0067596D01*
X0063451Y0066597D02*
X0078912Y0066597D01*
X0078912Y0065599D02*
X0063451Y0065599D01*
X0063451Y0064600D02*
X0078912Y0064600D01*
X0078912Y0063602D02*
X0063130Y0063602D01*
X0062717Y0062603D02*
X0078912Y0062603D01*
X0078912Y0061605D02*
X0062037Y0061605D01*
X0061039Y0060606D02*
X0084833Y0060606D01*
X0084833Y0059608D02*
X0085833Y0059608D01*
X0085833Y0060606D02*
X0103682Y0060606D01*
X0104680Y0059608D02*
X0091755Y0059608D01*
X0091755Y0058609D02*
X0105679Y0058609D01*
X0105932Y0057611D02*
X0091755Y0057611D01*
X0091755Y0056612D02*
X0106346Y0056612D01*
X0107048Y0055614D02*
X0091755Y0055614D01*
X0091755Y0054615D02*
X0108384Y0054615D01*
X0112283Y0054615D02*
X0120959Y0054615D01*
X0120959Y0053617D02*
X0091719Y0053617D01*
X0090954Y0052618D02*
X0120959Y0052618D01*
X0120959Y0055614D02*
X0113618Y0055614D01*
X0124322Y0054615D02*
X0125321Y0054615D01*
X0125321Y0053617D02*
X0124322Y0053617D01*
X0124322Y0052618D02*
X0125321Y0052618D01*
X0125321Y0051620D02*
X0124322Y0051620D01*
X0124322Y0050621D02*
X0125321Y0050621D01*
X0125322Y0057021D02*
X0128684Y0057021D01*
X0128684Y0061442D01*
X0128581Y0061824D01*
X0128384Y0062166D01*
X0128105Y0062445D01*
X0127763Y0062643D01*
X0127381Y0062745D01*
X0125321Y0062745D01*
X0125321Y0057021D01*
X0125321Y0057611D02*
X0124322Y0057611D01*
X0124322Y0058609D02*
X0125321Y0058609D01*
X0125321Y0059608D02*
X0124322Y0059608D01*
X0124322Y0060606D02*
X0125321Y0060606D01*
X0125321Y0061605D02*
X0124322Y0061605D01*
X0124322Y0062603D02*
X0125321Y0062603D01*
X0127831Y0062603D02*
X0153053Y0062603D01*
X0152933Y0061605D02*
X0139514Y0061605D01*
X0132176Y0061605D02*
X0128640Y0061605D01*
X0128684Y0060606D02*
X0132176Y0060606D01*
X0132176Y0059608D02*
X0128684Y0059608D01*
X0128684Y0058609D02*
X0132176Y0058609D01*
X0132176Y0057611D02*
X0128684Y0057611D01*
X0139514Y0054615D02*
X0397034Y0054615D01*
X0397034Y0053617D02*
X0139514Y0053617D01*
X0139514Y0052618D02*
X0397034Y0052618D01*
X0397034Y0051620D02*
X0139514Y0051620D01*
X0158658Y0060606D02*
X0159658Y0060606D01*
X0159658Y0061605D02*
X0158658Y0061605D01*
X0158658Y0062603D02*
X0159658Y0062603D01*
X0165047Y0074585D02*
X0181824Y0074585D01*
X0180825Y0075584D02*
X0165189Y0075584D01*
X0165189Y0076582D02*
X0179827Y0076582D01*
X0178828Y0077581D02*
X0165189Y0077581D01*
X0165189Y0078579D02*
X0177830Y0078579D01*
X0176831Y0079578D02*
X0165189Y0079578D01*
X0165148Y0080577D02*
X0175833Y0080577D01*
X0174834Y0081575D02*
X0165657Y0081575D01*
X0166655Y0082574D02*
X0173836Y0082574D01*
X0172837Y0083572D02*
X0167014Y0083572D01*
X0167014Y0084571D02*
X0171839Y0084571D01*
X0170840Y0085569D02*
X0167014Y0085569D01*
X0167014Y0086568D02*
X0169842Y0086568D01*
X0168843Y0087566D02*
X0167014Y0087566D01*
X0167014Y0088565D02*
X0167845Y0088565D01*
X0180944Y0080577D02*
X0185519Y0080577D01*
X0185477Y0079578D02*
X0181943Y0079578D01*
X0182941Y0078579D02*
X0185477Y0078579D01*
X0185477Y0077581D02*
X0183940Y0077581D01*
X0184938Y0076582D02*
X0185477Y0076582D01*
X0197398Y0074585D02*
X0200732Y0074585D01*
X0200333Y0101632D02*
X0184333Y0117632D01*
X0184333Y0139632D01*
X0178207Y0145758D01*
X0174066Y0145758D01*
X0174066Y0148907D02*
X0181404Y0148907D01*
X0189333Y0140978D01*
X0192680Y0137632D01*
X0199333Y0137632D01*
X0233833Y0172132D01*
X0237333Y0172132D01*
X0236356Y0169444D02*
X0233701Y0169444D01*
X0232703Y0168445D02*
X0358420Y0168445D01*
X0358420Y0169444D02*
X0238311Y0169444D01*
X0239685Y0170443D02*
X0358783Y0170443D01*
X0359367Y0171441D02*
X0240140Y0171441D01*
X0240190Y0172440D02*
X0360475Y0172440D01*
X0358588Y0167447D02*
X0231704Y0167447D01*
X0230706Y0166448D02*
X0359002Y0166448D01*
X0359896Y0165450D02*
X0229707Y0165450D01*
X0228709Y0164451D02*
X0361754Y0164451D01*
X0371700Y0175435D02*
X0372984Y0175435D01*
X0378078Y0177432D02*
X0397034Y0177432D01*
X0397034Y0176434D02*
X0379077Y0176434D01*
X0380075Y0175435D02*
X0397034Y0175435D01*
X0397034Y0174437D02*
X0381074Y0174437D01*
X0381713Y0173438D02*
X0397034Y0173438D01*
X0397034Y0172440D02*
X0381840Y0172440D01*
X0381840Y0171441D02*
X0397034Y0171441D01*
X0397034Y0170443D02*
X0381840Y0170443D01*
X0381840Y0169444D02*
X0397034Y0169444D01*
X0397034Y0168445D02*
X0381840Y0168445D01*
X0381840Y0167447D02*
X0397034Y0167447D01*
X0397034Y0166448D02*
X0381840Y0166448D01*
X0381840Y0165450D02*
X0397034Y0165450D01*
X0397034Y0164451D02*
X0381840Y0164451D01*
X0381840Y0163453D02*
X0397034Y0163453D01*
X0397034Y0162454D02*
X0381840Y0162454D01*
X0381840Y0161456D02*
X0397034Y0161456D01*
X0397034Y0160457D02*
X0381840Y0160457D01*
X0381840Y0159459D02*
X0397034Y0159459D01*
X0397034Y0158460D02*
X0381840Y0158460D01*
X0381840Y0157462D02*
X0397034Y0157462D01*
X0397034Y0156463D02*
X0381840Y0156463D01*
X0381840Y0155465D02*
X0397034Y0155465D01*
X0397034Y0154466D02*
X0381840Y0154466D01*
X0381840Y0153468D02*
X0397034Y0153468D01*
X0397034Y0152469D02*
X0381840Y0152469D01*
X0381840Y0151471D02*
X0397034Y0151471D01*
X0397034Y0150472D02*
X0381840Y0150472D01*
X0381840Y0149474D02*
X0397034Y0149474D01*
X0397034Y0148475D02*
X0381840Y0148475D01*
X0381840Y0147477D02*
X0397034Y0147477D01*
X0397034Y0146478D02*
X0381840Y0146478D01*
X0381840Y0145480D02*
X0397034Y0145480D01*
X0397034Y0144481D02*
X0381840Y0144481D01*
X0381840Y0143483D02*
X0397034Y0143483D01*
X0397034Y0142484D02*
X0381840Y0142484D01*
X0381840Y0141486D02*
X0397034Y0141486D01*
X0397034Y0140487D02*
X0381840Y0140487D01*
X0381840Y0139489D02*
X0397034Y0139489D01*
X0397034Y0138490D02*
X0381840Y0138490D01*
X0381840Y0137492D02*
X0397034Y0137492D01*
X0397034Y0136493D02*
X0381840Y0136493D01*
X0381840Y0135495D02*
X0397034Y0135495D01*
X0397034Y0134496D02*
X0381840Y0134496D01*
X0381840Y0133498D02*
X0397034Y0133498D01*
X0397034Y0132499D02*
X0381840Y0132499D01*
X0381840Y0131501D02*
X0397034Y0131501D01*
X0397034Y0130502D02*
X0381840Y0130502D01*
X0381840Y0129504D02*
X0397034Y0129504D01*
X0397034Y0128505D02*
X0381840Y0128505D01*
X0381840Y0127507D02*
X0397034Y0127507D01*
X0397034Y0126508D02*
X0381840Y0126508D01*
X0381840Y0125510D02*
X0397034Y0125510D01*
X0397034Y0124511D02*
X0381840Y0124511D01*
X0381840Y0123512D02*
X0397034Y0123512D01*
X0397034Y0122514D02*
X0381840Y0122514D01*
X0381840Y0121515D02*
X0397034Y0121515D01*
X0397034Y0120517D02*
X0381840Y0120517D01*
X0381840Y0119518D02*
X0397034Y0119518D01*
X0397034Y0118520D02*
X0381840Y0118520D01*
X0381840Y0117521D02*
X0397034Y0117521D01*
X0397034Y0116523D02*
X0381840Y0116523D01*
X0381840Y0115524D02*
X0397034Y0115524D01*
X0397034Y0114526D02*
X0381840Y0114526D01*
X0381840Y0113527D02*
X0397034Y0113527D01*
X0397034Y0112529D02*
X0381840Y0112529D01*
X0381840Y0111530D02*
X0397034Y0111530D01*
X0397034Y0110532D02*
X0381840Y0110532D01*
X0381840Y0109533D02*
X0397034Y0109533D01*
X0397034Y0108535D02*
X0381840Y0108535D01*
X0381840Y0107536D02*
X0397034Y0107536D01*
X0397034Y0106538D02*
X0381840Y0106538D01*
X0381840Y0105539D02*
X0397034Y0105539D01*
X0397034Y0104541D02*
X0381840Y0104541D01*
X0381840Y0103542D02*
X0397034Y0103542D01*
X0397034Y0102544D02*
X0381840Y0102544D01*
X0381597Y0101545D02*
X0397034Y0101545D01*
X0397034Y0100547D02*
X0380794Y0100547D01*
X0379796Y0099548D02*
X0382330Y0099548D01*
X0382721Y0099939D02*
X0379026Y0096244D01*
X0379026Y0091019D01*
X0382721Y0087324D01*
X0387946Y0087324D01*
X0391640Y0091019D01*
X0391640Y0096244D01*
X0387946Y0099939D01*
X0382721Y0099939D01*
X0381332Y0098550D02*
X0378797Y0098550D01*
X0377798Y0097551D02*
X0380333Y0097551D01*
X0379335Y0096553D02*
X0376800Y0096553D01*
X0375801Y0095554D02*
X0379026Y0095554D01*
X0379026Y0094556D02*
X0374803Y0094556D01*
X0373804Y0093557D02*
X0379026Y0093557D01*
X0379026Y0092559D02*
X0372806Y0092559D01*
X0371807Y0091560D02*
X0379026Y0091560D01*
X0379484Y0090562D02*
X0370809Y0090562D01*
X0369810Y0089563D02*
X0380482Y0089563D01*
X0381481Y0088565D02*
X0368812Y0088565D01*
X0367813Y0087566D02*
X0382479Y0087566D01*
X0388187Y0087566D02*
X0397034Y0087566D01*
X0397034Y0086568D02*
X0366815Y0086568D01*
X0365816Y0085569D02*
X0397034Y0085569D01*
X0397034Y0084571D02*
X0364818Y0084571D01*
X0363819Y0083572D02*
X0397034Y0083572D01*
X0397034Y0082574D02*
X0362821Y0082574D01*
X0361822Y0081575D02*
X0397034Y0081575D01*
X0397034Y0080577D02*
X0360824Y0080577D01*
X0359825Y0079578D02*
X0397034Y0079578D01*
X0397034Y0078579D02*
X0358827Y0078579D01*
X0357828Y0077581D02*
X0397034Y0077581D01*
X0397034Y0076582D02*
X0356830Y0076582D01*
X0355831Y0075584D02*
X0397034Y0075584D01*
X0397034Y0074585D02*
X0354833Y0074585D01*
X0353834Y0073587D02*
X0397034Y0073587D01*
X0397034Y0072588D02*
X0352836Y0072588D01*
X0351837Y0071590D02*
X0397034Y0071590D01*
X0397034Y0070591D02*
X0350839Y0070591D01*
X0349840Y0069593D02*
X0382375Y0069593D01*
X0381377Y0068594D02*
X0348842Y0068594D01*
X0347843Y0067596D02*
X0380378Y0067596D01*
X0379380Y0066597D02*
X0346845Y0066597D01*
X0347398Y0074585D02*
X0347742Y0074585D01*
X0347540Y0075584D02*
X0348740Y0075584D01*
X0349739Y0076582D02*
X0347540Y0076582D01*
X0347540Y0077581D02*
X0350737Y0077581D01*
X0351736Y0078579D02*
X0347540Y0078579D01*
X0347540Y0079578D02*
X0352734Y0079578D01*
X0353733Y0080577D02*
X0347499Y0080577D01*
X0354731Y0081575D02*
X0307770Y0081575D01*
X0306771Y0082574D02*
X0355730Y0082574D01*
X0356728Y0083572D02*
X0305773Y0083572D01*
X0304774Y0084571D02*
X0357727Y0084571D01*
X0358725Y0085569D02*
X0303776Y0085569D01*
X0302777Y0086568D02*
X0359724Y0086568D01*
X0360722Y0087566D02*
X0301779Y0087566D01*
X0300780Y0088565D02*
X0361721Y0088565D01*
X0362719Y0089563D02*
X0299782Y0089563D01*
X0298783Y0090562D02*
X0363718Y0090562D01*
X0364716Y0091560D02*
X0297785Y0091560D01*
X0259333Y0098632D02*
X0256333Y0101632D01*
X0200333Y0101632D01*
X0191262Y0118520D02*
X0376826Y0118520D01*
X0376826Y0119518D02*
X0191965Y0119518D01*
X0192190Y0120517D02*
X0376826Y0120517D01*
X0376826Y0121515D02*
X0192060Y0121515D01*
X0191491Y0122514D02*
X0376826Y0122514D01*
X0376826Y0115524D02*
X0352291Y0115524D01*
X0354639Y0114526D02*
X0376826Y0114526D01*
X0376826Y0113527D02*
X0355637Y0113527D01*
X0356636Y0112529D02*
X0376826Y0112529D01*
X0376826Y0111530D02*
X0357436Y0111530D01*
X0357850Y0110532D02*
X0376826Y0110532D01*
X0376826Y0109533D02*
X0358263Y0109533D01*
X0358677Y0108535D02*
X0376826Y0108535D01*
X0376826Y0107536D02*
X0358759Y0107536D01*
X0358759Y0106538D02*
X0376826Y0106538D01*
X0376826Y0105539D02*
X0358759Y0105539D01*
X0358759Y0104541D02*
X0376826Y0104541D01*
X0376698Y0103542D02*
X0358355Y0103542D01*
X0357942Y0102544D02*
X0375700Y0102544D01*
X0374701Y0101545D02*
X0357528Y0101545D01*
X0356857Y0100547D02*
X0373703Y0100547D01*
X0372704Y0099548D02*
X0355859Y0099548D01*
X0354860Y0098550D02*
X0371706Y0098550D01*
X0388336Y0099548D02*
X0397034Y0099548D01*
X0397034Y0098550D02*
X0389335Y0098550D01*
X0390333Y0097551D02*
X0397034Y0097551D01*
X0397034Y0096553D02*
X0391332Y0096553D01*
X0391640Y0095554D02*
X0397034Y0095554D01*
X0397034Y0094556D02*
X0391640Y0094556D01*
X0391640Y0093557D02*
X0397034Y0093557D01*
X0397034Y0092559D02*
X0391640Y0092559D01*
X0391640Y0091560D02*
X0397034Y0091560D01*
X0397034Y0090562D02*
X0391183Y0090562D01*
X0390184Y0089563D02*
X0397034Y0089563D01*
X0397034Y0088565D02*
X0389186Y0088565D01*
X0388292Y0069593D02*
X0397034Y0069593D01*
X0397034Y0068594D02*
X0389290Y0068594D01*
X0390289Y0067596D02*
X0397034Y0067596D01*
X0397034Y0066597D02*
X0391287Y0066597D01*
X0391640Y0065599D02*
X0397034Y0065599D01*
X0397034Y0064600D02*
X0391640Y0064600D01*
X0391640Y0063602D02*
X0397034Y0063602D01*
X0397034Y0062603D02*
X0391640Y0062603D01*
X0391640Y0061605D02*
X0397034Y0061605D01*
X0397034Y0060606D02*
X0391228Y0060606D01*
X0390229Y0059608D02*
X0397034Y0059608D01*
X0397034Y0058609D02*
X0389231Y0058609D01*
X0388232Y0057611D02*
X0397034Y0057611D01*
X0397034Y0048624D02*
X0056043Y0048624D01*
X0055374Y0047626D02*
X0397034Y0047626D01*
X0397034Y0046627D02*
X0054355Y0046627D01*
X0045633Y0055614D02*
X0045033Y0055614D01*
X0045033Y0056612D02*
X0045633Y0056612D01*
X0045633Y0057611D02*
X0045033Y0057611D01*
X0037536Y0057611D02*
X0007333Y0057611D01*
X0007333Y0058609D02*
X0078912Y0058609D01*
X0078912Y0059608D02*
X0059083Y0059608D01*
X0053250Y0060606D02*
X0037651Y0060606D01*
X0038625Y0061605D02*
X0052252Y0061605D01*
X0051572Y0062603D02*
X0039279Y0062603D01*
X0039708Y0063602D02*
X0051158Y0063602D01*
X0050837Y0064600D02*
X0039943Y0064600D01*
X0040022Y0065599D02*
X0050837Y0065599D01*
X0050837Y0066597D02*
X0040022Y0066597D01*
X0040022Y0067596D02*
X0050837Y0067596D01*
X0050837Y0068594D02*
X0040022Y0068594D01*
X0040022Y0069593D02*
X0050837Y0069593D01*
X0050837Y0070591D02*
X0036568Y0070591D01*
X0040022Y0071590D02*
X0050837Y0071590D01*
X0050837Y0072588D02*
X0040022Y0072588D01*
X0040022Y0073587D02*
X0050837Y0073587D01*
X0050837Y0074585D02*
X0040022Y0074585D01*
X0040022Y0075584D02*
X0050837Y0075584D01*
X0050837Y0076582D02*
X0039953Y0076582D01*
X0039729Y0077581D02*
X0051125Y0077581D01*
X0051539Y0078579D02*
X0039326Y0078579D01*
X0038687Y0079578D02*
X0052171Y0079578D01*
X0053170Y0080577D02*
X0037755Y0080577D01*
X0036159Y0081575D02*
X0055012Y0081575D01*
X0059277Y0081575D02*
X0063411Y0081575D01*
X0062412Y0080577D02*
X0061119Y0080577D01*
X0080061Y0077581D02*
X0105877Y0077581D01*
X0105709Y0078579D02*
X0091145Y0078579D01*
X0091562Y0079578D02*
X0104710Y0079578D01*
X0103711Y0080577D02*
X0091562Y0080577D01*
X0091562Y0081575D02*
X0102713Y0081575D01*
X0101714Y0082574D02*
X0091562Y0082574D01*
X0081059Y0076582D02*
X0106080Y0076582D01*
X0107078Y0075584D02*
X0097848Y0075584D01*
X0099056Y0074585D02*
X0108077Y0074585D01*
X0097691Y0066597D02*
X0091755Y0066597D01*
X0091755Y0065599D02*
X0098689Y0065599D01*
X0099688Y0064600D02*
X0091755Y0064600D01*
X0091755Y0063602D02*
X0100686Y0063602D01*
X0101685Y0062603D02*
X0091755Y0062603D01*
X0091755Y0061605D02*
X0102683Y0061605D01*
X0096692Y0067596D02*
X0091755Y0067596D01*
X0091755Y0067924D02*
X0091652Y0068305D01*
X0091455Y0068647D01*
X0091176Y0068926D01*
X0090834Y0069124D01*
X0090452Y0069226D01*
X0085833Y0069226D01*
X0085833Y0061336D01*
X0091755Y0061336D01*
X0091755Y0067924D01*
X0091485Y0068594D02*
X0095694Y0068594D01*
X0085833Y0068594D02*
X0084833Y0068594D01*
X0084833Y0067596D02*
X0085833Y0067596D01*
X0085833Y0066597D02*
X0084833Y0066597D01*
X0084833Y0065599D02*
X0085833Y0065599D01*
X0085833Y0064600D02*
X0084833Y0064600D01*
X0084833Y0063602D02*
X0085833Y0063602D01*
X0085833Y0062603D02*
X0084833Y0062603D01*
X0084833Y0061605D02*
X0085833Y0061605D01*
X0085833Y0058609D02*
X0084833Y0058609D01*
X0084833Y0057611D02*
X0085833Y0057611D01*
X0085833Y0056612D02*
X0084833Y0056612D01*
X0084833Y0055614D02*
X0085833Y0055614D01*
X0085833Y0054615D02*
X0084833Y0054615D01*
X0084833Y0053617D02*
X0085833Y0053617D01*
X0085833Y0052618D02*
X0084833Y0052618D01*
X0113603Y0065599D02*
X0379026Y0065599D01*
X0309658Y0062603D02*
X0308658Y0062603D01*
X0308658Y0061605D02*
X0309658Y0061605D01*
X0309658Y0060606D02*
X0308658Y0060606D01*
X0302933Y0060606D02*
X0297733Y0060606D01*
X0297733Y0061605D02*
X0302933Y0061605D01*
X0303053Y0062603D02*
X0297613Y0062603D01*
X0297733Y0058609D02*
X0302933Y0058609D01*
X0302933Y0057611D02*
X0297733Y0057611D01*
X0297586Y0056612D02*
X0303081Y0056612D01*
X0292009Y0060606D02*
X0291009Y0060606D01*
X0291009Y0061605D02*
X0292009Y0061605D01*
X0292009Y0062603D02*
X0291009Y0062603D01*
X0257526Y0094556D02*
X0257130Y0094556D01*
X0257365Y0095554D02*
X0257526Y0095554D01*
X0253483Y0099805D02*
X0253502Y0099824D01*
X0253464Y0099824D01*
X0253483Y0099805D01*
X0250353Y0099824D02*
X0250333Y0099805D01*
X0250314Y0099824D01*
X0250353Y0099824D01*
X0247203Y0099824D02*
X0247184Y0099805D01*
X0247164Y0099824D01*
X0247203Y0099824D01*
X0190195Y0137561D02*
X0186627Y0137561D01*
X0186140Y0137075D01*
X0186140Y0138189D01*
X0186627Y0137702D01*
X0190053Y0137702D01*
X0190195Y0137561D01*
X0192806Y0140061D02*
X0192806Y0141950D01*
X0192861Y0141895D01*
X0192861Y0140006D01*
X0192806Y0140061D01*
X0192806Y0140487D02*
X0192861Y0140487D01*
X0192861Y0141486D02*
X0192806Y0141486D01*
X0190502Y0144254D02*
X0188613Y0144254D01*
X0182617Y0150250D01*
X0184506Y0150250D01*
X0190502Y0144254D01*
X0190275Y0144481D02*
X0188386Y0144481D01*
X0189276Y0145480D02*
X0187387Y0145480D01*
X0188278Y0146478D02*
X0186389Y0146478D01*
X0187279Y0147477D02*
X0185390Y0147477D01*
X0186280Y0148475D02*
X0184392Y0148475D01*
X0185282Y0149474D02*
X0183393Y0149474D01*
X0180656Y0147100D02*
X0179420Y0147100D01*
X0185082Y0141439D01*
X0185082Y0141439D01*
X0185861Y0140660D01*
X0185861Y0141895D01*
X0180656Y0147100D01*
X0180042Y0146478D02*
X0181278Y0146478D01*
X0181041Y0145480D02*
X0182276Y0145480D01*
X0182039Y0144481D02*
X0183275Y0144481D01*
X0183038Y0143483D02*
X0184273Y0143483D01*
X0184036Y0142484D02*
X0185272Y0142484D01*
X0185035Y0141486D02*
X0185861Y0141486D01*
X0180922Y0140487D02*
X0177730Y0140487D01*
X0178325Y0141486D02*
X0179924Y0141486D01*
X0178925Y0142484D02*
X0178325Y0142484D01*
X0186140Y0137492D02*
X0186558Y0137492D01*
X0195386Y0144481D02*
X0197627Y0144481D01*
X0198626Y0145480D02*
X0194387Y0145480D01*
X0193389Y0146478D02*
X0199624Y0146478D01*
X0200623Y0147477D02*
X0192390Y0147477D01*
X0191392Y0148475D02*
X0201621Y0148475D01*
X0202620Y0149474D02*
X0190393Y0149474D01*
X0189395Y0150472D02*
X0195452Y0150472D01*
X0194722Y0151471D02*
X0188396Y0151471D01*
X0187398Y0152469D02*
X0194476Y0152469D01*
X0194587Y0153468D02*
X0188725Y0153468D01*
X0189724Y0154466D02*
X0195128Y0154466D01*
X0194171Y0155465D02*
X0190722Y0155465D01*
X0191721Y0156463D02*
X0194058Y0156463D01*
X0194058Y0160092D02*
X0190669Y0160092D01*
X0190952Y0160209D01*
X0191755Y0161013D01*
X0192190Y0162063D01*
X0192190Y0162933D01*
X0192428Y0163171D01*
X0194058Y0163171D01*
X0194058Y0162271D01*
X0194697Y0161632D01*
X0194058Y0160992D01*
X0194058Y0160092D01*
X0194058Y0160457D02*
X0191200Y0160457D01*
X0191939Y0161456D02*
X0194522Y0161456D01*
X0194058Y0162454D02*
X0192190Y0162454D01*
X0191680Y0164978D02*
X0189333Y0162632D01*
X0186728Y0161456D02*
X0185981Y0161456D01*
X0185902Y0161489D02*
X0186883Y0161082D01*
X0186476Y0162063D01*
X0186476Y0163200D01*
X0186883Y0164181D01*
X0185902Y0163774D01*
X0185032Y0163774D01*
X0181696Y0160439D01*
X0183100Y0160439D01*
X0183715Y0161054D01*
X0184765Y0161489D01*
X0185902Y0161489D01*
X0186476Y0162454D02*
X0183712Y0162454D01*
X0184686Y0161456D02*
X0182713Y0161456D01*
X0183119Y0160457D02*
X0181715Y0160457D01*
X0180207Y0161506D02*
X0185333Y0166632D01*
X0187936Y0165450D02*
X0188672Y0165450D01*
X0188765Y0165489D02*
X0187784Y0165082D01*
X0188190Y0166063D01*
X0188190Y0167200D01*
X0187755Y0168250D01*
X0187449Y0168557D01*
X0193368Y0168557D01*
X0193983Y0167942D01*
X0194217Y0167844D01*
X0194058Y0167685D01*
X0194058Y0166785D01*
X0190931Y0166785D01*
X0189635Y0165489D01*
X0188765Y0165489D01*
X0188190Y0166448D02*
X0190595Y0166448D01*
X0191680Y0164978D02*
X0197333Y0164978D01*
X0194058Y0167447D02*
X0188088Y0167447D01*
X0187560Y0168445D02*
X0193479Y0168445D01*
X0195601Y0170364D02*
X0168357Y0170364D01*
X0170648Y0168557D02*
X0183218Y0168557D01*
X0182911Y0168250D01*
X0182476Y0167200D01*
X0182476Y0166330D01*
X0179459Y0163313D01*
X0178325Y0163313D01*
X0178325Y0166181D01*
X0177560Y0166947D01*
X0170648Y0166947D01*
X0170648Y0168557D01*
X0170648Y0168445D02*
X0183107Y0168445D01*
X0182579Y0167447D02*
X0170648Y0167447D01*
X0170648Y0172440D02*
X0193636Y0172440D01*
X0182476Y0166448D02*
X0178058Y0166448D01*
X0178325Y0165450D02*
X0181596Y0165450D01*
X0180598Y0164451D02*
X0178325Y0164451D01*
X0178325Y0163453D02*
X0179599Y0163453D01*
X0180207Y0161506D02*
X0174066Y0161506D01*
X0174341Y0158632D02*
X0174066Y0158356D01*
X0174341Y0158632D02*
X0185333Y0158632D01*
X0188190Y0158460D02*
X0188607Y0158460D01*
X0188190Y0158063D02*
X0188190Y0159200D01*
X0187784Y0160181D01*
X0188765Y0159774D01*
X0189902Y0159774D01*
X0189934Y0159788D01*
X0188177Y0158031D01*
X0188190Y0158063D01*
X0188083Y0159459D02*
X0189605Y0159459D01*
X0186581Y0163453D02*
X0184710Y0163453D01*
X0162058Y0165911D02*
X0162058Y0170364D01*
X0162058Y0170364D01*
X0162058Y0170443D02*
X0162058Y0170443D01*
X0162058Y0171441D02*
X0162058Y0171441D01*
X0162058Y0172440D02*
X0162058Y0172440D01*
X0162058Y0173438D02*
X0162058Y0173438D01*
X0162058Y0174437D02*
X0162058Y0174437D01*
X0162058Y0169444D02*
X0162058Y0169444D01*
X0162058Y0168445D02*
X0162058Y0168445D01*
X0162058Y0167447D02*
X0162058Y0167447D01*
X0162058Y0166448D02*
X0162058Y0166448D01*
X0146333Y0170387D02*
X0146333Y0175632D01*
X0143109Y0178856D01*
X0143109Y0182632D01*
X0147743Y0181426D02*
X0147924Y0181426D01*
X0147924Y0180428D02*
X0147743Y0180428D01*
X0147743Y0179429D02*
X0147924Y0179429D01*
X0147924Y0178431D02*
X0147743Y0178431D01*
X0147743Y0177432D02*
X0147924Y0177432D01*
X0146333Y0170387D02*
X0146310Y0170364D01*
X0136609Y0166448D02*
X0134240Y0166448D01*
X0135212Y0165450D02*
X0136341Y0165450D01*
X0136341Y0164451D02*
X0136210Y0164451D01*
X0133812Y0161456D02*
X0131240Y0161456D01*
X0131240Y0162454D02*
X0132813Y0162454D01*
X0131815Y0163453D02*
X0131240Y0163453D01*
X0131543Y0163724D02*
X0131240Y0164027D01*
X0131240Y0159422D01*
X0136341Y0154321D01*
X0136341Y0156732D01*
X0136390Y0156781D01*
X0136341Y0156830D01*
X0136341Y0159599D01*
X0135669Y0159599D01*
X0131543Y0163724D01*
X0131240Y0160457D02*
X0134810Y0160457D01*
X0136341Y0159459D02*
X0131240Y0159459D01*
X0132202Y0158460D02*
X0136341Y0158460D01*
X0136341Y0157462D02*
X0133200Y0157462D01*
X0134199Y0156463D02*
X0136341Y0156463D01*
X0136341Y0155465D02*
X0135197Y0155465D01*
X0136196Y0154466D02*
X0136341Y0154466D01*
X0125476Y0136493D02*
X0052793Y0136493D01*
X0025991Y0136493D02*
X0024991Y0136493D01*
X0024991Y0135495D02*
X0025991Y0135495D01*
X0025991Y0134496D02*
X0024991Y0134496D01*
X0024991Y0133498D02*
X0007333Y0133498D01*
X0007333Y0134496D02*
X0011786Y0134496D01*
X0011786Y0135495D02*
X0007333Y0135495D01*
X0007333Y0136493D02*
X0011786Y0136493D01*
X0011786Y0137492D02*
X0007333Y0137492D01*
X0007333Y0138490D02*
X0011786Y0138490D01*
X0011786Y0139489D02*
X0007333Y0139489D01*
X0007333Y0140487D02*
X0011786Y0140487D01*
X0011786Y0141486D02*
X0007333Y0141486D01*
X0007333Y0142484D02*
X0011786Y0142484D01*
X0011786Y0143483D02*
X0007333Y0143483D01*
X0007333Y0144481D02*
X0011792Y0144481D01*
X0012396Y0145480D02*
X0007333Y0145480D01*
X0024991Y0145480D02*
X0025991Y0145480D01*
X0025991Y0144481D02*
X0024991Y0144481D01*
X0024991Y0143483D02*
X0025991Y0143483D01*
X0025991Y0142484D02*
X0024991Y0142484D01*
X0024991Y0141486D02*
X0025991Y0141486D01*
X0025991Y0140487D02*
X0024991Y0140487D01*
X0024991Y0139489D02*
X0025991Y0139489D01*
X0025991Y0138490D02*
X0024991Y0138490D01*
X0024991Y0137492D02*
X0025991Y0137492D01*
X0011786Y0132499D02*
X0007333Y0132499D01*
X0007333Y0131501D02*
X0011786Y0131501D01*
X0011786Y0130502D02*
X0007333Y0130502D01*
X0007333Y0129504D02*
X0011786Y0129504D01*
X0011786Y0128505D02*
X0007333Y0128505D01*
X0007333Y0127507D02*
X0011786Y0127507D01*
X0011786Y0126508D02*
X0007333Y0126508D01*
X0007333Y0125510D02*
X0011786Y0125510D01*
X0011786Y0124511D02*
X0007333Y0124511D01*
X0007333Y0123512D02*
X0011786Y0123512D01*
X0011864Y0122514D02*
X0007333Y0122514D01*
X0007333Y0121515D02*
X0013037Y0121515D01*
X0029081Y0110532D02*
X0029445Y0110532D01*
X0029791Y0109533D02*
X0028667Y0109533D01*
X0028035Y0108535D02*
X0030403Y0108535D01*
X0031463Y0107536D02*
X0027008Y0107536D01*
X0027224Y0105539D02*
X0031443Y0105539D01*
X0031610Y0105707D02*
X0030258Y0104355D01*
X0029526Y0102588D01*
X0029526Y0100675D01*
X0030258Y0098909D01*
X0031610Y0097556D01*
X0033377Y0096824D01*
X0035290Y0096824D01*
X0037056Y0097556D01*
X0038409Y0098909D01*
X0039140Y0100675D01*
X0039140Y0102588D01*
X0038409Y0104355D01*
X0037056Y0105707D01*
X0035290Y0106439D01*
X0033377Y0106439D01*
X0031610Y0105707D01*
X0030444Y0104541D02*
X0028222Y0104541D01*
X0028745Y0103542D02*
X0029922Y0103542D01*
X0029526Y0102544D02*
X0029140Y0102544D01*
X0029140Y0101545D02*
X0029526Y0101545D01*
X0029580Y0100547D02*
X0029087Y0100547D01*
X0028674Y0099548D02*
X0029993Y0099548D01*
X0030617Y0098550D02*
X0028050Y0098550D01*
X0027044Y0097551D02*
X0031623Y0097551D01*
X0037044Y0097551D02*
X0047840Y0097551D01*
X0045806Y0098550D02*
X0038050Y0098550D01*
X0038674Y0099548D02*
X0044808Y0099548D01*
X0043809Y0100547D02*
X0039087Y0100547D01*
X0039140Y0101545D02*
X0043139Y0101545D01*
X0042725Y0102544D02*
X0039140Y0102544D01*
X0038745Y0103542D02*
X0042311Y0103542D01*
X0041908Y0104541D02*
X0038222Y0104541D01*
X0037224Y0105539D02*
X0041908Y0105539D01*
X0034640Y0107536D02*
X0034026Y0107536D01*
X0034026Y0108535D02*
X0034640Y0108535D01*
X0034640Y0109533D02*
X0034026Y0109533D01*
X0034026Y0110532D02*
X0034640Y0110532D01*
X0034640Y0112529D02*
X0034026Y0112529D01*
X0034026Y0113527D02*
X0034640Y0113527D01*
X0034640Y0114526D02*
X0034026Y0114526D01*
X0034026Y0115524D02*
X0034640Y0115524D01*
X0037482Y0115524D02*
X0045764Y0115524D01*
X0046028Y0114526D02*
X0038411Y0114526D01*
X0038975Y0113527D02*
X0045030Y0113527D01*
X0044031Y0112529D02*
X0039254Y0112529D01*
X0079387Y0114901D02*
X0080625Y0113663D01*
X0080221Y0113663D01*
X0079640Y0113082D01*
X0079640Y0114289D01*
X0079387Y0114901D01*
X0079542Y0114526D02*
X0079762Y0114526D01*
X0079640Y0113527D02*
X0080085Y0113527D01*
X0103608Y0089563D02*
X0132683Y0089563D01*
X0133360Y0088565D02*
X0105077Y0088565D01*
X0160680Y0115978D02*
X0160680Y0120632D01*
X0199806Y0140660D02*
X0199806Y0141548D01*
X0233582Y0175324D01*
X0235100Y0175324D01*
X0235715Y0174709D01*
X0235903Y0174632D01*
X0235715Y0174554D01*
X0235100Y0173939D01*
X0233085Y0173939D01*
X0199806Y0140660D01*
X0199806Y0141486D02*
X0200632Y0141486D01*
X0200742Y0142484D02*
X0201630Y0142484D01*
X0201740Y0143483D02*
X0202629Y0143483D01*
X0202739Y0144481D02*
X0203627Y0144481D01*
X0203737Y0145480D02*
X0204626Y0145480D01*
X0204736Y0146478D02*
X0205624Y0146478D01*
X0205734Y0147477D02*
X0206623Y0147477D01*
X0206733Y0148475D02*
X0207621Y0148475D01*
X0207731Y0149474D02*
X0208620Y0149474D01*
X0208730Y0150472D02*
X0209618Y0150472D01*
X0209728Y0151471D02*
X0210617Y0151471D01*
X0210727Y0152469D02*
X0211615Y0152469D01*
X0211725Y0153468D02*
X0212614Y0153468D01*
X0212724Y0154466D02*
X0213612Y0154466D01*
X0213722Y0155465D02*
X0214611Y0155465D01*
X0214721Y0156463D02*
X0215610Y0156463D01*
X0215719Y0157462D02*
X0216608Y0157462D01*
X0216718Y0158460D02*
X0217607Y0158460D01*
X0217716Y0159459D02*
X0218605Y0159459D01*
X0218715Y0160457D02*
X0219604Y0160457D01*
X0219713Y0161456D02*
X0220602Y0161456D01*
X0220712Y0162454D02*
X0221601Y0162454D01*
X0221710Y0163453D02*
X0222599Y0163453D01*
X0222709Y0164451D02*
X0223598Y0164451D01*
X0223707Y0165450D02*
X0224596Y0165450D01*
X0224706Y0166448D02*
X0225595Y0166448D01*
X0225704Y0167447D02*
X0226593Y0167447D01*
X0226703Y0168445D02*
X0227592Y0168445D01*
X0227701Y0169444D02*
X0228590Y0169444D01*
X0228700Y0170443D02*
X0229589Y0170443D01*
X0229698Y0171441D02*
X0230587Y0171441D01*
X0230697Y0172440D02*
X0231586Y0172440D01*
X0231695Y0173438D02*
X0232584Y0173438D01*
X0232694Y0174437D02*
X0235598Y0174437D01*
X0235590Y0179429D02*
X0187928Y0179429D01*
X0188190Y0180428D02*
X0358842Y0180428D01*
X0359509Y0181426D02*
X0188097Y0181426D01*
X0187581Y0182425D02*
X0360819Y0182425D01*
X0370635Y0182425D02*
X0397034Y0182425D01*
X0397034Y0183423D02*
X0187140Y0183423D01*
X0187140Y0184422D02*
X0397034Y0184422D01*
X0397034Y0185420D02*
X0187140Y0185420D01*
X0187140Y0186419D02*
X0397034Y0186419D01*
X0397034Y0187417D02*
X0187140Y0187417D01*
X0187140Y0188416D02*
X0397034Y0188416D01*
X0397034Y0189414D02*
X0187140Y0189414D01*
X0187140Y0190413D02*
X0397034Y0190413D01*
X0397034Y0191411D02*
X0187140Y0191411D01*
X0187140Y0192410D02*
X0397034Y0192410D01*
X0397034Y0193408D02*
X0187140Y0193408D01*
X0187140Y0194407D02*
X0397034Y0194407D01*
X0397034Y0195405D02*
X0187140Y0195405D01*
X0187140Y0196404D02*
X0397034Y0196404D01*
X0397034Y0197402D02*
X0187140Y0197402D01*
X0187140Y0198401D02*
X0397034Y0198401D01*
X0397034Y0199399D02*
X0187140Y0199399D01*
X0187140Y0200398D02*
X0397034Y0200398D01*
X0397034Y0201396D02*
X0187140Y0201396D01*
X0187140Y0202395D02*
X0397034Y0202395D01*
X0397034Y0203393D02*
X0187140Y0203393D01*
X0187140Y0204392D02*
X0397034Y0204392D01*
X0397034Y0205390D02*
X0187140Y0205390D01*
X0187140Y0206389D02*
X0397034Y0206389D01*
X0397034Y0207387D02*
X0187140Y0207387D01*
X0187910Y0208386D02*
X0397034Y0208386D01*
X0397034Y0209384D02*
X0188190Y0209384D01*
X0188115Y0210383D02*
X0397034Y0210383D01*
X0397034Y0211381D02*
X0187624Y0211381D01*
X0186164Y0212380D02*
X0397034Y0212380D01*
X0397034Y0213379D02*
X0369957Y0213379D01*
X0369781Y0213321D02*
X0370454Y0213540D01*
X0371086Y0213862D01*
X0371659Y0214278D01*
X0372159Y0214779D01*
X0372576Y0215352D01*
X0372897Y0215983D01*
X0373116Y0216657D01*
X0373204Y0217210D01*
X0366227Y0217210D01*
X0366227Y0213210D01*
X0369081Y0213210D01*
X0369781Y0213321D01*
X0371758Y0214377D02*
X0397034Y0214377D01*
X0397034Y0215376D02*
X0372588Y0215376D01*
X0373024Y0216374D02*
X0397034Y0216374D01*
X0397034Y0217373D02*
X0366227Y0217373D01*
X0366227Y0217210D02*
X0366227Y0218210D01*
X0373204Y0218210D01*
X0373116Y0218764D01*
X0372897Y0219438D01*
X0372576Y0220069D01*
X0372159Y0220642D01*
X0371659Y0221143D01*
X0371086Y0221559D01*
X0370454Y0221881D01*
X0369781Y0222100D01*
X0369081Y0222210D01*
X0366227Y0222210D01*
X0366227Y0218210D01*
X0365227Y0218210D01*
X0365227Y0217210D01*
X0366227Y0217210D01*
X0366227Y0216374D02*
X0365227Y0216374D01*
X0365227Y0217210D02*
X0365227Y0213210D01*
X0362373Y0213210D01*
X0361673Y0213321D01*
X0361000Y0213540D01*
X0360369Y0213862D01*
X0359795Y0214278D01*
X0359295Y0214779D01*
X0358878Y0215352D01*
X0358557Y0215983D01*
X0358338Y0216657D01*
X0358250Y0217210D01*
X0365227Y0217210D01*
X0365227Y0217373D02*
X0283274Y0217373D01*
X0283207Y0217273D02*
X0283612Y0217879D01*
X0283891Y0218552D01*
X0284033Y0219267D01*
X0284033Y0219532D01*
X0280433Y0219532D01*
X0280433Y0219732D01*
X0280233Y0219732D01*
X0280233Y0223332D01*
X0279969Y0223332D01*
X0279254Y0223189D01*
X0278581Y0222910D01*
X0277975Y0222506D01*
X0277459Y0221990D01*
X0277054Y0221384D01*
X0276776Y0220711D01*
X0276633Y0219996D01*
X0276633Y0219732D01*
X0280233Y0219732D01*
X0280233Y0219532D01*
X0276633Y0219532D01*
X0276633Y0219267D01*
X0276776Y0218552D01*
X0277054Y0217879D01*
X0277459Y0217273D01*
X0277975Y0216758D01*
X0278581Y0216353D01*
X0279254Y0216074D01*
X0279969Y0215932D01*
X0280233Y0215932D01*
X0280233Y0219531D01*
X0280433Y0219531D01*
X0280433Y0215932D01*
X0280698Y0215932D01*
X0281413Y0216074D01*
X0282086Y0216353D01*
X0282692Y0216758D01*
X0283207Y0217273D01*
X0283816Y0218371D02*
X0358276Y0218371D01*
X0358250Y0218210D02*
X0365227Y0218210D01*
X0365227Y0222210D01*
X0362373Y0222210D01*
X0361673Y0222100D01*
X0361000Y0221881D01*
X0360369Y0221559D01*
X0359795Y0221143D01*
X0359295Y0220642D01*
X0358878Y0220069D01*
X0358557Y0219438D01*
X0358338Y0218764D01*
X0358250Y0218210D01*
X0358535Y0219370D02*
X0284033Y0219370D01*
X0284033Y0219732D02*
X0284033Y0219996D01*
X0283891Y0220711D01*
X0283612Y0221384D01*
X0283207Y0221990D01*
X0282692Y0222506D01*
X0282086Y0222910D01*
X0281413Y0223189D01*
X0280698Y0223332D01*
X0280433Y0223332D01*
X0280433Y0219732D01*
X0284033Y0219732D01*
X0283959Y0220368D02*
X0359096Y0220368D01*
X0360104Y0221367D02*
X0351393Y0221367D01*
X0353803Y0222365D02*
X0397034Y0222365D01*
X0397034Y0221367D02*
X0371350Y0221367D01*
X0372358Y0220368D02*
X0397034Y0220368D01*
X0397034Y0219370D02*
X0372919Y0219370D01*
X0373178Y0218371D02*
X0397034Y0218371D01*
X0397034Y0223364D02*
X0369868Y0223364D01*
X0371627Y0224362D02*
X0397034Y0224362D01*
X0397034Y0225361D02*
X0372481Y0225361D01*
X0372895Y0226359D02*
X0397034Y0226359D01*
X0397034Y0227358D02*
X0373034Y0227358D01*
X0373034Y0228356D02*
X0397034Y0228356D01*
X0397034Y0229355D02*
X0372643Y0229355D01*
X0372018Y0230353D02*
X0397034Y0230353D01*
X0397034Y0231352D02*
X0370811Y0231352D01*
X0368234Y0232350D02*
X0397034Y0232350D01*
X0397034Y0233349D02*
X0367981Y0233349D01*
X0367163Y0234347D02*
X0397034Y0234347D01*
X0397034Y0235346D02*
X0366165Y0235346D01*
X0365166Y0236344D02*
X0397034Y0236344D01*
X0397034Y0237343D02*
X0364168Y0237343D01*
X0363169Y0238341D02*
X0397034Y0238341D01*
X0397034Y0239340D02*
X0362171Y0239340D01*
X0361172Y0240338D02*
X0397034Y0240338D01*
X0397034Y0241337D02*
X0360174Y0241337D01*
X0359175Y0242335D02*
X0397034Y0242335D01*
X0397034Y0243334D02*
X0358177Y0243334D01*
X0355295Y0239124D02*
X0362559Y0231860D01*
X0361870Y0231860D01*
X0360287Y0231204D01*
X0359076Y0229993D01*
X0358759Y0229227D01*
X0358759Y0232747D01*
X0357296Y0236278D01*
X0354594Y0238980D01*
X0354245Y0239124D01*
X0355295Y0239124D01*
X0355233Y0238341D02*
X0356078Y0238341D01*
X0356231Y0237343D02*
X0357077Y0237343D01*
X0357230Y0236344D02*
X0358075Y0236344D01*
X0357682Y0235346D02*
X0359074Y0235346D01*
X0358096Y0234347D02*
X0360072Y0234347D01*
X0361071Y0233349D02*
X0358509Y0233349D01*
X0358759Y0232350D02*
X0362069Y0232350D01*
X0360643Y0231352D02*
X0358759Y0231352D01*
X0358759Y0230353D02*
X0359436Y0230353D01*
X0358811Y0229355D02*
X0358759Y0229355D01*
X0358420Y0227358D02*
X0358109Y0227358D01*
X0357695Y0226359D02*
X0358559Y0226359D01*
X0358973Y0225361D02*
X0357262Y0225361D01*
X0356263Y0224362D02*
X0359827Y0224362D01*
X0361586Y0223364D02*
X0355265Y0223364D01*
X0346912Y0221367D02*
X0283620Y0221367D01*
X0282832Y0222365D02*
X0344501Y0222365D01*
X0343040Y0223364D02*
X0230621Y0223364D01*
X0231619Y0224362D02*
X0342041Y0224362D01*
X0341043Y0225361D02*
X0232618Y0225361D01*
X0233616Y0226359D02*
X0252069Y0226359D01*
X0250647Y0227358D02*
X0234615Y0227358D01*
X0250047Y0221367D02*
X0053755Y0221367D01*
X0056166Y0222365D02*
X0250834Y0222365D01*
X0253233Y0222365D02*
X0253433Y0222365D01*
X0253433Y0223332D02*
X0253698Y0223332D01*
X0254413Y0223189D01*
X0255086Y0222910D01*
X0255692Y0222506D01*
X0256207Y0221990D01*
X0256612Y0221384D01*
X0256891Y0220711D01*
X0257033Y0219996D01*
X0257033Y0219732D01*
X0253433Y0219732D01*
X0253433Y0223332D01*
X0253433Y0221367D02*
X0253233Y0221367D01*
X0253233Y0220368D02*
X0253433Y0220368D01*
X0253433Y0219370D02*
X0253233Y0219370D01*
X0253233Y0218371D02*
X0253433Y0218371D01*
X0253433Y0217373D02*
X0253233Y0217373D01*
X0253233Y0216374D02*
X0253433Y0216374D01*
X0255118Y0216374D02*
X0278549Y0216374D01*
X0277393Y0217373D02*
X0256274Y0217373D01*
X0256816Y0218371D02*
X0276851Y0218371D01*
X0276633Y0219370D02*
X0257033Y0219370D01*
X0256959Y0220368D02*
X0276707Y0220368D01*
X0277047Y0221367D02*
X0256620Y0221367D01*
X0255832Y0222365D02*
X0277834Y0222365D01*
X0280233Y0222365D02*
X0280433Y0222365D01*
X0280433Y0221367D02*
X0280233Y0221367D01*
X0280233Y0220368D02*
X0280433Y0220368D01*
X0280433Y0219370D02*
X0280233Y0219370D01*
X0280233Y0218371D02*
X0280433Y0218371D01*
X0280433Y0217373D02*
X0280233Y0217373D01*
X0280233Y0216374D02*
X0280433Y0216374D01*
X0282118Y0216374D02*
X0358430Y0216374D01*
X0358866Y0215376D02*
X0069118Y0215376D01*
X0069190Y0214377D02*
X0359696Y0214377D01*
X0361497Y0213379D02*
X0068907Y0213379D01*
X0068122Y0212380D02*
X0184503Y0212380D01*
X0185333Y0209632D02*
X0185333Y0180632D01*
X0187173Y0178431D02*
X0231577Y0178431D01*
X0251549Y0216374D02*
X0068631Y0216374D01*
X0059513Y0209384D02*
X0049909Y0209384D01*
X0049955Y0210383D02*
X0058541Y0210383D01*
X0058200Y0204724D02*
X0058286Y0204639D01*
X0057440Y0204639D01*
X0057440Y0204724D01*
X0058200Y0204724D01*
X0057440Y0199399D02*
X0064109Y0199399D01*
X0064109Y0198401D02*
X0056701Y0198401D01*
X0063645Y0200398D02*
X0064109Y0200398D01*
X0064109Y0196404D02*
X0019951Y0196404D01*
X0020961Y0202395D02*
X0027706Y0202395D01*
X0026963Y0203393D02*
X0021703Y0203393D01*
X0021703Y0204392D02*
X0026963Y0204392D01*
X0026963Y0205390D02*
X0021703Y0205390D01*
X0021703Y0206389D02*
X0026963Y0206389D01*
X0026963Y0207387D02*
X0021703Y0207387D01*
X0021703Y0208386D02*
X0026963Y0208386D01*
X0026963Y0209384D02*
X0021703Y0209384D01*
X0021446Y0210383D02*
X0027220Y0210383D01*
X0033607Y0213379D02*
X0019951Y0213379D01*
X0019951Y0214377D02*
X0032608Y0214377D01*
X0031610Y0215376D02*
X0019951Y0215376D01*
X0019951Y0216374D02*
X0030611Y0216374D01*
X0027728Y0217373D02*
X0020939Y0217373D01*
X0021703Y0218371D02*
X0026963Y0218371D01*
X0026963Y0219370D02*
X0021703Y0219370D01*
X0021703Y0220368D02*
X0026963Y0220368D01*
X0026963Y0221367D02*
X0021703Y0221367D01*
X0021723Y0222365D02*
X0026963Y0222365D01*
X0026963Y0223364D02*
X0022721Y0223364D01*
X0023720Y0224362D02*
X0026963Y0224362D01*
X0027198Y0225361D02*
X0024718Y0225361D01*
X0025717Y0226359D02*
X0037880Y0226359D01*
X0037880Y0225361D02*
X0035248Y0225361D01*
X0035483Y0224362D02*
X0037880Y0224362D01*
X0037880Y0223364D02*
X0035483Y0223364D01*
X0035483Y0222365D02*
X0037880Y0222365D01*
X0036740Y0221367D02*
X0035483Y0221367D01*
X0035483Y0220368D02*
X0036711Y0220368D01*
X0036711Y0219370D02*
X0035483Y0219370D01*
X0035483Y0218371D02*
X0036711Y0218371D01*
X0036711Y0217373D02*
X0035572Y0217373D01*
X0036571Y0216374D02*
X0036711Y0216374D01*
X0034605Y0212380D02*
X0019951Y0212380D01*
X0019951Y0211381D02*
X0035604Y0211381D01*
X0035226Y0210383D02*
X0036711Y0210383D01*
X0036757Y0209384D02*
X0035483Y0209384D01*
X0049955Y0204724D02*
X0051226Y0204724D01*
X0051226Y0204589D01*
X0049955Y0204589D01*
X0049955Y0204724D01*
X0047164Y0194407D02*
X0046196Y0194407D01*
X0046196Y0193408D02*
X0047164Y0193408D01*
X0047164Y0192410D02*
X0046196Y0192410D01*
X0047164Y0191411D02*
X0051226Y0191411D01*
X0051226Y0190413D02*
X0050148Y0190413D01*
X0050148Y0189414D02*
X0051026Y0189414D01*
X0051026Y0188416D02*
X0049719Y0188416D01*
X0051026Y0187417D02*
X0034763Y0187417D01*
X0035483Y0188416D02*
X0037220Y0188416D01*
X0036711Y0189414D02*
X0035483Y0189414D01*
X0042753Y0188416D02*
X0043640Y0188416D01*
X0046196Y0188416D02*
X0047164Y0188416D01*
X0047164Y0189414D02*
X0046196Y0189414D01*
X0046196Y0190413D02*
X0047164Y0190413D01*
X0050148Y0192410D02*
X0051513Y0192410D01*
X0051026Y0186419D02*
X0007333Y0186419D01*
X0007333Y0185420D02*
X0051026Y0185420D01*
X0051026Y0184422D02*
X0007333Y0184422D01*
X0007333Y0183423D02*
X0051026Y0183423D01*
X0051026Y0182425D02*
X0007333Y0182425D01*
X0007333Y0181426D02*
X0051026Y0181426D01*
X0050084Y0180428D02*
X0038651Y0180428D01*
X0039196Y0179429D02*
X0049774Y0179429D01*
X0049774Y0178431D02*
X0039196Y0178431D01*
X0039196Y0177432D02*
X0049774Y0177432D01*
X0049774Y0176434D02*
X0039196Y0176434D01*
X0039196Y0175435D02*
X0049774Y0175435D01*
X0050436Y0174437D02*
X0039196Y0174437D01*
X0025991Y0174437D02*
X0024991Y0174437D01*
X0024991Y0175435D02*
X0025991Y0175435D01*
X0025991Y0176434D02*
X0024991Y0176434D01*
X0024991Y0177432D02*
X0025991Y0177432D01*
X0025991Y0178431D02*
X0024991Y0178431D01*
X0024991Y0179429D02*
X0025991Y0179429D01*
X0025991Y0180428D02*
X0024991Y0180428D01*
X0024991Y0173438D02*
X0025991Y0173438D01*
X0025991Y0172440D02*
X0024991Y0172440D01*
X0024991Y0171441D02*
X0025991Y0171441D01*
X0025991Y0170443D02*
X0024991Y0170443D01*
X0024991Y0169444D02*
X0025991Y0169444D01*
X0025991Y0166448D02*
X0024991Y0166448D01*
X0024991Y0165450D02*
X0025991Y0165450D01*
X0025991Y0164451D02*
X0024991Y0164451D01*
X0024991Y0163453D02*
X0025991Y0163453D01*
X0025991Y0162454D02*
X0024991Y0162454D01*
X0024991Y0161456D02*
X0025991Y0161456D01*
X0025991Y0160457D02*
X0024991Y0160457D01*
X0024991Y0159459D02*
X0025991Y0159459D01*
X0025991Y0158460D02*
X0024991Y0158460D01*
X0024991Y0157462D02*
X0025991Y0157462D01*
X0039104Y0157462D02*
X0049774Y0157462D01*
X0049774Y0158460D02*
X0039196Y0158460D01*
X0039196Y0159459D02*
X0049774Y0159459D01*
X0049774Y0160457D02*
X0039196Y0160457D01*
X0039196Y0161456D02*
X0049774Y0161456D01*
X0050064Y0162454D02*
X0039196Y0162454D01*
X0011786Y0169444D02*
X0007333Y0169444D01*
X0007333Y0170443D02*
X0011786Y0170443D01*
X0011786Y0171441D02*
X0007333Y0171441D01*
X0007333Y0172440D02*
X0011786Y0172440D01*
X0011786Y0173438D02*
X0007333Y0173438D01*
X0007333Y0174437D02*
X0011786Y0174437D01*
X0011786Y0175435D02*
X0007333Y0175435D01*
X0007333Y0176434D02*
X0011786Y0176434D01*
X0011786Y0177432D02*
X0007333Y0177432D01*
X0007333Y0178431D02*
X0011786Y0178431D01*
X0011786Y0179429D02*
X0007333Y0179429D01*
X0007333Y0180428D02*
X0012331Y0180428D01*
X0035483Y0194407D02*
X0036780Y0194407D01*
X0043194Y0194407D02*
X0043331Y0194407D01*
X0070833Y0197402D02*
X0148017Y0197402D01*
X0147019Y0198401D02*
X0076558Y0198401D01*
X0076558Y0199399D02*
X0146020Y0199399D01*
X0145021Y0200398D02*
X0076558Y0200398D01*
X0076558Y0201396D02*
X0144023Y0201396D01*
X0080188Y0183423D02*
X0075997Y0183423D01*
X0076365Y0182425D02*
X0079190Y0182425D01*
X0037517Y0227358D02*
X0026565Y0227358D01*
X0026840Y0228356D02*
X0036519Y0228356D01*
X0035520Y0229355D02*
X0026840Y0229355D01*
X0026840Y0230353D02*
X0034522Y0230353D01*
X0033523Y0231352D02*
X0026840Y0231352D01*
X0026840Y0232350D02*
X0032525Y0232350D01*
X0026963Y0233349D02*
X0026840Y0233349D01*
X0026840Y0234347D02*
X0026963Y0234347D01*
X0026963Y0235346D02*
X0026840Y0235346D01*
X0026840Y0236344D02*
X0026963Y0236344D01*
X0026963Y0237343D02*
X0026840Y0237343D01*
X0026840Y0238341D02*
X0026963Y0238341D01*
X0021912Y0240338D02*
X0021693Y0240338D01*
X0017944Y0240338D02*
X0016944Y0240338D01*
X0016944Y0239340D02*
X0017944Y0239340D01*
X0017944Y0238341D02*
X0016944Y0238341D01*
X0016944Y0237343D02*
X0017944Y0237343D01*
X0012991Y0235346D02*
X0007333Y0235346D01*
X0007333Y0234347D02*
X0012991Y0234347D01*
X0013026Y0233349D02*
X0007333Y0233349D01*
X0252178Y0244332D02*
X0397034Y0244332D01*
X0366227Y0221367D02*
X0365227Y0221367D01*
X0365227Y0220368D02*
X0366227Y0220368D01*
X0366227Y0219370D02*
X0365227Y0219370D01*
X0365227Y0218371D02*
X0366227Y0218371D01*
X0366227Y0215376D02*
X0365227Y0215376D01*
X0365227Y0214377D02*
X0366227Y0214377D01*
X0366227Y0213379D02*
X0365227Y0213379D01*
X0340609Y0226359D02*
X0281597Y0226359D01*
X0283019Y0227358D02*
X0340195Y0227358D01*
X0339782Y0228356D02*
X0283601Y0228356D01*
X0283840Y0229355D02*
X0339546Y0229355D01*
X0339546Y0230353D02*
X0283830Y0230353D01*
X0283417Y0231352D02*
X0339546Y0231352D01*
X0339546Y0232350D02*
X0282574Y0232350D01*
X0277647Y0227358D02*
X0256019Y0227358D01*
X0254597Y0226359D02*
X0279069Y0226359D01*
X0278077Y0242335D02*
X0255589Y0242335D01*
X0253177Y0243334D02*
X0280490Y0243334D01*
X0371945Y0181426D02*
X0397034Y0181426D01*
X0397034Y0180428D02*
X0375083Y0180428D01*
X0376081Y0179429D02*
X0397034Y0179429D01*
X0397034Y0178431D02*
X0377080Y0178431D01*
X0376826Y0142484D02*
X0370491Y0142484D01*
X0371885Y0141486D02*
X0376826Y0141486D01*
X0376826Y0140487D02*
X0375023Y0140487D01*
X0376022Y0139489D02*
X0376826Y0139489D01*
X0036019Y0056612D02*
X0007333Y0056612D01*
X0007333Y0055614D02*
X0035117Y0055614D01*
X0034491Y0054615D02*
X0007333Y0054615D01*
X0007333Y0053617D02*
X0034109Y0053617D01*
X0033894Y0052618D02*
X0007333Y0052618D01*
X0007333Y0051620D02*
X0036722Y0051620D01*
X0033924Y0050621D02*
X0007333Y0050621D01*
X0007333Y0049623D02*
X0034172Y0049623D01*
X0034623Y0048624D02*
X0007333Y0048624D01*
X0007333Y0047626D02*
X0035293Y0047626D01*
X0036311Y0046627D02*
X0007333Y0046627D01*
X0033222Y0079578D02*
X0033822Y0079578D01*
X0033822Y0080577D02*
X0033222Y0080577D01*
X0033222Y0081575D02*
X0033822Y0081575D01*
D40*
X0129333Y0158632D02*
X0135908Y0152057D01*
X0140601Y0152057D01*
X0129333Y0158632D02*
X0129333Y0175632D01*
X0132333Y0172632D02*
X0132333Y0165632D01*
X0136459Y0161506D01*
X0140601Y0161506D01*
X0140601Y0164655D02*
X0140601Y0172364D01*
X0136333Y0175632D01*
X0162058Y0179356D02*
X0162058Y0170364D01*
X0162058Y0179356D02*
X0178333Y0195632D01*
X0178333Y0202132D01*
X0214333Y0202132D02*
X0235833Y0202132D01*
X0253333Y0219632D01*
X0189333Y0134285D02*
X0189333Y0120632D01*
X0060333Y0206632D02*
X0046680Y0206632D01*
X0046680Y0212632D02*
X0060333Y0212632D01*
X0062333Y0218632D02*
X0066333Y0214632D01*
X0062333Y0218632D02*
X0046680Y0218632D01*
D41*
X0061833Y0202132D02*
X0064333Y0204632D01*
X0144333Y0204632D01*
X0158759Y0190206D01*
X0084349Y0229647D02*
X0084333Y0229632D01*
X0084333Y0242632D01*
X0250333Y0242632D01*
X0253333Y0239632D01*
X0280333Y0239632D01*
X0282333Y0241632D01*
X0356333Y0241632D01*
X0365727Y0232238D01*
X0365727Y0227553D01*
X0365727Y0178553D02*
X0373412Y0178553D01*
X0379333Y0172632D01*
X0379333Y0132632D01*
X0373333Y0138632D01*
X0365806Y0138632D01*
X0365727Y0138553D01*
X0379333Y0132632D02*
X0379333Y0102632D01*
X0345333Y0068632D01*
X0110333Y0068632D01*
X0017444Y0191632D02*
X0017444Y0199632D01*
X0017444Y0206632D01*
X0017444Y0221632D01*
X0024333Y0228521D01*
X0024333Y0239632D01*
X0027333Y0242632D01*
X0084333Y0242632D01*
X0084349Y0229655D02*
X0084349Y0229647D01*
X0061833Y0202132D02*
X0054833Y0202132D01*
X0054333Y0202082D02*
X0038783Y0202082D01*
X0036333Y0199632D01*
X0017444Y0199632D01*
M02*
