G75*
%MOIN*%
%OFA0B0*%
%FSLAX25Y25*%
%IPPOS*%
%LPD*%
%AMOC8*
5,1,8,0,0,1.08239X$1,22.5*
%
%ADD10R,0.09449X0.06299*%
%ADD11R,0.04331X0.03937*%
%ADD12R,0.08661X0.07087*%
%ADD13C,0.10000*%
%ADD14R,0.01575X0.05906*%
%ADD15R,0.08000X0.02600*%
%ADD16OC8,0.07000*%
%ADD17C,0.07000*%
%ADD18OC8,0.06299*%
%ADD19C,0.06299*%
%ADD20C,0.16598*%
%ADD21C,0.06299*%
%ADD22R,0.03937X0.05512*%
%ADD23R,0.03937X0.04331*%
%ADD24R,0.02000X0.03200*%
%ADD25R,0.03600X0.04800*%
%ADD26OC8,0.10000*%
%ADD27C,0.06000*%
%ADD28R,0.09843X0.07874*%
%ADD29R,0.12992X0.07874*%
%ADD30R,0.12205X0.01969*%
%ADD31C,0.04400*%
%ADD32R,0.06299X0.05512*%
%ADD33C,0.01600*%
%ADD34C,0.01200*%
%ADD35C,0.03100*%
%ADD36C,0.01000*%
%ADD37C,0.02400*%
D10*
X0073333Y0156226D03*
X0073333Y0168037D03*
D11*
X0071987Y0177632D03*
X0078680Y0177632D03*
X0058680Y0190632D03*
X0051987Y0190632D03*
D12*
X0370333Y0088671D03*
X0370333Y0068592D03*
D13*
X0057144Y0065632D02*
X0057144Y0075632D01*
X0033522Y0075632D02*
X0033522Y0065632D01*
X0040333Y0051734D02*
X0050333Y0051734D01*
D14*
X0088699Y0148360D03*
X0091259Y0148360D03*
X0093818Y0148360D03*
X0096377Y0148360D03*
X0098936Y0148360D03*
X0101495Y0148360D03*
X0104054Y0148360D03*
X0106613Y0148360D03*
X0109172Y0148360D03*
X0111731Y0148360D03*
X0114290Y0148360D03*
X0116849Y0148360D03*
X0119408Y0148360D03*
X0121967Y0148360D03*
X0121967Y0176903D03*
X0119408Y0176903D03*
X0116849Y0176903D03*
X0114290Y0176903D03*
X0111731Y0176903D03*
X0109172Y0176903D03*
X0106613Y0176903D03*
X0104054Y0176903D03*
X0101495Y0176903D03*
X0098936Y0176903D03*
X0096377Y0176903D03*
X0093818Y0176903D03*
X0091259Y0176903D03*
X0088699Y0176903D03*
D15*
X0226033Y0177132D03*
X0226033Y0182132D03*
X0226033Y0187132D03*
X0226033Y0192132D03*
X0226033Y0197132D03*
X0226033Y0202132D03*
X0264633Y0202132D03*
X0264633Y0197132D03*
X0264633Y0192132D03*
X0264633Y0187132D03*
X0264633Y0182132D03*
X0264633Y0177132D03*
X0264633Y0172132D03*
X0264633Y0167132D03*
X0226033Y0167132D03*
X0226033Y0172132D03*
X0308233Y0174132D03*
X0308233Y0179132D03*
X0308233Y0184132D03*
X0332433Y0184132D03*
X0332433Y0179132D03*
X0332433Y0174132D03*
X0332433Y0169132D03*
X0332433Y0164132D03*
X0332433Y0159132D03*
X0332433Y0154132D03*
X0332433Y0149132D03*
X0308233Y0149132D03*
X0308233Y0154132D03*
X0308233Y0159132D03*
X0308233Y0164132D03*
X0308233Y0169132D03*
D16*
X0014333Y0101632D03*
D17*
X0024333Y0101632D03*
X0034333Y0101632D03*
X0034333Y0111632D03*
X0024333Y0111632D03*
X0014333Y0111632D03*
D18*
X0110333Y0078632D03*
D19*
X0110333Y0068632D03*
X0110333Y0058632D03*
D20*
X0051514Y0106427D03*
X0051514Y0230836D03*
X0349152Y0230836D03*
X0349152Y0106427D03*
D21*
X0224349Y0229655D02*
X0224349Y0235954D01*
X0214349Y0235954D02*
X0214349Y0229655D01*
X0204349Y0229655D02*
X0204349Y0235954D01*
X0194349Y0235954D02*
X0194349Y0229655D01*
X0184349Y0229655D02*
X0184349Y0235954D01*
X0174349Y0235954D02*
X0174349Y0229655D01*
X0164349Y0229655D02*
X0164349Y0235954D01*
X0154349Y0235954D02*
X0154349Y0229655D01*
X0144349Y0229655D02*
X0144349Y0235954D01*
X0134349Y0235954D02*
X0134349Y0229655D01*
X0124349Y0229655D02*
X0124349Y0235954D01*
X0114349Y0235954D02*
X0114349Y0229655D01*
X0104349Y0229655D02*
X0104349Y0235954D01*
X0094349Y0235954D02*
X0094349Y0229655D01*
X0084349Y0229655D02*
X0084349Y0235954D01*
X0074349Y0235954D02*
X0074349Y0229655D01*
D22*
X0165593Y0209301D03*
X0173073Y0209301D03*
X0169333Y0217962D03*
D23*
X0065680Y0181632D03*
X0058987Y0181632D03*
X0351987Y0078632D03*
X0358680Y0078632D03*
D24*
X0203058Y0178332D03*
X0199908Y0178332D03*
X0196759Y0178332D03*
X0193609Y0178332D03*
X0193609Y0184932D03*
X0196759Y0184932D03*
X0199908Y0184932D03*
X0203058Y0184932D03*
X0314609Y0193332D03*
X0317759Y0193332D03*
X0320908Y0193332D03*
X0324058Y0193332D03*
X0324058Y0199932D03*
X0320908Y0199932D03*
X0317759Y0199932D03*
X0314609Y0199932D03*
D25*
X0062333Y0168582D03*
X0062333Y0155682D03*
D26*
X0385333Y0093632D03*
X0385333Y0063632D03*
D27*
X0368727Y0128710D02*
X0362727Y0128710D01*
X0362727Y0138553D02*
X0368727Y0138553D01*
X0368727Y0168710D02*
X0362727Y0168710D01*
X0362727Y0178553D02*
X0368727Y0178553D01*
X0368727Y0217710D02*
X0362727Y0217710D01*
X0362727Y0227553D02*
X0368727Y0227553D01*
D28*
X0017522Y0181151D03*
X0017522Y0146112D03*
D29*
X0040751Y0146112D03*
X0040751Y0181151D03*
D30*
X0041144Y0169931D03*
X0041144Y0166781D03*
X0041144Y0163632D03*
X0041144Y0160482D03*
X0041144Y0157332D03*
D31*
X0253333Y0219632D03*
X0253333Y0229632D03*
X0253333Y0239632D03*
X0280333Y0239632D03*
X0280333Y0229632D03*
X0280333Y0219632D03*
D32*
X0074239Y0145632D03*
X0062428Y0145632D03*
D33*
X0062333Y0145726D01*
X0062333Y0155682D01*
X0061183Y0157332D01*
X0041144Y0157332D01*
X0041144Y0169931D02*
X0049633Y0169931D01*
X0052333Y0172632D01*
X0052333Y0190285D01*
X0051987Y0190632D01*
X0029333Y0190632D01*
X0029333Y0184632D01*
X0022333Y0199632D02*
X0009333Y0186632D01*
X0009333Y0123632D01*
X0100333Y0123632D01*
X0114290Y0137588D01*
X0114290Y0148360D01*
X0114290Y0139675D01*
X0144333Y0120632D02*
X0168033Y0096932D01*
X0222333Y0096932D01*
X0240633Y0078632D01*
X0351987Y0078632D01*
X0356333Y0128632D02*
X0365648Y0128632D01*
X0365727Y0128710D01*
X0356333Y0128632D02*
X0335833Y0149132D01*
X0332433Y0149132D01*
X0332433Y0154132D02*
X0351148Y0154132D01*
X0365727Y0168710D01*
X0364648Y0217632D02*
X0343333Y0217632D01*
X0341333Y0219632D01*
X0320333Y0219632D01*
X0280333Y0219632D01*
X0274333Y0216632D02*
X0274333Y0233632D01*
X0280333Y0239632D01*
X0274333Y0216632D02*
X0278333Y0212632D01*
X0278333Y0174632D01*
X0270833Y0167132D01*
X0264633Y0167132D01*
X0203058Y0184932D02*
X0199908Y0184932D01*
X0196759Y0184932D01*
X0193609Y0184932D01*
X0164183Y0184932D01*
X0158908Y0190206D01*
X0101495Y0182470D02*
X0101495Y0176903D01*
X0101495Y0182470D02*
X0093333Y0190632D01*
X0058680Y0190632D01*
X0058680Y0181939D01*
X0058987Y0181632D01*
X0058987Y0171928D01*
X0062333Y0168582D01*
X0072789Y0168582D01*
X0073333Y0168037D01*
X0073333Y0156226D02*
X0080971Y0156226D01*
X0096377Y0171632D01*
X0074239Y0155321D02*
X0073333Y0156226D01*
X0074239Y0155321D02*
X0074239Y0145632D01*
X0009333Y0123632D02*
X0009333Y0116632D01*
X0014333Y0111632D01*
X0033522Y0070632D02*
X0033522Y0051734D01*
X0045333Y0051734D01*
X0051987Y0190632D02*
X0052333Y0190632D01*
X0058680Y0190632D02*
X0058680Y0196285D01*
X0055333Y0199632D01*
X0036333Y0199632D01*
X0022333Y0199632D01*
X0055333Y0199632D02*
X0055333Y0212632D01*
X0066333Y0222632D01*
X0082333Y0222632D01*
X0084349Y0224647D01*
X0084349Y0229655D01*
X0364648Y0217632D02*
X0365727Y0217710D01*
D34*
X0320908Y0219057D02*
X0320908Y0199932D01*
X0317759Y0199932D01*
X0314609Y0199932D01*
X0312633Y0199932D01*
X0308333Y0195632D01*
X0314609Y0193332D02*
X0314609Y0160907D01*
X0313333Y0159632D01*
X0308733Y0159632D01*
X0308233Y0159132D01*
X0308733Y0154632D02*
X0308233Y0154132D01*
X0308733Y0154632D02*
X0313333Y0154632D01*
X0317759Y0159057D01*
X0317759Y0193332D01*
X0320908Y0193332D02*
X0320908Y0157206D01*
X0313333Y0149632D01*
X0308733Y0149632D01*
X0308233Y0149132D01*
X0332433Y0159132D02*
X0342833Y0159132D01*
X0357333Y0173632D01*
X0377333Y0173632D01*
X0393333Y0157632D01*
X0393333Y0071632D01*
X0385333Y0063632D01*
X0375294Y0063632D01*
X0370333Y0068592D01*
X0358680Y0078632D02*
X0368719Y0088671D01*
X0370333Y0088671D01*
X0375294Y0093632D01*
X0385333Y0093632D01*
X0308233Y0164132D02*
X0308233Y0169132D01*
X0308233Y0174132D01*
X0308233Y0179132D01*
X0308233Y0184132D01*
X0308333Y0184232D01*
X0320908Y0219057D02*
X0320333Y0219632D01*
X0226033Y0202132D02*
X0214333Y0202132D01*
X0178333Y0202132D01*
X0165333Y0202132D01*
X0165593Y0202391D01*
X0165593Y0209301D01*
X0165333Y0202132D02*
X0161833Y0202132D01*
X0139333Y0224632D01*
X0139333Y0237632D01*
X0136333Y0240632D01*
X0076333Y0240632D01*
X0074333Y0238632D01*
X0074333Y0229671D01*
X0074349Y0229655D01*
X0066333Y0214632D02*
X0081333Y0199632D01*
X0096333Y0199632D01*
X0113333Y0182632D01*
X0124333Y0182632D01*
X0129333Y0177632D01*
X0129333Y0175632D01*
X0132333Y0172632D02*
X0180333Y0172632D01*
X0185333Y0175632D02*
X0136333Y0175632D01*
X0116849Y0176903D02*
X0114290Y0176903D01*
X0114333Y0176903D01*
X0114333Y0171632D01*
X0104333Y0171632D01*
X0104333Y0157632D01*
X0106613Y0155352D01*
X0106613Y0148360D01*
X0106613Y0141911D01*
X0101333Y0136632D01*
X0090333Y0136632D01*
X0144333Y0120632D02*
X0189333Y0120632D01*
X0104333Y0171632D02*
X0104333Y0176903D01*
X0104054Y0176903D01*
X0106613Y0176903D02*
X0106613Y0181352D01*
X0094333Y0193632D01*
X0073333Y0193632D01*
X0060333Y0206632D01*
X0060333Y0212632D02*
X0076333Y0196632D01*
X0095333Y0196632D01*
X0109172Y0182793D01*
X0109172Y0176903D01*
X0104333Y0171632D02*
X0096377Y0171632D01*
X0096377Y0176903D01*
X0096333Y0171632D02*
X0096377Y0171632D01*
D35*
X0101333Y0163632D03*
X0129333Y0175632D03*
X0132333Y0172632D03*
X0136333Y0175632D03*
X0158908Y0190206D03*
X0178333Y0202132D03*
X0185333Y0209632D03*
X0214333Y0202132D03*
X0185333Y0180632D03*
X0195601Y0170364D03*
X0185333Y0166632D03*
X0189333Y0162632D03*
X0185333Y0158632D03*
X0197333Y0152632D03*
X0237333Y0172132D03*
X0237333Y0177132D03*
X0273333Y0177132D03*
X0291333Y0185632D03*
X0252333Y0208132D03*
X0304333Y0224632D03*
X0326333Y0224632D03*
X0348333Y0206632D03*
X0385333Y0222632D03*
X0348333Y0185632D03*
X0261333Y0143632D03*
X0216333Y0120632D03*
X0189333Y0120632D03*
X0189333Y0104632D03*
X0174333Y0104632D03*
X0144333Y0120632D03*
X0128333Y0136632D03*
X0124333Y0142632D03*
X0132333Y0145632D03*
X0100333Y0123632D03*
X0090333Y0136632D03*
X0135333Y0090632D03*
X0222333Y0096932D03*
X0279333Y0104632D03*
X0329333Y0105632D03*
X0348333Y0124632D03*
X0369333Y0058632D03*
X0123333Y0192632D03*
X0096333Y0215632D03*
X0066333Y0214632D03*
X0060333Y0212632D03*
X0060333Y0206632D03*
X0036333Y0199632D03*
X0029333Y0184632D03*
X0064333Y0225632D03*
X0031333Y0228632D03*
D36*
X0012540Y0048736D02*
X0015116Y0047249D01*
X0017988Y0046479D01*
X0019475Y0046382D01*
X0036631Y0046382D01*
X0036038Y0046836D01*
X0035436Y0047439D01*
X0034917Y0048115D01*
X0034491Y0048853D01*
X0034165Y0049640D01*
X0033945Y0050463D01*
X0033833Y0051308D01*
X0033833Y0051434D01*
X0035722Y0051434D01*
X0035722Y0052034D01*
X0033833Y0052034D01*
X0033833Y0052160D01*
X0033945Y0053005D01*
X0034165Y0053828D01*
X0034491Y0054615D01*
X0034917Y0055353D01*
X0035436Y0056029D01*
X0036038Y0056631D01*
X0036714Y0057150D01*
X0037452Y0057576D01*
X0038239Y0057902D01*
X0039063Y0058123D01*
X0039907Y0058234D01*
X0045033Y0058234D01*
X0045033Y0055834D01*
X0045633Y0055834D01*
X0045633Y0058234D01*
X0050759Y0058234D01*
X0051604Y0058123D01*
X0052427Y0057902D01*
X0053214Y0057576D01*
X0053952Y0057150D01*
X0054628Y0056631D01*
X0055231Y0056029D01*
X0055749Y0055353D01*
X0056176Y0054615D01*
X0056502Y0053828D01*
X0056722Y0053005D01*
X0056833Y0052160D01*
X0056833Y0052034D01*
X0054945Y0052034D01*
X0054945Y0051434D01*
X0056833Y0051434D01*
X0056833Y0051308D01*
X0056722Y0050463D01*
X0056502Y0049640D01*
X0056176Y0048853D01*
X0055749Y0048115D01*
X0055231Y0047439D01*
X0054628Y0046836D01*
X0054035Y0046382D01*
X0388371Y0046382D01*
X0389609Y0046479D01*
X0391964Y0047244D01*
X0393966Y0048699D01*
X0395422Y0050702D01*
X0396187Y0053057D01*
X0396284Y0054294D01*
X0396284Y0242709D01*
X0396221Y0243512D01*
X0395725Y0245039D01*
X0394781Y0246339D01*
X0393481Y0247283D01*
X0391954Y0247779D01*
X0391151Y0247842D01*
X0017517Y0247842D01*
X0016286Y0247762D01*
X0013907Y0247124D01*
X0011774Y0245893D01*
X0010033Y0244151D01*
X0008801Y0242018D01*
X0008164Y0239640D01*
X0008083Y0238408D01*
X0008083Y0188634D01*
X0020033Y0200584D01*
X0021381Y0201932D01*
X0034320Y0201932D01*
X0034606Y0202217D01*
X0035727Y0202682D01*
X0036940Y0202682D01*
X0038061Y0202217D01*
X0038347Y0201932D01*
X0053033Y0201932D01*
X0053033Y0211742D01*
X0052991Y0211789D01*
X0053033Y0212686D01*
X0053033Y0213584D01*
X0053078Y0213629D01*
X0053081Y0213693D01*
X0053746Y0214297D01*
X0054381Y0214932D01*
X0054444Y0214932D01*
X0064746Y0224297D01*
X0065381Y0224932D01*
X0065444Y0224932D01*
X0065491Y0224974D01*
X0066388Y0224932D01*
X0081381Y0224932D01*
X0082032Y0225582D01*
X0081715Y0225713D01*
X0080407Y0227021D01*
X0079699Y0228730D01*
X0079699Y0236879D01*
X0080407Y0238588D01*
X0081715Y0239896D01*
X0083424Y0240604D01*
X0085274Y0240604D01*
X0086983Y0239896D01*
X0088291Y0238588D01*
X0088999Y0236879D01*
X0088999Y0228730D01*
X0088291Y0227021D01*
X0086983Y0225713D01*
X0086649Y0225575D01*
X0086649Y0223695D01*
X0084633Y0221679D01*
X0083286Y0220332D01*
X0067223Y0220332D01*
X0061742Y0215349D01*
X0062061Y0215217D01*
X0062919Y0214359D01*
X0063383Y0213238D01*
X0063383Y0212551D01*
X0077203Y0198732D01*
X0079263Y0198732D01*
X0079233Y0198762D01*
X0079233Y0198762D01*
X0066413Y0211582D01*
X0065727Y0211582D01*
X0064606Y0212046D01*
X0063748Y0212904D01*
X0063283Y0214025D01*
X0063283Y0215238D01*
X0063748Y0216359D01*
X0064606Y0217217D01*
X0065727Y0217682D01*
X0066940Y0217682D01*
X0068061Y0217217D01*
X0068919Y0216359D01*
X0069383Y0215238D01*
X0069383Y0214551D01*
X0082203Y0201732D01*
X0097203Y0201732D01*
X0098433Y0200501D01*
X0114203Y0184732D01*
X0125203Y0184732D01*
X0126433Y0183501D01*
X0131433Y0178501D01*
X0131433Y0177845D01*
X0131919Y0177359D01*
X0132383Y0176238D01*
X0132383Y0175682D01*
X0132940Y0175682D01*
X0133283Y0175539D01*
X0133283Y0176238D01*
X0133748Y0177359D01*
X0134606Y0178217D01*
X0135727Y0178682D01*
X0136940Y0178682D01*
X0138061Y0178217D01*
X0138547Y0177732D01*
X0184365Y0177732D01*
X0183606Y0178046D01*
X0182748Y0178904D01*
X0182283Y0180025D01*
X0182283Y0181238D01*
X0182748Y0182359D01*
X0183020Y0182632D01*
X0163230Y0182632D01*
X0158705Y0187156D01*
X0158301Y0187156D01*
X0157180Y0187621D01*
X0156322Y0188479D01*
X0155858Y0189600D01*
X0155858Y0190813D01*
X0156322Y0191934D01*
X0157180Y0192792D01*
X0158004Y0193133D01*
X0136505Y0214632D01*
X0116544Y0214632D01*
X0105908Y0225268D01*
X0105274Y0225006D01*
X0103424Y0225006D01*
X0101715Y0225713D01*
X0100407Y0227021D01*
X0099699Y0228730D01*
X0099699Y0236879D01*
X0100407Y0238588D01*
X0101715Y0239896D01*
X0103424Y0240604D01*
X0105274Y0240604D01*
X0106983Y0239896D01*
X0108291Y0238588D01*
X0108999Y0236879D01*
X0108999Y0228730D01*
X0108736Y0228097D01*
X0118201Y0218632D01*
X0122505Y0218632D01*
X0115880Y0225257D01*
X0115274Y0225006D01*
X0113424Y0225006D01*
X0111715Y0225713D01*
X0110407Y0227021D01*
X0109699Y0228730D01*
X0109699Y0236879D01*
X0110407Y0238588D01*
X0111715Y0239896D01*
X0113424Y0240604D01*
X0115274Y0240604D01*
X0116983Y0239896D01*
X0118291Y0238588D01*
X0118999Y0236879D01*
X0118999Y0228730D01*
X0118725Y0228069D01*
X0126162Y0220632D01*
X0130505Y0220632D01*
X0125880Y0225257D01*
X0125274Y0225006D01*
X0123424Y0225006D01*
X0121715Y0225713D01*
X0120407Y0227021D01*
X0119699Y0228730D01*
X0119699Y0236879D01*
X0120407Y0238588D01*
X0121715Y0239896D01*
X0123424Y0240604D01*
X0125274Y0240604D01*
X0126983Y0239896D01*
X0128291Y0238588D01*
X0128999Y0236879D01*
X0128999Y0228730D01*
X0128725Y0228069D01*
X0134162Y0222632D01*
X0140162Y0222632D01*
X0168162Y0194632D01*
X0207162Y0194632D01*
X0207662Y0194132D01*
X0220612Y0194132D01*
X0221112Y0194632D01*
X0220533Y0195210D01*
X0220533Y0199053D01*
X0221112Y0199632D01*
X0220833Y0199911D01*
X0220636Y0200253D01*
X0220533Y0200634D01*
X0220533Y0201982D01*
X0225883Y0201982D01*
X0225883Y0202282D01*
X0225883Y0204932D01*
X0221836Y0204932D01*
X0221454Y0204829D01*
X0221112Y0204632D01*
X0220833Y0204353D01*
X0220636Y0204011D01*
X0220533Y0203629D01*
X0220533Y0202282D01*
X0225883Y0202282D01*
X0226183Y0202282D01*
X0226183Y0204932D01*
X0230205Y0204932D01*
X0227505Y0207632D01*
X0187647Y0207632D01*
X0187061Y0207046D01*
X0185940Y0206582D01*
X0184727Y0206582D01*
X0183606Y0207046D01*
X0183020Y0207632D01*
X0176542Y0207632D01*
X0176542Y0205924D01*
X0175663Y0205045D01*
X0170484Y0205045D01*
X0169605Y0205924D01*
X0169605Y0212678D01*
X0170484Y0213557D01*
X0175663Y0213557D01*
X0176542Y0212678D01*
X0176542Y0211632D01*
X0183020Y0211632D01*
X0183606Y0212217D01*
X0184727Y0212682D01*
X0185940Y0212682D01*
X0187061Y0212217D01*
X0187647Y0211632D01*
X0189505Y0211632D01*
X0175880Y0225257D01*
X0175274Y0225006D01*
X0173424Y0225006D01*
X0171715Y0225713D01*
X0171333Y0226095D01*
X0171333Y0222218D01*
X0171923Y0222218D01*
X0172802Y0221340D01*
X0172802Y0214585D01*
X0171923Y0213706D01*
X0166743Y0213706D01*
X0165865Y0214585D01*
X0165865Y0221340D01*
X0166743Y0222218D01*
X0167333Y0222218D01*
X0167333Y0226064D01*
X0166983Y0225713D01*
X0165274Y0225006D01*
X0163424Y0225006D01*
X0161715Y0225713D01*
X0160407Y0227021D01*
X0159699Y0228730D01*
X0159699Y0236879D01*
X0160407Y0238588D01*
X0161715Y0239896D01*
X0163424Y0240604D01*
X0165274Y0240604D01*
X0166983Y0239896D01*
X0167376Y0239503D01*
X0169333Y0241460D01*
X0170505Y0242632D01*
X0212162Y0242632D01*
X0214189Y0240604D01*
X0215274Y0240604D01*
X0216983Y0239896D01*
X0218291Y0238588D01*
X0218999Y0236879D01*
X0218999Y0228730D01*
X0218291Y0227021D01*
X0217901Y0226632D01*
X0220797Y0226632D01*
X0220407Y0227021D01*
X0219699Y0228730D01*
X0219699Y0236879D01*
X0220407Y0238588D01*
X0221715Y0239896D01*
X0223424Y0240604D01*
X0225274Y0240604D01*
X0226983Y0239896D01*
X0228291Y0238588D01*
X0228999Y0236879D01*
X0228999Y0228730D01*
X0228291Y0227021D01*
X0227901Y0226632D01*
X0251101Y0226632D01*
X0250197Y0227536D01*
X0249633Y0228896D01*
X0249633Y0230368D01*
X0250197Y0231727D01*
X0251237Y0232768D01*
X0252597Y0233332D01*
X0254069Y0233332D01*
X0255429Y0232768D01*
X0256470Y0231727D01*
X0257033Y0230368D01*
X0257033Y0228896D01*
X0256470Y0227536D01*
X0255566Y0226632D01*
X0259162Y0226632D01*
X0260333Y0225460D01*
X0276033Y0209760D01*
X0276033Y0211679D01*
X0273381Y0214332D01*
X0273381Y0214332D01*
X0272033Y0215679D01*
X0272033Y0234584D01*
X0276633Y0239184D01*
X0276633Y0240368D01*
X0277197Y0241727D01*
X0278237Y0242768D01*
X0279597Y0243332D01*
X0281069Y0243332D01*
X0282429Y0242768D01*
X0283470Y0241727D01*
X0284033Y0240368D01*
X0284033Y0238896D01*
X0283470Y0237536D01*
X0282429Y0236495D01*
X0281069Y0235932D01*
X0279886Y0235932D01*
X0276633Y0232679D01*
X0276633Y0217584D01*
X0279286Y0214932D01*
X0279286Y0214932D01*
X0280633Y0213584D01*
X0280633Y0173679D01*
X0279286Y0172332D01*
X0271786Y0164832D01*
X0269755Y0164832D01*
X0269255Y0164332D01*
X0260012Y0164332D01*
X0259133Y0165210D01*
X0259133Y0169053D01*
X0259712Y0169632D01*
X0259212Y0170132D01*
X0239647Y0170132D01*
X0239061Y0169546D01*
X0237940Y0169082D01*
X0236727Y0169082D01*
X0235606Y0169546D01*
X0234748Y0170404D01*
X0234283Y0171525D01*
X0234283Y0172738D01*
X0234748Y0173859D01*
X0235520Y0174632D01*
X0234748Y0175404D01*
X0234283Y0176525D01*
X0234283Y0177738D01*
X0234748Y0178859D01*
X0235606Y0179717D01*
X0236727Y0180182D01*
X0237940Y0180182D01*
X0239061Y0179717D01*
X0239647Y0179132D01*
X0259212Y0179132D01*
X0259712Y0179632D01*
X0259133Y0180210D01*
X0259133Y0184053D01*
X0259712Y0184632D01*
X0259133Y0185210D01*
X0259133Y0189053D01*
X0259712Y0189632D01*
X0259133Y0190210D01*
X0259133Y0194053D01*
X0259712Y0194632D01*
X0259133Y0195210D01*
X0259133Y0199053D01*
X0259712Y0199632D01*
X0259212Y0200132D01*
X0238805Y0200132D01*
X0235333Y0203603D01*
X0235333Y0198803D01*
X0234162Y0197632D01*
X0231662Y0195132D01*
X0231455Y0195132D01*
X0230955Y0194632D01*
X0231533Y0194053D01*
X0231533Y0190210D01*
X0230955Y0189632D01*
X0231533Y0189053D01*
X0231533Y0185210D01*
X0230955Y0184632D01*
X0231533Y0184053D01*
X0231533Y0180210D01*
X0230955Y0179632D01*
X0231533Y0179053D01*
X0231533Y0175210D01*
X0230955Y0174632D01*
X0231533Y0174053D01*
X0231533Y0170210D01*
X0230955Y0169632D01*
X0231533Y0169053D01*
X0231533Y0165210D01*
X0230655Y0164332D01*
X0221412Y0164332D01*
X0220612Y0165132D01*
X0203662Y0165132D01*
X0207662Y0161132D01*
X0302812Y0161132D01*
X0303312Y0161632D01*
X0303033Y0161911D01*
X0302836Y0162253D01*
X0302733Y0162634D01*
X0302733Y0163982D01*
X0308083Y0163982D01*
X0308083Y0164282D01*
X0308083Y0168981D01*
X0308383Y0168981D01*
X0308383Y0166332D01*
X0308383Y0164282D01*
X0308083Y0164282D01*
X0302733Y0164282D01*
X0302733Y0165629D01*
X0302836Y0166011D01*
X0303033Y0166353D01*
X0303312Y0166632D01*
X0303033Y0166911D01*
X0302836Y0167253D01*
X0302733Y0167634D01*
X0302733Y0168982D01*
X0308083Y0168982D01*
X0308083Y0169282D01*
X0308083Y0173981D01*
X0308383Y0173981D01*
X0308383Y0171332D01*
X0308383Y0169282D01*
X0308083Y0169282D01*
X0302733Y0169282D01*
X0302733Y0170629D01*
X0302836Y0171011D01*
X0303033Y0171353D01*
X0303312Y0171632D01*
X0303033Y0171911D01*
X0302836Y0172253D01*
X0302733Y0172634D01*
X0302733Y0173982D01*
X0308083Y0173982D01*
X0308083Y0174282D01*
X0308083Y0178981D01*
X0308383Y0178981D01*
X0308383Y0176332D01*
X0308383Y0174282D01*
X0308083Y0174282D01*
X0302733Y0174282D01*
X0302733Y0175629D01*
X0302836Y0176011D01*
X0303033Y0176353D01*
X0303312Y0176632D01*
X0303033Y0176911D01*
X0302836Y0177253D01*
X0302733Y0177634D01*
X0302733Y0178982D01*
X0308083Y0178982D01*
X0308083Y0179282D01*
X0308083Y0183981D01*
X0308383Y0183981D01*
X0308383Y0181932D01*
X0308383Y0179282D01*
X0308083Y0179282D01*
X0302733Y0179282D01*
X0302733Y0180629D01*
X0302836Y0181011D01*
X0303033Y0181353D01*
X0303312Y0181632D01*
X0303033Y0181911D01*
X0302836Y0182253D01*
X0302733Y0182634D01*
X0302733Y0183982D01*
X0308083Y0183982D01*
X0308083Y0184282D01*
X0308083Y0186932D01*
X0304036Y0186932D01*
X0303654Y0186829D01*
X0303312Y0186632D01*
X0303033Y0186353D01*
X0302836Y0186011D01*
X0302733Y0185629D01*
X0302733Y0184282D01*
X0308083Y0184282D01*
X0308383Y0184282D01*
X0308383Y0186932D01*
X0312431Y0186932D01*
X0312509Y0186911D01*
X0312509Y0190710D01*
X0312109Y0191110D01*
X0312109Y0195553D01*
X0312988Y0196432D01*
X0325679Y0196432D01*
X0326558Y0195553D01*
X0326558Y0191110D01*
X0325679Y0190232D01*
X0323008Y0190232D01*
X0323008Y0156337D01*
X0315433Y0148762D01*
X0314203Y0147532D01*
X0313733Y0147532D01*
X0313733Y0147210D01*
X0312855Y0146332D01*
X0303612Y0146332D01*
X0302812Y0147132D01*
X0207005Y0147132D01*
X0200019Y0154117D01*
X0200383Y0153238D01*
X0200383Y0152025D01*
X0199919Y0150904D01*
X0199061Y0150046D01*
X0197940Y0149582D01*
X0196727Y0149582D01*
X0195606Y0150046D01*
X0195020Y0150632D01*
X0150162Y0150632D01*
X0137333Y0137803D01*
X0137333Y0092945D01*
X0137919Y0092359D01*
X0138383Y0091238D01*
X0138383Y0090025D01*
X0137919Y0088904D01*
X0137061Y0088046D01*
X0135940Y0087582D01*
X0134727Y0087582D01*
X0133606Y0088046D01*
X0133020Y0088632D01*
X0044505Y0088632D01*
X0043333Y0089803D01*
X0036160Y0096976D01*
X0035328Y0096632D01*
X0033339Y0096632D01*
X0031501Y0097393D01*
X0030095Y0098799D01*
X0029333Y0100637D01*
X0029333Y0102626D01*
X0028989Y0103458D01*
X0030162Y0104632D01*
X0031333Y0105803D01*
X0031333Y0107631D01*
X0031713Y0107355D01*
X0032414Y0106998D01*
X0033162Y0106755D01*
X0033940Y0106632D01*
X0034026Y0106632D01*
X0034026Y0111324D01*
X0034640Y0111324D01*
X0034640Y0106632D01*
X0034727Y0106632D01*
X0035504Y0106755D01*
X0036253Y0106998D01*
X0036954Y0107355D01*
X0037591Y0107818D01*
X0038147Y0108374D01*
X0038610Y0109011D01*
X0038967Y0109712D01*
X0039210Y0110461D01*
X0039333Y0111238D01*
X0039333Y0111324D01*
X0034640Y0111324D01*
X0034640Y0111939D01*
X0039333Y0111939D01*
X0039333Y0112025D01*
X0039210Y0112802D01*
X0038967Y0113551D01*
X0038610Y0114252D01*
X0038334Y0114632D01*
X0045861Y0114632D01*
X0043207Y0111978D01*
X0041715Y0108376D01*
X0041715Y0104478D01*
X0043207Y0100876D01*
X0045964Y0098119D01*
X0049565Y0096628D01*
X0053464Y0096628D01*
X0057065Y0098119D01*
X0059822Y0100876D01*
X0061314Y0104478D01*
X0061314Y0108376D01*
X0059822Y0111978D01*
X0057168Y0114632D01*
X0109162Y0114632D01*
X0128112Y0133582D01*
X0128940Y0133582D01*
X0130061Y0134046D01*
X0130919Y0134904D01*
X0131383Y0136025D01*
X0131383Y0137238D01*
X0130919Y0138359D01*
X0130061Y0139217D01*
X0129132Y0139602D01*
X0132112Y0142582D01*
X0132940Y0142582D01*
X0134061Y0143046D01*
X0134919Y0143904D01*
X0135383Y0145025D01*
X0135383Y0146238D01*
X0134919Y0147359D01*
X0134061Y0148217D01*
X0132940Y0148682D01*
X0131727Y0148682D01*
X0130606Y0148217D01*
X0129748Y0147359D01*
X0129283Y0146238D01*
X0129283Y0145410D01*
X0127304Y0143430D01*
X0126919Y0144359D01*
X0126061Y0145217D01*
X0124940Y0145682D01*
X0124255Y0145682D01*
X0124255Y0147724D01*
X0133162Y0156632D01*
X0183020Y0156632D01*
X0183606Y0156046D01*
X0184727Y0155582D01*
X0185940Y0155582D01*
X0187061Y0156046D01*
X0187919Y0156904D01*
X0188383Y0158025D01*
X0188383Y0159238D01*
X0188141Y0159824D01*
X0188727Y0159582D01*
X0189940Y0159582D01*
X0191061Y0160046D01*
X0191919Y0160904D01*
X0192304Y0161833D01*
X0198819Y0155317D01*
X0197940Y0155682D01*
X0196727Y0155682D01*
X0195606Y0155217D01*
X0195020Y0154632D01*
X0148505Y0154632D01*
X0147333Y0153460D01*
X0134505Y0140632D01*
X0133333Y0139460D01*
X0133333Y0092945D01*
X0133020Y0092632D01*
X0046162Y0092632D01*
X0038989Y0099805D01*
X0039333Y0100637D01*
X0039333Y0102626D01*
X0038572Y0104464D01*
X0037166Y0105870D01*
X0035328Y0106632D01*
X0033339Y0106632D01*
X0031501Y0105870D01*
X0030095Y0104464D01*
X0029333Y0102626D01*
X0029333Y0100637D01*
X0028572Y0098799D01*
X0027166Y0097393D01*
X0025328Y0096632D01*
X0023339Y0096632D01*
X0021501Y0097393D01*
X0020095Y0098799D01*
X0019333Y0100637D01*
X0019333Y0102626D01*
X0020095Y0104464D01*
X0021501Y0105870D01*
X0023339Y0106632D01*
X0025328Y0106632D01*
X0027166Y0107393D01*
X0027333Y0107561D01*
X0027333Y0107460D01*
X0026160Y0106287D01*
X0025328Y0106632D01*
X0023339Y0106632D01*
X0021501Y0107393D01*
X0021333Y0107561D01*
X0021333Y0105803D01*
X0020162Y0104632D01*
X0019283Y0103753D01*
X0019333Y0103703D01*
X0019333Y0099561D01*
X0016404Y0096632D01*
X0012262Y0096632D01*
X0009333Y0099561D01*
X0009333Y0103703D01*
X0012262Y0106632D01*
X0016404Y0106632D01*
X0016455Y0106581D01*
X0017333Y0107460D01*
X0017333Y0107561D01*
X0017166Y0107393D01*
X0015328Y0106632D01*
X0013339Y0106632D01*
X0011501Y0107393D01*
X0010095Y0108799D01*
X0009333Y0110637D01*
X0009333Y0112626D01*
X0009554Y0113158D01*
X0008381Y0114332D01*
X0008083Y0114629D01*
X0008083Y0057774D01*
X0008181Y0056287D01*
X0008950Y0053414D01*
X0010437Y0050839D01*
X0012540Y0048736D01*
X0012734Y0048624D02*
X0034623Y0048624D01*
X0034172Y0049623D02*
X0011653Y0049623D01*
X0010655Y0050621D02*
X0033924Y0050621D01*
X0033894Y0052618D02*
X0009410Y0052618D01*
X0008896Y0053617D02*
X0034109Y0053617D01*
X0034491Y0054615D02*
X0008629Y0054615D01*
X0008361Y0055614D02*
X0035117Y0055614D01*
X0036019Y0056612D02*
X0008159Y0056612D01*
X0008094Y0057611D02*
X0037536Y0057611D01*
X0036403Y0059789D02*
X0037141Y0060215D01*
X0037817Y0060734D01*
X0038420Y0061337D01*
X0038938Y0062013D01*
X0039364Y0062751D01*
X0039691Y0063538D01*
X0039911Y0064361D01*
X0040022Y0065206D01*
X0040022Y0070332D01*
X0037622Y0070332D01*
X0037622Y0070932D01*
X0040022Y0070932D01*
X0040022Y0076058D01*
X0039911Y0076902D01*
X0039691Y0077725D01*
X0039364Y0078513D01*
X0038938Y0079251D01*
X0038420Y0079927D01*
X0037817Y0080529D01*
X0037141Y0081048D01*
X0036403Y0081474D01*
X0035616Y0081800D01*
X0034793Y0082020D01*
X0033948Y0082132D01*
X0033822Y0082132D01*
X0033822Y0080243D01*
X0033222Y0080243D01*
X0033222Y0082132D01*
X0033096Y0082132D01*
X0032251Y0082020D01*
X0031428Y0081800D01*
X0030641Y0081474D01*
X0029903Y0081048D01*
X0029227Y0080529D01*
X0028625Y0079927D01*
X0028106Y0079251D01*
X0027680Y0078513D01*
X0027354Y0077725D01*
X0027134Y0076902D01*
X0027022Y0076058D01*
X0027022Y0070932D01*
X0029422Y0070932D01*
X0029422Y0070332D01*
X0027022Y0070332D01*
X0027022Y0065206D01*
X0027134Y0064361D01*
X0027354Y0063538D01*
X0027680Y0062751D01*
X0028106Y0062013D01*
X0028625Y0061337D01*
X0029227Y0060734D01*
X0029903Y0060215D01*
X0030641Y0059789D01*
X0031428Y0059463D01*
X0032251Y0059243D01*
X0033096Y0059132D01*
X0033222Y0059132D01*
X0033222Y0061020D01*
X0033822Y0061020D01*
X0033822Y0059132D01*
X0033948Y0059132D01*
X0034793Y0059243D01*
X0035616Y0059463D01*
X0036403Y0059789D01*
X0035965Y0059608D02*
X0054702Y0059608D01*
X0055851Y0059132D02*
X0058437Y0059132D01*
X0060826Y0060121D01*
X0062655Y0061950D01*
X0063644Y0064339D01*
X0063644Y0076925D01*
X0062655Y0079314D01*
X0060826Y0081142D01*
X0058437Y0082132D01*
X0055851Y0082132D01*
X0053462Y0081142D01*
X0051634Y0079314D01*
X0050644Y0076925D01*
X0050644Y0064339D01*
X0051634Y0061950D01*
X0053462Y0060121D01*
X0055851Y0059132D01*
X0054647Y0056612D02*
X0106137Y0056612D01*
X0106392Y0055998D02*
X0105684Y0057707D01*
X0105684Y0059556D01*
X0106392Y0061265D01*
X0107700Y0062573D01*
X0109408Y0063281D01*
X0111258Y0063281D01*
X0112967Y0062573D01*
X0114275Y0061265D01*
X0114983Y0059556D01*
X0114983Y0057707D01*
X0114275Y0055998D01*
X0112967Y0054690D01*
X0111258Y0053982D01*
X0109408Y0053982D01*
X0107700Y0054690D01*
X0106392Y0055998D01*
X0106776Y0055614D02*
X0055549Y0055614D01*
X0056175Y0054615D02*
X0107880Y0054615D01*
X0105723Y0057611D02*
X0053131Y0057611D01*
X0052977Y0060606D02*
X0037651Y0060606D01*
X0038625Y0061605D02*
X0051979Y0061605D01*
X0051363Y0062603D02*
X0039279Y0062603D01*
X0039708Y0063602D02*
X0050950Y0063602D01*
X0050644Y0064600D02*
X0039943Y0064600D01*
X0040022Y0065599D02*
X0050644Y0065599D01*
X0050644Y0066597D02*
X0040022Y0066597D01*
X0040022Y0067596D02*
X0050644Y0067596D01*
X0050644Y0068594D02*
X0040022Y0068594D01*
X0040022Y0069593D02*
X0050644Y0069593D01*
X0050644Y0070591D02*
X0037622Y0070591D01*
X0040022Y0071590D02*
X0050644Y0071590D01*
X0050644Y0072588D02*
X0040022Y0072588D01*
X0040022Y0073587D02*
X0050644Y0073587D01*
X0050644Y0074585D02*
X0040022Y0074585D01*
X0040022Y0075584D02*
X0050644Y0075584D01*
X0050644Y0076582D02*
X0039953Y0076582D01*
X0039729Y0077581D02*
X0050916Y0077581D01*
X0051330Y0078579D02*
X0039326Y0078579D01*
X0038687Y0079578D02*
X0051898Y0079578D01*
X0052897Y0080577D02*
X0037755Y0080577D01*
X0036159Y0081575D02*
X0054508Y0081575D01*
X0059781Y0081575D02*
X0106701Y0081575D01*
X0105703Y0080577D02*
X0061392Y0080577D01*
X0062390Y0079578D02*
X0105684Y0079578D01*
X0105684Y0080558D02*
X0105684Y0076706D01*
X0108407Y0073982D01*
X0112259Y0073982D01*
X0114983Y0076706D01*
X0114983Y0080558D01*
X0112259Y0083281D01*
X0108407Y0083281D01*
X0105684Y0080558D01*
X0105684Y0078579D02*
X0062959Y0078579D01*
X0063372Y0077581D02*
X0105684Y0077581D01*
X0105807Y0076582D02*
X0063644Y0076582D01*
X0063644Y0075584D02*
X0106805Y0075584D01*
X0107804Y0074585D02*
X0063644Y0074585D01*
X0063644Y0073587D02*
X0365333Y0073587D01*
X0365381Y0073636D02*
X0364503Y0072757D01*
X0364503Y0064428D01*
X0365381Y0063549D01*
X0372407Y0063549D01*
X0374424Y0061532D01*
X0378833Y0061532D01*
X0378833Y0060939D01*
X0382641Y0057132D01*
X0388026Y0057132D01*
X0391833Y0060939D01*
X0391833Y0066324D01*
X0391414Y0066743D01*
X0395433Y0070762D01*
X0395433Y0158501D01*
X0378203Y0175732D01*
X0372270Y0175732D01*
X0372542Y0176004D01*
X0373227Y0177658D01*
X0373227Y0179448D01*
X0372542Y0181102D01*
X0371276Y0182368D01*
X0369622Y0183053D01*
X0361832Y0183053D01*
X0360178Y0182368D01*
X0358912Y0181102D01*
X0358227Y0179448D01*
X0358227Y0177658D01*
X0358912Y0176004D01*
X0359184Y0175732D01*
X0356463Y0175732D01*
X0355233Y0174501D01*
X0341963Y0161232D01*
X0337755Y0161232D01*
X0337355Y0161632D01*
X0337933Y0162210D01*
X0337933Y0166053D01*
X0337355Y0166632D01*
X0337933Y0167210D01*
X0337933Y0171053D01*
X0337355Y0171632D01*
X0337933Y0172210D01*
X0337933Y0176053D01*
X0337355Y0176632D01*
X0337933Y0177210D01*
X0337933Y0181053D01*
X0337355Y0181632D01*
X0337933Y0182210D01*
X0337933Y0186053D01*
X0337055Y0186932D01*
X0327812Y0186932D01*
X0326933Y0186053D01*
X0326933Y0182210D01*
X0327512Y0181632D01*
X0326933Y0181053D01*
X0326933Y0177210D01*
X0327512Y0176632D01*
X0326933Y0176053D01*
X0326933Y0172210D01*
X0327512Y0171632D01*
X0326933Y0171053D01*
X0326933Y0167210D01*
X0327512Y0166632D01*
X0326933Y0166053D01*
X0326933Y0162210D01*
X0327512Y0161632D01*
X0326933Y0161053D01*
X0326933Y0157210D01*
X0327512Y0156632D01*
X0326933Y0156053D01*
X0326933Y0152210D01*
X0327512Y0151632D01*
X0326933Y0151053D01*
X0326933Y0147210D01*
X0327812Y0146332D01*
X0335381Y0146332D01*
X0354033Y0127679D01*
X0355381Y0126332D01*
X0358842Y0126332D01*
X0358912Y0126161D01*
X0360178Y0124895D01*
X0361832Y0124210D01*
X0369622Y0124210D01*
X0371276Y0124895D01*
X0372542Y0126161D01*
X0373227Y0127815D01*
X0373227Y0129605D01*
X0372542Y0131259D01*
X0371276Y0132525D01*
X0369622Y0133210D01*
X0361832Y0133210D01*
X0360178Y0132525D01*
X0358912Y0131259D01*
X0358776Y0130932D01*
X0357286Y0130932D01*
X0337933Y0150284D01*
X0337933Y0151053D01*
X0337355Y0151632D01*
X0337555Y0151832D01*
X0352101Y0151832D01*
X0364480Y0164210D01*
X0369622Y0164210D01*
X0371276Y0164895D01*
X0372542Y0166161D01*
X0373227Y0167815D01*
X0373227Y0169605D01*
X0372542Y0171259D01*
X0372270Y0171532D01*
X0376463Y0171532D01*
X0391233Y0156762D01*
X0391233Y0096924D01*
X0388026Y0100132D01*
X0382641Y0100132D01*
X0378833Y0096324D01*
X0378833Y0095732D01*
X0374424Y0095732D01*
X0372407Y0093714D01*
X0365381Y0093714D01*
X0364503Y0092836D01*
X0364503Y0087424D01*
X0359375Y0082297D01*
X0356090Y0082297D01*
X0355333Y0081540D01*
X0354577Y0082297D01*
X0349397Y0082297D01*
X0348518Y0081418D01*
X0348518Y0080932D01*
X0241586Y0080932D01*
X0225383Y0097134D01*
X0225383Y0097538D01*
X0224919Y0098659D01*
X0224061Y0099517D01*
X0222940Y0099982D01*
X0221727Y0099982D01*
X0220606Y0099517D01*
X0220320Y0099232D01*
X0168986Y0099232D01*
X0149686Y0118532D01*
X0187120Y0118532D01*
X0187606Y0118046D01*
X0188727Y0117582D01*
X0189940Y0117582D01*
X0191061Y0118046D01*
X0191919Y0118904D01*
X0192383Y0120025D01*
X0192383Y0121238D01*
X0191919Y0122359D01*
X0191061Y0123217D01*
X0189940Y0123682D01*
X0188727Y0123682D01*
X0187606Y0123217D01*
X0187120Y0122732D01*
X0146547Y0122732D01*
X0146061Y0123217D01*
X0144940Y0123682D01*
X0143727Y0123682D01*
X0142606Y0123217D01*
X0141748Y0122359D01*
X0141283Y0121238D01*
X0141283Y0120025D01*
X0141748Y0118904D01*
X0142606Y0118046D01*
X0143727Y0117582D01*
X0144131Y0117582D01*
X0167081Y0094632D01*
X0220320Y0094632D01*
X0220606Y0094346D01*
X0221727Y0093882D01*
X0222131Y0093882D01*
X0239681Y0076332D01*
X0348518Y0076332D01*
X0348518Y0075845D01*
X0349397Y0074966D01*
X0354577Y0074966D01*
X0355333Y0075723D01*
X0356090Y0074966D01*
X0361270Y0074966D01*
X0362148Y0075845D01*
X0362148Y0079130D01*
X0366646Y0083628D01*
X0375285Y0083628D01*
X0376164Y0084506D01*
X0376164Y0091532D01*
X0378833Y0091532D01*
X0378833Y0090939D01*
X0382641Y0087132D01*
X0388026Y0087132D01*
X0391233Y0090339D01*
X0391233Y0072501D01*
X0388445Y0069713D01*
X0388026Y0070132D01*
X0382641Y0070132D01*
X0378833Y0066324D01*
X0378833Y0065732D01*
X0376164Y0065732D01*
X0376164Y0072757D01*
X0375285Y0073636D01*
X0365381Y0073636D01*
X0364503Y0072588D02*
X0112931Y0072588D01*
X0112967Y0072573D02*
X0111258Y0073281D01*
X0109408Y0073281D01*
X0107700Y0072573D01*
X0106392Y0071265D01*
X0105684Y0069556D01*
X0105684Y0067707D01*
X0106392Y0065998D01*
X0107700Y0064690D01*
X0109408Y0063982D01*
X0111258Y0063982D01*
X0112967Y0064690D01*
X0114275Y0065998D01*
X0114983Y0067707D01*
X0114983Y0069556D01*
X0114275Y0071265D01*
X0112967Y0072573D01*
X0113951Y0071590D02*
X0364503Y0071590D01*
X0364503Y0070591D02*
X0114554Y0070591D01*
X0114968Y0069593D02*
X0364503Y0069593D01*
X0364503Y0068594D02*
X0114983Y0068594D01*
X0114937Y0067596D02*
X0364503Y0067596D01*
X0364503Y0066597D02*
X0114523Y0066597D01*
X0113876Y0065599D02*
X0364503Y0065599D01*
X0364503Y0064600D02*
X0112751Y0064600D01*
X0112895Y0062603D02*
X0373352Y0062603D01*
X0374351Y0061605D02*
X0113936Y0061605D01*
X0114548Y0060606D02*
X0379166Y0060606D01*
X0380165Y0059608D02*
X0114962Y0059608D01*
X0114983Y0058609D02*
X0381163Y0058609D01*
X0382162Y0057611D02*
X0114943Y0057611D01*
X0114530Y0056612D02*
X0396284Y0056612D01*
X0396284Y0055614D02*
X0113891Y0055614D01*
X0112787Y0054615D02*
X0396284Y0054615D01*
X0396231Y0053617D02*
X0056558Y0053617D01*
X0056773Y0052618D02*
X0396044Y0052618D01*
X0395720Y0051620D02*
X0054945Y0051620D01*
X0056743Y0050621D02*
X0395363Y0050621D01*
X0394637Y0049623D02*
X0056494Y0049623D01*
X0056043Y0048624D02*
X0393863Y0048624D01*
X0392489Y0047626D02*
X0055374Y0047626D01*
X0054355Y0046627D02*
X0390065Y0046627D01*
X0388505Y0057611D02*
X0396284Y0057611D01*
X0396284Y0058609D02*
X0389503Y0058609D01*
X0390502Y0059608D02*
X0396284Y0059608D01*
X0396284Y0060606D02*
X0391500Y0060606D01*
X0391833Y0061605D02*
X0396284Y0061605D01*
X0396284Y0062603D02*
X0391833Y0062603D01*
X0391833Y0063602D02*
X0396284Y0063602D01*
X0396284Y0064600D02*
X0391833Y0064600D01*
X0391833Y0065599D02*
X0396284Y0065599D01*
X0396284Y0066597D02*
X0391560Y0066597D01*
X0392267Y0067596D02*
X0396284Y0067596D01*
X0396284Y0068594D02*
X0393266Y0068594D01*
X0394264Y0069593D02*
X0396284Y0069593D01*
X0396284Y0070591D02*
X0395263Y0070591D01*
X0395433Y0071590D02*
X0396284Y0071590D01*
X0396284Y0072588D02*
X0395433Y0072588D01*
X0395433Y0073587D02*
X0396284Y0073587D01*
X0396284Y0074585D02*
X0395433Y0074585D01*
X0395433Y0075584D02*
X0396284Y0075584D01*
X0396284Y0076582D02*
X0395433Y0076582D01*
X0395433Y0077581D02*
X0396284Y0077581D01*
X0396284Y0078579D02*
X0395433Y0078579D01*
X0395433Y0079578D02*
X0396284Y0079578D01*
X0396284Y0080577D02*
X0395433Y0080577D01*
X0395433Y0081575D02*
X0396284Y0081575D01*
X0396284Y0082574D02*
X0395433Y0082574D01*
X0395433Y0083572D02*
X0396284Y0083572D01*
X0396284Y0084571D02*
X0395433Y0084571D01*
X0395433Y0085569D02*
X0396284Y0085569D01*
X0396284Y0086568D02*
X0395433Y0086568D01*
X0395433Y0087566D02*
X0396284Y0087566D01*
X0396284Y0088565D02*
X0395433Y0088565D01*
X0395433Y0089563D02*
X0396284Y0089563D01*
X0396284Y0090562D02*
X0395433Y0090562D01*
X0395433Y0091560D02*
X0396284Y0091560D01*
X0396284Y0092559D02*
X0395433Y0092559D01*
X0395433Y0093557D02*
X0396284Y0093557D01*
X0396284Y0094556D02*
X0395433Y0094556D01*
X0395433Y0095554D02*
X0396284Y0095554D01*
X0396284Y0096553D02*
X0395433Y0096553D01*
X0395433Y0097551D02*
X0396284Y0097551D01*
X0396284Y0098550D02*
X0395433Y0098550D01*
X0395433Y0099548D02*
X0396284Y0099548D01*
X0396284Y0100547D02*
X0395433Y0100547D01*
X0395433Y0101545D02*
X0396284Y0101545D01*
X0396284Y0102544D02*
X0395433Y0102544D01*
X0395433Y0103542D02*
X0396284Y0103542D01*
X0396284Y0104541D02*
X0395433Y0104541D01*
X0395433Y0105539D02*
X0396284Y0105539D01*
X0396284Y0106538D02*
X0395433Y0106538D01*
X0395433Y0107536D02*
X0396284Y0107536D01*
X0396284Y0108535D02*
X0395433Y0108535D01*
X0395433Y0109533D02*
X0396284Y0109533D01*
X0396284Y0110532D02*
X0395433Y0110532D01*
X0395433Y0111530D02*
X0396284Y0111530D01*
X0396284Y0112529D02*
X0395433Y0112529D01*
X0395433Y0113527D02*
X0396284Y0113527D01*
X0396284Y0114526D02*
X0395433Y0114526D01*
X0395433Y0115524D02*
X0396284Y0115524D01*
X0396284Y0116523D02*
X0395433Y0116523D01*
X0395433Y0117521D02*
X0396284Y0117521D01*
X0396284Y0118520D02*
X0395433Y0118520D01*
X0395433Y0119518D02*
X0396284Y0119518D01*
X0396284Y0120517D02*
X0395433Y0120517D01*
X0395433Y0121515D02*
X0396284Y0121515D01*
X0396284Y0122514D02*
X0395433Y0122514D01*
X0395433Y0123512D02*
X0396284Y0123512D01*
X0396284Y0124511D02*
X0395433Y0124511D01*
X0395433Y0125510D02*
X0396284Y0125510D01*
X0396284Y0126508D02*
X0395433Y0126508D01*
X0395433Y0127507D02*
X0396284Y0127507D01*
X0396284Y0128505D02*
X0395433Y0128505D01*
X0395433Y0129504D02*
X0396284Y0129504D01*
X0396284Y0130502D02*
X0395433Y0130502D01*
X0395433Y0131501D02*
X0396284Y0131501D01*
X0396284Y0132499D02*
X0395433Y0132499D01*
X0395433Y0133498D02*
X0396284Y0133498D01*
X0396284Y0134496D02*
X0395433Y0134496D01*
X0395433Y0135495D02*
X0396284Y0135495D01*
X0396284Y0136493D02*
X0395433Y0136493D01*
X0395433Y0137492D02*
X0396284Y0137492D01*
X0396284Y0138490D02*
X0395433Y0138490D01*
X0395433Y0139489D02*
X0396284Y0139489D01*
X0396284Y0140487D02*
X0395433Y0140487D01*
X0395433Y0141486D02*
X0396284Y0141486D01*
X0396284Y0142484D02*
X0395433Y0142484D01*
X0395433Y0143483D02*
X0396284Y0143483D01*
X0396284Y0144481D02*
X0395433Y0144481D01*
X0395433Y0145480D02*
X0396284Y0145480D01*
X0396284Y0146478D02*
X0395433Y0146478D01*
X0395433Y0147477D02*
X0396284Y0147477D01*
X0396284Y0148475D02*
X0395433Y0148475D01*
X0395433Y0149474D02*
X0396284Y0149474D01*
X0396284Y0150472D02*
X0395433Y0150472D01*
X0395433Y0151471D02*
X0396284Y0151471D01*
X0396284Y0152469D02*
X0395433Y0152469D01*
X0395433Y0153468D02*
X0396284Y0153468D01*
X0396284Y0154466D02*
X0395433Y0154466D01*
X0395433Y0155465D02*
X0396284Y0155465D01*
X0396284Y0156463D02*
X0395433Y0156463D01*
X0395433Y0157462D02*
X0396284Y0157462D01*
X0396284Y0158460D02*
X0395433Y0158460D01*
X0396284Y0159459D02*
X0394476Y0159459D01*
X0393477Y0160457D02*
X0396284Y0160457D01*
X0396284Y0161456D02*
X0392479Y0161456D01*
X0391480Y0162454D02*
X0396284Y0162454D01*
X0396284Y0163453D02*
X0390482Y0163453D01*
X0389483Y0164451D02*
X0396284Y0164451D01*
X0396284Y0165450D02*
X0388485Y0165450D01*
X0387486Y0166448D02*
X0396284Y0166448D01*
X0396284Y0167447D02*
X0386488Y0167447D01*
X0385489Y0168445D02*
X0396284Y0168445D01*
X0396284Y0169444D02*
X0384491Y0169444D01*
X0383492Y0170443D02*
X0396284Y0170443D01*
X0396284Y0171441D02*
X0382494Y0171441D01*
X0381495Y0172440D02*
X0396284Y0172440D01*
X0396284Y0173438D02*
X0380497Y0173438D01*
X0379498Y0174437D02*
X0396284Y0174437D01*
X0396284Y0175435D02*
X0378500Y0175435D01*
X0376554Y0171441D02*
X0372360Y0171441D01*
X0372880Y0170443D02*
X0377553Y0170443D01*
X0378551Y0169444D02*
X0373227Y0169444D01*
X0373227Y0168445D02*
X0379550Y0168445D01*
X0380548Y0167447D02*
X0373074Y0167447D01*
X0372661Y0166448D02*
X0381547Y0166448D01*
X0382545Y0165450D02*
X0371831Y0165450D01*
X0370204Y0164451D02*
X0383544Y0164451D01*
X0384542Y0163453D02*
X0363722Y0163453D01*
X0362724Y0162454D02*
X0385541Y0162454D01*
X0386539Y0161456D02*
X0361725Y0161456D01*
X0360727Y0160457D02*
X0387538Y0160457D01*
X0388536Y0159459D02*
X0359728Y0159459D01*
X0358730Y0158460D02*
X0389535Y0158460D01*
X0390533Y0157462D02*
X0357731Y0157462D01*
X0356733Y0156463D02*
X0391233Y0156463D01*
X0391233Y0155465D02*
X0355734Y0155465D01*
X0354736Y0154466D02*
X0391233Y0154466D01*
X0391233Y0153468D02*
X0353737Y0153468D01*
X0352739Y0152469D02*
X0391233Y0152469D01*
X0391233Y0151471D02*
X0337515Y0151471D01*
X0337933Y0150472D02*
X0391233Y0150472D01*
X0391233Y0149474D02*
X0338744Y0149474D01*
X0339742Y0148475D02*
X0391233Y0148475D01*
X0391233Y0147477D02*
X0340741Y0147477D01*
X0341739Y0146478D02*
X0391233Y0146478D01*
X0391233Y0145480D02*
X0342738Y0145480D01*
X0343736Y0144481D02*
X0391233Y0144481D01*
X0391233Y0143483D02*
X0344735Y0143483D01*
X0345733Y0142484D02*
X0360459Y0142484D01*
X0360178Y0142368D02*
X0358912Y0141102D01*
X0358227Y0139448D01*
X0358227Y0137658D01*
X0358912Y0136004D01*
X0360178Y0134738D01*
X0361832Y0134053D01*
X0369622Y0134053D01*
X0371276Y0134738D01*
X0372542Y0136004D01*
X0373227Y0137658D01*
X0373227Y0139448D01*
X0372542Y0141102D01*
X0371276Y0142368D01*
X0369622Y0143053D01*
X0361832Y0143053D01*
X0360178Y0142368D01*
X0359296Y0141486D02*
X0346732Y0141486D01*
X0347730Y0140487D02*
X0358657Y0140487D01*
X0358244Y0139489D02*
X0348729Y0139489D01*
X0349727Y0138490D02*
X0358227Y0138490D01*
X0358296Y0137492D02*
X0350726Y0137492D01*
X0351724Y0136493D02*
X0358709Y0136493D01*
X0359421Y0135495D02*
X0352723Y0135495D01*
X0353721Y0134496D02*
X0360762Y0134496D01*
X0360152Y0132499D02*
X0355718Y0132499D01*
X0354720Y0133498D02*
X0391233Y0133498D01*
X0391233Y0134496D02*
X0370692Y0134496D01*
X0372033Y0135495D02*
X0391233Y0135495D01*
X0391233Y0136493D02*
X0372745Y0136493D01*
X0373158Y0137492D02*
X0391233Y0137492D01*
X0391233Y0138490D02*
X0373227Y0138490D01*
X0373210Y0139489D02*
X0391233Y0139489D01*
X0391233Y0140487D02*
X0372797Y0140487D01*
X0372158Y0141486D02*
X0391233Y0141486D01*
X0391233Y0142484D02*
X0370995Y0142484D01*
X0371302Y0132499D02*
X0391233Y0132499D01*
X0391233Y0131501D02*
X0372301Y0131501D01*
X0372856Y0130502D02*
X0391233Y0130502D01*
X0391233Y0129504D02*
X0373227Y0129504D01*
X0373227Y0128505D02*
X0391233Y0128505D01*
X0391233Y0127507D02*
X0373099Y0127507D01*
X0372686Y0126508D02*
X0391233Y0126508D01*
X0391233Y0125510D02*
X0371890Y0125510D01*
X0370348Y0124511D02*
X0391233Y0124511D01*
X0391233Y0123512D02*
X0190348Y0123512D01*
X0191764Y0122514D02*
X0391233Y0122514D01*
X0391233Y0121515D02*
X0192269Y0121515D01*
X0192383Y0120517D02*
X0391233Y0120517D01*
X0391233Y0119518D02*
X0192174Y0119518D01*
X0191535Y0118520D02*
X0391233Y0118520D01*
X0391233Y0117521D02*
X0150696Y0117521D01*
X0151695Y0116523D02*
X0391233Y0116523D01*
X0391233Y0115524D02*
X0352795Y0115524D01*
X0351101Y0116226D02*
X0354703Y0114734D01*
X0357460Y0111978D01*
X0358951Y0108376D01*
X0358951Y0104478D01*
X0357460Y0100876D01*
X0354703Y0098119D01*
X0351101Y0096628D01*
X0347203Y0096628D01*
X0343601Y0098119D01*
X0340845Y0100876D01*
X0339353Y0104478D01*
X0339353Y0108376D01*
X0340845Y0111978D01*
X0343601Y0114734D01*
X0347203Y0116226D01*
X0351101Y0116226D01*
X0354911Y0114526D02*
X0391233Y0114526D01*
X0391233Y0113527D02*
X0355910Y0113527D01*
X0356908Y0112529D02*
X0391233Y0112529D01*
X0391233Y0111530D02*
X0357645Y0111530D01*
X0358058Y0110532D02*
X0391233Y0110532D01*
X0391233Y0109533D02*
X0358472Y0109533D01*
X0358886Y0108535D02*
X0391233Y0108535D01*
X0391233Y0107536D02*
X0358951Y0107536D01*
X0358951Y0106538D02*
X0391233Y0106538D01*
X0391233Y0105539D02*
X0358951Y0105539D01*
X0358951Y0104541D02*
X0391233Y0104541D01*
X0391233Y0103542D02*
X0358564Y0103542D01*
X0358150Y0102544D02*
X0391233Y0102544D01*
X0391233Y0101545D02*
X0357737Y0101545D01*
X0357130Y0100547D02*
X0391233Y0100547D01*
X0391233Y0099548D02*
X0388609Y0099548D01*
X0389608Y0098550D02*
X0391233Y0098550D01*
X0391233Y0097551D02*
X0390606Y0097551D01*
X0382058Y0099548D02*
X0356132Y0099548D01*
X0355133Y0098550D02*
X0381059Y0098550D01*
X0380061Y0097551D02*
X0353331Y0097551D01*
X0344973Y0097551D02*
X0225378Y0097551D01*
X0224964Y0098550D02*
X0343171Y0098550D01*
X0342173Y0099548D02*
X0223986Y0099548D01*
X0220680Y0099548D02*
X0168669Y0099548D01*
X0167671Y0100547D02*
X0341174Y0100547D01*
X0340568Y0101545D02*
X0166672Y0101545D01*
X0165674Y0102544D02*
X0340154Y0102544D01*
X0339740Y0103542D02*
X0164675Y0103542D01*
X0163677Y0104541D02*
X0339353Y0104541D01*
X0339353Y0105539D02*
X0162678Y0105539D01*
X0161680Y0106538D02*
X0339353Y0106538D01*
X0339353Y0107536D02*
X0160681Y0107536D01*
X0159683Y0108535D02*
X0339419Y0108535D01*
X0339832Y0109533D02*
X0158684Y0109533D01*
X0157686Y0110532D02*
X0340246Y0110532D01*
X0340660Y0111530D02*
X0156687Y0111530D01*
X0155689Y0112529D02*
X0341396Y0112529D01*
X0342395Y0113527D02*
X0154690Y0113527D01*
X0153692Y0114526D02*
X0343393Y0114526D01*
X0345509Y0115524D02*
X0152693Y0115524D01*
X0149698Y0118520D02*
X0187132Y0118520D01*
X0188318Y0123512D02*
X0145348Y0123512D01*
X0143318Y0123512D02*
X0137333Y0123512D01*
X0137333Y0122514D02*
X0141902Y0122514D01*
X0141398Y0121515D02*
X0137333Y0121515D01*
X0137333Y0120517D02*
X0141283Y0120517D01*
X0141493Y0119518D02*
X0137333Y0119518D01*
X0137333Y0118520D02*
X0142132Y0118520D01*
X0144191Y0117521D02*
X0137333Y0117521D01*
X0137333Y0116523D02*
X0145189Y0116523D01*
X0146188Y0115524D02*
X0137333Y0115524D01*
X0137333Y0114526D02*
X0147186Y0114526D01*
X0148185Y0113527D02*
X0137333Y0113527D01*
X0137333Y0112529D02*
X0149183Y0112529D01*
X0150182Y0111530D02*
X0137333Y0111530D01*
X0137333Y0110532D02*
X0151180Y0110532D01*
X0152179Y0109533D02*
X0137333Y0109533D01*
X0137333Y0108535D02*
X0153177Y0108535D01*
X0154176Y0107536D02*
X0137333Y0107536D01*
X0137333Y0106538D02*
X0155174Y0106538D01*
X0156173Y0105539D02*
X0137333Y0105539D01*
X0137333Y0104541D02*
X0157171Y0104541D01*
X0158170Y0103542D02*
X0137333Y0103542D01*
X0137333Y0102544D02*
X0159168Y0102544D01*
X0160167Y0101545D02*
X0137333Y0101545D01*
X0137333Y0100547D02*
X0161165Y0100547D01*
X0162164Y0099548D02*
X0137333Y0099548D01*
X0137333Y0098550D02*
X0163163Y0098550D01*
X0164161Y0097551D02*
X0137333Y0097551D01*
X0137333Y0096553D02*
X0165160Y0096553D01*
X0166158Y0095554D02*
X0137333Y0095554D01*
X0137333Y0094556D02*
X0220396Y0094556D01*
X0222455Y0093557D02*
X0137333Y0093557D01*
X0137720Y0092559D02*
X0223454Y0092559D01*
X0224452Y0091560D02*
X0138250Y0091560D01*
X0138383Y0090562D02*
X0225451Y0090562D01*
X0226449Y0089563D02*
X0138192Y0089563D01*
X0137580Y0088565D02*
X0227448Y0088565D01*
X0228446Y0087566D02*
X0008083Y0087566D01*
X0008083Y0086568D02*
X0229445Y0086568D01*
X0230443Y0085569D02*
X0008083Y0085569D01*
X0008083Y0084571D02*
X0231442Y0084571D01*
X0232440Y0083572D02*
X0008083Y0083572D01*
X0008083Y0082574D02*
X0107700Y0082574D01*
X0112967Y0082574D02*
X0233439Y0082574D01*
X0234437Y0081575D02*
X0113965Y0081575D01*
X0114964Y0080577D02*
X0235436Y0080577D01*
X0236434Y0079578D02*
X0114983Y0079578D01*
X0114983Y0078579D02*
X0237433Y0078579D01*
X0238431Y0077581D02*
X0114983Y0077581D01*
X0114860Y0076582D02*
X0239430Y0076582D01*
X0240943Y0081575D02*
X0348675Y0081575D01*
X0355299Y0081575D02*
X0355368Y0081575D01*
X0359652Y0082574D02*
X0239944Y0082574D01*
X0238946Y0083572D02*
X0360650Y0083572D01*
X0361649Y0084571D02*
X0237947Y0084571D01*
X0236949Y0085569D02*
X0362647Y0085569D01*
X0363646Y0086568D02*
X0235950Y0086568D01*
X0234952Y0087566D02*
X0364503Y0087566D01*
X0364503Y0088565D02*
X0233953Y0088565D01*
X0232954Y0089563D02*
X0364503Y0089563D01*
X0364503Y0090562D02*
X0231956Y0090562D01*
X0230957Y0091560D02*
X0364503Y0091560D01*
X0364503Y0092559D02*
X0229959Y0092559D01*
X0228960Y0093557D02*
X0365224Y0093557D01*
X0373248Y0094556D02*
X0227962Y0094556D01*
X0226963Y0095554D02*
X0374247Y0095554D01*
X0379062Y0096553D02*
X0225965Y0096553D01*
X0144011Y0144481D02*
X0337231Y0144481D01*
X0338230Y0143483D02*
X0143013Y0143483D01*
X0142014Y0142484D02*
X0339228Y0142484D01*
X0340227Y0141486D02*
X0141016Y0141486D01*
X0140017Y0140487D02*
X0341225Y0140487D01*
X0342224Y0139489D02*
X0139019Y0139489D01*
X0138020Y0138490D02*
X0343222Y0138490D01*
X0344221Y0137492D02*
X0137333Y0137492D01*
X0137333Y0136493D02*
X0345219Y0136493D01*
X0346218Y0135495D02*
X0137333Y0135495D01*
X0137333Y0134496D02*
X0347216Y0134496D01*
X0348215Y0133498D02*
X0137333Y0133498D01*
X0137333Y0132499D02*
X0349213Y0132499D01*
X0350212Y0131501D02*
X0137333Y0131501D01*
X0137333Y0130502D02*
X0351210Y0130502D01*
X0352209Y0129504D02*
X0137333Y0129504D01*
X0137333Y0128505D02*
X0353207Y0128505D01*
X0354206Y0127507D02*
X0137333Y0127507D01*
X0137333Y0126508D02*
X0355204Y0126508D01*
X0359564Y0125510D02*
X0137333Y0125510D01*
X0137333Y0124511D02*
X0361106Y0124511D01*
X0359153Y0131501D02*
X0356717Y0131501D01*
X0336232Y0145480D02*
X0145010Y0145480D01*
X0146008Y0146478D02*
X0303465Y0146478D01*
X0302812Y0151132D02*
X0208662Y0151132D01*
X0207662Y0152132D01*
X0302812Y0152132D01*
X0303312Y0151632D01*
X0302812Y0151132D01*
X0303151Y0151471D02*
X0208323Y0151471D01*
X0207833Y0149132D02*
X0184333Y0172632D01*
X0180333Y0172632D01*
X0181303Y0170632D02*
X0183505Y0170632D01*
X0184535Y0169602D01*
X0183606Y0169217D01*
X0183020Y0168632D01*
X0127366Y0168632D01*
X0126572Y0168658D01*
X0126543Y0168632D01*
X0126505Y0168632D01*
X0125942Y0168069D01*
X0110941Y0154029D01*
X0110903Y0154029D01*
X0110340Y0153467D01*
X0109759Y0152923D01*
X0109758Y0152885D01*
X0109731Y0152858D01*
X0109731Y0152813D01*
X0107763Y0152813D01*
X0107728Y0152778D01*
X0107598Y0152813D01*
X0106613Y0152813D01*
X0106613Y0148360D01*
X0106613Y0148360D01*
X0106613Y0143907D01*
X0107598Y0143907D01*
X0107728Y0143942D01*
X0107763Y0143907D01*
X0111990Y0143907D01*
X0111990Y0138541D01*
X0100131Y0126682D01*
X0099727Y0126682D01*
X0098606Y0126217D01*
X0098320Y0125932D01*
X0011633Y0125932D01*
X0011633Y0141021D01*
X0011980Y0140675D01*
X0023065Y0140675D01*
X0023944Y0141554D01*
X0023944Y0150670D01*
X0023065Y0151549D01*
X0011980Y0151549D01*
X0011633Y0151202D01*
X0011633Y0176061D01*
X0011980Y0175714D01*
X0023065Y0175714D01*
X0023944Y0176593D01*
X0023944Y0185710D01*
X0023065Y0186588D01*
X0012543Y0186588D01*
X0023286Y0197332D01*
X0034320Y0197332D01*
X0034606Y0197046D01*
X0035727Y0196582D01*
X0036940Y0196582D01*
X0038061Y0197046D01*
X0038347Y0197332D01*
X0054381Y0197332D01*
X0056380Y0195332D01*
X0056380Y0194100D01*
X0055893Y0194100D01*
X0055333Y0193540D01*
X0055073Y0193800D01*
X0054731Y0193998D01*
X0054350Y0194100D01*
X0052471Y0194100D01*
X0052471Y0191116D01*
X0051503Y0191116D01*
X0051503Y0194100D01*
X0049624Y0194100D01*
X0049243Y0193998D01*
X0048900Y0193800D01*
X0048621Y0193521D01*
X0048424Y0193179D01*
X0048322Y0192798D01*
X0048322Y0191116D01*
X0051503Y0191116D01*
X0051503Y0190147D01*
X0052471Y0190147D01*
X0052471Y0187163D01*
X0054350Y0187163D01*
X0054731Y0187265D01*
X0055073Y0187463D01*
X0055333Y0187723D01*
X0055893Y0187163D01*
X0056380Y0187163D01*
X0056380Y0185280D01*
X0055518Y0184418D01*
X0055518Y0178845D01*
X0056397Y0177966D01*
X0056687Y0177966D01*
X0056687Y0170975D01*
X0059033Y0168629D01*
X0059033Y0165560D01*
X0059462Y0165132D01*
X0051662Y0165132D01*
X0051162Y0165632D01*
X0048747Y0165632D01*
X0048747Y0168387D01*
X0048670Y0168463D01*
X0048747Y0168749D01*
X0048747Y0169931D01*
X0048747Y0171113D01*
X0048644Y0171494D01*
X0048447Y0171836D01*
X0048168Y0172115D01*
X0047826Y0172313D01*
X0047444Y0172415D01*
X0041144Y0172415D01*
X0034845Y0172415D01*
X0034463Y0172313D01*
X0034121Y0172115D01*
X0033842Y0171836D01*
X0033644Y0171494D01*
X0033542Y0171113D01*
X0033542Y0169931D01*
X0041144Y0169931D01*
X0041144Y0169931D01*
X0041144Y0172415D01*
X0041144Y0169931D01*
X0041144Y0169931D01*
X0033542Y0169931D01*
X0033542Y0168749D01*
X0033619Y0168463D01*
X0033542Y0168387D01*
X0033542Y0155727D01*
X0034421Y0154848D01*
X0047868Y0154848D01*
X0048052Y0155032D01*
X0059033Y0155032D01*
X0059033Y0152660D01*
X0059912Y0151782D01*
X0060033Y0151782D01*
X0060033Y0149887D01*
X0058657Y0149887D01*
X0057778Y0149009D01*
X0057778Y0142254D01*
X0058657Y0141376D01*
X0066199Y0141376D01*
X0067077Y0142254D01*
X0067077Y0149009D01*
X0066199Y0149887D01*
X0064633Y0149887D01*
X0064633Y0151782D01*
X0064755Y0151782D01*
X0065633Y0152660D01*
X0065633Y0158703D01*
X0065205Y0159132D01*
X0067109Y0159132D01*
X0067109Y0156726D01*
X0072833Y0156726D01*
X0072833Y0155726D01*
X0067109Y0155726D01*
X0067109Y0152879D01*
X0067211Y0152497D01*
X0067409Y0152155D01*
X0067688Y0151876D01*
X0068030Y0151679D01*
X0068411Y0151576D01*
X0072833Y0151576D01*
X0072833Y0155726D01*
X0073833Y0155726D01*
X0073833Y0151576D01*
X0078255Y0151576D01*
X0078637Y0151679D01*
X0078979Y0151876D01*
X0079258Y0152155D01*
X0079455Y0152497D01*
X0079558Y0152879D01*
X0079558Y0155726D01*
X0073833Y0155726D01*
X0073833Y0156726D01*
X0079558Y0156726D01*
X0079558Y0159132D01*
X0081662Y0159132D01*
X0093333Y0170803D01*
X0093333Y0172450D01*
X0095226Y0172450D01*
X0095261Y0172485D01*
X0095392Y0172450D01*
X0096377Y0172450D01*
X0097362Y0172450D01*
X0097492Y0172485D01*
X0097527Y0172450D01*
X0102903Y0172450D01*
X0102938Y0172485D01*
X0103069Y0172450D01*
X0104054Y0172450D01*
X0105039Y0172450D01*
X0105169Y0172485D01*
X0105204Y0172450D01*
X0113140Y0172450D01*
X0113175Y0172485D01*
X0113305Y0172450D01*
X0114290Y0172450D01*
X0114290Y0176903D01*
X0114290Y0176903D01*
X0114290Y0172450D01*
X0115275Y0172450D01*
X0115570Y0172529D01*
X0115864Y0172450D01*
X0116849Y0172450D01*
X0116849Y0176903D01*
X0116849Y0176903D01*
X0116849Y0172450D01*
X0117834Y0172450D01*
X0117964Y0172485D01*
X0117999Y0172450D01*
X0123376Y0172450D01*
X0124255Y0173329D01*
X0124255Y0179740D01*
X0126715Y0177280D01*
X0126283Y0176238D01*
X0126283Y0175025D01*
X0126748Y0173904D01*
X0127606Y0173046D01*
X0128727Y0172582D01*
X0129283Y0172582D01*
X0129283Y0172025D01*
X0129748Y0170904D01*
X0130606Y0170046D01*
X0131727Y0169582D01*
X0132940Y0169582D01*
X0134061Y0170046D01*
X0134547Y0170532D01*
X0181203Y0170532D01*
X0181303Y0170632D01*
X0183694Y0170443D02*
X0134458Y0170443D01*
X0130209Y0170443D02*
X0092973Y0170443D01*
X0093333Y0171441D02*
X0129525Y0171441D01*
X0129283Y0172440D02*
X0093333Y0172440D01*
X0091333Y0171632D02*
X0080833Y0161132D01*
X0050833Y0161132D01*
X0050184Y0160482D01*
X0041144Y0160482D01*
X0041144Y0163632D02*
X0050333Y0163632D01*
X0050833Y0163132D01*
X0079833Y0163132D01*
X0088699Y0171998D01*
X0088699Y0176903D01*
X0086412Y0176434D02*
X0082345Y0176434D01*
X0082345Y0177432D02*
X0086412Y0177432D01*
X0086412Y0178431D02*
X0082345Y0178431D01*
X0082345Y0179429D02*
X0086412Y0179429D01*
X0086412Y0179632D02*
X0086412Y0173329D01*
X0086699Y0173042D01*
X0086699Y0172826D01*
X0079558Y0165684D01*
X0079558Y0171808D01*
X0078679Y0172687D01*
X0067988Y0172687D01*
X0067109Y0171808D01*
X0067109Y0170882D01*
X0065633Y0170882D01*
X0065633Y0171603D01*
X0064755Y0172482D01*
X0061686Y0172482D01*
X0061287Y0172881D01*
X0061287Y0177966D01*
X0061577Y0177966D01*
X0062333Y0178723D01*
X0063090Y0177966D01*
X0068270Y0177966D01*
X0068419Y0178116D01*
X0071503Y0178116D01*
X0071503Y0181100D01*
X0069624Y0181100D01*
X0069243Y0180998D01*
X0069148Y0180943D01*
X0069148Y0182272D01*
X0070508Y0183632D01*
X0093505Y0183632D01*
X0095781Y0181356D01*
X0095437Y0181356D01*
X0093162Y0183632D01*
X0079505Y0183632D01*
X0078333Y0182460D01*
X0076973Y0181100D01*
X0075893Y0181100D01*
X0075333Y0180540D01*
X0075073Y0180800D01*
X0074731Y0180998D01*
X0074350Y0181100D01*
X0072471Y0181100D01*
X0072471Y0178116D01*
X0071503Y0178116D01*
X0071503Y0177147D01*
X0072471Y0177147D01*
X0072471Y0174163D01*
X0074350Y0174163D01*
X0074731Y0174265D01*
X0075073Y0174463D01*
X0075333Y0174723D01*
X0075893Y0174163D01*
X0081466Y0174163D01*
X0082345Y0175042D01*
X0082345Y0179632D01*
X0086412Y0179632D01*
X0091259Y0176903D02*
X0091333Y0176828D01*
X0091333Y0171632D01*
X0091974Y0169444D02*
X0184153Y0169444D01*
X0185333Y0166632D02*
X0127333Y0166632D01*
X0111731Y0152029D01*
X0111731Y0148360D01*
X0106613Y0148360D02*
X0106613Y0148360D01*
X0106613Y0152813D01*
X0105628Y0152813D01*
X0105497Y0152778D01*
X0105463Y0152813D01*
X0087291Y0152813D01*
X0086412Y0151934D01*
X0086412Y0144786D01*
X0087291Y0143907D01*
X0105463Y0143907D01*
X0105497Y0143942D01*
X0105628Y0143907D01*
X0106613Y0143907D01*
X0106613Y0148360D01*
X0106613Y0148475D02*
X0106613Y0148475D01*
X0106613Y0147477D02*
X0106613Y0147477D01*
X0106613Y0146478D02*
X0106613Y0146478D01*
X0106613Y0145480D02*
X0106613Y0145480D01*
X0106613Y0144481D02*
X0106613Y0144481D01*
X0111990Y0143483D02*
X0078888Y0143483D01*
X0078888Y0142678D02*
X0078888Y0145132D01*
X0074739Y0145132D01*
X0074739Y0146132D01*
X0073739Y0146132D01*
X0073739Y0149887D01*
X0070892Y0149887D01*
X0070510Y0149785D01*
X0070168Y0149588D01*
X0069889Y0149309D01*
X0069691Y0148966D01*
X0069589Y0148585D01*
X0069589Y0146132D01*
X0073739Y0146132D01*
X0073739Y0145132D01*
X0069589Y0145132D01*
X0069589Y0142678D01*
X0069691Y0142297D01*
X0069889Y0141955D01*
X0070168Y0141675D01*
X0070510Y0141478D01*
X0070892Y0141376D01*
X0073739Y0141376D01*
X0073739Y0145132D01*
X0074739Y0145132D01*
X0074739Y0141376D01*
X0077586Y0141376D01*
X0077967Y0141478D01*
X0078309Y0141675D01*
X0078589Y0141955D01*
X0078786Y0142297D01*
X0078888Y0142678D01*
X0078836Y0142484D02*
X0111990Y0142484D01*
X0111990Y0141486D02*
X0077981Y0141486D01*
X0078888Y0144481D02*
X0086717Y0144481D01*
X0086412Y0145480D02*
X0074739Y0145480D01*
X0074739Y0146132D02*
X0078888Y0146132D01*
X0078888Y0148585D01*
X0078786Y0148966D01*
X0078589Y0149309D01*
X0078309Y0149588D01*
X0077967Y0149785D01*
X0077586Y0149887D01*
X0074739Y0149887D01*
X0074739Y0146132D01*
X0074739Y0146478D02*
X0073739Y0146478D01*
X0073739Y0145480D02*
X0067077Y0145480D01*
X0067077Y0146478D02*
X0069589Y0146478D01*
X0069589Y0147477D02*
X0067077Y0147477D01*
X0067077Y0148475D02*
X0069589Y0148475D01*
X0070054Y0149474D02*
X0066612Y0149474D01*
X0064633Y0150472D02*
X0086412Y0150472D01*
X0086412Y0149474D02*
X0078423Y0149474D01*
X0078888Y0148475D02*
X0086412Y0148475D01*
X0086412Y0147477D02*
X0078888Y0147477D01*
X0078888Y0146478D02*
X0086412Y0146478D01*
X0086412Y0151471D02*
X0064633Y0151471D01*
X0065442Y0152469D02*
X0067227Y0152469D01*
X0067109Y0153468D02*
X0065633Y0153468D01*
X0065633Y0154466D02*
X0067109Y0154466D01*
X0067109Y0155465D02*
X0065633Y0155465D01*
X0065633Y0156463D02*
X0072833Y0156463D01*
X0072833Y0155465D02*
X0073833Y0155465D01*
X0073833Y0156463D02*
X0113542Y0156463D01*
X0112475Y0155465D02*
X0079558Y0155465D01*
X0079558Y0154466D02*
X0111408Y0154466D01*
X0110341Y0153468D02*
X0079558Y0153468D01*
X0079439Y0152469D02*
X0086947Y0152469D01*
X0079558Y0157462D02*
X0114609Y0157462D01*
X0115676Y0158460D02*
X0079558Y0158460D01*
X0081989Y0159459D02*
X0116743Y0159459D01*
X0117809Y0160457D02*
X0082988Y0160457D01*
X0083986Y0161456D02*
X0118876Y0161456D01*
X0119943Y0162454D02*
X0084985Y0162454D01*
X0085983Y0163453D02*
X0121010Y0163453D01*
X0122077Y0164451D02*
X0086982Y0164451D01*
X0087980Y0165450D02*
X0123144Y0165450D01*
X0124211Y0166448D02*
X0088979Y0166448D01*
X0089977Y0167447D02*
X0125278Y0167447D01*
X0126319Y0168445D02*
X0090976Y0168445D01*
X0086313Y0172440D02*
X0078926Y0172440D01*
X0079558Y0171441D02*
X0085314Y0171441D01*
X0084316Y0170443D02*
X0079558Y0170443D01*
X0079558Y0169444D02*
X0083317Y0169444D01*
X0082319Y0168445D02*
X0079558Y0168445D01*
X0079558Y0167447D02*
X0081320Y0167447D01*
X0080322Y0166448D02*
X0079558Y0166448D01*
X0081740Y0174437D02*
X0086412Y0174437D01*
X0086412Y0175435D02*
X0082345Y0175435D01*
X0078680Y0177632D02*
X0078680Y0179978D01*
X0080333Y0181632D01*
X0092333Y0181632D01*
X0093818Y0180147D01*
X0093818Y0176903D01*
X0096333Y0176947D02*
X0096377Y0176903D01*
X0096377Y0172450D01*
X0096377Y0176903D01*
X0096377Y0176903D01*
X0096333Y0176947D02*
X0096333Y0180632D01*
X0093333Y0183632D01*
X0076333Y0183632D01*
X0071987Y0179285D01*
X0071987Y0177632D01*
X0071503Y0177432D02*
X0061287Y0177432D01*
X0061287Y0176434D02*
X0068322Y0176434D01*
X0068322Y0177147D02*
X0068322Y0175466D01*
X0068424Y0175084D01*
X0068621Y0174742D01*
X0068900Y0174463D01*
X0069243Y0174265D01*
X0069624Y0174163D01*
X0071503Y0174163D01*
X0071503Y0177147D01*
X0068322Y0177147D01*
X0068330Y0175435D02*
X0061287Y0175435D01*
X0061287Y0174437D02*
X0068946Y0174437D01*
X0067740Y0172440D02*
X0064797Y0172440D01*
X0065633Y0171441D02*
X0067109Y0171441D01*
X0071503Y0174437D02*
X0072471Y0174437D01*
X0072471Y0175435D02*
X0071503Y0175435D01*
X0071503Y0176434D02*
X0072471Y0176434D01*
X0072471Y0178431D02*
X0071503Y0178431D01*
X0071503Y0179429D02*
X0072471Y0179429D01*
X0072471Y0180428D02*
X0071503Y0180428D01*
X0069148Y0181426D02*
X0077299Y0181426D01*
X0078298Y0182425D02*
X0069301Y0182425D01*
X0070300Y0183423D02*
X0079296Y0183423D01*
X0078333Y0182460D02*
X0078333Y0182460D01*
X0069680Y0185632D02*
X0065680Y0181632D01*
X0066517Y0185297D02*
X0063090Y0185297D01*
X0062333Y0184540D01*
X0061577Y0185297D01*
X0060980Y0185297D01*
X0060980Y0187163D01*
X0061466Y0187163D01*
X0062345Y0188042D01*
X0062345Y0188332D01*
X0092381Y0188332D01*
X0093081Y0187632D01*
X0068851Y0187632D01*
X0066517Y0185297D01*
X0066640Y0185420D02*
X0060980Y0185420D01*
X0060980Y0186419D02*
X0067638Y0186419D01*
X0068637Y0187417D02*
X0061721Y0187417D01*
X0069680Y0185632D02*
X0094333Y0185632D01*
X0098936Y0181029D01*
X0098936Y0176903D01*
X0096377Y0176434D02*
X0096377Y0176434D01*
X0096377Y0175435D02*
X0096377Y0175435D01*
X0096377Y0174437D02*
X0096377Y0174437D01*
X0096377Y0173438D02*
X0096377Y0173438D01*
X0104054Y0173438D02*
X0104054Y0173438D01*
X0104054Y0172450D02*
X0104054Y0176903D01*
X0104054Y0176903D01*
X0104054Y0172450D01*
X0104054Y0174437D02*
X0104054Y0174437D01*
X0104054Y0175435D02*
X0104054Y0175435D01*
X0104054Y0176434D02*
X0104054Y0176434D01*
X0111272Y0181356D02*
X0111639Y0181356D01*
X0111272Y0181723D01*
X0111272Y0181356D01*
X0111272Y0181426D02*
X0111569Y0181426D01*
X0113515Y0185420D02*
X0160442Y0185420D01*
X0161440Y0184422D02*
X0125513Y0184422D01*
X0126512Y0183423D02*
X0162439Y0183423D01*
X0159443Y0186419D02*
X0112516Y0186419D01*
X0111518Y0187417D02*
X0157672Y0187417D01*
X0156385Y0188416D02*
X0110519Y0188416D01*
X0109521Y0189414D02*
X0155935Y0189414D01*
X0155858Y0190413D02*
X0108522Y0190413D01*
X0107523Y0191411D02*
X0156106Y0191411D01*
X0156798Y0192410D02*
X0106525Y0192410D01*
X0105526Y0193408D02*
X0157728Y0193408D01*
X0156730Y0194407D02*
X0104528Y0194407D01*
X0103529Y0195405D02*
X0155731Y0195405D01*
X0154733Y0196404D02*
X0102531Y0196404D01*
X0101532Y0197402D02*
X0153734Y0197402D01*
X0152736Y0198401D02*
X0100534Y0198401D01*
X0099535Y0199399D02*
X0151737Y0199399D01*
X0150739Y0200398D02*
X0098537Y0200398D01*
X0097538Y0201396D02*
X0149740Y0201396D01*
X0148742Y0202395D02*
X0081540Y0202395D01*
X0080541Y0203393D02*
X0147743Y0203393D01*
X0146745Y0204392D02*
X0079543Y0204392D01*
X0078544Y0205390D02*
X0145746Y0205390D01*
X0144748Y0206389D02*
X0077546Y0206389D01*
X0076547Y0207387D02*
X0143749Y0207387D01*
X0142751Y0208386D02*
X0075549Y0208386D01*
X0074550Y0209384D02*
X0141752Y0209384D01*
X0140754Y0210383D02*
X0073552Y0210383D01*
X0072553Y0211381D02*
X0139755Y0211381D01*
X0138756Y0212380D02*
X0071555Y0212380D01*
X0070556Y0213379D02*
X0137758Y0213379D01*
X0136759Y0214377D02*
X0069558Y0214377D01*
X0069326Y0215376D02*
X0115800Y0215376D01*
X0114802Y0216374D02*
X0068904Y0216374D01*
X0067686Y0217373D02*
X0113803Y0217373D01*
X0112805Y0218371D02*
X0065066Y0218371D01*
X0064981Y0217373D02*
X0063968Y0217373D01*
X0063762Y0216374D02*
X0062869Y0216374D01*
X0063340Y0215376D02*
X0061771Y0215376D01*
X0062901Y0214377D02*
X0063283Y0214377D01*
X0063325Y0213379D02*
X0063551Y0213379D01*
X0063555Y0212380D02*
X0064272Y0212380D01*
X0064553Y0211381D02*
X0066614Y0211381D01*
X0067612Y0210383D02*
X0065552Y0210383D01*
X0066550Y0209384D02*
X0068611Y0209384D01*
X0069609Y0208386D02*
X0067549Y0208386D01*
X0068547Y0207387D02*
X0070608Y0207387D01*
X0071606Y0206389D02*
X0069546Y0206389D01*
X0070544Y0205390D02*
X0072605Y0205390D01*
X0073603Y0204392D02*
X0071543Y0204392D01*
X0072541Y0203393D02*
X0074602Y0203393D01*
X0075600Y0202395D02*
X0073540Y0202395D01*
X0074538Y0201396D02*
X0076599Y0201396D01*
X0077597Y0200398D02*
X0075537Y0200398D01*
X0076535Y0199399D02*
X0078596Y0199399D01*
X0073591Y0196404D02*
X0073531Y0196404D01*
X0074203Y0195732D02*
X0063383Y0206551D01*
X0063383Y0206612D01*
X0074263Y0195732D01*
X0074203Y0195732D01*
X0072593Y0197402D02*
X0072532Y0197402D01*
X0071594Y0198401D02*
X0071534Y0198401D01*
X0070596Y0199399D02*
X0070535Y0199399D01*
X0069597Y0200398D02*
X0069537Y0200398D01*
X0068599Y0201396D02*
X0068538Y0201396D01*
X0067600Y0202395D02*
X0067540Y0202395D01*
X0066602Y0203393D02*
X0066541Y0203393D01*
X0065603Y0204392D02*
X0065543Y0204392D01*
X0064605Y0205390D02*
X0064544Y0205390D01*
X0063606Y0206389D02*
X0063546Y0206389D01*
X0059727Y0203582D02*
X0058606Y0204046D01*
X0057748Y0204904D01*
X0057633Y0205180D01*
X0057633Y0200584D01*
X0060980Y0197238D01*
X0060980Y0194100D01*
X0061466Y0194100D01*
X0062345Y0193221D01*
X0062345Y0192932D01*
X0071063Y0192932D01*
X0060413Y0203582D01*
X0059727Y0203582D01*
X0060602Y0203393D02*
X0057633Y0203393D01*
X0057633Y0202395D02*
X0061600Y0202395D01*
X0062599Y0201396D02*
X0057633Y0201396D01*
X0057820Y0200398D02*
X0063597Y0200398D01*
X0064596Y0199399D02*
X0058818Y0199399D01*
X0059817Y0198401D02*
X0065594Y0198401D01*
X0066593Y0197402D02*
X0060815Y0197402D01*
X0060980Y0196404D02*
X0067591Y0196404D01*
X0068590Y0195405D02*
X0060980Y0195405D01*
X0060980Y0194407D02*
X0069588Y0194407D01*
X0070587Y0193408D02*
X0062158Y0193408D01*
X0056380Y0194407D02*
X0020361Y0194407D01*
X0021360Y0195405D02*
X0056307Y0195405D01*
X0055308Y0196404D02*
X0022358Y0196404D01*
X0018848Y0199399D02*
X0008083Y0199399D01*
X0008083Y0198401D02*
X0017850Y0198401D01*
X0016851Y0197402D02*
X0008083Y0197402D01*
X0008083Y0196404D02*
X0015853Y0196404D01*
X0014854Y0195405D02*
X0008083Y0195405D01*
X0008083Y0194407D02*
X0013856Y0194407D01*
X0012857Y0193408D02*
X0008083Y0193408D01*
X0008083Y0192410D02*
X0011859Y0192410D01*
X0010860Y0191411D02*
X0008083Y0191411D01*
X0008083Y0190413D02*
X0009862Y0190413D01*
X0008863Y0189414D02*
X0008083Y0189414D01*
X0013372Y0187417D02*
X0048979Y0187417D01*
X0048900Y0187463D02*
X0049243Y0187265D01*
X0049624Y0187163D01*
X0051503Y0187163D01*
X0051503Y0190147D01*
X0048322Y0190147D01*
X0048322Y0188466D01*
X0048424Y0188084D01*
X0048621Y0187742D01*
X0048900Y0187463D01*
X0048335Y0188416D02*
X0014370Y0188416D01*
X0015369Y0189414D02*
X0048322Y0189414D01*
X0048322Y0191411D02*
X0017366Y0191411D01*
X0018364Y0192410D02*
X0048322Y0192410D01*
X0048556Y0193408D02*
X0019363Y0193408D01*
X0016367Y0190413D02*
X0051503Y0190413D01*
X0051503Y0191411D02*
X0052471Y0191411D01*
X0052471Y0192410D02*
X0051503Y0192410D01*
X0051503Y0193408D02*
X0052471Y0193408D01*
X0052471Y0189414D02*
X0051503Y0189414D01*
X0051503Y0188416D02*
X0052471Y0188416D01*
X0052471Y0187417D02*
X0051503Y0187417D01*
X0048747Y0185710D02*
X0047868Y0186588D01*
X0033633Y0186588D01*
X0032755Y0185710D01*
X0032755Y0176593D01*
X0033633Y0175714D01*
X0047868Y0175714D01*
X0048747Y0176593D01*
X0048747Y0185710D01*
X0048747Y0185420D02*
X0056380Y0185420D01*
X0056380Y0186419D02*
X0048038Y0186419D01*
X0048747Y0184422D02*
X0055522Y0184422D01*
X0055518Y0183423D02*
X0048747Y0183423D01*
X0048747Y0182425D02*
X0055518Y0182425D01*
X0055518Y0181426D02*
X0048747Y0181426D01*
X0048747Y0180428D02*
X0055518Y0180428D01*
X0055518Y0179429D02*
X0048747Y0179429D01*
X0048747Y0178431D02*
X0055933Y0178431D01*
X0056687Y0177432D02*
X0048747Y0177432D01*
X0048587Y0176434D02*
X0056687Y0176434D01*
X0056687Y0175435D02*
X0011633Y0175435D01*
X0011633Y0174437D02*
X0056687Y0174437D01*
X0056687Y0173438D02*
X0011633Y0173438D01*
X0011633Y0172440D02*
X0056687Y0172440D01*
X0056687Y0171441D02*
X0048659Y0171441D01*
X0048747Y0170443D02*
X0057220Y0170443D01*
X0058218Y0169444D02*
X0048747Y0169444D01*
X0048747Y0169931D02*
X0041144Y0169931D01*
X0048747Y0169931D01*
X0048688Y0168445D02*
X0059033Y0168445D01*
X0059033Y0167447D02*
X0048747Y0167447D01*
X0048747Y0166448D02*
X0059033Y0166448D01*
X0059144Y0165450D02*
X0051343Y0165450D01*
X0041144Y0169931D02*
X0041144Y0169931D01*
X0041144Y0170443D02*
X0041144Y0170443D01*
X0041144Y0171441D02*
X0041144Y0171441D01*
X0033630Y0171441D02*
X0011633Y0171441D01*
X0011633Y0170443D02*
X0033542Y0170443D01*
X0033542Y0169444D02*
X0011633Y0169444D01*
X0011633Y0168445D02*
X0033601Y0168445D01*
X0033542Y0167447D02*
X0011633Y0167447D01*
X0011633Y0166448D02*
X0033542Y0166448D01*
X0033542Y0165450D02*
X0011633Y0165450D01*
X0011633Y0164451D02*
X0033542Y0164451D01*
X0033542Y0163453D02*
X0011633Y0163453D01*
X0011633Y0162454D02*
X0033542Y0162454D01*
X0033542Y0161456D02*
X0011633Y0161456D01*
X0011633Y0160457D02*
X0033542Y0160457D01*
X0033542Y0159459D02*
X0011633Y0159459D01*
X0011633Y0158460D02*
X0033542Y0158460D01*
X0033542Y0157462D02*
X0011633Y0157462D01*
X0011633Y0156463D02*
X0033542Y0156463D01*
X0033804Y0155465D02*
X0011633Y0155465D01*
X0011633Y0154466D02*
X0059033Y0154466D01*
X0059033Y0153468D02*
X0011633Y0153468D01*
X0011633Y0152469D02*
X0059224Y0152469D01*
X0060033Y0151471D02*
X0047946Y0151471D01*
X0047868Y0151549D02*
X0033633Y0151549D01*
X0032755Y0150670D01*
X0032755Y0141554D01*
X0033633Y0140675D01*
X0047868Y0140675D01*
X0048747Y0141554D01*
X0048747Y0150670D01*
X0047868Y0151549D01*
X0048747Y0150472D02*
X0060033Y0150472D01*
X0058243Y0149474D02*
X0048747Y0149474D01*
X0048747Y0148475D02*
X0057778Y0148475D01*
X0057778Y0147477D02*
X0048747Y0147477D01*
X0048747Y0146478D02*
X0057778Y0146478D01*
X0057778Y0145480D02*
X0048747Y0145480D01*
X0048747Y0144481D02*
X0057778Y0144481D01*
X0057778Y0143483D02*
X0048747Y0143483D01*
X0048747Y0142484D02*
X0057778Y0142484D01*
X0058547Y0141486D02*
X0048679Y0141486D01*
X0032822Y0141486D02*
X0023876Y0141486D01*
X0023944Y0142484D02*
X0032755Y0142484D01*
X0032755Y0143483D02*
X0023944Y0143483D01*
X0023944Y0144481D02*
X0032755Y0144481D01*
X0032755Y0145480D02*
X0023944Y0145480D01*
X0023944Y0146478D02*
X0032755Y0146478D01*
X0032755Y0147477D02*
X0023944Y0147477D01*
X0023944Y0148475D02*
X0032755Y0148475D01*
X0032755Y0149474D02*
X0023944Y0149474D01*
X0023944Y0150472D02*
X0032755Y0150472D01*
X0033555Y0151471D02*
X0023143Y0151471D01*
X0011902Y0151471D02*
X0011633Y0151471D01*
X0011633Y0140487D02*
X0111990Y0140487D01*
X0111990Y0139489D02*
X0011633Y0139489D01*
X0011633Y0138490D02*
X0111939Y0138490D01*
X0110941Y0137492D02*
X0011633Y0137492D01*
X0011633Y0136493D02*
X0109942Y0136493D01*
X0108944Y0135495D02*
X0011633Y0135495D01*
X0011633Y0134496D02*
X0107945Y0134496D01*
X0106947Y0133498D02*
X0011633Y0133498D01*
X0011633Y0132499D02*
X0105948Y0132499D01*
X0104950Y0131501D02*
X0011633Y0131501D01*
X0011633Y0130502D02*
X0103951Y0130502D01*
X0102953Y0129504D02*
X0011633Y0129504D01*
X0011633Y0128505D02*
X0101954Y0128505D01*
X0100956Y0127507D02*
X0011633Y0127507D01*
X0011633Y0126508D02*
X0099308Y0126508D01*
X0102333Y0120632D02*
X0124333Y0142632D01*
X0121560Y0143907D02*
X0121283Y0143238D01*
X0121283Y0142410D01*
X0116590Y0137717D01*
X0116590Y0143907D01*
X0118258Y0143907D01*
X0121560Y0143907D01*
X0121385Y0143483D02*
X0116590Y0143483D01*
X0116590Y0142484D02*
X0121283Y0142484D01*
X0120359Y0141486D02*
X0116590Y0141486D01*
X0116590Y0140487D02*
X0119361Y0140487D01*
X0118362Y0139489D02*
X0116590Y0139489D01*
X0116590Y0138490D02*
X0117363Y0138490D01*
X0127282Y0143483D02*
X0127356Y0143483D01*
X0126797Y0144481D02*
X0128355Y0144481D01*
X0129283Y0145480D02*
X0125427Y0145480D01*
X0124255Y0146478D02*
X0129383Y0146478D01*
X0129865Y0147477D02*
X0124255Y0147477D01*
X0125005Y0148475D02*
X0131229Y0148475D01*
X0133438Y0148475D02*
X0142349Y0148475D01*
X0143347Y0149474D02*
X0126004Y0149474D01*
X0127002Y0150472D02*
X0144346Y0150472D01*
X0145344Y0151471D02*
X0128001Y0151471D01*
X0128999Y0152469D02*
X0146343Y0152469D01*
X0147341Y0153468D02*
X0129998Y0153468D01*
X0130997Y0154466D02*
X0148340Y0154466D01*
X0149333Y0152632D02*
X0197333Y0152632D01*
X0195179Y0150472D02*
X0150002Y0150472D01*
X0149004Y0149474D02*
X0204663Y0149474D01*
X0205661Y0148475D02*
X0148005Y0148475D01*
X0147007Y0147477D02*
X0206660Y0147477D01*
X0207833Y0149132D02*
X0308233Y0149132D01*
X0313001Y0146478D02*
X0327665Y0146478D01*
X0326933Y0147477D02*
X0313733Y0147477D01*
X0315147Y0148475D02*
X0326933Y0148475D01*
X0326933Y0149474D02*
X0316145Y0149474D01*
X0317144Y0150472D02*
X0326933Y0150472D01*
X0327351Y0151471D02*
X0318142Y0151471D01*
X0319141Y0152469D02*
X0326933Y0152469D01*
X0326933Y0153468D02*
X0320139Y0153468D01*
X0321138Y0154466D02*
X0326933Y0154466D01*
X0326933Y0155465D02*
X0322136Y0155465D01*
X0323008Y0156463D02*
X0327344Y0156463D01*
X0326933Y0157462D02*
X0323008Y0157462D01*
X0323008Y0158460D02*
X0326933Y0158460D01*
X0326933Y0159459D02*
X0323008Y0159459D01*
X0323008Y0160457D02*
X0326933Y0160457D01*
X0327336Y0161456D02*
X0323008Y0161456D01*
X0323008Y0162454D02*
X0326933Y0162454D01*
X0326933Y0163453D02*
X0323008Y0163453D01*
X0323008Y0164451D02*
X0326933Y0164451D01*
X0326933Y0165450D02*
X0323008Y0165450D01*
X0323008Y0166448D02*
X0327329Y0166448D01*
X0326933Y0167447D02*
X0323008Y0167447D01*
X0323008Y0168445D02*
X0326933Y0168445D01*
X0326933Y0169444D02*
X0323008Y0169444D01*
X0323008Y0170443D02*
X0326933Y0170443D01*
X0327321Y0171441D02*
X0323008Y0171441D01*
X0323008Y0172440D02*
X0326933Y0172440D01*
X0326933Y0173438D02*
X0323008Y0173438D01*
X0323008Y0174437D02*
X0326933Y0174437D01*
X0326933Y0175435D02*
X0323008Y0175435D01*
X0323008Y0176434D02*
X0327314Y0176434D01*
X0326933Y0177432D02*
X0323008Y0177432D01*
X0323008Y0178431D02*
X0326933Y0178431D01*
X0326933Y0179429D02*
X0323008Y0179429D01*
X0323008Y0180428D02*
X0326933Y0180428D01*
X0327307Y0181426D02*
X0323008Y0181426D01*
X0323008Y0182425D02*
X0326933Y0182425D01*
X0326933Y0183423D02*
X0323008Y0183423D01*
X0323008Y0184422D02*
X0326933Y0184422D01*
X0326933Y0185420D02*
X0323008Y0185420D01*
X0323008Y0186419D02*
X0327299Y0186419D01*
X0325860Y0190413D02*
X0396284Y0190413D01*
X0396284Y0191411D02*
X0326558Y0191411D01*
X0326558Y0192410D02*
X0396284Y0192410D01*
X0396284Y0193408D02*
X0326558Y0193408D01*
X0326558Y0194407D02*
X0396284Y0194407D01*
X0396284Y0195405D02*
X0326558Y0195405D01*
X0325707Y0196404D02*
X0396284Y0196404D01*
X0396284Y0197402D02*
X0326250Y0197402D01*
X0326558Y0197710D02*
X0326558Y0202153D01*
X0325679Y0203032D01*
X0322436Y0203032D01*
X0322366Y0202962D01*
X0322106Y0203032D01*
X0320908Y0203032D01*
X0319711Y0203032D01*
X0319333Y0202930D01*
X0318956Y0203032D01*
X0317759Y0203032D01*
X0317759Y0199932D01*
X0320908Y0199932D01*
X0320908Y0203032D01*
X0320908Y0199932D01*
X0320908Y0199932D01*
X0320908Y0199932D01*
X0318408Y0199932D01*
X0317759Y0199932D01*
X0317759Y0199932D01*
X0317758Y0199932D01*
X0317758Y0199932D01*
X0314609Y0199932D01*
X0314609Y0199932D01*
X0314609Y0203032D01*
X0315806Y0203032D01*
X0316184Y0202930D01*
X0316561Y0203032D01*
X0317758Y0203032D01*
X0317758Y0199932D01*
X0315259Y0199932D01*
X0314609Y0199932D01*
X0314609Y0203032D01*
X0313411Y0203032D01*
X0313030Y0202929D01*
X0312688Y0202732D01*
X0312409Y0202453D01*
X0312211Y0202111D01*
X0312109Y0201729D01*
X0312109Y0199932D01*
X0314609Y0199932D01*
X0314609Y0199932D01*
X0314609Y0199932D01*
X0312109Y0199932D01*
X0312109Y0198134D01*
X0312211Y0197753D01*
X0312409Y0197411D01*
X0312688Y0197131D01*
X0313030Y0196934D01*
X0313411Y0196832D01*
X0314609Y0196832D01*
X0315806Y0196832D01*
X0316184Y0196933D01*
X0316561Y0196832D01*
X0317758Y0196832D01*
X0317758Y0199931D01*
X0317759Y0199931D01*
X0317759Y0196832D01*
X0318956Y0196832D01*
X0319333Y0196933D01*
X0319711Y0196832D01*
X0320908Y0196832D01*
X0320908Y0199931D01*
X0320908Y0199931D01*
X0320908Y0196832D01*
X0322106Y0196832D01*
X0322366Y0196902D01*
X0322436Y0196832D01*
X0325679Y0196832D01*
X0326558Y0197710D01*
X0326558Y0198401D02*
X0396284Y0198401D01*
X0396284Y0199399D02*
X0326558Y0199399D01*
X0326558Y0200398D02*
X0396284Y0200398D01*
X0396284Y0201396D02*
X0326558Y0201396D01*
X0326316Y0202395D02*
X0396284Y0202395D01*
X0396284Y0203393D02*
X0280633Y0203393D01*
X0280633Y0202395D02*
X0312375Y0202395D01*
X0312109Y0201396D02*
X0280633Y0201396D01*
X0280633Y0200398D02*
X0312109Y0200398D01*
X0312109Y0199399D02*
X0280633Y0199399D01*
X0280633Y0198401D02*
X0312109Y0198401D01*
X0312417Y0197402D02*
X0280633Y0197402D01*
X0280633Y0196404D02*
X0312960Y0196404D01*
X0312109Y0195405D02*
X0280633Y0195405D01*
X0280633Y0194407D02*
X0312109Y0194407D01*
X0312109Y0193408D02*
X0280633Y0193408D01*
X0280633Y0192410D02*
X0312109Y0192410D01*
X0312109Y0191411D02*
X0280633Y0191411D01*
X0280633Y0190413D02*
X0312509Y0190413D01*
X0312509Y0189414D02*
X0280633Y0189414D01*
X0280633Y0188416D02*
X0312509Y0188416D01*
X0312509Y0187417D02*
X0280633Y0187417D01*
X0280633Y0186419D02*
X0303099Y0186419D01*
X0302733Y0185420D02*
X0280633Y0185420D01*
X0280633Y0184422D02*
X0302733Y0184422D01*
X0302733Y0183423D02*
X0280633Y0183423D01*
X0280633Y0182425D02*
X0302789Y0182425D01*
X0303107Y0181426D02*
X0280633Y0181426D01*
X0280633Y0180428D02*
X0302733Y0180428D01*
X0302733Y0179429D02*
X0280633Y0179429D01*
X0280633Y0178431D02*
X0302733Y0178431D01*
X0302787Y0177432D02*
X0280633Y0177432D01*
X0280633Y0176434D02*
X0303114Y0176434D01*
X0302733Y0175435D02*
X0280633Y0175435D01*
X0280633Y0174437D02*
X0302733Y0174437D01*
X0302733Y0173438D02*
X0280392Y0173438D01*
X0279394Y0172440D02*
X0302785Y0172440D01*
X0303121Y0171441D02*
X0278395Y0171441D01*
X0277397Y0170443D02*
X0302733Y0170443D01*
X0302733Y0169444D02*
X0276398Y0169444D01*
X0275400Y0168445D02*
X0302733Y0168445D01*
X0302783Y0167447D02*
X0274401Y0167447D01*
X0273403Y0166448D02*
X0303129Y0166448D01*
X0302733Y0165450D02*
X0272404Y0165450D01*
X0269375Y0164451D02*
X0302733Y0164451D01*
X0302733Y0163453D02*
X0205340Y0163453D01*
X0204342Y0164451D02*
X0221292Y0164451D01*
X0226033Y0167132D02*
X0203833Y0167132D01*
X0196759Y0174206D01*
X0196759Y0178332D01*
X0199908Y0178332D02*
X0199908Y0175057D01*
X0202833Y0172132D01*
X0226033Y0172132D01*
X0231533Y0172440D02*
X0234283Y0172440D01*
X0234318Y0171441D02*
X0231533Y0171441D01*
X0231533Y0170443D02*
X0234732Y0170443D01*
X0235852Y0169444D02*
X0231142Y0169444D01*
X0231533Y0168445D02*
X0259133Y0168445D01*
X0259133Y0167447D02*
X0231533Y0167447D01*
X0231533Y0166448D02*
X0259133Y0166448D01*
X0259133Y0165450D02*
X0231533Y0165450D01*
X0230775Y0164451D02*
X0259892Y0164451D01*
X0259524Y0169444D02*
X0238815Y0169444D01*
X0237333Y0172132D02*
X0264633Y0172132D01*
X0270133Y0172440D02*
X0272889Y0172440D01*
X0273887Y0173438D02*
X0270133Y0173438D01*
X0270133Y0174053D02*
X0269555Y0174632D01*
X0270133Y0175210D01*
X0270133Y0179053D01*
X0269555Y0179632D01*
X0270133Y0180210D01*
X0270133Y0184053D01*
X0269555Y0184632D01*
X0270055Y0185132D01*
X0270662Y0185132D01*
X0276033Y0190503D01*
X0276033Y0175584D01*
X0269881Y0169432D01*
X0269755Y0169432D01*
X0269555Y0169632D01*
X0270133Y0170210D01*
X0270133Y0174053D01*
X0269750Y0174437D02*
X0274886Y0174437D01*
X0275884Y0175435D02*
X0270133Y0175435D01*
X0270133Y0176434D02*
X0276033Y0176434D01*
X0276033Y0177432D02*
X0270133Y0177432D01*
X0270133Y0178431D02*
X0276033Y0178431D01*
X0276033Y0179429D02*
X0269757Y0179429D01*
X0270133Y0180428D02*
X0276033Y0180428D01*
X0276033Y0181426D02*
X0270133Y0181426D01*
X0270133Y0182425D02*
X0276033Y0182425D01*
X0276033Y0183423D02*
X0270133Y0183423D01*
X0269765Y0184422D02*
X0276033Y0184422D01*
X0276033Y0185420D02*
X0270950Y0185420D01*
X0271949Y0186419D02*
X0276033Y0186419D01*
X0276033Y0187417D02*
X0272947Y0187417D01*
X0273946Y0188416D02*
X0276033Y0188416D01*
X0276033Y0189414D02*
X0274944Y0189414D01*
X0275943Y0190413D02*
X0276033Y0190413D01*
X0275333Y0192632D02*
X0269833Y0187132D01*
X0264633Y0187132D01*
X0264633Y0192132D02*
X0269833Y0192132D01*
X0273333Y0195632D01*
X0273333Y0206632D01*
X0264333Y0215632D01*
X0208333Y0215632D01*
X0194349Y0229616D01*
X0194349Y0229655D01*
X0198725Y0228069D02*
X0198999Y0228730D01*
X0198999Y0236879D01*
X0198291Y0238588D01*
X0198247Y0238632D01*
X0200451Y0238632D01*
X0200407Y0238588D01*
X0199699Y0236879D01*
X0199699Y0228730D01*
X0200407Y0227021D01*
X0201715Y0225713D01*
X0203424Y0225006D01*
X0205274Y0225006D01*
X0205908Y0225268D01*
X0208544Y0222632D01*
X0251163Y0222632D01*
X0250975Y0222506D01*
X0250459Y0221990D01*
X0250054Y0221384D01*
X0249776Y0220711D01*
X0249633Y0219996D01*
X0249633Y0219732D01*
X0253233Y0219732D01*
X0253233Y0219532D01*
X0249633Y0219532D01*
X0249633Y0219267D01*
X0249776Y0218552D01*
X0250054Y0217879D01*
X0250220Y0217632D01*
X0209162Y0217632D01*
X0198725Y0228069D01*
X0198844Y0228356D02*
X0199854Y0228356D01*
X0199699Y0229355D02*
X0198999Y0229355D01*
X0198999Y0230353D02*
X0199699Y0230353D01*
X0199699Y0231352D02*
X0198999Y0231352D01*
X0198999Y0232350D02*
X0199699Y0232350D01*
X0199699Y0233349D02*
X0198999Y0233349D01*
X0198999Y0234347D02*
X0199699Y0234347D01*
X0199699Y0235346D02*
X0198999Y0235346D01*
X0198999Y0236344D02*
X0199699Y0236344D01*
X0199891Y0237343D02*
X0198807Y0237343D01*
X0198393Y0238341D02*
X0200305Y0238341D01*
X0208247Y0238632D02*
X0210451Y0238632D01*
X0210407Y0238588D01*
X0209699Y0236879D01*
X0209699Y0228730D01*
X0210407Y0227021D01*
X0210797Y0226632D01*
X0210201Y0226632D01*
X0208736Y0228097D01*
X0208999Y0228730D01*
X0208999Y0236879D01*
X0208291Y0238588D01*
X0208247Y0238632D01*
X0208393Y0238341D02*
X0210305Y0238341D01*
X0209891Y0237343D02*
X0208807Y0237343D01*
X0208999Y0236344D02*
X0209699Y0236344D01*
X0209699Y0235346D02*
X0208999Y0235346D01*
X0208999Y0234347D02*
X0209699Y0234347D01*
X0209699Y0233349D02*
X0208999Y0233349D01*
X0208999Y0232350D02*
X0209699Y0232350D01*
X0209699Y0231352D02*
X0208999Y0231352D01*
X0208999Y0230353D02*
X0209699Y0230353D01*
X0209699Y0229355D02*
X0208999Y0229355D01*
X0208844Y0228356D02*
X0209854Y0228356D01*
X0209475Y0227358D02*
X0210268Y0227358D01*
X0209373Y0224632D02*
X0204349Y0229655D01*
X0200268Y0227358D02*
X0199436Y0227358D01*
X0200434Y0226359D02*
X0201070Y0226359D01*
X0201433Y0225361D02*
X0202567Y0225361D01*
X0202431Y0224362D02*
X0206814Y0224362D01*
X0207812Y0223364D02*
X0203430Y0223364D01*
X0204428Y0222365D02*
X0250834Y0222365D01*
X0250047Y0221367D02*
X0205427Y0221367D01*
X0206425Y0220368D02*
X0249707Y0220368D01*
X0249633Y0219370D02*
X0207424Y0219370D01*
X0208422Y0218371D02*
X0249851Y0218371D01*
X0253433Y0219532D02*
X0253433Y0219732D01*
X0257033Y0219732D01*
X0257033Y0219996D01*
X0256891Y0220711D01*
X0256612Y0221384D01*
X0256207Y0221990D01*
X0255692Y0222506D01*
X0255503Y0222632D01*
X0257505Y0222632D01*
X0262505Y0217632D01*
X0256447Y0217632D01*
X0256612Y0217879D01*
X0256891Y0218552D01*
X0257033Y0219267D01*
X0257033Y0219532D01*
X0253433Y0219532D01*
X0256816Y0218371D02*
X0261765Y0218371D01*
X0260767Y0219370D02*
X0257033Y0219370D01*
X0256959Y0220368D02*
X0259768Y0220368D01*
X0258770Y0221367D02*
X0256620Y0221367D01*
X0255832Y0222365D02*
X0257771Y0222365D01*
X0258333Y0224632D02*
X0209373Y0224632D01*
X0214333Y0229671D02*
X0214349Y0229655D01*
X0214333Y0229671D02*
X0214333Y0237632D01*
X0211333Y0240632D01*
X0171333Y0240632D01*
X0169333Y0238632D01*
X0169333Y0217962D01*
X0165865Y0218371D02*
X0144422Y0218371D01*
X0143424Y0219370D02*
X0165865Y0219370D01*
X0165865Y0220368D02*
X0142425Y0220368D01*
X0141427Y0221367D02*
X0165892Y0221367D01*
X0167333Y0222365D02*
X0140428Y0222365D01*
X0139333Y0220632D02*
X0133333Y0220632D01*
X0124349Y0229616D01*
X0124349Y0229655D01*
X0119699Y0229355D02*
X0118999Y0229355D01*
X0118999Y0230353D02*
X0119699Y0230353D01*
X0119699Y0231352D02*
X0118999Y0231352D01*
X0118999Y0232350D02*
X0119699Y0232350D01*
X0119699Y0233349D02*
X0118999Y0233349D01*
X0118999Y0234347D02*
X0119699Y0234347D01*
X0119699Y0235346D02*
X0118999Y0235346D01*
X0118999Y0236344D02*
X0119699Y0236344D01*
X0119891Y0237343D02*
X0118807Y0237343D01*
X0118393Y0238341D02*
X0120305Y0238341D01*
X0121159Y0239340D02*
X0117539Y0239340D01*
X0115915Y0240338D02*
X0122783Y0240338D01*
X0125915Y0240338D02*
X0132783Y0240338D01*
X0133424Y0240604D02*
X0131715Y0239896D01*
X0130407Y0238588D01*
X0129699Y0236879D01*
X0129699Y0228730D01*
X0130407Y0227021D01*
X0131715Y0225713D01*
X0133424Y0225006D01*
X0135274Y0225006D01*
X0136983Y0225713D01*
X0138291Y0227021D01*
X0138999Y0228730D01*
X0138999Y0236879D01*
X0138291Y0238588D01*
X0136983Y0239896D01*
X0135274Y0240604D01*
X0133424Y0240604D01*
X0135915Y0240338D02*
X0142783Y0240338D01*
X0143424Y0240604D02*
X0141715Y0239896D01*
X0140407Y0238588D01*
X0139699Y0236879D01*
X0139699Y0228730D01*
X0140407Y0227021D01*
X0141715Y0225713D01*
X0143424Y0225006D01*
X0145274Y0225006D01*
X0146983Y0225713D01*
X0148291Y0227021D01*
X0148999Y0228730D01*
X0148999Y0236879D01*
X0148291Y0238588D01*
X0146983Y0239896D01*
X0145274Y0240604D01*
X0143424Y0240604D01*
X0145915Y0240338D02*
X0152783Y0240338D01*
X0153424Y0240604D02*
X0151715Y0239896D01*
X0150407Y0238588D01*
X0149699Y0236879D01*
X0149699Y0228730D01*
X0150407Y0227021D01*
X0151715Y0225713D01*
X0153424Y0225006D01*
X0155274Y0225006D01*
X0156983Y0225713D01*
X0158291Y0227021D01*
X0158999Y0228730D01*
X0158999Y0236879D01*
X0158291Y0238588D01*
X0156983Y0239896D01*
X0155274Y0240604D01*
X0153424Y0240604D01*
X0155915Y0240338D02*
X0162783Y0240338D01*
X0161159Y0239340D02*
X0157539Y0239340D01*
X0158393Y0238341D02*
X0160305Y0238341D01*
X0159891Y0237343D02*
X0158807Y0237343D01*
X0158999Y0236344D02*
X0159699Y0236344D01*
X0159699Y0235346D02*
X0158999Y0235346D01*
X0158999Y0234347D02*
X0159699Y0234347D01*
X0159699Y0233349D02*
X0158999Y0233349D01*
X0158999Y0232350D02*
X0159699Y0232350D01*
X0159699Y0231352D02*
X0158999Y0231352D01*
X0158999Y0230353D02*
X0159699Y0230353D01*
X0159699Y0229355D02*
X0158999Y0229355D01*
X0158844Y0228356D02*
X0159854Y0228356D01*
X0160268Y0227358D02*
X0158430Y0227358D01*
X0157629Y0226359D02*
X0161070Y0226359D01*
X0162567Y0225361D02*
X0156131Y0225361D01*
X0152567Y0225361D02*
X0146131Y0225361D01*
X0147629Y0226359D02*
X0151070Y0226359D01*
X0150268Y0227358D02*
X0148430Y0227358D01*
X0148844Y0228356D02*
X0149854Y0228356D01*
X0149699Y0229355D02*
X0148999Y0229355D01*
X0148999Y0230353D02*
X0149699Y0230353D01*
X0149699Y0231352D02*
X0148999Y0231352D01*
X0148999Y0232350D02*
X0149699Y0232350D01*
X0149699Y0233349D02*
X0148999Y0233349D01*
X0148999Y0234347D02*
X0149699Y0234347D01*
X0149699Y0235346D02*
X0148999Y0235346D01*
X0148999Y0236344D02*
X0149699Y0236344D01*
X0149891Y0237343D02*
X0148807Y0237343D01*
X0148393Y0238341D02*
X0150305Y0238341D01*
X0151159Y0239340D02*
X0147539Y0239340D01*
X0141159Y0239340D02*
X0137539Y0239340D01*
X0138393Y0238341D02*
X0140305Y0238341D01*
X0139891Y0237343D02*
X0138807Y0237343D01*
X0138999Y0236344D02*
X0139699Y0236344D01*
X0139699Y0235346D02*
X0138999Y0235346D01*
X0138999Y0234347D02*
X0139699Y0234347D01*
X0139699Y0233349D02*
X0138999Y0233349D01*
X0138999Y0232350D02*
X0139699Y0232350D01*
X0139699Y0231352D02*
X0138999Y0231352D01*
X0138999Y0230353D02*
X0139699Y0230353D01*
X0139699Y0229355D02*
X0138999Y0229355D01*
X0138844Y0228356D02*
X0139854Y0228356D01*
X0140268Y0227358D02*
X0138430Y0227358D01*
X0137629Y0226359D02*
X0141070Y0226359D01*
X0142567Y0225361D02*
X0136131Y0225361D01*
X0133430Y0223364D02*
X0167333Y0223364D01*
X0167333Y0224362D02*
X0132431Y0224362D01*
X0132567Y0225361D02*
X0131433Y0225361D01*
X0131070Y0226359D02*
X0130434Y0226359D01*
X0130268Y0227358D02*
X0129436Y0227358D01*
X0129854Y0228356D02*
X0128844Y0228356D01*
X0128999Y0229355D02*
X0129699Y0229355D01*
X0129699Y0230353D02*
X0128999Y0230353D01*
X0128999Y0231352D02*
X0129699Y0231352D01*
X0129699Y0232350D02*
X0128999Y0232350D01*
X0128999Y0233349D02*
X0129699Y0233349D01*
X0129699Y0234347D02*
X0128999Y0234347D01*
X0128999Y0235346D02*
X0129699Y0235346D01*
X0129699Y0236344D02*
X0128999Y0236344D01*
X0128807Y0237343D02*
X0129891Y0237343D01*
X0130305Y0238341D02*
X0128393Y0238341D01*
X0127539Y0239340D02*
X0131159Y0239340D01*
X0119854Y0228356D02*
X0118844Y0228356D01*
X0119436Y0227358D02*
X0120268Y0227358D01*
X0120434Y0226359D02*
X0121070Y0226359D01*
X0121433Y0225361D02*
X0122567Y0225361D01*
X0122431Y0224362D02*
X0126774Y0224362D01*
X0127773Y0223364D02*
X0123430Y0223364D01*
X0124428Y0222365D02*
X0128771Y0222365D01*
X0129770Y0221367D02*
X0125427Y0221367D01*
X0125333Y0218632D02*
X0138333Y0218632D01*
X0166333Y0190632D01*
X0205333Y0190632D01*
X0208833Y0187132D01*
X0226033Y0187132D01*
X0231533Y0187417D02*
X0259133Y0187417D01*
X0259133Y0186419D02*
X0231533Y0186419D01*
X0231533Y0185420D02*
X0259133Y0185420D01*
X0259502Y0184422D02*
X0231165Y0184422D01*
X0231533Y0183423D02*
X0259133Y0183423D01*
X0259133Y0182425D02*
X0231533Y0182425D01*
X0231533Y0181426D02*
X0259133Y0181426D01*
X0259133Y0180428D02*
X0231533Y0180428D01*
X0231157Y0179429D02*
X0235318Y0179429D01*
X0234570Y0178431D02*
X0231533Y0178431D01*
X0231533Y0177432D02*
X0234283Y0177432D01*
X0234321Y0176434D02*
X0231533Y0176434D01*
X0231533Y0175435D02*
X0234735Y0175435D01*
X0235325Y0174437D02*
X0231150Y0174437D01*
X0231533Y0173438D02*
X0234573Y0173438D01*
X0237333Y0177132D02*
X0264633Y0177132D01*
X0259712Y0174632D02*
X0259212Y0174132D01*
X0239647Y0174132D01*
X0239147Y0174632D01*
X0239647Y0175132D01*
X0259212Y0175132D01*
X0259712Y0174632D01*
X0259517Y0174437D02*
X0239342Y0174437D01*
X0239349Y0179429D02*
X0259510Y0179429D01*
X0259133Y0188416D02*
X0231533Y0188416D01*
X0231172Y0189414D02*
X0259495Y0189414D01*
X0259133Y0190413D02*
X0231533Y0190413D01*
X0231533Y0191411D02*
X0259133Y0191411D01*
X0259133Y0192410D02*
X0231533Y0192410D01*
X0231533Y0193408D02*
X0259133Y0193408D01*
X0259487Y0194407D02*
X0231179Y0194407D01*
X0231935Y0195405D02*
X0259133Y0195405D01*
X0259133Y0196404D02*
X0232934Y0196404D01*
X0233932Y0197402D02*
X0259133Y0197402D01*
X0259133Y0198401D02*
X0234931Y0198401D01*
X0235333Y0199399D02*
X0259480Y0199399D01*
X0259212Y0204132D02*
X0240462Y0204132D01*
X0232962Y0211632D01*
X0262505Y0211632D01*
X0269205Y0204932D01*
X0260012Y0204932D01*
X0259212Y0204132D01*
X0259472Y0204392D02*
X0240201Y0204392D01*
X0239203Y0205390D02*
X0268746Y0205390D01*
X0267748Y0206389D02*
X0238204Y0206389D01*
X0237206Y0207387D02*
X0266749Y0207387D01*
X0265751Y0208386D02*
X0236207Y0208386D01*
X0235209Y0209384D02*
X0264752Y0209384D01*
X0263754Y0210383D02*
X0234210Y0210383D01*
X0233212Y0211381D02*
X0262755Y0211381D01*
X0263333Y0213632D02*
X0200373Y0213632D01*
X0184349Y0229655D01*
X0188736Y0228097D02*
X0188999Y0228730D01*
X0188999Y0236879D01*
X0188291Y0238588D01*
X0188247Y0238632D01*
X0190451Y0238632D01*
X0190407Y0238588D01*
X0189699Y0236879D01*
X0189699Y0228730D01*
X0190407Y0227021D01*
X0191715Y0225713D01*
X0193424Y0225006D01*
X0195274Y0225006D01*
X0195880Y0225257D01*
X0205505Y0215632D01*
X0201201Y0215632D01*
X0188736Y0228097D01*
X0188844Y0228356D02*
X0189854Y0228356D01*
X0189699Y0229355D02*
X0188999Y0229355D01*
X0188999Y0230353D02*
X0189699Y0230353D01*
X0189699Y0231352D02*
X0188999Y0231352D01*
X0188999Y0232350D02*
X0189699Y0232350D01*
X0189699Y0233349D02*
X0188999Y0233349D01*
X0188999Y0234347D02*
X0189699Y0234347D01*
X0189699Y0235346D02*
X0188999Y0235346D01*
X0188999Y0236344D02*
X0189699Y0236344D01*
X0189891Y0237343D02*
X0188807Y0237343D01*
X0188393Y0238341D02*
X0190305Y0238341D01*
X0180451Y0238632D02*
X0180407Y0238588D01*
X0179699Y0236879D01*
X0179699Y0228730D01*
X0180407Y0227021D01*
X0181715Y0225713D01*
X0183424Y0225006D01*
X0185274Y0225006D01*
X0185908Y0225268D01*
X0197544Y0213632D01*
X0193162Y0213632D01*
X0178725Y0228069D01*
X0178999Y0228730D01*
X0178999Y0236879D01*
X0178291Y0238588D01*
X0178247Y0238632D01*
X0180451Y0238632D01*
X0180305Y0238341D02*
X0178393Y0238341D01*
X0178807Y0237343D02*
X0179891Y0237343D01*
X0179699Y0236344D02*
X0178999Y0236344D01*
X0178999Y0235346D02*
X0179699Y0235346D01*
X0179699Y0234347D02*
X0178999Y0234347D01*
X0178999Y0233349D02*
X0179699Y0233349D01*
X0179699Y0232350D02*
X0178999Y0232350D01*
X0178999Y0231352D02*
X0179699Y0231352D01*
X0179699Y0230353D02*
X0178999Y0230353D01*
X0178999Y0229355D02*
X0179699Y0229355D01*
X0179854Y0228356D02*
X0178844Y0228356D01*
X0179436Y0227358D02*
X0180268Y0227358D01*
X0180434Y0226359D02*
X0181070Y0226359D01*
X0181433Y0225361D02*
X0182567Y0225361D01*
X0182431Y0224362D02*
X0186814Y0224362D01*
X0187812Y0223364D02*
X0183430Y0223364D01*
X0184428Y0222365D02*
X0188811Y0222365D01*
X0189809Y0221367D02*
X0185427Y0221367D01*
X0186425Y0220368D02*
X0190808Y0220368D01*
X0191806Y0219370D02*
X0187424Y0219370D01*
X0188422Y0218371D02*
X0192805Y0218371D01*
X0193803Y0217373D02*
X0189421Y0217373D01*
X0190419Y0216374D02*
X0194802Y0216374D01*
X0195800Y0215376D02*
X0191418Y0215376D01*
X0192416Y0214377D02*
X0196799Y0214377D01*
X0199460Y0217373D02*
X0203764Y0217373D01*
X0202765Y0218371D02*
X0198462Y0218371D01*
X0197463Y0219370D02*
X0201767Y0219370D01*
X0200768Y0220368D02*
X0196465Y0220368D01*
X0195466Y0221367D02*
X0199770Y0221367D01*
X0198771Y0222365D02*
X0194468Y0222365D01*
X0193469Y0223364D02*
X0197773Y0223364D01*
X0196774Y0224362D02*
X0192471Y0224362D01*
X0192567Y0225361D02*
X0191472Y0225361D01*
X0191070Y0226359D02*
X0190474Y0226359D01*
X0190268Y0227358D02*
X0189475Y0227358D01*
X0181767Y0219370D02*
X0172802Y0219370D01*
X0172802Y0220368D02*
X0180768Y0220368D01*
X0179770Y0221367D02*
X0172775Y0221367D01*
X0171333Y0222365D02*
X0178771Y0222365D01*
X0177773Y0223364D02*
X0171333Y0223364D01*
X0171333Y0224362D02*
X0176774Y0224362D01*
X0172567Y0225361D02*
X0171333Y0225361D01*
X0167333Y0225361D02*
X0166131Y0225361D01*
X0174349Y0229616D02*
X0192333Y0211632D01*
X0230133Y0211632D01*
X0239633Y0202132D01*
X0264633Y0202132D01*
X0271333Y0205632D02*
X0263333Y0213632D01*
X0267422Y0218371D02*
X0272033Y0218371D01*
X0272033Y0217373D02*
X0268421Y0217373D01*
X0269419Y0216374D02*
X0272033Y0216374D01*
X0272337Y0215376D02*
X0270418Y0215376D01*
X0271416Y0214377D02*
X0273335Y0214377D01*
X0272415Y0213379D02*
X0274334Y0213379D01*
X0273413Y0212380D02*
X0275332Y0212380D01*
X0276033Y0211381D02*
X0274412Y0211381D01*
X0275410Y0210383D02*
X0276033Y0210383D01*
X0275333Y0207632D02*
X0258333Y0224632D01*
X0259434Y0226359D02*
X0272033Y0226359D01*
X0272033Y0225361D02*
X0260433Y0225361D01*
X0261431Y0224362D02*
X0272033Y0224362D01*
X0272033Y0223364D02*
X0262430Y0223364D01*
X0263428Y0222365D02*
X0272033Y0222365D01*
X0272033Y0221367D02*
X0264427Y0221367D01*
X0265425Y0220368D02*
X0272033Y0220368D01*
X0272033Y0219370D02*
X0266424Y0219370D01*
X0276633Y0219370D02*
X0276633Y0219370D01*
X0276633Y0219267D02*
X0276776Y0218552D01*
X0277054Y0217879D01*
X0277459Y0217273D01*
X0277975Y0216758D01*
X0278581Y0216353D01*
X0279254Y0216074D01*
X0279969Y0215932D01*
X0280233Y0215932D01*
X0280233Y0219531D01*
X0280433Y0219531D01*
X0280433Y0215932D01*
X0280698Y0215932D01*
X0281413Y0216074D01*
X0282086Y0216353D01*
X0282692Y0216758D01*
X0283207Y0217273D01*
X0283612Y0217879D01*
X0283891Y0218552D01*
X0284033Y0219267D01*
X0284033Y0219532D01*
X0280433Y0219532D01*
X0280433Y0219732D01*
X0280233Y0219732D01*
X0280233Y0223332D01*
X0279969Y0223332D01*
X0279254Y0223189D01*
X0278581Y0222910D01*
X0277975Y0222506D01*
X0277459Y0221990D01*
X0277054Y0221384D01*
X0276776Y0220711D01*
X0276633Y0219996D01*
X0276633Y0219732D01*
X0280233Y0219732D01*
X0280233Y0219532D01*
X0276633Y0219532D01*
X0276633Y0219267D01*
X0276633Y0218371D02*
X0276851Y0218371D01*
X0276845Y0217373D02*
X0277393Y0217373D01*
X0277844Y0216374D02*
X0278549Y0216374D01*
X0278842Y0215376D02*
X0358866Y0215376D01*
X0358878Y0215352D02*
X0359295Y0214779D01*
X0359795Y0214278D01*
X0360369Y0213862D01*
X0361000Y0213540D01*
X0361673Y0213321D01*
X0362373Y0213210D01*
X0365227Y0213210D01*
X0365227Y0217210D01*
X0366227Y0217210D01*
X0366227Y0213210D01*
X0369081Y0213210D01*
X0369781Y0213321D01*
X0370454Y0213540D01*
X0371086Y0213862D01*
X0371659Y0214278D01*
X0372159Y0214779D01*
X0372576Y0215352D01*
X0372897Y0215983D01*
X0373116Y0216657D01*
X0373204Y0217210D01*
X0366227Y0217210D01*
X0366227Y0218210D01*
X0373204Y0218210D01*
X0373116Y0218764D01*
X0372897Y0219438D01*
X0372576Y0220069D01*
X0372159Y0220642D01*
X0371659Y0221143D01*
X0371086Y0221559D01*
X0370454Y0221881D01*
X0369781Y0222100D01*
X0369081Y0222210D01*
X0366227Y0222210D01*
X0366227Y0218210D01*
X0365227Y0218210D01*
X0365227Y0217210D01*
X0358250Y0217210D01*
X0358338Y0216657D01*
X0358557Y0215983D01*
X0358878Y0215352D01*
X0358430Y0216374D02*
X0282118Y0216374D01*
X0283274Y0217373D02*
X0365227Y0217373D01*
X0365227Y0218210D02*
X0358250Y0218210D01*
X0358338Y0218764D01*
X0358557Y0219438D01*
X0358878Y0220069D01*
X0359295Y0220642D01*
X0359795Y0221143D01*
X0360369Y0221559D01*
X0361000Y0221881D01*
X0361673Y0222100D01*
X0362373Y0222210D01*
X0365227Y0222210D01*
X0365227Y0218210D01*
X0365227Y0218371D02*
X0366227Y0218371D01*
X0366227Y0217373D02*
X0396284Y0217373D01*
X0396284Y0218371D02*
X0373178Y0218371D01*
X0372919Y0219370D02*
X0396284Y0219370D01*
X0396284Y0220368D02*
X0372358Y0220368D01*
X0371350Y0221367D02*
X0396284Y0221367D01*
X0396284Y0222365D02*
X0354308Y0222365D01*
X0354703Y0222529D02*
X0357460Y0225285D01*
X0358227Y0227138D01*
X0358227Y0226658D01*
X0358912Y0225004D01*
X0360178Y0223738D01*
X0361832Y0223053D01*
X0369622Y0223053D01*
X0371276Y0223738D01*
X0372542Y0225004D01*
X0373227Y0226658D01*
X0373227Y0228448D01*
X0372542Y0230102D01*
X0371276Y0231368D01*
X0369622Y0232053D01*
X0361832Y0232053D01*
X0360178Y0231368D01*
X0358951Y0230141D01*
X0358951Y0232785D01*
X0357460Y0236387D01*
X0354703Y0239144D01*
X0351101Y0240636D01*
X0347203Y0240636D01*
X0343601Y0239144D01*
X0340845Y0236387D01*
X0339353Y0232785D01*
X0339353Y0228887D01*
X0340845Y0225285D01*
X0343601Y0222529D01*
X0347203Y0221037D01*
X0351101Y0221037D01*
X0354703Y0222529D01*
X0355538Y0223364D02*
X0361082Y0223364D01*
X0359554Y0224362D02*
X0356536Y0224362D01*
X0357491Y0225361D02*
X0358764Y0225361D01*
X0358351Y0226359D02*
X0357904Y0226359D01*
X0358951Y0230353D02*
X0359163Y0230353D01*
X0358951Y0231352D02*
X0360162Y0231352D01*
X0358951Y0232350D02*
X0396284Y0232350D01*
X0396284Y0231352D02*
X0371292Y0231352D01*
X0372291Y0230353D02*
X0396284Y0230353D01*
X0396284Y0229355D02*
X0372851Y0229355D01*
X0373227Y0228356D02*
X0396284Y0228356D01*
X0396284Y0227358D02*
X0373227Y0227358D01*
X0373103Y0226359D02*
X0396284Y0226359D01*
X0396284Y0225361D02*
X0372690Y0225361D01*
X0371900Y0224362D02*
X0396284Y0224362D01*
X0396284Y0223364D02*
X0370372Y0223364D01*
X0366227Y0221367D02*
X0365227Y0221367D01*
X0365227Y0220368D02*
X0366227Y0220368D01*
X0366227Y0219370D02*
X0365227Y0219370D01*
X0360104Y0221367D02*
X0351897Y0221367D01*
X0346408Y0221367D02*
X0283620Y0221367D01*
X0283612Y0221384D02*
X0283207Y0221990D01*
X0282692Y0222506D01*
X0282086Y0222910D01*
X0281413Y0223189D01*
X0280698Y0223332D01*
X0280433Y0223332D01*
X0280433Y0219732D01*
X0284033Y0219732D01*
X0284033Y0219996D01*
X0283891Y0220711D01*
X0283612Y0221384D01*
X0283959Y0220368D02*
X0359096Y0220368D01*
X0358535Y0219370D02*
X0284033Y0219370D01*
X0283816Y0218371D02*
X0358276Y0218371D01*
X0359696Y0214377D02*
X0279841Y0214377D01*
X0280633Y0213379D02*
X0361497Y0213379D01*
X0365227Y0213379D02*
X0366227Y0213379D01*
X0366227Y0214377D02*
X0365227Y0214377D01*
X0365227Y0215376D02*
X0366227Y0215376D01*
X0366227Y0216374D02*
X0365227Y0216374D01*
X0369957Y0213379D02*
X0396284Y0213379D01*
X0396284Y0214377D02*
X0371758Y0214377D01*
X0372588Y0215376D02*
X0396284Y0215376D01*
X0396284Y0216374D02*
X0373024Y0216374D01*
X0396284Y0212380D02*
X0280633Y0212380D01*
X0280633Y0211381D02*
X0396284Y0211381D01*
X0396284Y0210383D02*
X0280633Y0210383D01*
X0280633Y0209384D02*
X0396284Y0209384D01*
X0396284Y0208386D02*
X0280633Y0208386D01*
X0280633Y0207387D02*
X0396284Y0207387D01*
X0396284Y0206389D02*
X0280633Y0206389D01*
X0280633Y0205390D02*
X0396284Y0205390D01*
X0396284Y0204392D02*
X0280633Y0204392D01*
X0275333Y0207632D02*
X0275333Y0192632D01*
X0269833Y0197132D02*
X0264633Y0197132D01*
X0269833Y0197132D02*
X0271333Y0198632D01*
X0271333Y0205632D01*
X0280233Y0216374D02*
X0280433Y0216374D01*
X0280433Y0217373D02*
X0280233Y0217373D01*
X0280233Y0218371D02*
X0280433Y0218371D01*
X0280433Y0219370D02*
X0280233Y0219370D01*
X0280233Y0220368D02*
X0280433Y0220368D01*
X0280433Y0221367D02*
X0280233Y0221367D01*
X0280233Y0222365D02*
X0280433Y0222365D01*
X0282832Y0222365D02*
X0343997Y0222365D01*
X0342767Y0223364D02*
X0276633Y0223364D01*
X0276633Y0224362D02*
X0341768Y0224362D01*
X0340814Y0225361D02*
X0276633Y0225361D01*
X0276633Y0226359D02*
X0278565Y0226359D01*
X0278237Y0226495D02*
X0279597Y0225932D01*
X0281069Y0225932D01*
X0282429Y0226495D01*
X0283470Y0227536D01*
X0284033Y0228896D01*
X0284033Y0230368D01*
X0283470Y0231727D01*
X0282429Y0232768D01*
X0281069Y0233332D01*
X0279597Y0233332D01*
X0278237Y0232768D01*
X0277197Y0231727D01*
X0276633Y0230368D01*
X0276633Y0228896D01*
X0277197Y0227536D01*
X0278237Y0226495D01*
X0277375Y0227358D02*
X0276633Y0227358D01*
X0276633Y0228356D02*
X0276857Y0228356D01*
X0276633Y0229355D02*
X0276633Y0229355D01*
X0276633Y0230353D02*
X0276633Y0230353D01*
X0276633Y0231352D02*
X0277041Y0231352D01*
X0276633Y0232350D02*
X0277819Y0232350D01*
X0277303Y0233349D02*
X0339586Y0233349D01*
X0339353Y0232350D02*
X0282847Y0232350D01*
X0283626Y0231352D02*
X0339353Y0231352D01*
X0339353Y0230353D02*
X0284033Y0230353D01*
X0284033Y0229355D02*
X0339353Y0229355D01*
X0339573Y0228356D02*
X0283810Y0228356D01*
X0283292Y0227358D02*
X0339987Y0227358D01*
X0340400Y0226359D02*
X0282102Y0226359D01*
X0277834Y0222365D02*
X0276633Y0222365D01*
X0276633Y0221367D02*
X0277047Y0221367D01*
X0276707Y0220368D02*
X0276633Y0220368D01*
X0272033Y0227358D02*
X0256292Y0227358D01*
X0256810Y0228356D02*
X0272033Y0228356D01*
X0272033Y0229355D02*
X0257033Y0229355D01*
X0257033Y0230353D02*
X0272033Y0230353D01*
X0272033Y0231352D02*
X0256626Y0231352D01*
X0255847Y0232350D02*
X0272033Y0232350D01*
X0272033Y0233349D02*
X0228999Y0233349D01*
X0228999Y0234347D02*
X0272033Y0234347D01*
X0272795Y0235346D02*
X0228999Y0235346D01*
X0228999Y0236344D02*
X0251601Y0236344D01*
X0251237Y0236495D02*
X0252597Y0235932D01*
X0254069Y0235932D01*
X0255429Y0236495D01*
X0256470Y0237536D01*
X0257033Y0238896D01*
X0257033Y0240368D01*
X0256470Y0241727D01*
X0255429Y0242768D01*
X0254069Y0243332D01*
X0252597Y0243332D01*
X0251237Y0242768D01*
X0250197Y0241727D01*
X0249633Y0240368D01*
X0249633Y0238896D01*
X0250197Y0237536D01*
X0251237Y0236495D01*
X0250390Y0237343D02*
X0228807Y0237343D01*
X0228393Y0238341D02*
X0249863Y0238341D01*
X0249633Y0239340D02*
X0227539Y0239340D01*
X0225915Y0240338D02*
X0249633Y0240338D01*
X0250035Y0241337D02*
X0213456Y0241337D01*
X0212458Y0242335D02*
X0250804Y0242335D01*
X0255862Y0242335D02*
X0277804Y0242335D01*
X0277035Y0241337D02*
X0256632Y0241337D01*
X0257033Y0240338D02*
X0276633Y0240338D01*
X0276633Y0239340D02*
X0257033Y0239340D01*
X0256804Y0238341D02*
X0275790Y0238341D01*
X0274792Y0237343D02*
X0256277Y0237343D01*
X0255066Y0236344D02*
X0273793Y0236344D01*
X0278302Y0234347D02*
X0340000Y0234347D01*
X0340414Y0235346D02*
X0279300Y0235346D01*
X0282066Y0236344D02*
X0340827Y0236344D01*
X0341801Y0237343D02*
X0283277Y0237343D01*
X0283804Y0238341D02*
X0342799Y0238341D01*
X0344075Y0239340D02*
X0284033Y0239340D01*
X0284033Y0240338D02*
X0346486Y0240338D01*
X0351819Y0240338D02*
X0396284Y0240338D01*
X0396284Y0239340D02*
X0354230Y0239340D01*
X0355505Y0238341D02*
X0396284Y0238341D01*
X0396284Y0237343D02*
X0356504Y0237343D01*
X0357477Y0236344D02*
X0396284Y0236344D01*
X0396284Y0235346D02*
X0357891Y0235346D01*
X0358305Y0234347D02*
X0396284Y0234347D01*
X0396284Y0233349D02*
X0358718Y0233349D01*
X0393342Y0247328D02*
X0014668Y0247328D01*
X0012531Y0246329D02*
X0394787Y0246329D01*
X0395513Y0245331D02*
X0011212Y0245331D01*
X0010214Y0244332D02*
X0395954Y0244332D01*
X0396235Y0243334D02*
X0009561Y0243334D01*
X0008984Y0242335D02*
X0170209Y0242335D01*
X0169210Y0241337D02*
X0008619Y0241337D01*
X0008351Y0240338D02*
X0048848Y0240338D01*
X0049565Y0240636D02*
X0045964Y0239144D01*
X0043207Y0236387D01*
X0041715Y0232785D01*
X0041715Y0228887D01*
X0043207Y0225285D01*
X0045964Y0222529D01*
X0049565Y0221037D01*
X0053464Y0221037D01*
X0057065Y0222529D01*
X0059822Y0225285D01*
X0061314Y0228887D01*
X0061314Y0232785D01*
X0059822Y0236387D01*
X0057065Y0239144D01*
X0053464Y0240636D01*
X0049565Y0240636D01*
X0046437Y0239340D02*
X0008144Y0239340D01*
X0008083Y0238341D02*
X0045161Y0238341D01*
X0044163Y0237343D02*
X0008083Y0237343D01*
X0008083Y0236344D02*
X0043189Y0236344D01*
X0042776Y0235346D02*
X0008083Y0235346D01*
X0008083Y0234347D02*
X0042362Y0234347D01*
X0041949Y0233349D02*
X0008083Y0233349D01*
X0008083Y0232350D02*
X0041715Y0232350D01*
X0041715Y0231352D02*
X0008083Y0231352D01*
X0008083Y0230353D02*
X0041715Y0230353D01*
X0041715Y0229355D02*
X0008083Y0229355D01*
X0008083Y0228356D02*
X0041935Y0228356D01*
X0042349Y0227358D02*
X0008083Y0227358D01*
X0008083Y0226359D02*
X0042762Y0226359D01*
X0043176Y0225361D02*
X0008083Y0225361D01*
X0008083Y0224362D02*
X0044130Y0224362D01*
X0045129Y0223364D02*
X0008083Y0223364D01*
X0008083Y0222365D02*
X0046359Y0222365D01*
X0048770Y0221367D02*
X0008083Y0221367D01*
X0008083Y0220368D02*
X0060424Y0220368D01*
X0059326Y0219370D02*
X0008083Y0219370D01*
X0008083Y0218371D02*
X0058228Y0218371D01*
X0057129Y0217373D02*
X0008083Y0217373D01*
X0008083Y0216374D02*
X0056031Y0216374D01*
X0054932Y0215376D02*
X0008083Y0215376D01*
X0008083Y0214377D02*
X0053826Y0214377D01*
X0053033Y0213379D02*
X0008083Y0213379D01*
X0008083Y0212380D02*
X0053019Y0212380D01*
X0053033Y0211381D02*
X0008083Y0211381D01*
X0008083Y0210383D02*
X0053033Y0210383D01*
X0053033Y0209384D02*
X0008083Y0209384D01*
X0008083Y0208386D02*
X0053033Y0208386D01*
X0053033Y0207387D02*
X0008083Y0207387D01*
X0008083Y0206389D02*
X0053033Y0206389D01*
X0053033Y0205390D02*
X0008083Y0205390D01*
X0008083Y0204392D02*
X0053033Y0204392D01*
X0053033Y0203393D02*
X0008083Y0203393D01*
X0008083Y0202395D02*
X0035035Y0202395D01*
X0037632Y0202395D02*
X0053033Y0202395D01*
X0057633Y0204392D02*
X0058260Y0204392D01*
X0057633Y0208083D02*
X0057633Y0211180D01*
X0057748Y0210904D01*
X0058606Y0210046D01*
X0059606Y0209632D01*
X0058606Y0209217D01*
X0057748Y0208359D01*
X0057633Y0208083D01*
X0057633Y0208386D02*
X0057774Y0208386D01*
X0057633Y0209384D02*
X0059009Y0209384D01*
X0058269Y0210383D02*
X0057633Y0210383D01*
X0054259Y0221367D02*
X0061523Y0221367D01*
X0062621Y0222365D02*
X0056670Y0222365D01*
X0057900Y0223364D02*
X0063719Y0223364D01*
X0064811Y0224362D02*
X0058898Y0224362D01*
X0059853Y0225361D02*
X0072536Y0225361D01*
X0072564Y0225346D02*
X0073260Y0225120D01*
X0073865Y0225024D01*
X0073865Y0229171D01*
X0074833Y0229171D01*
X0074833Y0225024D01*
X0075438Y0225120D01*
X0076134Y0225346D01*
X0076786Y0225679D01*
X0077378Y0226109D01*
X0077896Y0226626D01*
X0078326Y0227218D01*
X0078658Y0227870D01*
X0078884Y0228566D01*
X0078980Y0229171D01*
X0074833Y0229171D01*
X0074833Y0230139D01*
X0078999Y0230139D01*
X0078999Y0236320D01*
X0078884Y0237043D01*
X0078658Y0237739D01*
X0078326Y0238391D01*
X0077896Y0238983D01*
X0077378Y0239501D01*
X0076786Y0239931D01*
X0076134Y0240263D01*
X0075438Y0240490D01*
X0074833Y0240585D01*
X0074833Y0230140D01*
X0073865Y0230140D01*
X0073865Y0240585D01*
X0073260Y0240490D01*
X0072564Y0240263D01*
X0071912Y0239931D01*
X0071320Y0239501D01*
X0070803Y0238983D01*
X0070372Y0238391D01*
X0070040Y0237739D01*
X0069814Y0237043D01*
X0069699Y0236320D01*
X0069699Y0230139D01*
X0073865Y0230139D01*
X0073865Y0229171D01*
X0069718Y0229171D01*
X0069814Y0228566D01*
X0070040Y0227870D01*
X0070372Y0227218D01*
X0070803Y0226626D01*
X0071320Y0226109D01*
X0071912Y0225679D01*
X0072564Y0225346D01*
X0073865Y0225361D02*
X0074833Y0225361D01*
X0074833Y0226359D02*
X0073865Y0226359D01*
X0073865Y0227358D02*
X0074833Y0227358D01*
X0074833Y0228356D02*
X0073865Y0228356D01*
X0073865Y0229355D02*
X0061314Y0229355D01*
X0061314Y0230353D02*
X0069699Y0230353D01*
X0069699Y0231352D02*
X0061314Y0231352D01*
X0061314Y0232350D02*
X0069699Y0232350D01*
X0069699Y0233349D02*
X0061080Y0233349D01*
X0060667Y0234347D02*
X0069699Y0234347D01*
X0069699Y0235346D02*
X0060253Y0235346D01*
X0059840Y0236344D02*
X0069703Y0236344D01*
X0069911Y0237343D02*
X0058866Y0237343D01*
X0057868Y0238341D02*
X0070347Y0238341D01*
X0071159Y0239340D02*
X0056592Y0239340D01*
X0054181Y0240338D02*
X0072795Y0240338D01*
X0073865Y0240338D02*
X0074833Y0240338D01*
X0074833Y0239340D02*
X0073865Y0239340D01*
X0073865Y0238341D02*
X0074833Y0238341D01*
X0074833Y0237343D02*
X0073865Y0237343D01*
X0073865Y0236344D02*
X0074833Y0236344D01*
X0074833Y0235346D02*
X0073865Y0235346D01*
X0073865Y0234347D02*
X0074833Y0234347D01*
X0074833Y0233349D02*
X0073865Y0233349D01*
X0073865Y0232350D02*
X0074833Y0232350D01*
X0074833Y0231352D02*
X0073865Y0231352D01*
X0073865Y0230353D02*
X0074833Y0230353D01*
X0074833Y0229355D02*
X0079699Y0229355D01*
X0079699Y0230353D02*
X0078999Y0230353D01*
X0078999Y0231352D02*
X0079699Y0231352D01*
X0079699Y0232350D02*
X0078999Y0232350D01*
X0078999Y0233349D02*
X0079699Y0233349D01*
X0079699Y0234347D02*
X0078999Y0234347D01*
X0078999Y0235346D02*
X0079699Y0235346D01*
X0079699Y0236344D02*
X0078995Y0236344D01*
X0078787Y0237343D02*
X0079891Y0237343D01*
X0080305Y0238341D02*
X0078351Y0238341D01*
X0077539Y0239340D02*
X0081159Y0239340D01*
X0082783Y0240338D02*
X0075903Y0240338D01*
X0085915Y0240338D02*
X0092783Y0240338D01*
X0093424Y0240604D02*
X0091715Y0239896D01*
X0090407Y0238588D01*
X0089699Y0236879D01*
X0089699Y0228730D01*
X0090407Y0227021D01*
X0091715Y0225713D01*
X0093424Y0225006D01*
X0095274Y0225006D01*
X0096983Y0225713D01*
X0098291Y0227021D01*
X0098999Y0228730D01*
X0098999Y0236879D01*
X0098291Y0238588D01*
X0096983Y0239896D01*
X0095274Y0240604D01*
X0093424Y0240604D01*
X0095915Y0240338D02*
X0102783Y0240338D01*
X0101159Y0239340D02*
X0097539Y0239340D01*
X0098393Y0238341D02*
X0100305Y0238341D01*
X0099891Y0237343D02*
X0098807Y0237343D01*
X0098999Y0236344D02*
X0099699Y0236344D01*
X0099699Y0235346D02*
X0098999Y0235346D01*
X0098999Y0234347D02*
X0099699Y0234347D01*
X0099699Y0233349D02*
X0098999Y0233349D01*
X0098999Y0232350D02*
X0099699Y0232350D01*
X0099699Y0231352D02*
X0098999Y0231352D01*
X0098999Y0230353D02*
X0099699Y0230353D01*
X0099699Y0229355D02*
X0098999Y0229355D01*
X0098844Y0228356D02*
X0099854Y0228356D01*
X0100268Y0227358D02*
X0098430Y0227358D01*
X0097629Y0226359D02*
X0101070Y0226359D01*
X0102567Y0225361D02*
X0096131Y0225361D01*
X0092567Y0225361D02*
X0086649Y0225361D01*
X0086649Y0224362D02*
X0106814Y0224362D01*
X0107812Y0223364D02*
X0086318Y0223364D01*
X0085320Y0222365D02*
X0108811Y0222365D01*
X0109809Y0221367D02*
X0084321Y0221367D01*
X0083323Y0220368D02*
X0110808Y0220368D01*
X0111806Y0219370D02*
X0066164Y0219370D01*
X0071070Y0226359D02*
X0060267Y0226359D01*
X0060680Y0227358D02*
X0070301Y0227358D01*
X0069882Y0228356D02*
X0061094Y0228356D01*
X0076162Y0225361D02*
X0081810Y0225361D01*
X0081070Y0226359D02*
X0077629Y0226359D01*
X0078397Y0227358D02*
X0080268Y0227358D01*
X0079854Y0228356D02*
X0078816Y0228356D01*
X0087629Y0226359D02*
X0091070Y0226359D01*
X0090268Y0227358D02*
X0088430Y0227358D01*
X0088844Y0228356D02*
X0089854Y0228356D01*
X0089699Y0229355D02*
X0088999Y0229355D01*
X0088999Y0230353D02*
X0089699Y0230353D01*
X0089699Y0231352D02*
X0088999Y0231352D01*
X0088999Y0232350D02*
X0089699Y0232350D01*
X0089699Y0233349D02*
X0088999Y0233349D01*
X0088999Y0234347D02*
X0089699Y0234347D01*
X0089699Y0235346D02*
X0088999Y0235346D01*
X0088999Y0236344D02*
X0089699Y0236344D01*
X0089891Y0237343D02*
X0088807Y0237343D01*
X0088393Y0238341D02*
X0090305Y0238341D01*
X0091159Y0239340D02*
X0087539Y0239340D01*
X0104349Y0229655D02*
X0117373Y0216632D01*
X0137333Y0216632D01*
X0165333Y0188632D01*
X0204333Y0188632D01*
X0210833Y0182132D01*
X0226033Y0182132D01*
X0221112Y0184632D02*
X0220612Y0185132D01*
X0210662Y0185132D01*
X0211662Y0184132D01*
X0220612Y0184132D01*
X0221112Y0184632D01*
X0220902Y0184422D02*
X0211372Y0184422D01*
X0208710Y0181426D02*
X0204684Y0181426D01*
X0204679Y0181432D02*
X0191988Y0181432D01*
X0191109Y0180553D01*
X0191109Y0180332D01*
X0188462Y0180332D01*
X0188383Y0180410D01*
X0188383Y0181238D01*
X0187919Y0182359D01*
X0187647Y0182632D01*
X0191188Y0182632D01*
X0191988Y0181832D01*
X0204679Y0181832D01*
X0205558Y0182710D01*
X0205558Y0184579D01*
X0210005Y0180132D01*
X0220612Y0180132D01*
X0221112Y0179632D01*
X0220612Y0179132D01*
X0205558Y0179132D01*
X0205558Y0180553D01*
X0204679Y0181432D01*
X0205272Y0182425D02*
X0207712Y0182425D01*
X0206713Y0183423D02*
X0205558Y0183423D01*
X0205558Y0184422D02*
X0205715Y0184422D01*
X0205558Y0180428D02*
X0209709Y0180428D01*
X0205558Y0179429D02*
X0220910Y0179429D01*
X0226033Y0177132D02*
X0204258Y0177132D01*
X0203058Y0178332D01*
X0203329Y0175232D02*
X0202562Y0175232D01*
X0203662Y0174132D01*
X0220612Y0174132D01*
X0221112Y0174632D01*
X0220612Y0175132D01*
X0203429Y0175132D01*
X0203329Y0175232D01*
X0203357Y0174437D02*
X0220917Y0174437D01*
X0220612Y0170132D02*
X0221112Y0169632D01*
X0220612Y0169132D01*
X0204662Y0169132D01*
X0203662Y0170132D01*
X0203662Y0170132D01*
X0220612Y0170132D01*
X0220924Y0169444D02*
X0204349Y0169444D01*
X0195601Y0170364D02*
X0206833Y0159132D01*
X0308233Y0159132D01*
X0308233Y0154132D02*
X0206833Y0154132D01*
X0185333Y0175632D01*
X0187462Y0176332D02*
X0191109Y0176332D01*
X0191109Y0176110D01*
X0191988Y0175232D01*
X0194759Y0175232D01*
X0194759Y0173378D01*
X0194802Y0173334D01*
X0193873Y0172950D01*
X0193015Y0172092D01*
X0192631Y0171163D01*
X0187462Y0176332D01*
X0188358Y0175435D02*
X0191784Y0175435D01*
X0190355Y0173438D02*
X0194759Y0173438D01*
X0194759Y0174437D02*
X0189357Y0174437D01*
X0191354Y0172440D02*
X0193363Y0172440D01*
X0192746Y0171441D02*
X0192352Y0171441D01*
X0188304Y0165833D02*
X0188141Y0165439D01*
X0188535Y0165602D01*
X0188304Y0165833D01*
X0188167Y0165450D02*
X0188145Y0165450D01*
X0189333Y0162632D02*
X0129333Y0162632D01*
X0119333Y0152632D01*
X0119333Y0148435D01*
X0119408Y0148360D01*
X0121967Y0148360D02*
X0122062Y0148360D01*
X0132333Y0158632D01*
X0185333Y0158632D01*
X0183188Y0156463D02*
X0132994Y0156463D01*
X0131995Y0155465D02*
X0196203Y0155465D01*
X0197673Y0156463D02*
X0187478Y0156463D01*
X0188150Y0157462D02*
X0196675Y0157462D01*
X0195676Y0158460D02*
X0188383Y0158460D01*
X0188292Y0159459D02*
X0194678Y0159459D01*
X0193679Y0160457D02*
X0191473Y0160457D01*
X0192148Y0161456D02*
X0192681Y0161456D01*
X0198463Y0155465D02*
X0198672Y0155465D01*
X0200288Y0153468D02*
X0200669Y0153468D01*
X0200383Y0152469D02*
X0201667Y0152469D01*
X0202666Y0151471D02*
X0200154Y0151471D01*
X0199487Y0150472D02*
X0203664Y0150472D01*
X0207662Y0156132D02*
X0206662Y0157132D01*
X0302812Y0157132D01*
X0303312Y0156632D01*
X0302812Y0156132D01*
X0207662Y0156132D01*
X0207330Y0156463D02*
X0303144Y0156463D01*
X0303136Y0161456D02*
X0207337Y0161456D01*
X0206339Y0162454D02*
X0302781Y0162454D01*
X0308083Y0164451D02*
X0308383Y0164451D01*
X0308383Y0165450D02*
X0308083Y0165450D01*
X0308083Y0166448D02*
X0308383Y0166448D01*
X0308383Y0167447D02*
X0308083Y0167447D01*
X0308083Y0168445D02*
X0308383Y0168445D01*
X0308383Y0169444D02*
X0308083Y0169444D01*
X0308083Y0170443D02*
X0308383Y0170443D01*
X0308383Y0171441D02*
X0308083Y0171441D01*
X0308083Y0172440D02*
X0308383Y0172440D01*
X0308383Y0173438D02*
X0308083Y0173438D01*
X0308083Y0174437D02*
X0308383Y0174437D01*
X0308383Y0175435D02*
X0308083Y0175435D01*
X0308083Y0176434D02*
X0308383Y0176434D01*
X0308383Y0177432D02*
X0308083Y0177432D01*
X0308083Y0178431D02*
X0308383Y0178431D01*
X0308383Y0179429D02*
X0308083Y0179429D01*
X0308083Y0180428D02*
X0308383Y0180428D01*
X0308383Y0181426D02*
X0308083Y0181426D01*
X0308083Y0182425D02*
X0308383Y0182425D01*
X0308383Y0183423D02*
X0308083Y0183423D01*
X0308333Y0184232D02*
X0308333Y0195632D01*
X0314609Y0196832D02*
X0314609Y0199931D01*
X0314609Y0196832D01*
X0314609Y0197402D02*
X0314609Y0197402D01*
X0314609Y0198401D02*
X0314609Y0198401D01*
X0314609Y0199399D02*
X0314609Y0199399D01*
X0314609Y0199931D02*
X0314609Y0199931D01*
X0314609Y0200398D02*
X0314609Y0200398D01*
X0314609Y0201396D02*
X0314609Y0201396D01*
X0314609Y0202395D02*
X0314609Y0202395D01*
X0317758Y0202395D02*
X0317759Y0202395D01*
X0317758Y0201396D02*
X0317759Y0201396D01*
X0317758Y0200398D02*
X0317759Y0200398D01*
X0317758Y0199399D02*
X0317759Y0199399D01*
X0317758Y0198401D02*
X0317759Y0198401D01*
X0317758Y0197402D02*
X0317759Y0197402D01*
X0320908Y0197402D02*
X0320908Y0197402D01*
X0320908Y0198401D02*
X0320908Y0198401D01*
X0320908Y0199399D02*
X0320908Y0199399D01*
X0320908Y0200398D02*
X0320908Y0200398D01*
X0320908Y0201396D02*
X0320908Y0201396D01*
X0320908Y0202395D02*
X0320908Y0202395D01*
X0323008Y0189414D02*
X0396284Y0189414D01*
X0396284Y0188416D02*
X0323008Y0188416D01*
X0323008Y0187417D02*
X0396284Y0187417D01*
X0396284Y0186419D02*
X0337568Y0186419D01*
X0337933Y0185420D02*
X0396284Y0185420D01*
X0396284Y0184422D02*
X0337933Y0184422D01*
X0337933Y0183423D02*
X0396284Y0183423D01*
X0396284Y0182425D02*
X0371139Y0182425D01*
X0372218Y0181426D02*
X0396284Y0181426D01*
X0396284Y0180428D02*
X0372821Y0180428D01*
X0373227Y0179429D02*
X0396284Y0179429D01*
X0396284Y0178431D02*
X0373227Y0178431D01*
X0373134Y0177432D02*
X0396284Y0177432D01*
X0396284Y0176434D02*
X0372720Y0176434D01*
X0360315Y0182425D02*
X0337933Y0182425D01*
X0337560Y0181426D02*
X0359236Y0181426D01*
X0358633Y0180428D02*
X0337933Y0180428D01*
X0337933Y0179429D02*
X0358227Y0179429D01*
X0358227Y0178431D02*
X0337933Y0178431D01*
X0337933Y0177432D02*
X0358320Y0177432D01*
X0358734Y0176434D02*
X0337553Y0176434D01*
X0337933Y0175435D02*
X0356167Y0175435D01*
X0355168Y0174437D02*
X0337933Y0174437D01*
X0337933Y0173438D02*
X0354170Y0173438D01*
X0353171Y0172440D02*
X0337933Y0172440D01*
X0337545Y0171441D02*
X0352173Y0171441D01*
X0351174Y0170443D02*
X0337933Y0170443D01*
X0337933Y0169444D02*
X0350176Y0169444D01*
X0349177Y0168445D02*
X0337933Y0168445D01*
X0337933Y0167447D02*
X0348179Y0167447D01*
X0347180Y0166448D02*
X0337538Y0166448D01*
X0337933Y0165450D02*
X0346182Y0165450D01*
X0345183Y0164451D02*
X0337933Y0164451D01*
X0337933Y0163453D02*
X0344185Y0163453D01*
X0343186Y0162454D02*
X0337933Y0162454D01*
X0337530Y0161456D02*
X0342188Y0161456D01*
X0345132Y0158460D02*
X0352224Y0158460D01*
X0351226Y0157462D02*
X0344133Y0157462D01*
X0343703Y0157032D02*
X0358203Y0171532D01*
X0359184Y0171532D01*
X0358912Y0171259D01*
X0358227Y0169605D01*
X0358227Y0167815D01*
X0358912Y0166161D01*
X0359419Y0165655D01*
X0350196Y0156432D01*
X0337555Y0156432D01*
X0337355Y0156632D01*
X0337755Y0157032D01*
X0343703Y0157032D01*
X0346130Y0159459D02*
X0353223Y0159459D01*
X0354221Y0160457D02*
X0347129Y0160457D01*
X0348128Y0161456D02*
X0355220Y0161456D01*
X0356218Y0162454D02*
X0349126Y0162454D01*
X0350125Y0163453D02*
X0357217Y0163453D01*
X0358215Y0164451D02*
X0351123Y0164451D01*
X0352122Y0165450D02*
X0359214Y0165450D01*
X0358793Y0166448D02*
X0353120Y0166448D01*
X0354119Y0167447D02*
X0358380Y0167447D01*
X0358227Y0168445D02*
X0355117Y0168445D01*
X0356116Y0169444D02*
X0358227Y0169444D01*
X0358574Y0170443D02*
X0357114Y0170443D01*
X0358113Y0171441D02*
X0359094Y0171441D01*
X0350227Y0156463D02*
X0337523Y0156463D01*
X0308383Y0184422D02*
X0308083Y0184422D01*
X0308083Y0185420D02*
X0308383Y0185420D01*
X0308383Y0186419D02*
X0308083Y0186419D01*
X0271890Y0171441D02*
X0270133Y0171441D01*
X0270133Y0170443D02*
X0270892Y0170443D01*
X0269893Y0169444D02*
X0269742Y0169444D01*
X0226033Y0192132D02*
X0206833Y0192132D01*
X0206333Y0192632D01*
X0167333Y0192632D01*
X0139333Y0220632D01*
X0145421Y0217373D02*
X0165865Y0217373D01*
X0165865Y0216374D02*
X0146419Y0216374D01*
X0147418Y0215376D02*
X0165865Y0215376D01*
X0166073Y0214377D02*
X0148416Y0214377D01*
X0149415Y0213379D02*
X0162914Y0213379D01*
X0163046Y0213455D02*
X0162704Y0213257D01*
X0162424Y0212978D01*
X0162227Y0212636D01*
X0162125Y0212254D01*
X0162125Y0209785D01*
X0165109Y0209785D01*
X0165109Y0208817D01*
X0162125Y0208817D01*
X0162125Y0206347D01*
X0162227Y0205966D01*
X0162424Y0205624D01*
X0162704Y0205345D01*
X0163046Y0205147D01*
X0163427Y0205045D01*
X0165109Y0205045D01*
X0165109Y0208817D01*
X0166077Y0208817D01*
X0166077Y0205045D01*
X0167759Y0205045D01*
X0168141Y0205147D01*
X0168483Y0205345D01*
X0168762Y0205624D01*
X0168959Y0205966D01*
X0169062Y0206347D01*
X0169062Y0208817D01*
X0166077Y0208817D01*
X0166077Y0209785D01*
X0165109Y0209785D01*
X0165109Y0213557D01*
X0163427Y0213557D01*
X0163046Y0213455D01*
X0162158Y0212380D02*
X0150413Y0212380D01*
X0151412Y0211381D02*
X0162125Y0211381D01*
X0162125Y0210383D02*
X0152410Y0210383D01*
X0153409Y0209384D02*
X0165109Y0209384D01*
X0166077Y0209384D02*
X0169605Y0209384D01*
X0169062Y0209785D02*
X0169062Y0212254D01*
X0168959Y0212636D01*
X0168762Y0212978D01*
X0168483Y0213257D01*
X0168141Y0213455D01*
X0167759Y0213557D01*
X0166077Y0213557D01*
X0166077Y0209785D01*
X0169062Y0209785D01*
X0169062Y0210383D02*
X0169605Y0210383D01*
X0169605Y0211381D02*
X0169062Y0211381D01*
X0169028Y0212380D02*
X0169605Y0212380D01*
X0170305Y0213379D02*
X0168272Y0213379D01*
X0166077Y0213379D02*
X0165109Y0213379D01*
X0165109Y0212380D02*
X0166077Y0212380D01*
X0166077Y0211381D02*
X0165109Y0211381D01*
X0165109Y0210383D02*
X0166077Y0210383D01*
X0166077Y0208386D02*
X0165109Y0208386D01*
X0165109Y0207387D02*
X0166077Y0207387D01*
X0166077Y0206389D02*
X0165109Y0206389D01*
X0165109Y0205390D02*
X0166077Y0205390D01*
X0168528Y0205390D02*
X0170138Y0205390D01*
X0169605Y0206389D02*
X0169062Y0206389D01*
X0169062Y0207387D02*
X0169605Y0207387D01*
X0169605Y0208386D02*
X0169062Y0208386D01*
X0173073Y0209301D02*
X0173404Y0209632D01*
X0183333Y0209632D01*
X0185333Y0209632D01*
X0228333Y0209632D01*
X0233333Y0204632D01*
X0233333Y0199632D01*
X0230833Y0197132D01*
X0226033Y0197132D01*
X0220533Y0197402D02*
X0165391Y0197402D01*
X0166390Y0196404D02*
X0220533Y0196404D01*
X0220533Y0195405D02*
X0167388Y0195405D01*
X0164392Y0198401D02*
X0220533Y0198401D01*
X0220880Y0199399D02*
X0163394Y0199399D01*
X0162395Y0200398D02*
X0220597Y0200398D01*
X0220533Y0201396D02*
X0161397Y0201396D01*
X0160398Y0202395D02*
X0220533Y0202395D01*
X0220533Y0203393D02*
X0159400Y0203393D01*
X0158401Y0204392D02*
X0220872Y0204392D01*
X0225883Y0204392D02*
X0226183Y0204392D01*
X0226183Y0203393D02*
X0225883Y0203393D01*
X0225883Y0202395D02*
X0226183Y0202395D01*
X0229746Y0205390D02*
X0176009Y0205390D01*
X0176542Y0206389D02*
X0228748Y0206389D01*
X0227749Y0207387D02*
X0187403Y0207387D01*
X0183264Y0207387D02*
X0176542Y0207387D01*
X0176542Y0212380D02*
X0183999Y0212380D01*
X0186668Y0212380D02*
X0188756Y0212380D01*
X0187758Y0213379D02*
X0175842Y0213379D01*
X0172594Y0214377D02*
X0186759Y0214377D01*
X0185761Y0215376D02*
X0172802Y0215376D01*
X0172802Y0216374D02*
X0184762Y0216374D01*
X0183764Y0217373D02*
X0172802Y0217373D01*
X0172802Y0218371D02*
X0182765Y0218371D01*
X0200459Y0216374D02*
X0204762Y0216374D01*
X0218430Y0227358D02*
X0220268Y0227358D01*
X0219854Y0228356D02*
X0218844Y0228356D01*
X0218999Y0229355D02*
X0219699Y0229355D01*
X0219699Y0230353D02*
X0218999Y0230353D01*
X0218999Y0231352D02*
X0219699Y0231352D01*
X0219699Y0232350D02*
X0218999Y0232350D01*
X0218999Y0233349D02*
X0219699Y0233349D01*
X0219699Y0234347D02*
X0218999Y0234347D01*
X0218999Y0235346D02*
X0219699Y0235346D01*
X0219699Y0236344D02*
X0218999Y0236344D01*
X0218807Y0237343D02*
X0219891Y0237343D01*
X0220305Y0238341D02*
X0218393Y0238341D01*
X0217539Y0239340D02*
X0221159Y0239340D01*
X0222783Y0240338D02*
X0215915Y0240338D01*
X0228999Y0232350D02*
X0250819Y0232350D01*
X0250041Y0231352D02*
X0228999Y0231352D01*
X0228999Y0230353D02*
X0249633Y0230353D01*
X0249633Y0229355D02*
X0228999Y0229355D01*
X0228844Y0228356D02*
X0249857Y0228356D01*
X0250375Y0227358D02*
X0228430Y0227358D01*
X0235333Y0203393D02*
X0235543Y0203393D01*
X0235333Y0202395D02*
X0236542Y0202395D01*
X0237540Y0201396D02*
X0235333Y0201396D01*
X0235333Y0200398D02*
X0238539Y0200398D01*
X0220887Y0194407D02*
X0207387Y0194407D01*
X0208662Y0190132D02*
X0220612Y0190132D01*
X0221112Y0189632D01*
X0220612Y0189132D01*
X0209662Y0189132D01*
X0208662Y0190132D01*
X0209379Y0189414D02*
X0220895Y0189414D01*
X0193609Y0178332D02*
X0187633Y0178332D01*
X0185333Y0180632D01*
X0182530Y0179429D02*
X0130506Y0179429D01*
X0131433Y0178431D02*
X0135121Y0178431D01*
X0133820Y0177432D02*
X0131846Y0177432D01*
X0132302Y0176434D02*
X0133364Y0176434D01*
X0137546Y0178431D02*
X0183221Y0178431D01*
X0182283Y0180428D02*
X0129507Y0180428D01*
X0128509Y0181426D02*
X0182361Y0181426D01*
X0182813Y0182425D02*
X0127510Y0182425D01*
X0124566Y0179429D02*
X0124255Y0179429D01*
X0124255Y0178431D02*
X0125564Y0178431D01*
X0126563Y0177432D02*
X0124255Y0177432D01*
X0124255Y0176434D02*
X0126364Y0176434D01*
X0126283Y0175435D02*
X0124255Y0175435D01*
X0124255Y0174437D02*
X0126527Y0174437D01*
X0127213Y0173438D02*
X0124255Y0173438D01*
X0116849Y0173438D02*
X0116849Y0173438D01*
X0116849Y0174437D02*
X0116849Y0174437D01*
X0116849Y0175435D02*
X0116849Y0175435D01*
X0116849Y0176434D02*
X0116849Y0176434D01*
X0116849Y0176903D02*
X0116577Y0176903D01*
X0114290Y0176903D01*
X0114290Y0176903D01*
X0116849Y0176903D01*
X0116849Y0176903D01*
X0114290Y0176434D02*
X0114290Y0176434D01*
X0114290Y0175435D02*
X0114290Y0175435D01*
X0114290Y0174437D02*
X0114290Y0174437D01*
X0114290Y0173438D02*
X0114290Y0173438D01*
X0126864Y0163453D02*
X0127326Y0163453D01*
X0127931Y0164451D02*
X0128325Y0164451D01*
X0128505Y0164632D02*
X0118505Y0154632D01*
X0117333Y0153460D01*
X0117333Y0152813D01*
X0115699Y0152813D01*
X0115495Y0152813D01*
X0128123Y0164632D01*
X0183020Y0164632D01*
X0183020Y0164632D01*
X0128505Y0164632D01*
X0126328Y0162454D02*
X0125797Y0162454D01*
X0125329Y0161456D02*
X0124730Y0161456D01*
X0124331Y0160457D02*
X0123663Y0160457D01*
X0123332Y0159459D02*
X0122596Y0159459D01*
X0122334Y0158460D02*
X0121529Y0158460D01*
X0121335Y0157462D02*
X0120463Y0157462D01*
X0120337Y0156463D02*
X0119396Y0156463D01*
X0119338Y0155465D02*
X0118329Y0155465D01*
X0118340Y0154466D02*
X0117262Y0154466D01*
X0117341Y0153468D02*
X0116195Y0153468D01*
X0122343Y0152813D02*
X0130162Y0160632D01*
X0183020Y0160632D01*
X0183020Y0160632D01*
X0131505Y0160632D01*
X0130333Y0159460D01*
X0123531Y0152658D01*
X0123376Y0152813D01*
X0122343Y0152813D01*
X0122998Y0153468D02*
X0124341Y0153468D01*
X0123996Y0154466D02*
X0125340Y0154466D01*
X0124995Y0155465D02*
X0126338Y0155465D01*
X0125994Y0156463D02*
X0127337Y0156463D01*
X0126992Y0157462D02*
X0128335Y0157462D01*
X0127991Y0158460D02*
X0129334Y0158460D01*
X0128989Y0159459D02*
X0130332Y0159459D01*
X0129988Y0160457D02*
X0131331Y0160457D01*
X0149333Y0152632D02*
X0135333Y0138632D01*
X0135333Y0090632D01*
X0045333Y0090632D01*
X0034333Y0101632D01*
X0029713Y0103542D02*
X0029072Y0103542D01*
X0029333Y0102544D02*
X0029333Y0102544D01*
X0029333Y0101545D02*
X0029333Y0101545D01*
X0029296Y0100547D02*
X0029371Y0100547D01*
X0029784Y0099548D02*
X0028882Y0099548D01*
X0028323Y0098550D02*
X0030344Y0098550D01*
X0031343Y0097551D02*
X0027324Y0097551D01*
X0024333Y0101632D02*
X0029333Y0106632D01*
X0029333Y0113632D01*
X0032333Y0116632D01*
X0108333Y0116632D01*
X0128333Y0136632D01*
X0131164Y0135495D02*
X0133333Y0135495D01*
X0133333Y0136493D02*
X0131383Y0136493D01*
X0131278Y0137492D02*
X0133333Y0137492D01*
X0133333Y0138490D02*
X0130788Y0138490D01*
X0129406Y0139489D02*
X0133362Y0139489D01*
X0134361Y0140487D02*
X0130017Y0140487D01*
X0131016Y0141486D02*
X0135359Y0141486D01*
X0134505Y0140632D02*
X0134505Y0140632D01*
X0136358Y0142484D02*
X0132014Y0142484D01*
X0134498Y0143483D02*
X0137356Y0143483D01*
X0138355Y0144481D02*
X0135158Y0144481D01*
X0135383Y0145480D02*
X0139353Y0145480D01*
X0140352Y0146478D02*
X0135284Y0146478D01*
X0134801Y0147477D02*
X0141350Y0147477D01*
X0132333Y0145632D02*
X0105333Y0118632D01*
X0030333Y0118632D01*
X0024333Y0112632D01*
X0024333Y0111632D01*
X0021358Y0107536D02*
X0021333Y0107536D01*
X0021333Y0106538D02*
X0023112Y0106538D01*
X0021170Y0105539D02*
X0021069Y0105539D01*
X0020171Y0104541D02*
X0020071Y0104541D01*
X0019713Y0103542D02*
X0019333Y0103542D01*
X0019333Y0102544D02*
X0019333Y0102544D01*
X0019333Y0101545D02*
X0019333Y0101545D01*
X0019333Y0100547D02*
X0019371Y0100547D01*
X0019321Y0099548D02*
X0019784Y0099548D01*
X0020344Y0098550D02*
X0018323Y0098550D01*
X0017324Y0097551D02*
X0021343Y0097551D01*
X0014333Y0101632D02*
X0019333Y0106632D01*
X0019333Y0113632D01*
X0026333Y0120632D01*
X0102333Y0120632D01*
X0110055Y0115524D02*
X0133333Y0115524D01*
X0133333Y0114526D02*
X0057274Y0114526D01*
X0058272Y0113527D02*
X0133333Y0113527D01*
X0133333Y0112529D02*
X0059271Y0112529D01*
X0060007Y0111530D02*
X0133333Y0111530D01*
X0133333Y0110532D02*
X0060421Y0110532D01*
X0060834Y0109533D02*
X0133333Y0109533D01*
X0133333Y0108535D02*
X0061248Y0108535D01*
X0061314Y0107536D02*
X0133333Y0107536D01*
X0133333Y0106538D02*
X0061314Y0106538D01*
X0061314Y0105539D02*
X0133333Y0105539D01*
X0133333Y0104541D02*
X0061314Y0104541D01*
X0060926Y0103542D02*
X0133333Y0103542D01*
X0133333Y0102544D02*
X0060513Y0102544D01*
X0060099Y0101545D02*
X0133333Y0101545D01*
X0133333Y0100547D02*
X0059492Y0100547D01*
X0058494Y0099548D02*
X0133333Y0099548D01*
X0133333Y0098550D02*
X0057495Y0098550D01*
X0055693Y0097551D02*
X0133333Y0097551D01*
X0133333Y0096553D02*
X0042241Y0096553D01*
X0043239Y0095554D02*
X0133333Y0095554D01*
X0133333Y0094556D02*
X0044238Y0094556D01*
X0045236Y0093557D02*
X0133333Y0093557D01*
X0133087Y0088565D02*
X0008083Y0088565D01*
X0008083Y0089563D02*
X0043573Y0089563D01*
X0042575Y0090562D02*
X0008083Y0090562D01*
X0008083Y0091560D02*
X0041576Y0091560D01*
X0040578Y0092559D02*
X0008083Y0092559D01*
X0008083Y0093557D02*
X0039579Y0093557D01*
X0038581Y0094556D02*
X0008083Y0094556D01*
X0008083Y0095554D02*
X0037582Y0095554D01*
X0036584Y0096553D02*
X0008083Y0096553D01*
X0008083Y0097551D02*
X0011343Y0097551D01*
X0010344Y0098550D02*
X0008083Y0098550D01*
X0008083Y0099548D02*
X0009346Y0099548D01*
X0009333Y0100547D02*
X0008083Y0100547D01*
X0008083Y0101545D02*
X0009333Y0101545D01*
X0009333Y0102544D02*
X0008083Y0102544D01*
X0008083Y0103542D02*
X0009333Y0103542D01*
X0010171Y0104541D02*
X0008083Y0104541D01*
X0008083Y0105539D02*
X0011170Y0105539D01*
X0012168Y0106538D02*
X0008083Y0106538D01*
X0008083Y0107536D02*
X0011358Y0107536D01*
X0010359Y0108535D02*
X0008083Y0108535D01*
X0008083Y0109533D02*
X0009790Y0109533D01*
X0009377Y0110532D02*
X0008083Y0110532D01*
X0008083Y0111530D02*
X0009333Y0111530D01*
X0009333Y0112529D02*
X0008083Y0112529D01*
X0008083Y0113527D02*
X0009185Y0113527D01*
X0008186Y0114526D02*
X0008083Y0114526D01*
X0011633Y0117584D02*
X0012806Y0116411D01*
X0013339Y0116632D01*
X0015328Y0116632D01*
X0017166Y0115870D01*
X0017955Y0115081D01*
X0024205Y0121332D01*
X0011633Y0121332D01*
X0011633Y0117584D01*
X0011696Y0117521D02*
X0020395Y0117521D01*
X0019396Y0116523D02*
X0015590Y0116523D01*
X0017512Y0115524D02*
X0018398Y0115524D01*
X0021393Y0118520D02*
X0011633Y0118520D01*
X0011633Y0119518D02*
X0022392Y0119518D01*
X0023390Y0120517D02*
X0011633Y0120517D01*
X0012695Y0116523D02*
X0013076Y0116523D01*
X0017309Y0107536D02*
X0017333Y0107536D01*
X0025554Y0106538D02*
X0026411Y0106538D01*
X0027309Y0107536D02*
X0027333Y0107536D01*
X0031333Y0107536D02*
X0031463Y0107536D01*
X0031333Y0106538D02*
X0033112Y0106538D01*
X0034026Y0107536D02*
X0034640Y0107536D01*
X0034640Y0108535D02*
X0034026Y0108535D01*
X0034026Y0109533D02*
X0034640Y0109533D01*
X0034640Y0110532D02*
X0034026Y0110532D01*
X0034640Y0111530D02*
X0043022Y0111530D01*
X0042608Y0110532D02*
X0039221Y0110532D01*
X0038876Y0109533D02*
X0042195Y0109533D01*
X0041781Y0108535D02*
X0038264Y0108535D01*
X0037203Y0107536D02*
X0041715Y0107536D01*
X0041715Y0106538D02*
X0035554Y0106538D01*
X0037497Y0105539D02*
X0041715Y0105539D01*
X0041715Y0104541D02*
X0038495Y0104541D01*
X0038954Y0103542D02*
X0042103Y0103542D01*
X0042516Y0102544D02*
X0039333Y0102544D01*
X0039333Y0101545D02*
X0042930Y0101545D01*
X0043536Y0100547D02*
X0039296Y0100547D01*
X0039245Y0099548D02*
X0044535Y0099548D01*
X0045533Y0098550D02*
X0040244Y0098550D01*
X0041242Y0097551D02*
X0047336Y0097551D01*
X0031170Y0105539D02*
X0031069Y0105539D01*
X0030171Y0104541D02*
X0030071Y0104541D01*
X0039254Y0112529D02*
X0043758Y0112529D01*
X0044757Y0113527D02*
X0038975Y0113527D01*
X0038411Y0114526D02*
X0045755Y0114526D01*
X0027505Y0118632D02*
X0025453Y0116580D01*
X0025328Y0116632D01*
X0025162Y0116632D01*
X0027162Y0118632D01*
X0027505Y0118632D01*
X0027393Y0118520D02*
X0027050Y0118520D01*
X0026395Y0117521D02*
X0026052Y0117521D01*
X0066309Y0141486D02*
X0070497Y0141486D01*
X0069641Y0142484D02*
X0067077Y0142484D01*
X0067077Y0143483D02*
X0069589Y0143483D01*
X0069589Y0144481D02*
X0067077Y0144481D01*
X0073739Y0144481D02*
X0074739Y0144481D01*
X0074739Y0143483D02*
X0073739Y0143483D01*
X0073739Y0142484D02*
X0074739Y0142484D01*
X0074739Y0141486D02*
X0073739Y0141486D01*
X0073739Y0147477D02*
X0074739Y0147477D01*
X0074739Y0148475D02*
X0073739Y0148475D01*
X0073739Y0149474D02*
X0074739Y0149474D01*
X0073833Y0152469D02*
X0072833Y0152469D01*
X0072833Y0153468D02*
X0073833Y0153468D01*
X0073833Y0154466D02*
X0072833Y0154466D01*
X0067109Y0157462D02*
X0065633Y0157462D01*
X0065633Y0158460D02*
X0067109Y0158460D01*
X0067109Y0165132D02*
X0065205Y0165132D01*
X0065633Y0165560D01*
X0065633Y0166282D01*
X0067109Y0166282D01*
X0067109Y0165132D01*
X0067109Y0165450D02*
X0065523Y0165450D01*
X0061287Y0173438D02*
X0086412Y0173438D01*
X0075620Y0174437D02*
X0075028Y0174437D01*
X0062626Y0178431D02*
X0062041Y0178431D01*
X0055639Y0187417D02*
X0054994Y0187417D01*
X0033464Y0186419D02*
X0023234Y0186419D01*
X0023944Y0185420D02*
X0032755Y0185420D01*
X0032755Y0184422D02*
X0023944Y0184422D01*
X0023944Y0183423D02*
X0032755Y0183423D01*
X0032755Y0182425D02*
X0023944Y0182425D01*
X0023944Y0181426D02*
X0032755Y0181426D01*
X0032755Y0180428D02*
X0023944Y0180428D01*
X0023944Y0179429D02*
X0032755Y0179429D01*
X0032755Y0178431D02*
X0023944Y0178431D01*
X0023944Y0177432D02*
X0032755Y0177432D01*
X0032914Y0176434D02*
X0023784Y0176434D01*
X0019847Y0200398D02*
X0008083Y0200398D01*
X0008083Y0201396D02*
X0020845Y0201396D01*
X0093370Y0183423D02*
X0093713Y0183423D01*
X0094369Y0182425D02*
X0094712Y0182425D01*
X0095367Y0181426D02*
X0095710Y0181426D01*
X0106613Y0152469D02*
X0106613Y0152469D01*
X0106613Y0151471D02*
X0106613Y0151471D01*
X0106613Y0150472D02*
X0106613Y0150472D01*
X0106613Y0149474D02*
X0106613Y0149474D01*
X0127029Y0132499D02*
X0133333Y0132499D01*
X0133333Y0131501D02*
X0126031Y0131501D01*
X0125032Y0130502D02*
X0133333Y0130502D01*
X0133333Y0129504D02*
X0124034Y0129504D01*
X0123035Y0128505D02*
X0133333Y0128505D01*
X0133333Y0127507D02*
X0122037Y0127507D01*
X0121038Y0126508D02*
X0133333Y0126508D01*
X0133333Y0125510D02*
X0120040Y0125510D01*
X0119041Y0124511D02*
X0133333Y0124511D01*
X0133333Y0123512D02*
X0118043Y0123512D01*
X0117044Y0122514D02*
X0133333Y0122514D01*
X0133333Y0121515D02*
X0116046Y0121515D01*
X0115047Y0120517D02*
X0133333Y0120517D01*
X0133333Y0119518D02*
X0114049Y0119518D01*
X0113050Y0118520D02*
X0133333Y0118520D01*
X0133333Y0117521D02*
X0112052Y0117521D01*
X0111053Y0116523D02*
X0133333Y0116523D01*
X0133333Y0133498D02*
X0128028Y0133498D01*
X0130511Y0134496D02*
X0133333Y0134496D01*
X0188383Y0180428D02*
X0191109Y0180428D01*
X0191982Y0181426D02*
X0188305Y0181426D01*
X0187854Y0182425D02*
X0191395Y0182425D01*
X0162658Y0205390D02*
X0157403Y0205390D01*
X0156404Y0206389D02*
X0162125Y0206389D01*
X0162125Y0207387D02*
X0155406Y0207387D01*
X0154407Y0208386D02*
X0162125Y0208386D01*
X0125333Y0218632D02*
X0114349Y0229616D01*
X0114349Y0229655D01*
X0109699Y0229355D02*
X0108999Y0229355D01*
X0108999Y0230353D02*
X0109699Y0230353D01*
X0109699Y0231352D02*
X0108999Y0231352D01*
X0108999Y0232350D02*
X0109699Y0232350D01*
X0109699Y0233349D02*
X0108999Y0233349D01*
X0108999Y0234347D02*
X0109699Y0234347D01*
X0109699Y0235346D02*
X0108999Y0235346D01*
X0108999Y0236344D02*
X0109699Y0236344D01*
X0109891Y0237343D02*
X0108807Y0237343D01*
X0108393Y0238341D02*
X0110305Y0238341D01*
X0111159Y0239340D02*
X0107539Y0239340D01*
X0105915Y0240338D02*
X0112783Y0240338D01*
X0109854Y0228356D02*
X0108844Y0228356D01*
X0109475Y0227358D02*
X0110268Y0227358D01*
X0110474Y0226359D02*
X0111070Y0226359D01*
X0111472Y0225361D02*
X0112567Y0225361D01*
X0112471Y0224362D02*
X0116774Y0224362D01*
X0117773Y0223364D02*
X0113469Y0223364D01*
X0114468Y0222365D02*
X0118771Y0222365D01*
X0119770Y0221367D02*
X0115466Y0221367D01*
X0116465Y0220368D02*
X0120768Y0220368D01*
X0121767Y0219370D02*
X0117463Y0219370D01*
X0165915Y0240338D02*
X0168212Y0240338D01*
X0174349Y0229655D02*
X0174349Y0229616D01*
X0282862Y0242335D02*
X0396284Y0242335D01*
X0396284Y0241337D02*
X0283632Y0241337D01*
X0376164Y0090562D02*
X0379211Y0090562D01*
X0380209Y0089563D02*
X0376164Y0089563D01*
X0376164Y0088565D02*
X0381208Y0088565D01*
X0382206Y0087566D02*
X0376164Y0087566D01*
X0376164Y0086568D02*
X0391233Y0086568D01*
X0391233Y0087566D02*
X0388460Y0087566D01*
X0389459Y0088565D02*
X0391233Y0088565D01*
X0391233Y0089563D02*
X0390457Y0089563D01*
X0391233Y0085569D02*
X0376164Y0085569D01*
X0376164Y0084571D02*
X0391233Y0084571D01*
X0391233Y0083572D02*
X0366590Y0083572D01*
X0365592Y0082574D02*
X0391233Y0082574D01*
X0391233Y0081575D02*
X0364593Y0081575D01*
X0363595Y0080577D02*
X0391233Y0080577D01*
X0391233Y0079578D02*
X0362596Y0079578D01*
X0362148Y0078579D02*
X0391233Y0078579D01*
X0391233Y0077581D02*
X0362148Y0077581D01*
X0362148Y0076582D02*
X0391233Y0076582D01*
X0391233Y0075584D02*
X0361887Y0075584D01*
X0355472Y0075584D02*
X0355194Y0075584D01*
X0348779Y0075584D02*
X0113861Y0075584D01*
X0112863Y0074585D02*
X0391233Y0074585D01*
X0391233Y0073587D02*
X0375334Y0073587D01*
X0376164Y0072588D02*
X0391233Y0072588D01*
X0390322Y0071590D02*
X0376164Y0071590D01*
X0376164Y0070591D02*
X0389323Y0070591D01*
X0382102Y0069593D02*
X0376164Y0069593D01*
X0376164Y0068594D02*
X0381104Y0068594D01*
X0380105Y0067596D02*
X0376164Y0067596D01*
X0376164Y0066597D02*
X0379107Y0066597D01*
X0365328Y0063602D02*
X0063339Y0063602D01*
X0063644Y0064600D02*
X0107916Y0064600D01*
X0106791Y0065599D02*
X0063644Y0065599D01*
X0063644Y0066597D02*
X0106143Y0066597D01*
X0105730Y0067596D02*
X0063644Y0067596D01*
X0063644Y0068594D02*
X0105684Y0068594D01*
X0105699Y0069593D02*
X0063644Y0069593D01*
X0063644Y0070591D02*
X0106112Y0070591D01*
X0106716Y0071590D02*
X0063644Y0071590D01*
X0063644Y0072588D02*
X0107736Y0072588D01*
X0107772Y0062603D02*
X0062926Y0062603D01*
X0062310Y0061605D02*
X0106731Y0061605D01*
X0106119Y0060606D02*
X0061311Y0060606D01*
X0059587Y0059608D02*
X0105705Y0059608D01*
X0105684Y0058609D02*
X0008083Y0058609D01*
X0008083Y0059608D02*
X0031080Y0059608D01*
X0029394Y0060606D02*
X0008083Y0060606D01*
X0008083Y0061605D02*
X0028419Y0061605D01*
X0027765Y0062603D02*
X0008083Y0062603D01*
X0008083Y0063602D02*
X0027337Y0063602D01*
X0027102Y0064600D02*
X0008083Y0064600D01*
X0008083Y0065599D02*
X0027022Y0065599D01*
X0027022Y0066597D02*
X0008083Y0066597D01*
X0008083Y0067596D02*
X0027022Y0067596D01*
X0027022Y0068594D02*
X0008083Y0068594D01*
X0008083Y0069593D02*
X0027022Y0069593D01*
X0027022Y0071590D02*
X0008083Y0071590D01*
X0008083Y0072588D02*
X0027022Y0072588D01*
X0027022Y0073587D02*
X0008083Y0073587D01*
X0008083Y0074585D02*
X0027022Y0074585D01*
X0027022Y0075584D02*
X0008083Y0075584D01*
X0008083Y0076582D02*
X0027091Y0076582D01*
X0027315Y0077581D02*
X0008083Y0077581D01*
X0008083Y0078579D02*
X0027719Y0078579D01*
X0028357Y0079578D02*
X0008083Y0079578D01*
X0008083Y0080577D02*
X0029289Y0080577D01*
X0030886Y0081575D02*
X0008083Y0081575D01*
X0008083Y0070591D02*
X0029422Y0070591D01*
X0033222Y0060606D02*
X0033822Y0060606D01*
X0033822Y0059608D02*
X0033222Y0059608D01*
X0035722Y0051620D02*
X0009987Y0051620D01*
X0014463Y0047626D02*
X0035293Y0047626D01*
X0036311Y0046627D02*
X0017436Y0046627D01*
X0045033Y0056612D02*
X0045633Y0056612D01*
X0045633Y0057611D02*
X0045033Y0057611D01*
X0033822Y0080577D02*
X0033222Y0080577D01*
X0033222Y0081575D02*
X0033822Y0081575D01*
D37*
X0365648Y0138632D02*
X0365727Y0138553D01*
M02*
