%
M48
M72
T01C0.01500
T02C0.02400
T03C0.03150
T04C0.03200
T05C0.03228
T06C0.03937
T07C0.04000
T08C0.12598
%
T01
X135333Y90632
X174333Y104632
X189333Y104632
X189333Y120632
X216333Y120632
X222333Y96932
X279333Y104632
X329333Y105632
X348333Y124632
X261333Y143632
X237333Y172132
X237333Y177132
X273333Y177132
X291333Y185632
X252333Y208132
X214333Y202132
X185333Y209632
X178333Y202132
X158908Y190206
X136333Y175632
X132333Y172632
X129333Y175632
X101333Y163632
X132333Y145632
X124333Y142632
X128333Y136632
X144333Y120632
X100333Y123632
X90333Y136632
X29333Y184632
X36333Y199632
X60333Y206632
X60333Y212632
X66333Y214632
X64333Y225632
X31333Y228632
X96333Y215632
X123333Y192632
X185333Y180632
X195601Y170364
X185333Y166632
X189333Y162632
X185333Y158632
X197333Y152632
X304333Y224632
X326333Y224632
X348333Y206632
X385333Y222632
X348333Y185632
X369333Y58632
T02
X280333Y219632
X280333Y229632
X280333Y239632
X253333Y239632
X253333Y229632
X253333Y219632
T03
X110333Y78632
X110333Y68632
X110333Y58632
T04
X39822Y51734
X40609Y51734
X41396Y51734
X42184Y51734
X42971Y51734
X43759Y51734
X44546Y51734
X45333Y51734
X46121Y51734
X46908Y51734
X47696Y51734
X48483Y51734
X49270Y51734
X50058Y51734
X50845Y51734
X57144Y65120
X57144Y65907
X57144Y66695
X57144Y67482
X57144Y68269
X57144Y69057
X57144Y69844
X57144Y70632
X57144Y71419
X57144Y72206
X57144Y72994
X57144Y73781
X57144Y74569
X57144Y75356
X57144Y76143
X33522Y76143
X33522Y75356
X33522Y74569
X33522Y73781
X33522Y72994
X33522Y72206
X33522Y71419
X33522Y70632
X33522Y69844
X33522Y69057
X33522Y68269
X33522Y67482
X33522Y66695
X33522Y65907
X33522Y65120
T05
X34333Y101632
X24333Y101632
X14333Y101632
X14333Y111632
X24333Y111632
X34333Y111632
T06
X74349Y229655
X84349Y229655
X94349Y229655
X104349Y229655
X114349Y229655
X124349Y229655
X134349Y229655
X144349Y229655
X154349Y229655
X164349Y229655
X174349Y229655
X184349Y229655
X194349Y229655
X204349Y229655
X214349Y229655
X224349Y229655
T07
X365727Y227553
X365727Y217710
X365727Y178553
X365727Y168710
X365727Y138553
X365727Y128710
X385333Y93632
X385333Y63632
T08
X349152Y106427
X349152Y230836
X51514Y230836
X51514Y106427
M30
